<svg width="16" height="16" viewBox="0 0 16 16" fill="none" xmlns="http://www.w3.org/2000/svg">
<path fill-rule="evenodd" clip-rule="evenodd" d="M0.864949 6.95859L7.99997 0.666656L15.135 6.95864C15.3794 7.17419 15.4056 7.54604 15.1938 7.79372C14.9774 8.04679 14.5957 8.07366 14.3459 7.85342L14.0909 7.62854V13.5318C14.0909 14.5252 13.2951 15.3333 12.3169 15.3333H10.507C9.71027 15.3333 9.06441 14.6875 9.06441 13.8908V10.305H6.99468V13.8908C6.99468 14.6875 6.34882 15.3333 5.55211 15.3333H3.6831C2.70486 15.3333 1.90903 14.5252 1.90903 13.5318V7.62851L1.65403 7.85339C1.40428 8.07363 1.02258 8.04676 0.80615 7.7937C0.59432 7.54601 0.620502 7.17416 0.864949 6.95859ZM12.3169 14.1323C12.6429 14.1323 12.9082 13.863 12.9082 13.5318V6.58558L7.99997 2.25731L3.09172 6.58558V13.5319C3.09172 13.863 3.35699 14.1324 3.68307 14.1324H5.81196V10.3821C5.81196 9.67391 6.38606 9.09981 7.09424 9.09981H8.96485C9.67304 9.09981 10.2471 9.67391 10.2471 10.3821V14.1323H12.3169Z" fill="#FF6400"/>
<path d="M7.99997 0.666656L8.212 0.426219L7.99997 0.239244L7.78794 0.426219L7.99997 0.666656ZM0.864949 6.95859L1.07698 7.19903H1.07698L0.864949 6.95859ZM15.135 6.95864L14.923 7.19907L15.135 6.95864ZM15.1938 7.79372L14.9502 7.58537L15.1938 7.79372ZM14.3459 7.85342L14.558 7.61299L14.3459 7.85342ZM14.0909 7.62854L14.303 7.38811L13.7704 6.91843V7.62854H14.0909ZM9.06441 10.305H9.38499V9.98443H9.06441V10.305ZM6.99468 10.305V9.98443H6.67411V10.305H6.99468ZM1.90903 7.62851H2.2296V6.9184L1.697 7.38808L1.90903 7.62851ZM1.65403 7.85339L1.442 7.61296H1.442L1.65403 7.85339ZM0.80615 7.7937L1.04978 7.58534L1.04978 7.58534L0.80615 7.7937ZM12.9082 6.58558H13.2288V6.44086L13.1202 6.34514L12.9082 6.58558ZM7.99997 2.25731L8.212 2.01687L7.99997 1.82989L7.78794 2.01687L7.99997 2.25731ZM3.09172 6.58558L2.8797 6.34514L2.77115 6.44086V6.58558H3.09172ZM5.81196 14.1324V14.4529H6.13253V14.1324H5.81196ZM10.2471 14.1323H9.92657V14.4529H10.2471V14.1323ZM7.78794 0.426219L0.652921 6.71816L1.07698 7.19903L8.212 0.907094L7.78794 0.426219ZM15.347 6.7182L8.212 0.426219L7.78794 0.907094L14.923 7.19907L15.347 6.7182ZM15.4374 8.00207C15.7631 7.62128 15.7228 7.0496 15.347 6.7182L14.923 7.19907C15.0361 7.29879 15.0482 7.47079 14.9502 7.58537L15.4374 8.00207ZM14.1339 8.09386C14.5179 8.43246 15.1047 8.39114 15.4374 8.00207L14.9502 7.58537C14.8501 7.70243 14.6735 7.71487 14.558 7.61299L14.1339 8.09386ZM13.8789 7.86898L14.1339 8.09386L14.558 7.61299L14.303 7.38811L13.8789 7.86898ZM14.4115 13.5318V7.62854H13.7704V13.5318H14.4115ZM12.3169 15.6539C13.4767 15.6539 14.4115 14.6976 14.4115 13.5318H13.7704C13.7704 14.3528 13.1134 15.0128 12.3169 15.0128V15.6539ZM10.507 15.6539H12.3169V15.0128H10.507V15.6539ZM8.74384 13.8908C8.74384 14.8645 9.53323 15.6539 10.507 15.6539V15.0128C9.88732 15.0128 9.38499 14.5104 9.38499 13.8908H8.74384ZM8.74384 10.305V13.8908H9.38499V10.305H8.74384ZM6.99468 10.6256H9.06441V9.98443H6.99468V10.6256ZM7.31525 13.8908V10.305H6.67411V13.8908H7.31525ZM5.55211 15.6539C6.52587 15.6539 7.31525 14.8645 7.31525 13.8908H6.67411C6.67411 14.5104 6.17178 15.0128 5.55211 15.0128V15.6539ZM3.6831 15.6539H5.55211V15.0128H3.6831V15.6539ZM1.58846 13.5318C1.58846 14.6976 2.5232 15.6539 3.6831 15.6539V15.0128C2.88653 15.0128 2.2296 14.3528 2.2296 13.5318H1.58846ZM1.58846 7.62851V13.5318H2.2296V7.62851H1.58846ZM1.86606 8.09383L2.12106 7.86895L1.697 7.38808L1.442 7.61296L1.86606 8.09383ZM0.562523 8.00205C0.895257 8.39111 1.48209 8.43243 1.86606 8.09383L1.442 7.61296C1.32647 7.71484 1.14989 7.70241 1.04978 7.58534L0.562523 8.00205ZM0.652921 6.71816C0.277106 7.04956 0.236855 7.62126 0.562523 8.00205L1.04978 7.58534C0.951786 7.47076 0.963898 7.29875 1.07698 7.19903L0.652921 6.71816ZM12.5876 13.5318C12.5876 13.6906 12.4613 13.8118 12.3169 13.8118V14.4529C12.8246 14.4529 13.2288 14.0354 13.2288 13.5318H12.5876ZM12.5876 6.58558V13.5318H13.2288V6.58558H12.5876ZM7.78794 2.49774L12.6962 6.82601L13.1202 6.34514L8.212 2.01687L7.78794 2.49774ZM3.30375 6.82601L8.212 2.49774L7.78794 2.01687L2.8797 6.34514L3.30375 6.82601ZM3.4123 13.5319V6.58558H2.77115V13.5319H3.4123ZM3.68307 13.8118C3.53865 13.8118 3.4123 13.6906 3.4123 13.5319H2.77115C2.77115 14.0354 3.17533 14.4529 3.68307 14.4529V13.8118ZM5.81196 13.8118H3.68307V14.4529H5.81196V13.8118ZM5.49139 10.3821V14.1324H6.13253V10.3821H5.49139ZM7.09424 8.77924C6.20901 8.77924 5.49139 9.49686 5.49139 10.3821H6.13253C6.13253 9.85095 6.5631 9.42038 7.09424 9.42038V8.77924ZM8.96485 8.77924H7.09424V9.42038H8.96485V8.77924ZM10.5677 10.3821C10.5677 9.49686 9.85009 8.77924 8.96485 8.77924V9.42038C9.49599 9.42038 9.92657 9.85095 9.92657 10.3821H10.5677ZM10.5677 14.1323V10.3821H9.92657V14.1323H10.5677ZM12.3169 13.8118H10.2471V14.4529H12.3169V13.8118Z" fill="#FF6400"/>
</svg>
