<svg width="16" height="16" viewBox="0 0 16 16" fill="none" xmlns="http://www.w3.org/2000/svg">
<path fill-rule="evenodd" clip-rule="evenodd" d="M0.864949 6.95856L7.99997 0.666626L15.135 6.95861C15.3794 7.17416 15.4056 7.546 15.1938 7.79369C14.9774 8.04676 14.5957 8.07363 14.3459 7.85339L14.0909 7.62851V13.5318C14.0909 14.5252 13.2951 15.3333 12.3169 15.3333H10.507C9.71027 15.3333 9.06441 14.6874 9.06441 13.8907V10.305H6.99468V13.8907C6.99468 14.6874 6.34882 15.3333 5.55211 15.3333H3.6831C2.70486 15.3333 1.90903 14.5251 1.90903 13.5318V7.62848L1.65403 7.85336C1.40428 8.0736 1.02258 8.04673 0.80615 7.79367C0.59432 7.54598 0.620502 7.17413 0.864949 6.95856ZM12.3169 14.1323C12.6429 14.1323 12.9082 13.8629 12.9082 13.5318V6.58555L7.99997 2.25727L3.09172 6.58555V13.5318C3.09172 13.863 3.35699 14.1323 3.68307 14.1323H5.81196V10.3821C5.81196 9.67388 6.38606 9.09978 7.09424 9.09978H8.96485C9.67304 9.09978 10.2471 9.67387 10.2471 10.3821V14.1323H12.3169Z" fill="#FF6400"/>
<path d="M7.99997 0.666626L8.212 0.426189L7.99997 0.239214L7.78794 0.426188L7.99997 0.666626ZM0.864949 6.95856L1.07698 7.199H1.07698L0.864949 6.95856ZM15.135 6.95861L14.923 7.19904L15.135 6.95861ZM15.1938 7.79369L14.9502 7.58534L15.1938 7.79369ZM14.3459 7.85339L14.558 7.61296L14.3459 7.85339ZM14.0909 7.62851L14.303 7.38808L13.7704 6.9184V7.62851H14.0909ZM9.06441 10.305H9.38499V9.9844H9.06441V10.305ZM6.99468 10.305V9.9844H6.67411V10.305H6.99468ZM1.90903 7.62848H2.2296V6.91837L1.697 7.38805L1.90903 7.62848ZM1.65403 7.85336L1.442 7.61293H1.442L1.65403 7.85336ZM0.80615 7.79367L1.04978 7.58531L1.04978 7.58531L0.80615 7.79367ZM12.9082 6.58555H13.2288V6.44083L13.1202 6.34511L12.9082 6.58555ZM7.99997 2.25727L8.212 2.01684L7.99997 1.82986L7.78794 2.01684L7.99997 2.25727ZM3.09172 6.58555L2.8797 6.34511L2.77115 6.44083V6.58555H3.09172ZM5.81196 14.1323V14.4529H6.13253V14.1323H5.81196ZM10.2471 14.1323H9.92657V14.4529H10.2471V14.1323ZM7.78794 0.426188L0.652921 6.71813L1.07698 7.199L8.212 0.907064L7.78794 0.426188ZM15.347 6.71817L8.212 0.426189L7.78794 0.907063L14.923 7.19904L15.347 6.71817ZM15.4374 8.00204C15.7631 7.62125 15.7228 7.04957 15.347 6.71817L14.923 7.19904C15.0361 7.29876 15.0482 7.47076 14.9502 7.58534L15.4374 8.00204ZM14.1339 8.09383C14.5179 8.43243 15.1047 8.39111 15.4374 8.00204L14.9502 7.58534C14.8501 7.7024 14.6735 7.71483 14.558 7.61296L14.1339 8.09383ZM13.8789 7.86895L14.1339 8.09383L14.558 7.61296L14.303 7.38808L13.8789 7.86895ZM14.4115 13.5318V7.62851H13.7704V13.5318H14.4115ZM12.3169 15.6539C13.4767 15.6539 14.4115 14.6976 14.4115 13.5318H13.7704C13.7704 14.3528 13.1134 15.0127 12.3169 15.0127V15.6539ZM10.507 15.6539H12.3169V15.0127H10.507V15.6539ZM8.74384 13.8907C8.74384 14.8645 9.53323 15.6539 10.507 15.6539V15.0127C9.88732 15.0127 9.38499 14.5104 9.38499 13.8907H8.74384ZM8.74384 10.305V13.8907H9.38499V10.305H8.74384ZM6.99468 10.6255H9.06441V9.9844H6.99468V10.6255ZM7.31525 13.8907V10.305H6.67411V13.8907H7.31525ZM5.55211 15.6539C6.52587 15.6539 7.31525 14.8645 7.31525 13.8907H6.67411C6.67411 14.5104 6.17178 15.0127 5.55211 15.0127V15.6539ZM3.6831 15.6539H5.55211V15.0127H3.6831V15.6539ZM1.58846 13.5318C1.58846 14.6975 2.5232 15.6539 3.6831 15.6539V15.0127C2.88653 15.0127 2.2296 14.3527 2.2296 13.5318H1.58846ZM1.58846 7.62848V13.5318H2.2296V7.62848H1.58846ZM1.86606 8.0938L2.12106 7.86892L1.697 7.38805L1.442 7.61293L1.86606 8.0938ZM0.562523 8.00202C0.895257 8.39108 1.48209 8.4324 1.86606 8.0938L1.442 7.61293C1.32647 7.71481 1.14989 7.70238 1.04978 7.58531L0.562523 8.00202ZM0.652921 6.71813C0.277106 7.04953 0.236855 7.62123 0.562523 8.00202L1.04978 7.58531C0.951786 7.47073 0.963898 7.29872 1.07698 7.199L0.652921 6.71813ZM12.5876 13.5318C12.5876 13.6905 12.4613 13.8117 12.3169 13.8117V14.4529C12.8246 14.4529 13.2288 14.0353 13.2288 13.5318H12.5876ZM12.5876 6.58555V13.5318H13.2288V6.58555H12.5876ZM7.78794 2.49771L12.6962 6.82598L13.1202 6.34511L8.212 2.01684L7.78794 2.49771ZM3.30375 6.82598L8.212 2.49771L7.78794 2.01684L2.8797 6.34511L3.30375 6.82598ZM3.4123 13.5318V6.58555H2.77115V13.5318H3.4123ZM3.68307 13.8118C3.53865 13.8118 3.4123 13.6906 3.4123 13.5318H2.77115C2.77115 14.0354 3.17533 14.4529 3.68307 14.4529V13.8118ZM5.81196 13.8118H3.68307V14.4529H5.81196V13.8118ZM5.49139 10.3821V14.1323H6.13253V10.3821H5.49139ZM7.09424 8.77921C6.20901 8.77921 5.49139 9.49683 5.49139 10.3821H6.13253C6.13253 9.85092 6.5631 9.42035 7.09424 9.42035V8.77921ZM8.96485 8.77921H7.09424V9.42035H8.96485V8.77921ZM10.5677 10.3821C10.5677 9.49683 9.85009 8.77921 8.96485 8.77921V9.42035C9.49599 9.42035 9.92657 9.85092 9.92657 10.3821H10.5677ZM10.5677 14.1323V10.3821H9.92657V14.1323H10.5677ZM12.3169 13.8117H10.2471V14.4529H12.3169V13.8117Z" fill="#FF6400"/>
</svg>
