<svg width="40" height="40" viewBox="0 0 40 40" fill="none" xmlns="http://www.w3.org/2000/svg">
<rect width="40" height="40" rx="20" fill="white"/>
<path fill-rule="evenodd" clip-rule="evenodd" d="M23.8125 22.6129L27.7567 26.5735C28.0904 26.9085 28.0794 27.4428 27.7326 27.7649C27.5694 27.9166 27.3544 28 27.1278 28C26.8883 28 26.6649 27.9082 26.4988 27.7416L22.5246 23.751C21.3961 24.5167 20.0762 24.92 18.6911 24.92C15.0017 24.92 12 22.022 12 18.46C12 14.898 15.0017 12 18.6911 12C22.3806 12 25.3823 14.898 25.3823 18.46C25.3823 19.9846 24.8266 21.449 23.8125 22.6129ZM23.6368 18.46C23.6368 15.8271 21.4182 13.6852 18.6911 13.6852C15.9641 13.6852 13.7455 15.8271 13.7455 18.46C13.7455 21.0929 15.9641 23.2348 18.6911 23.2348C21.4182 23.2348 23.6368 21.0929 23.6368 18.46Z" fill="#FF6400"/>
</svg>
