<svg width="16" height="16" viewBox="0 0 16 16" fill="none" xmlns="http://www.w3.org/2000/svg">
<path fill-rule="evenodd" clip-rule="evenodd" d="M12.0031 1.07178C13.2274 1.78639 14.1968 2.75575 14.9115 3.98006C15.6258 5.20437 15.983 6.54159 15.9829 7.99151C15.9829 9.44128 15.6258 10.7784 14.9113 12.0029C14.1967 13.2272 13.2274 14.1968 12.0031 14.9112C10.7786 15.6258 9.44142 15.983 7.99158 15.983C6.54174 15.983 5.20467 15.6258 3.98017 14.9112C2.75575 14.1966 1.78639 13.2272 1.07178 12.0029C0.357321 10.7783 0 9.44135 0 7.99151C0 6.54174 0.357212 5.20456 1.07189 3.98006C1.78653 2.75564 2.7559 1.78628 3.98032 1.07178C5.20467 0.357212 6.54185 0 7.99173 0C9.44175 0 10.7785 0.357212 12.0031 1.07178ZM10.8324 12.8926C11.6995 12.3863 12.3863 11.6993 12.8926 10.8322C13.3991 9.96508 13.6521 9.01817 13.6521 7.99151C13.6521 6.96477 13.3991 6.01786 12.8926 5.15076C12.3863 4.28366 11.6995 3.59683 10.8324 3.09044C9.96534 2.58402 9.01842 2.3309 7.99162 2.3309C6.96488 2.3309 6.01797 2.58402 5.15087 3.09044C4.28384 3.59679 3.59694 4.28366 3.09066 5.15076C2.58427 6.01786 2.33101 6.96477 2.33101 7.99151C2.33101 9.01817 2.58416 9.96508 3.09066 10.8322C3.59705 11.6993 4.28377 12.3862 5.15087 12.8926C6.01808 13.399 6.96503 13.652 7.99162 13.652C9.01846 13.652 9.96534 13.399 10.8324 12.8926Z" fill="white"/>
<path d="M8.99064 3.99567H8.32462C8.22734 3.99567 8.14774 4.02697 8.08517 4.08933C8.02299 4.15177 7.99168 4.23148 7.99168 4.3286V7.99148H5.66082C5.56362 7.99148 5.48394 8.02264 5.42148 8.08492C5.35908 8.14732 5.32788 8.2271 5.32788 8.32441V8.99033C5.32788 9.08749 5.35908 9.16731 5.42148 9.22967C5.48398 9.29203 5.5638 9.32319 5.66082 9.32319H8.99082C9.08784 9.32319 9.1677 9.29203 9.22995 9.22967C9.29231 9.16731 9.32373 9.08749 9.32373 8.99033V4.3286C9.32373 4.23155 9.29231 4.15188 9.22995 4.08933C9.16763 4.02697 9.08781 3.99567 8.99064 3.99567Z" fill="white"/>
</svg>
