<svg width="17" height="14" viewBox="0 0 17 14" fill="none" xmlns="http://www.w3.org/2000/svg">
<path fill-rule="evenodd" clip-rule="evenodd" d="M2.32458 7.28222C2.25822 7.17948 2.19933 7.0848 2.14801 7C2.19933 6.9152 2.25822 6.82052 2.32458 6.71778C2.62081 6.2591 3.05902 5.65002 3.62644 5.04477C4.77954 3.8148 6.34796 2.72165 8.25773 2.72165C10.1675 2.72165 11.7359 3.8148 12.889 5.04477C13.4564 5.65002 13.8947 6.2591 14.1909 6.71778C14.2572 6.82052 14.3161 6.9152 14.3675 7C14.3161 7.0848 14.2572 7.17948 14.1909 7.28222C13.8947 7.7409 13.4564 8.34998 12.889 8.95523C11.7359 10.1852 10.1675 11.2784 8.25773 11.2784C6.34796 11.2784 4.77954 10.1852 3.62644 8.95523C3.05902 8.34998 2.62081 7.7409 2.32458 7.28222ZM16.4096 6.55211C16.4097 6.55246 16.4099 6.55279 15.5155 7C16.4099 7.44721 16.4097 7.44754 16.4096 7.44789L16.4092 7.44868L16.4082 7.45063L16.4055 7.45599L16.3971 7.47237C16.3902 7.48577 16.3807 7.50409 16.3686 7.527C16.3443 7.5728 16.3096 7.63703 16.2646 7.71707C16.1747 7.87699 16.0431 8.1008 15.871 8.36727C15.528 8.89828 15.0178 9.60879 14.3481 10.3231C13.027 11.7323 10.9665 13.2784 8.25773 13.2784C5.54895 13.2784 3.4885 11.7323 2.16737 10.3231C1.49768 9.60879 0.987439 8.89828 0.644497 8.36727C0.472405 8.1008 0.340806 7.87699 0.250847 7.71707C0.20583 7.63703 0.171128 7.5728 0.146889 7.527C0.134767 7.50409 0.125251 7.48577 0.118362 7.47237L0.109995 7.45599L0.10729 7.45063L0.106308 7.44868L0.105909 7.44789C0.105736 7.44754 0.105573 7.44721 1 7C0.105573 6.55279 0.105736 6.55246 0.105909 6.55211L0.106308 6.55132L0.10729 6.54937L0.109995 6.54401L0.118362 6.52763C0.125251 6.51423 0.134767 6.49591 0.146889 6.473C0.171128 6.4272 0.20583 6.36297 0.250847 6.28293C0.340806 6.12301 0.472405 5.8992 0.644497 5.63273C0.987439 5.10172 1.49768 4.39121 2.16737 3.67688C3.4885 2.26768 5.54895 0.721649 8.25773 0.721649C10.9665 0.721649 13.027 2.26768 14.3481 3.67688C15.0178 4.39121 15.528 5.10172 15.871 5.63273C16.0431 5.8992 16.1747 6.12301 16.2646 6.28293C16.3096 6.36297 16.3443 6.4272 16.3686 6.473C16.3807 6.49591 16.3902 6.51423 16.3971 6.52763L16.4055 6.54401L16.4082 6.54937L16.4092 6.55132L16.4096 6.55211ZM15.5155 7L16.4099 6.55279C16.5507 6.83431 16.5507 7.16569 16.4099 7.44721L15.5155 7ZM0.105573 6.55279L1 7L0.105573 7.44721C-0.0351909 7.16569 -0.0351909 6.83431 0.105573 6.55279ZM7.27835 7C7.27835 6.4591 7.71684 6.02062 8.25773 6.02062C8.79863 6.02062 9.23712 6.4591 9.23712 7C9.23712 7.5409 8.79863 7.97938 8.25773 7.97938C7.71684 7.97938 7.27835 7.5409 7.27835 7ZM8.25773 4.02062C6.61227 4.02062 5.27835 5.35453 5.27835 7C5.27835 8.64547 6.61227 9.97938 8.25773 9.97938C9.9032 9.97938 11.2371 8.64547 11.2371 7C11.2371 5.35453 9.9032 4.02062 8.25773 4.02062Z" fill="white"/>
</svg>
