<svg width="108" height="32" viewBox="0 0 108 32" fill="none" xmlns="http://www.w3.org/2000/svg">
<path d="M99.3996 0.000104H8.6053C8.27435 0.000104 7.94736 0.000104 7.61728 0.00170399C7.34097 0.00330399 7.06686 0.00795197 6.7879 0.011864C6.18187 0.0181854 5.57726 0.0654448 4.97933 0.153232C4.38224 0.242929 3.80385 0.412035 3.26373 0.65483C2.72428 0.899678 2.23136 1.21783 1.80286 1.59775C1.37211 1.97661 1.01305 2.41451 0.739485 2.89462C0.465162 3.37378 0.274946 3.88724 0.175406 4.41727C0.0749196 4.94664 0.0208469 5.4821 0.0136733 6.01887C0.00529783 6.26415 0.00441335 6.51024 0 6.75555V25.2469C0.00441335 25.4953 0.00529783 25.7359 0.0136733 25.9844C0.0208491 26.5212 0.0749218 27.0566 0.175406 27.5859C0.274671 28.1163 0.464899 28.63 0.739485 29.1094C1.01293 29.5879 1.37204 30.0241 1.80286 30.4008C2.22973 30.7824 2.72297 31.1008 3.26373 31.3438C3.80385 31.5872 4.38217 31.7573 4.97933 31.8484C5.57736 31.9355 6.18191 31.9828 6.7879 31.9898C7.06686 31.9953 7.34097 31.9984 7.61728 31.9984C7.94735 32 8.27436 32 8.6053 32H99.3996C99.7239 32 100.054 32 100.378 31.9984C100.653 31.9984 100.935 31.9953 101.21 31.9898C101.815 31.9831 102.418 31.9359 103.015 31.8484C103.614 31.7567 104.194 31.5866 104.737 31.3438C105.277 31.1006 105.77 30.7823 106.197 30.4008C106.626 30.0226 106.986 29.5868 107.263 29.1094C107.536 28.6297 107.724 28.116 107.822 27.5859C107.923 27.0565 107.979 26.5212 107.989 25.9844C107.993 25.7359 107.993 25.4953 107.993 25.2469C108 24.9563 108 24.6672 108 24.3719V7.62898C108 7.33602 108 7.04539 107.993 6.75555C107.993 6.51024 107.993 6.26415 107.989 6.01884C107.979 5.48202 107.923 4.94668 107.822 4.41724C107.724 3.88752 107.535 3.3741 107.263 2.89459C106.706 1.93225 105.823 1.14892 104.737 0.654758C104.194 0.412557 103.614 0.243496 103.015 0.15316C102.418 0.064986 101.815 0.0177102 101.21 0.011752C100.935 0.00784798 100.653 0.00315999 100.378 0.00159999C100.054 0 99.7239 0 99.3996 0V0.000104Z" fill="#A6A6A6"/>
<path d="M7.5217 31.1415C7.24672 31.1415 6.97839 31.1384 6.70557 31.1329C6.14039 31.1264 5.57654 31.083 5.01863 31.003C4.49841 30.9239 3.99445 30.7768 3.52339 30.5665C3.05664 30.3579 2.63093 30.0844 2.26257 29.7565C1.88887 29.4325 1.57775 29.0566 1.34154 28.6439C1.10272 28.2285 0.937447 27.7832 0.851471 27.3236C0.758623 26.8297 0.708389 26.3303 0.701201 25.8297C0.695479 25.6617 0.687988 25.1022 0.687988 25.1022V6.69753C0.687988 6.69753 0.695967 6.14667 0.701246 5.98483C0.708129 5.48503 0.758071 4.98642 0.85064 4.49331C0.936776 4.03242 1.10218 3.58586 1.34112 3.16908C1.57647 2.75663 1.88586 2.38051 2.25731 2.0553C2.62834 1.727 3.05541 1.45212 3.52295 1.24068C3.99293 1.03105 4.49593 0.884959 5.0151 0.807308C5.57484 0.726494 6.14065 0.682801 6.70779 0.676598L7.52215 0.66687H100.273L101.097 0.676988C101.659 0.682884 102.22 0.726186 102.774 0.806527C103.299 0.885152 103.807 1.03226 104.282 1.24301C105.219 1.66913 105.981 2.3433 106.462 3.17102C106.697 3.58492 106.86 4.02785 106.945 4.48475C107.038 4.98191 107.091 5.48444 107.102 5.98833C107.104 6.21396 107.104 6.45633 107.104 6.69753C107.111 6.9963 107.111 7.28067 107.111 7.56738V24.2417C107.111 24.5311 107.111 24.8136 107.104 25.0983C107.104 25.3574 107.104 25.5948 107.101 25.839C107.09 26.334 107.039 26.8275 106.946 27.3158C106.862 27.7787 106.698 28.2275 106.459 28.6463C106.221 29.0546 105.912 29.4271 105.542 29.7503C105.174 30.08 104.747 30.3551 104.28 30.565C103.805 30.7769 103.298 30.9246 102.774 31.003C102.216 31.0834 101.652 31.1269 101.087 31.1329C100.823 31.1384 100.546 31.1415 100.277 31.1415L99.2989 31.1431L7.5217 31.1415Z" fill="black"/>
<path fill-rule="evenodd" clip-rule="evenodd" d="M58.8714 22.915C57.5827 22.915 56.6396 22.299 56.5311 21.3607L55.0314 21.3607C55.1261 23.072 56.5919 24.1546 58.7628 24.1546C61.0832 24.1546 62.542 23.0459 62.542 21.2758C62.542 19.8919 61.7075 19.1122 59.699 18.6531L58.6204 18.3971C57.3587 18.0958 56.8429 17.7022 56.8429 17.0333C56.8429 16.194 57.6504 15.6174 58.8306 15.6174C60.0108 15.6174 60.8183 16.1873 60.9069 17.1315H62.3858C62.338 15.4991 60.9199 14.3778 58.8514 14.3778C56.7613 14.3778 55.2893 15.4991 55.2893 17.1315C55.2893 18.45 56.1238 19.2625 57.9214 19.6821L59.1901 19.9775C60.4588 20.2789 60.9946 20.7186 60.9946 21.453C60.9946 22.299 60.1062 22.915 58.8714 22.915ZM33.3477 21.4394H29.6162L28.7201 23.9966H27.1396L30.674 14.5353H32.3161L35.8504 23.9966H34.243L33.3477 21.4394ZM30.0029 20.2593H32.9607L31.5026 16.109H31.4618L30.0029 20.2593ZM40.5053 24.0688C42.2967 24.0688 43.4838 22.6915 43.4838 20.5479C43.4838 18.4103 42.2898 17.0264 40.4783 17.0264C39.5462 16.9973 38.6731 17.4659 38.2058 18.2459H38.1788V17.0985H36.7607V26.2786H38.2258V22.8619H38.2597C38.7071 23.6468 39.5793 24.1156 40.5053 24.0688ZM41.9781 20.548C41.9781 19.1514 41.2314 18.2332 40.092 18.2332C38.9726 18.2332 38.2197 19.1707 38.2197 20.548C38.2197 21.9378 38.9726 22.8687 40.092 22.8687C41.2314 22.8687 41.9781 21.9572 41.9781 20.548ZM48.3608 24.0688C50.1522 24.0688 51.3393 22.6915 51.3393 20.5479C51.3393 18.4103 50.1453 17.0264 48.3338 17.0264C47.4017 16.9973 46.5285 17.4658 46.0612 18.2459H46.0343V17.0985H44.6162V26.2786H46.0812V22.8619H46.1151C46.5626 23.6468 47.4348 24.1156 48.3608 24.0688ZM49.8336 20.548C49.8336 19.1514 49.0868 18.2332 47.9475 18.2332C46.8281 18.2332 46.0752 19.1707 46.0752 20.548C46.0752 21.9378 46.8281 22.8687 47.9475 22.8687C49.0868 22.8687 49.8336 21.9572 49.8336 20.548ZM65.7031 15.4663V17.0987H67.0603V18.22H65.7031V22.0229C65.7031 22.6136 65.9748 22.8889 66.5714 22.8889C66.7326 22.8862 66.8934 22.8753 67.0534 22.8562V23.9707C66.7851 24.0192 66.5125 24.0411 66.2396 24.0362C64.7946 24.0362 64.2311 23.5117 64.2311 22.1739V18.22H63.1934V17.0987H64.2311V15.4663H65.7031ZM71.2327 17.0139C69.1702 17.0139 67.8477 18.3778 67.8477 20.5481C67.8477 22.7245 69.1571 24.0824 71.2327 24.0824C73.3089 24.0824 74.6184 22.7245 74.6184 20.5481C74.6184 18.3777 73.302 17.0139 71.2327 17.0139ZM73.1252 20.5482C73.1252 19.0594 72.4192 18.1807 71.2321 18.1807C70.045 18.1807 69.3398 19.0661 69.3398 20.5482C69.3398 22.043 70.045 22.9151 71.2321 22.9151C72.4192 22.9151 73.1251 22.043 73.1251 20.5482H73.1252ZM77.2234 17.0985H75.8262L75.8262 23.9965H77.2912V19.905C77.2424 19.4911 77.3833 19.0772 77.6768 18.7721C77.9703 18.467 78.3871 18.3011 78.8178 18.318C79.0406 18.3117 79.2629 18.3406 79.476 18.4035V17.0791C79.3113 17.0434 79.1429 17.0257 78.9741 17.0263C78.1688 16.9966 77.4522 17.5168 77.2573 18.2726H77.2234V17.0985ZM86.2302 21.9708C86.0331 23.223 84.7713 24.0824 83.157 24.0824C81.0807 24.0824 79.792 22.7379 79.792 20.5809C79.792 18.4172 81.0876 17.0139 83.0954 17.0139C85.07 17.0139 86.3118 18.3249 86.3118 20.4165V20.9016H81.2709V20.9871C81.2238 21.5007 81.4073 22.009 81.7746 22.3829C82.142 22.7567 82.6578 22.96 83.1909 22.941C83.9018 23.0054 84.5721 22.6108 84.8391 21.9708L86.2302 21.9708ZM84.8456 19.9118H81.2774C81.2761 19.4461 81.4674 18.9992 81.8087 18.6704C82.15 18.3417 82.6131 18.1583 83.095 18.1611C83.573 18.1511 84.0337 18.3344 84.3661 18.6668C84.6984 18.9991 84.8722 19.4504 84.8456 19.9118Z" fill="white"/>
<path fill-rule="evenodd" clip-rule="evenodd" d="M46.5852 7.19031H47.2858V11.9604H46.5852V7.19031ZM31.479 8.0375C31.0503 7.59992 30.4411 7.37123 29.8192 7.41436H28.1201V11.9605H29.8192C31.2203 11.9605 32.0325 11.1257 32.0325 9.67329C32.1109 9.07543 31.9078 8.47508 31.479 8.0375ZM29.7374 11.3172H28.8506V8.0564H29.7374C30.1796 8.03269 30.6095 8.20117 30.9097 8.51577C31.2099 8.83037 31.3489 9.25816 31.2887 9.68214C31.3536 10.1079 31.2166 10.5392 30.9156 10.8564C30.6147 11.1736 30.1819 11.3429 29.7374 11.3172ZM32.8585 10.2435C32.7977 9.62857 33.1028 9.03344 33.6459 8.70771C34.189 8.38199 34.8762 8.38199 35.4193 8.70771C35.9624 9.03344 36.2675 9.62857 36.2066 10.2435C36.2686 10.8591 35.9638 11.4554 35.4202 11.7818C34.8766 12.1083 34.1885 12.1083 33.6449 11.7818C33.1013 11.4554 32.7965 10.8591 32.8585 10.2435ZM34.5335 9.0647C35.1402 9.0647 35.4858 9.4996 35.4858 10.2433H35.4858C35.4858 10.9899 35.1402 11.4244 34.5335 11.4245C33.9246 11.4245 33.582 10.9929 33.582 10.2433C33.582 9.4996 33.9246 9.0647 34.5335 9.0647ZM40.6566 11.9603H39.9299L39.1962 9.43347H39.1408L38.4102 11.9603H37.6904L36.7119 8.52945H37.4225L38.0584 11.1474H38.1107L38.8405 8.52945H39.5126L40.2424 11.1474H40.2979L40.9307 8.52945H41.6312L40.6566 11.9603ZM43.1285 8.52932H42.4541L42.4541 11.9601H43.1547V9.95305C43.1295 9.72473 43.2088 9.49719 43.3717 9.33008C43.5346 9.16297 43.7649 9.07295 44.0023 9.08364C44.5204 9.08364 44.7683 9.35782 44.7683 9.90916V11.9601H45.4688V9.73913C45.5202 9.40369 45.4109 9.06387 45.1719 8.81563C44.9329 8.56739 44.59 8.43767 44.2401 8.4631C43.7883 8.4276 43.3629 8.67306 43.1808 9.07433H43.1285V8.52932ZM49.0473 8.70772C48.5042 9.03345 48.1991 9.6286 48.2599 10.2436C48.1979 10.8592 48.5028 11.4555 49.0464 11.7819C49.59 12.1083 50.2782 12.1083 50.8218 11.7819C51.3654 11.4555 51.6703 10.8592 51.6083 10.2436C51.6691 9.6286 51.364 9.03345 50.8209 8.70772C50.2777 8.38199 49.5905 8.38199 49.0473 8.70772ZM50.8872 10.2433C50.8872 9.4996 50.5415 9.0647 49.9349 9.0647C49.326 9.0647 48.9834 9.4996 48.9834 10.2433C48.9834 10.9929 49.326 11.4245 49.9349 11.4245C50.5415 11.4244 50.8872 10.9899 50.8872 10.2433ZM53.666 9.96602C52.8215 10.0166 52.3457 10.3726 52.3457 10.9902C52.3469 11.283 52.4762 11.5617 52.7016 11.7573C52.9271 11.9529 53.2276 12.0473 53.529 12.017C53.9588 12.0362 54.3661 11.8304 54.5952 11.4783H54.6506V11.9604H55.325V9.61632C55.325 8.89161 54.8231 8.46342 53.9331 8.46342C53.1279 8.46342 52.5543 8.84139 52.4827 9.43068H53.161C53.2387 9.18812 53.5097 9.04936 53.9008 9.04936C54.3796 9.04936 54.6275 9.25396 54.6275 9.61632V9.91245L53.666 9.96602ZM54.6272 10.6969V10.41L53.7604 10.4636C53.2715 10.4952 53.0498 10.6559 53.0498 10.9584C53.0498 11.2672 53.3269 11.4469 53.7081 11.4469C53.9337 11.4689 54.1589 11.4016 54.3321 11.2602C54.5054 11.1188 54.6119 10.9155 54.6272 10.6969ZM57.7193 8.47268C56.8224 8.47268 56.2458 9.15944 56.2458 10.2435C56.2458 11.3302 56.8163 12.017 57.7193 12.0169C58.1772 12.0332 58.6065 11.8027 58.8341 11.4184H58.8895V11.9604H59.5608V7.19031H58.8602V9.07459H58.8079C58.5963 8.68705 58.1722 8.45252 57.7193 8.47268ZM56.9697 10.2436C56.9697 10.9712 57.3247 11.4091 57.9182 11.4091C58.5087 11.4091 58.8736 10.9649 58.8736 10.2465C58.8736 9.5315 58.5048 9.08098 57.9182 9.08098C57.3285 9.08098 56.9697 9.52183 56.9697 10.2436H56.9697ZM63.2464 8.70771C62.7033 9.03344 62.3982 9.62857 62.4591 10.2435C62.3971 10.8591 62.7019 11.4554 63.2455 11.7818C63.7891 12.1083 64.4772 12.1083 65.0208 11.7818C65.5644 11.4554 65.8692 10.8591 65.8072 10.2435C65.868 9.62857 65.5629 9.03344 65.0198 8.70771C64.4767 8.38199 63.7895 8.38199 63.2464 8.70771ZM65.0864 10.2433C65.0864 9.4996 64.7407 9.0647 64.1341 9.0647C63.5252 9.0647 63.1826 9.4996 63.1826 10.2433C63.1826 10.9929 63.5252 11.4245 64.1341 11.4245C64.7408 11.4244 65.0864 10.9899 65.0864 10.2433ZM67.4215 8.52932H66.7471V11.9601H67.4476V9.95305C67.4225 9.72473 67.5018 9.49719 67.6647 9.33008C67.8276 9.16297 68.0579 9.07295 68.2952 9.08364C68.8133 9.08364 69.0612 9.35782 69.0612 9.90916V11.9601H69.7618V9.73913C69.8131 9.40369 69.7039 9.06387 69.4649 8.81563C69.2258 8.56739 68.883 8.43767 68.5331 8.4631C68.0813 8.4276 67.6559 8.67306 67.4738 9.07433H67.4215V8.52932ZM73.7209 7.67519V8.54499H74.49V9.1153H73.7209V10.8794C73.7209 11.2388 73.8741 11.3962 74.2228 11.3962C74.3121 11.3959 74.4013 11.3907 74.49 11.3806V11.9445C74.3642 11.9663 74.2367 11.9779 74.1089 11.9791C73.3298 11.9791 73.0196 11.7143 73.0196 11.0528V9.11527H72.4561V8.54495H73.0196V7.67519H73.7209ZM76.1411 7.19031H75.4467L75.4468 11.9604H76.1473V9.95667C76.1257 9.72125 76.2126 9.48859 76.3849 9.32089C76.5573 9.1532 76.7974 9.06756 77.0411 9.08688C77.5361 9.08688 77.8002 9.36441 77.8002 9.9124V11.9604H78.5014V9.74537C78.5478 9.41165 78.4378 9.07531 78.2014 8.82797C77.965 8.58063 77.6268 8.44806 77.2789 8.46635C76.8202 8.43037 76.3873 8.67615 76.1966 9.08094H76.1411V7.19031ZM82.5866 11.0337C82.3902 11.6808 81.7422 12.099 81.0485 12.0263C80.5751 12.0383 80.1202 11.8487 79.8045 11.5077C79.4887 11.1667 79.344 10.7088 79.4087 10.2554C79.3457 9.80083 79.4899 9.34217 79.8039 8.99828C80.1179 8.65439 80.5708 8.4591 81.0454 8.46301C82.0331 8.46301 82.629 9.1152 82.629 10.1925V10.4288H80.1223V10.4667C80.1002 10.7213 80.1901 10.9731 80.3701 11.1603C80.5501 11.3474 80.8034 11.4524 81.0677 11.4496C81.4105 11.4894 81.7441 11.325 81.9122 11.0337L82.5866 11.0337ZM81.9151 9.92811H80.1221C80.119 9.69153 80.2148 9.46374 80.3878 9.2964C80.5609 9.12907 80.7965 9.03637 81.0413 9.03934C81.2828 9.03399 81.5154 9.12746 81.6818 9.29672C81.8482 9.46597 81.933 9.69527 81.9151 9.92811Z" fill="white"/>
<path fill-rule="evenodd" clip-rule="evenodd" d="M18.2507 7.40607C18.327 8.36929 18.0119 9.32333 17.3721 10.0656C16.7514 10.8117 15.811 11.2414 14.8205 11.2316C14.7575 10.2961 15.0819 9.37477 15.7221 8.67053C16.3705 7.95676 17.2733 7.50528 18.2507 7.40607ZM21.3836 13.0655C20.2442 13.7425 19.5431 14.9365 19.5259 16.229C19.5275 17.6914 20.4336 19.0111 21.8272 19.5808C21.5592 20.4222 21.1552 21.2174 20.6302 21.937C19.9251 22.9563 19.1859 23.9522 18.0125 23.9706C17.4545 23.983 17.0778 23.828 16.6853 23.6663C16.2759 23.4978 15.8493 23.3221 15.1817 23.3221C14.4737 23.3221 14.0279 23.5034 13.598 23.6783C13.2265 23.8294 12.8669 23.9757 12.36 23.996C11.2426 24.036 10.3886 22.9081 9.65789 21.8983C8.19744 19.8361 7.06021 16.0867 8.58483 13.5355C9.30076 12.2921 10.6394 11.5031 12.1109 11.4572C12.7447 11.4446 13.3528 11.6806 13.886 11.8876C14.2937 12.0459 14.6576 12.1872 14.9556 12.1872C15.2175 12.1872 15.5713 12.0515 15.9835 11.8933C16.6329 11.6442 17.4275 11.3394 18.2373 11.4216C19.4955 11.4596 20.6616 12.0689 21.3836 13.0655Z" fill="white"/>
</svg>
