<svg width="9" height="12" viewBox="0 0 9 12" fill="none" xmlns="http://www.w3.org/2000/svg">
<path d="M5.26233 10.6245C5.15786 10.7952 5.03893 10.9561 4.90688 11.1054C4.89454 11.1016 4.88308 11.0953 4.87318 11.0869C4.86328 11.0784 4.85514 11.0681 4.84924 11.0564C4.51301 10.6638 4.16718 10.2909 3.83094 9.8983C3.40825 9.40759 2.97596 8.92671 2.55327 8.44582C2.48827 8.34997 2.40692 8.26687 2.3131 8.20047C2.18822 8.02381 2.08254 7.83735 1.96727 7.65088L1.41969 6.76761C1.32362 6.61059 1.24677 6.45356 1.16992 6.29654C1.15463 6.27293 1.14478 6.24609 1.1411 6.21803C1.13149 6.1984 1.1411 6.17877 1.12189 6.16896C1.11228 6.15914 1.11228 6.13952 1.10267 6.1297C1.08346 6.11007 1.10267 6.08063 1.08346 6.07082C1.07385 6.061 1.07385 6.04138 1.06425 6.03156C1.05464 6.02175 1.05464 6.02175 1.06425 6.02175C1.05464 6.00212 1.06425 5.9923 1.04503 5.97268C1.03543 5.97268 1.03543 5.96286 1.04503 5.96286C1.03543 5.94323 1.04503 5.92361 1.02582 5.91379C1.02582 5.91379 1.01621 5.90398 1.02582 5.90398C1.01621 5.88435 1.02582 5.86472 1.00661 5.85491C1.00661 5.85491 0.997 5.84509 1.00661 5.84509C1.00188 5.8397 0.999268 5.83271 0.999268 5.82547C0.999268 5.81822 1.00188 5.81124 1.00661 5.80584C1.05464 5.7764 1.08346 5.81565 1.11228 5.84509C1.41008 6.18859 1.71749 6.54189 2.02491 6.88538L2.80304 7.76865L3.57157 8.6421C3.7733 8.86782 3.96544 9.09354 4.16718 9.31927C4.42655 9.6235 4.69554 9.91792 4.96452 10.2222C5.05098 10.3203 5.12783 10.4184 5.2239 10.5166C5.25272 10.546 5.29115 10.5755 5.26233 10.6245Z" fill="#F2682D"/>
<path d="M4.94531 0.741943C5.18569 0.748275 5.42441 0.784527 5.6562 0.849898C5.74959 0.865829 5.8402 0.895584 5.92518 0.938224C6.04179 1.03117 6.14525 1.14016 6.23259 1.26209C6.45355 1.50744 6.6745 1.75279 6.88584 2.00796C7.14522 2.31219 7.4142 2.60661 7.67358 2.90103C7.87532 3.12676 8.06745 3.35248 8.26919 3.5782C8.33644 3.6469 8.38447 3.72541 8.46132 3.79411C8.49296 3.90985 8.51545 4.028 8.52857 4.14742C8.55093 4.32979 8.56375 4.51324 8.56699 4.69701C8.56854 4.72034 8.56527 4.74375 8.55739 4.7657C8.4482 4.68519 8.35387 4.5855 8.2788 4.47128C8.07706 4.24556 7.87532 4.01002 7.67358 3.7843C7.47184 3.55858 7.25089 3.30341 7.04915 3.06787C6.84742 2.83234 6.65528 2.62624 6.46315 2.40052C6.19417 2.09628 5.92518 1.79205 5.6562 1.478C5.47367 1.2719 5.29115 1.06581 5.11823 0.859712C5.0884 0.817703 5.0435 0.789474 4.99335 0.781199C4.97413 0.781199 4.94531 0.7812 4.94531 0.741943Z" fill="#F69338"/>
<path d="M4.94522 0.74183C4.95482 0.74183 4.95482 0.751644 4.96443 0.751644C5.00554 0.749613 5.04637 0.759618 5.08211 0.78048C5.11785 0.801343 5.14701 0.832196 5.16617 0.869413C5.23342 0.967553 5.32948 1.04607 5.39673 1.13439C5.45437 1.20309 5.51201 1.27179 5.57925 1.34049C5.74256 1.52695 5.90588 1.70361 6.06919 1.89989C6.12813 1.97643 6.19234 2.04858 6.26132 2.1158C6.41503 2.28264 6.54952 2.44947 6.70322 2.61631L7.2508 3.2346C7.35647 3.35237 7.46214 3.47995 7.56782 3.59772C7.70231 3.75474 7.85601 3.91177 7.9809 4.07861C8.03984 4.15515 8.10405 4.2273 8.17303 4.29452C8.25446 4.39404 8.34104 4.48905 8.43241 4.57912C8.48555 4.63346 8.53378 4.69258 8.57651 4.75578C8.58449 4.86412 8.57803 4.97307 8.5573 5.07964C8.47435 5.01453 8.40007 4.93865 8.33634 4.85392C8.11539 4.60857 7.90405 4.36322 7.6831 4.11786L7.42372 3.82344C7.3701 3.74379 7.29732 3.67958 7.21237 3.63698C7.17395 3.54865 7.13552 3.46032 7.09709 3.38181C7.08749 3.372 7.08749 3.35237 7.07788 3.34255C7.06827 3.33274 7.06827 3.31311 7.05867 3.3033C7.05823 3.29824 7.05607 3.2935 7.05256 3.28991C7.04904 3.28632 7.0444 3.28411 7.03945 3.28367C7.02985 3.27386 7.02985 3.25423 7.02024 3.24441C7.01063 3.2346 7.01063 3.21497 7.00103 3.20516C7.0006 3.2001 6.99843 3.19536 6.99492 3.19177C6.9914 3.18818 6.98676 3.18597 6.98181 3.18553C6.97221 3.17571 6.97221 3.15609 6.9626 3.14627C6.9626 3.13646 6.953 3.13646 6.94339 3.12664C6.93378 3.11683 6.93378 3.0972 6.92418 3.08739C6.92374 3.08233 6.92158 3.07759 6.91807 3.074C6.91455 3.07041 6.90991 3.0682 6.90496 3.06776C6.89536 3.05795 6.89536 3.03832 6.88575 3.0285C6.88532 3.02345 6.88315 3.01871 6.87964 3.01512C6.87613 3.01153 6.87149 3.00932 6.86654 3.00888L6.84732 2.98925C6.83772 2.97943 6.83772 2.95981 6.8185 2.94999C6.81807 2.94493 6.81591 2.9402 6.81239 2.93661C6.80888 2.93302 6.80424 2.93081 6.79929 2.93036C6.79886 2.92531 6.79669 2.92057 6.79318 2.91698C6.78967 2.91339 6.78503 2.91118 6.78008 2.91074L6.76086 2.89111C6.74165 2.87148 6.74165 2.85185 6.71283 2.83222C6.7124 2.82717 6.71023 2.82243 6.70672 2.81884C6.70321 2.81525 6.69857 2.81304 6.69362 2.81259C6.69318 2.80754 6.69102 2.8028 6.68751 2.79921C6.68399 2.79562 6.67935 2.79341 6.6744 2.79297C6.67397 2.78791 6.67181 2.78317 6.66829 2.77958C6.66478 2.77599 6.66014 2.77378 6.65519 2.77334C6.65476 2.76828 6.65259 2.76354 6.64908 2.75995C6.64557 2.75636 6.64093 2.75415 6.63598 2.75371C6.62637 2.7439 6.62637 2.73408 6.61676 2.73408C6.60716 2.72427 6.60716 2.71445 6.59755 2.71445C6.58794 2.70464 6.58794 2.69483 6.57834 2.69483C6.56873 2.68501 6.56873 2.6752 6.55913 2.6752C6.54952 2.66538 6.54952 2.65557 6.53991 2.65557C6.53948 2.65051 6.53732 2.64577 6.5338 2.64218C6.53029 2.63859 6.52565 2.63638 6.5207 2.63594C6.52024 2.63073 6.51794 2.62586 6.51423 2.62225C6.51051 2.61864 6.50565 2.61653 6.50052 2.61631C6.50009 2.61126 6.49793 2.60652 6.49441 2.60293C6.4909 2.59934 6.48626 2.59713 6.48131 2.59669C6.4717 2.57706 6.45249 2.58687 6.44288 2.56724C6.43328 2.56724 6.43328 2.55743 6.42367 2.54762L6.40446 2.52799C6.39485 2.51817 6.39485 2.50836 6.38525 2.50836C6.38481 2.5033 6.38265 2.49856 6.37914 2.49497C6.37562 2.49138 6.37098 2.48917 6.36603 2.48873C6.35643 2.4691 6.33721 2.47892 6.32761 2.45929L6.30839 2.43966C6.29879 2.42985 6.29879 2.42003 6.28918 2.42003C6.27957 2.4004 6.26036 2.41022 6.25075 2.39059C6.11626 2.31208 5.98177 2.22375 5.83767 2.15505C5.65887 2.07394 5.47252 2.01147 5.28145 1.96859C5.27184 1.96859 5.26224 1.95877 5.24302 1.94896C5.02207 1.70361 4.80112 1.44844 4.58017 1.20309C4.49371 1.10495 4.40725 0.996995 4.31118 0.898855C4.27276 0.859598 4.22472 0.830156 4.26315 0.761458C4.43127 0.732384 4.60204 0.722509 4.7723 0.732016C4.82994 0.732016 4.88758 0.74183 4.94522 0.74183Z" fill="#F69137"/>
<path d="M5.26223 10.6246C5.26084 10.611 5.25671 10.5979 5.25009 10.5861C5.24348 10.5743 5.23453 10.564 5.2238 10.5559C5.16797 10.4858 5.10695 10.4202 5.04128 10.3596C4.95482 10.2615 4.86836 10.1633 4.7819 10.075C4.6378 9.91797 4.50331 9.75113 4.36882 9.59411C4.30157 9.52541 4.24393 9.4469 4.17669 9.3782C4.02298 9.22118 3.88849 9.04452 3.73478 8.87768C3.55226 8.6814 3.37934 8.47531 3.19681 8.26921L2.68766 7.69018L2.17852 7.11116L1.64055 6.50268C1.46763 6.31622 1.31392 6.11994 1.141 5.93347C1.10258 5.8844 1.07376 5.82552 1.00651 5.80589C0.996905 5.8157 0.996905 5.8157 0.987298 5.80589C0.98602 5.80461 0.985005 5.80308 0.984312 5.8014C0.983619 5.79971 0.983262 5.7979 0.983262 5.79607C0.983262 5.79425 0.983619 5.79244 0.984312 5.79075C0.985005 5.78907 0.98602 5.78754 0.987298 5.78626C0.968085 5.76663 0.987298 5.73719 0.968085 5.71756C0.968085 5.71756 0.958479 5.70775 0.968085 5.70775C0.958479 5.68812 0.968085 5.65868 0.948872 5.63905C0.948872 5.63905 0.939266 5.62923 0.948872 5.62923C0.939266 5.60961 0.948872 5.58016 0.929659 5.56054C0.929659 5.56054 0.920052 5.55072 0.929659 5.55072C0.920052 5.53109 0.929659 5.50165 0.910446 5.48202V5.45258C0.891233 5.42314 0.910446 5.3937 0.891232 5.36426C0.891232 5.35444 0.881626 5.35444 0.891232 5.34463C0.881626 5.325 0.891233 5.31519 0.900839 5.31519C0.929659 5.31519 0.948872 5.34463 0.968085 5.36426C1.30432 5.747 1.65015 6.12975 1.98638 6.52231C2.40907 7.01302 2.84137 7.4939 3.26406 7.97479C3.55226 8.30847 3.84046 8.62252 4.12865 8.9562C4.17233 9.00072 4.22065 9.04021 4.27275 9.07397C4.29486 9.0917 4.31153 9.11554 4.32078 9.14266C4.33569 9.17381 4.35653 9.20161 4.38206 9.22443C4.4076 9.24726 4.43734 9.26467 4.46953 9.27563C4.50172 9.28659 4.53573 9.2909 4.56957 9.28829C4.60341 9.28568 4.6364 9.27621 4.66662 9.26043C4.67623 9.26043 4.69544 9.25062 4.70505 9.25062C4.7819 9.25062 4.81072 9.3095 4.84915 9.35857C5.0701 9.61374 5.29105 9.85909 5.512 10.1143C5.53122 10.1437 5.56964 10.1633 5.56003 10.2026C5.46946 10.3494 5.37 10.4904 5.26223 10.6246Z" fill="#F26B2D"/>
<path d="M0.881755 4.14731V4.10805C0.900968 4.07861 0.881755 4.04917 0.900968 4.01973V3.99028C0.939395 3.9314 0.968214 3.98047 0.997034 4.00991C1.10271 4.10805 1.18917 4.22582 1.29484 4.33378C1.54461 4.60857 1.77517 4.90299 2.04415 5.16797C2.07178 5.19068 2.0919 5.22151 2.10179 5.2563C2.14441 5.4097 2.19574 5.56043 2.2555 5.70774C2.37763 5.96698 2.51894 6.21632 2.67819 6.45361C2.93757 6.87561 3.19694 7.29762 3.46593 7.72943C3.48251 7.7535 3.49546 7.77996 3.50435 7.80795C3.44671 7.8472 3.4179 7.78832 3.38908 7.75888C3.25458 7.60185 3.11048 7.44483 2.97599 7.2878C2.77425 7.05227 2.57251 6.82654 2.37078 6.59101C2.10179 6.28677 1.83281 5.97272 1.56382 5.66849C1.35248 5.42313 1.14113 5.17778 0.920181 4.94225C0.881755 4.95206 0.900968 5.00113 0.862542 5.01095C0.862542 5.00113 0.852935 4.99132 0.852935 4.9815C0.832045 4.74954 0.835265 4.51597 0.862542 4.28471C0.891362 4.24545 0.862542 4.19638 0.881755 4.14731Z" fill="#F36F2F"/>
<path d="M8.47084 5.5606C8.44843 5.71595 8.40645 5.86769 8.34595 6.01204C8.28294 6.15641 8.16804 6.27052 8.02501 6.3308C7.88198 6.39107 7.72174 6.3929 7.57742 6.33591C7.43389 6.28154 7.31661 6.17237 7.25031 6.03141C7.184 5.89044 7.17385 5.72869 7.22198 5.58023C7.2726 5.41586 7.31429 5.24877 7.34686 5.07971C7.37878 4.87202 7.39165 4.66174 7.38529 4.45161C7.36608 4.40254 7.38529 4.38291 7.43332 4.40254C7.46185 4.41343 7.48568 4.43429 7.50057 4.46143C7.81759 4.82455 8.14421 5.18766 8.47084 5.5606Z" fill="#F58B35"/>
<path d="M4.25354 4.25523C4.28236 4.21597 4.30157 4.18653 4.33039 4.14727C4.51809 3.88991 4.63126 3.58387 4.65702 3.26401C4.65702 3.23457 4.64741 3.19531 4.68584 3.19531C4.72426 3.19531 4.74348 3.19531 4.75308 3.24438C4.7612 3.32362 4.77403 3.40228 4.79151 3.47992C4.90679 4.12765 5.5024 4.77537 6.22289 4.90296C6.27667 4.91433 6.33131 4.9209 6.3862 4.92258C6.42463 4.92258 6.44384 4.9324 6.44384 4.97165C6.44384 5.01091 6.41502 5.02073 6.3862 5.02073C6.20125 5.03286 6.01951 5.07596 5.84823 5.14831C5.6806 5.22161 5.52507 5.32092 5.38712 5.44273C5.32208 5.4075 5.26612 5.35706 5.22381 5.29552C4.97403 5.0011 4.71466 4.71649 4.45528 4.42207C4.40429 4.3486 4.3345 4.29088 4.25354 4.25523Z" fill="#F58433"/>
<path d="M5.1759 6.43404C5.24444 6.24551 5.35266 6.07465 5.49292 5.93352C5.50253 5.92371 5.51213 5.92371 5.51213 5.91389C5.54095 5.89426 5.56977 5.91389 5.58899 5.93352C5.7619 6.11999 5.92522 6.31627 6.09813 6.50273C6.30948 6.73827 6.51122 6.97381 6.72256 7.20935C6.77507 7.27931 6.83289 7.34494 6.89548 7.40563C6.9039 7.41297 6.91079 7.42196 6.91574 7.43208C6.92069 7.4422 6.9236 7.45322 6.9243 7.46451C6.91469 7.59209 6.93391 7.71968 6.91469 7.85707C6.90676 8.00235 6.87426 8.14513 6.81863 8.27908C6.64571 8.10242 6.4824 7.91596 6.31909 7.72949C6.12695 7.50377 5.93482 7.28786 5.73308 7.06214C5.57938 6.88548 5.41607 6.70883 5.26236 6.52236C5.24315 6.50274 5.19512 6.48311 5.1759 6.43404Z" fill="#F47E31"/>
<path d="M2.31311 8.21029C2.31311 8.20048 2.31311 8.18085 2.32272 8.19066C2.34964 8.20477 2.37535 8.22119 2.39957 8.23973C2.51485 8.38694 2.65895 8.52434 2.77423 8.67155C2.83187 8.75006 2.90872 8.81876 2.97597 8.89727C3.07203 8.99542 3.15849 9.10337 3.25456 9.21132C3.38905 9.35853 3.52354 9.50575 3.64843 9.66277C3.70607 9.74128 3.78292 9.80998 3.85016 9.88849C3.93662 9.99645 4.03269 10.0946 4.12876 10.1927C4.26325 10.3498 4.39774 10.5166 4.54184 10.6736C4.6072 10.7567 4.6778 10.8354 4.75318 10.9092C4.81269 10.97 4.86731 11.0356 4.9165 11.1054C4.85937 11.1627 4.79102 11.207 4.71593 11.2354C4.64084 11.2637 4.56073 11.2755 4.48086 11.2699C4.401 11.2644 4.32319 11.2416 4.25256 11.2031C4.18194 11.1646 4.1201 11.1112 4.07112 11.0466C4.05296 11.0218 4.0369 10.9955 4.02308 10.968C3.59079 10.2712 3.15849 9.56463 2.72619 8.86783L2.69737 8.80895C2.68777 8.79913 2.68777 8.77951 2.67816 8.76969C2.66855 8.75988 2.66855 8.75006 2.65895 8.75006C2.6564 8.75006 2.65396 8.74903 2.65215 8.74719C2.65035 8.74535 2.64934 8.74285 2.64934 8.74025C2.64934 8.73044 2.63973 8.72062 2.63013 8.71081C2.62052 8.70099 2.62052 8.68137 2.61091 8.67155C2.61048 8.66649 2.60832 8.66175 2.6048 8.65816C2.60129 8.65458 2.59665 8.65237 2.5917 8.65192C2.58209 8.64211 2.5821 8.62248 2.57249 8.61267C2.57206 8.60761 2.56989 8.60287 2.56638 8.59928C2.56286 8.59569 2.55823 8.59348 2.55328 8.59304C2.54367 8.58323 2.54367 8.5636 2.53406 8.55378C2.52446 8.54397 2.52446 8.52434 2.51485 8.51453C2.51442 8.50947 2.51225 8.50473 2.50874 8.50114C2.50523 8.49755 2.50059 8.49534 2.49564 8.4949C2.48603 8.48508 2.48603 8.46546 2.47642 8.45564C2.47599 8.45059 2.47383 8.44585 2.47031 8.44226C2.4668 8.43867 2.46216 8.43646 2.45721 8.43601C2.4476 8.4262 2.4476 8.40657 2.438 8.39676C2.42839 8.38694 2.42839 8.37713 2.41878 8.37713C2.41623 8.37713 2.41379 8.3761 2.41199 8.37425C2.41019 8.37241 2.40918 8.36992 2.40918 8.36732C2.40918 8.3575 2.39957 8.34769 2.38996 8.33787C2.38036 8.32806 2.38036 8.30843 2.37075 8.29862C2.37032 8.29356 2.36815 8.28882 2.36464 8.28523C2.36113 8.28164 2.35649 8.27943 2.35154 8.27899C2.34193 8.26917 2.34193 8.24955 2.33232 8.23973C2.33232 8.22011 2.32272 8.2201 2.31311 8.21029Z" fill="#F2622C"/>
<path d="M8.47092 3.79388C8.44356 3.78997 8.41767 3.77887 8.39578 3.76166C8.37389 3.74446 8.35675 3.72174 8.34603 3.69574C8.27878 3.59759 8.18272 3.51908 8.11547 3.43076C8.02901 3.3228 7.93295 3.22466 7.83688 3.12652C7.70239 2.97931 7.5775 2.82229 7.44301 2.66526C7.37577 2.59656 7.31813 2.51805 7.25088 2.44935C7.15481 2.35121 7.07796 2.24326 6.9819 2.14512C6.8474 1.99791 6.71291 1.83107 6.57842 1.68386C6.52078 1.61516 6.45353 1.53664 6.38629 1.46795C6.29983 1.36981 6.21337 1.26185 6.1173 1.16371C6.05006 1.09501 5.99242 1.0165 5.92517 0.937988C6.1056 0.989458 6.27966 1.0619 6.44393 1.1539C6.90623 1.38895 7.31728 1.71701 7.6524 2.11839C7.98751 2.51977 8.23978 2.98618 8.39406 3.48964C8.42978 3.58811 8.45553 3.69005 8.47092 3.79388Z" fill="#F79739"/>
<path d="M0.862427 5.02065C0.872033 4.98139 0.85282 4.94214 0.88164 4.89307C0.953024 4.93532 1.01515 4.99211 1.06416 5.05991C1.13588 5.15276 1.21287 5.24124 1.29472 5.32488C1.37158 5.42303 1.45804 5.51135 1.53489 5.59968C1.67899 5.7567 1.82309 5.93336 1.95758 6.09038C2.02482 6.16889 2.09207 6.23759 2.15932 6.3161C2.24578 6.42406 2.34184 6.5222 2.43791 6.62034C2.5724 6.76755 2.69728 6.92457 2.83178 7.0816C2.89902 7.16011 2.96627 7.22881 3.03351 7.30732C3.11997 7.41528 3.21604 7.51342 3.31211 7.61156C3.35096 7.66302 3.39265 7.71217 3.43699 7.75877C3.44594 7.77096 3.45754 7.78085 3.47088 7.78766C3.48422 7.79448 3.49893 7.79803 3.51384 7.79803C3.6003 7.91579 3.66755 8.03356 3.7444 8.16115C3.91732 8.43594 4.09024 8.72055 4.26316 8.99534C4.27802 9.01697 4.29089 9.03997 4.30158 9.06404C4.2662 9.06237 4.23179 9.0516 4.20156 9.03273C4.17133 9.01386 4.14626 8.98749 4.12867 8.95608C4.06338 8.86981 3.99279 8.78786 3.91732 8.71073L3.65794 8.41631C3.50424 8.24947 3.36014 8.08263 3.21604 7.90598C3.1584 7.83728 3.09115 7.76858 3.03351 7.69989L2.79335 7.42509C2.63964 7.25825 2.50515 7.09141 2.36105 6.92458C2.29381 6.84606 2.22656 6.77736 2.15932 6.69885C2.08246 6.60071 1.9864 6.51238 1.90954 6.41424C1.76545 6.25722 1.63095 6.09038 1.48685 5.92354C1.41787 5.85633 1.35367 5.78417 1.29472 5.70763C1.21787 5.60949 1.1218 5.52117 1.03535 5.42303C1.00653 5.39358 0.987312 5.35433 0.958493 5.32488C0.948886 5.31507 0.939279 5.28563 0.91046 5.31507C0.894042 5.27133 0.887475 5.22437 0.891246 5.17767C0.872033 5.13842 0.891246 5.08935 0.872033 5.05009C0.862427 5.05991 0.862427 5.04028 0.862427 5.02065Z" fill="#F26B2D"/>
<path d="M4.25367 4.25536C4.29209 4.22592 4.32091 4.25536 4.35934 4.2848C4.47462 4.40257 4.58029 4.53015 4.69557 4.65774C4.75321 4.72644 4.81085 4.78532 4.86849 4.8442L5.12787 5.13863C5.21931 5.23206 5.30589 5.33034 5.38725 5.43305L5.36803 5.45268L5.34882 5.4723L5.32961 5.49193C5.32961 5.50175 5.32 5.50175 5.31039 5.51156C5.31039 5.52137 5.30079 5.52137 5.29118 5.53119C5.29118 5.541 5.28157 5.541 5.27197 5.55082C5.27197 5.56063 5.26236 5.56063 5.25275 5.57044C5.12157 5.71586 5.00862 5.8774 4.91652 6.05133C4.89849 6.04952 4.88117 6.04319 4.86609 6.03292C4.85102 6.02266 4.83864 6.00876 4.83006 5.99245C4.55147 5.6784 4.28249 5.36435 4.0039 5.0503C3.90783 4.93253 3.78294 4.83439 3.7157 4.69699C3.91774 4.58126 4.09955 4.43202 4.25367 4.25536Z" fill="#F47E31"/>
<path d="M4.26323 0.761475C4.26415 0.780339 4.2689 0.798803 4.27717 0.815696C4.28543 0.83259 4.29705 0.847545 4.31127 0.859615C4.36891 0.918499 4.41694 0.977384 4.47458 1.04608C4.62828 1.22273 4.78199 1.38957 4.93569 1.55641C5.04137 1.67418 5.13743 1.80176 5.24311 1.90972C5.25271 1.91953 5.26232 1.92935 5.24311 1.93916H5.22389C5.19507 1.91953 5.16625 1.93916 5.13743 1.91953H5.09901C5.07019 1.8999 5.03176 1.91953 4.99333 1.8999C4.87806 1.8999 4.76278 1.8999 4.6475 1.89009C4.46057 1.89511 4.27429 1.9148 4.09031 1.94897C4.09132 1.92927 4.08844 1.90956 4.08183 1.89101C4.07523 1.87246 4.06505 1.85546 4.05189 1.84102C3.85976 1.63492 3.68684 1.41902 3.49471 1.21292C3.42746 1.14422 3.36982 1.06571 3.29297 0.987198C3.47024 0.903413 3.6576 0.844011 3.85015 0.810545C3.98666 0.78508 4.12465 0.768689 4.26323 0.761475Z" fill="#F58B35"/>
<path d="M5.17591 6.43408C5.23152 6.46296 5.2781 6.50715 5.31041 6.56166C5.36935 6.6382 5.43356 6.71036 5.50254 6.77757C5.64664 6.95423 5.80995 7.11125 5.95405 7.2879C6.12697 7.48418 6.29028 7.68046 6.4632 7.86693L6.78022 8.22024C6.79094 8.22834 6.79989 8.23863 6.80651 8.25045C6.81312 8.26228 6.81726 8.27539 6.81864 8.28894C6.76069 8.47957 6.66596 8.65643 6.54005 8.80908C6.43766 8.72084 6.34431 8.62219 6.26146 8.51466C6.05011 8.28894 5.85798 8.03377 5.62742 7.81786C5.64853 7.64359 5.63547 7.46677 5.589 7.29772C5.57939 7.2879 5.57939 7.26828 5.56978 7.25846C5.56018 7.24865 5.56018 7.24865 5.56978 7.24865C5.57939 7.24865 5.56018 7.22902 5.55057 7.21921C5.54802 7.21921 5.54558 7.21817 5.54378 7.21633C5.54198 7.21449 5.54096 7.21199 5.54096 7.20939C5.54096 7.19958 5.53136 7.18976 5.52175 7.17995C5.5192 7.17995 5.51676 7.17891 5.51496 7.17707C5.51316 7.17523 5.51215 7.17274 5.51215 7.17013C5.51215 7.16032 5.50254 7.15051 5.49293 7.14069C5.48333 7.13088 5.48333 7.11125 5.47372 7.10144L5.45451 7.08181C5.45196 7.08181 5.44951 7.08077 5.44771 7.07893C5.44591 7.07709 5.4449 7.0746 5.4449 7.07199C5.4449 7.06218 5.43529 7.05237 5.42569 7.04255C5.41608 7.03274 5.41608 7.01311 5.40647 7.0033C5.40604 6.99824 5.40388 6.9935 5.40036 6.98991C5.39685 6.98632 5.39221 6.98411 5.38726 6.98367C5.37765 6.97385 5.37765 6.95423 5.36805 6.94441L5.34883 6.92478C5.34629 6.92478 5.34384 6.92375 5.34204 6.92191C5.34024 6.92007 5.33923 6.91757 5.33923 6.91497C5.33923 6.90516 5.32962 6.89534 5.32001 6.88553C5.31041 6.87571 5.31041 6.85609 5.3008 6.84627C5.30037 6.84121 5.2982 6.83647 5.29469 6.83289C5.29118 6.8293 5.28654 6.82709 5.28159 6.82664C5.27198 6.81683 5.27198 6.7972 5.26237 6.78739C5.25277 6.77757 5.25277 6.76776 5.24316 6.76776C5.24061 6.76776 5.23817 6.76673 5.23637 6.76489C5.23457 6.76304 5.23355 6.76055 5.23355 6.75794C5.23355 6.74813 5.22395 6.73832 5.21434 6.7285C5.20473 6.71869 5.20473 6.69906 5.19513 6.68925C5.19469 6.68419 5.19253 6.67945 5.18902 6.67586C5.1855 6.67227 5.18086 6.67006 5.17591 6.66962C5.16631 6.65981 5.16631 6.64018 5.1567 6.63036C5.15627 6.62531 5.15411 6.62057 5.15059 6.61698C5.14708 6.61339 5.14244 6.61118 5.13749 6.61073C5.12788 6.60092 5.12788 6.58129 5.11828 6.57148C5.10869 6.54285 5.10869 6.51178 5.11828 6.48315C5.17591 6.47334 5.17591 6.45371 5.17591 6.43408Z" fill="#F47A31"/>
<path d="M2.06335 1.80176C2.24694 1.61481 2.45362 1.45315 2.67818 1.32087C2.72621 1.31106 2.74542 1.35032 2.77424 1.37976C2.98559 1.62511 3.20654 1.87046 3.41788 2.11581C3.4467 2.15507 3.47552 2.18451 3.41788 2.22376C3.40828 2.23358 3.38906 2.23358 3.37946 2.25321C3.27378 2.33172 3.1585 2.40042 3.06244 2.47893C2.94716 2.56726 2.8607 2.67521 2.75503 2.76354C2.75028 2.75627 2.74774 2.74774 2.74774 2.739C2.74774 2.73027 2.75028 2.72173 2.75503 2.71447C2.82227 2.64577 2.78385 2.5967 2.73582 2.53781C2.54368 2.31209 2.34195 2.09618 2.15942 1.88027C2.12099 1.85083 2.08257 1.84102 2.06335 1.80176Z" fill="#F58332"/>
<path d="M3.41789 2.23359C3.43711 2.20415 3.4275 2.17471 3.39868 2.14527C3.26419 1.99806 3.12969 1.84103 2.9952 1.69382C2.91335 1.61017 2.83636 1.52169 2.76465 1.42884C2.73507 1.39372 2.70296 1.36091 2.66858 1.3307C2.86791 1.1937 3.08441 1.08477 3.31222 1.00684C3.33892 1.01256 3.36401 1.02436 3.38563 1.04135C3.40725 1.05834 3.42484 1.08009 3.43711 1.10498C3.50883 1.19783 3.58581 1.28631 3.66766 1.36996C3.75412 1.4681 3.83098 1.56624 3.91744 1.65456C3.98468 1.72326 4.04232 1.79196 4.09996 1.86066C4.12878 1.8901 4.1576 1.92936 4.09996 1.96861H4.08075C4.06153 1.98824 4.04232 1.96861 4.02311 1.98824C3.81397 2.0495 3.61125 2.13168 3.41789 2.23359Z" fill="#F58734"/>
<path d="M2.06334 1.80176C2.08268 1.80347 2.10138 1.80967 2.11802 1.81987C2.13467 1.83007 2.14882 1.84402 2.1594 1.86064C2.22835 1.95583 2.30551 2.04451 2.38996 2.12562C2.47642 2.22376 2.56288 2.33172 2.65894 2.42986C2.71208 2.48419 2.76031 2.54331 2.80304 2.60651C2.83186 2.63595 2.82226 2.66539 2.80304 2.69484C2.77656 2.71451 2.75648 2.74187 2.7454 2.77335C2.7454 2.78316 2.7358 2.78316 2.72619 2.79298C2.60572 2.94015 2.49346 3.09415 2.38996 3.25424C2.18822 3.06777 2.0153 2.84205 1.83278 2.63595C1.74453 2.54578 1.66115 2.45077 1.58301 2.35134C1.67632 2.20197 1.78948 2.06655 1.91924 1.94897C1.92884 1.93915 1.93845 1.93915 1.93845 1.92934C1.94806 1.91953 1.95766 1.91953 1.95766 1.90971C1.96727 1.8999 1.97688 1.8999 1.97688 1.89008C1.98648 1.88027 1.99609 1.88027 1.99609 1.87046C2.0057 1.86064 2.0153 1.86064 2.0153 1.85083L2.03452 1.8312L2.06334 1.80176Z" fill="#F47E31"/>
<path d="M6.91465 7.87671V7.5234C6.91752 7.49574 6.91072 7.46792 6.89543 7.44489C6.75134 7.30749 6.62645 7.14066 6.48235 6.99345C6.33825 6.84623 6.20376 6.66958 6.06927 6.51256C6.01163 6.44386 5.94438 6.37516 5.88674 6.30646C5.78107 6.17888 5.66579 6.06111 5.56012 5.93353C5.54699 5.92122 5.5299 5.91423 5.51208 5.9139C5.63692 5.76943 5.78671 5.64966 5.95399 5.5606C5.99241 5.54097 6.01163 5.55078 6.03084 5.59004C6.15573 5.78632 6.27101 5.9826 6.39589 6.17888L6.65527 6.59107C6.87063 6.95688 6.96808 7.38257 6.93386 7.80801C6.92874 7.83127 6.92233 7.8542 6.91465 7.87671Z" fill="#F58232"/>
<path d="M5.56006 10.2026C5.5503 10.184 5.53728 10.1674 5.52164 10.1536C5.36793 9.98673 5.21423 9.81989 5.07013 9.65305C4.97406 9.53528 4.86839 9.42733 4.78193 9.31937C4.76344 9.28928 4.73672 9.2654 4.70508 9.25067C4.77939 9.17786 4.84398 9.09537 4.89721 9.00532C4.94524 8.94644 4.98367 8.88755 5.0317 8.82867C5.05091 8.81885 5.04131 8.79923 5.06052 8.78941L5.07973 8.76978C5.08934 8.75997 5.09895 8.75997 5.09895 8.75016C5.15659 8.73053 5.18541 8.76978 5.21423 8.79923C5.35833 8.95625 5.50242 9.12309 5.63692 9.28011C5.72523 9.37365 5.80861 9.47193 5.88669 9.57454C5.9059 9.60398 5.94433 9.63342 5.92511 9.68249C5.81537 9.8643 5.69339 10.0381 5.56006 10.2026Z" fill="#F36F2F"/>
<path d="M2.1017 5.25637C2.05367 5.2073 1.99603 5.15823 1.948 5.10916C1.77508 4.93251 1.61177 4.73622 1.44845 4.53994C1.39081 4.47124 1.32357 4.40254 1.26593 4.33385C1.17947 4.21608 1.0738 4.11794 0.977731 4.00998C0.958518 3.99035 0.939305 3.96091 0.900879 3.98054C0.918077 3.83677 0.950282 3.6953 0.996945 3.55853C1.01616 3.53891 0.996944 3.51928 1.01616 3.49965C1.03537 3.48002 1.01616 3.45058 1.03537 3.44077V3.42114C1.04498 3.41132 1.04498 3.3917 1.05458 3.38188C1.11222 3.35244 1.14104 3.40151 1.16986 3.43095C1.33318 3.59779 1.46767 3.77444 1.62137 3.94128C1.73665 4.06887 1.84232 4.20626 1.96721 4.32403C1.98631 4.34313 2.0013 4.36608 2.01123 4.39143C2.02115 4.41678 2.02579 4.44396 2.02485 4.47124C2.01844 4.6087 2.02166 4.74645 2.03446 4.88343C2.06327 5.02083 2.08249 5.1386 2.1017 5.25637Z" fill="#F37330"/>
<path d="M8.47091 5.56058C8.44138 5.55781 8.41395 5.5438 8.39406 5.52132C8.29799 5.40355 8.19232 5.28578 8.08665 5.16802L7.68317 4.69694C7.59671 4.5988 7.51986 4.51047 7.4334 4.42215C7.40458 4.39271 7.38537 4.3927 7.37576 4.44178C7.35655 4.34363 7.34694 4.23568 7.32773 4.13754C7.2931 3.96801 7.24818 3.80085 7.19324 3.63702C7.21644 3.63315 7.24024 3.63566 7.26218 3.64428C7.28413 3.6529 7.30344 3.66733 7.31812 3.68609C7.4238 3.80386 7.52947 3.92163 7.62553 4.0394C7.68448 4.11594 7.74868 4.18809 7.81767 4.25531L8.08665 4.55954C8.24724 4.72695 8.39801 4.90391 8.53816 5.0895C8.5394 5.24911 8.51672 5.40798 8.47091 5.56058Z" fill="#F69137"/>
<path d="M1.59257 2.35132C1.60834 2.35241 1.62361 2.35745 1.63701 2.36601C1.65042 2.37457 1.66155 2.38638 1.66942 2.40039C1.83273 2.59667 2.00565 2.78314 2.16896 2.97942C2.23621 3.04812 2.29385 3.12663 2.36109 3.19533C2.37182 3.20343 2.38077 3.21372 2.38738 3.22554C2.394 3.23737 2.39813 3.25048 2.39952 3.26402C2.30076 3.45306 2.21723 3.64999 2.14975 3.85287C1.96722 3.6664 1.80391 3.47012 1.63099 3.27384C1.51571 3.14626 1.40044 3.00886 1.28516 2.88128C1.36043 2.7089 1.4573 2.54725 1.57335 2.40039C1.58296 2.38076 1.57335 2.36113 1.59257 2.35132Z" fill="#F47A31"/>
<path d="M1.27552 2.87158C1.3399 2.89423 1.39435 2.93942 1.42922 2.99916C1.50094 3.09202 1.57793 3.1805 1.65978 3.26414C1.74624 3.36228 1.8327 3.47024 1.92877 3.56838C1.99601 3.63708 2.05365 3.71559 2.1209 3.78429C2.14011 3.80392 2.14011 3.81373 2.14011 3.84317C2.1209 3.98057 2.07286 4.10815 2.06326 4.24555C2.03768 4.43081 2.03124 4.61831 2.04404 4.80495V4.90309C2.01522 4.87365 2.02483 4.84421 2.02483 4.80495V4.50071C2.02648 4.47621 2.02207 4.45168 2.01199 4.42939C2.00192 4.40709 1.98651 4.38774 1.96719 4.37313C1.79427 4.20629 1.64057 4.01001 1.47726 3.83336C1.36198 3.70578 1.2563 3.57819 1.14102 3.46042C1.11221 3.43098 1.09299 3.40154 1.05457 3.40154C1.09537 3.2465 1.15678 3.09791 1.23709 2.95991C1.2467 2.95009 1.2467 2.93047 1.2563 2.92065C1.26591 2.90102 1.26591 2.8814 1.27552 2.87158Z" fill="#F37630"/>
<path d="M5.63693 7.82764C5.68536 7.84034 5.72889 7.86771 5.76182 7.90615C5.85788 8.02392 5.95395 8.13187 6.05001 8.23983C6.21333 8.43611 6.39585 8.61276 6.54956 8.81886C6.45486 8.97397 6.34889 9.1216 6.23254 9.26049C6.07883 9.10346 5.94434 8.92681 5.80024 8.76979C5.65614 8.61276 5.54086 8.46555 5.40637 8.32815C5.42947 8.27648 5.46208 8.22983 5.50244 8.19076C5.55189 8.10309 5.59368 8.01113 5.62732 7.91596C5.64654 7.89634 5.62732 7.86689 5.64654 7.84727C5.62732 7.83745 5.62732 7.83745 5.63693 7.82764Z" fill="#F37630"/>
<path d="M5.39677 8.32812C5.41598 8.32812 5.4448 8.32813 5.45441 8.33794C5.52348 8.40855 5.58768 8.48397 5.64654 8.56366C5.69655 8.6357 5.75458 8.70157 5.81946 8.75994C5.90591 8.85808 5.99237 8.96604 6.08844 9.06418C6.14945 9.11227 6.19605 9.17687 6.22293 9.25065C6.13236 9.39751 6.0329 9.53845 5.92513 9.67265C5.92314 9.6518 5.91657 9.63167 5.90591 9.61377C5.83867 9.53525 5.77142 9.46656 5.70418 9.38804C5.56968 9.2212 5.41598 9.07399 5.28149 8.90715C5.23664 8.83191 5.16927 8.77341 5.08936 8.74032C5.18542 8.60292 5.29109 8.46552 5.39677 8.32812Z" fill="#F37330"/>
<path d="M4.32083 5.76656C4.31828 5.76656 4.31584 5.76552 4.31403 5.76368C4.31223 5.76184 4.31122 5.75935 4.31122 5.75674C4.31122 5.74693 4.30161 5.73711 4.29201 5.7273C4.29157 5.72224 4.28941 5.7175 4.2859 5.71391C4.28238 5.71032 4.27774 5.70812 4.27279 5.70767L4.25358 5.68805L4.23437 5.66842C4.21515 5.64879 4.21515 5.62916 4.18633 5.60953C4.1859 5.60448 4.18374 5.59974 4.18022 5.59615C4.17671 5.59256 4.17207 5.59035 4.16712 5.5899C4.16669 5.58485 4.16453 5.58011 4.16101 5.57652C4.1575 5.57293 4.15286 5.57072 4.14791 5.57028C4.14747 5.56522 4.14531 5.56048 4.1418 5.55689C4.13828 5.5533 4.13364 5.55109 4.12869 5.55065C4.12826 5.54559 4.1261 5.54085 4.12258 5.53726C4.11907 5.53367 4.11443 5.53146 4.10948 5.53102C4.10905 5.52596 4.10688 5.52122 4.10337 5.51763C4.09986 5.51404 4.09522 5.51183 4.09027 5.51139C4.08984 5.50633 4.08767 5.5016 4.08416 5.49801C4.08064 5.49442 4.07601 5.49221 4.07106 5.49176C4.06145 5.47214 4.03263 5.46232 4.01342 5.44269L3.9942 5.42307L3.97499 5.40344C3.96538 5.39362 3.96538 5.38381 3.95578 5.38381C3.94617 5.374 3.94617 5.36418 3.93656 5.36418C3.92696 5.34455 3.90774 5.35437 3.89814 5.33474C3.88853 5.32492 3.87892 5.32493 3.87892 5.31511L3.67719 5.19734C3.47729 5.0911 3.25827 5.02765 3.03354 5.01088C3.00951 5.0132 2.9855 5.00619 2.9663 4.99125C2.93748 4.96181 2.9663 4.91274 3.00472 4.90292C3.11504 4.89285 3.22432 4.87315 3.33135 4.84404L3.53309 4.78515C3.57151 4.77534 3.59073 4.80478 3.60994 4.82441L4.58981 5.94321C4.64745 6.01191 4.70509 6.08061 4.77234 6.1493C4.78566 6.15939 4.7962 6.17282 4.80293 6.1883C4.80966 6.20378 4.81236 6.22077 4.81076 6.23763V6.25726C4.80116 6.26707 4.80116 6.2867 4.79155 6.30633V6.31614C4.77234 6.33577 4.79155 6.36521 4.77234 6.38484V6.40447C4.75312 6.4241 4.77234 6.46335 4.75312 6.48298V6.50261C4.73391 6.53205 4.75312 6.57131 4.73391 6.61056V6.66945C4.7147 6.68908 4.73391 6.73815 4.68588 6.73815C4.63784 6.73815 4.64745 6.69889 4.64745 6.66945C4.64896 6.64932 4.64567 6.62911 4.63784 6.61056V6.57131C4.61863 6.54187 4.64745 6.50261 4.61863 6.46335C4.61863 6.46335 4.60902 6.45354 4.61863 6.45354C4.60902 6.43391 4.61863 6.40447 4.59942 6.38484C4.59801 6.38364 4.59687 6.38214 4.59609 6.38045C4.59531 6.37875 4.59491 6.3769 4.59491 6.37503C4.59491 6.37315 4.59531 6.3713 4.59609 6.36961C4.59687 6.36791 4.59801 6.36641 4.59942 6.36521C4.57924 6.34559 4.59942 6.31614 4.57924 6.29652C4.57924 6.29652 4.56964 6.2867 4.57924 6.2867C4.56964 6.26707 4.57924 6.24745 4.56003 6.23763C4.56003 6.23763 4.55042 6.22782 4.56003 6.22782C4.55042 6.20819 4.56003 6.18856 4.54082 6.17875C4.53121 6.16893 4.53121 6.14931 4.5216 6.13949C4.512 6.12968 4.512 6.12968 4.5216 6.12968C4.512 6.11005 4.5216 6.09042 4.50239 6.08061C4.49278 6.07079 4.49278 6.05116 4.48318 6.04135C4.47357 6.03154 4.47357 6.01191 4.46396 6.00209C4.45436 5.99228 4.45436 5.97265 4.44475 5.96284C4.43514 5.95302 4.44475 5.9334 4.42554 5.92358C4.4251 5.91852 4.42294 5.91378 4.41943 5.9102C4.41591 5.90661 4.41128 5.9044 4.40632 5.90395C4.39672 5.89414 4.39672 5.87451 4.38711 5.8647C4.38668 5.85964 4.38452 5.8549 4.381 5.85131C4.37749 5.84772 4.37285 5.84551 4.3679 5.84507C4.35829 5.83526 4.35829 5.81563 4.34869 5.80581C4.34825 5.80076 4.34609 5.79602 4.34258 5.79243C4.33906 5.78884 4.33442 5.78663 4.32947 5.78619C4.33043 5.77637 4.33043 5.76656 4.32083 5.76656Z" fill="#F47A31"/>
<path d="M4.83001 6.24759C4.8204 6.22796 4.80119 6.20834 4.79158 6.18871C4.62827 6.01206 4.46496 5.8354 4.31125 5.64894C4.15755 5.46247 3.97502 5.26619 3.8021 5.06991C3.72664 4.99278 3.65605 4.91083 3.59076 4.82456C3.58115 4.80493 3.56194 4.80493 3.54272 4.7853C3.59428 4.75329 3.64903 4.72697 3.70604 4.70679C3.79332 4.78797 3.87367 4.87662 3.9462 4.97177C4.02305 5.06009 4.10951 5.14842 4.17676 5.23674C4.26322 5.3447 4.35928 5.44284 4.45535 5.54098C4.58984 5.68819 4.71473 5.84522 4.83961 5.99243C4.85883 6.01206 4.88765 6.03168 4.90686 6.05131C4.8888 6.11957 4.86301 6.18544 4.83001 6.24759Z" fill="#F47A31"/>
<path d="M4.65708 6.60083C4.6859 6.62046 4.6763 6.6499 4.6763 6.66953C4.6763 6.68916 4.6763 6.70879 4.69551 6.70879C4.71472 6.70879 4.72433 6.69897 4.73394 6.67934C4.73437 6.67429 4.73653 6.66955 4.74005 6.66596C4.74356 6.66237 4.7482 6.66016 4.75315 6.65972C4.75315 6.68916 4.76276 6.70879 4.74354 6.72842C4.73625 6.73321 4.72787 6.73598 4.71921 6.73646C4.71056 6.73693 4.70193 6.7351 4.69418 6.73114C4.68642 6.72718 4.67981 6.72123 4.67499 6.71387C4.67017 6.70651 4.66731 6.69799 4.66669 6.68916C4.65758 6.6607 4.65431 6.63063 4.65708 6.60083Z" fill="#F47A31"/>
<path d="M0.882338 4.14722C0.882338 4.19629 0.9021 4.24536 0.862577 4.29443C0.854443 4.24449 0.861317 4.19329 0.882338 4.14722Z" fill="#F37330"/>
<path d="M0.862654 5.07959C0.902179 5.11885 0.872535 5.16792 0.882417 5.20717C0.861535 5.16808 0.854571 5.12311 0.862654 5.07959Z" fill="#F36F2F"/>
<path d="M5.00293 1.90969C5.04136 1.90969 5.07978 1.89006 5.1086 1.92932C5.07227 1.93317 5.03561 1.92636 5.00293 1.90969Z" fill="#F69137"/>
<path d="M4.75335 6.61064C4.75335 6.57138 4.73359 6.53213 4.77312 6.50269C4.777 6.5398 4.77014 6.57725 4.75335 6.61064Z" fill="#F47A31"/>
<path d="M4.63793 6.46338C4.66758 6.49282 4.6577 6.53208 4.6577 6.57133C4.62805 6.54189 4.63793 6.50264 4.63793 6.46338Z" fill="#F47A31"/>
<path d="M5.13745 1.9293C5.16627 1.9293 5.19509 1.91949 5.22391 1.94893C5.19378 1.95189 5.16352 1.94502 5.13745 1.9293Z" fill="#F69137"/>
<path d="M4.02307 5.44287C4.03668 5.44324 4.04977 5.44828 4.06023 5.45718C4.07069 5.46608 4.0779 5.47833 4.08071 5.49194C4.05189 5.48213 4.04228 5.4625 4.02307 5.44287Z" fill="#F47E31"/>
<path d="M6.71289 2.8125C6.74171 2.82231 6.75132 2.84194 6.76092 2.87138C6.74946 2.86536 6.7393 2.85705 6.73105 2.84693C6.7228 2.83681 6.71662 2.8251 6.71289 2.8125Z" fill="#F69338"/>
<path d="M0.901542 4.02954C0.901542 4.05898 0.911423 4.08843 0.88178 4.11787C0.8788 4.08709 0.885719 4.05617 0.901542 4.02954Z" fill="#F37330"/>
<path d="M5.16694 6.48315V6.57148C5.12741 6.54204 5.1373 6.5126 5.16694 6.48315Z" fill="#F47E31"/>
<path d="M0.900945 5.36426C0.930588 5.3937 0.920707 5.42314 0.920707 5.45259C0.904883 5.42596 0.897965 5.39503 0.900945 5.36426Z" fill="#F26B2D"/>
<path d="M4.77233 6.48305C4.77233 6.45361 4.76245 6.42417 4.7921 6.40454C4.79622 6.43228 4.78912 6.46051 4.77233 6.48305Z" fill="#F47A31"/>
<path d="M4.19604 5.59985C4.22486 5.59985 4.23447 5.6293 4.24408 5.65874C4.21526 5.64892 4.20565 5.6293 4.19604 5.59985Z" fill="#F47E31"/>
<path d="M4.02307 1.98821C4.03062 1.98074 4.03972 1.97509 4.0497 1.97169C4.05968 1.9683 4.07028 1.96723 4.08071 1.96859C4.0711 1.98821 4.05189 1.98821 4.02307 1.98821Z" fill="#F58B35"/>
<path d="M1.03596 3.45044C1.03596 3.47007 1.04584 3.49951 1.0162 3.50932C1.01484 3.49866 1.01591 3.48784 1.01933 3.47765C1.02275 3.46745 1.02843 3.45815 1.03596 3.45044Z" fill="#F37630"/>
<path d="M0.920117 5.48193C0.928388 5.49118 0.934459 5.50215 0.93788 5.51405C0.941301 5.52594 0.941984 5.53844 0.939879 5.55063C0.924835 5.53101 0.917779 5.50649 0.920117 5.48193Z" fill="#F26B2D"/>
<path d="M1.0168 3.50928C1.0168 3.52891 1.0168 3.55835 0.997034 3.56816C0.995672 3.5575 0.996741 3.54668 1.00016 3.53648C1.00358 3.52629 1.00927 3.51699 1.0168 3.50928Z" fill="#F37630"/>
<path d="M5.63754 7.84717C5.63754 7.8668 5.64742 7.89624 5.61777 7.91587C5.61567 7.90368 5.61635 7.89117 5.61977 7.87928C5.62319 7.86739 5.62926 7.85641 5.63754 7.84717Z" fill="#F47A31"/>
<path d="M0.939427 5.56055C0.969071 5.58017 0.95919 5.5998 0.95919 5.62924C0.950918 5.62 0.944847 5.60902 0.941426 5.59713C0.938005 5.58524 0.937322 5.57274 0.939427 5.56055Z" fill="#F26B2D"/>
<path d="M4.61875 6.38501C4.62702 6.39425 4.63309 6.40523 4.63651 6.41712C4.63993 6.42901 4.64062 6.44152 4.63851 6.45371C4.6288 6.44544 4.62175 6.43453 4.61823 6.42231C4.61472 6.4101 4.6149 6.39712 4.61875 6.38501Z" fill="#F47A31"/>
<path d="M0.958592 5.63916C0.988234 5.65879 0.978353 5.67842 0.978353 5.70786C0.970082 5.69861 0.964011 5.68764 0.960591 5.67575C0.95717 5.66385 0.956487 5.65135 0.958592 5.63916Z" fill="#F26B2D"/>
<path d="M4.79162 6.38486C4.79162 6.36523 4.78174 6.33579 4.81138 6.31616C4.81138 6.34561 4.81138 6.37505 4.79162 6.38486Z" fill="#F47A31"/>
<path d="M4.58984 6.3064C4.61949 6.32603 4.6096 6.34565 4.6096 6.3751C4.59973 6.35326 4.59308 6.33012 4.58984 6.3064Z" fill="#F47A31"/>
<path d="M1.09304 6.08057C1.12269 6.09038 1.11281 6.11982 1.11281 6.13945C1.09884 6.12308 1.09176 6.10199 1.09304 6.08057Z" fill="#F26B2D"/>
<path d="M0.97788 5.71753C0.986151 5.72677 0.992222 5.73775 0.995643 5.74964C0.999064 5.76153 0.999747 5.77404 0.997642 5.78623C0.98937 5.77698 0.983299 5.76601 0.979878 5.75412C0.976457 5.74222 0.975774 5.72972 0.97788 5.71753Z" fill="#F26B2D"/>
<path d="M4.47461 6.0022C4.49437 6.01201 4.49437 6.02183 4.49437 6.04146C4.48834 6.03678 4.48344 6.03084 4.48002 6.02404C4.47661 6.01725 4.47476 6.00979 4.47461 6.0022Z" fill="#F47A31"/>
<path d="M2.4668 8.45557C2.48656 8.46538 2.48656 8.47519 2.48656 8.49482C2.47616 8.484 2.46927 8.47032 2.4668 8.45557Z" fill="#F2682D"/>
<path d="M5.57935 7.26807C5.5862 7.27191 5.59175 7.2777 5.59527 7.2847C5.59879 7.29169 5.60013 7.29957 5.59911 7.30732C5.57935 7.29751 5.57935 7.28769 5.57935 7.26807Z" fill="#F47E31"/>
<path d="M0.996948 5.80591H1.01671V5.85498C1.00752 5.83978 1.00085 5.82321 0.996948 5.80591Z" fill="#F26B2D"/>
<path d="M3.90784 5.34473C3.92705 5.34473 3.93666 5.35454 3.94626 5.37417C3.93181 5.36683 3.91878 5.35685 3.90784 5.34473Z" fill="#F47E31"/>
<path d="M4.35925 5.80591C4.37901 5.81572 4.37901 5.82554 4.37901 5.84517C4.36861 5.83435 4.36173 5.82067 4.35925 5.80591Z" fill="#F47E31"/>
<path d="M3.37939 2.25307C3.389 2.23345 3.39861 2.22363 3.41782 2.22363C3.40822 2.24326 3.39861 2.25307 3.37939 2.25307Z" fill="#F58734"/>
<path d="M1.01611 5.86475C1.03588 5.87456 1.03588 5.89419 1.03588 5.91382C1.02599 5.89419 1.01611 5.88437 1.01611 5.86475Z" fill="#F26B2D"/>
<path d="M4.39771 5.86475C4.41747 5.87456 4.41747 5.88437 4.41747 5.904C4.41144 5.89933 4.40654 5.89338 4.40312 5.88659C4.3997 5.8798 4.39785 5.87234 4.39771 5.86475Z" fill="#F47E31"/>
<path d="M1.59336 2.35132C1.59336 2.37095 1.58348 2.38076 1.56372 2.39058C1.56372 2.37095 1.5736 2.36113 1.59336 2.35132Z" fill="#F47E31"/>
<path d="M1.0354 5.92358C1.05516 5.9334 1.05516 5.95303 1.05516 5.97265C1.04277 5.95924 1.03574 5.94179 1.0354 5.92358Z" fill="#F26B2D"/>
<path d="M4.43616 5.92358C4.45592 5.9334 4.45592 5.94321 4.45592 5.96284C4.43616 5.95303 4.43616 5.94321 4.43616 5.92358Z" fill="#F47A31"/>
<path d="M6.24219 2.39062C6.2614 2.39062 6.27101 2.39062 6.28061 2.42007C6.26616 2.41273 6.25313 2.40275 6.24219 2.39062Z" fill="#F69338"/>
<path d="M6.31909 2.44946C6.33831 2.44946 6.34791 2.45928 6.35752 2.4789C6.34791 2.46909 6.3287 2.46909 6.31909 2.44946Z" fill="#F69338"/>
<path d="M4.45532 5.96289C4.47508 5.9727 4.47508 5.98252 4.47508 6.00215C4.45532 5.99233 4.45532 5.98252 4.45532 5.96289Z" fill="#F47A31"/>
<path d="M1.05457 5.98242C1.07433 5.99224 1.07433 6.01186 1.07433 6.03149C1.06193 6.01808 1.0549 6.00063 1.05457 5.98242Z" fill="#F26B2D"/>
<path d="M6.44385 2.54761C6.46306 2.54761 6.47267 2.55742 6.48227 2.57705C6.46306 2.56724 6.45345 2.56724 6.44385 2.54761Z" fill="#F69338"/>
<path d="M1.08359 6.0415C1.09044 6.04535 1.09599 6.05114 1.09951 6.05813C1.10303 6.06513 1.10437 6.07301 1.10335 6.08076C1.08359 6.07095 1.07371 6.06113 1.08359 6.0415Z" fill="#F26B2D"/>
<path d="M4.49377 6.0415C4.51354 6.05132 4.51354 6.06113 4.51354 6.08076C4.50751 6.07609 4.50261 6.07014 4.49919 6.06335C4.49577 6.05656 4.49392 6.0491 4.49377 6.0415Z" fill="#F47A31"/>
<path d="M1.27611 2.87158C1.27611 2.89121 1.27611 2.90102 1.25635 2.91084C1.25635 2.89121 1.25635 2.8814 1.27611 2.87158Z" fill="#F47A31"/>
<path d="M4.51294 6.08057C4.5327 6.09038 4.5327 6.11001 4.5327 6.12964C4.5203 6.11623 4.51328 6.09877 4.51294 6.08057Z" fill="#F47A31"/>
<path d="M1.12192 6.13965C1.12877 6.14349 1.13432 6.14928 1.13784 6.15628C1.14136 6.16327 1.1427 6.17115 1.14168 6.17891C1.12192 6.17891 1.11204 6.15928 1.12192 6.13965Z" fill="#F26B2D"/>
<path d="M4.54196 6.13965C4.56172 6.14946 4.56172 6.15928 4.56172 6.17891C4.54196 6.17891 4.53208 6.15928 4.54196 6.13965Z" fill="#F47A31"/>
<path d="M1.13147 6.18872C1.15123 6.19853 1.15123 6.21816 1.15123 6.23779C1.14205 6.22259 1.13537 6.20602 1.13147 6.18872Z" fill="#F26B2D"/>
<path d="M4.55139 6.17871C4.57115 6.18852 4.57115 6.20815 4.57115 6.22778C4.55876 6.21437 4.55173 6.19691 4.55139 6.17871Z" fill="#F47A31"/>
<path d="M4.57068 6.24756C4.59044 6.25737 4.59044 6.277 4.59044 6.29663C4.58126 6.28143 4.57458 6.26486 4.57068 6.24756Z" fill="#F47A31"/>
<path d="M4.81079 6.31616C4.81079 6.29653 4.81079 6.2769 4.83055 6.26709C4.83177 6.27627 4.83059 6.2856 4.82713 6.29419C4.82367 6.30278 4.81804 6.31035 4.81079 6.31616Z" fill="#F47A31"/>
<path d="M1.25695 2.91064C1.25695 2.93027 1.25695 2.94009 1.23718 2.9499C1.23718 2.93027 1.23718 2.92046 1.25695 2.91064Z" fill="#F47A31"/>
<path d="M6.80896 2.93042C6.82872 2.93042 6.82872 2.95005 6.8386 2.96968C6.81884 2.95986 6.80896 2.95005 6.80896 2.93042Z" fill="#F69338"/>
<path d="M6.86658 3.00879C6.88634 3.0186 6.88634 3.02842 6.88634 3.04804C6.88031 3.04337 6.87541 3.03743 6.87199 3.03063C6.86857 3.02384 6.86672 3.01638 6.86658 3.00879Z" fill="#F69338"/>
<path d="M6.91455 3.06787C6.93431 3.07769 6.93431 3.0875 6.93431 3.10713C6.91455 3.09731 6.91455 3.0875 6.91455 3.06787Z" fill="#F69338"/>
<path d="M5.17638 6.44385C5.17638 6.46348 5.17638 6.4831 5.15662 6.4831C5.1665 6.46348 5.1665 6.45366 5.17638 6.44385Z" fill="#F47E31"/>
<path d="M6.95309 3.13647C6.97285 3.14629 6.97285 3.1561 6.97285 3.17573C6.966 3.17189 6.96045 3.1661 6.95693 3.1591C6.95341 3.15211 6.95207 3.14423 6.95309 3.13647Z" fill="#F69338"/>
<path d="M6.99154 3.19531C7.0113 3.20513 7.0113 3.21494 7.0113 3.23457C7.00445 3.23072 6.9989 3.22493 6.99538 3.21794C6.99186 3.21095 6.99053 3.20307 6.99154 3.19531Z" fill="#F69338"/>
<path d="M7.01074 3.23462C7.0305 3.24443 7.0305 3.25425 7.0305 3.27388C7.0201 3.26305 7.01322 3.24938 7.01074 3.23462Z" fill="#F69338"/>
<path d="M7.04919 3.29346C7.06896 3.30327 7.06896 3.31308 7.06896 3.33271C7.04919 3.3229 7.04919 3.31308 7.04919 3.29346Z" fill="#F69338"/>
<path d="M5.16626 6.56152C5.18602 6.57134 5.18602 6.58115 5.18602 6.60078C5.16626 6.59097 5.16626 6.58115 5.16626 6.56152Z" fill="#F47E31"/>
<path d="M7.06836 3.33276C7.08812 3.34258 7.08812 3.35239 7.08812 3.37202C7.06836 3.3622 7.06836 3.35239 7.06836 3.33276Z" fill="#F69338"/>
<path d="M5.20468 6.63037C5.22444 6.64018 5.22444 6.65 5.22444 6.66962C5.21758 6.66578 5.21204 6.65999 5.20852 6.653C5.205 6.646 5.20366 6.63812 5.20468 6.63037Z" fill="#F47E31"/>
<path d="M1.05516 3.3916C1.05516 3.41123 1.05516 3.42104 1.0354 3.43086C1.03555 3.42327 1.0374 3.4158 1.04082 3.40901C1.04423 3.40222 1.04914 3.39627 1.05516 3.3916Z" fill="#F37630"/>
<path d="M5.07103 8.79907C5.07103 8.8187 5.06114 8.82851 5.04138 8.83833C5.04138 8.8187 5.05126 8.79907 5.07103 8.79907Z" fill="#F37330"/>
<path d="M5.24313 6.68921C5.26289 6.69902 5.26289 6.70884 5.26289 6.72847C5.25604 6.72462 5.25049 6.71883 5.24697 6.71184C5.24345 6.70484 5.24211 6.69696 5.24313 6.68921Z" fill="#F47E31"/>
<path d="M2.66858 8.76978C2.68834 8.77959 2.68834 8.7894 2.68834 8.80903C2.68231 8.80436 2.67741 8.79841 2.67399 8.79162C2.67058 8.78483 2.66873 8.77737 2.66858 8.76978Z" fill="#F2682D"/>
<path d="M2.60132 8.67163C2.62108 8.68145 2.62108 8.69126 2.62108 8.71089C2.6112 8.70107 2.6112 8.69126 2.60132 8.67163Z" fill="#F2682D"/>
<path d="M5.30078 6.78735C5.32054 6.79717 5.32054 6.80698 5.32054 6.82661C5.31452 6.82194 5.30962 6.81599 5.3062 6.8092C5.30278 6.80241 5.30093 6.79494 5.30078 6.78735Z" fill="#F47E31"/>
<path d="M2.57251 8.61279C2.59227 8.62261 2.59227 8.63242 2.59227 8.65205C2.57251 8.64223 2.57251 8.63242 2.57251 8.61279Z" fill="#F2682D"/>
<path d="M5.33911 6.84619C5.35887 6.85601 5.35887 6.86582 5.35887 6.88545C5.35285 6.88078 5.34795 6.87483 5.34453 6.86804C5.34111 6.86125 5.33926 6.85378 5.33911 6.84619Z" fill="#F47E31"/>
<path d="M2.53406 8.55371C2.55382 8.56353 2.55382 8.57334 2.55382 8.59297C2.53406 8.58316 2.53406 8.57334 2.53406 8.55371Z" fill="#F2682D"/>
<path d="M2.50525 8.51465C2.52501 8.52446 2.53489 8.53428 2.52501 8.55391C2.51898 8.54924 2.51408 8.54329 2.51066 8.5365C2.50725 8.5297 2.5054 8.52224 2.50525 8.51465Z" fill="#F2682D"/>
<path d="M5.39685 6.94434C5.41661 6.95415 5.41661 6.96396 5.41661 6.98359C5.41059 6.97892 5.40569 6.97297 5.40227 6.96618C5.39885 6.95939 5.397 6.95193 5.39685 6.94434Z" fill="#F47E31"/>
<path d="M2.42834 8.39673C2.44811 8.40654 2.44811 8.41635 2.44811 8.43598C2.4377 8.42516 2.43082 8.41148 2.42834 8.39673Z" fill="#F2682D"/>
<path d="M5.43518 7.00317C5.45494 7.01299 5.45494 7.0228 5.45494 7.04243C5.44506 7.04243 5.43518 7.0228 5.43518 7.00317Z" fill="#F47E31"/>
<path d="M2.37073 8.28882C2.39049 8.29863 2.39049 8.30845 2.39049 8.32808C2.38061 8.32808 2.37073 8.30845 2.37073 8.28882Z" fill="#F2682D"/>
<path d="M2.33228 8.22998C2.35204 8.23979 2.35204 8.24961 2.35204 8.26924C2.34601 8.26457 2.34111 8.25862 2.33769 8.25183C2.33427 8.24504 2.33242 8.23757 2.33228 8.22998Z" fill="#F2682D"/>
<path d="M5.4928 7.11108C5.51256 7.1209 5.51256 7.13071 5.51256 7.15034C5.50216 7.13952 5.49527 7.12584 5.4928 7.11108Z" fill="#F47E31"/>
<path d="M5.52173 7.15039C5.53161 7.1602 5.54149 7.17002 5.54149 7.17983C5.52173 7.17002 5.52173 7.1602 5.52173 7.15039Z" fill="#F47E31"/>
<path d="M5.54089 7.1897C5.55078 7.19951 5.55078 7.20933 5.56066 7.21914C5.54089 7.20933 5.54089 7.19951 5.54089 7.1897Z" fill="#F47E31"/>
<path d="M5.56006 7.229C5.56994 7.23882 5.56994 7.24863 5.57982 7.25845C5.56006 7.24863 5.56006 7.23882 5.56006 7.229Z" fill="#F47E31"/>
<path d="M4.29211 5.72729C4.30199 5.73711 4.31187 5.73711 4.31187 5.75674C4.30199 5.74692 4.30199 5.73711 4.29211 5.72729Z" fill="#F47E31"/>
<path d="M5.30078 5.52134L5.32054 5.50171C5.3201 5.50677 5.31787 5.51151 5.31426 5.51509C5.31065 5.51868 5.30587 5.52089 5.30078 5.52134Z" fill="#F58433"/>
<path d="M4.09998 5.50171C4.10507 5.50215 4.10984 5.50436 4.11345 5.50795C4.11707 5.51154 4.11929 5.51628 4.11974 5.52134C4.11465 5.52089 4.10987 5.51868 4.10626 5.51509C4.10265 5.51151 4.10042 5.50677 4.09998 5.50171Z" fill="#F47E31"/>
<path d="M5.31995 5.50156L5.33971 5.48193C5.33971 5.49175 5.32983 5.49175 5.31995 5.50156Z" fill="#F58433"/>
<path d="M2.31311 8.21045C2.32299 8.22026 2.32299 8.23008 2.33287 8.23008C2.32778 8.22963 2.32301 8.22742 2.31939 8.22384C2.31578 8.22025 2.31356 8.21551 2.31311 8.21045Z" fill="#F2682D"/>
<path d="M5.48328 7.09155L5.50304 7.11118C5.48328 7.10137 5.48328 7.10137 5.48328 7.09155Z" fill="#F47E31"/>
<path d="M2.35156 8.26929C2.36144 8.2791 2.37132 8.2791 2.37132 8.28892C2.36623 8.28848 2.36146 8.28626 2.35785 8.28267C2.35423 8.27908 2.35201 8.27434 2.35156 8.26929Z" fill="#F2682D"/>
<path d="M5.45447 7.04248C5.46435 7.05229 5.47423 7.06211 5.47423 7.07192C5.47423 7.08174 5.46435 7.06211 5.45447 7.04248Z" fill="#F47E31"/>
<path d="M2.39001 8.32812C2.3999 8.33794 2.40978 8.34775 2.40978 8.35757C2.40978 8.36738 2.39001 8.34775 2.39001 8.32812Z" fill="#F2682D"/>
<path d="M4.08069 5.48193C4.08578 5.48238 4.09055 5.48459 4.09417 5.48818C4.09778 5.49177 4.10001 5.4965 4.10045 5.50156C4.09536 5.50112 4.09059 5.49891 4.08697 5.49532C4.08336 5.49173 4.08113 5.48699 4.08069 5.48193Z" fill="#F47E31"/>
<path d="M2.4187 8.36743L2.43846 8.38706C2.4187 8.38706 2.4187 8.38706 2.4187 8.36743Z" fill="#F2682D"/>
<path d="M5.41602 6.98364C5.4259 6.99346 5.4259 7.00327 5.43578 7.00327C5.4259 7.00327 5.4259 6.99346 5.41602 6.98364Z" fill="#F47E31"/>
<path d="M2.45715 8.43604C2.46703 8.44585 2.46703 8.45566 2.47692 8.45566C2.45715 8.45566 2.45715 8.44585 2.45715 8.43604Z" fill="#F2682D"/>
<path d="M4.32092 5.7666L4.34069 5.78623C4.3308 5.77642 4.32092 5.77642 4.32092 5.7666Z" fill="#F47E31"/>
<path d="M2.49561 8.49487C2.5007 8.49532 2.50547 8.49752 2.50908 8.50111C2.5127 8.5047 2.51492 8.50944 2.51537 8.5145C2.49561 8.5145 2.49561 8.50469 2.49561 8.49487Z" fill="#F2682D"/>
<path d="M5.38721 6.9248L5.40697 6.94443C5.38721 6.94443 5.38721 6.93462 5.38721 6.9248Z" fill="#F47E31"/>
<path d="M5.3584 6.8855C5.36828 6.89531 5.37816 6.90513 5.37816 6.91494C5.36828 6.90513 5.3584 6.89531 5.3584 6.8855Z" fill="#F47E31"/>
<path d="M2.55322 8.59302C2.5631 8.60283 2.5631 8.61265 2.57299 8.61265C2.56789 8.6122 2.56312 8.60999 2.55951 8.6064C2.55589 8.60281 2.55367 8.59807 2.55322 8.59302Z" fill="#F2682D"/>
<path d="M5.31995 6.82666C5.32983 6.83647 5.32983 6.84629 5.33971 6.84629C5.33462 6.84585 5.32984 6.84364 5.32623 6.84005C5.32262 6.83646 5.32039 6.83172 5.31995 6.82666Z" fill="#F47E31"/>
<path d="M2.59167 8.65186C2.60156 8.66167 2.61144 8.66167 2.61144 8.67148C2.59167 8.67148 2.59167 8.66167 2.59167 8.65186Z" fill="#F2682D"/>
<path d="M5.28149 6.76758L5.30126 6.78721C5.29617 6.78676 5.29139 6.78455 5.28778 6.78096C5.28416 6.77738 5.28194 6.77264 5.28149 6.76758Z" fill="#F47E31"/>
<path d="M2.63013 8.71094C2.64001 8.72075 2.64989 8.73056 2.64989 8.74038C2.64989 8.75019 2.63013 8.73056 2.63013 8.71094Z" fill="#F2682D"/>
<path d="M2.64929 8.75L2.66905 8.76963C2.65917 8.76963 2.64929 8.76963 2.64929 8.75Z" fill="#F2682D"/>
<path d="M5.0996 8.75C5.09915 8.75506 5.09693 8.7598 5.09331 8.76339C5.0897 8.76698 5.08493 8.76919 5.07983 8.76963C5.08971 8.75981 5.08971 8.75 5.0996 8.75Z" fill="#F37330"/>
<path d="M5.33911 5.48203L5.35887 5.4624C5.35843 5.46746 5.3562 5.4722 5.35259 5.47579C5.34898 5.47938 5.3442 5.48159 5.33911 5.48203Z" fill="#F58433"/>
<path d="M5.26233 6.72852C5.27221 6.73833 5.28209 6.74814 5.28209 6.75795C5.27221 6.74814 5.26233 6.73833 5.26233 6.72852Z" fill="#F47E31"/>
<path d="M5.08031 8.76978C5.07043 8.77959 5.07043 8.7894 5.06055 8.7894L5.08031 8.76978Z" fill="#F37330"/>
<path d="M5.22388 6.66943C5.23376 6.67925 5.23376 6.68906 5.24364 6.68906C5.23855 6.68862 5.23377 6.68641 5.23016 6.68282C5.22655 6.67923 5.22432 6.67449 5.22388 6.66943Z" fill="#F47E31"/>
<path d="M4.11914 5.52124C4.12423 5.52168 4.129 5.52389 4.13262 5.52748C4.13623 5.53107 4.13846 5.53581 4.1389 5.54087C4.13381 5.54043 4.12904 5.53822 4.12542 5.53463C4.12181 5.53104 4.11959 5.5263 4.11914 5.52124Z" fill="#F47E31"/>
<path d="M5.18555 6.60083C5.19543 6.61065 5.19543 6.62046 5.20531 6.62046C5.19543 6.62046 5.18555 6.62046 5.18555 6.60083Z" fill="#F47E31"/>
<path d="M5.28149 5.54087L5.30126 5.52124C5.30081 5.5263 5.29859 5.53104 5.29497 5.53463C5.29136 5.53822 5.28659 5.54043 5.28149 5.54087Z" fill="#F58433"/>
<path d="M7.02991 3.27393C7.03979 3.28374 7.03979 3.29355 7.04967 3.29355C7.04458 3.29311 7.03981 3.2909 7.03619 3.28731C7.03258 3.28372 7.03035 3.27898 7.02991 3.27393Z" fill="#F69338"/>
<path d="M4.13831 5.54102C4.1434 5.54146 4.14817 5.54367 4.15178 5.54726C4.1554 5.55085 4.15762 5.55559 4.15807 5.56064C4.14819 5.56064 4.13831 5.56064 4.13831 5.54102Z" fill="#F47E31"/>
<path d="M5.26233 5.56064L5.28209 5.54102C5.28165 5.54607 5.27942 5.55081 5.27581 5.5544C5.27219 5.55799 5.26742 5.5602 5.26233 5.56064Z" fill="#F58433"/>
<path d="M6.97229 3.17578C6.98217 3.1856 6.98217 3.19541 6.99205 3.19541C6.98696 3.19497 6.98219 3.19276 6.97857 3.18917C6.97496 3.18558 6.97274 3.18084 6.97229 3.17578Z" fill="#F69338"/>
<path d="M4.15759 5.56055C4.16268 5.56099 4.16746 5.5632 4.17107 5.56679C4.17468 5.57038 4.17691 5.57512 4.17735 5.58018C4.16747 5.58018 4.15759 5.58018 4.15759 5.56055Z" fill="#F47E31"/>
<path d="M6.93384 3.10693C6.94372 3.11675 6.94372 3.12656 6.9536 3.12656C6.94372 3.12656 6.93384 3.12656 6.93384 3.10693Z" fill="#F69338"/>
<path d="M5.24304 5.58018L5.26281 5.56055C5.26236 5.5656 5.26013 5.57034 5.25652 5.57393C5.25291 5.57752 5.24813 5.57973 5.24304 5.58018Z" fill="#F58433"/>
<path d="M6.89539 3.0481C6.90527 3.05791 6.90527 3.06772 6.91515 3.06772C6.91006 3.06728 6.90528 3.06507 6.90167 3.06148C6.89806 3.05789 6.89583 3.05315 6.89539 3.0481Z" fill="#F69338"/>
<path d="M4.17676 5.58008C4.18185 5.58052 4.18662 5.58273 4.19024 5.58632C4.19385 5.58991 4.19608 5.59465 4.19652 5.59971C4.18664 5.59971 4.17676 5.59971 4.17676 5.58008Z" fill="#F47E31"/>
<path d="M6.85706 2.98926C6.86215 2.9897 6.86692 2.99191 6.87053 2.9955C6.87415 2.99909 6.87637 3.00383 6.87682 3.00889C6.85706 3.00889 6.85706 2.99907 6.85706 2.98926Z" fill="#F69338"/>
<path d="M6.83777 2.96973L6.85753 2.98936C6.83777 2.98936 6.83777 2.97954 6.83777 2.96973Z" fill="#F69338"/>
<path d="M4.24402 5.65869L4.26378 5.67832C4.25869 5.67787 4.25392 5.67567 4.2503 5.67208C4.24669 5.66849 4.24446 5.66375 4.24402 5.65869Z" fill="#F47E31"/>
<path d="M6.78979 2.91064C6.79489 2.91109 6.79966 2.9133 6.80327 2.91689C6.80689 2.92048 6.80911 2.92521 6.80956 2.93027C6.80447 2.92983 6.79969 2.92762 6.79608 2.92403C6.79247 2.92044 6.79024 2.9157 6.78979 2.91064Z" fill="#F69338"/>
<path d="M4.26318 5.67822L4.28294 5.69785C4.27785 5.69741 4.27308 5.6952 4.26947 5.69161C4.26585 5.68802 4.26363 5.68328 4.26318 5.67822Z" fill="#F47E31"/>
<path d="M6.77051 2.89111C6.78039 2.90093 6.78039 2.91074 6.79027 2.91074C6.78039 2.91074 6.78039 2.90093 6.77051 2.89111Z" fill="#F69338"/>
<path d="M6.76099 2.87158L6.78075 2.89121C6.76099 2.89121 6.76099 2.8814 6.76099 2.87158Z" fill="#F69338"/>
<path d="M4.28247 5.698C4.28756 5.69844 4.29233 5.70065 4.29595 5.70424C4.29956 5.70783 4.30179 5.71257 4.30223 5.71763C4.28247 5.71763 4.28247 5.71763 4.28247 5.698Z" fill="#F47E31"/>
<path d="M5.3584 5.4625L5.37816 5.44287C5.37772 5.44793 5.37549 5.45267 5.37188 5.45626C5.36826 5.45985 5.36349 5.46206 5.3584 5.4625Z" fill="#F58433"/>
<path d="M6.69373 2.79297C6.69882 2.79341 6.70359 2.79562 6.7072 2.79921C6.71082 2.8028 6.71304 2.80754 6.71349 2.8126C6.7084 2.81215 6.70362 2.80994 6.70001 2.80636C6.6964 2.80277 6.69417 2.79803 6.69373 2.79297Z" fill="#F69338"/>
<path d="M6.67444 2.77344C6.67953 2.77388 6.6843 2.77609 6.68791 2.77968C6.69153 2.78327 6.69375 2.78801 6.6942 2.79307C6.68911 2.79262 6.68434 2.79041 6.68072 2.78682C6.67711 2.78323 6.67488 2.77849 6.67444 2.77344Z" fill="#F69338"/>
<path d="M2.7262 2.79307L2.74596 2.77344C2.74596 2.78325 2.73608 2.78325 2.7262 2.79307Z" fill="#F58332"/>
<path d="M6.65527 2.75366C6.66037 2.7541 6.66514 2.75631 6.66875 2.7599C6.67237 2.76349 6.67459 2.76823 6.67504 2.77329C6.66994 2.77285 6.66517 2.77064 6.66156 2.76705C6.65794 2.76346 6.65572 2.75872 6.65527 2.75366Z" fill="#F69338"/>
<path d="M6.63611 2.73413C6.6412 2.73457 6.64597 2.73678 6.64958 2.74037C6.6532 2.74396 6.65542 2.7487 6.65587 2.75376C6.65078 2.75332 6.64601 2.75111 6.64239 2.74752C6.63878 2.74393 6.63655 2.73919 6.63611 2.73413Z" fill="#F69338"/>
<path d="M6.61682 2.71436L6.63658 2.73398C6.6267 2.72417 6.61682 2.72417 6.61682 2.71436Z" fill="#F69338"/>
<path d="M6.59766 2.69482L6.61742 2.71445C6.60754 2.70464 6.59766 2.70464 6.59766 2.69482Z" fill="#F69338"/>
<path d="M6.57837 2.67529L6.59813 2.69492C6.58825 2.68511 6.57837 2.68511 6.57837 2.67529Z" fill="#F69338"/>
<path d="M6.5592 2.64575L6.57897 2.66538C6.56908 2.66538 6.5592 2.66538 6.5592 2.64575Z" fill="#F69338"/>
<path d="M6.54004 2.62622C6.54513 2.62666 6.5499 2.62887 6.55352 2.63246C6.55713 2.63605 6.55936 2.64079 6.5598 2.64585C6.54992 2.64585 6.54004 2.64585 6.54004 2.62622Z" fill="#F69338"/>
<path d="M6.52075 2.60645C6.52584 2.60689 6.53061 2.6091 6.53423 2.61269C6.53784 2.61628 6.54007 2.62102 6.54051 2.62607C6.53063 2.62607 6.52075 2.62607 6.52075 2.60645Z" fill="#F69338"/>
<path d="M6.49194 2.58691C6.49704 2.58736 6.50181 2.58957 6.50542 2.59316C6.50904 2.59675 6.51126 2.60149 6.51171 2.60654C6.50183 2.60654 6.50182 2.60654 6.49194 2.58691Z" fill="#F69338"/>
<path d="M6.47278 2.56738C6.47787 2.56782 6.48264 2.57003 6.48626 2.57362C6.48987 2.57721 6.4921 2.58195 6.49254 2.58701C6.48266 2.58701 6.48266 2.58701 6.47278 2.56738Z" fill="#F69338"/>
<path d="M3.94617 5.36426C3.95126 5.3647 3.95603 5.36691 3.95964 5.3705C3.96326 5.37409 3.96548 5.37883 3.96593 5.38389C3.96084 5.38344 3.95607 5.38123 3.95245 5.37764C3.94884 5.37405 3.94661 5.36932 3.94617 5.36426Z" fill="#F47E31"/>
<path d="M6.42468 2.52808L6.44444 2.5477C6.43935 2.54726 6.43458 2.54505 6.43097 2.54146C6.42735 2.53787 6.42513 2.53313 6.42468 2.52808Z" fill="#F69338"/>
<path d="M6.39587 2.5083L6.41564 2.52793L6.39587 2.5083Z" fill="#F69338"/>
<path d="M6.37671 2.48877C6.3818 2.48921 6.38657 2.49142 6.39019 2.49501C6.3938 2.4986 6.39602 2.50334 6.39647 2.5084C6.38659 2.5084 6.38659 2.49858 6.37671 2.48877Z" fill="#F69338"/>
<path d="M6.35742 2.46924C6.36251 2.46968 6.36729 2.47189 6.3709 2.47548C6.37452 2.47907 6.37674 2.48381 6.37719 2.48887C6.3673 2.48887 6.35742 2.48887 6.35742 2.46924Z" fill="#F69338"/>
<path d="M3.87891 5.32495C3.88879 5.33476 3.89867 5.33477 3.89867 5.34458C3.89867 5.33477 3.88879 5.33476 3.87891 5.32495Z" fill="#F47E31"/>
<path d="M6.2998 2.42993C6.30969 2.43975 6.31957 2.43975 6.31957 2.44956C6.31448 2.44912 6.3097 2.44691 6.30609 2.44332C6.30247 2.43973 6.30025 2.43499 6.2998 2.42993Z" fill="#F69338"/>
<path d="M6.28064 2.41016C6.28573 2.4106 6.2905 2.41281 6.29412 2.4164C6.29773 2.41999 6.29995 2.42473 6.3004 2.42978C6.29531 2.42934 6.29054 2.42713 6.28692 2.42354C6.28331 2.41995 6.28108 2.41521 6.28064 2.41016Z" fill="#F69338"/>
<path d="M5.51256 5.92358C5.51212 5.92864 5.50989 5.93338 5.50628 5.93697C5.50266 5.94056 5.49789 5.94277 5.4928 5.94321C5.50268 5.9334 5.50268 5.92358 5.51256 5.92358Z" fill="#F58232"/>
<path d="M4.41699 5.90405C4.42687 5.91387 4.42687 5.92368 4.43676 5.92368C4.43166 5.92324 4.42689 5.92103 4.42328 5.91744C4.41966 5.91385 4.41744 5.90911 4.41699 5.90405Z" fill="#F47A31"/>
<path d="M4.37842 5.84521C4.3883 5.85503 4.3883 5.86484 4.39818 5.86484C4.39309 5.8644 4.38832 5.86219 4.3847 5.8586C4.38109 5.85501 4.37886 5.85027 4.37842 5.84521Z" fill="#F47E31"/>
<path d="M4.00378 5.4231L4.02355 5.44272C4.01367 5.43291 4.00378 5.43291 4.00378 5.4231Z" fill="#F47E31"/>
<path d="M3.98462 5.40356L4.00438 5.42319C3.9945 5.41338 3.98462 5.41338 3.98462 5.40356Z" fill="#F47E31"/>
<path d="M1.93895 1.92944L1.91919 1.94907C1.92907 1.93926 1.92907 1.92944 1.93895 1.92944Z" fill="#F58332"/>
<path d="M4.34009 5.78613C4.34997 5.79595 4.34997 5.80576 4.35985 5.80576C4.35476 5.80532 4.34999 5.80311 4.34637 5.79952C4.34276 5.79593 4.34053 5.79119 4.34009 5.78613Z" fill="#F47E31"/>
<path d="M1.95824 1.90967L1.93848 1.9293C1.93892 1.92424 1.94115 1.9195 1.94476 1.91591C1.94838 1.91232 1.95315 1.91011 1.95824 1.90967Z" fill="#F58332"/>
<path d="M1.9774 1.88037L1.95764 1.9L1.9774 1.88037Z" fill="#F58332"/>
<path d="M1.99657 1.8606L1.97681 1.88022L1.99657 1.8606Z" fill="#F58332"/>
<path d="M2.0255 1.84106L2.00574 1.86069C2.00574 1.85088 2.00574 1.85088 2.0255 1.84106Z" fill="#F58332"/>
<path d="M2.04467 1.82129L2.0249 1.84092C2.0249 1.8311 2.0249 1.8311 2.04467 1.82129Z" fill="#F58332"/>
<path d="M2.06395 1.80176L2.04419 1.82139C2.04419 1.81157 2.05407 1.81157 2.06395 1.80176Z" fill="#F58332"/>
<path d="M3.96545 5.38379C3.97055 5.38423 3.97532 5.38644 3.97893 5.39003C3.98254 5.39362 3.98477 5.39836 3.98521 5.40342C3.98012 5.40298 3.97535 5.40077 3.97174 5.39718C3.96812 5.39359 3.9659 5.38885 3.96545 5.38379Z" fill="#F47E31"/>
</svg>
