<svg width="24" height="24" fill="none" xmlns="http://www.w3.org/2000/svg"><path fill-rule="evenodd" clip-rule="evenodd" d="M4 3c.6 0 1 .4 1 1v16a1 1 0 1 1-2 0V4c0-.6.4-1 1-1Zm8 0c.6 0 1 .4 1 1v16a1 1 0 1 1-2 0V4c0-.6.4-1 1-1Zm9 1a1 1 0 1 0-2 0v16a1 1 0 1 0 2 0V4Z" fill="#FF6400"/><circle cx="4" cy="14" r="2.3" fill="#FFF6F0" stroke="#FF6400" stroke-width="1.5"/><circle cx="12" cy="8" r="2.3" fill="#FFF6F0" stroke="#FF6400" stroke-width="1.5"/><circle cx="20" cy="14" r="2.3" fill="#FFF6F0" stroke="#FF6400" stroke-width="1.5"/></svg>