<svg width="80" height="24" viewBox="0 0 80 24" fill="none" xmlns="http://www.w3.org/2000/svg">
<rect x="1.08936" y="0.25" width="78.6606" height="23.5" rx="11.75" fill="white"/>
<path d="M13.2623 16.6245C13.1579 16.7952 13.0389 16.9561 12.9069 17.1054C12.8945 17.1016 12.8831 17.0953 12.8732 17.0869C12.8633 17.0784 12.8551 17.0681 12.8492 17.0564C12.513 16.6638 12.1672 16.2909 11.8309 15.8983C11.4083 15.4076 10.976 14.9267 10.5533 14.4458C10.4883 14.35 10.4069 14.2669 10.3131 14.2005C10.1882 14.0238 10.0825 13.8373 9.96727 13.6509L9.41969 12.7676C9.32362 12.6106 9.24677 12.4536 9.16992 12.2965C9.15463 12.2729 9.14478 12.2461 9.1411 12.218C9.13149 12.1984 9.1411 12.1788 9.12189 12.169C9.11228 12.1591 9.11228 12.1395 9.10267 12.1297C9.08346 12.1101 9.10267 12.0806 9.08346 12.0708C9.07385 12.061 9.07385 12.0414 9.06425 12.0316C9.05464 12.0217 9.05464 12.0217 9.06425 12.0217C9.05464 12.0021 9.06425 11.9923 9.04503 11.9727C9.03543 11.9727 9.03543 11.9629 9.04503 11.9629C9.03543 11.9432 9.04503 11.9236 9.02582 11.9138C9.02582 11.9138 9.01621 11.904 9.02582 11.904C9.01621 11.8843 9.02582 11.8647 9.00661 11.8549C9.00661 11.8549 8.997 11.8451 9.00661 11.8451C9.00188 11.8397 8.99927 11.8327 8.99927 11.8255C8.99927 11.8182 9.00188 11.8112 9.00661 11.8058C9.05464 11.7764 9.08346 11.8157 9.11228 11.8451C9.41008 12.1886 9.71749 12.5419 10.0249 12.8854L10.803 13.7686L11.5716 14.6421C11.7733 14.8678 11.9654 15.0935 12.1672 15.3193C12.4266 15.6235 12.6955 15.9179 12.9645 16.2222C13.051 16.3203 13.1278 16.4184 13.2239 16.5166C13.2527 16.546 13.2911 16.5755 13.2623 16.6245Z" fill="#F2682D"/>
<path d="M12.9453 6.74194C13.1857 6.74827 13.4244 6.78453 13.6562 6.8499C13.7496 6.86583 13.8402 6.89558 13.9252 6.93822C14.0418 7.03117 14.1452 7.14016 14.2326 7.26209C14.4535 7.50744 14.6745 7.75279 14.8858 8.00796C15.1452 8.31219 15.4142 8.60661 15.6736 8.90103C15.8753 9.12676 16.0675 9.35248 16.2692 9.5782C16.3364 9.6469 16.3845 9.72541 16.4613 9.79411C16.493 9.90985 16.5154 10.028 16.5286 10.1474C16.5509 10.3298 16.5638 10.5132 16.567 10.697C16.5685 10.7203 16.5653 10.7437 16.5574 10.7657C16.4482 10.6852 16.3539 10.5855 16.2788 10.4713C16.0771 10.2456 15.8753 10.01 15.6736 9.7843C15.4718 9.55858 15.2509 9.30341 15.0492 9.06787C14.8474 8.83234 14.6553 8.62624 14.4632 8.40052C14.1942 8.09628 13.9252 7.79205 13.6562 7.478C13.4737 7.2719 13.2911 7.06581 13.1182 6.85971C13.0884 6.8177 13.0435 6.78947 12.9933 6.7812C12.9741 6.7812 12.9453 6.7812 12.9453 6.74194Z" fill="#F69338"/>
<path d="M12.9452 6.74183C12.9548 6.74183 12.9548 6.75164 12.9644 6.75164C13.0055 6.74961 13.0464 6.75962 13.0821 6.78048C13.1178 6.80134 13.147 6.8322 13.1662 6.86941C13.2334 6.96755 13.3295 7.04607 13.3967 7.13439C13.4544 7.20309 13.512 7.27179 13.5793 7.34049C13.7426 7.52695 13.9059 7.70361 14.0692 7.89989C14.1281 7.97643 14.1923 8.04858 14.2613 8.1158C14.415 8.28264 14.5495 8.44947 14.7032 8.61631L15.2508 9.2346C15.3565 9.35237 15.4621 9.47995 15.5678 9.59772C15.7023 9.75474 15.856 9.91177 15.9809 10.0786C16.0398 10.1551 16.104 10.2273 16.173 10.2945C16.2545 10.394 16.341 10.489 16.4324 10.5791C16.4855 10.6335 16.5338 10.6926 16.5765 10.7558C16.5845 10.8641 16.578 10.9731 16.5573 11.0796C16.4744 11.0145 16.4001 10.9387 16.3363 10.8539C16.1154 10.6086 15.904 10.3632 15.6831 10.1179L15.4237 9.82344C15.3701 9.74379 15.2973 9.67958 15.2124 9.63698C15.1739 9.54865 15.1355 9.46032 15.0971 9.38181C15.0875 9.372 15.0875 9.35237 15.0779 9.34255C15.0683 9.33274 15.0683 9.31311 15.0587 9.3033C15.0582 9.29824 15.0561 9.2935 15.0526 9.28991C15.049 9.28632 15.0444 9.28411 15.0395 9.28367V9.28367C15.0298 9.27386 15.0298 9.25423 15.0202 9.24441C15.0106 9.2346 15.0106 9.21497 15.001 9.20516C15.0006 9.2001 14.9984 9.19536 14.9949 9.19177C14.9914 9.18818 14.9868 9.18597 14.9818 9.18553C14.9722 9.17572 14.9722 9.15609 14.9626 9.14627C14.9626 9.13646 14.953 9.13646 14.9434 9.12664C14.9338 9.11683 14.9338 9.0972 14.9242 9.08739C14.9237 9.08233 14.9216 9.07759 14.9181 9.074C14.9146 9.07041 14.9099 9.0682 14.905 9.06776V9.06776C14.8954 9.05795 14.8954 9.03832 14.8857 9.0285C14.8853 9.02345 14.8832 9.01871 14.8796 9.01512C14.8761 9.01153 14.8715 9.00932 14.8665 9.00888L14.8473 8.98925C14.8377 8.97943 14.8377 8.95981 14.8185 8.94999C14.8181 8.94493 14.8159 8.9402 14.8124 8.93661C14.8089 8.93302 14.8042 8.93081 14.7993 8.93036V8.93036C14.7989 8.92531 14.7967 8.92057 14.7932 8.91698C14.7897 8.91339 14.785 8.91118 14.7801 8.91074L14.7609 8.89111C14.7417 8.87148 14.7417 8.85185 14.7128 8.83222C14.7124 8.82717 14.7102 8.82243 14.7067 8.81884C14.7032 8.81525 14.6986 8.81304 14.6936 8.81259C14.6932 8.80754 14.691 8.8028 14.6875 8.79921C14.684 8.79562 14.6794 8.79341 14.6744 8.79297V8.79297C14.674 8.78791 14.6718 8.78317 14.6683 8.77958C14.6648 8.77599 14.6601 8.77378 14.6552 8.77334V8.77334C14.6548 8.76828 14.6526 8.76354 14.6491 8.75995C14.6456 8.75636 14.6409 8.75415 14.636 8.75371C14.6264 8.7439 14.6264 8.73408 14.6168 8.73408C14.6072 8.72427 14.6072 8.71445 14.5976 8.71445C14.5879 8.70464 14.5879 8.69483 14.5783 8.69483C14.5687 8.68501 14.5687 8.6752 14.5591 8.6752C14.5495 8.66538 14.5495 8.65557 14.5399 8.65557C14.5395 8.65051 14.5373 8.64577 14.5338 8.64218C14.5303 8.63859 14.5256 8.63638 14.5207 8.63594V8.63594C14.5202 8.63073 14.5179 8.62586 14.5142 8.62225C14.5105 8.61864 14.5056 8.61653 14.5005 8.61631V8.61631C14.5001 8.61126 14.4979 8.60652 14.4944 8.60293C14.4909 8.59934 14.4863 8.59713 14.4813 8.59669V8.59669C14.4717 8.57706 14.4525 8.58687 14.4429 8.56724C14.4333 8.56724 14.4333 8.55743 14.4237 8.54762L14.4045 8.52799C14.3949 8.51817 14.3949 8.50836 14.3852 8.50836C14.3848 8.5033 14.3826 8.49856 14.3791 8.49497C14.3756 8.49138 14.371 8.48917 14.366 8.48873V8.48873C14.3564 8.4691 14.3372 8.47892 14.3276 8.45929L14.3084 8.43966C14.2988 8.42985 14.2988 8.42003 14.2892 8.42003C14.2796 8.4004 14.2604 8.41022 14.2508 8.39059C14.1163 8.31208 13.9818 8.22375 13.8377 8.15505C13.6589 8.07394 13.4725 8.01147 13.2814 7.96859C13.2718 7.96859 13.2622 7.95877 13.243 7.94896C13.0221 7.70361 12.8011 7.44844 12.5802 7.20309C12.4937 7.10495 12.4072 6.997 12.3112 6.89885C12.2728 6.8596 12.2247 6.83016 12.2632 6.76146C12.4313 6.73238 12.602 6.72251 12.7723 6.73202C12.8299 6.73202 12.8876 6.74183 12.9452 6.74183Z" fill="#F69137"/>
<path d="M13.2622 16.6246C13.2608 16.611 13.2567 16.5979 13.2501 16.5861C13.2435 16.5743 13.2345 16.564 13.2238 16.5559C13.168 16.4858 13.1069 16.4202 13.0413 16.3596C12.9548 16.2615 12.8684 16.1633 12.7819 16.075C12.6378 15.918 12.5033 15.7511 12.3688 15.5941C12.3016 15.5254 12.2439 15.4469 12.1767 15.3782C12.023 15.2212 11.8885 15.0445 11.7348 14.8777C11.5523 14.6814 11.3793 14.4753 11.1968 14.2692L10.6877 13.6902L10.1785 13.1112L9.64055 12.5027C9.46763 12.3162 9.31392 12.1199 9.141 11.9335C9.10258 11.8844 9.07376 11.8255 9.00651 11.8059C8.99691 11.8157 8.9969 11.8157 8.9873 11.8059C8.98602 11.8046 8.98501 11.8031 8.98431 11.8014C8.98362 11.7997 8.98326 11.7979 8.98326 11.7961C8.98326 11.7942 8.98362 11.7924 8.98431 11.7908C8.98501 11.7891 8.98602 11.7875 8.9873 11.7863C8.96809 11.7666 8.9873 11.7372 8.96809 11.7176C8.96809 11.7176 8.95848 11.7077 8.96809 11.7077C8.95848 11.6881 8.96809 11.6587 8.94887 11.639C8.94887 11.639 8.93927 11.6292 8.94887 11.6292C8.93927 11.6096 8.94887 11.5802 8.92966 11.5605C8.92966 11.5605 8.92005 11.5507 8.92966 11.5507C8.92005 11.5311 8.92966 11.5017 8.91045 11.482V11.4526C8.89123 11.4231 8.91045 11.3937 8.89123 11.3643C8.89123 11.3544 8.88163 11.3544 8.89123 11.3446C8.88163 11.325 8.89123 11.3152 8.90084 11.3152C8.92966 11.3152 8.94887 11.3446 8.96809 11.3643C9.30432 11.747 9.65015 12.1298 9.98638 12.5223C10.4091 13.013 10.8414 13.4939 11.2641 13.9748C11.5523 14.3085 11.8405 14.6225 12.1287 14.9562C12.1723 15.0007 12.2206 15.0402 12.2728 15.074C12.2949 15.0917 12.3115 15.1155 12.3208 15.1427C12.3357 15.1738 12.3565 15.2016 12.3821 15.2244C12.4076 15.2473 12.4373 15.2647 12.4695 15.2756C12.5017 15.2866 12.5357 15.2909 12.5696 15.2883C12.6034 15.2857 12.6364 15.2762 12.6666 15.2604C12.6762 15.2604 12.6954 15.2506 12.705 15.2506C12.7819 15.2506 12.8107 15.3095 12.8491 15.3586C13.0701 15.6137 13.2911 15.8591 13.512 16.1143C13.5312 16.1437 13.5696 16.1633 13.56 16.2026C13.4695 16.3494 13.37 16.4904 13.2622 16.6246V16.6246Z" fill="#F26B2D"/>
<path d="M8.88176 10.1473V10.1081C8.90097 10.0786 8.88176 10.0492 8.90097 10.0197V9.99028C8.93939 9.9314 8.96821 9.98047 8.99703 10.0099C9.10271 10.1081 9.18917 10.2258 9.29484 10.3338C9.54461 10.6086 9.77517 10.903 10.0442 11.168C10.0718 11.1907 10.0919 11.2215 10.1018 11.2563C10.1444 11.4097 10.1957 11.5604 10.2555 11.7077C10.3776 11.967 10.5189 12.2163 10.6782 12.4536C10.9376 12.8756 11.1969 13.2976 11.4659 13.7294C11.4825 13.7535 11.4955 13.78 11.5044 13.8079C11.4467 13.8472 11.4179 13.7883 11.3891 13.7589C11.2546 13.6019 11.1105 13.4448 10.976 13.2878C10.7743 13.0523 10.5725 12.8265 10.3708 12.591C10.1018 12.2868 9.83281 11.9727 9.56382 11.6685C9.35248 11.4231 9.14113 11.1778 8.92018 10.9422C8.88175 10.9521 8.90097 11.0011 8.86254 11.0109C8.86254 11.0011 8.85294 10.9913 8.85294 10.9815C8.83204 10.7495 8.83526 10.516 8.86254 10.2847C8.89136 10.2455 8.86254 10.1964 8.88176 10.1473Z" fill="#F36F2F"/>
<path d="M16.4708 11.5606C16.4484 11.716 16.4065 11.8677 16.346 12.012C16.2829 12.1564 16.168 12.2705 16.025 12.3308C15.882 12.3911 15.7217 12.3929 15.5774 12.3359C15.4339 12.2815 15.3166 12.1724 15.2503 12.0314C15.184 11.8904 15.1738 11.7287 15.222 11.5802C15.2726 11.4159 15.3143 11.2488 15.3469 11.0797C15.3788 10.872 15.3916 10.6617 15.3853 10.4516C15.3661 10.4025 15.3853 10.3829 15.4333 10.4025C15.4619 10.4134 15.4857 10.4343 15.5006 10.4614C15.8176 10.8245 16.1442 11.1877 16.4708 11.5606Z" fill="#F58B35"/>
<path d="M12.2535 10.2552C12.2824 10.216 12.3016 10.1865 12.3304 10.1473C12.5181 9.88991 12.6313 9.58387 12.657 9.26401C12.657 9.23457 12.6474 9.19531 12.6858 9.19531C12.7243 9.19531 12.7435 9.19531 12.7531 9.24438C12.7612 9.32362 12.774 9.40228 12.7915 9.47992C12.9068 10.1276 13.5024 10.7754 14.2229 10.903C14.2767 10.9143 14.3313 10.9209 14.3862 10.9226C14.4246 10.9226 14.4438 10.9324 14.4438 10.9717C14.4438 11.0109 14.415 11.0207 14.3862 11.0207C14.2012 11.0329 14.0195 11.076 13.8482 11.1483C13.6806 11.2216 13.5251 11.3209 13.3871 11.4427C13.3221 11.4075 13.2661 11.3571 13.2238 11.2955C12.974 11.0011 12.7147 10.7165 12.4553 10.4221C12.4043 10.3486 12.3345 10.2909 12.2535 10.2552V10.2552Z" fill="#F58433"/>
<path d="M13.1759 12.434C13.2444 12.2455 13.3527 12.0746 13.4929 11.9335C13.5025 11.9237 13.5121 11.9237 13.5121 11.9139C13.541 11.8943 13.5698 11.9139 13.589 11.9335C13.7619 12.12 13.9252 12.3163 14.0981 12.5027C14.3095 12.7383 14.5112 12.9738 14.7226 13.2093C14.7751 13.2793 14.8329 13.3449 14.8955 13.4056C14.9039 13.413 14.9108 13.422 14.9157 13.4321C14.9207 13.4422 14.9236 13.4532 14.9243 13.4645C14.9147 13.5921 14.9339 13.7197 14.9147 13.8571C14.9068 14.0024 14.8743 14.1451 14.8186 14.2791C14.6457 14.1024 14.4824 13.916 14.3191 13.7295C14.127 13.5038 13.9348 13.2879 13.7331 13.0621C13.5794 12.8855 13.4161 12.7088 13.2624 12.5224C13.2431 12.5027 13.1951 12.4831 13.1759 12.434Z" fill="#F47E31"/>
<path d="M10.3131 14.2103C10.3131 14.2005 10.3131 14.1808 10.3227 14.1907C10.3496 14.2048 10.3754 14.2212 10.3996 14.2397C10.5148 14.3869 10.6589 14.5243 10.7742 14.6716C10.8319 14.7501 10.9087 14.8188 10.976 14.8973C11.072 14.9954 11.1585 15.1034 11.2546 15.2113C11.389 15.3585 11.5235 15.5057 11.6484 15.6628C11.7061 15.7413 11.7829 15.81 11.8502 15.8885C11.9366 15.9964 12.0327 16.0946 12.1288 16.1927C12.2632 16.3498 12.3977 16.5166 12.5418 16.6736C12.6072 16.7567 12.6778 16.8354 12.7532 16.9092C12.8127 16.97 12.8673 17.0356 12.9165 17.1054C12.8594 17.1627 12.791 17.207 12.7159 17.2354C12.6408 17.2637 12.5607 17.2755 12.4809 17.2699C12.401 17.2644 12.3232 17.2416 12.2526 17.2031C12.1819 17.1646 12.1201 17.1112 12.0711 17.0466C12.053 17.0218 12.0369 16.9955 12.0231 16.968C11.5908 16.2712 11.1585 15.5646 10.7262 14.8678L10.6974 14.8089C10.6878 14.7991 10.6878 14.7795 10.6782 14.7697C10.6686 14.7599 10.6686 14.7501 10.6589 14.7501C10.6564 14.7501 10.654 14.749 10.6522 14.7472C10.6504 14.7453 10.6493 14.7429 10.6493 14.7402C10.6493 14.7304 10.6397 14.7206 10.6301 14.7108C10.6205 14.701 10.6205 14.6814 10.6109 14.6716C10.6105 14.6665 10.6083 14.6618 10.6048 14.6582C10.6013 14.6546 10.5967 14.6524 10.5917 14.6519V14.6519C10.5821 14.6421 10.5821 14.6225 10.5725 14.6127C10.5721 14.6076 10.5699 14.6029 10.5664 14.5993C10.5629 14.5957 10.5582 14.5935 10.5533 14.593V14.593C10.5437 14.5832 10.5437 14.5636 10.5341 14.5538C10.5245 14.544 10.5245 14.5243 10.5148 14.5145C10.5144 14.5095 10.5123 14.5047 10.5087 14.5011C10.5052 14.4976 10.5006 14.4953 10.4956 14.4949V14.4949C10.486 14.4851 10.486 14.4655 10.4764 14.4556C10.476 14.4506 10.4738 14.4458 10.4703 14.4423C10.4668 14.4387 10.4622 14.4365 10.4572 14.436V14.436C10.4476 14.4262 10.4476 14.4066 10.438 14.3968C10.4284 14.3869 10.4284 14.3771 10.4188 14.3771C10.4162 14.3771 10.4138 14.3761 10.412 14.3743C10.4102 14.3724 10.4092 14.3699 10.4092 14.3673C10.4092 14.3575 10.3996 14.3477 10.39 14.3379C10.3804 14.3281 10.3804 14.3084 10.3707 14.2986C10.3703 14.2936 10.3682 14.2888 10.3646 14.2852C10.3611 14.2816 10.3565 14.2794 10.3515 14.279C10.3419 14.2692 10.3419 14.2495 10.3323 14.2397C10.3323 14.2201 10.3227 14.2201 10.3131 14.2103V14.2103Z" fill="#F2622C"/>
<path d="M16.4709 9.79388C16.4436 9.78997 16.4177 9.77887 16.3958 9.76166C16.3739 9.74446 16.3567 9.72174 16.346 9.69574C16.2788 9.59759 16.1827 9.51908 16.1155 9.43076C16.029 9.3228 15.9329 9.22466 15.8369 9.12652C15.7024 8.97931 15.5775 8.82229 15.443 8.66526C15.3758 8.59656 15.3181 8.51805 15.2509 8.44935C15.1548 8.35121 15.078 8.24326 14.9819 8.14512C14.8474 7.99791 14.7129 7.83107 14.5784 7.68386C14.5208 7.61516 14.4535 7.53664 14.3863 7.46795C14.2998 7.36981 14.2134 7.26185 14.1173 7.16371C14.0501 7.09501 13.9924 7.0165 13.9252 6.93799C14.1056 6.98946 14.2797 7.0619 14.4439 7.1539C14.9062 7.38895 15.3173 7.71701 15.6524 8.11839C15.9875 8.51977 16.2398 8.98618 16.3941 9.48964C16.4298 9.58811 16.4555 9.69005 16.4709 9.79388V9.79388Z" fill="#F79739"/>
<path d="M8.86243 11.0206C8.87203 10.9814 8.85282 10.9421 8.88164 10.8931C8.95302 10.9353 9.01515 10.9921 9.06416 11.0599C9.13588 11.1528 9.21287 11.2412 9.29472 11.3249C9.37158 11.423 9.45804 11.5114 9.53489 11.5997C9.67899 11.7567 9.82309 11.9334 9.95758 12.0904C10.0248 12.1689 10.0921 12.2376 10.1593 12.3161C10.2458 12.4241 10.3418 12.5222 10.4379 12.6203C10.5724 12.7676 10.6973 12.9246 10.8318 13.0816C10.899 13.1601 10.9663 13.2288 11.0335 13.3073C11.12 13.4153 11.216 13.5134 11.3121 13.6116C11.351 13.663 11.3927 13.7122 11.437 13.7588C11.4459 13.771 11.4575 13.7809 11.4709 13.7877C11.4842 13.7945 11.4989 13.798 11.5138 13.798C11.6003 13.9158 11.6675 14.0336 11.7444 14.1611C11.9173 14.4359 12.0902 14.7205 12.2632 14.9953C12.278 15.017 12.2909 15.04 12.3016 15.064C12.2662 15.0624 12.2318 15.0516 12.2016 15.0327C12.1713 15.0139 12.1463 14.9875 12.1287 14.9561C12.0634 14.8698 11.9928 14.7879 11.9173 14.7107L11.6579 14.4163C11.5042 14.2495 11.3601 14.0826 11.216 13.906C11.1584 13.8373 11.0912 13.7686 11.0335 13.6999L10.7934 13.4251C10.6396 13.2583 10.5052 13.0914 10.3611 12.9246C10.2938 12.8461 10.2266 12.7774 10.1593 12.6989C10.0825 12.6007 9.9864 12.5124 9.90954 12.4142C9.76545 12.2572 9.63095 12.0904 9.48685 11.9235C9.41787 11.8563 9.35367 11.7842 9.29472 11.7076C9.21787 11.6095 9.1218 11.5212 9.03535 11.423C9.00653 11.3936 8.98731 11.3543 8.95849 11.3249C8.94889 11.3151 8.93928 11.2856 8.91046 11.3151C8.89404 11.2713 8.88747 11.2244 8.89125 11.1777C8.87203 11.1384 8.89125 11.0893 8.87203 11.0501C8.86243 11.0599 8.86243 11.0403 8.86243 11.0206Z" fill="#F26B2D"/>
<path d="M12.2537 10.2554C12.2921 10.2259 12.3209 10.2554 12.3593 10.2848C12.4746 10.4026 12.5803 10.5302 12.6956 10.6577C12.7532 10.7264 12.8108 10.7853 12.8685 10.8442L13.1279 11.1386C13.2193 11.2321 13.3059 11.3303 13.3872 11.433L13.368 11.4527L13.3488 11.4723L13.3296 11.4919C13.3296 11.5017 13.32 11.5017 13.3104 11.5116C13.3104 11.5214 13.3008 11.5214 13.2912 11.5312C13.2912 11.541 13.2816 11.541 13.272 11.5508C13.272 11.5606 13.2624 11.5606 13.2528 11.5704C13.1216 11.7159 13.0086 11.8774 12.9165 12.0513C12.8985 12.0495 12.8812 12.0432 12.8661 12.0329C12.851 12.0227 12.8386 12.0088 12.8301 11.9925C12.5515 11.6784 12.2825 11.3643 12.0039 11.0503C11.9078 10.9325 11.7829 10.8344 11.7157 10.697C11.9177 10.5813 12.0995 10.432 12.2537 10.2554Z" fill="#F47E31"/>
<path d="M12.2632 6.76147C12.2642 6.78034 12.2689 6.7988 12.2772 6.8157C12.2854 6.83259 12.297 6.84754 12.3113 6.85962C12.3689 6.9185 12.4169 6.97738 12.4746 7.04608C12.6283 7.22274 12.782 7.38957 12.9357 7.55641C13.0414 7.67418 13.1374 7.80176 13.2431 7.90972C13.2527 7.91953 13.2623 7.92935 13.2431 7.93916H13.2239C13.1951 7.91953 13.1663 7.93916 13.1374 7.91953H13.099C13.0702 7.8999 13.0318 7.91953 12.9933 7.8999C12.8781 7.8999 12.7628 7.8999 12.6475 7.89009C12.4606 7.89511 12.2743 7.9148 12.0903 7.94897C12.0913 7.92927 12.0884 7.90956 12.0818 7.89101C12.0752 7.87246 12.065 7.85546 12.0519 7.84102C11.8598 7.63492 11.6868 7.41902 11.4947 7.21292C11.4275 7.14422 11.3698 7.06571 11.293 6.9872C11.4702 6.90341 11.6576 6.84401 11.8502 6.81054C11.9867 6.78508 12.1246 6.76869 12.2632 6.76147Z" fill="#F58B35"/>
<path d="M13.1759 12.4341C13.2315 12.463 13.2781 12.5072 13.3104 12.5617C13.3694 12.6382 13.4336 12.7104 13.5025 12.7776C13.6466 12.9542 13.8099 13.1113 13.954 13.2879C14.127 13.4842 14.2903 13.6805 14.4632 13.8669L14.7802 14.2202C14.7909 14.2283 14.7999 14.2386 14.8065 14.2505C14.8131 14.2623 14.8173 14.2754 14.8186 14.2889C14.7607 14.4796 14.666 14.6564 14.5401 14.8091C14.4377 14.7208 14.3443 14.6222 14.2615 14.5147C14.0501 14.2889 13.858 14.0338 13.6274 13.8179C13.6485 13.6436 13.6355 13.4668 13.589 13.2977C13.5794 13.2879 13.5794 13.2683 13.5698 13.2585C13.5602 13.2486 13.5602 13.2486 13.5698 13.2486C13.5794 13.2486 13.5602 13.229 13.5506 13.2192C13.548 13.2192 13.5456 13.2182 13.5438 13.2163C13.542 13.2145 13.541 13.212 13.541 13.2094C13.541 13.1996 13.5314 13.1898 13.5218 13.1799C13.5192 13.1799 13.5168 13.1789 13.515 13.1771C13.5132 13.1752 13.5121 13.1727 13.5121 13.1701C13.5121 13.1603 13.5025 13.1505 13.4929 13.1407C13.4833 13.1309 13.4833 13.1113 13.4737 13.1014L13.4545 13.0818C13.452 13.0818 13.4495 13.0808 13.4477 13.0789C13.4459 13.0771 13.4449 13.0746 13.4449 13.072C13.4449 13.0622 13.4353 13.0524 13.4257 13.0426C13.4161 13.0327 13.4161 13.0131 13.4065 13.0033C13.406 12.9982 13.4039 12.9935 13.4004 12.9899C13.3968 12.9863 13.3922 12.9841 13.3873 12.9837V12.9837C13.3777 12.9739 13.3777 12.9542 13.368 12.9444L13.3488 12.9248C13.3463 12.9248 13.3438 12.9238 13.342 12.9219C13.3402 12.9201 13.3392 12.9176 13.3392 12.915C13.3392 12.9052 13.3296 12.8953 13.32 12.8855C13.3104 12.8757 13.3104 12.8561 13.3008 12.8463C13.3004 12.8412 13.2982 12.8365 13.2947 12.8329C13.2912 12.8293 13.2865 12.8271 13.2816 12.8266C13.272 12.8168 13.272 12.7972 13.2624 12.7874C13.2528 12.7776 13.2528 12.7678 13.2432 12.7678C13.2406 12.7678 13.2382 12.7667 13.2364 12.7649C13.2346 12.763 13.2336 12.7605 13.2336 12.7579C13.2336 12.7481 13.2239 12.7383 13.2143 12.7285C13.2047 12.7187 13.2047 12.6991 13.1951 12.6892C13.1947 12.6842 13.1925 12.6795 13.189 12.6759C13.1855 12.6723 13.1809 12.6701 13.1759 12.6696V12.6696C13.1663 12.6598 13.1663 12.6402 13.1567 12.6304C13.1563 12.6253 13.1541 12.6206 13.1506 12.617C13.1471 12.6134 13.1424 12.6112 13.1375 12.6107V12.6107C13.1279 12.6009 13.1279 12.5813 13.1183 12.5715C13.1087 12.5429 13.1087 12.5118 13.1183 12.4832V12.4832C13.1759 12.4733 13.1759 12.4537 13.1759 12.4341V12.4341Z" fill="#F47A31"/>
<path d="M10.0634 7.80176C10.2469 7.61481 10.4536 7.45315 10.6782 7.32087C10.7262 7.31106 10.7454 7.35032 10.7742 7.37976C10.9856 7.62511 11.2065 7.87046 11.4179 8.11581C11.4467 8.15507 11.4755 8.18451 11.4179 8.22376C11.4083 8.23358 11.3891 8.23358 11.3795 8.25321C11.2738 8.33172 11.1585 8.40042 11.0624 8.47893C10.9472 8.56726 10.8607 8.67521 10.755 8.76354C10.7503 8.75627 10.7477 8.74774 10.7477 8.739C10.7477 8.73027 10.7503 8.72173 10.755 8.71447C10.8223 8.64577 10.7838 8.5967 10.7358 8.53781C10.5437 8.31209 10.3419 8.09618 10.1594 7.88027C10.121 7.85083 10.0826 7.84102 10.0634 7.80176Z" fill="#F58332"/>
<path d="M11.4179 8.23359C11.4371 8.20415 11.4275 8.17471 11.3987 8.14527C11.2642 7.99806 11.1297 7.84103 10.9952 7.69382C10.9133 7.61017 10.8364 7.52169 10.7646 7.42884C10.7351 7.39372 10.703 7.36091 10.6686 7.3307C10.8679 7.1937 11.0844 7.08477 11.3122 7.00684C11.3389 7.01256 11.364 7.02436 11.3856 7.04135C11.4072 7.05834 11.4248 7.08009 11.4371 7.10498C11.5088 7.19783 11.5858 7.28631 11.6677 7.36996C11.7541 7.4681 11.831 7.56624 11.9174 7.65456C11.9847 7.72326 12.0423 7.79196 12.1 7.86066C12.1288 7.8901 12.1576 7.92936 12.1 7.96861H12.0807C12.0615 7.98824 12.0423 7.96861 12.0231 7.98824C11.814 8.0495 11.6112 8.13168 11.4179 8.23359V8.23359Z" fill="#F58734"/>
<path d="M10.0633 7.80176C10.0827 7.80347 10.1014 7.80967 10.118 7.81987C10.1347 7.83007 10.1488 7.84402 10.1594 7.86064C10.2283 7.95583 10.3055 8.04451 10.39 8.12562C10.4764 8.22376 10.5629 8.33172 10.6589 8.42986C10.7121 8.48419 10.7603 8.54331 10.803 8.60651C10.8319 8.63595 10.8223 8.66539 10.803 8.69484C10.7766 8.71451 10.7565 8.74187 10.7454 8.77335V8.77335C10.7454 8.78316 10.7358 8.78316 10.7262 8.79298C10.6057 8.94015 10.4935 9.09415 10.39 9.25424C10.1882 9.06777 10.0153 8.84205 9.83278 8.63595C9.74453 8.54578 9.66115 8.45077 9.58301 8.35134C9.67632 8.20197 9.78948 8.06655 9.91924 7.94897C9.92884 7.93915 9.93845 7.93915 9.93845 7.92934C9.94806 7.91953 9.95766 7.91953 9.95766 7.90971C9.96727 7.8999 9.97688 7.8999 9.97688 7.89008C9.98648 7.88027 9.99609 7.88027 9.99609 7.87046C10.0057 7.86064 10.0153 7.86064 10.0153 7.85083L10.0345 7.8312L10.0633 7.80176V7.80176Z" fill="#F47E31"/>
<path d="M14.9146 13.8767V13.5234C14.9175 13.4957 14.9107 13.4679 14.8954 13.4449C14.7513 13.3075 14.6264 13.1407 14.4824 12.9934C14.3383 12.8462 14.2038 12.6696 14.0693 12.5126C14.0116 12.4439 13.9444 12.3752 13.8867 12.3065C13.7811 12.1789 13.6658 12.0611 13.5601 11.9335C13.547 11.9212 13.5299 11.9142 13.5121 11.9139C13.6369 11.7694 13.7867 11.6497 13.954 11.5606C13.9924 11.541 14.0116 11.5508 14.0308 11.59C14.1557 11.7863 14.271 11.9826 14.3959 12.1789L14.6553 12.5911C14.8706 12.9569 14.9681 13.3826 14.9339 13.808C14.9287 13.8313 14.9223 13.8542 14.9146 13.8767V13.8767Z" fill="#F58232"/>
<path d="M13.5601 16.2026C13.5503 16.184 13.5373 16.1674 13.5216 16.1536C13.3679 15.9867 13.2142 15.8199 13.0701 15.653C12.9741 15.5353 12.8684 15.4273 12.7819 15.3194C12.7634 15.2893 12.7367 15.2654 12.7051 15.2507C12.7794 15.1779 12.844 15.0954 12.8972 15.0053C12.9452 14.9464 12.9837 14.8876 13.0317 14.8287C13.0509 14.8189 13.0413 14.7992 13.0605 14.7894L13.0797 14.7698C13.0893 14.76 13.0989 14.76 13.0989 14.7502C13.1566 14.7305 13.1854 14.7698 13.2142 14.7992C13.3583 14.9563 13.5024 15.1231 13.6369 15.2801C13.7252 15.3737 13.8086 15.4719 13.8867 15.5745C13.9059 15.604 13.9443 15.6334 13.9251 15.6825C13.8154 15.8643 13.6934 16.0381 13.5601 16.2026Z" fill="#F36F2F"/>
<path d="M10.1017 11.2564C10.0537 11.2073 9.99603 11.1582 9.948 11.1092C9.77508 10.9325 9.61177 10.7362 9.44845 10.5399C9.39081 10.4712 9.32357 10.4025 9.26593 10.3338C9.17947 10.2161 9.0738 10.1179 8.97773 10.01C8.95852 9.99035 8.93931 9.96091 8.90088 9.98054C8.91808 9.83677 8.95028 9.6953 8.99694 9.55853C9.01616 9.53891 8.99694 9.51928 9.01616 9.49965C9.03537 9.48002 9.01616 9.45058 9.03537 9.44077V9.42114C9.04498 9.41132 9.04498 9.3917 9.05458 9.38188C9.11222 9.35244 9.14104 9.40151 9.16986 9.43095C9.33318 9.59779 9.46767 9.77444 9.62137 9.94128C9.73665 10.0689 9.84232 10.2063 9.96721 10.324C9.98631 10.3431 10.0013 10.3661 10.0112 10.3914C10.0212 10.4168 10.0258 10.444 10.0248 10.4712C10.0184 10.6087 10.0217 10.7464 10.0345 10.8834C10.0633 11.0208 10.0825 11.1386 10.1017 11.2564Z" fill="#F37330"/>
<path d="M16.4709 11.5606C16.4414 11.5578 16.4139 11.5438 16.3941 11.5213C16.298 11.4036 16.1923 11.2858 16.0867 11.168L15.6832 10.6969C15.5967 10.5988 15.5199 10.5105 15.4334 10.4221C15.4046 10.3927 15.3854 10.3927 15.3758 10.4418C15.3565 10.3436 15.3469 10.2357 15.3277 10.1375C15.2931 9.96801 15.2482 9.80085 15.1932 9.63702C15.2164 9.63315 15.2402 9.63566 15.2622 9.64428C15.2841 9.6529 15.3034 9.66733 15.3181 9.68609C15.4238 9.80386 15.5295 9.92163 15.6255 10.0394C15.6845 10.1159 15.7487 10.1881 15.8177 10.2553L16.0867 10.5595C16.2472 10.727 16.398 10.9039 16.5382 11.0895C16.5394 11.2491 16.5167 11.408 16.4709 11.5606Z" fill="#F69137"/>
<path d="M9.59257 8.35132C9.60834 8.35241 9.62361 8.35745 9.63701 8.36601C9.65042 8.37457 9.66155 8.38638 9.66942 8.40039C9.83273 8.59667 10.0057 8.78314 10.169 8.97942C10.2362 9.04812 10.2938 9.12663 10.3611 9.19533C10.3718 9.20343 10.3808 9.21372 10.3874 9.22554C10.394 9.23737 10.3981 9.25048 10.3995 9.26402C10.3008 9.45306 10.2172 9.64999 10.1497 9.85287C9.96722 9.6664 9.80391 9.47012 9.63099 9.27384C9.51571 9.14626 9.40044 9.00886 9.28516 8.88128C9.36043 8.7089 9.4573 8.54725 9.57335 8.40039C9.58296 8.38076 9.57335 8.36113 9.59257 8.35132V8.35132Z" fill="#F47A31"/>
<path d="M9.27552 8.87158C9.3399 8.89423 9.39435 8.93942 9.42922 8.99916C9.50094 9.09202 9.57793 9.1805 9.65978 9.26414C9.74624 9.36228 9.8327 9.47024 9.92877 9.56838C9.99601 9.63708 10.0537 9.71559 10.1209 9.78429C10.1401 9.80392 10.1401 9.81373 10.1401 9.84317C10.1209 9.98057 10.0729 10.1082 10.0633 10.2455C10.0377 10.4308 10.0312 10.6183 10.044 10.8049V10.9031C10.0152 10.8736 10.0248 10.8442 10.0248 10.8049V10.5007C10.0265 10.4762 10.0221 10.4517 10.012 10.4294C10.0019 10.4071 9.98651 10.3877 9.96719 10.3731C9.79427 10.2063 9.64057 10.01 9.47726 9.83336C9.36198 9.70578 9.2563 9.57819 9.14102 9.46042C9.11221 9.43098 9.09299 9.40154 9.05457 9.40154C9.09537 9.2465 9.15678 9.09791 9.23709 8.95991C9.2467 8.95009 9.2467 8.93047 9.2563 8.92065C9.26591 8.90102 9.26591 8.8814 9.27552 8.87158V8.87158Z" fill="#F37630"/>
<path d="M13.6369 13.8276C13.6854 13.8403 13.7289 13.8677 13.7618 13.9061C13.8579 14.0239 13.9539 14.1319 14.05 14.2398C14.2133 14.4361 14.3959 14.6128 14.5496 14.8189C14.4549 14.974 14.3489 15.1216 14.2325 15.2605C14.0788 15.1035 13.9443 14.9268 13.8002 14.7698C13.6561 14.6128 13.5409 14.4656 13.4064 14.3282C13.4295 14.2765 13.4621 14.2298 13.5024 14.1908C13.5519 14.1031 13.5937 14.0111 13.6273 13.916C13.6465 13.8963 13.6273 13.8669 13.6465 13.8473C13.6273 13.8375 13.6273 13.8375 13.6369 13.8276Z" fill="#F37630"/>
<path d="M13.3968 14.3281C13.416 14.3281 13.4448 14.3281 13.4544 14.3379C13.5235 14.4086 13.5877 14.484 13.6465 14.5637C13.6965 14.6357 13.7546 14.7016 13.8195 14.7599C13.9059 14.8581 13.9924 14.966 14.0884 15.0642C14.1495 15.1123 14.196 15.1769 14.2229 15.2506C14.1324 15.3975 14.0329 15.5385 13.9251 15.6727C13.9231 15.6518 13.9166 15.6317 13.9059 15.6138C13.8387 15.5353 13.7714 15.4666 13.7042 15.388C13.5697 15.2212 13.416 15.074 13.2815 14.9072C13.2366 14.8319 13.1693 14.7734 13.0894 14.7403C13.1854 14.6029 13.2911 14.4655 13.3968 14.3281Z" fill="#F37330"/>
<path d="M12.3208 11.7666C12.3183 11.7666 12.3158 11.7655 12.314 11.7637C12.3122 11.7618 12.3112 11.7593 12.3112 11.7567C12.3112 11.7469 12.3016 11.7371 12.292 11.7273C12.2916 11.7222 12.2894 11.7175 12.2859 11.7139C12.2824 11.7103 12.2777 11.7081 12.2728 11.7077V11.7077L12.2536 11.688L12.2344 11.6684C12.2152 11.6488 12.2152 11.6292 12.1863 11.6095C12.1859 11.6045 12.1837 11.5997 12.1802 11.5961C12.1767 11.5926 12.1721 11.5903 12.1671 11.5899V11.5899C12.1667 11.5848 12.1645 11.5801 12.161 11.5765C12.1575 11.5729 12.1529 11.5707 12.1479 11.5703V11.5703C12.1475 11.5652 12.1453 11.5605 12.1418 11.5569C12.1383 11.5533 12.1336 11.5511 12.1287 11.5506C12.1283 11.5456 12.1261 11.5409 12.1226 11.5373C12.1191 11.5337 12.1144 11.5315 12.1095 11.531V11.531C12.109 11.526 12.1069 11.5212 12.1034 11.5176C12.0999 11.514 12.0952 11.5118 12.0903 11.5114V11.5114C12.0898 11.5063 12.0877 11.5016 12.0842 11.498C12.0806 11.4944 12.076 11.4922 12.0711 11.4918C12.0614 11.4721 12.0326 11.4623 12.0134 11.4427L11.9942 11.4231L11.975 11.4034C11.9654 11.3936 11.9654 11.3838 11.9558 11.3838C11.9462 11.374 11.9462 11.3642 11.9366 11.3642C11.927 11.3446 11.9077 11.3544 11.8981 11.3347C11.8885 11.3249 11.8789 11.3249 11.8789 11.3151L11.6772 11.1973C11.4773 11.0911 11.2583 11.0277 11.0335 11.0109C11.0095 11.0132 10.9855 11.0062 10.9663 10.9912C10.9375 10.9618 10.9663 10.9127 11.0047 10.9029C11.115 10.8928 11.2243 10.8731 11.3313 10.844L11.5331 10.7852C11.5715 10.7753 11.5907 10.8048 11.6099 10.8244L12.5898 11.9432C12.6475 12.0119 12.7051 12.0806 12.7723 12.1493C12.7857 12.1594 12.7962 12.1728 12.8029 12.1883C12.8097 12.2038 12.8124 12.2208 12.8108 12.2376V12.2573C12.8012 12.2671 12.8012 12.2867 12.7915 12.3063V12.3161C12.7723 12.3358 12.7915 12.3652 12.7723 12.3848V12.4045C12.7531 12.4241 12.7723 12.4634 12.7531 12.483V12.5026C12.7339 12.5321 12.7531 12.5713 12.7339 12.6106V12.6694C12.7147 12.6891 12.7339 12.7381 12.6859 12.7381C12.6378 12.7381 12.6475 12.6989 12.6475 12.6694C12.649 12.6493 12.6457 12.6291 12.6378 12.6106V12.5713C12.6186 12.5419 12.6475 12.5026 12.6186 12.4634C12.6186 12.4634 12.609 12.4535 12.6186 12.4535C12.609 12.4339 12.6186 12.4045 12.5994 12.3848C12.598 12.3836 12.5969 12.3821 12.5961 12.3804C12.5953 12.3788 12.5949 12.3769 12.5949 12.375C12.5949 12.3732 12.5953 12.3713 12.5961 12.3696C12.5969 12.3679 12.598 12.3664 12.5994 12.3652C12.5792 12.3456 12.5994 12.3161 12.5792 12.2965C12.5792 12.2965 12.5696 12.2867 12.5792 12.2867C12.5696 12.2671 12.5792 12.2474 12.56 12.2376C12.56 12.2376 12.5504 12.2278 12.56 12.2278C12.5504 12.2082 12.56 12.1886 12.5408 12.1787C12.5312 12.1689 12.5312 12.1493 12.5216 12.1395C12.512 12.1297 12.512 12.1297 12.5216 12.1297C12.512 12.11 12.5216 12.0904 12.5024 12.0806C12.4928 12.0708 12.4928 12.0512 12.4832 12.0414C12.4736 12.0315 12.4736 12.0119 12.464 12.0021C12.4544 11.9923 12.4544 11.9727 12.4448 11.9628C12.4351 11.953 12.4448 11.9334 12.4255 11.9236C12.4251 11.9185 12.4229 11.9138 12.4194 11.9102C12.4159 11.9066 12.4113 11.9044 12.4063 11.904V11.904C12.3967 11.8941 12.3967 11.8745 12.3871 11.8647C12.3867 11.8596 12.3845 11.8549 12.381 11.8513C12.3775 11.8477 12.3728 11.8455 12.3679 11.8451C12.3583 11.8353 12.3583 11.8156 12.3487 11.8058C12.3483 11.8008 12.3461 11.796 12.3426 11.7924C12.3391 11.7888 12.3344 11.7866 12.3295 11.7862V11.7862C12.3304 11.7764 12.3304 11.7666 12.3208 11.7666Z" fill="#F47A31"/>
<path d="M12.83 12.2476C12.8204 12.228 12.8012 12.2083 12.7916 12.1887C12.6283 12.0121 12.465 11.8354 12.3113 11.6489C12.1575 11.4625 11.975 11.2662 11.8021 11.0699C11.7266 10.9928 11.656 10.9108 11.5908 10.8246C11.5812 10.8049 11.5619 10.8049 11.5427 10.7853C11.5943 10.7533 11.649 10.727 11.706 10.7068C11.7933 10.788 11.8737 10.8766 11.9462 10.9718C12.0231 11.0601 12.1095 11.1484 12.1768 11.2367C12.2632 11.3447 12.3593 11.4428 12.4554 11.541C12.5898 11.6882 12.7147 11.8452 12.8396 11.9924C12.8588 12.0121 12.8876 12.0317 12.9069 12.0513C12.8888 12.1196 12.863 12.1854 12.83 12.2476V12.2476Z" fill="#F47A31"/>
<path d="M12.6571 12.6008C12.6859 12.6205 12.6763 12.6499 12.6763 12.6695C12.6763 12.6892 12.6763 12.7088 12.6955 12.7088C12.7147 12.7088 12.7243 12.699 12.7339 12.6793C12.7344 12.6743 12.7365 12.6695 12.74 12.666C12.7436 12.6624 12.7482 12.6602 12.7531 12.6597C12.7531 12.6892 12.7628 12.7088 12.7435 12.7284C12.7363 12.7332 12.7279 12.736 12.7192 12.7365C12.7106 12.7369 12.7019 12.7351 12.6942 12.7311C12.6864 12.7272 12.6798 12.7212 12.675 12.7139C12.6702 12.7065 12.6673 12.698 12.6667 12.6892C12.6576 12.6607 12.6543 12.6306 12.6571 12.6008V12.6008Z" fill="#F47A31"/>
<path d="M8.88234 10.1472C8.88234 10.1963 8.9021 10.2454 8.86258 10.2944C8.85444 10.2445 8.86132 10.1933 8.88234 10.1472V10.1472Z" fill="#F37330"/>
<path d="M8.86265 11.0796C8.90218 11.1188 8.87254 11.1679 8.88242 11.2072C8.86153 11.1681 8.85457 11.1231 8.86265 11.0796Z" fill="#F36F2F"/>
<path d="M13.0029 7.90969C13.0414 7.90969 13.0798 7.89006 13.1086 7.92932C13.0723 7.93317 13.0356 7.92636 13.0029 7.90969Z" fill="#F69137"/>
<path d="M12.7534 12.6106C12.7534 12.5714 12.7336 12.5321 12.7731 12.5027C12.777 12.5398 12.7701 12.5773 12.7534 12.6106Z" fill="#F47A31"/>
<path d="M12.6379 12.4634C12.6676 12.4928 12.6577 12.5321 12.6577 12.5713C12.6281 12.5419 12.6379 12.5026 12.6379 12.4634Z" fill="#F47A31"/>
<path d="M13.1375 7.9293C13.1663 7.9293 13.1951 7.91949 13.2239 7.94893C13.1938 7.95189 13.1635 7.94502 13.1375 7.9293Z" fill="#F69137"/>
<path d="M12.0231 11.4429C12.0367 11.4432 12.0498 11.4483 12.0602 11.4572C12.0707 11.4661 12.0779 11.4783 12.0807 11.4919C12.0519 11.4821 12.0423 11.4625 12.0231 11.4429Z" fill="#F47E31"/>
<path d="M14.7129 8.8125C14.7417 8.82231 14.7513 8.84194 14.7609 8.87138C14.7495 8.86536 14.7393 8.85705 14.731 8.84693C14.7228 8.83681 14.7166 8.8251 14.7129 8.8125Z" fill="#F69338"/>
<path d="M8.90154 10.0295C8.90154 10.059 8.91142 10.0884 8.88178 10.1179C8.8788 10.0871 8.88572 10.0562 8.90154 10.0295Z" fill="#F37330"/>
<path d="M13.1669 12.4832V12.5715C13.1274 12.542 13.1373 12.5126 13.1669 12.4832Z" fill="#F47E31"/>
<path d="M8.90094 11.3643C8.93059 11.3937 8.92071 11.4231 8.92071 11.4526C8.90488 11.426 8.89796 11.395 8.90094 11.3643V11.3643Z" fill="#F26B2D"/>
<path d="M12.7723 12.4831C12.7723 12.4536 12.7625 12.4242 12.7921 12.4045C12.7962 12.4323 12.7891 12.4605 12.7723 12.4831Z" fill="#F47A31"/>
<path d="M12.196 11.5999C12.2249 11.5999 12.2345 11.6293 12.2441 11.6587C12.2153 11.6489 12.2057 11.6293 12.196 11.5999Z" fill="#F47E31"/>
<path d="M12.0231 7.98821C12.0306 7.98074 12.0397 7.97509 12.0497 7.97169C12.0597 7.9683 12.0703 7.96723 12.0807 7.96859C12.0711 7.98821 12.0519 7.98821 12.0231 7.98821Z" fill="#F58B35"/>
<path d="M9.03596 9.45044C9.03596 9.47007 9.04584 9.49951 9.0162 9.50932C9.01484 9.49866 9.01591 9.48784 9.01933 9.47765C9.02275 9.46745 9.02843 9.45815 9.03596 9.45044V9.45044Z" fill="#F37630"/>
<path d="M8.92012 11.4819C8.92839 11.4912 8.93446 11.5022 8.93788 11.514C8.9413 11.5259 8.94198 11.5384 8.93988 11.5506C8.92483 11.531 8.91778 11.5065 8.92012 11.4819V11.4819Z" fill="#F26B2D"/>
<path d="M9.0168 9.50928C9.0168 9.52891 9.0168 9.55835 8.99703 9.56816C8.99567 9.5575 8.99674 9.54668 9.00016 9.53648C9.00358 9.52629 9.00927 9.51699 9.0168 9.50928Z" fill="#F37630"/>
<path d="M13.6375 13.8472C13.6375 13.8668 13.6474 13.8962 13.6178 13.9159C13.6157 13.9037 13.6163 13.8912 13.6198 13.8793C13.6232 13.8674 13.6293 13.8564 13.6375 13.8472V13.8472Z" fill="#F47A31"/>
<path d="M8.93943 11.5605C8.96907 11.5802 8.95919 11.5998 8.95919 11.6292C8.95092 11.62 8.94485 11.609 8.94143 11.5971C8.93801 11.5852 8.93732 11.5727 8.93943 11.5605V11.5605Z" fill="#F26B2D"/>
<path d="M12.6187 12.385C12.627 12.3943 12.6331 12.4052 12.6365 12.4171C12.6399 12.429 12.6406 12.4415 12.6385 12.4537C12.6288 12.4454 12.6217 12.4345 12.6182 12.4223C12.6147 12.4101 12.6149 12.3971 12.6187 12.385V12.385Z" fill="#F47A31"/>
<path d="M8.95859 11.6392C8.98823 11.6588 8.97835 11.6784 8.97835 11.7079C8.97008 11.6986 8.96401 11.6876 8.96059 11.6757C8.95717 11.6639 8.95649 11.6514 8.95859 11.6392V11.6392Z" fill="#F26B2D"/>
<path d="M12.7916 12.3849C12.7916 12.3652 12.7817 12.3358 12.8114 12.3162C12.8114 12.3456 12.8114 12.375 12.7916 12.3849Z" fill="#F47A31"/>
<path d="M12.5898 12.3064C12.6195 12.326 12.6096 12.3457 12.6096 12.3751C12.5997 12.3533 12.5931 12.3301 12.5898 12.3064V12.3064Z" fill="#F47A31"/>
<path d="M9.09304 12.0806C9.12269 12.0904 9.11281 12.1198 9.11281 12.1395C9.09884 12.1231 9.09176 12.102 9.09304 12.0806V12.0806Z" fill="#F26B2D"/>
<path d="M8.97788 11.7175C8.98615 11.7268 8.99222 11.7377 8.99564 11.7496C8.99906 11.7615 8.99975 11.774 8.99764 11.7862C8.98937 11.777 8.9833 11.766 8.97988 11.7541C8.97646 11.7422 8.97577 11.7297 8.97788 11.7175V11.7175Z" fill="#F26B2D"/>
<path d="M12.4746 12.0022C12.4944 12.012 12.4944 12.0218 12.4944 12.0415C12.4883 12.0368 12.4834 12.0308 12.48 12.024C12.4766 12.0173 12.4748 12.0098 12.4746 12.0022V12.0022Z" fill="#F47A31"/>
<path d="M10.4668 14.4556C10.4866 14.4654 10.4866 14.4752 10.4866 14.4948C10.4762 14.484 10.4693 14.4703 10.4668 14.4556Z" fill="#F2682D"/>
<path d="M13.5793 13.2681C13.5862 13.2719 13.5917 13.2777 13.5953 13.2847C13.5988 13.2917 13.6001 13.2996 13.5991 13.3073C13.5793 13.2975 13.5793 13.2877 13.5793 13.2681Z" fill="#F47E31"/>
<path d="M8.99695 11.8059H9.01671V11.855C9.00752 11.8398 9.00085 11.8232 8.99695 11.8059Z" fill="#F26B2D"/>
<path d="M11.9078 11.3447C11.9271 11.3447 11.9367 11.3545 11.9463 11.3742C11.9318 11.3668 11.9188 11.3568 11.9078 11.3447Z" fill="#F47E31"/>
<path d="M12.3593 11.8059C12.379 11.8157 12.379 11.8255 12.379 11.8452C12.3686 11.8343 12.3617 11.8207 12.3593 11.8059V11.8059Z" fill="#F47E31"/>
<path d="M11.3794 8.25307C11.389 8.23345 11.3986 8.22363 11.4178 8.22363C11.4082 8.24326 11.3986 8.25307 11.3794 8.25307Z" fill="#F58734"/>
<path d="M9.01611 11.8647C9.03588 11.8746 9.03588 11.8942 9.03588 11.9138C9.02599 11.8942 9.01611 11.8844 9.01611 11.8647Z" fill="#F26B2D"/>
<path d="M12.3977 11.8647C12.4175 11.8746 12.4175 11.8844 12.4175 11.904C12.4114 11.8993 12.4065 11.8934 12.4031 11.8866C12.3997 11.8798 12.3979 11.8723 12.3977 11.8647V11.8647Z" fill="#F47E31"/>
<path d="M9.59336 8.35132C9.59336 8.37095 9.58348 8.38076 9.56372 8.39058C9.56372 8.37095 9.5736 8.36113 9.59336 8.35132Z" fill="#F47E31"/>
<path d="M9.0354 11.9236C9.05516 11.9334 9.05516 11.953 9.05516 11.9727C9.04277 11.9592 9.03574 11.9418 9.0354 11.9236V11.9236Z" fill="#F26B2D"/>
<path d="M12.4362 11.9236C12.4559 11.9334 12.4559 11.9432 12.4559 11.9628C12.4362 11.953 12.4362 11.9432 12.4362 11.9236Z" fill="#F47A31"/>
<path d="M14.2422 8.39062C14.2614 8.39062 14.271 8.39062 14.2806 8.42007C14.2662 8.41273 14.2531 8.40275 14.2422 8.39062V8.39062Z" fill="#F69338"/>
<path d="M14.3191 8.44946C14.3383 8.44946 14.3479 8.45928 14.3575 8.4789C14.3479 8.46909 14.3287 8.46909 14.3191 8.44946Z" fill="#F69338"/>
<path d="M12.4553 11.9629C12.4751 11.9727 12.4751 11.9825 12.4751 12.0021C12.4553 11.9923 12.4553 11.9825 12.4553 11.9629Z" fill="#F47A31"/>
<path d="M9.05457 11.9824C9.07433 11.9922 9.07433 12.0119 9.07433 12.0315C9.06193 12.0181 9.0549 12.0006 9.05457 11.9824V11.9824Z" fill="#F26B2D"/>
<path d="M14.4438 8.54761C14.4631 8.54761 14.4727 8.55742 14.4823 8.57705C14.4631 8.56724 14.4535 8.56724 14.4438 8.54761Z" fill="#F69338"/>
<path d="M9.08359 12.0415C9.09044 12.0453 9.09599 12.0511 9.09951 12.0581C9.10303 12.0651 9.10437 12.073 9.10335 12.0808C9.08359 12.0709 9.07371 12.0611 9.08359 12.0415Z" fill="#F26B2D"/>
<path d="M12.4938 12.0415C12.5135 12.0513 12.5135 12.0611 12.5135 12.0808C12.5075 12.0761 12.5026 12.0701 12.4992 12.0633C12.4958 12.0566 12.4939 12.0491 12.4938 12.0415V12.0415Z" fill="#F47A31"/>
<path d="M9.27611 8.87158C9.27611 8.89121 9.27611 8.90102 9.25635 8.91084C9.25635 8.89121 9.25635 8.8814 9.27611 8.87158Z" fill="#F47A31"/>
<path d="M12.5129 12.0806C12.5327 12.0904 12.5327 12.11 12.5327 12.1296C12.5203 12.1162 12.5133 12.0988 12.5129 12.0806Z" fill="#F47A31"/>
<path d="M9.12192 12.1396C9.12877 12.1435 9.13432 12.1493 9.13784 12.1563C9.14136 12.1633 9.1427 12.1712 9.14168 12.1789C9.12192 12.1789 9.11204 12.1593 9.12192 12.1396Z" fill="#F26B2D"/>
<path d="M12.542 12.1396C12.5617 12.1495 12.5617 12.1593 12.5617 12.1789C12.542 12.1789 12.5321 12.1593 12.542 12.1396Z" fill="#F47A31"/>
<path d="M9.13147 12.1887C9.15123 12.1985 9.15123 12.2182 9.15123 12.2378C9.14205 12.2226 9.13537 12.206 9.13147 12.1887V12.1887Z" fill="#F26B2D"/>
<path d="M12.5514 12.1787C12.5712 12.1885 12.5712 12.2082 12.5712 12.2278C12.5588 12.2144 12.5517 12.1969 12.5514 12.1787V12.1787Z" fill="#F47A31"/>
<path d="M12.5707 12.2476C12.5904 12.2574 12.5904 12.277 12.5904 12.2966C12.5813 12.2814 12.5746 12.2649 12.5707 12.2476Z" fill="#F47A31"/>
<path d="M12.8108 12.3162C12.8108 12.2965 12.8108 12.2769 12.8306 12.2671C12.8318 12.2763 12.8306 12.2856 12.8271 12.2942C12.8237 12.3028 12.818 12.3103 12.8108 12.3162V12.3162Z" fill="#F47A31"/>
<path d="M9.25695 8.91064C9.25695 8.93027 9.25695 8.94009 9.23718 8.9499C9.23718 8.93027 9.23718 8.92046 9.25695 8.91064Z" fill="#F47A31"/>
<path d="M14.809 8.93042C14.8287 8.93042 14.8287 8.95005 14.8386 8.96968C14.8188 8.95986 14.809 8.95005 14.809 8.93042Z" fill="#F69338"/>
<path d="M14.8666 9.00879C14.8863 9.0186 14.8863 9.02842 14.8863 9.04804C14.8803 9.04337 14.8754 9.03743 14.872 9.03063C14.8686 9.02384 14.8667 9.01638 14.8666 9.00879V9.00879Z" fill="#F69338"/>
<path d="M14.9146 9.06787C14.9343 9.07769 14.9343 9.0875 14.9343 9.10713C14.9146 9.09731 14.9146 9.0875 14.9146 9.06787Z" fill="#F69338"/>
<path d="M13.1764 12.4438C13.1764 12.4635 13.1764 12.4831 13.1566 12.4831C13.1665 12.4635 13.1665 12.4537 13.1764 12.4438Z" fill="#F47E31"/>
<path d="M14.9531 9.13647C14.9729 9.14629 14.9729 9.1561 14.9729 9.17573C14.966 9.17189 14.9605 9.1661 14.9569 9.1591C14.9534 9.15211 14.9521 9.14423 14.9531 9.13647V9.13647Z" fill="#F69338"/>
<path d="M14.9915 9.19531C15.0113 9.20513 15.0113 9.21494 15.0113 9.23457C15.0044 9.23072 14.9989 9.22493 14.9954 9.21794C14.9919 9.21095 14.9905 9.20307 14.9915 9.19531V9.19531Z" fill="#F69338"/>
<path d="M15.0107 9.23462C15.0305 9.24443 15.0305 9.25425 15.0305 9.27388C15.0201 9.26305 15.0132 9.24938 15.0107 9.23462V9.23462Z" fill="#F69338"/>
<path d="M15.0492 9.29346C15.069 9.30327 15.069 9.31308 15.069 9.33271C15.0492 9.3229 15.0492 9.31308 15.0492 9.29346Z" fill="#F69338"/>
<path d="M13.1663 12.5615C13.186 12.5713 13.186 12.5812 13.186 12.6008C13.1663 12.591 13.1663 12.5812 13.1663 12.5615Z" fill="#F47E31"/>
<path d="M15.0684 9.33276C15.0881 9.34258 15.0881 9.35239 15.0881 9.37202C15.0684 9.3622 15.0684 9.35239 15.0684 9.33276Z" fill="#F69338"/>
<path d="M13.2047 12.6304C13.2244 12.6402 13.2244 12.65 13.2244 12.6696C13.2176 12.6658 13.212 12.66 13.2085 12.653C13.205 12.646 13.2037 12.6381 13.2047 12.6304V12.6304Z" fill="#F47E31"/>
<path d="M9.05516 9.3916C9.05516 9.41123 9.05516 9.42104 9.0354 9.43086C9.03555 9.42327 9.0374 9.4158 9.04082 9.40901C9.04423 9.40222 9.04914 9.39627 9.05516 9.3916V9.3916Z" fill="#F37630"/>
<path d="M13.071 14.7991C13.071 14.8187 13.0611 14.8285 13.0414 14.8383C13.0414 14.8187 13.0513 14.7991 13.071 14.7991Z" fill="#F37330"/>
<path d="M13.2431 12.6892C13.2629 12.699 13.2629 12.7088 13.2629 12.7285C13.256 12.7246 13.2505 12.7188 13.247 12.7118C13.2434 12.7048 13.2421 12.697 13.2431 12.6892V12.6892Z" fill="#F47E31"/>
<path d="M10.6686 14.7698C10.6883 14.7796 10.6883 14.7894 10.6883 14.809C10.6823 14.8044 10.6774 14.7984 10.674 14.7916C10.6706 14.7848 10.6687 14.7774 10.6686 14.7698V14.7698Z" fill="#F2682D"/>
<path d="M10.6013 14.6716C10.6211 14.6814 10.6211 14.6913 10.6211 14.7109C10.6112 14.7011 10.6112 14.6913 10.6013 14.6716Z" fill="#F2682D"/>
<path d="M13.3008 12.7874C13.3205 12.7972 13.3205 12.807 13.3205 12.8266C13.3145 12.8219 13.3096 12.816 13.3062 12.8092C13.3028 12.8024 13.3009 12.7949 13.3008 12.7874V12.7874Z" fill="#F47E31"/>
<path d="M10.5725 14.6128C10.5923 14.6226 10.5923 14.6324 10.5923 14.652C10.5725 14.6422 10.5725 14.6324 10.5725 14.6128Z" fill="#F2682D"/>
<path d="M13.3391 12.8462C13.3589 12.856 13.3589 12.8658 13.3589 12.8854C13.3528 12.8808 13.3479 12.8748 13.3445 12.868C13.3411 12.8612 13.3393 12.8538 13.3391 12.8462V12.8462Z" fill="#F47E31"/>
<path d="M10.5341 14.5537C10.5538 14.5635 10.5538 14.5733 10.5538 14.593C10.5341 14.5832 10.5341 14.5733 10.5341 14.5537Z" fill="#F2682D"/>
<path d="M10.5052 14.5146C10.525 14.5245 10.5349 14.5343 10.525 14.5539C10.519 14.5492 10.5141 14.5433 10.5107 14.5365C10.5072 14.5297 10.5054 14.5222 10.5052 14.5146V14.5146Z" fill="#F2682D"/>
<path d="M13.3969 12.9443C13.4166 12.9541 13.4166 12.964 13.4166 12.9836C13.4106 12.9789 13.4057 12.973 13.4023 12.9662C13.3988 12.9594 13.397 12.9519 13.3969 12.9443V12.9443Z" fill="#F47E31"/>
<path d="M10.4283 14.3967C10.4481 14.4065 10.4481 14.4164 10.4481 14.436C10.4377 14.4252 10.4308 14.4115 10.4283 14.3967V14.3967Z" fill="#F2682D"/>
<path d="M13.4352 13.0032C13.4549 13.013 13.4549 13.0228 13.4549 13.0424C13.4451 13.0424 13.4352 13.0228 13.4352 13.0032Z" fill="#F47E31"/>
<path d="M10.3707 14.2888C10.3905 14.2986 10.3905 14.3084 10.3905 14.3281C10.3806 14.3281 10.3707 14.3084 10.3707 14.2888Z" fill="#F2682D"/>
<path d="M10.3323 14.23C10.352 14.2398 10.352 14.2496 10.352 14.2692C10.346 14.2646 10.3411 14.2586 10.3377 14.2518C10.3343 14.245 10.3324 14.2376 10.3323 14.23V14.23Z" fill="#F2682D"/>
<path d="M13.4928 13.1111C13.5126 13.1209 13.5126 13.1307 13.5126 13.1503C13.5022 13.1395 13.4953 13.1258 13.4928 13.1111V13.1111Z" fill="#F47E31"/>
<path d="M13.5217 13.1504C13.5316 13.1602 13.5415 13.17 13.5415 13.1798C13.5217 13.17 13.5217 13.1602 13.5217 13.1504Z" fill="#F47E31"/>
<path d="M13.5409 13.1897C13.5508 13.1995 13.5508 13.2093 13.5607 13.2191C13.5409 13.2093 13.5409 13.1995 13.5409 13.1897Z" fill="#F47E31"/>
<path d="M13.5601 13.229C13.5699 13.2388 13.5699 13.2486 13.5798 13.2584C13.5601 13.2486 13.5601 13.2388 13.5601 13.229Z" fill="#F47E31"/>
<path d="M12.2921 11.7273C12.302 11.7371 12.3119 11.7371 12.3119 11.7567C12.302 11.7469 12.302 11.7371 12.2921 11.7273Z" fill="#F47E31"/>
<path d="M13.3008 11.5213L13.3205 11.5017C13.3201 11.5068 13.3179 11.5115 13.3143 11.5151C13.3106 11.5187 13.3059 11.5209 13.3008 11.5213V11.5213Z" fill="#F58433"/>
<path d="M12.1 11.5017C12.1051 11.5022 12.1098 11.5044 12.1135 11.508C12.1171 11.5115 12.1193 11.5163 12.1197 11.5213C12.1146 11.5209 12.1099 11.5187 12.1063 11.5151C12.1026 11.5115 12.1004 11.5068 12.1 11.5017Z" fill="#F47E31"/>
<path d="M13.3199 11.5016L13.3397 11.4819C13.3397 11.4917 13.3298 11.4917 13.3199 11.5016Z" fill="#F58433"/>
<path d="M10.3131 14.2104C10.323 14.2203 10.323 14.2301 10.3329 14.2301C10.3278 14.2296 10.323 14.2274 10.3194 14.2238C10.3158 14.2202 10.3136 14.2155 10.3131 14.2104Z" fill="#F2682D"/>
<path d="M13.4833 13.0916L13.503 13.1112C13.4833 13.1014 13.4833 13.1014 13.4833 13.0916Z" fill="#F47E31"/>
<path d="M10.3516 14.2693C10.3614 14.2791 10.3713 14.2791 10.3713 14.2889C10.3662 14.2885 10.3615 14.2863 10.3578 14.2827C10.3542 14.2791 10.352 14.2743 10.3516 14.2693V14.2693Z" fill="#F2682D"/>
<path d="M13.4545 13.0425C13.4644 13.0523 13.4742 13.0621 13.4742 13.0719C13.4742 13.0817 13.4644 13.0621 13.4545 13.0425Z" fill="#F47E31"/>
<path d="M10.39 14.3281C10.3999 14.3379 10.4098 14.3478 10.4098 14.3576C10.4098 14.3674 10.39 14.3478 10.39 14.3281Z" fill="#F2682D"/>
<path d="M12.0807 11.4819C12.0858 11.4824 12.0906 11.4846 12.0942 11.4882C12.0978 11.4918 12.1 11.4965 12.1005 11.5016C12.0954 11.5011 12.0906 11.4989 12.087 11.4953C12.0834 11.4917 12.0811 11.487 12.0807 11.4819V11.4819Z" fill="#F47E31"/>
<path d="M10.4187 14.3674L10.4385 14.3871C10.4187 14.3871 10.4187 14.3871 10.4187 14.3674Z" fill="#F2682D"/>
<path d="M13.416 12.9836C13.4259 12.9935 13.4259 13.0033 13.4358 13.0033C13.4259 13.0033 13.4259 12.9935 13.416 12.9836Z" fill="#F47E31"/>
<path d="M10.4572 14.436C10.467 14.4458 10.467 14.4557 10.4769 14.4557C10.4572 14.4557 10.4572 14.4458 10.4572 14.436Z" fill="#F2682D"/>
<path d="M12.3209 11.7666L12.3407 11.7862C12.3308 11.7764 12.3209 11.7764 12.3209 11.7666Z" fill="#F47E31"/>
<path d="M10.4956 14.4949C10.5007 14.4953 10.5055 14.4975 10.5091 14.5011C10.5127 14.5047 10.5149 14.5094 10.5154 14.5145C10.4956 14.5145 10.4956 14.5047 10.4956 14.4949Z" fill="#F2682D"/>
<path d="M13.3872 12.9248L13.407 12.9444C13.3872 12.9444 13.3872 12.9346 13.3872 12.9248Z" fill="#F47E31"/>
<path d="M13.3584 12.8855C13.3683 12.8953 13.3782 12.9051 13.3782 12.9149C13.3683 12.9051 13.3584 12.8953 13.3584 12.8855Z" fill="#F47E31"/>
<path d="M10.5532 14.593C10.5631 14.6028 10.5631 14.6126 10.573 14.6126C10.5679 14.6122 10.5631 14.61 10.5595 14.6064C10.5559 14.6028 10.5537 14.5981 10.5532 14.593Z" fill="#F2682D"/>
<path d="M13.3199 12.8267C13.3298 12.8365 13.3298 12.8463 13.3397 12.8463C13.3346 12.8458 13.3298 12.8436 13.3262 12.84C13.3226 12.8365 13.3204 12.8317 13.3199 12.8267Z" fill="#F47E31"/>
<path d="M10.5917 14.6519C10.6016 14.6617 10.6114 14.6617 10.6114 14.6715C10.5917 14.6715 10.5917 14.6617 10.5917 14.6519Z" fill="#F2682D"/>
<path d="M13.2815 12.7676L13.3013 12.7872C13.2962 12.7868 13.2914 12.7846 13.2878 12.781C13.2842 12.7774 13.2819 12.7726 13.2815 12.7676Z" fill="#F47E31"/>
<path d="M10.6301 14.7109C10.64 14.7208 10.6499 14.7306 10.6499 14.7404C10.6499 14.7502 10.6301 14.7306 10.6301 14.7109Z" fill="#F2682D"/>
<path d="M10.6493 14.75L10.6691 14.7696C10.6592 14.7696 10.6493 14.7696 10.6493 14.75Z" fill="#F2682D"/>
<path d="M13.0996 14.75C13.0991 14.7551 13.0969 14.7598 13.0933 14.7634C13.0897 14.767 13.0849 14.7692 13.0798 14.7696C13.0897 14.7598 13.0897 14.75 13.0996 14.75Z" fill="#F37330"/>
<path d="M13.3391 11.482L13.3589 11.4624C13.3584 11.4675 13.3562 11.4722 13.3526 11.4758C13.349 11.4794 13.3442 11.4816 13.3391 11.482Z" fill="#F58433"/>
<path d="M13.2623 12.7285C13.2722 12.7383 13.2821 12.7481 13.2821 12.758C13.2722 12.7481 13.2623 12.7383 13.2623 12.7285Z" fill="#F47E31"/>
<path d="M13.0803 14.7698C13.0704 14.7796 13.0704 14.7894 13.0605 14.7894L13.0803 14.7698Z" fill="#F37330"/>
<path d="M13.2239 12.6694C13.2338 12.6792 13.2338 12.6891 13.2436 12.6891C13.2385 12.6886 13.2338 12.6864 13.2302 12.6828C13.2265 12.6792 13.2243 12.6745 13.2239 12.6694Z" fill="#F47E31"/>
<path d="M12.1191 11.5212C12.1242 11.5217 12.129 11.5239 12.1326 11.5275C12.1362 11.5311 12.1385 11.5358 12.1389 11.5409C12.1338 11.5404 12.129 11.5382 12.1254 11.5346C12.1218 11.531 12.1196 11.5263 12.1191 11.5212Z" fill="#F47E31"/>
<path d="M13.1855 12.6008C13.1954 12.6106 13.1954 12.6205 13.2053 12.6205C13.1954 12.6205 13.1855 12.6205 13.1855 12.6008Z" fill="#F47E31"/>
<path d="M13.2815 11.5409L13.3013 11.5212C13.3008 11.5263 13.2986 11.531 13.295 11.5346C13.2914 11.5382 13.2866 11.5404 13.2815 11.5409V11.5409Z" fill="#F58433"/>
<path d="M15.0299 9.27393C15.0398 9.28374 15.0398 9.29355 15.0497 9.29355C15.0446 9.29311 15.0398 9.2909 15.0362 9.28731C15.0326 9.28372 15.0304 9.27898 15.0299 9.27393V9.27393Z" fill="#F69338"/>
<path d="M12.1383 11.541C12.1434 11.5415 12.1482 11.5437 12.1518 11.5473C12.1554 11.5508 12.1576 11.5556 12.1581 11.5606C12.1482 11.5606 12.1383 11.5606 12.1383 11.541Z" fill="#F47E31"/>
<path d="M13.2623 11.5606L13.2821 11.541C13.2816 11.5461 13.2794 11.5508 13.2758 11.5544C13.2722 11.558 13.2674 11.5602 13.2623 11.5606Z" fill="#F58433"/>
<path d="M14.9723 9.17578C14.9822 9.1856 14.9822 9.19541 14.9921 9.19541C14.987 9.19497 14.9822 9.19276 14.9786 9.18917C14.975 9.18558 14.9727 9.18084 14.9723 9.17578V9.17578Z" fill="#F69338"/>
<path d="M12.1576 11.5605C12.1627 11.561 12.1675 11.5632 12.1711 11.5668C12.1747 11.5704 12.1769 11.5751 12.1774 11.5802C12.1675 11.5802 12.1576 11.5802 12.1576 11.5605Z" fill="#F47E31"/>
<path d="M14.9338 9.10693C14.9437 9.11675 14.9437 9.12656 14.9536 9.12656C14.9437 9.12656 14.9338 9.12656 14.9338 9.10693Z" fill="#F69338"/>
<path d="M13.243 11.5802L13.2628 11.5605C13.2624 11.5656 13.2601 11.5703 13.2565 11.5739C13.2529 11.5775 13.2481 11.5797 13.243 11.5802V11.5802Z" fill="#F58433"/>
<path d="M14.8954 9.0481C14.9053 9.05791 14.9053 9.06772 14.9151 9.06772C14.9101 9.06728 14.9053 9.06507 14.9017 9.06148C14.8981 9.05789 14.8958 9.05315 14.8954 9.0481V9.0481Z" fill="#F69338"/>
<path d="M12.1768 11.5801C12.1818 11.5805 12.1866 11.5827 12.1902 11.5863C12.1939 11.5899 12.1961 11.5947 12.1965 11.5997C12.1866 11.5997 12.1768 11.5997 12.1768 11.5801Z" fill="#F47E31"/>
<path d="M14.8571 8.98926C14.8621 8.9897 14.8669 8.99191 14.8705 8.9955C14.8741 8.99909 14.8764 9.00383 14.8768 9.00889C14.8571 9.00889 14.8571 8.99907 14.8571 8.98926Z" fill="#F69338"/>
<path d="M14.8378 8.96973L14.8575 8.98936C14.8378 8.98936 14.8378 8.97954 14.8378 8.96973Z" fill="#F69338"/>
<path d="M12.244 11.6587L12.2638 11.6783C12.2587 11.6779 12.2539 11.6757 12.2503 11.6721C12.2467 11.6685 12.2445 11.6637 12.244 11.6587Z" fill="#F47E31"/>
<path d="M14.7898 8.91064C14.7949 8.91109 14.7997 8.9133 14.8033 8.91689C14.8069 8.92048 14.8091 8.92521 14.8096 8.93027C14.8045 8.92983 14.7997 8.92762 14.7961 8.92403C14.7925 8.92044 14.7902 8.9157 14.7898 8.91064V8.91064Z" fill="#F69338"/>
<path d="M12.2632 11.6782L12.2829 11.6979C12.2779 11.6974 12.2731 11.6952 12.2695 11.6916C12.2659 11.688 12.2636 11.6833 12.2632 11.6782V11.6782Z" fill="#F47E31"/>
<path d="M14.7705 8.89111C14.7804 8.90093 14.7804 8.91074 14.7903 8.91074C14.7804 8.91074 14.7804 8.90093 14.7705 8.89111Z" fill="#F69338"/>
<path d="M14.761 8.87158L14.7808 8.89121C14.761 8.89121 14.761 8.8814 14.761 8.87158Z" fill="#F69338"/>
<path d="M12.2825 11.698C12.2876 11.6984 12.2923 11.7007 12.2959 11.7042C12.2996 11.7078 12.3018 11.7126 12.3022 11.7176C12.2825 11.7176 12.2825 11.7176 12.2825 11.698Z" fill="#F47E31"/>
<path d="M13.3584 11.4625L13.3782 11.4429C13.3777 11.4479 13.3755 11.4527 13.3719 11.4563C13.3683 11.4598 13.3635 11.4621 13.3584 11.4625V11.4625Z" fill="#F58433"/>
<path d="M14.6937 8.79297C14.6988 8.79341 14.7036 8.79562 14.7072 8.79921C14.7108 8.8028 14.713 8.80754 14.7135 8.8126C14.7084 8.81215 14.7036 8.80994 14.7 8.80636C14.6964 8.80277 14.6942 8.79803 14.6937 8.79297V8.79297Z" fill="#F69338"/>
<path d="M14.6744 8.77344C14.6795 8.77388 14.6843 8.77609 14.6879 8.77968C14.6915 8.78327 14.6938 8.78801 14.6942 8.79307C14.6891 8.79262 14.6843 8.79041 14.6807 8.78682C14.6771 8.78323 14.6749 8.77849 14.6744 8.77344Z" fill="#F69338"/>
<path d="M10.7262 8.79307L10.746 8.77344C10.746 8.78325 10.7361 8.78325 10.7262 8.79307Z" fill="#F58332"/>
<path d="M14.6553 8.75366C14.6604 8.7541 14.6651 8.75631 14.6688 8.7599C14.6724 8.76349 14.6746 8.76823 14.675 8.77329C14.6699 8.77285 14.6652 8.77064 14.6616 8.76705C14.6579 8.76346 14.6557 8.75872 14.6553 8.75366V8.75366Z" fill="#F69338"/>
<path d="M14.6361 8.73413C14.6412 8.73457 14.646 8.73678 14.6496 8.74037C14.6532 8.74396 14.6554 8.7487 14.6559 8.75376C14.6508 8.75332 14.646 8.75111 14.6424 8.74752C14.6388 8.74393 14.6366 8.73919 14.6361 8.73413V8.73413Z" fill="#F69338"/>
<path d="M14.6168 8.71436L14.6366 8.73398C14.6267 8.72417 14.6168 8.72417 14.6168 8.71436Z" fill="#F69338"/>
<path d="M14.5977 8.69482L14.6174 8.71445C14.6075 8.70464 14.5977 8.70464 14.5977 8.69482Z" fill="#F69338"/>
<path d="M14.5784 8.67529L14.5981 8.69492C14.5882 8.68511 14.5784 8.68511 14.5784 8.67529Z" fill="#F69338"/>
<path d="M14.5592 8.64575L14.579 8.66538C14.5691 8.66538 14.5592 8.66538 14.5592 8.64575Z" fill="#F69338"/>
<path d="M14.54 8.62622C14.5451 8.62666 14.5499 8.62887 14.5535 8.63246C14.5571 8.63605 14.5594 8.64079 14.5598 8.64585C14.5499 8.64585 14.54 8.64585 14.54 8.62622Z" fill="#F69338"/>
<path d="M14.5208 8.60645C14.5258 8.60689 14.5306 8.6091 14.5342 8.61269C14.5378 8.61628 14.5401 8.62102 14.5405 8.62607C14.5306 8.62607 14.5208 8.62607 14.5208 8.60645Z" fill="#F69338"/>
<path d="M14.4919 8.58691C14.497 8.58736 14.5018 8.58957 14.5054 8.59316C14.509 8.59675 14.5113 8.60149 14.5117 8.60654C14.5018 8.60654 14.5018 8.60654 14.4919 8.58691Z" fill="#F69338"/>
<path d="M14.4728 8.56738C14.4779 8.56782 14.4826 8.57003 14.4863 8.57362C14.4899 8.57721 14.4921 8.58195 14.4925 8.58701C14.4827 8.58701 14.4827 8.58701 14.4728 8.56738Z" fill="#F69338"/>
<path d="M11.9462 11.3643C11.9513 11.3647 11.956 11.3669 11.9596 11.3705C11.9633 11.3741 11.9655 11.3788 11.9659 11.3839C11.9608 11.3834 11.9561 11.3812 11.9525 11.3776C11.9488 11.3741 11.9466 11.3693 11.9462 11.3643V11.3643Z" fill="#F47E31"/>
<path d="M14.4247 8.52808L14.4444 8.5477C14.4394 8.54726 14.4346 8.54505 14.431 8.54146C14.4274 8.53787 14.4251 8.53313 14.4247 8.52808V8.52808Z" fill="#F69338"/>
<path d="M14.3959 8.5083L14.4156 8.52793L14.3959 8.5083Z" fill="#F69338"/>
<path d="M14.3767 8.48877C14.3818 8.48921 14.3866 8.49142 14.3902 8.49501C14.3938 8.4986 14.396 8.50334 14.3965 8.5084C14.3866 8.5084 14.3866 8.49858 14.3767 8.48877Z" fill="#F69338"/>
<path d="M14.3574 8.46924C14.3625 8.46968 14.3673 8.47189 14.3709 8.47548C14.3745 8.47907 14.3767 8.48381 14.3772 8.48887C14.3673 8.48887 14.3574 8.48887 14.3574 8.46924Z" fill="#F69338"/>
<path d="M11.8789 11.325C11.8888 11.3348 11.8987 11.3348 11.8987 11.3446C11.8987 11.3348 11.8888 11.3348 11.8789 11.325Z" fill="#F47E31"/>
<path d="M14.2998 8.42993C14.3097 8.43975 14.3196 8.43975 14.3196 8.44956C14.3145 8.44912 14.3097 8.44691 14.3061 8.44332C14.3025 8.43973 14.3002 8.43499 14.2998 8.42993V8.42993Z" fill="#F69338"/>
<path d="M14.2806 8.41016C14.2857 8.4106 14.2905 8.41281 14.2941 8.4164C14.2977 8.41999 14.3 8.42473 14.3004 8.42978C14.2953 8.42934 14.2905 8.42713 14.2869 8.42354C14.2833 8.41995 14.2811 8.41521 14.2806 8.41016V8.41016Z" fill="#F69338"/>
<path d="M13.5126 11.9236C13.5121 11.9286 13.5099 11.9334 13.5063 11.937C13.5027 11.9406 13.4979 11.9428 13.4928 11.9432C13.5027 11.9334 13.5027 11.9236 13.5126 11.9236Z" fill="#F58232"/>
<path d="M12.417 11.9041C12.4269 11.9139 12.4269 11.9237 12.4368 11.9237C12.4317 11.9232 12.4269 11.921 12.4233 11.9174C12.4197 11.9138 12.4174 11.9091 12.417 11.9041V11.9041Z" fill="#F47A31"/>
<path d="M12.3784 11.8452C12.3883 11.855 12.3883 11.8648 12.3982 11.8648C12.3931 11.8644 12.3883 11.8622 12.3847 11.8586C12.3811 11.855 12.3789 11.8503 12.3784 11.8452Z" fill="#F47E31"/>
<path d="M12.0038 11.4231L12.0235 11.4427C12.0137 11.4329 12.0038 11.4329 12.0038 11.4231Z" fill="#F47E31"/>
<path d="M11.9846 11.4036L12.0044 11.4232C11.9945 11.4134 11.9846 11.4134 11.9846 11.4036Z" fill="#F47E31"/>
<path d="M9.93895 7.92944L9.91919 7.94907C9.92907 7.93926 9.92907 7.92944 9.93895 7.92944Z" fill="#F58332"/>
<path d="M12.3401 11.7861C12.35 11.7959 12.35 11.8058 12.3598 11.8058C12.3548 11.8053 12.35 11.8031 12.3464 11.7995C12.3428 11.7959 12.3405 11.7912 12.3401 11.7861V11.7861Z" fill="#F47E31"/>
<path d="M9.95824 7.90967L9.93848 7.9293C9.93892 7.92424 9.94115 7.9195 9.94476 7.91591C9.94838 7.91232 9.95315 7.91011 9.95824 7.90967Z" fill="#F58332"/>
<path d="M9.9774 7.88037L9.95764 7.9L9.9774 7.88037Z" fill="#F58332"/>
<path d="M9.99657 7.8606L9.97681 7.88022L9.99657 7.8606Z" fill="#F58332"/>
<path d="M10.0255 7.84106L10.0057 7.86069C10.0057 7.85088 10.0057 7.85088 10.0255 7.84106Z" fill="#F58332"/>
<path d="M10.0447 7.82129L10.0249 7.84092C10.0249 7.8311 10.0249 7.8311 10.0447 7.82129Z" fill="#F58332"/>
<path d="M10.064 7.80176L10.0442 7.82139C10.0442 7.81157 10.0541 7.81157 10.064 7.80176Z" fill="#F58332"/>
<path d="M11.9655 11.3838C11.9705 11.3842 11.9753 11.3864 11.9789 11.39C11.9825 11.3936 11.9848 11.3984 11.9852 11.4034C11.9801 11.403 11.9754 11.4008 11.9717 11.3972C11.9681 11.3936 11.9659 11.3888 11.9655 11.3838V11.3838Z" fill="#F47E31"/>
<path fill-rule="evenodd" clip-rule="evenodd" d="M60.2476 8.91615C60.2509 9.07017 60.2035 9.22088 60.1129 9.34439C60.0222 9.46791 59.8937 9.55715 59.7475 9.59797C59.5446 9.65994 59.3282 9.65994 59.1253 9.59797C58.9864 9.55874 58.8628 9.47703 58.7711 9.36393C58.6795 9.25083 58.6243 9.11181 58.613 8.96574C58.5967 8.81327 58.6311 8.65964 58.7107 8.52933C58.7902 8.39903 58.9105 8.29954 59.0522 8.24673C59.299 8.14757 59.5738 8.14757 59.8207 8.24673C59.9526 8.29782 60.065 8.39022 60.1418 8.51057C60.2185 8.63092 60.2556 8.77297 60.2476 8.91615ZM47.8535 11.3831C47.8596 11.3707 47.8657 11.3614 47.8718 11.3521C47.8779 11.3428 47.884 11.3335 47.8901 11.3211C48.2804 10.6145 48.9026 10.3417 49.6589 10.3541C50.6958 10.3665 51.3911 11.0608 51.5375 12.1269C51.5615 12.345 51.5738 12.5644 51.5741 12.7839V15.6103C51.5761 15.6255 51.5747 15.6409 51.5699 15.6553C51.5651 15.6698 51.5571 15.683 51.5464 15.6938C51.5358 15.7046 51.5229 15.7127 51.5086 15.7176C51.4944 15.7225 51.4792 15.724 51.4643 15.7219H50.3664C50.2689 15.7219 50.2445 15.6723 50.2445 15.5855V12.9327C50.2465 12.8127 50.2424 12.6927 50.2323 12.5731C50.1713 11.7798 49.5857 11.3707 48.866 11.4698C48.6106 11.497 48.3718 11.6109 48.188 11.7931C48.0043 11.9753 47.8864 12.2152 47.8535 12.474C47.8252 12.6378 47.8088 12.8036 47.8047 12.9698V15.5979C47.8067 15.6131 47.8052 15.6285 47.8004 15.6429C47.7956 15.6574 47.7876 15.6706 47.777 15.6814C47.7664 15.6922 47.7534 15.7003 47.7392 15.7052C47.7249 15.7101 47.7098 15.7116 47.6949 15.7095H46.597C46.5821 15.7116 46.567 15.7101 46.5527 15.7052C46.5385 15.7003 46.5255 15.6922 46.5149 15.6814C46.5043 15.6706 46.4963 15.6574 46.4915 15.6429C46.4866 15.6285 46.4852 15.6131 46.4872 15.5979V8.76736C46.4872 8.68059 46.5116 8.631 46.6092 8.6434H47.7071C47.7925 8.6434 47.8169 8.68058 47.8169 8.75496V11.3335C47.8224 11.3541 47.8355 11.3719 47.8535 11.3831ZM26.7668 11.1734C26.8053 11.1754 26.8423 11.1773 26.8715 11.1476C26.8857 11.126 26.8834 11.1002 26.8814 11.0775C26.8799 11.0611 26.8786 11.0464 26.8837 11.036C26.6519 10.1187 26.0908 9.49882 25.2247 9.15171C24.6377 8.9254 24.0032 8.85707 23.3826 8.95336C22.1749 9.11452 21.321 9.75915 20.8575 10.8996C20.5661 11.6312 20.5023 12.4359 20.6745 13.2054C20.9063 14.3087 21.504 15.1145 22.5531 15.5484C23.174 15.7931 23.8487 15.8617 24.5049 15.7468C25.1027 15.6568 25.6606 15.3884 26.108 14.9757C26.5555 14.563 26.8721 14.0245 27.0179 13.4286C27.0387 13.3604 27.047 13.289 27.0423 13.2178V12.2261C27.0423 12.0153 27.0301 12.0153 26.8349 12.0153H23.834C23.6632 12.0153 23.6632 12.0153 23.6632 12.1889V12.8087C23.6632 12.9947 23.6754 12.9947 23.8462 12.9947H25.6638C25.7417 12.9782 25.8228 12.9869 25.8956 13.0195C25.8976 13.0571 25.8934 13.0948 25.8834 13.131C25.6516 14.0608 24.9197 14.6187 23.9804 14.6063C22.9923 14.5939 22.2603 14.0484 22.0286 13.1434C21.9311 12.7591 21.9062 12.3595 21.9554 11.9658C22.053 11.0608 22.6507 10.193 23.8096 10.1682C24.5049 10.1434 25.0905 10.4038 25.4442 11.0484C25.4632 11.09 25.4947 11.1244 25.5342 11.1467C25.5736 11.169 25.619 11.1779 25.6638 11.1724H26.7373C26.7472 11.1724 26.757 11.1729 26.7668 11.1734ZM45.4744 13.4458C45.4722 13.4179 45.464 13.3908 45.4503 13.3666C45.3323 13.3666 45.2131 13.368 45.0938 13.3694C44.8552 13.3721 44.6167 13.3749 44.389 13.3666C44.3107 13.3575 44.2316 13.3743 44.1635 13.4145C44.0953 13.4547 44.0418 13.5161 44.0108 13.5898C43.6448 14.284 43.0227 14.5815 42.2664 14.5443C41.51 14.5071 40.9855 14.098 40.6927 13.3914C40.5167 12.9128 40.4663 12.3958 40.5463 11.8914C40.5717 11.6226 40.6507 11.362 40.7787 11.1254C40.9066 10.8888 41.0808 10.6812 41.2904 10.5154C42.0102 9.94512 43.474 10.0195 44.0352 11.1724C44.0545 11.2301 44.0932 11.2792 44.1445 11.3109C44.1958 11.3426 44.2564 11.355 44.3158 11.3459H45.3161C45.3298 11.3459 45.3435 11.3472 45.357 11.3484C45.4038 11.3527 45.449 11.3568 45.4869 11.3088C45.387 10.8003 45.1559 10.328 44.8172 9.94019C44.4785 9.55243 44.0444 9.26319 43.5594 9.10214C43.0084 8.92293 42.4246 8.87209 41.8516 8.95338C40.8879 9.07735 40.1194 9.53603 39.6436 10.4038C38.9605 11.6435 38.9605 12.9327 39.5826 14.1972C39.9852 15.0154 40.6683 15.4988 41.5466 15.7096C42.0197 15.8149 42.5083 15.8276 42.9861 15.7468C43.5711 15.6745 44.1209 15.4237 44.563 15.0276C45.005 14.6315 45.3186 14.1086 45.4625 13.5278C45.4724 13.5017 45.4765 13.4737 45.4744 13.4458ZM38.2286 14.5691H35.6547C35.6547 14.5644 35.6529 14.5596 35.6514 14.5556C35.6489 14.549 35.6471 14.5443 35.6547 14.5443L35.6547 14.5443C35.8621 14.3955 36.0694 14.2468 36.2646 14.098C36.919 13.6072 37.474 12.9926 37.8993 12.2881C38.2086 11.7886 38.3578 11.2039 38.3262 10.6145C38.3134 10.2355 38.1825 9.87031 37.9523 9.57175C37.7221 9.27319 37.4045 9.05666 37.0453 8.95339C36.6926 8.85241 36.3245 8.81878 35.9596 8.85421C35.387 8.87704 34.8454 9.12513 34.4494 9.54611C34.0533 9.96709 33.8338 10.528 33.837 11.1104C33.837 11.2592 33.837 11.2716 33.9834 11.2716H34.7032C34.7379 11.2716 34.7736 11.2756 34.8094 11.2796C34.8995 11.2897 34.9906 11.3 35.0691 11.2468C35.1443 11.1959 35.1451 11.1043 35.146 11.0119C35.1464 10.9693 35.1468 10.9264 35.1545 10.8873C35.2643 10.2302 35.6303 9.93272 36.2524 9.98231C36.4089 9.98776 36.5594 10.0453 36.6806 10.1461C36.8018 10.2469 36.8871 10.3853 36.9233 10.5402C36.9864 10.7535 36.9948 10.9796 36.9478 11.1972C36.8638 11.577 36.697 11.9328 36.4598 12.2385C36.1601 12.648 35.8165 13.0222 35.4351 13.3542C34.9692 13.7884 34.4717 14.1862 33.9468 14.5443C33.8876 14.5751 33.8394 14.6239 33.8088 14.6839C33.7781 14.7439 33.7667 14.8121 33.776 14.879C33.7841 15.0099 33.7815 15.1354 33.7788 15.2661C33.7775 15.3335 33.776 15.4024 33.776 15.474V15.4741C33.776 15.58 33.776 15.6327 33.8024 15.6589C33.8285 15.6848 33.8803 15.6848 33.9834 15.6848H38.2896C38.3768 15.6785 38.4195 15.6754 38.4404 15.6524C38.4604 15.6304 38.4604 15.5901 38.4604 15.5112V14.7922C38.4604 14.5691 38.4604 14.5691 38.2286 14.5691ZM65.4442 12.4368H64.8831C64.8445 12.4414 64.8057 12.4313 64.7741 12.4084C64.7426 12.3854 64.7205 12.3514 64.7123 12.3129C64.5781 11.8418 64.1877 11.5195 63.59 11.5195C63.3419 11.5191 63.1002 11.5996 62.9004 11.749C62.7006 11.8985 62.5532 12.1092 62.4799 12.3501C62.3213 12.8286 62.3213 13.3467 62.4799 13.8253C62.7605 14.6311 63.59 14.817 64.1999 14.4947C64.3161 14.4365 64.4193 14.3548 64.5032 14.2546C64.5871 14.1544 64.65 14.0379 64.6879 13.912C64.6914 13.885 64.7003 13.8589 64.714 13.8354C64.7277 13.8119 64.7459 13.7915 64.7675 13.7753C64.7892 13.7591 64.8138 13.7475 64.8399 13.7411C64.8661 13.7348 64.8932 13.7339 64.9197 13.7385C65.1551 13.7467 65.385 13.744 65.6168 13.7413L65.6169 13.7413C65.7334 13.7399 65.8504 13.7385 65.9688 13.7385C66.1396 13.7385 66.1518 13.7633 66.1152 13.9368C65.8834 14.8046 65.371 15.412 64.5171 15.6724C63.904 15.8711 63.2435 15.858 62.6385 15.6352C61.7968 15.3253 61.2966 14.7054 61.1014 13.8377C60.9586 13.2344 60.9882 12.6021 61.1868 12.0154C61.5406 11.0112 62.2725 10.503 63.285 10.3914C63.6733 10.3456 64.0665 10.3751 64.4439 10.4782C65.3222 10.7385 65.8712 11.3459 66.103 12.2385C66.1518 12.4244 66.1396 12.4368 65.9444 12.4368H65.4442ZM60.1011 15.5236V13.0815V10.6021C60.1011 10.4162 60.0889 10.4162 59.9181 10.4162H58.9544C58.747 10.4162 58.747 10.4162 58.747 10.6269V15.5484C58.747 15.7343 58.7592 15.7343 58.93 15.7343H59.8937C59.9968 15.7343 60.0487 15.7343 60.0747 15.7084C60.1011 15.6822 60.1011 15.6296 60.1011 15.5237V15.5236ZM57.8078 12.7467C57.8139 12.8582 57.8139 12.9699 57.8078 13.0814C57.8359 13.4444 57.7816 13.8092 57.6492 14.1475C57.2589 15.1641 56.4903 15.6723 55.4412 15.7839C55.0515 15.8214 54.6583 15.7835 54.2824 15.6723C53.7874 15.5285 53.3488 15.2315 53.0274 14.8228C52.7061 14.414 52.5179 13.9137 52.4891 13.3913C52.4567 13.0131 52.4855 12.632 52.5745 12.2632C52.8063 11.3707 53.3552 10.7632 54.2336 10.4905C54.8623 10.2856 55.5403 10.2987 56.161 10.5277C57.1735 10.8996 57.6858 11.6806 57.8078 12.7467ZM55.899 14.4013C56.1186 14.2451 56.2831 14.0215 56.3684 13.7632C56.447 13.5236 56.4841 13.272 56.4781 13.0194C56.4793 12.8037 56.4421 12.5895 56.3684 12.3872C56.28 12.1344 56.1161 11.916 55.8996 11.7626C55.683 11.6092 55.4246 11.5285 55.1607 11.5318C54.8966 11.5193 54.6356 11.5933 54.416 11.7428C54.1964 11.8923 54.0298 12.1095 53.9408 12.3624C53.7822 12.824 53.7822 13.3265 53.9408 13.788C54.0268 14.0414 54.1905 14.26 54.4079 14.4118C54.6253 14.5635 54.8849 14.6404 55.1485 14.631C55.4164 14.638 55.6795 14.5575 55.899 14.4013ZM33.0807 13.0938C33.0851 12.8732 33.0647 12.6527 33.0197 12.4368C32.8245 11.5319 32.3243 10.8996 31.4704 10.5649C31.0211 10.4025 30.542 10.3432 30.0675 10.3914C29.5599 10.4207 29.0738 10.6094 28.6761 10.9313C28.2785 11.2533 27.9889 11.6926 27.8473 12.1889C27.7374 12.5877 27.7002 13.0037 27.7376 13.4162C27.7659 13.9456 27.9581 14.4524 28.2867 14.8642C28.6153 15.2761 29.0635 15.5719 29.5674 15.7095C30.1099 15.8645 30.6839 15.8645 31.2264 15.7095C31.5881 15.6183 31.9235 15.4416 32.2054 15.1939C32.4873 14.9462 32.7078 14.6344 32.8489 14.2839C33.0212 13.9126 33.1008 13.5039 33.0807 13.0938ZM31.629 13.7633C31.5376 14.0166 31.3722 14.2355 31.1549 14.3906C30.9376 14.5457 30.6789 14.6295 30.4133 14.6309C30.1478 14.6322 29.8882 14.551 29.6694 14.3982C29.4506 14.2453 29.2831 14.0281 29.1892 13.7757C29.0428 13.329 29.0428 12.8462 29.1892 12.3996C29.2746 12.1424 29.4395 11.9201 29.6593 11.766C29.8792 11.6118 30.1422 11.534 30.4091 11.5443C30.6731 11.541 30.9314 11.6217 31.148 11.775C31.3646 11.9284 31.5285 12.1468 31.6168 12.3996C31.6947 12.618 31.7319 12.8492 31.7266 13.0814C31.7431 13.3132 31.7098 13.5459 31.629 13.7633ZM70.6045 10.5897C71.434 10.9864 71.8853 11.6434 71.9829 12.5608C72.0093 12.7627 72.0051 12.9676 71.9707 13.1682C71.9585 13.3666 71.9585 13.3666 71.7633 13.3666H68.3233C68.1281 13.3666 68.1281 13.379 68.1403 13.5649C68.2013 14.16 68.5184 14.5567 69.0308 14.693C69.3133 14.77 69.6127 14.7526 69.8847 14.6434C70.0234 14.5991 70.1498 14.5221 70.2537 14.4187C70.3576 14.3153 70.436 14.1884 70.4825 14.0484C70.5313 13.9244 70.5801 13.8748 70.7142 13.8748C70.9496 13.8831 71.1796 13.8804 71.4114 13.8776C71.528 13.8762 71.645 13.8748 71.7633 13.8748C71.8535 13.8748 71.8992 13.8748 71.9166 13.897C71.9345 13.9199 71.9223 13.9664 71.8975 14.0608C71.8234 14.3702 71.6835 14.6594 71.4874 14.9078C71.2914 15.1563 71.0441 15.358 70.763 15.4988C70.3646 15.7104 69.9224 15.823 69.4729 15.8273C69.0233 15.8316 68.5792 15.7275 68.1769 15.5236C67.8872 15.3891 67.6301 15.1918 67.4236 14.9455C67.217 14.6992 67.0661 14.4099 66.9814 14.098C66.7783 13.4669 66.7698 12.7878 66.957 12.1517C67.0846 11.6659 67.3595 11.2332 67.7427 10.9151C68.1259 10.5969 68.5979 10.4093 69.0918 10.379C69.6055 10.3108 70.1278 10.3835 70.6045 10.5897ZM68.3233 12.7467H70.5191C70.6654 12.7467 70.6776 12.7467 70.6654 12.5856C70.6638 12.3135 70.5689 12.0505 70.3971 11.8418C70.1962 11.6199 69.9233 11.4791 69.6285 11.4451C69.459 11.4151 69.2851 11.4204 69.1177 11.4609C68.9502 11.5014 68.7926 11.5761 68.6545 11.6805C68.5164 11.7849 68.4006 11.9168 68.3143 12.0681C68.228 12.2195 68.1729 12.3871 68.1525 12.5608C68.1403 12.7344 68.1525 12.7467 68.3233 12.7467Z" fill="#F15A2B"/>
<rect x="1.08936" y="0.25" width="78.6606" height="23.5" rx="11.75" stroke="url(#paint0_linear_535:2400)" stroke-width="0.5"/>
<defs>
<linearGradient id="paint0_linear_535:2400" x1="0.839355" y1="12" x2="61.4467" y2="12" gradientUnits="userSpaceOnUse">
<stop stop-color="#F2632D"/>
<stop offset="1" stop-color="#F9A73F"/>
</linearGradient>
</defs>
</svg>
