<svg width="92" height="92" viewBox="0 0 92 92" fill="none" xmlns="http://www.w3.org/2000/svg">
<g id="Google">
<g id="Rectangle Copy 3" filter="url(#filter0_d)">
<rect x="10" y="6" width="67.2" height="67.2" rx="33.6" fill="#DE4D3B"/>
</g>
<path id="Combined Shape" fill-rule="evenodd" clip-rule="evenodd" d="M39.9477 38.1339L49.1103 38.1392C50.125 43.9868 46.4581 49.8262 39.339 49.8262C33.6182 49.8262 28.9912 45.2537 28.9912 39.6001C28.9912 33.9465 33.6182 29.374 39.339 29.374C42.1329 29.374 44.4686 30.382 46.2721 32.0474L43.4634 34.7208C42.6947 33.9904 41.3495 33.1431 39.339 33.1431C35.806 33.1431 32.9234 36.0356 32.9234 39.6001C32.9234 43.1646 35.806 46.0571 39.339 46.0571C43.3534 46.0571 44.9013 43.2706 45.1838 41.7431H39.9477V38.1339ZM55.7738 38.1339H58.2086V40.54H55.7738V42.9461H53.339V40.54H50.9043V38.1339H53.339V35.7277H55.7738V38.1339Z" fill="white"/>
</g>
<defs>
<filter id="filter0_d" x="0" y="0" width="91.2" height="91.2" filterUnits="userSpaceOnUse" color-interpolation-filters="sRGB">
<feFlood flood-opacity="0" result="BackgroundImageFix"/>
<feColorMatrix in="SourceAlpha" type="matrix" values="0 0 0 0 0 0 0 0 0 0 0 0 0 0 0 0 0 0 127 0"/>
<feMorphology radius="2" operator="erode" in="SourceAlpha" result="effect1_dropShadow"/>
<feOffset dx="2" dy="6"/>
<feGaussianBlur stdDeviation="7"/>
<feColorMatrix type="matrix" values="0 0 0 0 0.870588 0 0 0 0 0.301961 0 0 0 0 0.231373 0 0 0 0.39587 0"/>
<feBlend mode="normal" in2="BackgroundImageFix" result="effect1_dropShadow"/>
<feBlend mode="normal" in="SourceGraphic" in2="effect1_dropShadow" result="shape"/>
</filter>
</defs>
</svg>
