<svg width="22" height="22" viewBox="0 0 22 22" fill="none" xmlns="http://www.w3.org/2000/svg">
<path fill-rule="evenodd" clip-rule="evenodd" d="M1.27522 9.58014L11.0002 1L20.7252 9.5802C21.0582 9.87406 21.0939 10.3808 20.8053 10.7184C20.5102 11.0636 19.9896 11.1003 19.6491 10.7998L19.3019 10.4935V18.5434C19.3019 19.898 18.2172 21 16.8839 21H13.8935C13.0968 21 12.451 20.3541 12.451 19.5574V14.1432H9.63002V19.5574C9.63002 20.3541 8.98416 21 8.18745 21H5.11649C3.7832 21 2.69851 19.898 2.69851 18.5434V10.4934L2.3513 10.7998C2.01077 11.1002 1.49016 11.0636 1.19508 10.7184C0.906471 10.3808 0.942149 9.87401 1.27522 9.58014ZM16.8839 19.3623C17.3283 19.3623 17.6899 18.995 17.6899 18.5434V9.07127L11.0002 3.16908L4.31047 9.07127V18.5435C4.31047 18.995 4.67202 19.3623 5.11645 19.3623H8.01802V13.782C8.01802 13.0739 8.59212 12.4998 9.30031 12.4998H12.7807C13.4889 12.4998 14.063 13.0739 14.063 13.782V19.3623H16.8839Z" fill="#FF6400"/>
<path d="M11.0002 1L11.2123 0.759615L11.0002 0.572494L10.7881 0.759615L11.0002 1ZM1.27522 9.58014L1.48731 9.82053L1.27522 9.58014ZM20.7252 9.5802L20.5131 9.82059L20.7252 9.5802ZM20.8053 10.7184L21.049 10.9267V10.9267L20.8053 10.7184ZM19.6491 10.7998L19.8612 10.5594H19.8612L19.6491 10.7998ZM19.3019 10.4935L19.514 10.2531L18.9813 9.78313V10.4935H19.3019ZM12.451 14.1432H12.7715V13.8226H12.451V14.1432ZM9.63002 14.1432V13.8226H9.30945V14.1432H9.63002ZM2.69851 10.4934H3.01909V9.78309L2.48642 10.2531L2.69851 10.4934ZM2.3513 10.7998L2.13921 10.5594H2.13921L2.3513 10.7998ZM1.19508 10.7184L0.951402 10.9267H0.951402L1.19508 10.7184ZM17.6899 9.07127H18.0105V8.92659L17.902 8.83088L17.6899 9.07127ZM11.0002 3.16908L11.2123 2.92869L11.0002 2.74157L10.7881 2.92869L11.0002 3.16908ZM4.31047 9.07127L4.09838 8.83088L3.9899 8.92659V9.07127H4.31047ZM8.01802 19.3623V19.6829H8.33859V19.3623H8.01802ZM14.063 19.3623H13.7424V19.6829H14.063V19.3623ZM10.7881 0.759615L1.06313 9.33976L1.48731 9.82053L11.2123 1.24039L10.7881 0.759615ZM20.9372 9.33982L11.2123 0.759615L10.7881 1.24038L20.5131 9.82059L20.9372 9.33982ZM21.049 10.9267C21.4513 10.456 21.4016 9.74951 20.9372 9.33982L20.5131 9.82059C20.7148 9.99861 20.7365 10.3056 20.5616 10.5101L21.049 10.9267ZM19.437 11.0402C19.9118 11.4591 20.6376 11.408 21.049 10.9267L20.5616 10.5101C20.3829 10.7193 20.0675 10.7415 19.8612 10.5594L19.437 11.0402ZM19.0898 10.7339L19.437 11.0402L19.8612 10.5594L19.514 10.2531L19.0898 10.7339ZM19.6225 18.5434V10.4935H18.9813V18.5434H19.6225ZM16.8839 21.3206C18.399 21.3206 19.6225 20.0703 19.6225 18.5434H18.9813C18.9813 19.7258 18.0353 20.6794 16.8839 20.6794V21.3206ZM13.8935 21.3206H16.8839V20.6794H13.8935V21.3206ZM12.1304 19.5574C12.1304 20.5312 12.9198 21.3206 13.8935 21.3206V20.6794C13.2739 20.6794 12.7715 20.1771 12.7715 19.5574H12.1304ZM12.1304 14.1432V19.5574H12.7715V14.1432H12.1304ZM9.63002 14.4638H12.451V13.8226H9.63002V14.4638ZM9.95059 19.5574V14.1432H9.30945V19.5574H9.95059ZM8.18745 21.3206C9.16121 21.3206 9.95059 20.5312 9.95059 19.5574H9.30945C9.30945 20.1771 8.80711 20.6794 8.18745 20.6794V21.3206ZM5.11649 21.3206H8.18745V20.6794H5.11649V21.3206ZM2.37794 18.5434C2.37794 20.0702 3.60138 21.3206 5.11649 21.3206V20.6794C3.96501 20.6794 3.01909 19.7257 3.01909 18.5434H2.37794ZM2.37794 10.4934V18.5434H3.01909V10.4934H2.37794ZM2.56339 11.0402L2.9106 10.7338L2.48642 10.2531L2.13921 10.5594L2.56339 11.0402ZM0.951402 10.9267C1.3628 11.408 2.08863 11.4591 2.5634 11.0402L2.13921 10.5594C1.93291 10.7414 1.61752 10.7192 1.43876 10.5101L0.951402 10.9267ZM1.06313 9.33976C0.598769 9.74946 0.549027 10.456 0.951402 10.9267L1.43876 10.5101C1.26391 10.3055 1.28553 9.99856 1.48731 9.82053L1.06313 9.33976ZM17.3693 18.5434C17.3693 18.8227 17.1465 19.0417 16.8839 19.0417V19.6829C17.5101 19.6829 18.0105 19.1672 18.0105 18.5434H17.3693ZM17.3693 9.07127V18.5434H18.0105V9.07127H17.3693ZM10.7881 3.40946L17.4778 9.31165L17.902 8.83088L11.2123 2.92869L10.7881 3.40946ZM4.52256 9.31165L11.2123 3.40946L10.7881 2.92869L4.09838 8.83088L4.52256 9.31165ZM4.63104 18.5435V9.07127H3.9899V18.5435H4.63104ZM5.11645 19.0418C4.85383 19.0418 4.63104 18.8228 4.63104 18.5435H3.9899C3.9899 19.1673 4.4902 19.6829 5.11645 19.6829V19.0418ZM8.01802 19.0418H5.11645V19.6829H8.01802V19.0418ZM7.69745 13.782V19.3623H8.33859V13.782H7.69745ZM9.30031 12.1792C8.41507 12.1792 7.69745 12.8968 7.69745 13.782H8.33859C8.33859 13.2509 8.76917 12.8203 9.30031 12.8203V12.1792ZM12.7807 12.1792H9.30031V12.8203H12.7807V12.1792ZM14.3835 13.782C14.3835 12.8968 13.6659 12.1792 12.7807 12.1792V12.8203C13.3118 12.8203 13.7424 13.2509 13.7424 13.782H14.3835ZM14.3835 19.3623V13.782H13.7424V19.3623H14.3835ZM16.8839 19.0417H14.063V19.6829H16.8839V19.0417Z" fill="#FF6400"/>
</svg>
