<svg width="23" height="24" viewBox="0 0 23 24" fill="none" xmlns="http://www.w3.org/2000/svg">
<path d="M13.6677 1.88868L11.5 4.44422L9.33232 1.88851L9.33231 1.88849C8.80017 1.26137 8.03855 0.9 7.2419 0.9C5.68339 0.9 4.42631 2.24943 4.42631 3.89466V3.98704C4.42631 4.32316 4.47921 4.64642 4.57584 4.94837H3.07729C1.59492 4.94837 0.4 6.23252 0.4 7.79748V10.3609C0.4 10.9163 0.823495 11.3776 1.35938 11.3776H1.94687V22.0833C1.94687 22.6387 2.37037 23.1 2.90625 23.1H20.0938C20.6296 23.1 21.0531 22.6387 21.0531 22.0833V11.3776H21.6406C22.1765 11.3776 22.6 10.9163 22.6 10.3609V7.79748C22.6 6.23252 21.4051 4.94837 19.9227 4.94837H18.4242C18.5208 4.64642 18.5737 4.32316 18.5737 3.98704V3.89466C18.5737 2.24943 17.3166 0.9 15.7581 0.9C14.9614 0.9 14.1998 1.26138 13.6677 1.88868L13.7439 1.95337L13.6677 1.88868ZM15.0948 3.24804L15.0949 3.24798C15.2651 3.04698 15.5073 2.93333 15.7581 2.93333C16.2468 2.93333 16.6549 3.35862 16.6549 3.89466V3.98704C16.6549 4.52292 16.2467 4.94837 15.7581 4.94837H13.6524L15.0948 3.24804ZM7.90512 3.24798L7.90517 3.24804L9.34759 4.94837H7.2419C6.75325 4.94837 6.34506 4.52292 6.34506 3.98704V3.89466C6.34506 3.35862 6.75324 2.93333 7.2419 2.93333C7.49266 2.93333 7.73488 3.04698 7.90512 3.24798ZM20.6812 7.79748V9.34425H20.6754H20.669H20.6625H20.6558H20.649H20.642H20.6349H20.6276H20.6202H20.6127H20.605H20.5972H20.5893H20.5812H20.573H20.5646H20.5561H20.5475H20.5387H20.5298H20.5208H20.5116H20.5023H20.4929H20.4833H20.4736H20.4638H20.4539H20.4438H20.4336H20.4233H20.4128H20.4022H20.3915H20.3807H20.3697H20.3587H20.3475H20.3361H20.3247H20.3131H20.3014H20.2896H20.2777H20.2657H20.2535H20.2412H20.2288H20.2163H20.2037H20.191H20.1781H20.1651H20.1521H20.1389H20.1256H20.1122H20.0986H20.085H20.0713H20.0574H20.0435H20.0294H20.0152H20.0009H19.9866H19.9721H19.9575H19.9428H19.928H19.9131H19.8981H19.883H19.8678H19.8525H19.8371H19.8216H19.806H19.7903H19.7745H19.7586H19.7426H19.7266H19.7104H19.6941H19.6778H19.6613H19.6448H19.6282H19.6114H19.5946H19.5777H19.5607H19.5437H19.5265H19.5093H19.4919H19.4745H19.457H19.4394H19.4217H19.404H19.3861H19.3682H19.3502H19.3321H19.314H19.2957H19.2774H19.259H19.2405H19.222H19.2034H19.1847H19.1659H19.147H19.1281H19.1091H19.0901H19.0709H19.0517H19.0324H19.0131H18.9936H18.9742H18.9546H18.935H18.9153H18.8955H18.8757H18.8558H18.8359H18.8158H18.7958H18.7756H18.7554H18.7352H18.7148H18.6945H18.674H18.6535H18.6329H18.6123H18.5917H18.5709H18.5501H18.5293H18.5084H18.4875H18.4665H18.4454H18.4243H18.4031H18.3819H18.3607H18.3394H18.318H18.2966H18.2752H18.2537H18.2321H18.2105H18.1889H18.1672H18.1455H18.1237H18.1019H18.0801H18.0582H18.0362H18.0143H17.9923H17.9702H17.9481H17.926H17.9038H17.8816H17.8594H17.8371H17.8148H17.7925H17.7701H17.7477H17.7253H17.7028H17.6803H17.6578H17.6353H17.6127H17.5901H17.5674H17.5448H17.5221H17.4993H17.4766H17.4538H17.431H17.4082H17.3854H17.3625H17.3396H17.3167H17.2938H17.2709H17.2479H17.2249H17.2019H17.1789H17.1559H17.1329H17.1098H17.0867H17.0636H17.0405H17.0174H16.9943H16.9712H16.948H16.9248H16.9017H16.8785H16.8553H16.8321H16.8089H16.7857H16.7625H16.7393H16.7161H16.6928H16.6696H16.6464H16.6231H16.5999H16.5767H16.5534H16.5302H16.507H16.4837H16.4605H16.4373H16.414H16.3908H16.3676H16.3444H16.3212H16.298H16.2748H16.2516H16.2285H16.2053H16.1821H16.159H16.1359H16.1127H16.0896H16.0665H16.0434H16.0204H15.9973H15.9743H15.9513H15.9282H15.9053H15.8823H15.8593H15.8364H15.8135H15.7906H15.7677H15.7449H15.722H15.6992H15.6764H15.6537H15.631H15.6082H15.5856H15.5629H15.5403H15.5177H15.4951H15.4726H15.45H15.4276H15.4051H15.3827H15.3603H15.3379H15.3156H15.2933H15.2711H15.2488H15.2267H15.2045H15.1824H15.1603H15.1383H15.1163H15.0943H15.0724H15.0505H15.0287H15.0069H14.9852H14.9635H14.9418H14.9202H14.8986H14.8771H14.8556H14.8342H14.8128H14.7915H14.7702H14.7489H14.7277H14.7066H14.6855H14.6645H14.6435H14.6226H14.6017H14.5809H14.5601H14.5394H14.5188H14.4982H14.4776H14.4571H14.4367H14.4164H14.3961H14.3758H14.3556H14.3355H14.3155H14.2955H14.2755H14.2557H14.2359H14.2161H14.1965H14.1769H14.1573H14.1379H14.1185H14.0992H14.0799H14.0607H14.0416H14.0226H14.0036H13.9847H13.9659H13.9471H13.9285H13.9099H13.8913H13.8729H13.8545H13.8362H13.818H13.7999H13.7818H13.7639H13.746H13.7282H13.7104H13.6928H13.6753H13.6578H13.6404H13.6231H13.6059H13.5887H13.5717H13.5547H13.5379H13.5211H13.5044H13.4878H13.4713H13.4549H13.4386H13.4223H13.4062H13.3902H13.3742H13.3584H13.3426H13.327H13.3114H13.2959H13.2806H13.2653H13.2502H13.2351H13.2201H13.2053H13.1905H13.1759H13.1613H13.1469H13.1325H13.1183H13.1041H13.0901H13.0762H13.0624H13.0487H13.0351H13.0216H13.0082H12.995H12.9818H12.9688H12.9559H12.9431H12.9304H12.9178H12.9053H12.893H12.8807H12.8686H12.8566H12.8448H12.833H12.8214H12.8098H12.7984H12.7872H12.776H12.765H12.7541H12.7433H12.7326H12.7221H12.7117H12.7014H12.6912H12.6812H12.6713H12.6615H12.6519H12.6424H12.633H12.6238H12.6146H12.6057H12.5968H12.5881H12.5795H12.5711H12.5628H12.5546H12.5466H12.5387H12.5309H12.5233H12.5158H12.5085H12.5013H12.4942H12.4873H12.4805H12.4739H12.4674H12.461H12.4594V6.98171H19.9227C20.3348 6.98171 20.6812 7.34148 20.6812 7.79748ZM2.31875 7.79748C2.31875 7.34148 2.66516 6.98171 3.07729 6.98171H10.5406V9.34425H10.539H10.5326H10.5261H10.5195H10.5127H10.5058H10.4987H10.4915H10.4842H10.4767H10.4691H10.4613H10.4534H10.4454H10.4372H10.4289H10.4205H10.4119H10.4032H10.3943H10.3854H10.3762H10.367H10.3576H10.3481H10.3385H10.3287H10.3188H10.3088H10.2986H10.2883H10.2779H10.2674H10.2567H10.2459H10.235H10.224H10.2128H10.2016H10.1902H10.1786H10.167H10.1552H10.1434H10.1314H10.1193H10.107H10.0947H10.0822H10.0696H10.0569H10.0441H10.0312H10.0182H10.005H9.99175H9.97838H9.9649H9.95131H9.93761H9.9238H9.90988H9.89586H9.88173H9.86749H9.85315H9.8387H9.82415H9.80949H9.79473H9.77987H9.76491H9.74985H9.73468H9.71942H9.70406H9.68859H9.67304H9.65738H9.64162H9.62578H9.60983H9.59379H9.57765H9.56143H9.54511H9.52869H9.51219H9.49559H9.4789H9.46213H9.44526H9.42831H9.41126H9.39413H9.37692H9.35961H9.34222H9.32475H9.30719H9.28955H9.27183H9.25402H9.23613H9.21816H9.20011H9.18198H9.16377H9.14548H9.12711H9.10867H9.09015H9.07155H9.05287H9.03413H9.0153H8.99641H8.97744H8.9584H8.93928H8.9201H8.90084H8.88151H8.86212H8.84266H8.82312H8.80352H8.78386H8.76412H8.74433H8.72446H8.70453H8.68454H8.66449H8.64437H8.62419H8.60395H8.58365H8.56328H8.54286H8.52238H8.50185H8.48125H8.4606H8.43989H8.41912H8.3983H8.37743H8.3565H8.33552H8.31448H8.2934H8.27226H8.25107H8.22983H8.20855H8.18721H8.16582H8.14439H8.12291H8.10138H8.07981H8.05819H8.03653H8.01483H7.99308H7.97129H7.94945H7.92758H7.90566H7.88371H7.86171H7.83967H7.8176H7.79549H7.77334H7.75116H7.72894H7.70668H7.68439H7.66207H7.63971H7.61732H7.5949H7.57244H7.54996H7.52745H7.5049H7.48233H7.45973H7.4371H7.41444H7.39176H7.36905H7.34631H7.32355H7.30077H7.27796H7.25513H7.23228H7.20941H7.18651H7.1636H7.14067H7.11771H7.09474H7.07175H7.04874H7.02572H7.00268H6.97963H6.95656H6.93347H6.91038H6.88727H6.86415H6.84101H6.81787H6.79471H6.77155H6.74837H6.72519H6.702H6.6788H6.6556H6.63239H6.60917H6.58595H6.56273H6.5395H6.51627H6.49304H6.4698H6.44657H6.42333H6.40009H6.37686H6.35362H6.33039H6.30716H6.28394H6.26072H6.2375H6.21429H6.19108H6.16788H6.14469H6.1215H6.09832H6.07516H6.052H6.02885H6.00571H5.98258H5.95947H5.93637H5.91328H5.89021H5.86715H5.8441H5.82107H5.79806H5.77506H5.75208H5.72912H5.70618H5.68326H5.66036H5.63748H5.61462H5.59178H5.56896H5.54617H5.5234H5.50066H5.47794H5.45525H5.43258H5.40994H5.38733H5.36474H5.34219H5.31966H5.29717H5.2747H5.25227H5.22986H5.20749H5.18516H5.16286H5.14059H5.11835H5.09616H5.07399H5.05187H5.02978H5.00773H4.98572H4.96375H4.94182H4.91993H4.89808H4.87627H4.85451H4.83278H4.81111H4.78947H4.76788H4.74634H4.72484H4.70339H4.68199H4.66063H4.63933H4.61807H4.59686H4.57571H4.5546H4.53355H4.51254H4.4916H4.4707H4.44986H4.42907H4.40834H4.38767H4.36705H4.34649H4.32599H4.30555H4.28516H4.26484H4.24458H4.22437H4.20423H4.18415H4.16414H4.14419H4.1243H4.10447H4.08472H4.06503H4.0454H4.02584H4.00635H3.98693H3.96758H3.9483H3.92909H3.90995H3.89088H3.87188H3.85296H3.8341H3.81533H3.79663H3.778H3.75945H3.74098H3.72258H3.70426H3.68602H3.66786H3.64978H3.63178H3.61386H3.59602H3.57827H3.56059H3.543H3.5255H3.50808H3.49074H3.47349H3.45633H3.43925H3.42227H3.40537H3.38856H3.37184H3.35521H3.33867H3.32222H3.30586H3.2896H3.27343H3.25735H3.24137H3.22549H3.2097H3.194H3.17841H3.16291H3.14751H3.13221H3.11701H3.10191H3.08691H3.07201H3.05721H3.04252H3.02792H3.01344H2.99906H2.98478H2.97061H2.95654H2.94259H2.92874H2.91499H2.90136H2.88784H2.87443H2.86112H2.84793H2.83485H2.82189H2.80904H2.7963H2.78367H2.77116H2.75877H2.74649H2.73433H2.72229H2.71037H2.69856H2.68688H2.67531H2.66387H2.65254H2.64134H2.63026H2.61931H2.60848H2.59777H2.58719H2.57673H2.5664H2.5562H2.54612H2.53618H2.52636H2.51667H2.50711H2.49768H2.48838H2.47922H2.47019H2.46129H2.45252H2.44389H2.4354H2.42703H2.41881H2.41072H2.40277H2.39496H2.38729H2.37976H2.37236H2.36511H2.358H2.35103H2.3442H2.33752H2.33098H2.32458H2.31875V7.79748ZM3.86562 11.3776H10.5406V21.0667H3.86562V11.3776ZM19.1344 21.0667H12.4594V11.3776H19.1344V21.0667Z" fill="#989289" stroke="#989289" stroke-width="0.2"/>
</svg>
