<svg width="24" height="24" viewBox="0 0 24 24" fill="none" xmlns="http://www.w3.org/2000/svg">
<path fill-rule="evenodd" clip-rule="evenodd" d="M13.4131 2C15.7067 2 17.8631 2.8932 19.485 4.51508C21.1068 6.13691 22 8.29328 22 10.5869C22 12.8805 21.1068 15.0369 19.485 16.6588C17.8631 18.2806 15.7068 19.1738 13.4131 19.1738C11.3161 19.1738 9.33413 18.4268 7.77018 17.0593L3.00125 21.8282C2.88676 21.9427 2.7366 22 2.58653 22C2.43645 22 2.28633 21.9427 2.1718 21.8282C1.94273 21.5991 1.94273 21.2277 2.1718 20.9987L6.94068 16.2298C5.57318 14.6658 4.82614 12.6839 4.82614 10.5869C4.82614 8.29328 5.71939 6.13691 7.34123 4.51508C8.96307 2.8932 11.1195 2 13.4131 2ZM8.17091 15.8294C11.0616 18.72 15.7649 18.72 18.6556 15.8294C21.5462 12.9387 21.5462 8.23531 18.6556 5.34473C17.2105 3.89961 15.3116 3.17676 13.4133 3.17676C11.5145 3.17676 9.61638 3.89926 8.17091 5.34473C5.28027 8.23535 5.28027 12.9388 8.17091 15.8294Z" fill="#BAB1A6"/>
<path d="M19.485 4.51508L19.7345 4.26561V4.26561L19.485 4.51508ZM19.485 16.6588L19.2355 16.4093L19.485 16.6588ZM7.77018 17.0593L8.0024 16.7937L7.75402 16.5765L7.52071 16.8098L7.77018 17.0593ZM3.00125 21.8282L2.75179 21.5787L2.7517 21.5788L3.00125 21.8282ZM2.1718 21.8282L1.92231 22.0777L1.92237 22.0777L2.1718 21.8282ZM2.1718 20.9987L2.42126 21.2481L2.42127 21.2481L2.1718 20.9987ZM6.94068 16.2298L7.19015 16.4792L7.42346 16.2459L7.20627 15.9975L6.94068 16.2298ZM7.34123 4.51508L7.5907 4.76455L7.5907 4.76454L7.34123 4.51508ZM18.6556 15.8294L18.9051 16.0788L18.9051 16.0788L18.6556 15.8294ZM8.17091 15.8294L7.92144 16.0788L7.92144 16.0788L8.17091 15.8294ZM18.6556 5.34473L18.9051 5.09526L18.9051 5.09526L18.6556 5.34473ZM8.17091 5.34473L7.92144 5.09526L8.17091 5.34473ZM19.7345 4.26561C18.0464 2.57757 15.8003 1.6472 13.4131 1.6472V2.3528C15.6132 2.3528 17.6798 3.20883 19.2355 4.76455L19.7345 4.26561ZM22.3528 10.5869C22.3528 8.19972 21.4225 5.95361 19.7345 4.26561L19.2355 4.76455C20.7912 6.32022 21.6472 8.38685 21.6472 10.5869H22.3528ZM19.7344 16.9082C21.4224 15.2202 22.3528 12.9741 22.3528 10.5869H21.6472C21.6472 12.787 20.7912 14.8536 19.2355 16.4093L19.7344 16.9082ZM13.4131 19.5266C15.8003 19.5266 18.0464 18.5963 19.7344 16.9082L19.2355 16.4093C17.6798 17.965 15.6132 18.821 13.4131 18.821V19.5266ZM7.53795 17.3249C9.16628 18.7486 11.2308 19.5266 13.4131 19.5266V18.821C11.4014 18.821 9.50198 18.1049 8.0024 16.7937L7.53795 17.3249ZM3.25072 22.0776L8.01965 17.3088L7.52071 16.8098L2.75179 21.5787L3.25072 22.0776ZM2.58653 22.3528C2.82632 22.3528 3.06744 22.261 3.25081 22.0775L2.7517 21.5788C2.70608 21.6244 2.64689 21.6472 2.58653 21.6472V22.3528ZM1.92237 22.0777C2.10567 22.2609 2.34664 22.3528 2.58653 22.3528V21.6472C2.52625 21.6472 2.46699 21.6244 2.42122 21.5787L1.92237 22.0777ZM1.92233 20.7492C1.55548 21.1161 1.55551 21.7108 1.92231 22.0777L2.42129 21.5788C2.32996 21.4874 2.32999 21.3394 2.42126 21.2481L1.92233 20.7492ZM6.69122 15.9803L1.92233 20.7492L2.42127 21.2481L7.19015 16.4792L6.69122 15.9803ZM4.47334 10.5869C4.47334 12.7692 5.25129 14.8337 6.67509 16.462L7.20627 15.9975C5.89506 14.498 5.17894 12.5986 5.17894 10.5869H4.47334ZM7.09176 4.26561C5.40376 5.95361 4.47334 8.19971 4.47334 10.5869H5.17894C5.17894 8.38686 6.03502 6.32022 7.5907 4.76455L7.09176 4.26561ZM13.4131 1.6472C11.0259 1.6472 8.77977 2.57757 7.09176 4.26561L7.5907 4.76454C9.14638 3.20883 11.213 2.3528 13.4131 2.3528V1.6472ZM18.4061 15.5799C15.6532 18.3328 11.1733 18.3328 8.42037 15.5799L7.92144 16.0788C10.9499 19.1072 15.8766 19.1072 18.9051 16.0788L18.4061 15.5799ZM18.4062 5.59419C21.1589 8.347 21.159 12.827 18.4061 15.5799L18.9051 16.0788C21.9334 13.0504 21.9334 8.12363 18.9051 5.09526L18.4062 5.59419ZM13.4133 3.52956C15.2221 3.52956 17.03 4.21811 18.4062 5.5942L18.9051 5.09526C17.3909 3.58111 15.401 2.82396 13.4133 2.82396V3.52956ZM8.42037 5.59419C9.79681 4.21776 11.6039 3.52956 13.4133 3.52956V2.82396C11.4251 2.82396 9.43595 3.58075 7.92144 5.09526L8.42037 5.59419ZM8.42037 15.5799C5.66752 12.8271 5.66752 8.34704 8.42037 5.59419L7.92144 5.09526C4.89303 8.12366 4.89303 13.0504 7.92144 16.0788L8.42037 15.5799Z" fill="#BAB1A6"/>
</svg>
