<svg width="20" height="21" viewBox="0 0 20 21" fill="none" xmlns="http://www.w3.org/2000/svg">
<path fill-rule="evenodd" clip-rule="evenodd" d="M10.0823 1C7.2439 1 5.10354 3.18342 5.10354 6.07864C5.10354 8.53181 6.61709 10.6083 8.68377 11.2658C3.39162 11.6842 0.5 14.5508 0.5 19.4437C0.5 19.8583 0.836 20.1943 1.25057 20.1943H18.914C19.3286 20.1943 19.6646 19.8583 19.6646 19.4437C19.6646 14.551 16.773 11.6843 11.4809 11.2658C13.5476 10.6083 15.0611 8.53186 15.0611 6.07888C15.0611 3.18342 12.9208 1 10.0823 1ZM10.0823 9.98186C8.16462 9.98186 6.60468 8.23101 6.60468 6.07888C6.60468 4.0058 8.06729 2.50113 10.0823 2.50113C12.0651 2.50113 13.56 4.03906 13.56 6.07888C13.56 8.23101 12 9.98186 10.0823 9.98186ZM2.02845 18.6931C2.32368 14.7244 5.02947 12.7136 10.0823 12.7136C15.1352 12.7136 17.841 14.7244 18.1365 18.6931H2.02845Z" fill="#989289"/>
<path d="M8.68377 11.2658L8.70742 11.5648L8.77473 10.9799L8.68377 11.2658ZM19.6646 19.4437L19.3646 19.4437V19.4437H19.6646ZM11.4809 11.2658L11.3899 10.9799L11.4572 11.5649L11.4809 11.2658ZM2.02845 18.6931L1.72928 18.6709L1.7053 18.9931H2.02845V18.6931ZM18.1365 18.6931V18.9931H18.4597L18.4357 18.6709L18.1365 18.6931ZM5.40354 6.07864C5.40354 3.34345 7.41518 1.3 10.0823 1.3V0.7C7.07262 0.7 4.80354 3.02338 4.80354 6.07864H5.40354ZM8.77473 10.9799C6.84177 10.3649 5.40354 8.41111 5.40354 6.07864H4.80354C4.80354 8.65251 6.39242 10.8516 8.59282 11.5517L8.77473 10.9799ZM0.8 19.4437C0.8 17.0581 1.50325 15.2015 2.81916 13.8892C4.13837 12.5737 6.10838 11.7703 8.70742 11.5648L8.66013 10.9667C5.96701 11.1797 3.84513 12.0188 2.39549 13.4644C0.942554 14.9132 0.2 16.9364 0.2 19.4437H0.8ZM1.25057 19.8943C1.00169 19.8943 0.8 19.6926 0.8 19.4437H0.2C0.2 20.0239 0.670315 20.4943 1.25057 20.4943V19.8943ZM18.914 19.8943H1.25057V20.4943H18.914V19.8943ZM19.3646 19.4437C19.3646 19.6926 19.1629 19.8943 18.914 19.8943V20.4943C19.4943 20.4943 19.9646 20.0239 19.9646 19.4437H19.3646ZM11.4572 11.5649C14.0563 11.7704 16.0263 12.5738 17.3455 13.8893C18.6614 15.2016 19.3646 17.0582 19.3646 19.4437L19.9646 19.4437C19.9646 16.9365 19.2221 14.9134 17.7692 13.4645C16.3195 12.0189 14.1976 11.1797 11.5045 10.9667L11.4572 11.5649ZM14.7611 6.07888C14.7611 8.41115 13.3229 10.3649 11.3899 10.9799L11.5718 11.5517C13.7722 10.8516 15.3611 8.65257 15.3611 6.07888H14.7611ZM10.0823 1.3C12.7495 1.3 14.7611 3.34344 14.7611 6.07888H15.3611C15.3611 3.02339 13.092 0.7 10.0823 0.7V1.3ZM6.30468 6.07888C6.30468 8.36321 7.96732 10.2819 10.0823 10.2819V9.68186C8.36192 9.68186 6.90468 8.09881 6.90468 6.07888H6.30468ZM10.0823 2.20113C7.89364 2.20113 6.30468 3.8482 6.30468 6.07888H6.90468C6.90468 4.16341 8.24094 2.80113 10.0823 2.80113V2.20113ZM13.86 6.07888C13.86 3.88146 12.2388 2.20113 10.0823 2.20113V2.80113C11.8915 2.80113 13.26 4.19666 13.26 6.07888H13.86ZM10.0823 10.2819C12.1973 10.2819 13.86 8.36321 13.86 6.07888H13.26C13.26 8.09881 11.8027 9.68186 10.0823 9.68186V10.2819ZM10.0823 12.4136C7.52221 12.4136 5.50927 12.922 4.09242 13.9742C2.66446 15.0346 1.88204 16.6173 1.72928 18.6709L2.32762 18.7154C2.47009 16.8002 3.18818 15.3931 4.45014 14.4559C5.7232 13.5105 7.58959 13.0136 10.0823 13.0136V12.4136ZM18.4357 18.6709C18.2828 16.6172 17.5003 15.0346 16.0723 13.9742C14.6554 12.922 12.6424 12.4136 10.0823 12.4136V13.0136C12.5751 13.0136 14.4415 13.5105 15.7146 14.4559C16.9766 15.3931 17.6947 16.8002 17.8373 18.7154L18.4357 18.6709ZM2.02845 18.9931H18.1365V18.3931H2.02845V18.9931Z" fill="#989289"/>
</svg>
