<svg width="20" height="21" viewBox="0 0 20 21" fill="none" xmlns="http://www.w3.org/2000/svg">
<path d="M10 1C4.47748 1 0 5.47748 0 11C0 16.5232 4.47748 21 10 21C15.5225 21 20 16.5232 20 11C20 5.47748 15.5225 1 10 1ZM10 19.125C5.51253 19.125 1.87503 15.4875 1.87503 11C1.87503 6.51253 5.51253 2.87503 10 2.87503C14.4875 2.87503 18.125 6.51253 18.125 11C18.125 15.4875 14.4875 19.125 10 19.125ZM11.7706 10.9938L13.5388 9.22565C13.7825 8.98192 13.7825 8.58626 13.5388 8.34253L12.6544 7.45815C12.41 7.21442 12.015 7.21379 11.7706 7.45815L10.0025 9.22628L8.23565 7.45941C7.99129 7.21442 7.595 7.21442 7.35064 7.45815L6.46626 8.34253C6.22253 8.58626 6.22253 8.98192 6.46689 9.22691L8.23376 10.9938L6.47067 12.7569C6.22631 13.0012 6.22631 13.3963 6.47067 13.6412L7.35442 14.525C7.59878 14.7687 7.99444 14.7687 8.23817 14.525L10.0019 12.7613L11.7781 14.5381C12.0231 14.7825 12.4188 14.7831 12.6631 14.5388L13.5469 13.655C13.7912 13.4107 13.7906 13.015 13.5463 12.7706L11.7706 10.9938Z" fill="#EB011B"/>
</svg>
