<svg width="366" height="18" viewBox="0 0 366 18" fill="none" xmlns="http://www.w3.org/2000/svg">
<g opacity="0.5">
<path d="M274.05 6.53906C274.05 7.26172 273.78 7.81836 273.24 8.20898C272.704 8.59635 271.935 8.79004 270.933 8.79004H270.017V11.5977H269.111V4.45898H271.13C273.077 4.45898 274.05 5.15234 274.05 6.53906ZM270.017 8.07715H270.832C271.635 8.07715 272.215 7.95833 272.574 7.7207C272.933 7.48307 273.112 7.10221 273.112 6.57812C273.112 6.10612 272.943 5.75456 272.606 5.52344C272.269 5.29232 271.743 5.17676 271.029 5.17676H270.017V8.07715Z" fill="black"/>
<path d="M280.592 8.91699C280.592 9.78939 280.352 10.4714 279.873 10.9629C279.393 11.4512 278.731 11.6953 277.885 11.6953C277.363 11.6953 276.9 11.583 276.495 11.3584C276.09 11.1338 275.778 10.8115 275.557 10.3916C275.337 9.97168 275.227 9.48014 275.227 8.91699C275.227 8.0446 275.465 7.36589 275.941 6.88086C276.417 6.39258 277.077 6.14844 277.923 6.14844C278.74 6.14844 279.388 6.39746 279.867 6.89551C280.35 7.39355 280.592 8.06738 280.592 8.91699ZM276.143 8.91699C276.143 9.60059 276.293 10.1214 276.591 10.4795C276.889 10.8376 277.328 11.0166 277.907 11.0166C278.486 11.0166 278.924 10.8392 279.223 10.4844C279.524 10.1263 279.675 9.60384 279.675 8.91699C279.675 8.23665 279.524 7.7207 279.223 7.36914C278.924 7.01432 278.482 6.83691 277.896 6.83691C277.317 6.83691 276.88 7.01107 276.586 7.35938C276.291 7.70768 276.143 8.22689 276.143 8.91699Z" fill="black"/>
<path d="M286.915 11.5977L285.844 8.45801C285.777 8.26595 285.651 7.82975 285.466 7.14941H285.424C285.281 7.71908 285.157 8.15853 285.051 8.46777L283.948 11.5977H282.925L281.332 6.24609H282.259C282.636 7.59049 282.922 8.61426 283.117 9.31738C283.316 10.0205 283.429 10.4941 283.458 10.7383H283.5C283.539 10.5527 283.602 10.3135 283.687 10.0205C283.776 9.72428 283.852 9.48991 283.916 9.31738L284.987 6.24609H285.946L286.99 9.31738C287.189 9.87728 287.324 10.3477 287.395 10.7285H287.437C287.451 10.6113 287.489 10.4307 287.549 10.1865C287.613 9.94238 287.984 8.62891 288.663 6.24609H289.579L287.965 11.5977H286.915Z" fill="black"/>
<path d="M293.106 11.6953C292.243 11.6953 291.561 11.4544 291.06 10.9727C290.563 10.4909 290.314 9.82194 290.314 8.96582C290.314 8.10319 290.545 7.41797 291.007 6.91016C291.472 6.40234 292.095 6.14844 292.876 6.14844C293.608 6.14844 294.187 6.36979 294.613 6.8125C295.039 7.25195 295.252 7.83301 295.252 8.55566V9.06836H291.23C291.248 9.69661 291.42 10.1735 291.747 10.499C292.077 10.8245 292.541 10.9873 293.138 10.9873C293.766 10.9873 294.388 10.8669 295.002 10.626V11.3486C294.69 11.4723 294.393 11.5602 294.112 11.6123C293.835 11.6676 293.5 11.6953 293.106 11.6953ZM292.866 6.82715C292.397 6.82715 292.022 6.96712 291.742 7.24707C291.465 7.52702 291.301 7.91439 291.252 8.40918H294.304C294.304 7.89811 294.18 7.50749 293.931 7.2373C293.683 6.96387 293.328 6.82715 292.866 6.82715Z" fill="black"/>
<path d="M299.429 6.14844C299.688 6.14844 299.921 6.16797 300.127 6.20703L300.004 6.95898C299.763 6.91016 299.55 6.88574 299.365 6.88574C298.893 6.88574 298.488 7.06152 298.151 7.41309C297.817 7.76465 297.65 8.20247 297.65 8.72656V11.5977H296.765V6.24609H297.495L297.596 7.2373H297.639C297.856 6.889 298.117 6.62044 298.422 6.43164C298.728 6.24284 299.063 6.14844 299.429 6.14844Z" fill="black"/>
<path d="M303.686 11.6953C302.823 11.6953 302.141 11.4544 301.64 10.9727C301.143 10.4909 300.894 9.82194 300.894 8.96582C300.894 8.10319 301.125 7.41797 301.587 6.91016C302.052 6.40234 302.675 6.14844 303.457 6.14844C304.188 6.14844 304.767 6.36979 305.193 6.8125C305.619 7.25195 305.833 7.83301 305.833 8.55566V9.06836H301.81C301.828 9.69661 302 10.1735 302.327 10.499C302.657 10.8245 303.121 10.9873 303.718 10.9873C304.346 10.9873 304.968 10.8669 305.582 10.626V11.3486C305.27 11.4723 304.973 11.5602 304.692 11.6123C304.415 11.6676 304.08 11.6953 303.686 11.6953ZM303.446 6.82715C302.977 6.82715 302.602 6.96712 302.322 7.24707C302.045 7.52702 301.881 7.91439 301.832 8.40918H304.884C304.884 7.89811 304.76 7.50749 304.511 7.2373C304.263 6.96387 303.908 6.82715 303.446 6.82715Z" fill="black"/>
<path d="M311.32 10.8799H311.272C310.863 11.4235 310.252 11.6953 309.439 11.6953C308.676 11.6953 308.081 11.4561 307.654 10.9775C307.232 10.499 307.02 9.81869 307.02 8.93652C307.02 8.05436 307.234 7.36914 307.66 6.88086C308.086 6.39258 308.679 6.14844 309.439 6.14844C310.231 6.14844 310.838 6.41211 311.261 6.93945H311.33L311.293 6.55371L311.272 6.17773V4H312.156V11.5977H311.437L311.32 10.8799ZM309.551 11.0166C310.155 11.0166 310.592 10.8669 310.861 10.5674C311.135 10.2646 311.272 9.778 311.272 9.10742V8.93652C311.272 8.17806 311.133 7.6377 310.856 7.31543C310.583 6.98991 310.144 6.82715 309.54 6.82715C309.022 6.82715 308.624 7.0127 308.347 7.38379C308.074 7.75163 307.937 8.27246 307.937 8.94629C307.937 9.62988 308.074 10.1458 308.347 10.4941C308.62 10.8424 309.022 11.0166 309.551 11.0166Z" fill="black"/>
<path d="M319.588 6.1582C320.355 6.1582 320.95 6.39909 321.372 6.88086C321.798 7.35938 322.012 8.03809 322.012 8.91699C322.012 9.7959 321.797 10.4795 321.367 10.9678C320.941 11.4528 320.348 11.6953 319.588 11.6953C319.208 11.6953 318.86 11.6318 318.543 11.5049C318.231 11.3747 317.968 11.1761 317.755 10.9092H317.691L317.505 11.5977H316.871V4H317.755V5.8457C317.755 6.25911 317.741 6.63021 317.712 6.95898H317.755C318.167 6.42513 318.778 6.1582 319.588 6.1582ZM319.46 6.83691C318.856 6.83691 318.421 6.99642 318.155 7.31543C317.888 7.63119 317.755 8.16504 317.755 8.91699C317.755 9.66895 317.892 10.2077 318.165 10.5332C318.439 10.8555 318.877 11.0166 319.481 11.0166C320.024 11.0166 320.429 10.8359 320.696 10.4746C320.962 10.11 321.095 9.58757 321.095 8.90723C321.095 8.21061 320.962 7.69141 320.696 7.34961C320.429 7.00781 320.017 6.83691 319.46 6.83691Z" fill="black"/>
<path d="M322.635 6.24609H323.583L324.862 9.29785C325.142 9.99447 325.316 10.4974 325.384 10.8066H325.426C325.473 10.6406 325.568 10.3574 325.714 9.95703C325.863 9.55339 326.346 8.31641 327.163 6.24609H328.111L325.602 12.3398C325.354 12.9421 325.062 13.3685 324.728 13.6191C324.398 13.873 323.992 14 323.509 14C323.239 14 322.972 13.9723 322.709 13.917V13.2676C322.905 13.3066 323.123 13.3262 323.365 13.3262C323.972 13.3262 324.405 13.0137 324.665 12.3887L324.99 11.627L322.635 6.24609Z" fill="black"/>
<path d="M274.05 6.53906C274.05 7.26172 273.78 7.81836 273.24 8.20898C272.704 8.59635 271.935 8.79004 270.933 8.79004H270.017V11.5977H269.111V4.45898H271.13C273.077 4.45898 274.05 5.15234 274.05 6.53906ZM270.017 8.07715H270.832C271.635 8.07715 272.215 7.95833 272.574 7.7207C272.933 7.48307 273.112 7.10221 273.112 6.57812C273.112 6.10612 272.943 5.75456 272.606 5.52344C272.269 5.29232 271.743 5.17676 271.029 5.17676H270.017V8.07715Z" stroke="black" stroke-width="0.1"/>
<path d="M280.592 8.91699C280.592 9.78939 280.352 10.4714 279.873 10.9629C279.393 11.4512 278.731 11.6953 277.885 11.6953C277.363 11.6953 276.9 11.583 276.495 11.3584C276.09 11.1338 275.778 10.8115 275.557 10.3916C275.337 9.97168 275.227 9.48014 275.227 8.91699C275.227 8.0446 275.465 7.36589 275.941 6.88086C276.417 6.39258 277.077 6.14844 277.923 6.14844C278.74 6.14844 279.388 6.39746 279.867 6.89551C280.35 7.39355 280.592 8.06738 280.592 8.91699ZM276.143 8.91699C276.143 9.60059 276.293 10.1214 276.591 10.4795C276.889 10.8376 277.328 11.0166 277.907 11.0166C278.486 11.0166 278.924 10.8392 279.223 10.4844C279.524 10.1263 279.675 9.60384 279.675 8.91699C279.675 8.23665 279.524 7.7207 279.223 7.36914C278.924 7.01432 278.482 6.83691 277.896 6.83691C277.317 6.83691 276.88 7.01107 276.586 7.35938C276.291 7.70768 276.143 8.22689 276.143 8.91699Z" stroke="black" stroke-width="0.1"/>
<path d="M286.915 11.5977L285.844 8.45801C285.777 8.26595 285.651 7.82975 285.466 7.14941H285.424C285.281 7.71908 285.157 8.15853 285.051 8.46777L283.948 11.5977H282.925L281.332 6.24609H282.259C282.636 7.59049 282.922 8.61426 283.117 9.31738C283.316 10.0205 283.429 10.4941 283.458 10.7383H283.5C283.539 10.5527 283.602 10.3135 283.687 10.0205C283.776 9.72428 283.852 9.48991 283.916 9.31738L284.987 6.24609H285.946L286.99 9.31738C287.189 9.87728 287.324 10.3477 287.395 10.7285H287.437C287.451 10.6113 287.489 10.4307 287.549 10.1865C287.613 9.94238 287.984 8.62891 288.663 6.24609H289.579L287.965 11.5977H286.915Z" stroke="black" stroke-width="0.1"/>
<path d="M293.106 11.6953C292.243 11.6953 291.561 11.4544 291.06 10.9727C290.563 10.4909 290.314 9.82194 290.314 8.96582C290.314 8.10319 290.545 7.41797 291.007 6.91016C291.472 6.40234 292.095 6.14844 292.876 6.14844C293.608 6.14844 294.187 6.36979 294.613 6.8125C295.039 7.25195 295.252 7.83301 295.252 8.55566V9.06836H291.23C291.248 9.69661 291.42 10.1735 291.747 10.499C292.077 10.8245 292.541 10.9873 293.138 10.9873C293.766 10.9873 294.388 10.8669 295.002 10.626V11.3486C294.69 11.4723 294.393 11.5602 294.112 11.6123C293.835 11.6676 293.5 11.6953 293.106 11.6953ZM292.866 6.82715C292.397 6.82715 292.022 6.96712 291.742 7.24707C291.465 7.52702 291.301 7.91439 291.252 8.40918H294.304C294.304 7.89811 294.18 7.50749 293.931 7.2373C293.683 6.96387 293.328 6.82715 292.866 6.82715Z" stroke="black" stroke-width="0.1"/>
<path d="M299.429 6.14844C299.688 6.14844 299.921 6.16797 300.127 6.20703L300.004 6.95898C299.763 6.91016 299.55 6.88574 299.365 6.88574C298.893 6.88574 298.488 7.06152 298.151 7.41309C297.817 7.76465 297.65 8.20247 297.65 8.72656V11.5977H296.765V6.24609H297.495L297.596 7.2373H297.639C297.856 6.889 298.117 6.62044 298.422 6.43164C298.728 6.24284 299.063 6.14844 299.429 6.14844Z" stroke="black" stroke-width="0.1"/>
<path d="M303.686 11.6953C302.823 11.6953 302.141 11.4544 301.64 10.9727C301.143 10.4909 300.894 9.82194 300.894 8.96582C300.894 8.10319 301.125 7.41797 301.587 6.91016C302.052 6.40234 302.675 6.14844 303.457 6.14844C304.188 6.14844 304.767 6.36979 305.193 6.8125C305.619 7.25195 305.833 7.83301 305.833 8.55566V9.06836H301.81C301.828 9.69661 302 10.1735 302.327 10.499C302.657 10.8245 303.121 10.9873 303.718 10.9873C304.346 10.9873 304.968 10.8669 305.582 10.626V11.3486C305.27 11.4723 304.973 11.5602 304.692 11.6123C304.415 11.6676 304.08 11.6953 303.686 11.6953ZM303.446 6.82715C302.977 6.82715 302.602 6.96712 302.322 7.24707C302.045 7.52702 301.881 7.91439 301.832 8.40918H304.884C304.884 7.89811 304.76 7.50749 304.511 7.2373C304.263 6.96387 303.908 6.82715 303.446 6.82715Z" stroke="black" stroke-width="0.1"/>
<path d="M311.32 10.8799H311.272C310.863 11.4235 310.252 11.6953 309.439 11.6953C308.676 11.6953 308.081 11.4561 307.654 10.9775C307.232 10.499 307.02 9.81869 307.02 8.93652C307.02 8.05436 307.234 7.36914 307.66 6.88086C308.086 6.39258 308.679 6.14844 309.439 6.14844C310.231 6.14844 310.838 6.41211 311.261 6.93945H311.33L311.293 6.55371L311.272 6.17773V4H312.156V11.5977H311.437L311.32 10.8799ZM309.551 11.0166C310.155 11.0166 310.592 10.8669 310.861 10.5674C311.135 10.2646 311.272 9.778 311.272 9.10742V8.93652C311.272 8.17806 311.133 7.6377 310.856 7.31543C310.583 6.98991 310.144 6.82715 309.54 6.82715C309.022 6.82715 308.624 7.0127 308.347 7.38379C308.074 7.75163 307.937 8.27246 307.937 8.94629C307.937 9.62988 308.074 10.1458 308.347 10.4941C308.62 10.8424 309.022 11.0166 309.551 11.0166Z" stroke="black" stroke-width="0.1"/>
<path d="M319.588 6.1582C320.355 6.1582 320.95 6.39909 321.372 6.88086C321.798 7.35938 322.012 8.03809 322.012 8.91699C322.012 9.7959 321.797 10.4795 321.367 10.9678C320.941 11.4528 320.348 11.6953 319.588 11.6953C319.208 11.6953 318.86 11.6318 318.543 11.5049C318.231 11.3747 317.968 11.1761 317.755 10.9092H317.691L317.505 11.5977H316.871V4H317.755V5.8457C317.755 6.25911 317.741 6.63021 317.712 6.95898H317.755C318.167 6.42513 318.778 6.1582 319.588 6.1582ZM319.46 6.83691C318.856 6.83691 318.421 6.99642 318.155 7.31543C317.888 7.63119 317.755 8.16504 317.755 8.91699C317.755 9.66895 317.892 10.2077 318.165 10.5332C318.439 10.8555 318.877 11.0166 319.481 11.0166C320.024 11.0166 320.429 10.8359 320.696 10.4746C320.962 10.11 321.095 9.58757 321.095 8.90723C321.095 8.21061 320.962 7.69141 320.696 7.34961C320.429 7.00781 320.017 6.83691 319.46 6.83691Z" stroke="black" stroke-width="0.1"/>
<path d="M322.635 6.24609H323.583L324.862 9.29785C325.142 9.99447 325.316 10.4974 325.384 10.8066H325.426C325.473 10.6406 325.568 10.3574 325.714 9.95703C325.863 9.55339 326.346 8.31641 327.163 6.24609H328.111L325.602 12.3398C325.354 12.9421 325.062 13.3685 324.728 13.6191C324.398 13.873 323.992 14 323.509 14C323.239 14 322.972 13.9723 322.709 13.917V13.2676C322.905 13.3066 323.123 13.3262 323.365 13.3262C323.972 13.3262 324.405 13.0137 324.665 12.3887L324.99 11.627L322.635 6.24609Z" stroke="black" stroke-width="0.1"/>
<path fill-rule="evenodd" clip-rule="evenodd" d="M358.591 5.68783C358.591 4.58146 357.756 3.7469 356.65 3.7469C355.544 3.7469 354.709 4.58146 354.709 5.68783C354.709 6.79368 355.544 7.62877 356.65 7.62877C357.756 7.62877 358.591 6.79368 358.591 5.68783ZM353.896 5.68783C353.896 4.15409 355.106 2.99569 356.598 2.99569C357.558 2.99569 358.205 3.47562 358.529 4.0288H358.571V1.28463C358.571 1.04467 358.738 0.877441 358.988 0.877441C359.249 0.877441 359.405 1.04467 359.405 1.28463V5.69792C359.405 7.23166 358.184 8.37945 356.65 8.37945C355.127 8.37998 353.896 7.22157 353.896 5.68783ZM345.402 5.68803C345.402 4.58165 344.567 3.7471 343.461 3.7471C342.355 3.7471 341.52 4.58165 341.52 5.68803C341.52 6.79387 342.355 7.62896 343.461 7.62896C344.567 7.62896 345.402 6.79387 345.402 5.68803ZM341.771 10.1226C341.551 10.018 341.447 9.83003 341.531 9.6113C341.614 9.38143 341.823 9.28799 342.042 9.39205C342.418 9.56936 342.887 9.69465 343.388 9.69465C344.629 9.69465 345.381 8.95353 345.381 7.69108V7.34653H345.339C345.015 7.89971 344.368 8.37964 343.408 8.37964C341.927 8.37964 340.706 7.23186 340.706 5.6875C340.706 4.15376 341.937 2.99536 343.461 2.99536C344.995 2.99536 346.216 4.14314 346.216 5.67688V7.63852C346.216 9.32887 345.131 10.466 343.357 10.466C342.814 10.4666 342.272 10.3625 341.771 10.1226ZM336.866 3.74686C337.972 3.74686 338.807 4.58142 338.807 5.6878C338.807 6.79364 337.972 7.62873 336.866 7.62873C335.76 7.62873 334.925 6.79364 334.925 5.6878C334.925 4.58142 335.76 3.74686 336.866 3.74686ZM336.866 2.99566C335.342 2.99566 334.111 4.15406 334.111 5.6878C334.111 7.23216 335.332 8.37994 336.814 8.37994C337.774 8.37994 338.421 7.90001 338.744 7.34683H338.786V8.03539C338.786 8.27535 338.943 8.44205 339.204 8.44205C339.454 8.44205 339.621 8.27535 339.621 8.03539V5.67718C339.621 4.14344 338.4 2.99566 336.866 2.99566ZM334.469 14.7573C334.469 13.4529 335.531 12.3917 336.835 12.3917C338.139 12.3917 339.201 13.4529 339.201 14.7573C339.201 16.0617 338.139 17.123 336.835 17.123C335.531 17.123 334.469 16.0617 334.469 14.7573ZM341.08 14.7573C341.08 13.4529 342.142 12.3917 343.446 12.3917C344.75 12.3917 345.812 13.4529 345.812 14.7573C345.812 16.0617 344.75 17.123 343.446 17.123C342.142 17.123 341.08 16.0617 341.08 14.7573ZM350.057 12.3917C348.753 12.3917 347.691 13.4529 347.691 14.7573C347.691 16.0617 348.753 17.123 350.057 17.123C351.361 17.123 352.423 16.0617 352.423 14.7573C352.423 13.4529 351.361 12.3917 350.057 12.3917ZM360.914 14.7573C360.914 13.4529 361.975 12.3917 363.28 12.3917C364.584 12.3917 365.645 13.4529 365.645 14.7573C365.645 16.0617 364.584 17.123 363.28 17.123C361.975 17.123 360.914 16.0617 360.914 14.7573ZM356.668 12.3917C355.364 12.3917 354.302 13.4529 354.302 14.7573C354.302 16.0617 355.363 17.123 356.667 17.123C357.972 17.123 359.033 16.0617 359.033 14.7573C359.034 13.4529 357.973 12.3917 356.668 12.3917ZM350.055 3.74686C351.162 3.74686 351.996 4.58142 351.996 5.6878C351.996 6.79364 351.162 7.62873 350.055 7.62873C348.949 7.62873 348.114 6.79364 348.114 5.6878C348.114 4.58142 348.949 3.74686 350.055 3.74686ZM350.056 2.99566C348.522 2.99566 347.301 4.15406 347.301 5.6878C347.301 7.22154 348.521 8.37994 350.056 8.37994C351.589 8.37994 352.81 7.22154 352.81 5.6878C352.81 4.15353 351.589 2.99566 350.056 2.99566ZM363.245 3.74686C364.352 3.74686 365.186 4.58142 365.186 5.6878C365.186 6.79364 364.351 7.62873 363.245 7.62873C362.139 7.62873 361.304 6.79364 361.304 5.6878C361.304 4.58142 362.139 3.74686 363.245 3.74686ZM363.245 2.99566C361.722 2.99566 360.49 4.15406 360.49 5.6878C360.49 7.23216 361.712 8.37994 363.193 8.37994C364.153 8.37994 364.8 7.90001 365.124 7.34683H365.166V8.03539C365.166 8.27535 365.322 8.44205 365.583 8.44205C365.833 8.44205 366 8.27535 366 8.03539V5.67718C366 4.14344 364.779 2.99566 363.245 2.99566Z" fill="black"/>
</g>
</svg>
