<svg width="24" height="24" viewBox="0 0 24 24" fill="none" xmlns="http://www.w3.org/2000/svg">
<path d="M21.5904 16.8813L19.1533 15.4739L21.2652 14.2283C21.6548 13.9985 21.7844 13.4964 21.5547 13.1068C21.325 12.7173 20.8231 12.5877 20.4334 12.8173L17.5241 14.5332L13.1376 11.9999L17.5234 9.46717L20.4336 11.1828C20.564 11.2598 20.7073 11.2963 20.8485 11.2963C21.1289 11.2963 21.4019 11.1521 21.5547 10.893C21.7843 10.5034 21.6546 10.0013 21.265 9.77151L19.1527 8.52631L21.5904 7.11861C21.982 6.89246 22.1162 6.39156 21.8901 5.99986C21.664 5.60806 21.1632 5.47385 20.7716 5.70011L18.3344 7.10758L18.3123 4.65485C18.3082 4.20255 17.9373 3.83706 17.4861 3.84328C17.0339 3.84732 16.6706 4.21729 16.6748 4.66959L16.7052 8.04834L12.3189 10.5814V5.51567L15.2597 3.85322C15.6534 3.63067 15.7922 3.13108 15.5697 2.7372C15.3472 2.34342 14.8476 2.20452 14.4539 2.42718L12.3189 3.63416V0.818997C12.3189 0.366692 11.9523 0 11.5001 0C11.0479 0 10.6812 0.366692 10.6812 0.818997V3.63416L8.54621 2.42729C8.1523 2.20463 7.65304 2.34342 7.43043 2.73731C7.20794 3.13108 7.3467 3.63078 7.74038 3.85333L10.6811 5.51578V10.5814L6.29479 8.04834L6.32525 4.66959C6.3294 4.21729 5.96607 3.84732 5.51386 3.84328C5.51135 3.84328 5.50895 3.84328 5.50633 3.84328C5.05762 3.84328 4.69177 4.20506 4.68773 4.65496L4.66557 7.10758L2.22845 5.70011C1.83683 5.47385 1.33605 5.60816 1.10994 5.99986C0.883841 6.39156 1.01802 6.89246 1.40963 7.11861L3.84719 8.52631L1.73454 9.77173C1.345 10.0014 1.2153 10.5035 1.44489 10.8932C1.59763 11.1523 1.87068 11.2965 2.15115 11.2965C2.29242 11.2965 2.43555 11.2599 2.56613 11.183L5.47663 9.46739L9.86253 12.0002L5.47587 14.5334L2.56613 12.8172C2.17681 12.5875 1.6746 12.7171 1.44489 13.1067C1.21519 13.4963 1.34478 13.9984 1.73432 14.2281L3.84664 15.4738L1.40952 16.8812C1.01791 17.1073 0.883732 17.6082 1.10983 17.9999C1.26148 18.2627 1.53671 18.4095 1.81969 18.4095C1.95856 18.4095 2.0994 18.3741 2.22834 18.2997L4.66546 16.8922L4.68762 19.345C4.69166 19.7948 5.05751 20.1567 5.50622 20.1567C5.50873 20.1567 5.51124 20.1567 5.51375 20.1566C5.96596 20.1526 6.32929 19.7826 6.32514 19.3303L6.29468 15.9514L10.6811 13.4183V18.4842L7.74038 20.1467C7.3467 20.3692 7.20794 20.8688 7.43043 21.2627C7.58099 21.5291 7.8584 21.6789 8.144 21.6789C8.28047 21.6789 8.41891 21.6447 8.54621 21.5727L10.6812 20.3658V23.181C10.6812 23.6333 11.0479 24 11.5001 24C11.9523 24 12.3189 23.6333 12.3189 23.181V20.3658L14.4539 21.5727C14.5812 21.6447 14.7195 21.6789 14.8561 21.6789C15.1417 21.6789 15.4191 21.5291 15.5697 21.2627C15.7922 20.8689 15.6534 20.3692 15.2597 20.1467L12.3189 18.4842V13.4184L16.7052 15.9514L16.674 19.3302C16.6697 19.7825 17.033 20.1526 17.4852 20.1567C17.4878 20.1568 17.4903 20.1568 17.4929 20.1568C17.9415 20.1568 18.3074 19.7951 18.3115 19.3454L18.3342 16.8922L20.7717 18.2998C20.9006 18.3743 21.0414 18.4096 21.1803 18.4096C21.4633 18.4096 21.7385 18.2627 21.8902 18C22.1163 17.6083 21.9821 17.1074 21.5904 16.8813Z" fill="#696969"/>
</svg>
