<svg xmlns="http://www.w3.org/2000/svg" width="21" height="32" fill="none"><path fill="#696969" d="M16.3 17.2c0-3.4-1.8-6.4-4.7-7.7v-3c0-.5-.4-.9-.9-.9H9.3V3.1h6c.6 0 1-.5 1-1s-.4-1-1-1l-9 .1h-.1C5.6 1.2 5 1 4.7.4A.9.9 0 0 0 3.4.2a1 1 0 0 0-.2 1.3C4 2.5 5 3 6.2 3h1.3v2.5H6a1 1 0 0 0-.9 1v2.9a8.5 8.5 0 0 0-4.7 7.7V31c0 .5.4.9.9.9h14.2c.5 0 .8-.4.8-1V17.3ZM2.2 18.8h12.4v5.4H2.2v-5.4ZM6.9 7.5h3v1.7h-3V7.5ZM6.2 11h4.4c2.3 1 3.9 3.3 4 6H2.2c0-2.7 1.7-5 4-6Zm-4 19.1v-4h12.4v4H2.2Z"/><path fill="#FF7300" d="M18.4 4.4a.9.9 0 0 0-1.3 0c-.2.2-2 2.5-2 4.8 0 1.7 1.4 2.7 2.7 2.7 1.2 0 2.5-1 2.6-2.7 0-2.3-1.8-4.6-2-4.8Zm.2 4.7c0 .8-.7.9-.8.9-.2 0-.9 0-1-.9 0-.8.5-1.8 1-2.5.4.7.9 1.7.8 2.5Z"/></svg>