<svg width="64" height="58" viewBox="0 0 64 58" fill="none" xmlns="http://www.w3.org/2000/svg">
<path d="M54.1776 4.91003C35.9906 -6.20908 7.67698 3.93171 4.38248 11.9481C-0.0248351 22.6724 7.39311 24.5054 8.77111 33.2929C9.87679 40.3437 2.97345 47.0962 6.91407 53.3206C11.2052 60.0991 25.4306 58.3969 30.8376 55.1892C40.7351 49.3175 35.7434 42.4633 40.4302 33.9098C44.894 25.763 53.5978 29.067 58.6631 22.5497C63.4773 16.3555 60.2842 8.64344 54.1776 4.91003Z" fill="url(#paint0_linear_1847_15210)"/>
<path opacity="0.1" d="M54.6468 51.2981H9.4567C8.51833 51.2981 7.75757 50.5351 7.75757 49.5939V13.8895C7.75757 12.9483 8.51833 12.1853 9.4567 12.1853H54.6468C55.5851 12.1853 56.3459 12.9483 56.3459 13.8895V49.5939C56.3459 50.5352 55.5852 51.2981 54.6468 51.2981Z" fill="black"/>
<path d="M54.6468 48.5714H9.4567C8.51833 48.5714 7.75757 47.8084 7.75757 46.8673V11.1628C7.75757 10.2216 8.51833 9.45862 9.4567 9.45862H54.6468C55.5851 9.45862 56.3459 10.2216 56.3459 11.1628V46.8673C56.3459 47.8085 55.5852 48.5714 54.6468 48.5714Z" fill="white"/>
<path d="M56.3459 17.3334V11.1628C56.3459 10.2216 55.5851 9.45862 54.6468 9.45862H9.4567C8.51833 9.45862 7.75757 10.2216 7.75757 11.1628V17.3334H56.3459Z" fill="#FF6400"/>
<path d="M54.6467 49.1396H9.45667C8.20747 49.1396 7.19116 48.1202 7.19116 46.8673V11.1629C7.19116 9.90995 8.20747 8.89062 9.45667 8.89062H54.6467C55.8959 8.89062 56.9122 9.90995 56.9122 11.1629V46.8673C56.9122 48.1202 55.8959 49.1396 54.6467 49.1396ZM9.45667 10.0267C8.83207 10.0267 8.32392 10.5364 8.32392 11.1629V46.8673C8.32392 47.4938 8.83207 48.0034 9.45667 48.0034H54.6467C55.2713 48.0034 55.7795 47.4938 55.7795 46.8673V11.1629C55.7795 10.5364 55.2713 10.0267 54.6467 10.0267H9.45667Z" fill="black"/>
<path d="M12.7521 14.8897C13.4341 14.8897 13.987 14.3352 13.987 13.6512C13.987 12.9672 13.4341 12.4127 12.7521 12.4127C12.0702 12.4127 11.5173 12.9672 11.5173 13.6512C11.5173 14.3352 12.0702 14.8897 12.7521 14.8897Z" fill="white"/>
<path d="M16.6943 14.8897C17.3763 14.8897 17.9291 14.3352 17.9291 13.6512C17.9291 12.9672 17.3763 12.4127 16.6943 12.4127C16.0123 12.4127 15.4595 12.9672 15.4595 13.6512C15.4595 14.3352 16.0123 14.8897 16.6943 14.8897Z" fill="white"/>
<path d="M20.6362 14.8897C21.3182 14.8897 21.871 14.3352 21.871 13.6512C21.871 12.9672 21.3182 12.4127 20.6362 12.4127C19.9542 12.4127 19.4014 12.9672 19.4014 13.6512C19.4014 14.3352 19.9542 14.8897 20.6362 14.8897Z" fill="white"/>
<path d="M52.0195 15.0426H36.5962V12.2596H52.0195C52.3323 12.2596 52.5859 12.514 52.5859 12.8277V14.4746C52.5859 14.7883 52.3324 15.0426 52.0195 15.0426Z" fill="#FFB588"/>
<path d="M36.6719 12.2949C36.0732 11.6943 35.0989 11.6943 34.5001 12.2949C33.9013 12.8955 33.9013 13.8726 34.5001 14.4732C34.9574 14.9318 35.6332 15.039 36.1939 14.7972L36.6864 15.2912C36.9075 15.513 37.2663 15.513 37.4874 15.2912C37.7086 15.0694 37.7086 14.7096 37.4874 14.4878L36.9949 13.9939C37.236 13.4314 37.1292 12.7536 36.6719 12.2949ZM35.3011 13.0982C35.4582 12.9407 35.7138 12.9407 35.871 13.0982C36.0281 13.2558 36.0281 13.5123 35.871 13.6698C35.7138 13.8274 35.4582 13.8274 35.3011 13.6698C35.144 13.5123 35.144 13.2558 35.3011 13.0982Z" fill="white"/>
<path d="M51.9664 44.7194H12.0307C11.718 44.7194 11.4644 44.4651 11.4644 44.1514V20.6652C11.4644 20.3515 11.718 20.0972 12.0307 20.0972H51.9665C52.2793 20.0972 52.5329 20.3515 52.5329 20.6652V44.1513C52.5328 44.465 52.2793 44.7194 51.9664 44.7194Z" fill="#FFB588"/>
<path d="M50.6185 23.4492L50.259 23.0886L50.6185 22.728C50.8396 22.5062 50.8396 22.1464 50.6185 21.9246C50.3973 21.7029 50.0387 21.7029 49.8176 21.9246L49.458 22.2852L49.0985 21.9246C48.8773 21.7029 48.5186 21.7029 48.2975 21.9246C48.0763 22.1464 48.0763 22.5062 48.2975 22.728L48.657 23.0886L48.2975 23.4492C48.0763 23.671 48.0763 24.0307 48.2975 24.2525C48.5186 24.4744 48.8774 24.4744 49.0985 24.2525L49.458 23.8919L49.8176 24.2525C50.0388 24.4743 50.3974 24.4743 50.6185 24.2525C50.8397 24.0308 50.8397 23.6711 50.6185 23.4492Z" fill="white"/>
<path d="M36.5935 28.7301L32.9742 22.5716C32.5361 21.8259 31.4608 21.8259 31.0225 22.5716L27.4032 28.7301C26.9582 29.4875 27.5026 30.4432 28.3791 30.4432H35.6176C36.4941 30.4431 37.0386 29.4875 36.5935 28.7301Z" fill="#FF6400"/>
<path d="M31.9983 27.4956C31.6855 27.4956 31.4319 27.2412 31.4319 26.9275V24.6461C31.4319 24.3324 31.6855 24.078 31.9983 24.078C32.311 24.078 32.5646 24.3324 32.5646 24.6461V26.9275C32.5646 27.2412 32.311 27.4956 31.9983 27.4956Z" fill="white"/>
<path d="M31.9983 29.2339C32.3111 29.2339 32.5646 28.9796 32.5646 28.6658C32.5646 28.3521 32.3111 28.0978 31.9983 28.0978C31.6855 28.0978 31.4319 28.3521 31.4319 28.6658C31.4319 28.9796 31.6855 29.2339 31.9983 29.2339Z" fill="white"/>
<path d="M18.4236 41.2094H45.5734C45.8861 41.2094 46.1398 41.4637 46.1398 41.7774C46.1398 42.0911 45.8861 42.3455 45.5734 42.3455H18.4236C18.1108 42.3455 17.8572 42.0911 17.8572 41.7774C17.8572 41.4637 18.1107 41.2094 18.4236 41.2094Z" fill="white"/>
<path d="M20.6325 38.8853H43.3646C43.6774 38.8853 43.931 39.1396 43.931 39.4533C43.931 39.767 43.6774 40.0214 43.3646 40.0214H20.6325C20.3198 40.0214 20.0662 39.767 20.0662 39.4533C20.0662 39.1396 20.3197 38.8853 20.6325 38.8853Z" fill="white"/>
<path d="M20.6325 32.9362H43.3646C43.6774 32.9362 43.931 33.1905 43.931 33.5042C43.931 33.8179 43.6774 34.0723 43.3646 34.0723H20.6325C20.3198 34.0723 20.0662 33.8179 20.0662 33.5042C20.0662 33.1904 20.3197 32.9362 20.6325 32.9362Z" fill="white"/>
<path d="M24.2696 35.2603H20.6323C20.3195 35.2603 20.0659 35.5145 20.0659 35.8283C20.0659 36.142 20.3195 36.3964 20.6323 36.3964H24.2696C24.5823 36.3964 24.8359 36.142 24.8359 35.8283C24.8359 35.5146 24.5824 35.2603 24.2696 35.2603Z" fill="white"/>
<path d="M27.0046 35.8283C27.0046 36.142 27.2583 36.3964 27.571 36.3964H43.3644C43.6772 36.3964 43.9308 36.142 43.9308 35.8283C43.9308 35.5145 43.6772 35.2603 43.3644 35.2603H27.571C27.2583 35.2603 27.0046 35.5146 27.0046 35.8283Z" fill="white"/>
<path d="M27.0048 6.99091C26.1122 6.99091 25.386 6.26254 25.386 5.36728C25.386 4.4719 26.1122 3.74353 27.0048 3.74353C27.8974 3.74353 28.6237 4.4719 28.6237 5.36728C28.6237 6.26254 27.8975 6.99091 27.0048 6.99091ZM27.0048 4.87965C26.7368 4.87965 26.5187 5.09847 26.5187 5.36728C26.5187 5.63608 26.7368 5.85479 27.0048 5.85479C27.2728 5.85479 27.491 5.63608 27.491 5.36728C27.491 5.09847 27.2729 4.87965 27.0048 4.87965Z" fill="#FF9D33"/>
<path d="M21.5976 5.76877C21.2848 5.76877 21.0312 5.5145 21.0312 5.20071C21.0312 4.82477 20.7264 4.51903 20.3515 4.51903C20.0388 4.51903 19.7852 4.26477 19.7852 3.95097C19.7852 3.63718 20.0388 3.38291 20.3515 3.38291C20.7264 3.38291 21.0312 3.07718 21.0312 2.70124C21.0312 2.38744 21.2848 2.13318 21.5976 2.13318C21.9103 2.13318 22.1639 2.38744 22.1639 2.70124C22.1639 3.07718 22.4688 3.38291 22.8436 3.38291C23.1563 3.38291 23.41 3.63718 23.41 3.95097C23.41 4.26477 23.1563 4.51903 22.8436 4.51903C22.4688 4.51903 22.1639 4.82477 22.1639 5.20071C22.1639 5.51439 21.9103 5.76877 21.5976 5.76877Z" fill="#49C2F8"/>
<path d="M38.438 54.59C37.5454 54.59 36.8191 53.8617 36.8191 52.9663C36.8191 52.071 37.5453 51.3427 38.438 51.3427C39.3306 51.3427 40.0568 52.071 40.0568 52.9663C40.0568 53.8617 39.3306 54.59 38.438 54.59ZM38.438 52.4788C38.17 52.4788 37.9518 52.6975 37.9518 52.9663C37.9518 53.2351 38.1699 53.4539 38.438 53.4539C38.706 53.4539 38.9241 53.2351 38.9241 52.9663C38.9241 52.6975 38.706 52.4788 38.438 52.4788Z" fill="#FF6400"/>
<path d="M43.8681 53.7285C43.5553 53.7285 43.3017 53.4742 43.3017 53.1604C43.3017 52.7845 42.9969 52.4788 42.622 52.4788C42.3093 52.4788 42.0557 52.2245 42.0557 51.9107C42.0557 51.5969 42.3093 51.3426 42.622 51.3426C42.9969 51.3426 43.3017 51.0369 43.3017 50.661C43.3017 50.3472 43.5553 50.0929 43.8681 50.0929C44.1808 50.0929 44.4344 50.3472 44.4344 50.661C44.4344 51.0369 44.7393 51.3426 45.1141 51.3426C45.4269 51.3426 45.6805 51.5969 45.6805 51.9107C45.6805 52.2245 45.4269 52.4788 45.1141 52.4788C44.7393 52.4788 44.4344 52.7845 44.4344 53.1604C44.4344 53.4742 44.1808 53.7285 43.8681 53.7285Z" fill="#6C6CFF"/>
<path d="M12.1439 54.0693C11.8312 54.0693 11.5776 53.815 11.5776 53.5012C11.5776 53.1253 11.2727 52.8196 10.8979 52.8196C10.5852 52.8196 10.3315 52.5653 10.3315 52.2515C10.3315 51.9377 10.5852 51.6834 10.8979 51.6834C11.2727 51.6834 11.5776 51.3777 11.5776 51.0018C11.5776 50.688 11.8312 50.4337 12.1439 50.4337C12.4567 50.4337 12.7103 50.688 12.7103 51.0018C12.7103 51.3777 13.0151 51.6834 13.39 51.6834C13.7027 51.6834 13.9564 51.9377 13.9564 52.2515C13.9564 52.5653 13.7027 52.8196 13.39 52.8196C13.0151 52.8196 12.7103 53.1253 12.7103 53.5012C12.7103 53.815 12.4567 54.0693 12.1439 54.0693Z" fill="#49C2F8"/>
<defs>
<linearGradient id="paint0_linear_1847_15210" x1="21.5162" y1="-35.069" x2="-53.5693" y2="29.1623" gradientUnits="userSpaceOnUse">
<stop stop-color="#FFC2A3" stop-opacity="0.01"/>
<stop offset="1" stop-color="#FFC599"/>
</linearGradient>
</defs>
</svg>
