<svg width="26" height="16" viewBox="0 0 26 16" fill="none" xmlns="http://www.w3.org/2000/svg">
<path d="M5.88525 14.668L5.88525 14.668C5.99705 14.9374 6.25619 15.1 6.5294 15.1C6.61939 15.1 6.71073 15.0823 6.79849 15.0454L6.79855 15.0454L8.22527 14.4442C8.86644 14.5854 9.53182 14.6604 10.2144 14.6604H15.7857C16.5956 14.6604 17.3815 14.5552 18.1313 14.3584L19.7617 15.0454C19.7617 15.0454 19.7617 15.0454 19.7617 15.0454C19.8496 15.0825 19.9409 15.1 20.0308 15.1C20.304 15.1 20.5633 14.9373 20.675 14.668C20.8232 14.3106 20.6562 13.8992 20.3004 13.7493L20.0221 13.632C23.0341 12.0753 25.1 8.91287 25.1 5.27333C25.1 4.88607 24.7883 4.5708 24.4022 4.5708H4.7147V2.30506H6.39353V3.33008C6.39353 3.71733 6.70521 4.03261 7.09134 4.03261C7.47747 4.03261 7.78915 3.71733 7.78915 3.33008V1.60253C7.78915 1.21528 7.47747 0.9 7.09134 0.9H4.01689C3.63076 0.9 3.31908 1.21528 3.31908 1.60253V4.5708H1.59781C1.21168 4.5708 0.9 4.88607 0.9 5.27333C0.9 9.01587 3.08462 12.2534 6.23599 13.7598C5.89664 13.9177 5.74039 14.3187 5.88525 14.668ZM15.7857 13.2553H10.2144C6.0836 13.2553 2.68008 10.05 2.32607 5.97577H23.6741C23.32 10.05 19.9165 13.2553 15.7857 13.2553Z" fill="#696969" stroke="#696969" stroke-width="0.2"/>
</svg>
