<svg width="34" height="33" viewBox="0 0 34 33" fill="none" xmlns="http://www.w3.org/2000/svg">
<path fill-rule="evenodd" clip-rule="evenodd" d="M32.5 28.0966H32V11.5449C32.0001 11.2921 31.8234 11.0763 31.5823 11.0348L28 10.4174V6.30103L28.5742 6.21196C28.8474 6.16957 29.0356 5.9061 28.9946 5.6235C28.9537 5.34089 28.699 5.14616 28.4258 5.18855L16.4258 7.05061C16.1669 7.09049 15.9815 7.33023 16.0008 7.6003C16.0201 7.87038 16.2375 8.07935 16.4993 8.07945C16.5243 8.07934 16.5494 8.07749 16.5743 8.07391L17 8.00771V9.47599H13V4.82084C13 4.59236 12.8551 4.39093 12.6435 4.32533L2.64355 1.2219C2.49216 1.17482 2.32816 1.20463 2.20134 1.30227C2.07453 1.39992 1.99986 1.55388 2 1.71741V28.0966H1.5C1.22386 28.0966 1 28.3282 1 28.6138V30.6828C1 30.9684 1.22386 31.2 1.5 31.2H32.5C32.7761 31.2 33 30.9684 33 30.6828V28.6138C33 28.3282 32.7761 28.0966 32.5 28.0966ZM31 28.0966H29V26.0276C29 25.742 28.7761 25.5104 28.5 25.5104C28.2239 25.5104 28 25.742 28 26.0276V28.0966H26V11.1212L31 11.9829V28.0966ZM27 6.45606L18 7.8526V9.476H19.5C19.7761 9.476 20 9.70758 20 9.99324V28.0966H21V24.4759C21 24.1903 21.2239 23.9587 21.5 23.9587H23.5C23.7761 23.9587 24 24.1903 24 24.4759V28.0966H25V10.5105C25 10.3584 25.0646 10.214 25.1768 10.1157C25.289 10.0174 25.4373 9.97514 25.5823 10.0002L27 10.2446V6.45606ZM22 28.0966V24.9931H23V28.0966H22ZM17 24.4759V28.0966H19V10.5105H12V28.0966H14V24.4759C14 24.1902 14.2239 23.9587 14.5 23.9587H16.5C16.7761 23.9587 17 24.1902 17 24.4759ZM16 28.0966H15V24.9931H16V28.0966ZM12 5.20557L3 2.41249V28.0966H6.5V24.2173C6.5 23.9316 6.72386 23.7001 7 23.7001H9.5C9.77614 23.7001 10 23.9316 10 24.2173V28.0966H11V9.99324C11 9.70757 11.2239 9.476 11.5 9.476H12V5.20557ZM7.5 28.0966V24.7345H9V28.0966H7.5ZM2 29.1311V30.1655H32V29.1311H2Z" fill="#696969"/>
<path d="M32 28.0966H31.85V28.2466H32V28.0966ZM32 11.5449L31.85 11.5449V11.5449H32ZM31.5823 11.0348L31.5568 11.1826L31.5569 11.1826L31.5823 11.0348ZM28 10.4174H27.85V10.5437L27.9745 10.5652L28 10.4174ZM28 6.30103L27.977 6.1528L27.85 6.1725V6.30103H28ZM28.5742 6.21196L28.5972 6.36019L28.5972 6.36018L28.5742 6.21196ZM28.9946 5.6235L29.1431 5.60197L28.9946 5.6235ZM28.4258 5.18855L28.4488 5.33678V5.33678L28.4258 5.18855ZM16.4258 7.05061L16.4486 7.19886L16.4488 7.19883L16.4258 7.05061ZM16.4993 8.07945L16.4992 8.22945L16.4999 8.22945L16.4993 8.07945ZM16.5743 8.07391L16.5956 8.22239L16.5973 8.22213L16.5743 8.07391ZM17 8.00771H17.15V7.83258L16.977 7.85949L17 8.00771ZM17 9.47599V9.62599H17.15V9.47599H17ZM13 9.47599H12.85V9.62599H13V9.47599ZM13 4.82084L12.85 4.82083V4.82084H13ZM12.6435 4.32533L12.5991 4.46859L12.5991 4.4686L12.6435 4.32533ZM2.64355 1.2219L2.59901 1.36513L2.59909 1.36516L2.64355 1.2219ZM2.20134 1.30227L2.10983 1.18342V1.18342L2.20134 1.30227ZM2 1.71741H2.15L2.15 1.71728L2 1.71741ZM2 28.0966V28.2466H2.15V28.0966H2ZM29 28.0966H28.85V28.2466H29V28.0966ZM31 28.0966V28.2466H31.15V28.0966H31ZM28 28.0966V28.2466H28.15V28.0966H28ZM26 28.0966H25.85V28.2466H26V28.0966ZM26 11.1212L26.0255 10.9734L25.85 10.9431V11.1212H26ZM31 11.9829H31.15V11.8565L31.0255 11.8351L31 11.9829ZM18 7.8526L17.977 7.70437L17.85 7.72408V7.8526H18ZM27 6.45606H27.15V6.28098L26.977 6.30783L27 6.45606ZM18 9.476H17.85V9.626H18V9.476ZM20 28.0966H19.85V28.2466H20V28.0966ZM21 28.0966V28.2466H21.15V28.0966H21ZM24 28.0966H23.85V28.2466H24V28.0966ZM25 28.0966V28.2466H25.15V28.0966H25ZM25 10.5105H25.15V10.5104L25 10.5105ZM25.5823 10.0002L25.5568 10.148L25.5568 10.148L25.5823 10.0002ZM27 10.2446L26.9745 10.3924L27.15 10.4227V10.2446H27ZM22 24.9931V24.8431H21.85V24.9931H22ZM22 28.0966H21.85V28.2466H22V28.0966ZM23 24.9931H23.15V24.8431H23V24.9931ZM23 28.0966V28.2466H23.15V28.0966H23ZM17 28.0966H16.85V28.2466H17V28.0966ZM19 28.0966V28.2466H19.15V28.0966H19ZM19 10.5105H19.15V10.3605H19V10.5105ZM12 10.5105V10.3605H11.85V10.5105H12ZM12 28.0966H11.85V28.2466H12V28.0966ZM14 28.0966V28.2466H14.15V28.0966H14ZM15 28.0966H14.85V28.2466H15V28.0966ZM16 28.0966V28.2466H16.15V28.0966H16ZM15 24.9931V24.8431H14.85V24.9931H15ZM16 24.9931H16.15V24.8431H16V24.9931ZM3 2.41249L3.04446 2.26923L2.85 2.20888V2.41249H3ZM12 5.20557H12.15V5.09507L12.0445 5.06231L12 5.20557ZM3 28.0966H2.85V28.2466H3V28.0966ZM6.5 28.0966V28.2466H6.65V28.0966H6.5ZM10 28.0966H9.85V28.2466H10V28.0966ZM11 28.0966V28.2466H11.15V28.0966H11ZM12 9.476V9.626H12.15V9.476H12ZM7.5 24.7345V24.5845H7.35V24.7345H7.5ZM7.5 28.0966H7.35V28.2466H7.5V28.0966ZM9 24.7345H9.15V24.5845H9V24.7345ZM9 28.0966V28.2466H9.15V28.0966H9ZM2 30.1655H1.85V30.3155H2V30.1655ZM2 29.1311V28.9811H1.85V29.1311H2ZM32 30.1655V30.3155H32.15V30.1655H32ZM32 29.1311H32.15V28.9811H32V29.1311ZM32 28.2466H32.5V27.9466H32V28.2466ZM31.85 11.5449V28.0966H32.15V11.5449H31.85ZM31.5569 11.1826C31.7224 11.2111 31.8501 11.3614 31.85 11.5449L32.15 11.545C32.1501 11.2228 31.9244 10.9415 31.6077 10.887L31.5569 11.1826ZM27.9745 10.5652L31.5568 11.1826L31.6078 10.887L28.0255 10.2695L27.9745 10.5652ZM27.85 6.30103V10.4174H28.15V6.30103H27.85ZM28.5512 6.06373L27.977 6.1528L28.023 6.44925L28.5972 6.36019L28.5512 6.06373ZM28.8462 5.64502C28.876 5.85072 28.7387 6.03464 28.5512 6.06373L28.5972 6.36018C28.9561 6.30449 29.1952 5.96148 29.1431 5.60197L28.8462 5.64502ZM28.4488 5.33678C28.635 5.30788 28.8165 5.44034 28.8462 5.64502L29.1431 5.60197C29.0908 5.24144 28.763 4.98443 28.4028 5.04032L28.4488 5.33678ZM16.4488 7.19883L28.4488 5.33678L28.4028 5.04032L16.4028 6.90238L16.4488 7.19883ZM16.1504 7.58962C16.1364 7.3933 16.2709 7.22623 16.4486 7.19886L16.403 6.90236C16.0628 6.95474 15.8266 7.26715 15.8512 7.61099L16.1504 7.58962ZM16.4993 7.92945C16.3204 7.92938 16.1644 7.78554 16.1504 7.58962L15.8512 7.61099C15.8757 7.95523 16.1545 8.22932 16.4992 8.22945L16.4993 7.92945ZM16.5529 7.92544C16.5349 7.92803 16.5168 7.92937 16.4986 7.92945L16.4999 8.22945C16.5319 8.22931 16.5639 8.22695 16.5956 8.22238L16.5529 7.92544ZM16.977 7.85949L16.5512 7.92569L16.5973 8.22213L17.023 8.15593L16.977 7.85949ZM17.15 9.47599V8.00771H16.85V9.47599H17.15ZM13 9.62599H17V9.32599H13V9.62599ZM12.85 4.82084V9.47599H13.15V4.82084H12.85ZM12.5991 4.4686C12.7452 4.5139 12.85 4.65522 12.85 4.82083L13.15 4.82086C13.15 4.5295 12.965 4.26796 12.688 4.18206L12.5991 4.4686ZM2.59909 1.36516L12.5991 4.46859L12.688 4.18207L2.68801 1.07864L2.59909 1.36516ZM2.29285 1.42112C2.38143 1.35292 2.49476 1.33272 2.59901 1.36513L2.68809 1.07866C2.48955 1.01693 2.27489 1.05633 2.10983 1.18342L2.29285 1.42112ZM2.15 1.71728C2.1499 1.59915 2.20389 1.48962 2.29285 1.42112L2.10983 1.18342C1.94517 1.31021 1.84982 1.50861 1.85 1.71754L2.15 1.71728ZM2.15 28.0966V1.71741H1.85V28.0966H2.15ZM1.5 28.2466H2V27.9466H1.5V28.2466ZM1.15 28.6138C1.15 28.4062 1.31145 28.2466 1.5 28.2466V27.9466C1.13626 27.9466 0.85 28.2501 0.85 28.6138H1.15ZM1.15 30.6828V28.6138H0.85V30.6828H1.15ZM1.5 31.05C1.31145 31.05 1.15 30.8904 1.15 30.6828H0.85C0.85 31.0464 1.13626 31.35 1.5 31.35V31.05ZM32.5 31.05H1.5V31.35H32.5V31.05ZM32.85 30.6828C32.85 30.8904 32.6885 31.05 32.5 31.05V31.35C32.8637 31.35 33.15 31.0464 33.15 30.6828H32.85ZM32.85 28.6138V30.6828H33.15V28.6138H32.85ZM32.5 28.2466C32.6885 28.2466 32.85 28.4062 32.85 28.6138H33.15C33.15 28.2501 32.8637 27.9466 32.5 27.9466V28.2466ZM29 28.2466H31V27.9466H29V28.2466ZM28.85 26.0276V28.0966H29.15V26.0276H28.85ZM28.5 25.6604C28.6885 25.6604 28.85 25.82 28.85 26.0276H29.15C29.15 25.664 28.8637 25.3604 28.5 25.3604V25.6604ZM28.15 26.0276C28.15 25.82 28.3115 25.6604 28.5 25.6604V25.3604C28.1363 25.3604 27.85 25.664 27.85 26.0276H28.15ZM28.15 28.0966V26.0276H27.85V28.0966H28.15ZM26 28.2466H28V27.9466H26V28.2466ZM25.85 11.1212V28.0966H26.15V11.1212H25.85ZM31.0255 11.8351L26.0255 10.9734L25.9745 11.269L30.9745 12.1307L31.0255 11.8351ZM31.15 28.0966V11.9829H30.85V28.0966H31.15ZM18.023 8.00083L27.023 6.60428L26.977 6.30783L17.977 7.70437L18.023 8.00083ZM18.15 9.476V7.8526H17.85V9.476H18.15ZM19.5 9.326H18V9.626H19.5V9.326ZM20.15 9.99324C20.15 9.62957 19.8637 9.326 19.5 9.326V9.626C19.6885 9.626 19.85 9.78559 19.85 9.99324H20.15ZM20.15 28.0966V9.99324H19.85V28.0966H20.15ZM21 27.9466H20V28.2466H21V27.9466ZM20.85 24.4759V28.0966H21.15V24.4759H20.85ZM21.5 23.8087C21.1363 23.8087 20.85 24.1123 20.85 24.4759H21.15C21.15 24.2683 21.3115 24.1087 21.5 24.1087V23.8087ZM23.5 23.8087H21.5V24.1087H23.5V23.8087ZM24.15 24.4759C24.15 24.1123 23.8637 23.8087 23.5 23.8087V24.1087C23.6885 24.1087 23.85 24.2683 23.85 24.4759H24.15ZM24.15 28.0966V24.4759H23.85V28.0966H24.15ZM25 27.9466H24V28.2466H25V27.9466ZM24.85 10.5105V28.0966H25.15V10.5105H24.85ZM25.0779 10.0029C24.9325 10.1303 24.85 10.3162 24.85 10.5105L25.15 10.5104C25.15 10.4006 25.1967 10.2977 25.2757 10.2285L25.0779 10.0029ZM25.6078 9.85236C25.4175 9.8195 25.2236 9.87521 25.0779 10.0029L25.2757 10.2285C25.3543 10.1596 25.4571 10.1308 25.5568 10.148L25.6078 9.85236ZM27.0255 10.0968L25.6078 9.85236L25.5568 10.148L26.9745 10.3924L27.0255 10.0968ZM26.85 6.45606V10.2446H27.15V6.45606H26.85ZM21.85 24.9931V28.0966H22.15V24.9931H21.85ZM23 24.8431H22V25.1431H23V24.8431ZM23.15 28.0966V24.9931H22.85V28.0966H23.15ZM22 28.2466H23V27.9466H22V28.2466ZM17.15 28.0966V24.4759H16.85V28.0966H17.15ZM19 27.9466H17V28.2466H19V27.9466ZM18.85 10.5105V28.0966H19.15V10.5105H18.85ZM12 10.6605H19V10.3605H12V10.6605ZM12.15 28.0966V10.5105H11.85V28.0966H12.15ZM14 27.9466H12V28.2466H14V27.9466ZM13.85 24.4759V28.0966H14.15V24.4759H13.85ZM14.5 23.8087C14.1363 23.8087 13.85 24.1122 13.85 24.4759H14.15C14.15 24.2683 14.3115 24.1087 14.5 24.1087V23.8087ZM16.5 23.8087H14.5V24.1087H16.5V23.8087ZM17.15 24.4759C17.15 24.1122 16.8637 23.8087 16.5 23.8087V24.1087C16.6885 24.1087 16.85 24.2683 16.85 24.4759H17.15ZM15 28.2466H16V27.9466H15V28.2466ZM14.85 24.9931V28.0966H15.15V24.9931H14.85ZM16 24.8431H15V25.1431H16V24.8431ZM16.15 28.0966V24.9931H15.85V28.0966H16.15ZM2.95554 2.55574L11.9555 5.34883L12.0445 5.06231L3.04446 2.26923L2.95554 2.55574ZM3.15 28.0966V2.41249H2.85V28.0966H3.15ZM6.5 27.9466H3V28.2466H6.5V27.9466ZM6.35 24.2173V28.0966H6.65V24.2173H6.35ZM7 23.5501C6.63626 23.5501 6.35 23.8536 6.35 24.2173H6.65C6.65 24.0096 6.81145 23.8501 7 23.8501V23.5501ZM9.5 23.5501H7V23.8501H9.5V23.5501ZM10.15 24.2173C10.15 23.8536 9.86374 23.5501 9.5 23.5501V23.8501C9.68855 23.8501 9.85 24.0096 9.85 24.2173H10.15ZM10.15 28.0966V24.2173H9.85V28.0966H10.15ZM11 27.9466H10V28.2466H11V27.9466ZM10.85 9.99324V28.0966H11.15V9.99324H10.85ZM11.5 9.326C11.1363 9.326 10.85 9.62956 10.85 9.99324H11.15C11.15 9.78558 11.3115 9.626 11.5 9.626V9.326ZM12 9.326H11.5V9.626H12V9.326ZM11.85 5.20557V9.476H12.15V5.20557H11.85ZM7.35 24.7345V28.0966H7.65V24.7345H7.35ZM9 24.5845H7.5V24.8845H9V24.5845ZM9.15 28.0966V24.7345H8.85V28.0966H9.15ZM7.5 28.2466H9V27.9466H7.5V28.2466ZM2.15 30.1655V29.1311H1.85V30.1655H2.15ZM32 30.0155H2V30.3155H32V30.0155ZM31.85 29.1311V30.1655H32.15V29.1311H31.85ZM2 29.2811H32V28.9811H2V29.2811Z" fill="#696969"/>
<path fill-rule="evenodd" clip-rule="evenodd" d="M3.74286 5.65314C3.74286 5.26481 3.94753 4.95001 4.2 4.95001C4.45247 4.95001 4.65714 5.26481 4.65714 5.65314V7.05939C4.65714 7.44771 4.45247 7.76251 4.2 7.76251C3.94753 7.76251 3.74286 7.44771 3.74286 7.05939V5.65314ZM7.4 7.05939C7.4 7.44771 7.19533 7.76251 6.94286 7.76251C6.69039 7.76251 6.48572 7.44771 6.48572 7.05939V5.65314C6.48572 5.26481 6.69039 4.95001 6.94286 4.95001C7.19533 4.95001 7.4 5.26481 7.4 5.65314V7.05939ZM9.68572 7.76251C9.93819 7.76251 10.1429 7.44771 10.1429 7.05939V5.65314C10.1429 5.26481 9.93819 4.95001 9.68572 4.95001C9.43324 4.95001 9.22857 5.26481 9.22857 5.65314V7.05939C9.22857 7.44771 9.43324 7.76251 9.68572 7.76251ZM12.8857 12.2156C12.8857 11.8273 13.0904 11.5125 13.3429 11.5125C13.5953 11.5125 13.8 11.8273 13.8 12.2156V13.6219C13.8 14.0102 13.5953 14.325 13.3429 14.325C13.0904 14.325 12.8857 14.0102 12.8857 13.6219V12.2156ZM17 11.5125C16.7475 11.5125 16.5429 11.8273 16.5429 12.2156V13.6219C16.5429 14.0102 16.7475 14.325 17 14.325C17.2525 14.325 17.4571 14.0102 17.4571 13.6219V12.2156C17.4571 11.8273 17.2525 11.5125 17 11.5125ZM12.8857 15.9656C12.8857 15.5773 13.0904 15.2625 13.3429 15.2625C13.5953 15.2625 13.8 15.5773 13.8 15.9656V17.3719C13.8 17.7602 13.5953 18.075 13.3429 18.075C13.0904 18.075 12.8857 17.7602 12.8857 17.3719V15.9656ZM17 15.2625C16.7475 15.2625 16.5429 15.5773 16.5429 15.9656V17.3719C16.5429 17.7602 16.7475 18.075 17 18.075C17.2525 18.075 17.4571 17.7602 17.4571 17.3719V15.9656C17.4571 15.5773 17.2525 15.2625 17 15.2625ZM12.8857 19.7156C12.8857 19.3273 13.0904 19.0125 13.3429 19.0125C13.5953 19.0125 13.8 19.3273 13.8 19.7156V21.1219C13.8 21.5102 13.5953 21.825 13.3429 21.825C13.0904 21.825 12.8857 21.5102 12.8857 21.1219V19.7156ZM17 19.0125C16.7475 19.0125 16.5429 19.3273 16.5429 19.7156V21.1219C16.5429 21.5102 16.7475 21.825 17 21.825C17.2525 21.825 17.4571 21.5102 17.4571 21.1219V19.7156C17.4571 19.3273 17.2525 19.0125 17 19.0125ZM22.0286 14.5594C22.0286 14.9477 21.8239 15.2625 21.5714 15.2625C21.319 15.2625 21.1143 14.9477 21.1143 14.5594V13.1531C21.1143 12.7648 21.319 12.45 21.5714 12.45C21.8239 12.45 22.0286 12.7648 22.0286 13.1531V14.5594ZM23.4 15.2625C23.6525 15.2625 23.8571 14.9477 23.8571 14.5594V13.1531C23.8571 12.7648 23.6525 12.45 23.4 12.45C23.1475 12.45 22.9429 12.7648 22.9429 13.1531V14.5594C22.9429 14.9477 23.1475 15.2625 23.4 15.2625ZM22.0286 9.87189C22.0286 10.2602 21.8239 10.575 21.5714 10.575C21.319 10.575 21.1143 10.2602 21.1143 9.87189V8.46564C21.1143 8.07731 21.319 7.76251 21.5714 7.76251C21.8239 7.76251 22.0286 8.07731 22.0286 8.46564V9.87189ZM23.4 10.575C23.6525 10.575 23.8571 10.2602 23.8571 9.87189V8.46564C23.8571 8.07731 23.6525 7.76251 23.4 7.76251C23.1475 7.76251 22.9429 8.07731 22.9429 8.46564V9.87189C22.9429 10.2602 23.1475 10.575 23.4 10.575ZM22.0286 18.3094C22.0286 18.6977 21.8239 19.0125 21.5714 19.0125C21.319 19.0125 21.1143 18.6977 21.1143 18.3094V16.9031C21.1143 16.5148 21.319 16.2 21.5714 16.2C21.8239 16.2 22.0286 16.5148 22.0286 16.9031V18.3094ZM23.4 19.0125C23.6525 19.0125 23.8571 18.6977 23.8571 18.3094V16.9031C23.8571 16.5148 23.6525 16.2 23.4 16.2C23.1475 16.2 22.9429 16.5148 22.9429 16.9031V18.3094C22.9429 18.6977 23.1475 19.0125 23.4 19.0125ZM22.0286 22.9969C22.0286 23.3852 21.8239 23.7 21.5714 23.7C21.319 23.7 21.1143 23.3852 21.1143 22.9969V21.5906C21.1143 21.2023 21.319 20.8875 21.5714 20.8875C21.8239 20.8875 22.0286 21.2023 22.0286 21.5906V22.9969ZM23.4 23.7C23.6525 23.7 23.8571 23.3852 23.8571 22.9969V21.5906C23.8571 21.2023 23.6525 20.8875 23.4 20.8875C23.1475 20.8875 22.9429 21.2023 22.9429 21.5906V22.9969C22.9429 23.3852 23.1475 23.7 23.4 23.7ZM3.74286 9.40314C3.74286 9.01481 3.94753 8.70001 4.2 8.70001C4.45247 8.70001 4.65714 9.01481 4.65714 9.40314V10.8094C4.65714 11.1977 4.45247 11.5125 4.2 11.5125C3.94753 11.5125 3.74286 11.1977 3.74286 10.8094V9.40314ZM6.94286 11.5125C7.19533 11.5125 7.4 11.1977 7.4 10.8094V9.40314C7.4 9.01481 7.19533 8.70001 6.94286 8.70001C6.69039 8.70001 6.48572 9.01481 6.48572 9.40314V10.8094C6.48572 11.1977 6.69039 11.5125 6.94286 11.5125ZM10.1429 10.8094C10.1429 11.1977 9.93819 11.5125 9.68572 11.5125C9.43324 11.5125 9.22857 11.1977 9.22857 10.8094V9.40314C9.22857 9.01481 9.43324 8.70001 9.68572 8.70001C9.93819 8.70001 10.1429 9.01481 10.1429 9.40314V10.8094ZM4.2 12.45C3.94753 12.45 3.74286 12.7648 3.74286 13.1531V14.5594C3.74286 14.9477 3.94753 15.2625 4.2 15.2625C4.45247 15.2625 4.65714 14.9477 4.65714 14.5594V13.1531C4.65714 12.7648 4.45247 12.45 4.2 12.45ZM7.4 14.5594C7.4 14.9477 7.19533 15.2625 6.94286 15.2625C6.69039 15.2625 6.48572 14.9477 6.48572 14.5594V13.1531C6.48572 12.7648 6.69039 12.45 6.94286 12.45C7.19533 12.45 7.4 12.7648 7.4 13.1531V14.5594ZM9.68572 15.2625C9.93819 15.2625 10.1429 14.9477 10.1429 14.5594V13.1531C10.1429 12.7648 9.93819 12.45 9.68572 12.45C9.43324 12.45 9.22857 12.7648 9.22857 13.1531V14.5594C9.22857 14.9477 9.43324 15.2625 9.68572 15.2625ZM3.74286 16.9031C3.74286 16.5148 3.94753 16.2 4.2 16.2C4.45247 16.2 4.65714 16.5148 4.65714 16.9031V18.3094C4.65714 18.6977 4.45247 19.0125 4.2 19.0125C3.94753 19.0125 3.74286 18.6977 3.74286 18.3094V16.9031ZM6.94286 19.0125C7.19533 19.0125 7.4 18.6977 7.4 18.3094V16.9031C7.4 16.5148 7.19533 16.2 6.94286 16.2C6.69039 16.2 6.48572 16.5148 6.48572 16.9031V18.3094C6.48572 18.6977 6.69039 19.0125 6.94286 19.0125ZM10.1429 18.3094C10.1429 18.6977 9.93819 19.0125 9.68572 19.0125C9.43324 19.0125 9.22857 18.6977 9.22857 18.3094V16.9031C9.22857 16.5148 9.43324 16.2 9.68572 16.2C9.93819 16.2 10.1429 16.5148 10.1429 16.9031V18.3094ZM4.2 19.95C3.94753 19.95 3.74286 20.2648 3.74286 20.6531V22.0594C3.74286 22.4477 3.94753 22.7625 4.2 22.7625C3.94753 22.7625 3.74286 23.0773 3.74286 23.4656V24.8719C3.74286 25.2602 3.94753 25.575 4.2 25.575C4.45247 25.575 4.65714 25.2602 4.65714 24.8719V23.4656C4.65714 23.0773 4.45247 22.7625 4.2 22.7625C4.45247 22.7625 4.65714 22.4477 4.65714 22.0594V20.6531C4.65714 20.2648 4.45247 19.95 4.2 19.95ZM7.4 22.0594C7.4 22.4477 7.19533 22.7625 6.94286 22.7625C6.69039 22.7625 6.48572 22.4477 6.48572 22.0594V20.6531C6.48572 20.2648 6.69039 19.95 6.94286 19.95C7.19533 19.95 7.4 20.2648 7.4 20.6531V22.0594ZM9.68572 22.7625C9.93819 22.7625 10.1429 22.4477 10.1429 22.0594V20.6531C10.1429 20.2648 9.93819 19.95 9.68572 19.95C9.43324 19.95 9.22857 20.2648 9.22857 20.6531V22.0594C9.22857 22.4477 9.43324 22.7625 9.68572 22.7625ZM27.0571 15.2625C27.3096 15.2625 27.5143 14.9477 27.5143 14.5594V13.1531C27.5143 12.7648 27.3096 12.45 27.0571 12.45C26.8047 12.45 26.6 12.7648 26.6 13.1531V14.5594C26.6 14.9477 26.8047 15.2625 27.0571 15.2625ZM30.2571 14.5594C30.2571 14.9477 30.0525 15.2625 29.8 15.2625C29.5475 15.2625 29.3429 14.9477 29.3429 14.5594V13.1531C29.3429 12.7648 29.5475 12.45 29.8 12.45C30.0525 12.45 30.2571 12.7648 30.2571 13.1531V14.5594ZM27.0571 19.0125C27.3096 19.0125 27.5143 18.6977 27.5143 18.3094V16.9031C27.5143 16.5148 27.3096 16.2 27.0571 16.2C26.8047 16.2 26.6 16.5148 26.6 16.9031V18.3094C26.6 18.6977 26.8047 19.0125 27.0571 19.0125ZM30.2571 18.3094C30.2571 18.6977 30.0525 19.0125 29.8 19.0125C29.5475 19.0125 29.3429 18.6977 29.3429 18.3094V16.9031C29.3429 16.5148 29.5475 16.2 29.8 16.2C30.0525 16.2 30.2571 16.5148 30.2571 16.9031V18.3094ZM27.0571 22.7625C27.3096 22.7625 27.5143 22.4477 27.5143 22.0594V20.6531C27.5143 20.2648 27.3096 19.95 27.0571 19.95C26.8047 19.95 26.6 20.2648 26.6 20.6531V22.0594C26.6 22.4477 26.8047 22.7625 27.0571 22.7625ZM30.2571 22.0594C30.2571 22.4477 30.0525 22.7625 29.8 22.7625C29.5475 22.7625 29.3429 22.4477 29.3429 22.0594V20.6531C29.3429 20.2648 29.5475 19.95 29.8 19.95C30.0525 19.95 30.2571 20.2648 30.2571 20.6531V22.0594Z" fill="#FD6500"/>
<path d="M4.2 4.85001C4.02874 4.85001 3.88703 4.95669 3.79291 5.10144C3.69818 5.24715 3.64286 5.44248 3.64286 5.65314H3.84286C3.84286 5.47547 3.88987 5.31924 3.96059 5.21046C4.03193 5.10074 4.11879 5.05001 4.2 5.05001V4.85001ZM4.75714 5.65314C4.75714 5.44248 4.70182 5.24715 4.60709 5.10144C4.51297 4.95669 4.37126 4.85001 4.2 4.85001V5.05001C4.28122 5.05001 4.36807 5.10074 4.43941 5.21046C4.51013 5.31924 4.55714 5.47547 4.55714 5.65314H4.75714ZM4.75714 7.05939V5.65314H4.55714V7.05939H4.75714ZM4.2 7.86251C4.37126 7.86251 4.51297 7.75584 4.60709 7.61108C4.70182 7.46538 4.75714 7.27004 4.75714 7.05939H4.55714C4.55714 7.23706 4.51013 7.39329 4.43941 7.50206C4.36807 7.61179 4.28122 7.66251 4.2 7.66251V7.86251ZM3.64286 7.05939C3.64286 7.27004 3.69818 7.46538 3.79291 7.61108C3.88703 7.75584 4.02874 7.86251 4.2 7.86251V7.66251C4.11879 7.66251 4.03193 7.61179 3.96059 7.50206C3.88987 7.39329 3.84286 7.23706 3.84286 7.05939H3.64286ZM3.64286 5.65314V7.05939H3.84286V5.65314H3.64286ZM6.94286 7.86251C7.11412 7.86251 7.25583 7.75584 7.34995 7.61108C7.44468 7.46538 7.5 7.27004 7.5 7.05939H7.3C7.3 7.23706 7.25299 7.39329 7.18227 7.50206C7.11093 7.61179 7.02407 7.66251 6.94286 7.66251V7.86251ZM6.38572 7.05939C6.38572 7.27004 6.44104 7.46538 6.53577 7.61108C6.62989 7.75584 6.7716 7.86251 6.94286 7.86251V7.66251C6.86164 7.66251 6.77479 7.61179 6.70345 7.50206C6.63273 7.39329 6.58572 7.23706 6.58572 7.05939H6.38572ZM6.38572 5.65314V7.05939H6.58572V5.65314H6.38572ZM6.94286 4.85001C6.7716 4.85001 6.62989 4.95669 6.53577 5.10144C6.44104 5.24715 6.38572 5.44248 6.38572 5.65314H6.58572C6.58572 5.47547 6.63273 5.31924 6.70345 5.21046C6.77479 5.10074 6.86164 5.05001 6.94286 5.05001V4.85001ZM7.5 5.65314C7.5 5.44248 7.44468 5.24715 7.34995 5.10144C7.25583 4.95669 7.11412 4.85001 6.94286 4.85001V5.05001C7.02407 5.05001 7.11093 5.10074 7.18227 5.21046C7.25299 5.31924 7.3 5.47547 7.3 5.65314H7.5ZM7.5 7.05939V5.65314H7.3V7.05939H7.5ZM10.0429 7.05939C10.0429 7.23706 9.99585 7.39329 9.92513 7.50206C9.85379 7.61179 9.76693 7.66251 9.68572 7.66251V7.86251C9.85698 7.86251 9.99869 7.75584 10.0928 7.61108C10.1875 7.46538 10.2429 7.27004 10.2429 7.05939H10.0429ZM10.0429 5.65314V7.05939H10.2429V5.65314H10.0429ZM9.68572 5.05001C9.76693 5.05001 9.85379 5.10074 9.92513 5.21046C9.99585 5.31924 10.0429 5.47547 10.0429 5.65314H10.2429C10.2429 5.44248 10.1875 5.24715 10.0928 5.10144C9.99869 4.95669 9.85698 4.85001 9.68572 4.85001V5.05001ZM9.32857 5.65314C9.32857 5.47547 9.37558 5.31924 9.44631 5.21046C9.51764 5.10074 9.6045 5.05001 9.68572 5.05001V4.85001C9.51446 4.85001 9.37274 4.95669 9.27863 5.10144C9.1839 5.24715 9.12857 5.44248 9.12857 5.65314H9.32857ZM9.32857 7.05939V5.65314H9.12857V7.05939H9.32857ZM9.68572 7.66251C9.6045 7.66251 9.51764 7.61179 9.44631 7.50206C9.37558 7.39329 9.32857 7.23706 9.32857 7.05939H9.12857C9.12857 7.27004 9.1839 7.46538 9.27863 7.61108C9.37274 7.75584 9.51446 7.86251 9.68572 7.86251V7.66251ZM13.3429 11.4125C13.1716 11.4125 13.0299 11.5192 12.9358 11.6639C12.841 11.8096 12.7857 12.005 12.7857 12.2156H12.9857C12.9857 12.038 13.0327 11.8817 13.1034 11.773C13.1748 11.6632 13.2616 11.6125 13.3429 11.6125V11.4125ZM13.9 12.2156C13.9 12.005 13.8447 11.8096 13.7499 11.6639C13.6558 11.5192 13.5141 11.4125 13.3429 11.4125V11.6125C13.4241 11.6125 13.5109 11.6632 13.5823 11.773C13.653 11.8817 13.7 12.038 13.7 12.2156H13.9ZM13.9 13.6219V12.2156H13.7V13.6219H13.9ZM13.3429 14.425C13.5141 14.425 13.6558 14.3183 13.7499 14.1736C13.8447 14.0279 13.9 13.8325 13.9 13.6219H13.7C13.7 13.7996 13.653 13.9558 13.5823 14.0646C13.5109 14.1743 13.4241 14.225 13.3429 14.225V14.425ZM12.7857 13.6219C12.7857 13.8325 12.841 14.0279 12.9358 14.1736C13.0299 14.3183 13.1716 14.425 13.3429 14.425V14.225C13.2616 14.225 13.1748 14.1743 13.1034 14.0646C13.0327 13.9558 12.9857 13.7996 12.9857 13.6219H12.7857ZM12.7857 12.2156V13.6219H12.9857V12.2156H12.7857ZM16.6429 12.2156C16.6429 12.038 16.6899 11.8817 16.7606 11.773C16.8319 11.6632 16.9188 11.6125 17 11.6125V11.4125C16.8287 11.4125 16.687 11.5192 16.5929 11.6639C16.4982 11.8096 16.4429 12.005 16.4429 12.2156H16.6429ZM16.6429 13.6219V12.2156H16.4429V13.6219H16.6429ZM17 14.225C16.9188 14.225 16.8319 14.1743 16.7606 14.0646C16.6899 13.9558 16.6429 13.7996 16.6429 13.6219H16.4429C16.4429 13.8325 16.4982 14.0279 16.5929 14.1736C16.687 14.3183 16.8287 14.425 17 14.425V14.225ZM17.3571 13.6219C17.3571 13.7996 17.3101 13.9558 17.2394 14.0646C17.1681 14.1743 17.0812 14.225 17 14.225V14.425C17.1713 14.425 17.313 14.3183 17.4071 14.1736C17.5018 14.0279 17.5571 13.8325 17.5571 13.6219H17.3571ZM17.3571 12.2156V13.6219H17.5571V12.2156H17.3571ZM17 11.6125C17.0812 11.6125 17.1681 11.6632 17.2394 11.773C17.3101 11.8817 17.3571 12.038 17.3571 12.2156H17.5571C17.5571 12.005 17.5018 11.8096 17.4071 11.6639C17.313 11.5192 17.1713 11.4125 17 11.4125V11.6125ZM13.3429 15.1625C13.1716 15.1625 13.0299 15.2692 12.9358 15.4139C12.841 15.5596 12.7857 15.755 12.7857 15.9656H12.9857C12.9857 15.788 13.0327 15.6317 13.1034 15.523C13.1748 15.4132 13.2616 15.3625 13.3429 15.3625V15.1625ZM13.9 15.9656C13.9 15.755 13.8447 15.5596 13.7499 15.4139C13.6558 15.2692 13.5141 15.1625 13.3429 15.1625V15.3625C13.4241 15.3625 13.5109 15.4132 13.5823 15.523C13.653 15.6317 13.7 15.788 13.7 15.9656H13.9ZM13.9 17.3719V15.9656H13.7V17.3719H13.9ZM13.3429 18.175C13.5141 18.175 13.6558 18.0683 13.7499 17.9236C13.8447 17.7779 13.9 17.5825 13.9 17.3719H13.7C13.7 17.5496 13.653 17.7058 13.5823 17.8146C13.5109 17.9243 13.4241 17.975 13.3429 17.975V18.175ZM12.7857 17.3719C12.7857 17.5825 12.841 17.7779 12.9358 17.9236C13.0299 18.0683 13.1716 18.175 13.3429 18.175V17.975C13.2616 17.975 13.1748 17.9243 13.1034 17.8146C13.0327 17.7058 12.9857 17.5496 12.9857 17.3719H12.7857ZM12.7857 15.9656V17.3719H12.9857V15.9656H12.7857ZM16.6429 15.9656C16.6429 15.788 16.6899 15.6317 16.7606 15.523C16.8319 15.4132 16.9188 15.3625 17 15.3625V15.1625C16.8287 15.1625 16.687 15.2692 16.5929 15.4139C16.4982 15.5596 16.4429 15.755 16.4429 15.9656H16.6429ZM16.6429 17.3719V15.9656H16.4429V17.3719H16.6429ZM17 17.975C16.9188 17.975 16.8319 17.9243 16.7606 17.8146C16.6899 17.7058 16.6429 17.5496 16.6429 17.3719H16.4429C16.4429 17.5825 16.4982 17.7779 16.5929 17.9236C16.687 18.0683 16.8287 18.175 17 18.175V17.975ZM17.3571 17.3719C17.3571 17.5496 17.3101 17.7058 17.2394 17.8146C17.1681 17.9243 17.0812 17.975 17 17.975V18.175C17.1713 18.175 17.313 18.0683 17.4071 17.9236C17.5018 17.7779 17.5571 17.5825 17.5571 17.3719H17.3571ZM17.3571 15.9656V17.3719H17.5571V15.9656H17.3571ZM17 15.3625C17.0812 15.3625 17.1681 15.4132 17.2394 15.523C17.3101 15.6317 17.3571 15.788 17.3571 15.9656H17.5571C17.5571 15.755 17.5018 15.5596 17.4071 15.4139C17.313 15.2692 17.1713 15.1625 17 15.1625V15.3625ZM13.3429 18.9125C13.1716 18.9125 13.0299 19.0192 12.9358 19.1639C12.841 19.3096 12.7857 19.505 12.7857 19.7156H12.9857C12.9857 19.538 13.0327 19.3817 13.1034 19.273C13.1748 19.1632 13.2616 19.1125 13.3429 19.1125V18.9125ZM13.9 19.7156C13.9 19.505 13.8447 19.3096 13.7499 19.1639C13.6558 19.0192 13.5141 18.9125 13.3429 18.9125V19.1125C13.4241 19.1125 13.5109 19.1632 13.5823 19.273C13.653 19.3817 13.7 19.538 13.7 19.7156H13.9ZM13.9 21.1219V19.7156H13.7V21.1219H13.9ZM13.3429 21.925C13.5141 21.925 13.6558 21.8183 13.7499 21.6736C13.8447 21.5279 13.9 21.3325 13.9 21.1219H13.7C13.7 21.2996 13.653 21.4558 13.5823 21.5646C13.5109 21.6743 13.4241 21.725 13.3429 21.725V21.925ZM12.7857 21.1219C12.7857 21.3325 12.841 21.5279 12.9358 21.6736C13.0299 21.8183 13.1716 21.925 13.3429 21.925V21.725C13.2616 21.725 13.1748 21.6743 13.1034 21.5646C13.0327 21.4558 12.9857 21.2996 12.9857 21.1219H12.7857ZM12.7857 19.7156V21.1219H12.9857V19.7156H12.7857ZM16.6429 19.7156C16.6429 19.538 16.6899 19.3817 16.7606 19.273C16.8319 19.1632 16.9188 19.1125 17 19.1125V18.9125C16.8287 18.9125 16.687 19.0192 16.5929 19.1639C16.4982 19.3096 16.4429 19.505 16.4429 19.7156H16.6429ZM16.6429 21.1219V19.7156H16.4429V21.1219H16.6429ZM17 21.725C16.9188 21.725 16.8319 21.6743 16.7606 21.5646C16.6899 21.4558 16.6429 21.2996 16.6429 21.1219H16.4429C16.4429 21.3325 16.4982 21.5279 16.5929 21.6736C16.687 21.8183 16.8287 21.925 17 21.925V21.725ZM17.3571 21.1219C17.3571 21.2996 17.3101 21.4558 17.2394 21.5646C17.1681 21.6743 17.0812 21.725 17 21.725V21.925C17.1713 21.925 17.313 21.8183 17.4071 21.6736C17.5018 21.5279 17.5571 21.3325 17.5571 21.1219H17.3571ZM17.3571 19.7156V21.1219H17.5571V19.7156H17.3571ZM17 19.1125C17.0812 19.1125 17.1681 19.1632 17.2394 19.273C17.3101 19.3817 17.3571 19.538 17.3571 19.7156H17.5571C17.5571 19.505 17.5018 19.3096 17.4071 19.1639C17.313 19.0192 17.1713 18.9125 17 18.9125V19.1125ZM21.5714 15.3625C21.7427 15.3625 21.8844 15.2558 21.9785 15.1111C22.0732 14.9654 22.1286 14.77 22.1286 14.5594H21.9286C21.9286 14.7371 21.8816 14.8933 21.8108 15.0021C21.7395 15.1118 21.6526 15.1625 21.5714 15.1625V15.3625ZM21.0143 14.5594C21.0143 14.77 21.0696 14.9654 21.1643 15.1111C21.2585 15.2558 21.4002 15.3625 21.5714 15.3625V15.1625C21.4902 15.1625 21.4034 15.1118 21.332 15.0021C21.2613 14.8933 21.2143 14.7371 21.2143 14.5594H21.0143ZM21.0143 13.1531V14.5594H21.2143V13.1531H21.0143ZM21.5714 12.35C21.4002 12.35 21.2585 12.4567 21.1643 12.6014C21.0696 12.7471 21.0143 12.9425 21.0143 13.1531H21.2143C21.2143 12.9755 21.2613 12.8192 21.332 12.7105C21.4034 12.6007 21.4902 12.55 21.5714 12.55V12.35ZM22.1286 13.1531C22.1286 12.9425 22.0732 12.7471 21.9785 12.6014C21.8844 12.4567 21.7427 12.35 21.5714 12.35V12.55C21.6526 12.55 21.7395 12.6007 21.8108 12.7105C21.8816 12.8192 21.9286 12.9755 21.9286 13.1531H22.1286ZM22.1286 14.5594V13.1531H21.9286V14.5594H22.1286ZM23.7571 14.5594C23.7571 14.7371 23.7101 14.8933 23.6394 15.0021C23.5681 15.1118 23.4812 15.1625 23.4 15.1625V15.3625C23.5713 15.3625 23.713 15.2558 23.8071 15.1111C23.9018 14.9654 23.9571 14.77 23.9571 14.5594H23.7571ZM23.7571 13.1531V14.5594H23.9571V13.1531H23.7571ZM23.4 12.55C23.4812 12.55 23.5681 12.6007 23.6394 12.7105C23.7101 12.8192 23.7571 12.9755 23.7571 13.1531H23.9571C23.9571 12.9425 23.9018 12.7471 23.8071 12.6014C23.713 12.4567 23.5713 12.35 23.4 12.35V12.55ZM23.0429 13.1531C23.0429 12.9755 23.0899 12.8192 23.1606 12.7105C23.2319 12.6007 23.3188 12.55 23.4 12.55V12.35C23.2287 12.35 23.087 12.4567 22.9929 12.6014C22.8982 12.7471 22.8429 12.9425 22.8429 13.1531H23.0429ZM23.0429 14.5594V13.1531H22.8429V14.5594H23.0429ZM23.4 15.1625C23.3188 15.1625 23.2319 15.1118 23.1606 15.0021C23.0899 14.8933 23.0429 14.7371 23.0429 14.5594H22.8429C22.8429 14.77 22.8982 14.9654 22.9929 15.1111C23.087 15.2558 23.2287 15.3625 23.4 15.3625V15.1625ZM21.5714 10.675C21.7427 10.675 21.8844 10.5683 21.9785 10.4236C22.0732 10.2779 22.1286 10.0825 22.1286 9.87189H21.9286C21.9286 10.0496 21.8816 10.2058 21.8108 10.3146C21.7395 10.4243 21.6526 10.475 21.5714 10.475V10.675ZM21.0143 9.87189C21.0143 10.0825 21.0696 10.2779 21.1643 10.4236C21.2585 10.5683 21.4002 10.675 21.5714 10.675V10.475C21.4902 10.475 21.4034 10.4243 21.332 10.3146C21.2613 10.2058 21.2143 10.0496 21.2143 9.87189H21.0143ZM21.0143 8.46564V9.87189H21.2143V8.46564H21.0143ZM21.5714 7.66251C21.4002 7.66251 21.2585 7.76919 21.1643 7.91394C21.0696 8.05965 21.0143 8.25498 21.0143 8.46564H21.2143C21.2143 8.28797 21.2613 8.13174 21.332 8.02296C21.4034 7.91324 21.4902 7.86251 21.5714 7.86251V7.66251ZM22.1286 8.46564C22.1286 8.25498 22.0732 8.05965 21.9785 7.91394C21.8844 7.76919 21.7427 7.66251 21.5714 7.66251V7.86251C21.6526 7.86251 21.7395 7.91324 21.8108 8.02296C21.8816 8.13174 21.9286 8.28797 21.9286 8.46564H22.1286ZM22.1286 9.87189V8.46564H21.9286V9.87189H22.1286ZM23.7571 9.87189C23.7571 10.0496 23.7101 10.2058 23.6394 10.3146C23.5681 10.4243 23.4812 10.475 23.4 10.475V10.675C23.5713 10.675 23.713 10.5683 23.8071 10.4236C23.9018 10.2779 23.9571 10.0825 23.9571 9.87189H23.7571ZM23.7571 8.46564V9.87189H23.9571V8.46564H23.7571ZM23.4 7.86251C23.4812 7.86251 23.5681 7.91324 23.6394 8.02296C23.7101 8.13174 23.7571 8.28797 23.7571 8.46564H23.9571C23.9571 8.25498 23.9018 8.05965 23.8071 7.91394C23.713 7.76919 23.5713 7.66251 23.4 7.66251V7.86251ZM23.0429 8.46564C23.0429 8.28797 23.0899 8.13174 23.1606 8.02296C23.2319 7.91324 23.3188 7.86251 23.4 7.86251V7.66251C23.2287 7.66251 23.087 7.76919 22.9929 7.91394C22.8982 8.05965 22.8429 8.25498 22.8429 8.46564H23.0429ZM23.0429 9.87189V8.46564H22.8429V9.87189H23.0429ZM23.4 10.475C23.3188 10.475 23.2319 10.4243 23.1606 10.3146C23.0899 10.2058 23.0429 10.0496 23.0429 9.87189H22.8429C22.8429 10.0825 22.8982 10.2779 22.9929 10.4236C23.087 10.5683 23.2287 10.675 23.4 10.675V10.475ZM21.5714 19.1125C21.7427 19.1125 21.8844 19.0058 21.9785 18.8611C22.0732 18.7154 22.1286 18.52 22.1286 18.3094H21.9286C21.9286 18.4871 21.8816 18.6433 21.8108 18.7521C21.7395 18.8618 21.6526 18.9125 21.5714 18.9125V19.1125ZM21.0143 18.3094C21.0143 18.52 21.0696 18.7154 21.1643 18.8611C21.2585 19.0058 21.4002 19.1125 21.5714 19.1125V18.9125C21.4902 18.9125 21.4034 18.8618 21.332 18.7521C21.2613 18.6433 21.2143 18.4871 21.2143 18.3094H21.0143ZM21.0143 16.9031V18.3094H21.2143V16.9031H21.0143ZM21.5714 16.1C21.4002 16.1 21.2585 16.2067 21.1643 16.3514C21.0696 16.4971 21.0143 16.6925 21.0143 16.9031H21.2143C21.2143 16.7255 21.2613 16.5692 21.332 16.4605C21.4034 16.3507 21.4902 16.3 21.5714 16.3V16.1ZM22.1286 16.9031C22.1286 16.6925 22.0732 16.4971 21.9785 16.3514C21.8844 16.2067 21.7427 16.1 21.5714 16.1V16.3C21.6526 16.3 21.7395 16.3507 21.8108 16.4605C21.8816 16.5692 21.9286 16.7255 21.9286 16.9031H22.1286ZM22.1286 18.3094V16.9031H21.9286V18.3094H22.1286ZM23.7571 18.3094C23.7571 18.4871 23.7101 18.6433 23.6394 18.7521C23.5681 18.8618 23.4812 18.9125 23.4 18.9125V19.1125C23.5713 19.1125 23.713 19.0058 23.8071 18.8611C23.9018 18.7154 23.9571 18.52 23.9571 18.3094H23.7571ZM23.7571 16.9031V18.3094H23.9571V16.9031H23.7571ZM23.4 16.3C23.4812 16.3 23.5681 16.3507 23.6394 16.4605C23.7101 16.5692 23.7571 16.7255 23.7571 16.9031H23.9571C23.9571 16.6925 23.9018 16.4971 23.8071 16.3514C23.713 16.2067 23.5713 16.1 23.4 16.1V16.3ZM23.0429 16.9031C23.0429 16.7255 23.0899 16.5692 23.1606 16.4605C23.2319 16.3507 23.3188 16.3 23.4 16.3V16.1C23.2287 16.1 23.087 16.2067 22.9929 16.3514C22.8982 16.4971 22.8429 16.6925 22.8429 16.9031H23.0429ZM23.0429 18.3094V16.9031H22.8429V18.3094H23.0429ZM23.4 18.9125C23.3188 18.9125 23.2319 18.8618 23.1606 18.7521C23.0899 18.6433 23.0429 18.4871 23.0429 18.3094H22.8429C22.8429 18.52 22.8982 18.7154 22.9929 18.8611C23.087 19.0058 23.2287 19.1125 23.4 19.1125V18.9125ZM21.5714 23.8C21.7427 23.8 21.8844 23.6933 21.9785 23.5486C22.0732 23.4029 22.1286 23.2075 22.1286 22.9969H21.9286C21.9286 23.1746 21.8816 23.3308 21.8108 23.4396C21.7395 23.5493 21.6526 23.6 21.5714 23.6V23.8ZM21.0143 22.9969C21.0143 23.2075 21.0696 23.4029 21.1643 23.5486C21.2585 23.6933 21.4002 23.8 21.5714 23.8V23.6C21.4902 23.6 21.4034 23.5493 21.332 23.4396C21.2613 23.3308 21.2143 23.1746 21.2143 22.9969H21.0143ZM21.0143 21.5906V22.9969H21.2143V21.5906H21.0143ZM21.5714 20.7875C21.4002 20.7875 21.2585 20.8942 21.1643 21.0389C21.0696 21.1846 21.0143 21.38 21.0143 21.5906H21.2143C21.2143 21.413 21.2613 21.2567 21.332 21.148C21.4034 21.0382 21.4902 20.9875 21.5714 20.9875V20.7875ZM22.1286 21.5906C22.1286 21.38 22.0732 21.1846 21.9785 21.0389C21.8844 20.8942 21.7427 20.7875 21.5714 20.7875V20.9875C21.6526 20.9875 21.7395 21.0382 21.8108 21.148C21.8816 21.2567 21.9286 21.413 21.9286 21.5906H22.1286ZM22.1286 22.9969V21.5906H21.9286V22.9969H22.1286ZM23.7571 22.9969C23.7571 23.1746 23.7101 23.3308 23.6394 23.4396C23.5681 23.5493 23.4812 23.6 23.4 23.6V23.8C23.5713 23.8 23.713 23.6933 23.8071 23.5486C23.9018 23.4029 23.9571 23.2075 23.9571 22.9969H23.7571ZM23.7571 21.5906V22.9969H23.9571V21.5906H23.7571ZM23.4 20.9875C23.4812 20.9875 23.5681 21.0382 23.6394 21.148C23.7101 21.2567 23.7571 21.413 23.7571 21.5906H23.9571C23.9571 21.38 23.9018 21.1846 23.8071 21.0389C23.713 20.8942 23.5713 20.7875 23.4 20.7875V20.9875ZM23.0429 21.5906C23.0429 21.413 23.0899 21.2567 23.1606 21.148C23.2319 21.0382 23.3188 20.9875 23.4 20.9875V20.7875C23.2287 20.7875 23.087 20.8942 22.9929 21.0389C22.8982 21.1846 22.8429 21.38 22.8429 21.5906H23.0429ZM23.0429 22.9969V21.5906H22.8429V22.9969H23.0429ZM23.4 23.6C23.3188 23.6 23.2319 23.5493 23.1606 23.4396C23.0899 23.3308 23.0429 23.1746 23.0429 22.9969H22.8429C22.8429 23.2075 22.8982 23.4029 22.9929 23.5486C23.087 23.6933 23.2287 23.8 23.4 23.8V23.6ZM4.2 8.60001C4.02874 8.60001 3.88703 8.70669 3.79291 8.85144C3.69818 8.99715 3.64286 9.19248 3.64286 9.40314H3.84286C3.84286 9.22547 3.88987 9.06924 3.96059 8.96046C4.03193 8.85074 4.11879 8.80001 4.2 8.80001V8.60001ZM4.75714 9.40314C4.75714 9.19248 4.70182 8.99715 4.60709 8.85144C4.51297 8.70669 4.37126 8.60001 4.2 8.60001V8.80001C4.28122 8.80001 4.36807 8.85074 4.43941 8.96046C4.51013 9.06924 4.55714 9.22547 4.55714 9.40314H4.75714ZM4.75714 10.8094V9.40314H4.55714V10.8094H4.75714ZM4.2 11.6125C4.37126 11.6125 4.51297 11.5058 4.60709 11.3611C4.70182 11.2154 4.75714 11.02 4.75714 10.8094H4.55714C4.55714 10.9871 4.51013 11.1433 4.43941 11.2521C4.36807 11.3618 4.28122 11.4125 4.2 11.4125V11.6125ZM3.64286 10.8094C3.64286 11.02 3.69818 11.2154 3.79291 11.3611C3.88703 11.5058 4.02874 11.6125 4.2 11.6125V11.4125C4.11879 11.4125 4.03193 11.3618 3.96059 11.2521C3.88987 11.1433 3.84286 10.9871 3.84286 10.8094H3.64286ZM3.64286 9.40314V10.8094H3.84286V9.40314H3.64286ZM7.3 10.8094C7.3 10.9871 7.25299 11.1433 7.18227 11.2521C7.11093 11.3618 7.02407 11.4125 6.94286 11.4125V11.6125C7.11412 11.6125 7.25583 11.5058 7.34995 11.3611C7.44468 11.2154 7.5 11.02 7.5 10.8094H7.3ZM7.3 9.40314V10.8094H7.5V9.40314H7.3ZM6.94286 8.80001C7.02407 8.80001 7.11093 8.85074 7.18227 8.96046C7.25299 9.06924 7.3 9.22547 7.3 9.40314H7.5C7.5 9.19248 7.44468 8.99715 7.34995 8.85144C7.25583 8.70669 7.11412 8.60001 6.94286 8.60001V8.80001ZM6.58572 9.40314C6.58572 9.22547 6.63273 9.06924 6.70345 8.96046C6.77479 8.85074 6.86164 8.80001 6.94286 8.80001V8.60001C6.7716 8.60001 6.62989 8.70669 6.53577 8.85144C6.44104 8.99715 6.38572 9.19248 6.38572 9.40314H6.58572ZM6.58572 10.8094V9.40314H6.38572V10.8094H6.58572ZM6.94286 11.4125C6.86164 11.4125 6.77479 11.3618 6.70345 11.2521C6.63273 11.1433 6.58572 10.9871 6.58572 10.8094H6.38572C6.38572 11.02 6.44104 11.2154 6.53577 11.3611C6.62989 11.5058 6.7716 11.6125 6.94286 11.6125V11.4125ZM9.68572 11.6125C9.85698 11.6125 9.99869 11.5058 10.0928 11.3611C10.1875 11.2154 10.2429 11.02 10.2429 10.8094H10.0429C10.0429 10.9871 9.99585 11.1433 9.92513 11.2521C9.85379 11.3618 9.76693 11.4125 9.68572 11.4125V11.6125ZM9.12857 10.8094C9.12857 11.02 9.1839 11.2154 9.27863 11.3611C9.37274 11.5058 9.51446 11.6125 9.68572 11.6125V11.4125C9.6045 11.4125 9.51764 11.3618 9.44631 11.2521C9.37558 11.1433 9.32857 10.9871 9.32857 10.8094H9.12857ZM9.12857 9.40314V10.8094H9.32857V9.40314H9.12857ZM9.68572 8.60001C9.51446 8.60001 9.37274 8.70669 9.27863 8.85144C9.1839 8.99715 9.12857 9.19248 9.12857 9.40314H9.32857C9.32857 9.22547 9.37558 9.06924 9.44631 8.96046C9.51764 8.85074 9.6045 8.80001 9.68572 8.80001V8.60001ZM10.2429 9.40314C10.2429 9.19248 10.1875 8.99715 10.0928 8.85144C9.99869 8.70669 9.85698 8.60001 9.68572 8.60001V8.80001C9.76693 8.80001 9.85379 8.85074 9.92513 8.96046C9.99585 9.06924 10.0429 9.22547 10.0429 9.40314H10.2429ZM10.2429 10.8094V9.40314H10.0429V10.8094H10.2429ZM3.84286 13.1531C3.84286 12.9755 3.88987 12.8192 3.96059 12.7105C4.03193 12.6007 4.11879 12.55 4.2 12.55V12.35C4.02874 12.35 3.88703 12.4567 3.79291 12.6014C3.69818 12.7471 3.64286 12.9425 3.64286 13.1531H3.84286ZM3.84286 14.5594V13.1531H3.64286V14.5594H3.84286ZM4.2 15.1625C4.11879 15.1625 4.03193 15.1118 3.96059 15.0021C3.88987 14.8933 3.84286 14.7371 3.84286 14.5594H3.64286C3.64286 14.77 3.69818 14.9654 3.79291 15.1111C3.88703 15.2558 4.02874 15.3625 4.2 15.3625V15.1625ZM4.55714 14.5594C4.55714 14.7371 4.51013 14.8933 4.43941 15.0021C4.36807 15.1118 4.28122 15.1625 4.2 15.1625V15.3625C4.37126 15.3625 4.51297 15.2558 4.60709 15.1111C4.70182 14.9654 4.75714 14.77 4.75714 14.5594H4.55714ZM4.55714 13.1531V14.5594H4.75714V13.1531H4.55714ZM4.2 12.55C4.28122 12.55 4.36807 12.6007 4.43941 12.7105C4.51013 12.8192 4.55714 12.9755 4.55714 13.1531H4.75714C4.75714 12.9425 4.70182 12.7471 4.60709 12.6014C4.51297 12.4567 4.37126 12.35 4.2 12.35V12.55ZM6.94286 15.3625C7.11412 15.3625 7.25583 15.2558 7.34995 15.1111C7.44468 14.9654 7.5 14.77 7.5 14.5594H7.3C7.3 14.7371 7.25299 14.8933 7.18227 15.0021C7.11093 15.1118 7.02407 15.1625 6.94286 15.1625V15.3625ZM6.38572 14.5594C6.38572 14.77 6.44104 14.9654 6.53577 15.1111C6.62989 15.2558 6.7716 15.3625 6.94286 15.3625V15.1625C6.86164 15.1625 6.77479 15.1118 6.70345 15.0021C6.63273 14.8933 6.58572 14.7371 6.58572 14.5594H6.38572ZM6.38572 13.1531V14.5594H6.58572V13.1531H6.38572ZM6.94286 12.35C6.7716 12.35 6.62989 12.4567 6.53577 12.6014C6.44104 12.7471 6.38572 12.9425 6.38572 13.1531H6.58572C6.58572 12.9755 6.63273 12.8192 6.70345 12.7105C6.77479 12.6007 6.86164 12.55 6.94286 12.55V12.35ZM7.5 13.1531C7.5 12.9425 7.44468 12.7471 7.34995 12.6014C7.25583 12.4567 7.11412 12.35 6.94286 12.35V12.55C7.02407 12.55 7.11093 12.6007 7.18227 12.7105C7.25299 12.8192 7.3 12.9755 7.3 13.1531H7.5ZM7.5 14.5594V13.1531H7.3V14.5594H7.5ZM10.0429 14.5594C10.0429 14.7371 9.99585 14.8933 9.92513 15.0021C9.85379 15.1118 9.76693 15.1625 9.68572 15.1625V15.3625C9.85698 15.3625 9.99869 15.2558 10.0928 15.1111C10.1875 14.9654 10.2429 14.77 10.2429 14.5594H10.0429ZM10.0429 13.1531V14.5594H10.2429V13.1531H10.0429ZM9.68572 12.55C9.76693 12.55 9.85379 12.6007 9.92513 12.7105C9.99585 12.8192 10.0429 12.9755 10.0429 13.1531H10.2429C10.2429 12.9425 10.1875 12.7471 10.0928 12.6014C9.99869 12.4567 9.85698 12.35 9.68572 12.35V12.55ZM9.32857 13.1531C9.32857 12.9755 9.37558 12.8192 9.44631 12.7105C9.51764 12.6007 9.6045 12.55 9.68572 12.55V12.35C9.51446 12.35 9.37274 12.4567 9.27863 12.6014C9.1839 12.7471 9.12857 12.9425 9.12857 13.1531H9.32857ZM9.32857 14.5594V13.1531H9.12857V14.5594H9.32857ZM9.68572 15.1625C9.6045 15.1625 9.51764 15.1118 9.44631 15.0021C9.37558 14.8933 9.32857 14.7371 9.32857 14.5594H9.12857C9.12857 14.77 9.1839 14.9654 9.27863 15.1111C9.37274 15.2558 9.51446 15.3625 9.68572 15.3625V15.1625ZM4.2 16.1C4.02874 16.1 3.88703 16.2067 3.79291 16.3514C3.69818 16.4971 3.64286 16.6925 3.64286 16.9031H3.84286C3.84286 16.7255 3.88987 16.5692 3.96059 16.4605C4.03193 16.3507 4.11879 16.3 4.2 16.3V16.1ZM4.75714 16.9031C4.75714 16.6925 4.70182 16.4971 4.60709 16.3514C4.51297 16.2067 4.37126 16.1 4.2 16.1V16.3C4.28122 16.3 4.36807 16.3507 4.43941 16.4605C4.51013 16.5692 4.55714 16.7255 4.55714 16.9031H4.75714ZM4.75714 18.3094V16.9031H4.55714V18.3094H4.75714ZM4.2 19.1125C4.37126 19.1125 4.51297 19.0058 4.60709 18.8611C4.70182 18.7154 4.75714 18.52 4.75714 18.3094H4.55714C4.55714 18.4871 4.51013 18.6433 4.43941 18.7521C4.36807 18.8618 4.28122 18.9125 4.2 18.9125V19.1125ZM3.64286 18.3094C3.64286 18.52 3.69818 18.7154 3.79291 18.8611C3.88703 19.0058 4.02874 19.1125 4.2 19.1125V18.9125C4.11879 18.9125 4.03193 18.8618 3.96059 18.7521C3.88987 18.6433 3.84286 18.4871 3.84286 18.3094H3.64286ZM3.64286 16.9031V18.3094H3.84286V16.9031H3.64286ZM7.3 18.3094C7.3 18.4871 7.25299 18.6433 7.18227 18.7521C7.11093 18.8618 7.02407 18.9125 6.94286 18.9125V19.1125C7.11412 19.1125 7.25583 19.0058 7.34995 18.8611C7.44468 18.7154 7.5 18.52 7.5 18.3094H7.3ZM7.3 16.9031V18.3094H7.5V16.9031H7.3ZM6.94286 16.3C7.02407 16.3 7.11093 16.3507 7.18227 16.4605C7.25299 16.5692 7.3 16.7255 7.3 16.9031H7.5C7.5 16.6925 7.44468 16.4971 7.34995 16.3514C7.25583 16.2067 7.11412 16.1 6.94286 16.1V16.3ZM6.58572 16.9031C6.58572 16.7255 6.63273 16.5692 6.70345 16.4605C6.77479 16.3507 6.86164 16.3 6.94286 16.3V16.1C6.7716 16.1 6.62989 16.2067 6.53577 16.3514C6.44104 16.4971 6.38572 16.6925 6.38572 16.9031H6.58572ZM6.58572 18.3094V16.9031H6.38572V18.3094H6.58572ZM6.94286 18.9125C6.86164 18.9125 6.77479 18.8618 6.70345 18.7521C6.63273 18.6433 6.58572 18.4871 6.58572 18.3094H6.38572C6.38572 18.52 6.44104 18.7154 6.53577 18.8611C6.62989 19.0058 6.7716 19.1125 6.94286 19.1125V18.9125ZM9.68572 19.1125C9.85698 19.1125 9.99869 19.0058 10.0928 18.8611C10.1875 18.7154 10.2429 18.52 10.2429 18.3094H10.0429C10.0429 18.4871 9.99585 18.6433 9.92513 18.7521C9.85379 18.8618 9.76693 18.9125 9.68572 18.9125V19.1125ZM9.12857 18.3094C9.12857 18.52 9.1839 18.7154 9.27863 18.8611C9.37274 19.0058 9.51446 19.1125 9.68572 19.1125V18.9125C9.6045 18.9125 9.51764 18.8618 9.44631 18.7521C9.37558 18.6433 9.32857 18.4871 9.32857 18.3094H9.12857ZM9.12857 16.9031V18.3094H9.32857V16.9031H9.12857ZM9.68572 16.1C9.51446 16.1 9.37274 16.2067 9.27863 16.3514C9.1839 16.4971 9.12857 16.6925 9.12857 16.9031H9.32857C9.32857 16.7255 9.37558 16.5692 9.44631 16.4605C9.51764 16.3507 9.6045 16.3 9.68572 16.3V16.1ZM10.2429 16.9031C10.2429 16.6925 10.1875 16.4971 10.0928 16.3514C9.99869 16.2067 9.85698 16.1 9.68572 16.1V16.3C9.76693 16.3 9.85379 16.3507 9.92513 16.4605C9.99585 16.5692 10.0429 16.7255 10.0429 16.9031H10.2429ZM10.2429 18.3094V16.9031H10.0429V18.3094H10.2429ZM3.84286 20.6531C3.84286 20.4755 3.88987 20.3192 3.96059 20.2105C4.03193 20.1007 4.11879 20.05 4.2 20.05V19.85C4.02874 19.85 3.88703 19.9567 3.79291 20.1014C3.69818 20.2471 3.64286 20.4425 3.64286 20.6531H3.84286ZM3.84286 22.0594V20.6531H3.64286V22.0594H3.84286ZM4.2 22.6625C4.11879 22.6625 4.03193 22.6118 3.96059 22.5021C3.88987 22.3933 3.84286 22.2371 3.84286 22.0594H3.64286C3.64286 22.27 3.69818 22.4654 3.79291 22.6111C3.88703 22.7558 4.02874 22.8625 4.2 22.8625V22.6625ZM3.84286 23.4656C3.84286 23.288 3.88987 23.1317 3.96059 23.023C4.03193 22.9132 4.11879 22.8625 4.2 22.8625V22.6625C4.02874 22.6625 3.88703 22.7692 3.79291 22.9139C3.69818 23.0596 3.64286 23.255 3.64286 23.4656H3.84286ZM3.84286 24.8719V23.4656H3.64286V24.8719H3.84286ZM4.2 25.475C4.11879 25.475 4.03193 25.4243 3.96059 25.3146C3.88987 25.2058 3.84286 25.0496 3.84286 24.8719H3.64286C3.64286 25.0825 3.69818 25.2779 3.79291 25.4236C3.88703 25.5683 4.02874 25.675 4.2 25.675V25.475ZM4.55714 24.8719C4.55714 25.0496 4.51013 25.2058 4.43941 25.3146C4.36807 25.4243 4.28122 25.475 4.2 25.475V25.675C4.37126 25.675 4.51297 25.5683 4.60709 25.4236C4.70182 25.2779 4.75714 25.0825 4.75714 24.8719H4.55714ZM4.55714 23.4656V24.8719H4.75714V23.4656H4.55714ZM4.2 22.8625C4.28122 22.8625 4.36807 22.9132 4.43941 23.023C4.51013 23.1317 4.55714 23.288 4.55714 23.4656H4.75714C4.75714 23.255 4.70182 23.0596 4.60709 22.9139C4.51297 22.7692 4.37126 22.6625 4.2 22.6625V22.8625ZM4.55714 22.0594C4.55714 22.2371 4.51013 22.3933 4.43941 22.5021C4.36807 22.6118 4.28122 22.6625 4.2 22.6625V22.8625C4.37126 22.8625 4.51297 22.7558 4.60709 22.6111C4.70182 22.4654 4.75714 22.27 4.75714 22.0594H4.55714ZM4.55714 20.6531V22.0594H4.75714V20.6531H4.55714ZM4.2 20.05C4.28122 20.05 4.36807 20.1007 4.43941 20.2105C4.51013 20.3192 4.55714 20.4755 4.55714 20.6531H4.75714C4.75714 20.4425 4.70182 20.2471 4.60709 20.1014C4.51297 19.9567 4.37126 19.85 4.2 19.85V20.05ZM6.94286 22.8625C7.11412 22.8625 7.25583 22.7558 7.34995 22.6111C7.44468 22.4654 7.5 22.27 7.5 22.0594H7.3C7.3 22.2371 7.25299 22.3933 7.18227 22.5021C7.11093 22.6118 7.02407 22.6625 6.94286 22.6625V22.8625ZM6.38572 22.0594C6.38572 22.27 6.44104 22.4654 6.53577 22.6111C6.62989 22.7558 6.7716 22.8625 6.94286 22.8625V22.6625C6.86164 22.6625 6.77479 22.6118 6.70345 22.5021C6.63273 22.3933 6.58572 22.2371 6.58572 22.0594H6.38572ZM6.38572 20.6531V22.0594H6.58572V20.6531H6.38572ZM6.94286 19.85C6.7716 19.85 6.62989 19.9567 6.53577 20.1014C6.44104 20.2471 6.38572 20.4425 6.38572 20.6531H6.58572C6.58572 20.4755 6.63273 20.3192 6.70345 20.2105C6.77479 20.1007 6.86164 20.05 6.94286 20.05V19.85ZM7.5 20.6531C7.5 20.4425 7.44468 20.2471 7.34995 20.1014C7.25583 19.9567 7.11412 19.85 6.94286 19.85V20.05C7.02407 20.05 7.11093 20.1007 7.18227 20.2105C7.25299 20.3192 7.3 20.4755 7.3 20.6531H7.5ZM7.5 22.0594V20.6531H7.3V22.0594H7.5ZM10.0429 22.0594C10.0429 22.2371 9.99585 22.3933 9.92513 22.5021C9.85379 22.6118 9.76693 22.6625 9.68572 22.6625V22.8625C9.85698 22.8625 9.99869 22.7558 10.0928 22.6111C10.1875 22.4654 10.2429 22.27 10.2429 22.0594H10.0429ZM10.0429 20.6531V22.0594H10.2429V20.6531H10.0429ZM9.68572 20.05C9.76693 20.05 9.85379 20.1007 9.92513 20.2105C9.99585 20.3192 10.0429 20.4755 10.0429 20.6531H10.2429C10.2429 20.4425 10.1875 20.2471 10.0928 20.1014C9.99869 19.9567 9.85698 19.85 9.68572 19.85V20.05ZM9.32857 20.6531C9.32857 20.4755 9.37558 20.3192 9.44631 20.2105C9.51764 20.1007 9.6045 20.05 9.68572 20.05V19.85C9.51446 19.85 9.37274 19.9567 9.27863 20.1014C9.1839 20.2471 9.12857 20.4425 9.12857 20.6531H9.32857ZM9.32857 22.0594V20.6531H9.12857V22.0594H9.32857ZM9.68572 22.6625C9.6045 22.6625 9.51764 22.6118 9.44631 22.5021C9.37558 22.3933 9.32857 22.2371 9.32857 22.0594H9.12857C9.12857 22.27 9.1839 22.4654 9.27863 22.6111C9.37274 22.7558 9.51446 22.8625 9.68572 22.8625V22.6625ZM27.4143 14.5594C27.4143 14.7371 27.3673 14.8933 27.2966 15.0021C27.2252 15.1118 27.1384 15.1625 27.0571 15.1625V15.3625C27.2284 15.3625 27.3701 15.2558 27.4642 15.1111C27.559 14.9654 27.6143 14.77 27.6143 14.5594H27.4143ZM27.4143 13.1531V14.5594H27.6143V13.1531H27.4143ZM27.0571 12.55C27.1384 12.55 27.2252 12.6007 27.2966 12.7105C27.3673 12.8192 27.4143 12.9755 27.4143 13.1531H27.6143C27.6143 12.9425 27.559 12.7471 27.4642 12.6014C27.3701 12.4567 27.2284 12.35 27.0571 12.35V12.55ZM26.7 13.1531C26.7 12.9755 26.747 12.8192 26.8177 12.7105C26.8891 12.6007 26.9759 12.55 27.0571 12.55V12.35C26.8859 12.35 26.7442 12.4567 26.6501 12.6014C26.5553 12.7471 26.5 12.9425 26.5 13.1531H26.7ZM26.7 14.5594V13.1531H26.5V14.5594H26.7ZM27.0571 15.1625C26.9759 15.1625 26.8891 15.1118 26.8177 15.0021C26.747 14.8933 26.7 14.7371 26.7 14.5594H26.5C26.5 14.77 26.5553 14.9654 26.6501 15.1111C26.7442 15.2558 26.8859 15.3625 27.0571 15.3625V15.1625ZM29.8 15.3625C29.9713 15.3625 30.113 15.2558 30.2071 15.1111C30.3018 14.9654 30.3571 14.77 30.3571 14.5594H30.1571C30.1571 14.7371 30.1101 14.8933 30.0394 15.0021C29.9681 15.1118 29.8812 15.1625 29.8 15.1625V15.3625ZM29.2429 14.5594C29.2429 14.77 29.2982 14.9654 29.3929 15.1111C29.487 15.2558 29.6287 15.3625 29.8 15.3625V15.1625C29.7188 15.1625 29.6319 15.1118 29.5606 15.0021C29.4899 14.8933 29.4429 14.7371 29.4429 14.5594H29.2429ZM29.2429 13.1531V14.5594H29.4429V13.1531H29.2429ZM29.8 12.35C29.6287 12.35 29.487 12.4567 29.3929 12.6014C29.2982 12.7471 29.2429 12.9425 29.2429 13.1531H29.4429C29.4429 12.9755 29.4899 12.8192 29.5606 12.7105C29.6319 12.6007 29.7188 12.55 29.8 12.55V12.35ZM30.3571 13.1531C30.3571 12.9425 30.3018 12.7471 30.2071 12.6014C30.113 12.4567 29.9713 12.35 29.8 12.35V12.55C29.8812 12.55 29.9681 12.6007 30.0394 12.7105C30.1101 12.8192 30.1571 12.9755 30.1571 13.1531H30.3571ZM30.3571 14.5594V13.1531H30.1571V14.5594H30.3571ZM27.4143 18.3094C27.4143 18.4871 27.3673 18.6433 27.2966 18.7521C27.2252 18.8618 27.1384 18.9125 27.0571 18.9125V19.1125C27.2284 19.1125 27.3701 19.0058 27.4642 18.8611C27.559 18.7154 27.6143 18.52 27.6143 18.3094H27.4143ZM27.4143 16.9031V18.3094H27.6143V16.9031H27.4143ZM27.0571 16.3C27.1384 16.3 27.2252 16.3507 27.2966 16.4605C27.3673 16.5692 27.4143 16.7255 27.4143 16.9031H27.6143C27.6143 16.6925 27.559 16.4971 27.4642 16.3514C27.3701 16.2067 27.2284 16.1 27.0571 16.1V16.3ZM26.7 16.9031C26.7 16.7255 26.747 16.5692 26.8177 16.4605C26.8891 16.3507 26.9759 16.3 27.0571 16.3V16.1C26.8859 16.1 26.7442 16.2067 26.6501 16.3514C26.5553 16.4971 26.5 16.6925 26.5 16.9031H26.7ZM26.7 18.3094V16.9031H26.5V18.3094H26.7ZM27.0571 18.9125C26.9759 18.9125 26.8891 18.8618 26.8177 18.7521C26.747 18.6433 26.7 18.4871 26.7 18.3094H26.5C26.5 18.52 26.5553 18.7154 26.6501 18.8611C26.7442 19.0058 26.8859 19.1125 27.0571 19.1125V18.9125ZM29.8 19.1125C29.9713 19.1125 30.113 19.0058 30.2071 18.8611C30.3018 18.7154 30.3571 18.52 30.3571 18.3094H30.1571C30.1571 18.4871 30.1101 18.6433 30.0394 18.7521C29.9681 18.8618 29.8812 18.9125 29.8 18.9125V19.1125ZM29.2429 18.3094C29.2429 18.52 29.2982 18.7154 29.3929 18.8611C29.487 19.0058 29.6287 19.1125 29.8 19.1125V18.9125C29.7188 18.9125 29.6319 18.8618 29.5606 18.7521C29.4899 18.6433 29.4429 18.4871 29.4429 18.3094H29.2429ZM29.2429 16.9031V18.3094H29.4429V16.9031H29.2429ZM29.8 16.1C29.6287 16.1 29.487 16.2067 29.3929 16.3514C29.2982 16.4971 29.2429 16.6925 29.2429 16.9031H29.4429C29.4429 16.7255 29.4899 16.5692 29.5606 16.4605C29.6319 16.3507 29.7188 16.3 29.8 16.3V16.1ZM30.3571 16.9031C30.3571 16.6925 30.3018 16.4971 30.2071 16.3514C30.113 16.2067 29.9713 16.1 29.8 16.1V16.3C29.8812 16.3 29.9681 16.3507 30.0394 16.4605C30.1101 16.5692 30.1571 16.7255 30.1571 16.9031H30.3571ZM30.3571 18.3094V16.9031H30.1571V18.3094H30.3571ZM27.4143 22.0594C27.4143 22.2371 27.3673 22.3933 27.2966 22.5021C27.2252 22.6118 27.1384 22.6625 27.0571 22.6625V22.8625C27.2284 22.8625 27.3701 22.7558 27.4642 22.6111C27.559 22.4654 27.6143 22.27 27.6143 22.0594H27.4143ZM27.4143 20.6531V22.0594H27.6143V20.6531H27.4143ZM27.0571 20.05C27.1384 20.05 27.2252 20.1007 27.2966 20.2105C27.3673 20.3192 27.4143 20.4755 27.4143 20.6531H27.6143C27.6143 20.4425 27.559 20.2471 27.4642 20.1014C27.3701 19.9567 27.2284 19.85 27.0571 19.85V20.05ZM26.7 20.6531C26.7 20.4755 26.747 20.3192 26.8177 20.2105C26.8891 20.1007 26.9759 20.05 27.0571 20.05V19.85C26.8859 19.85 26.7442 19.9567 26.6501 20.1014C26.5553 20.2471 26.5 20.4425 26.5 20.6531H26.7ZM26.7 22.0594V20.6531H26.5V22.0594H26.7ZM27.0571 22.6625C26.9759 22.6625 26.8891 22.6118 26.8177 22.5021C26.747 22.3933 26.7 22.2371 26.7 22.0594H26.5C26.5 22.27 26.5553 22.4654 26.6501 22.6111C26.7442 22.7558 26.8859 22.8625 27.0571 22.8625V22.6625ZM29.8 22.8625C29.9713 22.8625 30.113 22.7558 30.2071 22.6111C30.3018 22.4654 30.3571 22.27 30.3571 22.0594H30.1571C30.1571 22.2371 30.1101 22.3933 30.0394 22.5021C29.9681 22.6118 29.8812 22.6625 29.8 22.6625V22.8625ZM29.2429 22.0594C29.2429 22.27 29.2982 22.4654 29.3929 22.6111C29.487 22.7558 29.6287 22.8625 29.8 22.8625V22.6625C29.7188 22.6625 29.6319 22.6118 29.5606 22.5021C29.4899 22.3933 29.4429 22.2371 29.4429 22.0594H29.2429ZM29.2429 20.6531V22.0594H29.4429V20.6531H29.2429ZM29.8 19.85C29.6287 19.85 29.487 19.9567 29.3929 20.1014C29.2982 20.2471 29.2429 20.4425 29.2429 20.6531H29.4429C29.4429 20.4755 29.4899 20.3192 29.5606 20.2105C29.6319 20.1007 29.7188 20.05 29.8 20.05V19.85ZM30.3571 20.6531C30.3571 20.4425 30.3018 20.2471 30.2071 20.1014C30.113 19.9567 29.9713 19.85 29.8 19.85V20.05C29.8812 20.05 29.9681 20.1007 30.0394 20.2105C30.1101 20.3192 30.1571 20.4755 30.1571 20.6531H30.3571ZM30.3571 22.0594V20.6531H30.1571V22.0594H30.3571Z" fill="#FF5800"/>
</svg>
