<svg xmlns="http://www.w3.org/2000/svg" width="40" height="40" fill="none"><path fill="#FF7300" fill-rule="evenodd" d="m19.2 12.4-5.8-5.8V2h10.4l2 3.3-6.6 7Z" clip-rule="evenodd"/><path fill="#696969" fill-rule="evenodd" d="m19.3 13.3 6-5.6a4.4 4.4 0 0 0 0-6.4 5 5 0 0 0-6-.6 5 5 0 0 0-5.9.6 4.4 4.4 0 0 0 0 6.4l6 5.6ZM15.1 3c1-.9 2.4-.9 3.3 0l1 .9.9-1c.9-.8 2.3-.8 3.2 0 1 1 1 2.3 0 3.2l-4.2 4-4.2-4c-.9-.9-.9-2.3 0-3.1Zm22 19.5a7 7 0 0 1-2.6 5.5 8.8 8.8 0 0 1 5.5 7.9V40H0v-4.6c0-4 2.7-7.5 6.5-9A8 8 0 0 1 11.1 12c4.3 0 7.8 3.6 7.8 8a8 8 0 0 1-3.2 6.4c2.6 1 4.8 3 5.8 5.6 1-1.8 2.5-3.2 4.5-4a7 7 0 0 1 4.2-12.6 7 7 0 0 1 7 7Zm-26-8.1c-3 0-5.4 2.5-5.4 5.5S8 25.5 11 25.5c3 0 5.4-2.5 5.4-5.6 0-3-2.4-5.5-5.4-5.5Zm8.7 23.2H2.4v-2.2c0-4.1 3.9-7.5 8.7-7.5 4.8 0 8.7 3.4 8.7 7.5v2.2Zm10.4-19.8c-2.5 0-4.5 2-4.5 4.7 0 2.5 2 4.6 4.5 4.6s4.6-2 4.6-4.6c0-2.6-2-4.7-4.6-4.7Zm7.4 19.8H22.8v-1.7c0-3.5 3.4-6.4 7.4-6.4 4.1 0 7.4 2.9 7.4 6.4v1.7Z" clip-rule="evenodd"/></svg>