<svg xmlns="http://www.w3.org/2000/svg" width="150" height="135" fill="none"><defs/><path fill="#00C" d="M91 37H81L39 79l-1 2v8l1 2 18 19h12l42-42 1-2v-8l-1-2-18-19h-2z" opacity=".1"/><path fill="#FFAB66" d="M91 33H81L39 75l-1 2v8l1 2 18 19h12l42-42 1-2v-8l-1-2-18-19h-2z"/><path fill="#fff" d="M66 100h-6-1L45 85l-1-1v-6l1-1 38-38h8l14 15v8l-38 38h-1z"/><path fill="#FF6400" d="M83 39L64 58l22 23 19-19v-1-6-1L91 39h-8z"/><path fill="#FF9D33" d="M61 93l6-6a1 1 0 111 1l-6 6a1 1 0 11-1-1M63 95l14-14a1 1 0 012 2L65 97a1 1 0 01-2-2"/><circle cx="86.8" cy="57.6" r="11" fill="#fff"/><circle cx="74.9" cy="57.6" r="4.1" fill="#FF9D33"/><path fill="#FF7300" d="M88 63a1 1 0 01-1-1l3-3a1 1 0 000-2h-2l-1 2a3 3 0 01-5-4l3-3a1 1 0 012 2l-3 2a1 1 0 001 2l2-2a3 3 0 014 4l-3 3z"/><path fill="#FF7300" d="M91 62h-1l-8-7a1 1 0 112-2l7 8a1 1 0 010 1z"/><circle cx="63.7" cy="64.3" r="1.1" fill="#FF4D4D"/><circle cx="66" cy="66.6" r="1.1" fill="#FF4D4D"/><circle cx="68.3" cy="68.9" r="1.1" fill="#FF4D4D"/><path fill="#000" d="M74 102h-1v-1l38-38V53v-1L97 38a1 1 0 111-1l14 14 1 3v7l-1 3-38 38zM68 107H56L38 88l-1-3v-7l1-3 42-42c1-1 2-2 3-1h7c1-1 3 0 3 1a1 1 0 11-1 1H82h-1L39 76v11l19 18h10a1 1 0 112 2h-2z"/><path fill="#FF6400" fill-rule="evenodd" d="M51 84h2l1-1v-3l-1-1h-2l-1 1v3l1 1zm2-2h-2v-1h2v1zM62 84h3l1-1v-3l-1-1h-3l-1 1v3l1 1zm2-2h-1v-1h1v1z" clip-rule="evenodd"/><path fill="#FF6400" d="M58 89l-1-1V75a1 1 0 012 0v13l-1 1z"/><path fill="#FF9D33" d="M52 42a1 1 0 01-1-2l2-2a1 1 0 012 1l-2 3h-1zM30 116a1 1 0 01-1-2l2-3a1 1 0 112 2l-3 2v1z"/><path fill="#FF6060" d="M122 56a1 1 0 010-2l2-2a1 1 0 012 2l-3 2h-1z"/><path fill="#FF9D33" d="M87 109a1 1 0 010-2l2-3a1 1 0 012 2l-3 2-1 1z"/><path fill="#FF7EB8" d="M15 97l-2-2-2-2a2 2 0 110-4l2-2a2 2 0 013 0l2 2a2 2 0 110 4l-2 2-1 2z"/><path fill="#FF6400" d="M22 20h6v3h-6v-3zM39 20h6v3h-6v-3zM32 27h3v6h-3v-6zM32 10h3v6h-3v-6zM128 83h4v2h-4v-2zM138 83h4v2h-4v-2zM134 88h2v3h-2v-3zM134 78h2v3h-2v-3z"/></svg>