<svg width="16" height="17" fill="none" xmlns="http://www.w3.org/2000/svg"><g clip-path="url(#a)" fill-rule="evenodd" clip-rule="evenodd" fill="#696969" fill-opacity=".5"><path d="M10.5 4.6H8.8a.4.4 0 0 1-.4-.4.4.4 0 0 1 .4-.4h1.7a.4.4 0 0 1 .4.4.4.4 0 0 1-.4.4Zm3.3 0H12a.4.4 0 0 1-.4-.4.4.4 0 0 1 .4-.4h1.8a.4.4 0 0 1 .4.4.4.4 0 0 1-.4.4Zm-5 2h1.7a.4.4 0 0 0 .4-.4.4.4 0 0 0-.4-.4H8.8a.4.4 0 0 0-.4.4.4.4 0 0 0 .4.4Zm5 0H12a.4.4 0 0 1-.4-.4.4.4 0 0 1 .4-.4h1.8a.4.4 0 0 1 .4.4.4.4 0 0 1-.4.4Zm-5 2h1.7a.4.4 0 0 0 .4-.4.4.4 0 0 0-.4-.3H8.8a.4.4 0 0 0-.4.3.4.4 0 0 0 .4.4Zm5 0H12a.4.4 0 0 1-.4-.4.4.4 0 0 1 .4-.3h1.8a.4.4 0 0 1 .4.3.4.4 0 0 1-.4.4Zm-5 2h1.7a.4.4 0 0 0 .4-.3.4.4 0 0 0-.4-.4H8.8a.4.4 0 0 0-.4.4.4.4 0 0 0 .4.3Zm5 0H12a.4.4 0 0 1-.4-.3.4.4 0 0 1 .4-.4h1.8a.4.4 0 0 1 .4.4.4.4 0 0 1-.4.3ZM3 10.8h1.8a.4.4 0 0 0 .4-.4.4.4 0 0 0-.4-.4H2.9a.4.4 0 0 0-.4.4.4.4 0 0 0 .4.4Zm1.8 1.8H2.9a.4.4 0 0 1-.4-.4.4.4 0 0 1 .4-.4h1.8a.4.4 0 0 1 .4.4.4.4 0 0 1-.4.4Zm-1.8 1.8h1.8a.4.4 0 0 0 .4-.4.4.4 0 0 0-.4-.4H2.9a.4.4 0 0 0-.4.4.4.4 0 0 0 .4.4Z"/><path d="M9.7 16.5H.6a.6.6 0 0 1-.6-.6V8.5a.6.6 0 0 1 .4-.6l6.2-1.6V2.4l.2-.2a.6.6 0 0 1 .4-.2L15.3.5a.6.6 0 0 1 .6.3l.1.3v14.8a.6.6 0 0 1-.6.6H9.7ZM9 15.4H7.7V3L15 1.7v13.7h-1.4V12a.6.6 0 0 0-.6-.5H9.7a.6.6 0 0 0-.6.5v3.4Zm3.2 0h-2v-2.8h2v2.8Zm-5.7 0v-8L1.1 9v6.5h5.5Z"/></g><defs><clipPath id="a"><path fill="#fff" transform="translate(0 .5)" d="M0 0h16v16H0z"/></clipPath></defs></svg>