<svg xmlns="http://www.w3.org/2000/svg" width="40" height="40" fill="none"><g fill-rule="evenodd" clip-path="url(#a)" clip-rule="evenodd"><path fill="#FF7300" d="M26.4 10.2h-4.5a1 1 0 0 1-1-1 1 1 0 0 1 1-1h4.5a1 1 0 0 1 1 1 1 1 0 0 1-1 1Zm8.1 0h-4.4a1 1 0 0 1-1-1 1 1 0 0 1 1-1h4.4a1 1 0 0 1 1 1 1 1 0 0 1-1 1Zm-12.6 5h4.5a1 1 0 0 0 1-1 1 1 0 0 0-1-.9h-4.5a1 1 0 0 0-1 1 1 1 0 0 0 1 1Zm12.6 0h-4.4a1 1 0 0 1-1-1 1 1 0 0 1 1-.9h4.4a1 1 0 0 1 1 1 1 1 0 0 1-1 1Zm-12.6 5h4.5a1 1 0 0 0 1-.9 1 1 0 0 0-1-1h-4.5a1 1 0 0 0-1 1 1 1 0 0 0 1 1Zm12.6 0h-4.4a1 1 0 0 1-1-.9 1 1 0 0 1 1-1h4.4a1 1 0 0 1 1 1 1 1 0 0 1-1 1ZM22 25.4h4.5a1 1 0 0 0 1-1 1 1 0 0 0-1-.9h-4.5a1 1 0 0 0-1 1 1 1 0 0 0 1 1Zm12.6 0h-4.4a1 1 0 0 1-1-1 1 1 0 0 1 1-.9h4.4a1 1 0 0 1 1 1 1 1 0 0 1-1 1Zm-27.2.4h4.5a1 1 0 0 0 .9-1 1 1 0 0 0-1-.9H7.4a1 1 0 0 0-1 1 1 1 0 0 0 1 .9Zm4.5 4.5H7.3a1 1 0 0 1-1-1 1 1 0 0 1 1-.9h4.5a1 1 0 0 1 .9 1 1 1 0 0 1-1 1Zm-4.5 4.5h4.5a1 1 0 0 0 .9-1 1 1 0 0 0-1-.9H7.4a1 1 0 0 0-1 1 1 1 0 0 0 1 1Z"/><path fill="#696969" d="M24.2 40H1.4A1.4 1.4 0 0 1 0 38.6V20a1.4 1.4 0 0 1 1-1.4l15.5-4.2V5.6c0-.2 0-.5.2-.7l.4-.6a1.4 1.4 0 0 1 1-.6L38.2 0a1.4 1.4 0 0 1 1.6.8l.1.6v37.2a1.4 1.4 0 0 1-1.4 1.4H24.2Zm-1.4-2.8h-3.5V6.3l17.9-3.2v34h-3.6v-8.3a1.4 1.4 0 0 0-1.4-1.4h-8a1.4 1.4 0 0 0-1.4 1.4v8.4Zm8 0h-5.2v-7h5.2v7Zm-14.3 0V17.4L2.8 21v16.2h13.7Z"/></g><defs><clipPath id="a"><path fill="#fff" d="M0 0h40v40H0z"/></clipPath></defs></svg>