<svg xmlns="http://www.w3.org/2000/svg" width="18" height="18" viewBox="0 0 18 18">
    <g fill="none" fill-rule="evenodd">
        <g fill="#000" fill-rule="nonzero">
            <g>
                <path d="M4.746 15.187V1.85l2.487 2.487c.211.21.554.21.765 0 .21-.211.21-.554 0-.765L4.583.158c-.211-.21-.553-.21-.764 0L.407 3.569c-.212.213-.212.558 0 .77.213.213.557.213.77 0l2.484-2.49v13.338c0 .748.543 2.17 2.712 2.17h1.085c.3 0 .542-.243.542-.543 0-.3-.242-.542-.542-.542H6.373c-1.518 0-1.627-.912-1.627-1.085zM16.824 13.018l-2.485 2.489V2.17c0-.749-.542-2.17-2.711-2.17h-1.085c-.3 0-.543.243-.543.543 0 .3.243.542.543.542h1.085c1.518 0 1.627.911 1.627 1.085v13.337l-2.487-2.487c-.211-.211-.554-.211-.765 0-.211.211-.211.554 0 .765l3.414 3.414c.212.21.554.21.765 0l3.412-3.411c.212-.213.212-.558 0-.77-.213-.213-.557-.213-.77 0z" transform="translate(-1270 -356) rotate(90 466 822)"/>
            </g>
        </g>
    </g>
</svg>
