<svg width="24" height="25" viewBox="0 0 24 25" fill="none" xmlns="http://www.w3.org/2000/svg">
<path fill-rule="evenodd" clip-rule="evenodd" d="M15.1111 19.281C15.1111 17.4673 13.7156 15.9917 12.0001 15.9917C10.2846 15.9917 8.88892 17.4673 8.88892 19.281C8.88892 21.0948 10.2846 22.5703 12.0001 22.5703C13.7155 22.5703 15.1111 21.0948 15.1111 19.281ZM13.5768 19.281C13.5768 20.2002 12.8695 20.9481 12.0001 20.9481C11.1306 20.9481 10.4234 20.2002 10.4234 19.281C10.4234 18.3618 11.1307 17.614 12.0001 17.614C12.8695 17.614 13.5768 18.3618 13.5768 19.281Z" fill="#FF7300"/>
<path fill-rule="evenodd" clip-rule="evenodd" d="M0.7605 6.01447C3.76266 2.90982 7.75425 1.19995 12 1.19995C16.2458 1.19995 20.2373 2.90982 23.2395 6.01447C23.73 6.52162 24 7.19587 24 7.91306C24 8.63025 23.73 9.30454 23.2395 9.81164C22.7333 10.3351 22.0686 10.5968 21.4036 10.5968C20.7389 10.5967 20.0738 10.335 19.5677 9.81164C17.5498 7.72478 14.8621 6.57543 12 6.57543C9.13781 6.57543 6.45014 7.72468 4.43217 9.81164C3.94181 10.3187 3.28978 10.598 2.59631 10.598C1.9028 10.598 1.25077 10.3187 0.760454 9.81164C0.270094 9.30454 0 8.6303 0 7.91306C0 7.19587 0.270046 6.52162 0.7605 6.01447ZM1.76004 8.77794C1.98344 9.00892 2.28044 9.13612 2.59638 9.13612C2.91232 9.13612 3.20932 9.00888 3.43273 8.77794C5.71769 6.41491 8.7603 5.11354 12.0001 5.11354C15.2398 5.11354 18.2824 6.41491 20.5674 8.77789C21.0286 9.25474 21.7789 9.25474 22.2401 8.77789C22.4634 8.54691 22.5864 8.23972 22.5864 7.91304C22.5864 7.58637 22.4633 7.27918 22.2399 7.04814C19.5047 4.21961 15.8681 2.66181 12 2.66181C8.13185 2.66181 4.49519 4.21956 1.75999 7.04819C1.53658 7.27918 1.41354 7.58632 1.41354 7.91304C1.41354 8.23977 1.53663 8.54695 1.76004 8.77794ZM5.19174 11.6674C8.94579 7.7354 15.0542 7.7354 18.8082 11.6674C19.8046 12.7111 19.8046 14.4092 18.8082 15.4528C18.3255 15.9584 17.6838 16.2369 17.0012 16.2369C16.3186 16.2369 15.6768 15.9584 15.1942 15.4528C14.341 14.5592 13.2066 14.0671 12 14.0671C10.7933 14.0671 9.659 14.5592 8.80581 15.4528C8.32311 15.9583 7.68137 16.2368 6.99875 16.2368C6.31613 16.2368 5.67435 15.9584 5.19169 15.4528C4.19534 14.4091 4.19534 12.7111 5.19174 11.6674ZM6.17558 14.4222C6.39547 14.6526 6.68781 14.7794 6.99878 14.7794C7.30975 14.7794 7.60204 14.6526 7.82198 14.4222C8.93802 13.2534 10.4218 12.6097 12 12.6097C13.5783 12.6097 15.0621 13.2534 16.1781 14.4223C16.398 14.6526 16.6903 14.7795 17.0013 14.7795C17.3122 14.7795 17.6046 14.6526 17.8245 14.4223C18.2783 13.9469 18.2783 13.1733 17.8245 12.6979C16.2184 11.0157 14.1096 10.175 12 10.175C9.89096 10.175 7.78124 11.0161 6.17558 12.6978C5.72171 13.1732 5.72171 13.9468 6.17558 14.4222Z" fill="#696969"/>
</svg>
