<svg width="70" height="70" viewBox="0 0 70 70" fill="none" xmlns="http://www.w3.org/2000/svg">
<path d="M0 8C0 3.58172 3.58172 0 8 0H62C66.4183 0 70 3.58172 70 8V62C70 66.4183 66.4183 70 62 70H8C3.58172 70 0 66.4183 0 62V8Z" fill="url(#paint0_linear_49:5366)"/>
<path fill-rule="evenodd" clip-rule="evenodd" d="M25.2537 20.3596C25.5352 18.154 26.5758 16.1152 28.1968 14.5933C29.9669 12.9258 32.3074 11.998 34.7392 12C34.8416 12 34.9443 12.0018 35.0472 12.0053C36.5425 12.0525 38.0059 12.4497 39.32 13.1648C40.634 13.8799 41.7621 14.8932 42.6138 16.1232C43.4654 17.3532 44.0168 18.7657 44.2238 20.2473C44.4308 21.729 44.2875 23.2385 43.8056 24.6548C43.7506 24.8197 43.6665 24.9733 43.5572 25.1085C43.3356 25.3844 43.0231 25.5725 42.6756 25.6393C42.328 25.706 41.9681 25.6471 41.66 25.4729C41.352 25.2988 41.1158 25.0208 40.9938 24.6887C40.8717 24.3565 40.8717 23.9918 40.9938 23.6596L41.0035 23.631C41.0354 23.5368 41.0676 23.4421 41.0947 23.3481C41.4269 22.237 41.4619 21.0583 41.1961 19.9295C40.9303 18.8007 40.373 17.7614 39.58 16.9154C38.4526 15.7121 36.9168 14.9726 35.2731 14.8416C33.6293 14.7105 31.9958 15.1974 30.692 16.2069C29.3882 17.2164 28.5078 18.676 28.2231 20.3002C27.9384 21.9244 28.2698 23.5964 29.1525 24.9892L33.8432 32.4162C33.9011 32.5084 33.9805 32.5852 34.0745 32.6401C34.1685 32.695 34.2745 32.7264 34.3832 32.7315C34.492 32.7367 34.6004 32.7155 34.6992 32.6698C34.798 32.624 34.8843 32.5551 34.9507 32.4688C34.9528 32.4667 34.9551 32.4638 34.9575 32.4608L34.9612 32.4562L34.9633 32.4537L34.9656 32.4513L36.2399 30.6882L36.5084 30.3161L36.6251 30.1564C36.905 29.769 37.0629 29.3069 37.0785 28.8293C37.0942 28.3516 36.9668 27.8802 36.7129 27.4754L35.816 26.0519C36.202 25.0116 36.9677 24.1562 37.9591 23.6579L39.5273 26.1484C40.037 26.9606 40.2925 27.9063 40.2613 28.8646C40.23 29.8229 39.9133 30.75 39.3518 31.5272L39.3035 31.5956L39.0956 31.8817L35.4272 36.9507C35.2919 37.137 35.113 37.2874 34.9061 37.3887C34.6992 37.49 34.4707 37.539 34.2405 37.5316C34.0103 37.5241 33.7854 37.4604 33.5855 37.346C33.3856 37.2316 33.2167 37.0699 33.0937 36.8752L32.4707 35.8897L26.654 26.6803C25.4673 24.8 24.9722 22.5652 25.2537 20.3596ZM33.4079 20.7644C34.1581 20.0154 34.597 19.0102 34.6365 17.9509H34.8559C34.8955 19.0102 35.3344 20.0154 36.0845 20.7644L36.2328 20.9119C36.9814 21.6627 37.9868 22.1018 39.0464 22.1405V22.3608C38.3971 22.3841 37.7622 22.5583 37.1921 22.8698C36.8397 23.0635 36.5167 23.3064 36.2328 23.5911L36.0845 23.7394C35.3356 24.4893 34.8969 25.494 34.8559 26.553H34.6365C34.5981 25.4934 34.159 24.4878 33.4079 23.7394L33.2596 23.5911C32.5135 22.8399 31.5094 22.4006 30.4513 22.3625V22.1405C31.5092 22.1014 32.5129 21.6623 33.2596 20.9119L33.4079 20.7644ZM11.9264 41.5176C12.5179 41.9566 12.9262 42.599 13.0725 43.321H11.513C11.3676 42.9865 11.1224 42.7052 10.811 42.5154C10.4702 42.3105 10.0781 42.207 9.68063 42.217C9.28229 42.2089 8.88939 42.3106 8.54502 42.511C8.21216 42.7103 7.94515 43.0029 7.77713 43.3526C7.5866 43.7529 7.49282 44.1924 7.50334 44.6356C7.50334 45.4132 7.7119 46.0193 8.12905 46.454C8.54619 46.8887 9.11604 47.1061 9.83858 47.1061C10.3377 47.1176 10.8244 46.9498 11.2103 46.633C11.5929 46.3171 11.8401 45.8783 11.9518 45.3167H9.43842V44.2557H13.1927V45.6852C13.088 46.1764 12.8784 46.6392 12.5784 47.042C12.2633 47.4637 11.8524 47.8045 11.3796 48.0363C10.8509 48.2926 10.269 48.4204 9.68149 48.4093C9.00699 48.4231 8.34084 48.2581 7.7508 47.931C7.20037 47.6187 6.75134 47.1548 6.45724 46.5944C6.15644 45.9845 6 45.3135 6 44.6335C6 43.9534 6.15644 43.2824 6.45724 42.6725C6.75122 42.1129 7.19797 41.6482 7.74555 41.3324C8.33192 41.001 8.99671 40.8337 9.67009 40.848C10.5781 40.8486 11.3302 41.0718 11.9264 41.5176ZM19.6009 43.8414C19.353 43.3999 18.9823 43.0399 18.5337 42.805C18.0579 42.5701 17.5343 42.4479 17.0036 42.4479C16.473 42.4479 15.9494 42.5701 15.4736 42.805C15.025 43.0399 14.6543 43.3999 14.4064 43.8414C14.1504 44.3326 14.0167 44.8782 14.0167 45.4321C14.0167 45.9859 14.1504 46.5316 14.4064 47.0227C14.6566 47.462 15.0268 47.8209 15.4736 48.0574C15.9482 48.2963 16.4722 48.4207 17.0036 48.4207C17.535 48.4207 18.0591 48.2963 18.5337 48.0574C18.9805 47.8209 19.3507 47.462 19.6009 47.0227C19.8569 46.5316 19.9906 45.9859 19.9906 45.4321C19.9906 44.8782 19.8569 44.3326 19.6009 43.8414ZM15.5227 45.4351C15.5227 44.8828 15.6664 44.4604 15.9536 44.1679C16.0917 44.0293 16.2559 43.9193 16.4366 43.8443C16.6173 43.7692 16.8111 43.7306 17.0067 43.7306C17.2024 43.7306 17.3961 43.7692 17.5769 43.8443C17.7576 43.9193 17.9217 44.0293 18.0598 44.1679C18.3471 44.4604 18.4907 44.8828 18.4907 45.4351C18.4907 45.9874 18.3471 46.4099 18.0598 46.7024C17.9217 46.841 17.7576 46.951 17.5769 47.026C17.3961 47.1011 17.2024 47.1397 17.0067 47.1397C16.8111 47.1397 16.6173 47.1011 16.4366 47.026C16.2559 46.951 16.0917 46.841 15.9536 46.7024C15.6664 46.4099 15.5227 45.9874 15.5227 45.4351ZM24.3257 43.0788C24.3257 42.7488 24.2476 42.4891 24.0897 42.3004C23.9317 42.1117 23.6851 42.0161 23.3481 42.0161C22.6536 42.0161 22.2856 42.4894 22.2441 43.436H20.8031C20.8452 42.5584 21.1117 41.8941 21.6026 41.443C22.0934 40.9919 22.7139 40.7661 23.4639 40.7655C24.2286 40.7655 24.8157 40.9633 25.2253 41.3588C25.6348 41.7543 25.8396 42.2808 25.8396 42.9384C25.8299 43.4904 25.672 44.0296 25.3823 44.4996C25.0677 45.0343 24.6762 45.5198 24.2204 45.9406C23.7658 46.3669 23.2689 46.7457 22.7373 47.071H25.9844V48.2803H20.7583V47.1763C23.1366 45.5305 24.3257 44.1647 24.3257 43.0788ZM33.8626 43.5097C33.6666 42.6889 33.2635 42.0403 32.6532 41.5641C32.043 41.0873 31.2754 40.846 30.3505 40.8401C29.6912 40.8258 29.0405 40.9911 28.468 41.3184C27.9296 41.636 27.4934 42.1014 27.2113 42.6593C26.9167 43.2712 26.7637 43.9416 26.7637 44.6208C26.7637 45.2999 26.9167 45.9703 27.2113 46.5822C27.4944 47.1411 27.9325 47.6067 28.4733 47.9231C29.0444 48.2491 29.693 48.4143 30.3505 48.4014C31.276 48.4026 32.0436 48.1641 32.6532 47.6862C33.2629 47.2082 33.666 46.5596 33.8626 45.7406H32.3066C32.1573 46.1249 31.8951 46.4551 31.5545 46.6875C31.1905 46.9274 30.7617 47.0499 30.3259 47.0385C29.9479 47.0461 29.576 46.9425 29.2563 46.7406C28.9367 46.5387 28.6833 46.2475 28.5277 45.9029C28.354 45.4995 28.2645 45.0648 28.2645 44.6256C28.2645 44.1863 28.354 43.7517 28.5277 43.3483C28.6833 43.0037 28.9367 42.7124 29.2563 42.5105C29.576 42.3087 29.9479 42.2051 30.3259 42.2127C30.7618 42.2008 31.1907 42.3233 31.5545 42.5637C31.8951 42.7958 32.1573 43.1256 32.3066 43.5097H33.8626ZM40.0564 43.099C40.456 43.5414 40.6558 44.1621 40.6558 44.9613V48.347H39.1833V45.1333C39.1833 44.6699 39.0642 44.3104 38.8261 44.0547C38.588 43.7991 38.2618 43.6712 37.8476 43.6712C37.4275 43.6712 37.0911 43.8078 36.8383 44.0811C36.5856 44.3543 36.4595 44.7469 36.4601 45.2588V48.3505H34.977V40.5681H36.4601V43.6923C36.6052 43.3098 36.8731 42.9864 37.2218 42.7726C37.5911 42.5465 38.0176 42.4314 38.4505 42.4409C39.1215 42.4385 39.6569 42.6579 40.0564 43.099ZM47.2457 43.8414C46.9976 43.3999 46.6266 43.0398 46.1777 42.805C45.7019 42.5701 45.1783 42.4479 44.6476 42.4479C44.117 42.4479 43.5934 42.5701 43.1176 42.805C42.6692 43.0401 42.2985 43.4001 42.0504 43.8414C41.795 44.3327 41.6616 44.8783 41.6616 45.4321C41.6616 45.9858 41.795 46.5314 42.0504 47.0227C42.3009 47.4618 42.671 47.8206 43.1176 48.0574C43.5922 48.2963 44.1162 48.4207 44.6476 48.4207C45.179 48.4207 45.7031 48.2963 46.1777 48.0574C46.6248 47.8209 46.9952 47.462 47.2457 47.0227C47.5012 46.5314 47.6345 45.9858 47.6345 45.4321C47.6345 44.8783 47.5012 44.3327 47.2457 43.8414ZM43.1693 45.4351C43.1688 44.8828 43.3124 44.4604 43.6002 44.1679C43.7382 44.0291 43.9023 43.9189 44.0831 43.8437C44.2638 43.7686 44.4576 43.7299 44.6533 43.7299C44.8491 43.7299 45.0429 43.7686 45.2236 43.8437C45.4044 43.9189 45.5684 44.0291 45.7064 44.1679C45.9943 44.4604 46.1382 44.8828 46.1382 45.4351C46.1382 45.9874 45.9943 46.4099 45.7064 46.7024C45.5684 46.8412 45.4044 46.9514 45.2236 47.0266C45.0429 47.1017 44.8491 47.1404 44.6533 47.1404C44.4576 47.1404 44.2638 47.1017 44.0831 47.0266C43.9023 46.9514 43.7382 46.8412 43.6002 46.7024C43.3136 46.4099 43.1699 45.9874 43.1693 45.4351ZM48.7736 40.2653C48.9633 40.1186 49.1963 40.039 49.4362 40.039C49.676 40.039 49.909 40.1186 50.0987 40.2653C50.1812 40.338 50.2466 40.428 50.2903 40.5289C50.3339 40.6298 50.3549 40.739 50.3515 40.8489C50.3542 40.9573 50.3329 41.0649 50.2892 41.1641C50.2455 41.2633 50.1805 41.3516 50.0987 41.4228C49.9089 41.5692 49.6759 41.6485 49.4362 41.6485C49.1964 41.6485 48.9635 41.5692 48.7736 41.4228C48.692 41.3516 48.6271 41.2632 48.5835 41.164C48.54 41.0648 48.5189 40.9572 48.5217 40.8489C48.5182 40.7391 48.539 40.6299 48.5825 40.529C48.6261 40.4281 48.6913 40.3381 48.7736 40.2653ZM50.1725 42.5207V48.347H48.6894V42.5207H50.1725ZM56.9553 44.7191C56.8283 44.0182 56.5147 43.4644 56.0145 43.0578C55.5125 42.6512 54.8853 42.4537 54.133 42.4654C53.6064 42.4557 53.0858 42.5785 52.6191 42.8226C52.1803 43.058 51.8216 43.4188 51.5888 43.859C51.3463 44.3542 51.2203 44.8983 51.2203 45.4496C51.2203 46.001 51.3463 46.5451 51.5888 47.0403C51.8238 47.4784 52.182 47.8381 52.6191 48.075C53.0845 48.3231 53.6056 48.4481 54.133 48.4383C54.8842 48.4342 55.5102 48.2294 56.011 47.824C56.5118 47.4185 56.8254 46.8648 56.9518 46.1627H55.3844C55.3342 46.4503 55.181 46.7099 54.9535 46.8928C54.7095 47.0783 54.4086 47.1732 54.1023 47.1614C53.9161 47.1648 53.7316 47.1272 53.5616 47.0514C53.3916 46.9756 53.2403 46.8633 53.1185 46.7226C52.8558 46.4306 52.7244 46.005 52.7244 45.4457C52.7244 44.8864 52.8558 44.4605 53.1185 44.1679C53.2404 44.0273 53.3917 43.9151 53.5616 43.8393C53.7316 43.7635 53.9162 43.7259 54.1023 43.7291C54.4079 43.7158 54.7088 43.8088 54.9535 43.9924C55.1831 44.1733 55.3391 44.4316 55.3923 44.7191H56.9553ZM63.4328 45.7177H59.1659C59.187 46.2361 59.3271 46.6181 59.5863 46.8639C59.8467 47.1096 60.1938 47.2421 60.5517 47.2324C60.8574 47.2438 61.1584 47.1551 61.4091 46.9797C61.6359 46.8149 61.7925 46.5709 61.8479 46.2961H63.4143C63.3409 46.6953 63.1714 47.0706 62.9203 47.3895C62.6622 47.7169 62.3285 47.9768 61.9479 48.1469C61.4981 48.3418 61.0108 48.4351 60.5208 48.4199C60.0308 48.4047 59.5502 48.2815 59.1133 48.0591C58.6762 47.8223 58.318 47.4626 58.083 47.0245C57.8405 46.5293 57.7144 45.9852 57.7144 45.4338C57.7144 44.8825 57.8405 44.3384 58.083 43.8432C58.3158 43.403 58.6745 43.0422 59.1133 42.8068C59.5803 42.5627 60.1011 42.4399 60.628 42.4496C61.1531 42.4377 61.6725 42.5607 62.1366 42.8068C62.5562 43.0335 62.9028 43.3746 63.1361 43.7905C63.3751 44.2267 63.4961 44.7176 63.4872 45.2149C63.4843 45.3838 63.4661 45.5521 63.4328 45.7177ZM61.6232 43.9827C61.3518 43.7368 60.9959 43.605 60.6297 43.615C60.2585 43.6043 59.8971 43.7358 59.6196 43.9827C59.347 44.2285 59.1964 44.5897 59.1677 45.0666H61.997C62.0152 44.5892 61.8906 44.2279 61.6232 43.9827ZM13.8755 54.9087C13.9964 55.1793 14.1906 55.4107 14.4363 55.5765C14.6958 55.7469 15.0009 55.8345 15.3112 55.8275C15.6727 55.8407 16.0262 55.7197 16.3038 55.4879C16.5693 55.2561 16.7524 54.9445 16.8259 54.5998H16.2222C16.1643 54.792 16.0499 54.9623 15.8939 55.0886C15.7316 55.2182 15.5285 55.286 15.3209 55.2799C15.1783 55.2873 15.0361 55.2583 14.9078 55.1957C14.7795 55.1331 14.6691 55.0388 14.5872 54.9219C14.4181 54.6855 14.3336 54.3699 14.3336 53.9749C14.3336 53.58 14.4173 53.2656 14.5846 53.0315C14.6667 52.9128 14.7779 52.8171 14.9076 52.7536C15.0373 52.6902 15.1811 52.661 15.3253 52.6691C15.5437 52.663 15.7569 52.737 15.9247 52.8771C16.0885 53.0153 16.2033 53.2028 16.252 53.4115H16.854C16.7867 53.0523 16.6032 52.7252 16.3319 52.4804C16.0488 52.2394 15.6853 52.114 15.3139 52.1294C15.0033 52.1212 14.6974 52.2068 14.4363 52.3751C14.1904 52.5395 13.996 52.7701 13.8755 53.0403C13.7489 53.3355 13.6836 53.6533 13.6836 53.9745C13.6836 54.2957 13.7489 54.6135 13.8755 54.9087ZM17.3682 51.9784H17.9922V53.5239H18.0282C18.0975 53.3789 18.2045 53.2552 18.338 53.1658C18.4915 53.0636 18.6731 53.0117 18.8575 53.0175C19.205 53.0175 19.4557 53.1301 19.6096 53.3554C19.7649 53.5864 19.8452 53.8598 19.8395 54.1382V55.7863H19.2208V54.2338C19.2325 54.0483 19.1749 53.8651 19.0594 53.7196C19.0018 53.6579 18.9314 53.6097 18.8532 53.5783C18.7749 53.5469 18.6907 53.5331 18.6065 53.5379C18.5227 53.5347 18.4393 53.5504 18.3623 53.5836C18.2853 53.6169 18.2167 53.6669 18.1616 53.7301C18.0439 53.8708 17.9834 54.0506 17.9922 54.2338V55.7845H17.3682V51.9784ZM20.5206 55.1193C20.6131 55.3274 20.7629 55.5049 20.9524 55.631C21.1672 55.7579 21.412 55.8249 21.6615 55.8249C21.9109 55.8249 22.1558 55.7579 22.3706 55.631C22.5606 55.5038 22.7097 55.3243 22.7997 55.1141C22.8947 54.8945 22.9429 54.6574 22.941 54.4182C22.9432 54.1805 22.8951 53.9451 22.7997 53.7275C22.7086 53.5192 22.5597 53.3413 22.3706 53.215C22.1558 53.088 21.9109 53.0211 21.6615 53.0211C21.412 53.0211 21.1672 53.088 20.9524 53.215C20.7623 53.342 20.6125 53.5207 20.5206 53.7301C20.4257 53.9494 20.3767 54.1858 20.3767 54.4247C20.3767 54.6637 20.4257 54.9001 20.5206 55.1193ZM22.3337 54.4182C22.3414 54.6443 22.2802 54.8674 22.1582 55.0579H22.1556C22.0986 55.1362 22.0239 55.2 21.9376 55.2439C21.8512 55.2879 21.7557 55.3108 21.6589 55.3108C21.562 55.3108 21.4665 55.2879 21.3802 55.2439C21.2938 55.2 21.2191 55.1362 21.1621 55.0579C21.0492 54.8641 20.9897 54.6438 20.9897 54.4195C20.9897 54.1951 21.0492 53.9748 21.1621 53.781C21.2191 53.7022 21.2939 53.638 21.3805 53.5937C21.4671 53.5494 21.5629 53.5264 21.6602 53.5264C21.7574 53.5264 21.8533 53.5494 21.9399 53.5937C22.0264 53.638 22.1013 53.7022 22.1582 53.781C22.2807 53.9704 22.3419 54.1928 22.3337 54.4182ZM21.3434 56.782C21.3606 56.8242 21.3861 56.8625 21.4184 56.8947V56.8929C21.4496 56.9267 21.4875 56.9537 21.5296 56.9721C21.5718 56.9906 21.6172 57.0001 21.6632 57C21.7563 57 21.8456 56.963 21.9115 56.8972C21.9773 56.8314 22.0143 56.7421 22.0143 56.649C22.015 56.6036 22.0063 56.5586 21.9888 56.5168C21.9713 56.475 21.9453 56.4372 21.9125 56.4059C21.8468 56.3408 21.758 56.3042 21.6654 56.3042C21.5729 56.3042 21.4841 56.3408 21.4184 56.4059C21.386 56.4374 21.3604 56.4753 21.3432 56.5171C21.326 56.5589 21.3175 56.6038 21.3184 56.649C21.3177 56.6945 21.3262 56.7398 21.3434 56.782ZM23.493 53.0824H24.1178V53.5212H24.1538C24.223 53.3765 24.3297 53.2528 24.4627 53.1631C24.6164 53.0611 24.7979 53.0093 24.9822 53.0148C25.3333 53.0148 25.584 53.1275 25.7343 53.3527C25.8899 53.5837 25.9705 53.8571 25.9651 54.1355V55.7836H25.3456V54.2338C25.3576 54.0484 25.3003 53.8652 25.185 53.7195C25.1247 53.6608 25.0535 53.6145 24.9754 53.5833C24.8972 53.5521 24.8137 53.5367 24.7296 53.5378C24.6455 53.539 24.5624 53.5567 24.4851 53.59C24.4078 53.6233 24.3379 53.6715 24.2793 53.7318C24.1672 53.8745 24.1099 54.0525 24.1178 54.2338V55.7845H23.493V53.0824ZM30.1942 52.8262C30.1004 52.6381 29.9537 52.4816 29.772 52.376C29.5534 52.2516 29.3047 52.1903 29.0533 52.1987H27.7632V55.781H28.3723V54.6086H29.0533C29.3045 54.618 29.5536 54.5598 29.7747 54.4401C29.9554 54.3392 30.1015 54.1863 30.1942 54.0013C30.2828 53.8181 30.3288 53.6172 30.3288 53.4137C30.3288 53.2102 30.2828 53.0094 30.1942 52.8262ZM29.729 53.4133C29.7285 53.6602 29.655 53.8357 29.5088 53.9398H29.5035C29.3448 54.0457 29.157 54.0994 28.9664 54.0934H28.3775V52.7481H28.9664C29.1593 52.7406 29.3498 52.7934 29.5114 52.899C29.6571 52.995 29.7296 53.1664 29.729 53.4133ZM30.8313 51.9784H31.4553V53.5239H31.4912C31.5608 53.3791 31.6678 53.2555 31.801 53.1658C31.9546 53.0637 32.1362 53.0118 32.3206 53.0175C32.6681 53.0175 32.9188 53.1301 33.0727 53.3554C33.228 53.5864 33.3083 53.8598 33.3026 54.1382V55.7863H32.6839V54.2338C32.696 54.0483 32.6384 53.8649 32.5224 53.7196C32.4649 53.6578 32.3946 53.6095 32.3163 53.5781C32.238 53.5467 32.1538 53.533 32.0696 53.5379C31.9858 53.5347 31.9023 53.5504 31.8254 53.5836C31.7484 53.6169 31.6798 53.6669 31.6246 53.7301C31.5073 53.871 31.4469 54.0507 31.4553 54.2338V55.7845H30.8313V51.9784ZM33.9854 55.1193C34.0782 55.3275 34.2282 55.5049 34.418 55.631C34.6326 55.7579 34.8774 55.8249 35.1267 55.8249C35.376 55.8249 35.6207 55.7579 35.8353 55.631C36.0259 55.5041 36.1753 55.3245 36.2654 55.1141C36.3601 54.8944 36.4079 54.6574 36.4058 54.4182C36.4083 54.1806 36.3604 53.9452 36.2654 53.7275C36.1742 53.5189 36.0249 53.341 35.8353 53.215C35.6207 53.088 35.376 53.0211 35.1267 53.0211C34.8774 53.0211 34.6326 53.088 34.418 53.215C34.2277 53.3419 34.0776 53.5207 33.9854 53.7301C33.8909 53.9495 33.8421 54.1859 33.8421 54.4247C33.8421 54.6636 33.8909 54.9 33.9854 55.1193ZM34.8498 51.7318H34.2206L34.8656 52.7086L35.3571 52.7033L34.8498 51.7318ZM35.8002 54.4182C35.8079 54.6443 35.7467 54.8674 35.6247 55.0579H35.6221C35.5657 55.1369 35.4912 55.2013 35.4049 55.2457C35.3186 55.2901 35.2229 55.3133 35.1258 55.3133C35.0287 55.3133 34.9331 55.2901 34.8468 55.2457C34.7604 55.2013 34.686 55.1369 34.6295 55.0579C34.5161 54.8643 34.4563 54.6439 34.4563 54.4195C34.4563 54.195 34.5161 53.9747 34.6295 53.781C34.6865 53.7024 34.7613 53.6383 34.8478 53.5942C34.9343 53.55 35.03 53.527 35.1271 53.527C35.2243 53.527 35.32 53.55 35.4065 53.5942C35.493 53.6383 35.5678 53.7024 35.6247 53.781C35.7472 53.9704 35.8084 54.1928 35.8002 54.4182ZM36.9569 53.0824H37.5773V53.5212H37.6133C37.6826 53.3763 37.7896 53.2526 37.9231 53.1632C38.0766 53.0609 38.2582 53.0091 38.4426 53.0149C38.7902 53.0149 39.0408 53.1275 39.1947 53.3527C39.35 53.5838 39.4303 53.8572 39.4246 54.1355V55.7836H38.8059V54.2338C38.818 54.0483 38.7604 53.8649 38.6445 53.7196C38.5891 53.659 38.5211 53.6114 38.4452 53.58C38.3694 53.5486 38.2876 53.5342 38.2057 53.5379C38.1187 53.5325 38.0317 53.5472 37.9514 53.5809C37.871 53.6145 37.7995 53.6661 37.7423 53.7318C37.6302 53.8745 37.573 54.0526 37.5808 54.2338V55.7845H36.9569V53.0824ZM40.8613 56.3216V56.8227C41.0126 56.8756 41.1723 56.9003 41.3325 56.8955C41.6567 56.895 41.9109 56.8233 42.0952 56.6805C42.267 56.5539 42.3979 56.3797 42.4716 56.1794C42.5355 56.0002 42.569 55.8116 42.5708 55.6213V53.0833H41.9565V53.5537H41.9153C41.8503 53.4043 41.7471 53.2747 41.616 53.1781C41.4548 53.0569 41.2568 52.9949 41.0552 53.0026C40.849 52.9987 40.6469 53.0601 40.4778 53.1781C40.3078 53.2997 40.1762 53.4675 40.0987 53.6616C40.0059 53.8906 39.9605 54.136 39.9653 54.383C39.9606 54.6274 40.006 54.8702 40.0987 55.0965C40.1767 55.2896 40.3082 55.4564 40.4778 55.5774C40.6469 55.6954 40.849 55.7568 41.0552 55.7529C41.2505 55.7607 41.443 55.704 41.6028 55.5915C41.7356 55.4972 41.843 55.3714 41.9153 55.2255H41.9565V55.6257C41.9636 55.8172 41.9058 56.0056 41.7924 56.1601C41.6836 56.3017 41.5045 56.3725 41.2553 56.3725C41.1798 56.372 41.1044 56.3662 41.0298 56.3549C40.973 56.3473 40.9167 56.3362 40.8613 56.3216ZM41.9556 54.3734C41.9594 54.5885 41.8982 54.7999 41.7801 54.9798L41.7766 54.985C41.7192 55.0648 41.6437 55.1297 41.5562 55.1745C41.4688 55.2193 41.372 55.2427 41.2738 55.2427C41.1755 55.2427 41.0787 55.2193 40.9912 55.1745C40.9038 55.1297 40.8283 55.0648 40.7709 54.985C40.6547 54.8036 40.5957 54.5914 40.6015 54.376C40.597 54.1623 40.6582 53.9525 40.777 53.7748C40.8346 53.6958 40.9101 53.6315 40.9972 53.5871C41.0844 53.5428 41.1808 53.5197 41.2786 53.5197C41.3764 53.5197 41.4728 53.5428 41.5599 53.5871C41.6471 53.6315 41.7225 53.6958 41.7801 53.7748C41.8977 53.952 41.9589 54.1607 41.9556 54.3734ZM45.0623 55.5766C44.8167 55.4109 44.6227 55.1794 44.5024 54.9087C44.3757 54.6136 44.3104 54.2957 44.3104 53.9745C44.3104 53.6534 44.3757 53.3355 44.5024 53.0403C44.6222 52.7701 44.8164 52.5394 45.0623 52.3751C45.3234 52.2068 45.6293 52.1212 45.9398 52.1294C46.3115 52.1143 46.6753 52.2396 46.9587 52.4804C47.2298 52.7253 47.4129 53.0525 47.48 53.4116H46.8762C46.8279 53.2027 46.713 53.0151 46.5489 52.8771C46.3814 52.7372 46.1685 52.6632 45.9504 52.6691C45.8074 52.6612 45.6647 52.6897 45.5358 52.752C45.4068 52.8144 45.2958 52.9084 45.2132 53.0254C45.0465 53.2595 44.9628 53.5739 44.9622 53.9688C44.9616 54.3638 45.0462 54.6794 45.2158 54.9157C45.298 55.0327 45.4084 55.1269 45.5369 55.1896C45.6654 55.2522 45.8076 55.2812 45.9504 55.2738C46.158 55.2799 46.3611 55.2121 46.5234 55.0825C46.6791 54.9561 46.7932 54.7858 46.8508 54.5937H47.4546C47.3814 54.9385 47.1982 55.2502 46.9324 55.4818C46.6548 55.7136 46.3013 55.8346 45.9398 55.8214C45.6293 55.8307 45.3232 55.7453 45.0623 55.5766ZM48.6191 51.9784H47.9943V55.7845H48.6191V54.2338C48.6105 54.0508 48.6706 53.8711 48.7876 53.7301C48.8428 53.6669 48.9114 53.6169 48.9883 53.5836C49.0653 53.5504 49.1488 53.5347 49.2326 53.5379C49.3168 53.533 49.401 53.5467 49.4793 53.5781C49.5576 53.6095 49.6279 53.6578 49.6854 53.7196C49.8014 53.8649 49.8589 54.0483 49.8469 54.2338V55.7863H50.4665V54.1382C50.4718 53.8597 50.3912 53.5864 50.2356 53.3554C50.0853 53.1301 49.8346 53.0175 49.4835 53.0175C49.2992 53.0119 49.1177 53.0638 48.964 53.1658C48.8307 53.2555 48.7238 53.3791 48.6542 53.5239H48.6191V51.9784ZM51.2677 55.4361C51.0764 55.177 50.9808 54.8394 50.9808 54.4234C50.9808 54.0074 51.0782 53.6669 51.273 53.4019C51.3659 53.2764 51.4882 53.1756 51.6291 53.1083C51.77 53.0409 51.9253 53.0092 52.0813 53.0157C52.2795 53.0044 52.4756 53.0614 52.6368 53.1772C52.7596 53.2696 52.8586 53.3899 52.9255 53.5283H52.9668V53.0781H53.5907V55.7801H52.9668V55.2834H52.9255C52.8554 55.4299 52.752 55.5579 52.6236 55.6573C52.4621 55.774 52.2653 55.8316 52.0664 55.8205C51.9118 55.8275 51.758 55.7961 51.6186 55.729C51.4792 55.6619 51.3587 55.5613 51.2677 55.4361ZM52.1067 51.967H52.5841L53.3002 52.7569H52.7219L52.3533 52.3523H52.3331L51.9751 52.7569H51.3967L52.1067 51.967ZM52.7904 55.0526C52.9105 54.8632 52.9716 54.6424 52.9659 54.4181C52.9719 54.1947 52.9107 53.9746 52.7904 53.7863C52.7324 53.7062 52.6562 53.6409 52.5681 53.596C52.48 53.551 52.3825 53.5275 52.2835 53.5275C52.1846 53.5275 52.0871 53.551 51.999 53.596C51.9109 53.6409 51.8348 53.7062 51.7768 53.7863C51.6672 53.9793 51.6096 54.1975 51.6096 54.4194C51.6096 54.6414 51.6672 54.8596 51.7768 55.0526C51.8341 55.1332 51.9099 55.1989 51.9979 55.2443C52.0858 55.2896 52.1833 55.3133 52.2822 55.3133C52.3812 55.3133 52.4787 55.2896 52.5666 55.2443C52.6545 55.1989 52.7304 55.1332 52.7877 55.0526H52.7904ZM52.9975 52.0996L53.5091 51.1272H54.1331L53.4889 52.1048L52.9975 52.0996ZM55.2098 54.8938V53.5686L55.8259 53.5704V53.0842H55.2116V52.2066H54.592V53.0842H54.1216V53.5704H54.592V55.0289C54.5886 55.1683 54.6034 55.3075 54.6359 55.4431C54.6521 55.4989 54.6792 55.5509 54.7157 55.5961C54.7521 55.6413 54.7972 55.6788 54.8483 55.7064C55.0103 55.7858 55.1904 55.8212 55.3704 55.8091C55.4642 55.8089 55.558 55.8039 55.6513 55.7942C55.7103 55.7896 55.769 55.7808 55.8268 55.7678V55.3291C55.7489 55.344 55.67 55.3525 55.5907 55.3545C55.5 55.361 55.4092 55.3435 55.3274 55.3036C55.302 55.2887 55.28 55.2687 55.2628 55.2448C55.2455 55.221 55.2335 55.1937 55.2274 55.1649C55.2135 55.0753 55.2076 54.9845 55.2098 54.8938Z" fill="white"/>
<defs>
<linearGradient id="paint0_linear_49:5366" x1="0" y1="35" x2="70" y2="35" gradientUnits="userSpaceOnUse">
<stop stop-color="#F36A2F"/>
<stop offset="1" stop-color="#F9A73F"/>
</linearGradient>
</defs>
</svg>
