<svg width="89" height="21" fill="none" xmlns="http://www.w3.org/2000/svg"><g clip-path="url(#a)"><path d="M1.4 0H0v20.6h79c.8 0 1.6-.3 2.1-.9l6.7-6.5a4 4 0 0 0 0-5.8L81 .8C80.5.3 80 0 79.1 0" fill="url(#b)"/><path d="M7 4.8a5.2 5.2 0 0 0-1 6.5l3.2 5 .4.6a.8.8 0 0 0 1.2 0l2-2.7.1-.2a2.6 2.6 0 0 0 .1-3l-.8-1.3c-.5.3-1 .7-1.2 1.3l.5.8a1.3 1.3 0 0 1 0 1.4v.1l-.2.2-.7 1a.4.4 0 0 1-.6 0l-2.6-4A3.6 3.6 0 0 1 13.1 6a3.6 3.6 0 0 1 .7 3.6.8.8 0 1 0 1.6.5 5.2 5.2 0 0 0-4.8-6.8h-.1c-1.4 0-2.6.5-3.6 1.4" fill="#F0592B"/><path d="M10.4 6.6c0 .6-.3 1.1-.7 1.5v.1c-.4.4-1 .7-1.6.7V9c.6 0 1.2.3 1.6.7.4.5.7 1 .7 1.6h.1c0-.6.3-1.1.7-1.6.5-.4 1-.7 1.6-.7v-.1c-.6 0-1.1-.3-1.5-.7h-.1c-.4-.5-.7-1-.7-1.6h-.1ZM25.6 7.5a3 3 0 0 1 1.2 1.9h-1.6c-.1-.4-.4-.7-.7-.9l-1.2-.3-1.2.3a2 2 0 0 0-.7.9 3 3 0 0 0-.3 1.3c0 .8.2 1.4.6 1.9.5.4 1 .7 1.8.7a2.1 2.1 0 0 0 2.2-1.9H23v-1h3.8v1.4c0 .5-.3 1-.6 1.4-.3.4-.7.8-1.2 1-.6.3-1.2.4-1.8.4a4 4 0 0 1-2-.5c-.5-.3-1-.8-1.3-1.4-.3-.6-.5-1.3-.5-2s.2-1.4.5-2c.3-.6.8-1 1.3-1.4.6-.3 1.3-.5 2-.5 1 0 1.7.3 2.3.7ZM32.4 8.8c.5.3.9.6 1.1 1.1.3.5.4 1 .4 1.6 0 .6-.1 1.2-.4 1.7-.2.4-.6.8-1 1a3.5 3.5 0 0 1-3.2 0c-.5-.2-.9-.6-1.1-1-.3-.5-.4-1-.4-1.7 0-.5.1-1.1.4-1.6.2-.5.6-.8 1-1 .6-.3 1.1-.4 1.7-.4.5 0 1 0 1.5.3Zm-2.6 1.4c-.3.3-.5.8-.5 1.3 0 .6.2 1 .5 1.3a1.5 1.5 0 0 0 2.1 0c.3-.3.5-.7.5-1.3 0-.5-.2-1-.5-1.3a1.5 1.5 0 0 0-2.1 0ZM38.4 9.1c0-.3 0-.5-.3-.8-.1-.2-.4-.3-.7-.3-.7 0-1.1.5-1.2 1.5h-1.4c0-1 .3-1.6.8-2 .5-.5 1.1-.8 1.9-.8.8 0 1.4.2 1.8.7.4.4.6.9.6 1.6 0 .6-.1 1.1-.4 1.6L38.3 12l-1.6 1.1h3.4v1.3h-5.4v-1.2c2.5-1.7 3.7-3 3.7-4.2ZM47 7.6c.6.5 1 1.2 1.2 2h-1.6a2 2 0 0 0-.8-1c-.3-.3-.8-.4-1.2-.4a2 2 0 0 0-1.1.3 2 2 0 0 0-.8.9 3 3 0 0 0-.3 1.3c0 .5.1 1 .3 1.3a2 2 0 0 0 1.9 1.2c.4 0 .9-.1 1.2-.4.4-.2.7-.5.8-1h1.6c-.2.9-.6 1.6-1.2 2-.7.6-1.5.8-2.4.8-.7 0-1.4-.1-2-.5-.5-.3-1-.8-1.2-1.4-.4-.6-.5-1.3-.5-2s.1-1.4.5-2c.3-.6.7-1 1.3-1.4.5-.3 1.2-.5 1.9-.5 1 0 1.7.3 2.4.8ZM54.6 9.1c.4.5.6 1.1.6 2v3.4h-1.5v-3.3c0-.4-.1-.8-.4-1a1.3 1.3 0 0 0-1-.5 1.3 1.3 0 0 0-1 .4c-.3.3-.4.7-.4 1.3v3.1h-1.5v-8h1.5v3.2c.1-.3.4-.7.8-.9.3-.2.8-.4 1.2-.3.7 0 1.3.2 1.7.6ZM60.9 8.8c.4.3.8.6 1 1.1.4.5.5 1 .5 1.6 0 .6-.1 1.2-.4 1.7-.3.4-.7.8-1.1 1a3.5 3.5 0 0 1-3.2 0c-.4-.2-.8-.6-1-1-.3-.5-.5-1-.5-1.7 0-.5.2-1.1.4-1.6.3-.5.7-.8 1.1-1 .5-.3 1-.4 1.6-.4.6 0 1.1 0 1.6.3Zm-2.7 1.4c-.3.3-.4.8-.4 1.3 0 .6.1 1 .4 1.3a1.5 1.5 0 0 0 2.2 0c.3-.3.4-.7.4-1.3 0-.5-.1-1-.4-1.3a1.5 1.5 0 0 0-2.2 0ZM63.5 6.2a1.1 1.1 0 0 1 1.4 0 .8.8 0 0 1 0 1.2 1.1 1.1 0 0 1-1.4 0 .8.8 0 0 1-.2-.6.8.8 0 0 1 .2-.6ZM65 8.5v6h-1.5v-6H65ZM71 9.1c.5.4.9 1 1 1.7h-1.6c-.1-.3-.3-.6-.5-.7-.2-.2-.5-.3-.9-.3a1.3 1.3 0 0 0-1 .4c-.2.3-.4.8-.4 1.3 0 .6.2 1 .4 1.4a1.3 1.3 0 0 0 1 .4c.4 0 .7 0 1-.3l.4-.7H72a2.7 2.7 0 0 1-3 2.3c-.5 0-1-.1-1.5-.4-.4-.2-.8-.6-1-1-.3-.5-.4-1.1-.4-1.7 0-.5 0-1 .4-1.6.2-.5.6-.8 1-1 .5-.3 1-.4 1.6-.4A3 3 0 0 1 71 9ZM78.6 11.8h-4.4c0 .6.2 1 .5 1.2.2.3.6.4 1 .4.3 0 .6 0 .9-.3.2-.1.3-.4.4-.7h1.6a2.6 2.6 0 0 1-1.5 2 3.4 3.4 0 0 1-3-.2c-.4-.2-.7-.6-1-1-.2-.5-.4-1-.3-1.7 0-.5 0-1 .3-1.6.3-.5.6-.8 1-1 .6-.3 1.1-.4 1.6-.4.6 0 1.1 0 1.6.3.4.3.8.6 1 1a3 3 0 0 1 .3 2Zm-1.8-1.7c-.3-.3-.7-.4-1-.4-.4 0-.8.1-1 .4-.4.2-.5.6-.6 1h3c0-.4-.2-.8-.4-1Z" fill="#F0592B"/><path d="M6.8 4.8a5.2 5.2 0 0 0-.9 6.5l3.2 5 .3.6a.8.8 0 0 0 1.3 0l2-2.7V14a2.6 2.6 0 0 0 .2-3L12 9.7c-.5.3-1 .7-1.1 1.3l.5.8a1.3 1.3 0 0 1 0 1.4l-.2.1-.1.2-.7 1a.4.4 0 0 1-.6 0l-2.5-4A3.6 3.6 0 0 1 12.9 6a3.6 3.6 0 0 1 .8 3.4v.2a.8.8 0 1 0 1.5.5 5.2 5.2 0 0 0-4.7-6.8h-.2c-1.3 0-2.6.5-3.5 1.4" fill="#fff"/><path d="M10.2 6.6c0 .6-.2 1.1-.6 1.5l-.1.1C9 8.6 8.5 9 8 9V9c.5 0 1 .3 1.5.7.5.5.7 1 .7 1.6h.2c0-.3 0-.6.2-1 0-.2.2-.4.4-.6h.1c.4-.4 1-.7 1.5-.7v-.1c-.5 0-1-.3-1.5-.7-.5-.5-.7-1-.7-1.6h-.2ZM25.3 7.5a3 3 0 0 1 1.1 1.9h-1.6c-.1-.4-.4-.7-.7-.9-.3-.2-.7-.3-1.2-.3a2 2 0 0 0-2 1.2 3 3 0 0 0-.2 1.3c0 .8.2 1.4.6 1.9.5.4 1 .7 1.8.7a2.1 2.1 0 0 0 2.2-1.9h-2.6v-1h3.9v1.4a3.6 3.6 0 0 1-1.9 2.4c-.5.3-1.1.4-1.8.4a4 4 0 0 1-2-.5c-.5-.3-1-.8-1.3-1.4-.3-.6-.5-1.3-.4-2 0-.7.1-1.4.4-2 .3-.6.8-1 1.4-1.4.6-.3 1.2-.5 2-.5.9 0 1.6.3 2.3.7ZM32 8.8c.5.3.9.6 1.2 1.1.2.5.4 1 .4 1.6 0 .6-.2 1.2-.4 1.7-.3.4-.7.8-1.1 1a3.5 3.5 0 0 1-3.2 0c-.5-.2-.8-.6-1.1-1-.3-.5-.4-1-.4-1.7 0-.5.1-1.1.4-1.6.3-.5.6-.8 1.1-1a3.6 3.6 0 0 1 3.2 0Zm-2.6 1.4c-.3.3-.4.8-.4 1.3 0 .6.1 1 .4 1.3a1.5 1.5 0 0 0 2.2 0c.3-.3.4-.7.4-1.3 0-.5-.1-1-.4-1.3a1.5 1.5 0 0 0-2.2 0ZM38 9.1c0-.3 0-.5-.2-.8-.2-.2-.4-.3-.8-.3-.7 0-1 .5-1.1 1.5h-1.5c0-1 .3-1.6.8-2 .5-.5 1.1-.8 2-.8.7 0 1.3.2 1.7.7.5.4.7.9.7 1.6 0 .6-.2 1.1-.5 1.6L37.9 12l-1.5 1.1h3.3v1.3h-5.4v-1.2c2.5-1.7 3.7-3 3.7-4.2ZM46.6 7.6c.6.5 1 1.2 1.2 2h-1.6a2.1 2.1 0 0 0-2-1.4 2 2 0 0 0-1.1.3 2 2 0 0 0-.8.9 3 3 0 0 0-.2 1.3c0 .5 0 1 .2 1.3a2 2 0 0 0 1.9 1.2c.4 0 .9-.1 1.3-.4.3-.2.6-.5.7-1h1.6c-.1.9-.6 1.6-1.2 2-.6.6-1.4.8-2.4.8-.7 0-1.3-.1-2-.5-.5-.3-1-.8-1.2-1.4-.3-.6-.5-1.3-.5-2s.2-1.4.5-2c.3-.6.7-1 1.3-1.4.6-.3 1.2-.5 2-.5.9 0 1.7.3 2.3.8ZM54.2 9.1c.4.5.6 1.1.6 2v3.4h-1.5v-3.3c0-.4-.1-.8-.4-1a1.3 1.3 0 0 0-1-.5 1.3 1.3 0 0 0-1 .4c-.3.3-.4.7-.4 1.3v3.1H49v-8h1.5v3.2c.2-.3.4-.7.8-.9.4-.2.8-.4 1.2-.3.7 0 1.3.2 1.7.6ZM60.5 8.8c.5.3.9.6 1.1 1.1.3.5.4 1 .4 1.6 0 .6-.1 1.2-.4 1.7-.2.4-.6.8-1 1a3.5 3.5 0 0 1-3.2 0c-.5-.2-.9-.6-1.1-1-.3-.5-.5-1-.4-1.7 0-.5 0-1.1.4-1.6.2-.5.6-.8 1-1a3.6 3.6 0 0 1 3.2 0Zm-2.7 1.4c-.2.3-.4.8-.4 1.3 0 .6.1 1 .4 1.3a1.5 1.5 0 0 0 2.2 0c.3-.3.5-.7.5-1.3 0-.5-.2-1-.5-1.3a1.5 1.5 0 0 0-2.2 0ZM63.2 6.2a1.1 1.1 0 0 1 1.3 0 .8.8 0 0 1 0 1.2 1.1 1.1 0 0 1-1.3 0 .8.8 0 0 1-.3-.6.8.8 0 0 1 .3-.6Zm1.4 2.3v6h-1.5v-6h1.5ZM70.6 9.1c.6.4.9 1 1 1.7H70c0-.3-.2-.6-.5-.7-.2-.2-.5-.3-.8-.3a1.3 1.3 0 0 0-1 .4c-.3.3-.5.8-.5 1.3 0 .6.2 1 .4 1.4a1.3 1.3 0 0 0 1 .4c.4 0 .7 0 1-.3l.4-.7h1.6a2.7 2.7 0 0 1-2.9 2.3c-.5 0-1-.1-1.6-.4-.4-.2-.8-.6-1-1-.3-.5-.4-1.1-.4-1.7 0-.5.1-1.1.4-1.6.2-.5.6-.8 1-1 .5-.3 1-.4 1.6-.4a3 3 0 0 1 2 .6ZM78.3 11.8h-4.4c0 .6.1 1 .4 1.2a1.4 1.4 0 0 0 1 .4c.3 0 .6 0 .9-.3.2-.1.4-.4.4-.7h1.6a2.6 2.6 0 0 1-1.5 2 3.4 3.4 0 0 1-2.9-.2c-.4-.2-.8-.6-1-1-.3-.5-.4-1-.4-1.7 0-.5 0-1 .4-1.6.2-.5.6-.8 1-1 .5-.3 1-.4 1.6-.4.5 0 1 0 1.5.3s.8.6 1 1a3 3 0 0 1 .4 2Zm-1.9-1.7c-.3-.3-.6-.4-1-.4s-.8.1-1 .4c-.3.2-.5.6-.5 1h2.9c0-.4-.1-.8-.4-1Z" fill="#fff"/></g><defs><linearGradient id="b" x1="35.9" y1="-35.7" x2="53" y2="65.2" gradientUnits="userSpaceOnUse"><stop offset=".3" stop-color="#E57B5B"/><stop offset=".4" stop-color="#ED3364"/><stop offset=".5" stop-color="#C13592"/><stop offset=".6" stop-color="#703C96"/></linearGradient><clipPath id="a"><path fill="#fff" d="M0 0h89v20.6H0z"/></clipPath></defs></svg>