<svg width="84" height="24" fill="none" xmlns="http://www.w3.org/2000/svg"><path d="M3.6 0H0v24h84V0H3.6Z" fill="url(#a)"/><path d="M8.6 6.3a5 5 0 0 0-.8 6.3l3 4.7.3.5a.7.7 0 0 0 1.2 0l1.9-2.6.1-.1a2.4 2.4 0 0 0 0-2.8l-.7-1.3c-.5.3-1 .7-1.1 1.3l.4.7a1.2 1.2 0 0 1 0 1.4l-.2.2-.6 1a.3.3 0 0 1-.6 0l-2.5-4a3.4 3.4 0 0 1 3-5.1c1 0 1.8.4 2.4 1a3.4 3.4 0 0 1 .8 3.3v.2a.8.8 0 0 0 1.3.7l.1-.2A5 5 0 0 0 12.1 5H12a5 5 0 0 0-3.4 1.3" fill="#fff"/><path d="M11.9 8c0 .6-.3 1.1-.7 1.5-.4.5-1 .7-1.5.7v.1c.6 0 1 .3 1.5.7.4.4.7 1 .7 1.5h.1l.2-.9.5-.6.5-.4c.3-.2.7-.3 1-.3a2.1 2.1 0 0 1-1.5-.7c-.4-.5-.7-1-.7-1.5H12ZM26.1 9c.6.3 1 1 1.2 1.7h-1.6c-.1-.4-.4-.6-.7-.8a2 2 0 0 0-1-.3c-.5 0-.8 0-1.2.3-.3.2-.6.5-.7.8-.2.4-.3.8-.3 1.3 0 .6.2 1.3.6 1.7a2.2 2.2 0 0 0 1.7.7c.5 0 1-.2 1.3-.5.4-.3.7-.8.8-1.3h-2.5v-1h3.7V13c-.1.5-.3 1-.6 1.3-.3.4-.7.8-1.2 1-.5.3-1 .4-1.6.4-.7 0-1.4-.2-2-.5-.5-.3-1-.8-1.2-1.3a4 4 0 0 1-.5-2c0-.6.2-1.3.5-1.9.3-.5.7-1 1.2-1.3.6-.3 1.3-.5 2-.4.7 0 1.5.2 2.1.6ZM32.6 10.2c.4.2.8.5 1 1 .3.4.4 1 .4 1.5 0 .6 0 1.1-.4 1.6-.2.4-.5.8-1 1a3.3 3.3 0 0 1-3 0c-.4-.2-.8-.6-1-1a3 3 0 0 1-.4-1.6c0-.5.1-1 .4-1.5.2-.4.6-.8 1-1a3.4 3.4 0 0 1 3 0Zm-2.5 1.3a1.7 1.7 0 0 0-.4 1.2A1.7 1.7 0 0 0 30 14c.2.2.6.4 1 .4a1.4 1.4 0 0 0 1-.4 1.7 1.7 0 0 0 .4-1.3 1.7 1.7 0 0 0-.4-1.2 1.4 1.4 0 0 0-1-.4c-.4 0-.8.1-1 .4ZM38.3 10.4c0-.2-.1-.5-.3-.7a.9.9 0 0 0-.7-.3c-.7 0-1 .5-1 1.4h-1.5a2.7 2.7 0 0 1 .8-2c.5-.4 1.2-.7 1.8-.6.7 0 1.3.1 1.7.6a2 2 0 0 1 .6 1.5c0 .5-.1 1-.4 1.5-.3.6-.7 1-1.1 1.4-.5.5-1 .8-1.5 1.1H40v1.2h-5.1v-1c2.3-1.7 3.5-3 3.5-4ZM46.4 9c.6.4 1 1.1 1.2 1.9H46a2 2 0 0 0-.7-1l-1.2-.3a2 2 0 0 0-1.7 1.1A3 3 0 0 0 42 12l.3 1.2a1.9 1.9 0 0 0 1.7 1.1 2 2 0 0 0 1.2-.3c.4-.3.6-.6.8-1h1.5c-.2.8-.6 1.5-1.2 2-.6.4-1.4.7-2.2.7-.7 0-1.3-.2-1.9-.5-.5-.3-1-.8-1.2-1.3-.3-.6-.5-1.3-.4-2 0-.6 0-1.3.4-1.9.3-.5.7-1 1.2-1.3.6-.3 1.2-.5 1.9-.4.8 0 1.6.2 2.2.7ZM53.6 10.5c.5.5.7 1.1.6 1.8v3.3h-1.4v-3.2c0-.3-.1-.7-.4-1a1.2 1.2 0 0 0-1-.3 1.3 1.3 0 0 0-1 .4c-.2.3-.3.7-.3 1v3h-1.4V8H50v3c.2-.4.4-.7.8-1l1.2-.2a2 2 0 0 1 1.5.7ZM59.6 10.2c.5.2.8.5 1 1 .3.4.4 1 .4 1.5 0 .6 0 1.1-.4 1.6-.2.4-.5.8-1 1a3.3 3.3 0 0 1-3 0c-.4-.2-.7-.6-1-1a3 3 0 0 1-.4-1.6c0-.5.2-1 .4-1.5.3-.4.6-.8 1-1a3.4 3.4 0 0 1 3 0Zm-2.5 1.3a1.7 1.7 0 0 0-.4 1.2 1.7 1.7 0 0 0 .4 1.3 1.4 1.4 0 0 0 2 0 1.7 1.7 0 0 0 .4-1.3 1.7 1.7 0 0 0-.4-1.2 1.4 1.4 0 0 0-2 0ZM62.2 7.7a1 1 0 0 1 1.3 0 .7.7 0 0 1 .2.6.7.7 0 0 1-.2.5 1 1 0 0 1-1.3 0 .7.7 0 0 1-.3-.5.7.7 0 0 1 .3-.6Zm1.3 2.2v5.7h-1.4V9.9h1.4ZM69.3 10.4c.5.4.8 1 .9 1.6h-1.6l-.4-.7c-.2-.2-.5-.3-.8-.2a1.2 1.2 0 0 0-1 .4c-.3.3-.4.8-.4 1.2 0 .5.1 1 .4 1.3a1.2 1.2 0 0 0 1 .4c.3 0 .6 0 .8-.2.3-.2.4-.5.5-.8h1.5c0 .7-.4 1.3-1 1.7-.4.4-1 .6-1.8.6a3 3 0 0 1-1.4-.4c-.5-.2-.8-.6-1-1-.3-.5-.4-1-.4-1.5 0-.6.1-1.1.4-1.6.2-.4.5-.8 1-1a3 3 0 0 1 1.4-.4c.7 0 1.3.2 1.9.6ZM76.5 13h-4.2c0 .4.2.8.4 1.1a1.3 1.3 0 0 0 1 .4c.3 0 .6 0 .8-.2l.5-.7h1.5a2.5 2.5 0 0 1-1.5 1.8 3.2 3.2 0 0 1-2.7-.1c-.5-.2-.8-.6-1-1-.3-.5-.4-1-.4-1.5 0-.6.1-1.1.4-1.6.2-.4.5-.8 1-1 .4-.2 1-.4 1.4-.4.6 0 1 .1 1.5.4.4.2.8.6 1 1a2.8 2.8 0 0 1 .3 1.8Zm-1.8-1.7c-.2-.2-.6-.4-1-.3-.3 0-.7 0-1 .3a1.5 1.5 0 0 0-.4 1H75a1.3 1.3 0 0 0-.4-1Z" fill="#fff"/><defs><linearGradient id="a" x1="38.8" y1="-41" x2="60.7" y2="74.8" gradientUnits="userSpaceOnUse"><stop offset=".3" stop-color="#E57B5B"/><stop offset=".4" stop-color="#ED3364"/><stop offset=".5" stop-color="#C13592"/><stop offset=".6" stop-color="#703C96"/></linearGradient></defs></svg>