<svg width="16" height="16" viewBox="0 0 16 16" fill="none" xmlns="http://www.w3.org/2000/svg">
<path fill-rule="evenodd" clip-rule="evenodd" d="M12.4749 15.9561C12.2138 15.9349 11.799 15.8077 11.5042 15.6594C10.9672 15.3902 10.5502 14.9516 10.2554 14.3497C10.0911 14.0149 9.94162 13.5147 9.8869 13.1163C9.87427 13.0315 9.87634 13.0252 9.93111 13.0145C9.96482 13.0061 10.0111 12.9934 10.0385 12.9828C10.0764 12.9658 10.3544 12.8832 10.685 12.7899C10.7208 12.7814 10.7966 12.7581 10.8535 12.7412C10.9124 12.7242 11.0577 12.6819 11.1799 12.6458C11.302 12.6098 11.4431 12.5674 11.4957 12.5505C11.7484 12.472 11.8327 12.4508 11.8537 12.4636C11.8642 12.4699 11.8748 12.5081 11.8748 12.5483C11.8748 12.6458 11.9295 12.8747 12.0011 13.0824C12.2285 13.733 12.5992 14.0191 13.0919 13.9258C13.2667 13.8919 13.3425 13.8559 13.4562 13.7521C13.5363 13.68 13.6289 13.5105 13.6836 13.3431C13.7005 13.2901 13.7089 12.6861 13.7132 11.2599L13.7173 9.25294H11.6916C10.5755 9.25294 9.66369 9.25506 9.66369 9.25929C9.63209 9.4479 9.53103 9.86962 9.48679 9.98619C9.32886 10.41 9.22567 10.6325 9.0551 10.9335C8.96032 11.0967 8.90137 11.1814 8.64025 11.529C8.53916 11.6646 8.08434 12.097 7.90533 12.2305C7.55366 12.4933 7.13881 12.7179 6.72816 12.8662C6.06066 13.1078 5.18041 13.2371 4.4729 13.1926C4.20334 13.1756 3.74215 13.1099 3.61159 13.0697C3.1694 12.9298 3.0325 12.8811 2.84297 12.7942C2.36497 12.578 1.95222 12.294 1.50159 11.8681C1.3963 11.7685 1.14362 11.4718 0.998289 11.2747C0.619245 10.764 0.250737 9.9226 0.134913 9.30592C0.118076 9.21266 0.0949048 9.08974 0.0822689 9.03042C-0.00194856 8.61716 -0.0251198 7.86059 0.0296248 7.3181C0.0633314 6.97686 0.0991058 6.79677 0.219163 6.35807C0.318117 5.99991 0.598207 5.39381 0.827721 5.0484C1.05727 4.70508 1.52686 4.19433 1.83429 3.957C2.60502 3.36147 3.45999 3.0203 4.49394 2.89312C4.93616 2.83803 5.71739 2.8571 6.16805 2.93341C6.73873 3.02876 7.29254 3.22587 7.81268 3.51195C7.98325 3.60733 8.0864 3.67726 8.4002 3.90187C8.60234 4.04812 8.98979 4.4232 8.98979 4.47195C8.98979 4.48256 8.8719 4.64149 8.42757 5.22641C8.37913 5.29 8.2191 5.50614 8.0717 5.70322C7.9243 5.90245 7.79585 6.07407 7.78531 6.08468C7.77267 6.09741 7.7411 6.07834 7.69896 6.02959C7.56416 5.877 7.26517 5.62694 7.02932 5.47012C6.49235 5.10984 5.96377 4.92972 5.44156 4.92972C5.28783 4.92972 4.75296 4.98482 4.69398 5.006C4.67714 5.01238 4.61606 5.02722 4.55712 5.03779C4.34231 5.07805 3.85587 5.28785 3.65583 5.4256C3.61159 5.45528 3.57161 5.48073 3.56528 5.48073C3.54001 5.48073 3.19887 5.78165 3.08305 5.90668C2.93142 6.06984 2.79876 6.23093 2.79876 6.25211C2.79876 6.26057 2.77138 6.30721 2.73771 6.35596C2.57765 6.59332 2.40708 7.01081 2.33546 7.35621C2.27655 7.62963 2.25548 8.16788 2.29335 8.42643C2.32496 8.632 2.41761 9.00285 2.48079 9.16394C2.5229 9.26778 2.65346 9.53268 2.73138 9.6662C2.75035 9.70222 2.79456 9.7785 2.82823 9.83571C2.96722 10.0752 3.20727 10.3465 3.45366 10.5393C4.02434 10.9844 4.74032 11.1624 5.49631 11.0458C6.03538 10.9632 6.58076 10.6665 6.98298 10.2426C7.23993 9.96923 7.44207 9.61322 7.50525 9.32288L7.51996 9.25294H6.82295H6.12594V8.2781V7.30323L7.90743 7.299L9.68683 7.29266L9.76685 7.05952C9.93745 6.5573 10.1859 6.14616 10.5755 5.71594C10.8008 5.46797 11.1946 5.10773 11.3694 4.98693C11.3989 4.96575 11.4789 4.90854 11.5484 4.85552C11.6747 4.76018 12.2559 4.3448 12.3191 4.30455C12.5528 4.15619 12.9298 3.86585 13.0919 3.71117C13.3783 3.4399 13.4899 3.2068 13.4689 2.91645C13.4478 2.63461 13.3362 2.42904 13.1172 2.27856C12.9298 2.1493 12.7824 2.10267 12.5486 2.10267C12.3002 2.10267 12.1548 2.13443 11.9801 2.22343C11.7063 2.36333 11.4747 2.58163 11.2599 2.90162C11.2135 2.97366 11.1714 3.03514 11.1672 3.03937C11.1651 3.0436 11.1398 3.03514 11.1125 3.0203C11.0745 3.0012 9.57314 1.99883 9.53943 1.97126C9.48259 1.92251 9.82373 1.40965 10.1249 1.08966C10.565 0.621306 11.1167 0.286478 11.7168 0.121195C12.3865 -0.06319 13.2288 -0.0356266 13.909 0.193244C14.387 0.354296 14.7892 0.604352 15.1156 0.945558C15.5494 1.40118 15.7916 2.05392 15.7916 2.7787C15.7916 3.79168 15.3662 4.57579 14.3891 5.36839C14.1764 5.54217 13.7531 5.83251 13.1277 6.23939C12.5655 6.6039 12.2601 6.87729 12.1464 7.11888C12.039 7.34987 11.8158 7.32445 14.0122 7.32445H15.939L15.9368 10.2977C15.9347 13.3367 15.9347 13.3685 15.8568 13.7648C15.7284 14.4133 15.3157 15.0427 14.7703 15.4199C14.6228 15.5238 14.5618 15.5576 14.3912 15.6424C14.1069 15.7823 13.7321 15.8967 13.3952 15.9476C13.2562 15.9688 12.6813 15.9752 12.4749 15.9561Z" fill="white"/>
</svg>
