<svg width="38" height="47" fill="none" xmlns="http://www.w3.org/2000/svg"><path d="M0 4a4 4 0 0 1 4-4h30a4 4 0 0 1 4 4v39a4 4 0 0 1-4 4H4a4 4 0 0 1-4-4V4Z" fill="#fff" fill-opacity=".3"/><g clip-path="url(#a)"><path d="M1 5a4 4 0 0 1 4-4h28a4 4 0 0 1 4 4v31H1V5Z" fill="url(#b)"/><path d="M1.2 15c-.1 0-.1.1 0 .1s.1-.1 0-.1ZM1.2 13.6v-.1c-.1 0-.1.1 0 .1Z" fill="#35545B"/><path d="m36.3 13.6.2-.2.4-.4.1-.1.3-.3v-.1l-.2.1-.2.3a30.5 30.5 0 0 0-.6.7ZM36.9 13.6l-.2.1h-.2.2l.5-.1h.2l.4-.1.1-.1h-.6l-.4.2ZM38 14.4l-.3-.1a13.3 13.3 0 0 0-.8-.2h-.4.2l.5.2h.2l.4.1h.1ZM37.3 15 37 15l-.3-.3-.2-.2-.1-.1.1.2.4.4h.1l.3.4h.1l-.1-.2ZM36.6 15.8v-.2l-.2-.3-.1-.4-.1-.2v-.3.3l.1.5v.2a20.5 20.5 0 0 1 .3.4ZM35.6 15.2v.2l-.1.4v.1l.1-.3a13.2 13.2 0 0 0 .2-.7v-.4.2l-.2.5ZM35.6 14.3l-.1.2-.5.4v.1c-.2 0-.3.2-.4.3v.1c.1 0 .2 0 .2-.2l.2-.2a32.7 32.7 0 0 0 .5-.5l.1-.2ZM35 14.3l.3-.1.2-.1a21.7 21.7 0 0 1-.8.2h-.2l-.3.1-.2.1h.3l.3-.1.4-.1ZM34.3 13.6a12.7 12.7 0 0 0 .7.1h.2l.3.1h-.3l-.5-.2h-.2l-.3-.1H34l.3.1ZM34.7 12.8l.2.2a32.7 32.7 0 0 0 .7.6l-.2-.2-.4-.4V13c-.2 0-.3-.2-.4-.3h-.1l.2.2ZM35.4 12v.3l.1.3.2.4v.2l.1.2v-.2l-.2-.5v-.2l-.1-.4V12h-.1ZM36.3 12.7v-.2l.1-.4V12v.2a12.7 12.7 0 0 0-.2.8v.2l-.1.2v-.2l.2-.5ZM35.3 11.9v-.2.2ZM34.3 12.4c.1 0 .1 0 0 0ZM33.8 13.4c-.1 0-.1.1 0 .1v-.1ZM33.9 14.5c-.1 0-.1.2 0 .2v-.2ZM34.4 15.5v.1c.1 0 .1 0 0 0ZM35.5 16c-.1 0-.1.2 0 .2v-.1ZM36.6 16v.1c.1 0 .1 0 0 0ZM36.5 11.8c-.1 0-.1 0 0 0ZM36.6 12.9s-.2.1-.3.4a2 2 0 0 0-.3.5l.3-.5.3-.4ZM37 13.3l-.4.2-.5.3.5-.2.4-.3ZM36.7 14h.5l-.5-.1h-.5.5ZM36.6 14.3l.4.3s-.1-.2-.4-.3a2 2 0 0 0-.5-.3l.5.3Z" fill="#ED7969"/><path d="m36.6 15-.2-.4-.3-.5s0 .3.2.5l.3.4ZM36 15.2v-1 1ZM35.6 14.6a2 2 0 0 0-.3.4s.2-.1.3-.4l.3-.5-.3.5ZM34.9 14.6l.4-.2.5-.3-.5.2-.4.3ZM34.7 14h1-1ZM35.8 13.9l-.5-.3a2 2 0 0 0-.4-.3s.1.2.4.3l.5.3ZM35.8 13.8l-.2-.5-.3-.4.2.4.3.5ZM36 13.7v-1l-.1.5v.5Z" fill="#ED7969"/><g opacity=".5"><g opacity=".5" fill="#00A99D"><path opacity=".5" d="M7.6 20.4c0-.2.2-.3.3-.4l1-1s.2 0 .2-.2l.7-.6.2-.3s0-.1-.2 0c-.2 0-.3.2-.4.4A48.1 48.1 0 0 0 7.9 20l-.3.4ZM8.9 20.5l-.5.2-.5.2.5-.1 1.3-.4h.3l1-.3.2-.1-.1-.2-.6.2a53.3 53.3 0 0 0-1.6.5ZM11.2 22.2l-.6-.2a35.3 35.3 0 0 0-1.6-.3l-.6-.1H8h.5l1.3.4.3.1 1 .2h.3v-.1ZM9.7 23.9A48 48 0 0 0 8 22.4l-.4-.3A46.6 46.6 0 0 1 9 23.4l.3.2.6.7.3.2s.1-.1 0-.2c0-.2-.2-.3-.4-.4ZM8.2 25.6 8 25l-.2-.7a40 40 0 0 0-.3-1l-.2-.4-.2-.5a32.7 32.7 0 0 1 .6 2.1l.2.9.1.3.2-.1ZM6 24.2l-.1.3-.2 1s-.1.1 0 .2c0 .1 0 .1.1 0l.2-.6a34.6 34.6 0 0 0 .3-1.6l.1-.6v-.5.5L6 24.2ZM6 22.1l-.4.4-1 .9-.2.3-.7.6-.2.3h.2c.2 0 .3-.2.4-.4l.5-.5a58.8 58.8 0 0 0 1-1.2l.3-.4ZM4.6 22l.5-.2.5-.2a31.8 31.8 0 0 1-2.1.5l-.9.3-.3.1.1.2.6-.2a55.2 55.2 0 0 0 1.6-.5ZM2.9 20.5a34.5 34.5 0 0 0 1.7.3H5l.5.2-.5-.2-1.3-.3-.3-.1-1-.3h-.2c-.1 0-.1.1 0 .2l.6.2ZM3.8 18.6a48 48 0 0 0 1.7 1.5l.4.3c-.2 0-.3-.2-.4-.3l-.9-1-.3-.2-.6-.7-.3-.2s-.1 0 0 .2c0 .2.2.3.4.4ZM5.3 16.9l.2.6A53.6 53.6 0 0 0 6 19l.2.5.2.5a33.5 33.5 0 0 1-.5-2.1l-.3-1-.1-.2-.2.1ZM7.5 18.3l.1-.3.3-1v-.2c0-.1-.1-.1-.2 0l-.2.6a34.5 34.5 0 0 0-.3 1.6v.6L7 20l.2-.5.3-1.3ZM5.3 16.5v-.3c-.2 0-.2.3 0 .3ZM3 17.8c.2 0 .2-.3 0-.3s-.2.3 0 .3ZM1.7 20c-.1 0-.1.2 0 .2.2 0 .2-.3 0-.3ZM2 22.6c-.3 0-.3.3 0 .3v-.3ZM3.2 24.8c-.2 0-.2.3 0 .3s.2-.3 0-.3ZM5.6 26.1c-.2 0-.2.3 0 .3s.2-.3 0-.3ZM8.2 26v.3c.2 0 .2-.3 0-.3ZM10.4 24.5v.3c.2 0 .2-.3 0-.3ZM11.7 22.3c-.2 0-.2.2 0 .2s.2-.2 0-.2ZM11.7 20c.2 0 .2-.3 0-.3s-.2.2 0 .2ZM10.2 17.6c.2 0 .2-.3 0-.3v.3ZM8 16.4v-.3c-.3 0-.3.3 0 .3Z"/></g><g opacity=".5"><path opacity=".5" d="m7.6 19.8-.7 1 .6-1 .6-1-.5 1ZM8.2 20.5l-1 .5c-.1 0 .3-.4 1-.7l1-.5-1 .7ZM8.4 21.3h1.2L8.4 21l-1.2.1 1.2.1ZM8.1 22.1l-1-.6 1.1.5 1 .7-1-.6ZM7.5 22.7l-.5-1 .6 1 .6 1-.7-1ZM6.7 23v-1.2l.1 1.1v1.2L6.6 23ZM5.8 22.7l.7-1-.5 1-.7 1 .5-1ZM5.2 22l1-.5c.1 0-.3.4-.9.7l-1 .5 1-.6ZM5 21.2h1.2c0 .1-.5.2-1.2.2l-1.2-.1H5ZM5.3 20.4l1 .6-1.1-.5-1-.6s.5.1 1 .5ZM6 19.8l.4 1-.6-1c-.4-.5-.6-1-.5-1l.6 1ZM6.7 20.8v-2.4l-.1 1.2v1.2Z" fill="#FDC236"/></g></g><path d="m30.5 8.8.3-.3.8-.7.2-.3.5-.5.2-.2s0-.1-.1 0c-.2 0-.3.2-.4.3l-.4.4-.5.6-.3.4-.3.3ZM31.6 9h-.4l-.4.2h.4l1-.3.4-.1.7-.2.2-.1v-.1h-.6a20.4 20.4 0 0 0-1.3.5ZM33.5 10.3l-.4-.1-.6-.2-.8-.1h-.4l-.5-.2.4.1 1 .3.4.1a225.6 225.6 0 0 0 1 .1ZM32.3 11.7l-.4-.4-.7-.6-.3-.2-.3-.3.3.3.7.7.3.3.5.5.2.1c0-.2-.2-.3-.3-.4ZM31 13v-.4a20.6 20.6 0 0 0-.5-1.3l-.2-.4-.1-.4v.4c.2.3.2.7.3 1a337.4 337.4 0 0 1 .5 1.2ZM29.3 12l-.1.2-.2.7v.3h.1l.1-.5.2-.6.1-.8V11l.2-.4-.1.4c-.2.3-.2.7-.3 1ZM29.2 10.2l-.3.3-.8.8-.2.2-.5.5-.1.2c0 .1 0 .1 0 0l.4-.2.4-.5.6-.6.2-.3.3-.4ZM28.1 10.1l.4-.1.4-.2-.4.1-1 .3h-.3l-.7.2-.3.2h.6a20.4 20.4 0 0 0 1.3-.5ZM26.7 8.9l.6.1.8.2h.4l.4.1-.4-.1-1-.3h-.3l-.7-.3h-.3v.2h.5ZM27.4 7.4a21.8 21.8 0 0 0 1.1.9l.3.3.3.3-.2-.3-.8-.8-.2-.2-.5-.6-.2-.1-.1.1c0 .2.2.3.3.4ZM28.7 6l.1.5.2.5.3.8.1.4.2.4-.1-.4-.3-1a337.5 337.5 0 0 0-.5-1.2ZM30.5 7.1v-.3a267 267 0 0 0 .1-1v.5l-.2.6-.2.8v.4l-.1.5v-.4l.4-1ZM28.6 5.6c.2 0 .2-.2 0-.2-.1 0-.1.2 0 .2ZM26.8 6.7c.2 0 .2-.2 0-.2-.1 0-.1.2 0 .2ZM25.8 8.4c-.2 0-.2.3 0 .3v-.3ZM26 10.6c-.2 0-.2.3 0 .3v-.3ZM27 12.4c-.2 0-.2.3 0 .3v-.3ZM29 13.5c-.2 0-.2.2 0 .2v-.2ZM31 13.4v.2c.2 0 .2-.2 0-.2ZM32.9 12.2c-.2 0-.2.2 0 .2.1 0 .1-.2 0-.2ZM33.9 10.3c-.2 0-.2.3 0 .3v-.3ZM33.9 8.5v-.3c-.2 0-.2.3 0 .3ZM32.7 6.6c.2 0 .2-.3 0-.3v.3ZM30.8 5.6c.2 0 .2-.3 0-.3v.3Z" fill="#FBDD3B"/><path d="m30.6 8.4-.6.8.4-.9.6-.8-.4.9ZM31 8.9l-.8.4.8-.5.9-.5-.9.6ZM31.2 9.6h-1l1-.2 1 .1h-1ZM31 10.3l-.8-.6.9.4.8.6-.9-.4ZM31 11.6l-.4-1-.5-.7.4.8.5.9ZM29.8 11v-1l.1 1v.9l-.1-1ZM29.1 10.7l.6-.8-.5.9-.5.8.4-.9ZM28.6 10.2l.9-.4-.8.5-.9.4.8-.5ZM28.5 9.5h1l-1 .1h-1l1-.1ZM28.7 8.8l.8.6-.9-.5-.8-.5.9.4ZM29.2 8.3l.4.9-.5-.8-.5-.9.6.8ZM29.9 8.2v1l-.2-1 .1-1v1Z" fill="#FDC236"/><g opacity=".5"><g opacity=".5"><g opacity=".5"><path opacity=".5" d="m13.8 9.1-1 1.4.8-1.5 1-1.4-.8 1.5Z" fill="#C1272D"/><path opacity=".5" d="m15 6.8-.4.6.4-.7.4-.6-.3.7Z" fill="#6888CA"/><path opacity=".5" d="m15.7 5.7-.2.2v-.3l.3-.2v.3Z" fill="#FDC236"/></g><g opacity=".5"><path opacity=".5" d="M14.6 10c.8-.5 1.5-.9 1.4-1l-1.5.8-1.4 1 1.5-.8Z" fill="#C1272D"/><path opacity=".5" d="m16.9 8.6-.7.4.6-.5.7-.3-.6.4Z" fill="#6888CA"/><path opacity=".5" d="M18 8h-.3L18 8l.3-.1-.2.2Z" fill="#FDC236"/></g><g opacity=".5"><path opacity=".5" d="m15 11.2 1.6-.1-1.7-.1h-1.7c0 .1.8.2 1.7.2Z" fill="#C1272D"/><path opacity=".5" d="M17.6 11.1h-.8 1.5-.7Z" fill="#6888CA"/><path opacity=".5" d="m18.8 11.2-.3-.1.3-.1h.3c0 .1-.1.2-.3.2Z" fill="#FDC236"/></g><g opacity=".5"><path opacity=".5" d="M14.6 12.4c-.8-.5-1.5-.9-1.4-1l1.5.8c.8.4 1.4.9 1.4 1l-1.5-.8Z" fill="#C1272D"/><path opacity=".5" d="m17.6 14-.7-.4-.6-.4.6.4c.3.3.6.4.7.4Z" fill="#6888CA"/><path opacity=".5" d="M18 14.3c-.2 0-.3-.2-.2-.2h.3l.2.3H18Z" fill="#FDC236"/></g><g opacity=".5"><path opacity=".5" d="m13.7 13.2-.8-1.5 1 1.4.7 1.5-1-1.4Z" fill="#C1272D"/><path opacity=".5" d="m15 15.5-.3-.7.4.6.4.7-.5-.6Z" fill="#6888CA"/><path opacity=".5" d="M15.6 16.6v-.3l.2.2v.3l-.2-.2Z" fill="#FDC236"/></g><g opacity=".5"><path opacity=".5" d="m12.6 15.2.1-1.7-.1-1.7-.1 1.7v1.7Z" fill="#C1272D"/><path opacity=".5" d="M12.5 16.1v-.7l.1.7v.8-.8Z" fill="#6888CA"/><path opacity=".5" d="M12.5 17.4v-.3l.2.3-.1.3-.1-.3Z" fill="#FDC236"/></g><g opacity=".5"><path opacity=".5" d="M11.3 13.1c.5-.8.9-1.4 1-1.3l-.8 1.5c-.5.8-.9 1.4-1 1.3l.8-1.5Z" fill="#C1272D"/><path opacity=".5" d="M10.1 15.5c.2-.3.4-.6.3-.7l-.4.7-.3.6.4-.6Z" fill="#6888CA"/><path opacity=".5" d="m9.4 16.5.2-.2v.3l-.3.2v-.3Z" fill="#FDC236"/></g><g opacity=".5"><path opacity=".5" d="m10.6 12.4 1.4-.9-1.5.8c-.8.4-1.5.8-1.4.9l1.5-.8Z" fill="#C1272D"/><path opacity=".5" d="m8.2 13.6.7-.3-.7.4-.6.3.6-.4Z" fill="#6888CA"/><path opacity=".5" d="M7 14.2h.4l-.2.2h-.3l.2-.2Z" fill="#FDC236"/></g><g opacity=".5"><path opacity=".5" d="m10.2 11.3 1.6-.1-1.6-.1H8.5c0 .1.7.2 1.7.2Z" fill="#C1272D"/><path opacity=".5" d="M7.5 11.2h.8-1.5.7Z" fill="#6888CA"/><path opacity=".5" d="m6.3 11.3.2-.1-.2-.1H6c0 .1.1.2.3.2Z" fill="#FDC236"/></g><g opacity=".5"><path opacity=".5" d="m12 10.8-1.5-1L9 9.2l1.4 1 1.5.7Z" fill="#C1272D"/><path opacity=".5" d="m8.2 8.6.6.4s-.3 0-.7-.3l-.6-.4.7.3Z" fill="#6888CA"/><path opacity=".5" d="M7.1 8c.2 0 .3.1.2.2L7 8l-.2-.2h.3Z" fill="#FDC236"/></g><g opacity=".5"><path opacity=".5" d="M12.2 10.5 11.4 9c-.4-.8-.9-1.4-1-1.4l.8 1.6c.5.8.9 1.4 1 1.3Z" fill="#C1272D"/><path opacity=".5" d="m10 6.8.4.6-.4-.6-.4-.6.4.6Z" fill="#6888CA"/><path opacity=".5" d="m9.4 5.7.1.3-.2-.3s-.1-.2 0-.2l.1.2Z" fill="#FDC236"/></g><g opacity=".5"><path opacity=".5" d="m12.5 10.4.1-1.6-.1-1.7-.1 1.7.1 1.6Z" fill="#C1272D"/><path opacity=".5" d="M12.5 6.9V5.4v1.5Z" fill="#6888CA"/><path opacity=".5" d="M12.5 5.1v-.5.5Z" fill="#FDC236"/></g></g><g opacity=".5"><g opacity=".5" fill="#FBDD3B"><path opacity=".5" d="m13.2 10.4.3-.2.7-.7.2-.2.5-.5v-.2c.1 0 0 0 0 0-.2 0-.3.2-.4.3a27 27 0 0 0-.8 1l-.3.2-.2.3ZM14.2 10.6l-.4.1-.4.1h.4l1-.3h.2l.7-.2.2-.1V10h-.5a17.3 17.3 0 0 0-1.2.5ZM16 11.8l-.5-.1-.5-.1-.8-.1-.4-.1h-.3a19 19 0 0 1 1.3.3h.3l.6.2h.3ZM14.8 13l-.4-.3-.6-.5-.3-.2-.3-.3a333 333 0 0 0 1 1l.2.2.5.5.2.1c0-.2-.2-.3-.3-.4ZM13.6 14.4v-.5l-.2-.5-.3-.7-.1-.4-.2-.3.1.3.3 1v.3l.2.6.1.3.1-.1ZM12 13.3v.3a274.4 274.4 0 0 0-.1.9V14a40.5 40.5 0 0 0 .3-1.2l.1-.4V12v.4l-.3 1ZM12 11.8l-.3.2-.7.7-.2.2-.5.5-.1.2s0 .1 0 0l.4-.2a27 27 0 0 0 .9-1l.2-.3.3-.3ZM11 11.7l.3-.2.4-.1h-.4c-.3.2-.6.2-1 .3h-.2l-.6.3h-.3l.1.2.5-.1a17 17 0 0 0 1.2-.4ZM9.7 10.5a40.5 40.5 0 0 0 1.2.3h.4l.4.1a19.2 19.2 0 0 1-1.3-.4H10a258.7 258.7 0 0 0-.9-.1l.5.1ZM10.3 9.1a27 27 0 0 0 1 .9l.3.2.3.3-.3-.3-.6-.7-.2-.2-.5-.5-.2-.1s-.1 0 0 .1l.2.3ZM11.5 7.9l.1.4.2.5.2.7.2.4.1.3V10c-.2-.3-.2-.7-.3-1l-.1-.2-.2-.7v-.2h-.2ZM13.1 9l.1-.4a225.3 225.3 0 0 0 0-.8v.4l-.1.5-.2.8v.3l-.1.4V10c.2-.3.3-.7.3-1ZM11.4 7.5c.2 0 .2-.2 0-.2v.2ZM9.8 8.5c.1 0 .1-.2 0-.2-.2 0-.2.2 0 .2ZM8.8 10.1c-.1 0-.1.2 0 .2.2 0 .2-.2 0-.2ZM9 12.1c-.2 0-.2.2 0 .2.1 0 .1-.2 0-.2ZM10 13.8c-.2 0-.2.2 0 .2v-.2ZM11.7 14.8c-.1 0-.1.2 0 .2.2 0 .2-.2 0-.2ZM13.7 14.7c-.1 0-.1.2 0 .2s.1-.2 0-.2ZM15.3 13.6v.2c.2 0 .2-.2 0-.2ZM16.3 11.9c-.2 0-.2.2 0 .2.1 0 .1-.2 0-.2ZM16.3 10.1c.1 0 .1-.2 0-.2-.2 0-.2.2 0 .2ZM15.2 8.4c.1 0 .1-.2 0-.2s-.1.2 0 .2ZM13.4 7.5c.2 0 .2-.2 0-.2v.2Z"/></g><g opacity=".5"><path opacity=".5" d="m13.2 10-.5.8.4-.8.5-.7-.4.8ZM13.7 10.5l-.8.4.7-.5.8-.4-.7.5ZM13.8 11.2 13 11h1.8-.9ZM13.6 11.8l-.7-.5.8.4.7.5-.8-.4ZM13.1 12.2c-.2-.4-.4-.7-.3-.8l.4.8.4.8-.5-.8ZM12.5 12.4v-.9l.1.9v.9l-.1-1ZM11.9 12.2c.2-.4.4-.8.5-.7l-.4.8-.5.7.4-.8ZM11.4 11.7l.8-.4-.7.5-.8.4.7-.5ZM11.3 11.2h.9l-1-.1h-.8l.9.1ZM11.5 10.5l.7.5-.8-.4-.7-.5.8.4ZM12 10l.3.8-.5-.7-.4-.8.5.7ZM12.6 9.9v.9l-.1-1V9v.9Z" fill="#FDC236"/></g></g></g><g opacity=".7" fill="#fff"><path opacity=".7" d="M2.5 26v.2h.2l-.1.1v.2H2.3v-.2l-.1-.1h.2V26ZM24.4 23.5v.2h.2l-.1.1v.2H24.2v-.2l-.1-.1h.2v-.2ZM34 28.6v.1h.3l-.2.2v.2-.1h-.3v-.2h.1l.1-.2ZM21.2 26l.1.1h.2l-.1.2v.2l-.2-.1h-.1v-.1L21 26h.2V26ZM4.2 14.7l.1.2h.2l-.2.1v.2H4V15l.1-.1.1-.2ZM14 5.4l.2.2h.2l-.2.2V6l-.1-.1h-.2V5.7h.1v-.2ZM15.3 13.4l.1.1h.2l-.2.1v.2h-.2V13.5l.1-.1ZM34.9 18.1v.2h.2-.1v.3l-.1-.1h-.2v-.2l.2-.2ZM34.5 10v.2h.2-.1v.2h-.2v-.1l-.1-.1h.1V10ZM22.6 3.3v.1h.2l-.1.2v.1H22.4V3.4l.2-.1ZM8 13.9l.1.1h.2l-.1.1v.2H7.9V14l.2-.2ZM3.8 9.1v.2H4V9.6l-.2-.1h-.1l-.1-.2h.1l.1-.2ZM20.2 5h.1l.2.1-.1.1v.2l-.2-.1h-.1V5l.1-.2ZM22.5 7h.2l-.1.2v.1H22.3v-.2h.1v-.2ZM27.9 11.3v.1h.2l-.1.2v.1H27.7v-.2h.1v-.2ZM5.6 27.7v.1h.2V28.2H5.4V28l-.1-.1h.1l.1-.2ZM21.2 10.5l.1.2h.2l-.1.1v.2H21.1v-.2l-.1-.1h.2v-.2Z"/></g><g clip-path="url(#c)"><path opacity=".6" fill-rule="evenodd" clip-rule="evenodd" d="M30.9 14.4h-8v19.4h8V14.4Zm-1.5 10.4H28v1.5h1.5v-1.5Zm-1.5-3h1.5v1.5H28v-1.5Zm1.5-3H28v1.5h1.5v-1.5ZM15 14.4H7v19.4h8V14.4Zm-5 10.4H8.5v1.5H10v-1.5Zm-1.5-3H10v1.5H8.5v-1.5Zm1.5-3H8.5v1.5H10v-1.5Z" fill="#fff"/><path fill-rule="evenodd" clip-rule="evenodd" d="M13 9.9h12v23.9H13v-24Zm3 15h1.5v1.4H16v-1.5Zm6 0h-1.6v1.4H22v-1.5Zm-6-3h1.5v1.4H16v-1.5Zm6 0h-1.6v1.4H22v-1.5Zm-6-3h1.5v1.4H16v-1.5Zm6 0h-1.6v1.4H22v-1.5Zm-6-3h1.5v1.4H16V16Zm6 0h-1.6v1.4H22V16Zm-6-3h1.5v1.5H16v-1.5Zm6 0h-1.6v1.5H22v-1.5Z" fill="#FFE8DE"/><path opacity=".5" d="M7 28.5h23.9V30H7v-1.5Z" fill="#fff"/><path d="M16 27.8h6v6h-6v-6Z" fill="#fff" fill-opacity=".9"/></g><path d="M11.5 12.5a.7.7 0 1 0-1.2-.8.7.7 0 0 0-1-.8.7.7 0 0 0-.1 1.3h-.4c-.4 0-.7.3-.6.7a.7.7 0 0 0 1.1.5l-.1.3a.7.7 0 1 0 1.4 0l.2.2a.7.7 0 1 0 .5-1.3l.2-.1Z" fill="#FFD1EA" stroke="#FF4C00" stroke-width=".4" stroke-linecap="round" stroke-linejoin="round"/><path d="M11 12.5a.1.1 0 0 0-.1-.2l-.1.1-.4.1.3-.6.1-.1s0-.1-.1 0c0 0-.1 0 0 0l-.5.6-.1-.4V12l-.1-.1-.1.2.1.4-.4-.3v-.2s0-.1-.2 0c0 0-.1 0 0 .2h.2l.3.3v.1h-.7c0-.1-.1-.2-.2-.1v.2h.8v.1l-.2.1h-.1s-.1.1 0 .2h.2l.1-.2-.2.6h-.1s-.1.2 0 .2a.2.2 0 0 0 .2-.1l.3-.6h.1v.8h.2v-.2l-.1-.6h.1l.4.4a.1.1 0 0 0 .2 0s0-.1-.1 0l-.4-.5.3.1c0 .2 0 .2.1.1 0 0 .1 0 0-.1 0 0 0-.1 0 0h-.1l-.3-.2.4-.2h.1Z" fill="#DD003A"/><path d="M9.3 15.6a1 1 0 1 0-1-1.6c.2-.1.2-.3.2-.5a1 1 0 1 0-1.8.4 1 1 0 1 0-.5 1.6A1 1 0 0 0 6 17a1 1 0 0 0 1.5-.5l.1.3A1 1 0 1 0 9 15.6h.4Z" fill="#FFD1EA" stroke="#FF4C00" stroke-width=".4" stroke-linecap="round" stroke-linejoin="round"/><path d="m8 14.9.7-.4a.2.2 0 1 0-.1-.1l-.7.4-.1-.1.1-.5.1-.1-.1-.2c-.1 0-.2 0-.2.2v.5h-.1l-.2-.6a.2.2 0 0 0-.2-.3s-.2 0-.2.2l.2.2.2.5-.7-.3a.2.2 0 1 0-.3.1h.2l.7.4-.1.1h-.6l.1.3.2-.1h.3l-.7.5h-.1l-.2.1c0 .2 0 .3.2.3a.2.2 0 0 0 .2-.3l.7-.5v.2l-.1.6-.2.2s0 .2.2.2l.1-.2v-.1l.2-.7h.2l.2.7.1.2a.1.1 0 0 0 0-.2l-.2-.7.2.3a.2.2 0 0 0 .3 0 .2.2 0 0 0-.2-.1l-.2-.3V15l.6.1.1.1a.1.1 0 1 0 0-.2H8v-.2Z" fill="#DD003A"/><g opacity=".5"><path opacity=".3" d="M6.1 3.3c.5 1.2 2 1.8 3.3 1.3 1.3-.5 2-1.8 1.5-3C10.5.2 9-.5 7.7.1c-1.3.5-2 1.8-1.6 3Z" fill="url(#d)"/><mask id="e" style="mask-type:alpha" maskUnits="userSpaceOnUse" x="8" y="0" width="2" height="2"><path d="M9.5 1.3 9.4.6l-1.2.5V2l1.3-.6Z" fill="#000"/></mask><g mask="url(#e)"><path d="M9.1 2.9c1-.4 1.6-1.3 1.5-2.1 0-.8-.9-1-1.7-.7-1 .4-1.6 1.3-1.5 2.1 0 .8.8 1 1.7.7Z" fill="url(#f)"/><path d="M9 2.7c.9-.3 1.6-1.3 1.5-2 0-.8-.9-1.1-1.8-.8-.9.4-1.5 1.4-1.4 2.2 0 .7.8 1 1.7.6Z" fill="#FFC50D"/><path opacity=".1" d="M9 2.6c.7-.3 1.3-1 1.2-1.7 0-.6-.7-.9-1.4-.5-.7.3-1.3 1-1.2 1.6 0 .7.7 1 1.4.6Z" fill="#FFFCF2"/><path opacity=".1" d="M9 2.6c.7-.3 1.3-1 1.2-1.7 0-.6-.7-.9-1.4-.5-.7.3-1.3 1-1.2 1.6 0 .7.7 1 1.4.6Z" fill="#FFFCF1"/><path opacity=".1" d="M9 2.6c.7-.3 1.3-1 1.2-1.7 0-.6-.7-.9-1.4-.5-.7.3-1.3 1-1.2 1.6 0 .7.7 1 1.4.6Z" fill="#FFFCF1"/><path opacity=".1" d="M9 2.6c.7-.3 1.3-1 1.2-1.7 0-.6-.7-.9-1.4-.5-.7.3-1.3 1-1.2 1.6 0 .7.7 1 1.4.6Z" fill="#FFFBF0"/><path opacity=".1" d="M9 2.6c.7-.3 1.3-1 1.2-1.7 0-.6-.7-.9-1.4-.5-.7.3-1.3 1-1.2 1.6 0 .7.7 1 1.4.6Z" fill="#FFFBEF"/><path opacity=".1" d="M9 2.6c.7-.3 1.3-1 1.2-1.7 0-.6-.7-.9-1.4-.5-.7.3-1.3 1-1.2 1.6 0 .7.7 1 1.4.6Z" fill="#FFFBEE"/><path opacity=".1" d="M9 2.6c.7-.3 1.3-1 1.2-1.7 0-.6-.7-.9-1.4-.5-.7.3-1.3 1-1.2 1.6 0 .7.7 1 1.4.6Z" fill="#FFFBED"/><path opacity=".1" d="M9 2.6c.7-.3 1.3-1 1.2-1.7 0-.6-.7-.9-1.4-.5-.7.3-1.3 1-1.2 1.6 0 .7.7 1 1.4.6Z" fill="#FFFBED"/><path opacity=".1" d="M9 2.6c.7-.3 1.3-1 1.2-1.7 0-.6-.7-.9-1.4-.6C8 .7 7.5 1.4 7.6 2c0 .7.7 1 1.4.6Z" fill="#FFFAEC"/><path opacity=".1" d="M9 2.6c.7-.3 1.3-1 1.2-1.7 0-.6-.7-.9-1.4-.5-.7.3-1.3 1-1.2 1.6 0 .7.7 1 1.4.6Z" fill="#FFFAEB"/><path opacity=".1" d="M9 2.6c.7-.3 1.3-1 1.2-1.7 0-.6-.7-.9-1.4-.5-.7.3-1.3 1-1.2 1.6 0 .7.7 1 1.4.6Z" fill="#FFFAEA"/><path opacity=".1" d="M9 2.6c.7-.3 1.3-1 1.2-1.7 0-.6-.7-.9-1.4-.6C8 .7 7.5 1.4 7.6 2c0 .7.7 1 1.4.6Z" fill="#FFFAE9"/><path opacity=".1" d="M9 2.6c.7-.3 1.3-1 1.2-1.7 0-.6-.7-.9-1.4-.6C8 .7 7.5 1.4 7.6 2c0 .7.7 1 1.4.6Z" fill="#FFFAE8"/><path opacity=".1" d="M9 2.6c.7-.3 1.2-1 1.2-1.7 0-.6-.7-.9-1.4-.5-.7.3-1.3 1-1.2 1.6 0 .7.7 1 1.4.6Z" fill="#FFF9E8"/><path opacity=".1" d="M9 2.6c.7-.3 1.2-1 1.2-1.7 0-.6-.7-.9-1.4-.5-.7.3-1.3 1-1.2 1.6 0 .7.7 1 1.4.6Z" fill="#FFF9E7"/><path opacity=".1" d="M9 2.6c.7-.3 1.2-1 1.2-1.7 0-.6-.7-.9-1.4-.6C8 .7 7.5 1.4 7.6 2c0 .7.7 1 1.4.6Z" fill="#FFF9E6"/><path opacity=".1" d="M9 2.6c.7-.3 1.2-1 1.2-1.7 0-.6-.7-.9-1.4-.5-.7.3-1.3 1-1.2 1.6 0 .7.7 1 1.4.6Z" fill="#FFF9E5"/><path opacity=".1" d="M9 2.6c.7-.3 1.2-1 1.2-1.7 0-.6-.7-.9-1.4-.5-.7.3-1.3 1-1.2 1.6 0 .7.7 1 1.4.6Z" fill="#FFF9E4"/><path opacity=".1" d="M9 2.6c.7-.3 1.2-1 1.2-1.7 0-.6-.7-.9-1.4-.5-.7.3-1.3 1-1.2 1.6 0 .7.7 1 1.4.6Z" fill="#FFF8E4"/><path opacity=".1" d="M9 2.6c.7-.3 1.2-1 1.2-1.7 0-.6-.7-.9-1.4-.5-.7.3-1.3 1-1.2 1.6 0 .7.7 1 1.4.6Z" fill="#FFF8E3"/><path opacity=".1" d="M9 2.6c.7-.3 1.2-1 1.2-1.7 0-.6-.7-.9-1.4-.5-.7.3-1.3 1-1.2 1.6 0 .7.7 1 1.4.6Z" fill="#FFF8E2"/><path opacity=".1" d="M9 2.6c.7-.3 1.2-1 1.2-1.7 0-.6-.7-.9-1.4-.6C8 .7 7.5 1.4 7.6 2c0 .7.7.9 1.4.6Z" fill="#FFF8E1"/><path opacity=".1" d="M9 2.6c.7-.3 1.2-1 1.2-1.7 0-.6-.7-.9-1.4-.5-.7.3-1.3 1-1.2 1.6 0 .7.7.9 1.4.6Z" fill="#FFF8E0"/><path opacity=".1" d="M9 2.6c.7-.3 1.2-1 1.2-1.7 0-.6-.7-.9-1.4-.5-.7.3-1.3 1-1.2 1.6 0 .7.7.9 1.4.6Z" fill="#FFF7E0"/><path opacity=".1" d="M9 2.6c.7-.3 1.2-1 1.2-1.7 0-.6-.7-.9-1.4-.6C8 .7 7.5 1.4 7.6 2c0 .7.7.9 1.4.6Z" fill="#FFF7DF"/><path opacity=".1" d="M9 2.6c.7-.3 1.2-1 1.2-1.7 0-.6-.7-.9-1.4-.6C8 .7 7.5 1.4 7.6 2c0 .7.7.9 1.4.6Z" fill="#FFF7DE"/><path opacity=".1" d="M9 2.6c.7-.3 1.2-1 1.2-1.7 0-.6-.7-.9-1.4-.6C8 .7 7.5 1.4 7.6 2c0 .7.7.9 1.4.6Z" fill="#FFF7DD"/><path opacity=".1" d="M9 2.6c.7-.3 1.2-1 1.2-1.7 0-.6-.7-.9-1.4-.6C8 .7 7.5 1.4 7.6 2c0 .7.7.9 1.4.6Z" fill="#FFF7DC"/><path opacity=".1" d="M9 2.6c.7-.3 1.2-1 1.2-1.7 0-.6-.7-.9-1.4-.6C8 .7 7.5 1.4 7.6 2c0 .7.7.9 1.4.6Z" fill="#FFF7DC"/><path opacity=".1" d="M9 2.6c.7-.3 1.2-1 1.2-1.7 0-.6-.7-.9-1.4-.5-.7.3-1.3 1-1.2 1.6 0 .6.7.9 1.4.6Z" fill="#FFF6DB"/><path opacity=".2" d="M9 2.6c.7-.3 1.2-1 1.2-1.7 0-.6-.7-.9-1.4-.5-.7.3-1.3 1-1.2 1.6 0 .6.7.9 1.4.6Z" fill="#FFF6DA"/><path opacity=".2" d="M9 2.6c.7-.3 1.2-1 1.2-1.7 0-.6-.7-.9-1.4-.5-.7.3-1.3 1-1.2 1.6 0 .6.7.9 1.4.6Z" fill="#FFF6D9"/><path opacity=".2" d="M9 2.6c.7-.3 1.2-1 1.2-1.7 0-.6-.7-.9-1.4-.5-.7.3-1.3 1-1.2 1.6 0 .6.7.9 1.4.6Z" fill="#FFF6D8"/><path opacity=".2" d="M9 2.6c.7-.3 1.2-1 1.2-1.7 0-.6-.7-.9-1.4-.5-.7.3-1.3 1-1.2 1.6 0 .6.7.9 1.4.6Z" fill="#FFF6D8"/><path opacity=".2" d="M9 2.6c.7-.3 1.2-1 1.2-1.7 0-.6-.7-.9-1.4-.6C8 .7 7.5 1.4 7.6 2c0 .6.7.9 1.4.6Z" fill="#FFF5D7"/><path opacity=".2" d="M9 2.6c.7-.3 1.2-1 1.2-1.7 0-.6-.7-.9-1.4-.6C8 .7 7.5 1.4 7.6 2c0 .6.7.9 1.4.6Z" fill="#FFF5D6"/><path opacity=".2" d="M9 2.6c.7-.3 1.2-1 1.2-1.7 0-.6-.7-.9-1.4-.5-.7.3-1.3 1-1.2 1.6 0 .6.7.9 1.4.6Z" fill="#FFF5D5"/><path opacity=".2" d="M9 2.6c.7-.3 1.2-1 1.2-1.7 0-.6-.7-.9-1.4-.6C8 .7 7.5 1.4 7.6 2c0 .6.7.9 1.4.6Z" fill="#FFF5D4"/><path opacity=".2" d="M9 2.6c.7-.3 1.2-1 1.2-1.7 0-.6-.7-.9-1.4-.6C8 .7 7.5 1.4 7.6 2c0 .6.7.9 1.4.6Z" fill="#FFF5D4"/><path opacity=".2" d="M9 2.6c.7-.3 1.2-1 1.2-1.7 0-.6-.7-.9-1.4-.6C8 .7 7.5 1.4 7.6 2c0 .6.7.9 1.4.6Z" fill="#FFF4D3"/><path opacity=".2" d="M9 2.6c.7-.3 1.2-1 1.2-1.7 0-.6-.7-.9-1.4-.6C8 .7 7.5 1.4 7.6 2c0 .6.7.9 1.4.6Z" fill="#FFF4D2"/><path opacity=".2" d="M9 2.6c.7-.3 1.2-1 1.2-1.7 0-.6-.7-.9-1.4-.6C8 .7 7.5 1.4 7.6 2c0 .6.7.9 1.4.6Z" fill="#FFF4D1"/><path opacity=".2" d="M9 2.6c.7-.3 1.2-1 1.2-1.7 0-.6-.7-.9-1.4-.6C8 .7 7.5 1.4 7.6 2c0 .6.7.9 1.4.6Z" fill="#FFF4D0"/><path opacity=".2" d="M9 2.6c.7-.3 1.2-1 1.2-1.7 0-.6-.7-.9-1.4-.6C8 .7 7.5 1.4 7.6 2c0 .6.7.9 1.4.6Z" fill="#FFF4D0"/><path opacity=".2" d="M9 2.6c.7-.3 1.2-1 1.2-1.7 0-.6-.7-.9-1.4-.6C8 .7 7.6 1.4 7.6 2c0 .6.7.9 1.4.6Z" fill="#FFF3CF"/><path opacity=".2" d="M9 2.6c.7-.3 1.2-1 1.2-1.7 0-.6-.7-.9-1.4-.5-.7.3-1.2 1-1.2 1.6 0 .6.7.9 1.4.6Z" fill="#FFF3CE"/><path opacity=".2" d="M9 2.6c.7-.3 1.2-1 1.2-1.7 0-.6-.7-.9-1.4-.6C8 .7 7.6 1.4 7.6 2c0 .6.7.9 1.4.6Z" fill="#FFF3CD"/><path opacity=".2" d="M9 2.6c.7-.3 1.2-1 1.2-1.7 0-.6-.7-.9-1.4-.6C8 .7 7.6 1.4 7.6 2c0 .6.7.9 1.4.6Z" fill="#FFF3CC"/><path opacity=".2" d="M9 2.6c.7-.3 1.2-1 1.2-1.7 0-.6-.7-.9-1.4-.6C8 .7 7.5 1.4 7.6 2c0 .6.7.9 1.4.6Z" fill="#FFF3CC"/><path opacity=".2" d="M9 2.6c.7-.3 1.2-1 1.2-1.7 0-.6-.7-.9-1.4-.5-.7.3-1.2 1-1.2 1.6 0 .6.7.9 1.4.6Z" fill="#FFF2CB"/><path opacity=".2" d="M9 2.6c.7-.3 1.2-1 1.2-1.7 0-.6-.7-.9-1.4-.6C8 .7 7.6 1.4 7.6 2c0 .6.7.9 1.4.6Z" fill="#FFF2CA"/><path opacity=".2" d="M9 2.6c.7-.3 1.2-1 1.2-1.7 0-.6-.7-.9-1.4-.6C8 .7 7.6 1.4 7.6 2c0 .6.7.9 1.4.6Z" fill="#FFF2C9"/><path opacity=".2" d="M9 2.6c.7-.3 1.2-1 1.2-1.7 0-.6-.7-.9-1.4-.6C8 .7 7.6 1.4 7.6 2c0 .6.7.9 1.4.6Z" fill="#FFF2C8"/><path opacity=".2" d="M9 2.6c.7-.3 1.2-1 1.2-1.7 0-.6-.7-.9-1.4-.6C8 .7 7.6 1.4 7.6 2c0 .6.7.9 1.4.6Z" fill="#FFF2C8"/><path opacity=".2" d="M9 2.6c.7-.3 1.2-1 1.2-1.7 0-.6-.7-.9-1.4-.6C8 .7 7.6 1.4 7.6 2c0 .6.7.9 1.4.6Z" fill="#FFF2C7"/><path opacity=".2" d="M9 2.6c.7-.3 1.2-1 1.2-1.7 0-.6-.7-.9-1.4-.6C8 .7 7.6 1.4 7.6 2c0 .6.7.9 1.4.6Z" fill="#FFF1C6"/><path opacity=".2" d="M9 2.6c.7-.3 1.2-1 1.2-1.7 0-.6-.7-.9-1.4-.6C8 .7 7.6 1.4 7.6 2c0 .6.7.9 1.4.6Z" fill="#FFF1C5"/><path opacity=".2" d="M9 2.6c.7-.3 1.2-1 1.2-1.7 0-.6-.7-.9-1.4-.6C8 .7 7.6 1.4 7.6 2c0 .6.7.9 1.4.6Z" fill="#FFF1C4"/><path opacity=".2" d="M9 2.6c.7-.3 1.2-1 1.2-1.7 0-.6-.7-.9-1.4-.5-.7.3-1.2 1-1.2 1.6 0 .6.7.9 1.4.6Z" fill="#FFF1C4"/><path opacity=".2" d="M9 2.6c.7-.4 1.2-1.1 1.2-1.7 0-.6-.7-.9-1.4-.6C8 .7 7.6 1.4 7.6 2c0 .6.7.9 1.4.6Z" fill="#FFF1C3"/><path opacity=".3" d="M9 2.6c.7-.4 1.2-1.1 1.2-1.7 0-.6-.7-.9-1.4-.6C8 .7 7.6 1.4 7.6 2c0 .6.7.9 1.4.6Z" fill="#FFF0C2"/><path opacity=".3" d="M9 2.6c.7-.4 1.2-1.1 1.2-1.7 0-.6-.7-.9-1.4-.6C8 .7 7.6 1.4 7.6 2c0 .6.7.9 1.4.6Z" fill="#FFF0C1"/><path opacity=".3" d="M9 2.6c.7-.4 1.2-1.1 1.2-1.7 0-.6-.7-.9-1.4-.6C8 .7 7.6 1.4 7.6 2c0 .6.7.9 1.4.6Z" fill="#FFF0C0"/><path opacity=".3" d="M9 2.6c.7-.4 1.2-1.1 1.2-1.7C10 .3 9.5 0 8.8.3 8 .7 7.6 1.4 7.6 2c0 .6.7.9 1.4.6Z" fill="#FFF0BF"/><path opacity=".3" d="M9 2.6c.7-.4 1.2-1.1 1.2-1.7C10 .3 9.5 0 8.8.3 8 .7 7.6 1.4 7.6 2c0 .6.7.9 1.4.6Z" fill="#FFF0BF"/><path opacity=".3" d="M9 2.6c.7-.4 1.2-1.1 1.2-1.7C10 .3 9.5 0 8.8.3 8 .7 7.6 1.4 7.6 2c0 .6.7.9 1.4.6Z" fill="#FFEFBE"/><path opacity=".3" d="M9 2.6c.7-.4 1.2-1.1 1.2-1.7C10 .3 9.5 0 8.8.3 8 .7 7.6 1.4 7.6 2c0 .6.7.9 1.4.6Z" fill="#FFEFBD"/><path opacity=".3" d="M9 2.6c.7-.4 1.2-1.1 1.2-1.7C10 .3 9.5 0 8.8.3 8 .7 7.6 1.4 7.6 2c0 .6.7.9 1.4.6Z" fill="#FFEFBC"/><path opacity=".3" d="M9 2.6c.7-.4 1.2-1.1 1.2-1.7C10 .3 9.5 0 8.8.3 8 .7 7.6 1.4 7.6 2c0 .6.7.9 1.4.6Z" fill="#FFEFBB"/><path opacity=".3" d="M9 2.5c.7-.3 1.2-1 1.2-1.6C10 .3 9.5 0 8.8.3 8 .7 7.6 1.4 7.6 2c0 .6.7.9 1.4.5Z" fill="#FFEFBB"/><path opacity=".3" d="M9 2.5c.7-.3 1.2-1 1.2-1.6C10 .3 9.5 0 8.8.3 8 .7 7.6 1.4 7.6 2c0 .6.7.9 1.4.5Z" fill="#FFEEBA"/><path opacity=".3" d="M9 2.5c.7-.3 1.2-1 1.2-1.6C10 .3 9.5 0 8.8.3 8 .7 7.6 1.4 7.6 2c0 .6.7.9 1.4.5Z" fill="#FFEEB9"/><path opacity=".3" d="M9 2.5c.7-.3 1.2-1 1.2-1.6C10 .3 9.5 0 8.8.3 8 .7 7.6 1.4 7.6 2c0 .6.7.9 1.4.5Z" fill="#FFEEB8"/><path opacity=".3" d="M9 2.5c.7-.3 1.2-1 1.2-1.6C10 .3 9.5 0 8.8.3 8 .7 7.6 1.4 7.6 2c0 .6.7.9 1.4.5Z" fill="#FFEEB7"/><path opacity=".3" d="M9 2.5c.7-.3 1.2-1 1.2-1.6C10 .3 9.5 0 8.8.3 8 .7 7.6 1.4 7.6 2c0 .6.7.9 1.4.5Z" fill="#FFEEB7"/><path opacity=".3" d="M9 2.5c.7-.3 1.2-1 1.2-1.6C10 .3 9.5 0 8.8.3 8 .7 7.6 1.4 7.6 2c0 .6.7.9 1.4.5Z" fill="#FFEDB6"/><path opacity=".3" d="M9 2.5c.7-.3 1.2-1 1.2-1.6C10 .3 9.5 0 8.8.3 8 .7 7.6 1.4 7.6 2c0 .6.7.9 1.4.5Z" fill="#FFEDB5"/><path opacity=".3" d="M9 2.5c.7-.3 1.2-1 1.2-1.6C10 .3 9.5 0 8.8.3 8 .7 7.6 1.4 7.6 2c0 .6.7.9 1.4.5Z" fill="#FFEDB4"/><path opacity=".3" d="M9 2.5c.7-.3 1.2-1 1.2-1.6C10 .3 9.5 0 8.8.3 8 .7 7.6 1.3 7.6 2c0 .6.7.9 1.4.5Z" fill="#FFEDB3"/><path opacity=".3" d="M9 2.5c.7-.3 1.2-1 1.2-1.6C10 .3 9.5 0 8.8.3 8 .7 7.6 1.3 7.6 2c0 .6.7.9 1.4.5Z" fill="#FFEDB3"/><path opacity=".3" d="M9 2.5c.7-.3 1.2-1 1.2-1.6C10 .3 9.5 0 8.8.3 8 .7 7.6 1.4 7.6 2c0 .6.7.8 1.4.5Z" fill="#FFEDB2"/><path opacity=".3" d="M9 2.5c.7-.3 1.2-1 1.2-1.6C10 .3 9.5 0 8.8.3 8 .7 7.6 1.4 7.6 2c0 .6.7.8 1.4.5Z" fill="#FFECB1"/><path opacity=".3" d="M9 2.5c.7-.3 1.2-1 1.2-1.6C10 .3 9.5 0 8.8.3 8 .7 7.6 1.3 7.6 2c0 .6.7.8 1.4.5Z" fill="#FFECB0"/><path opacity=".3" d="M9 2.5c.7-.3 1.2-1 1.2-1.6C10 .3 9.5 0 8.8.3 8 .7 7.6 1.3 7.6 2c0 .6.7.8 1.4.5Z" fill="#FFECAF"/><path opacity=".3" d="M9 2.5c.7-.3 1.2-1 1.2-1.6C10 .3 9.5 0 8.8.3 8 .7 7.6 1.3 7.6 2c0 .6.7.8 1.4.5Z" fill="#FFECAF"/><path opacity=".3" d="M9 2.5c.7-.3 1.2-1 1.2-1.6C10 .3 9.5 0 8.8.3 8 .7 7.6 1.3 7.6 2c0 .6.7.8 1.4.5Z" fill="#FFECAE"/><path opacity=".3" d="M9 2.5c.7-.3 1.2-1 1.2-1.6C10 .3 9.5 0 8.8.3 8 .7 7.6 1.3 7.6 2c0 .6.7.8 1.4.5Z" fill="#FFEBAD"/><path opacity=".3" d="M9 2.5c.7-.3 1.2-1 1.2-1.6C10 .3 9.5 0 8.8.3 8 .7 7.6 1.3 7.6 2c0 .6.7.8 1.4.5Z" fill="#FFEBAC"/><path opacity=".3" d="M9 2.5c.7-.3 1.2-1 1.2-1.6C10 .3 9.5 0 8.8.3 8 .7 7.6 1.3 7.6 2c0 .6.7.8 1.4.5Z" fill="#FFEBAB"/><path opacity=".3" d="M9 2.5c.7-.3 1.2-1 1.2-1.6C10 .3 9.5 0 8.8.3 8 .7 7.6 1.3 7.6 2c0 .6.7.8 1.4.5Z" fill="#FFEBAB"/><path opacity=".4" d="M9 2.5c.7-.3 1.2-1 1.2-1.6C10 .3 9.5 0 8.8.3 8 .7 7.6 1.3 7.6 2c0 .6.7.8 1.4.5Z" fill="#FFEBAA"/><path opacity=".4" d="M9 2.5c.7-.3 1.2-1 1.2-1.6C10 .3 9.5 0 8.8.3 8 .7 7.6 1.3 7.6 2c0 .6.7.8 1.4.5Z" fill="#FFEAA9"/><path opacity=".4" d="M9 2.5c.7-.3 1.2-1 1.1-1.6 0-.6-.6-.9-1.3-.6-.7.4-1.2 1-1.2 1.7 0 .6.7.8 1.4.5Z" fill="#FFEAA8"/><path opacity=".4" d="M9 2.5c.7-.3 1.2-1 1.1-1.6 0-.6-.6-.9-1.3-.6-.7.4-1.2 1-1.2 1.7 0 .6.7.8 1.4.5Z" fill="#FFEAA7"/><path opacity=".4" d="M9 2.5c.7-.3 1.2-1 1.1-1.6 0-.6-.6-.9-1.3-.6-.7.4-1.2 1-1.2 1.7 0 .6.7.8 1.4.5Z" fill="#FFEAA7"/><path opacity=".4" d="M9 2.5c.7-.3 1.2-1 1.1-1.6 0-.6-.6-.9-1.3-.6-.7.4-1.2 1-1.2 1.7 0 .6.7.8 1.4.5Z" fill="#FFEAA6"/><path opacity=".4" d="M9 2.5c.7-.3 1.2-1 1.1-1.6 0-.6-.6-.9-1.3-.6-.7.4-1.2 1-1.2 1.7 0 .6.7.8 1.4.5Z" fill="#FFE9A5"/><path opacity=".4" d="M9 2.5c.7-.3 1.2-1 1.1-1.6 0-.6-.6-.9-1.3-.6-.7.4-1.2 1-1.2 1.7 0 .6.7.8 1.4.5Z" fill="#FFE9A4"/><path opacity=".4" d="M9 2.5c.7-.3 1.2-1 1.1-1.6 0-.6-.6-.9-1.3-.6-.7.4-1.2 1-1.2 1.7 0 .6.7.8 1.4.5Z" fill="#FFE9A3"/><path opacity=".4" d="M9 2.5c.7-.3 1.2-1 1.1-1.6 0-.6-.6-.9-1.3-.6-.7.4-1.2 1-1.2 1.7 0 .6.7.8 1.4.5Z" fill="#FFE9A3"/><path opacity=".4" d="M9 2.5c.7-.3 1.2-1 1.1-1.6 0-.6-.6-.9-1.3-.6-.7.4-1.2 1-1.2 1.7 0 .6.7.8 1.4.5Z" fill="#FFE9A2"/><path opacity=".4" d="M9 2.5c.7-.3 1.2-1 1.1-1.6 0-.6-.6-.9-1.3-.6-.7.4-1.2 1-1.2 1.7 0 .6.7.8 1.4.5Z" fill="#FFE8A1"/><path opacity=".4" d="M9 2.5c.7-.3 1.2-1 1.1-1.6 0-.6-.6-.9-1.3-.6-.7.3-1.2 1-1.2 1.7 0 .6.7.8 1.4.5Z" fill="#FFE8A0"/><path opacity=".4" d="M9 2.5c.7-.3 1.2-1 1.1-1.6 0-.6-.6-.9-1.3-.6-.7.4-1.2 1-1.2 1.7 0 .6.7.8 1.4.5Z" fill="#FFE89F"/><path opacity=".4" d="M9 2.5c.7-.3 1.2-1 1.1-1.6 0-.6-.6-.9-1.3-.6-.7.3-1.2 1-1.2 1.7 0 .6.7.8 1.4.5Z" fill="#FFE89F"/><path opacity=".4" d="M9 2.5c.7-.3 1.2-1 1.1-1.6 0-.6-.6-.9-1.3-.6-.7.3-1.2 1-1.2 1.7 0 .6.7.8 1.4.5Z" fill="#FFE89E"/><path opacity=".4" d="M9 2.5c.7-.3 1.2-1 1.1-1.6 0-.6-.6-.9-1.3-.6-.7.3-1.2 1-1.2 1.7 0 .6.7.8 1.4.5Z" fill="#FFE79D"/><path opacity=".4" d="M9 2.5c.7-.3 1.2-1 1.1-1.6 0-.6-.6-.9-1.3-.6-.7.3-1.2 1-1.2 1.7 0 .6.7.8 1.4.5Z" fill="#FFE79C"/><path opacity=".4" d="M9 2.5c.7-.3 1.2-1 1.1-1.6 0-.6-.6-.9-1.3-.6-.7.3-1.2 1-1.2 1.7 0 .6.7.8 1.4.5Z" fill="#FFE79B"/><path opacity=".4" d="M9 2.5c.7-.3 1.2-1 1.1-1.6 0-.6-.6-.9-1.3-.6-.7.3-1.2 1-1.2 1.7.1.6.7.8 1.4.5Z" fill="#FFE79B"/><path opacity=".4" d="M9 2.5c.7-.3 1.2-1 1.1-1.6 0-.6-.6-.9-1.3-.6-.7.3-1.2 1-1.2 1.7.1.6.7.8 1.4.5Z" fill="#FFE79A"/><path opacity=".4" d="M9 2.5c.7-.3 1.2-1 1.1-1.6 0-.6-.6-.9-1.3-.6-.7.3-1.2 1-1.2 1.7.1.6.7.8 1.4.5Z" fill="#FFE799"/><path opacity=".4" d="M9 2.5c.7-.3 1.2-1 1.1-1.6 0-.6-.6-.9-1.3-.6-.7.4-1.2 1-1.2 1.7.1.6.7.8 1.4.5Z" fill="#FFE698"/><path opacity=".4" d="M9 2.5c.7-.3 1.2-1 1.1-1.6 0-.6-.6-.9-1.3-.6-.7.3-1.2 1-1.2 1.7.1.6.7.8 1.4.5Z" fill="#FFE697"/><path opacity=".4" d="M9 2.5c.7-.3 1.2-1 1.1-1.6 0-.6-.6-.9-1.3-.6-.7.3-1.2 1-1.2 1.7.1.6.7.8 1.4.5Z" fill="#FFE696"/><path opacity=".4" d="M9 2.5c.7-.3 1.2-1 1.1-1.6 0-.6-.6-.9-1.3-.6-.7.3-1.2 1-1.2 1.7.1.6.7.8 1.4.5Z" fill="#FFE696"/><path opacity=".4" d="M9 2.5c.7-.3 1.2-1 1.1-1.6 0-.6-.6-.9-1.3-.6-.7.4-1.2 1-1.2 1.7.1.6.7.8 1.4.5Z" fill="#FFE695"/><path opacity=".4" d="M9 2.5c.7-.3 1.2-1 1.1-1.6 0-.6-.6-.9-1.3-.6-.7.3-1.2 1-1.2 1.7.1.6.7.8 1.4.5Z" fill="#FFE594"/><path opacity=".4" d="M9 2.5c.7-.3 1.2-1 1.1-1.6 0-.6-.6-.9-1.3-.6-.7.3-1.2 1-1.2 1.7.1.6.7.8 1.4.5Z" fill="#FFE593"/><path opacity=".4" d="M9 2.5c.7-.3 1.2-1 1.1-1.6 0-.6-.6-.9-1.3-.6-.7.3-1.2 1-1.2 1.7.1.6.7.8 1.4.5Z" fill="#FFE592"/><path opacity=".5" d="M9 2.5c.7-.3 1.2-1 1.1-1.6 0-.6-.6-.9-1.3-.6-.7.3-1.2 1-1.2 1.7.1.6.7.8 1.4.5Z" fill="#FFE592"/><path opacity=".5" d="M9 2.5c.7-.3 1.2-1 1.1-1.6 0-.6-.6-.9-1.3-.6-.7.3-1.2 1-1.2 1.7.1.6.7.8 1.4.5Z" fill="#FFE591"/><path opacity=".5" d="M9 2.5c.7-.3 1.2-1 1.1-1.6 0-.6-.6-.9-1.3-.6-.7.3-1.2 1-1.2 1.7.1.6.7.8 1.4.5Z" fill="#FFE490"/><path opacity=".5" d="M9 2.5c.7-.3 1.2-1 1.1-1.6 0-.6-.6-.9-1.3-.6-.7.3-1.2 1-1.2 1.7.1.6.7.8 1.4.5Z" fill="#FFE48F"/><path opacity=".5" d="M9 2.5c.7-.3 1.2-1 1.1-1.6 0-.6-.6-.9-1.3-.6-.7.3-1.2 1-1.2 1.7.1.6.7.8 1.4.5Z" fill="#FFE48E"/><path opacity=".5" d="M9 2.5c.7-.3 1.2-1 1.1-1.6 0-.6-.6-.9-1.3-.6-.7.4-1.2 1-1.2 1.7.1.6.7.8 1.4.5Z" fill="#FFE48E"/><path opacity=".5" d="M9 2.5c.7-.3 1.2-1 1.1-1.6 0-.6-.6-.9-1.3-.6-.7.3-1.2 1-1.2 1.7.1.6.7.8 1.4.5Z" fill="#FFE48D"/><path opacity=".5" d="M9 2.5c.7-.3 1.2-1 1.1-1.6 0-.6-.6-.9-1.3-.6-.7.3-1.2 1-1.2 1.7.1.6.7.8 1.4.5Z" fill="#FFE38C"/><path opacity=".5" d="M9 2.5c.7-.3 1.2-1 1.1-1.6 0-.6-.6-.9-1.3-.6-.7.3-1.2 1-1.2 1.7.1.6.7.8 1.4.5Z" fill="#FFE38B"/><path opacity=".5" d="M9 2.5c.7-.3 1.2-1 1.1-1.6 0-.6-.6-.9-1.3-.6-.7.3-1.2 1-1.2 1.7.1.6.7.8 1.4.5Z" fill="#FFE38A"/><path opacity=".5" d="M9 2.5c.7-.3 1.2-1 1.1-1.6 0-.6-.6-.9-1.3-.6-.7.3-1.2 1-1.2 1.7.1.6.7.8 1.4.5Z" fill="#FFE38A"/><path opacity=".5" d="M9 2.5c.7-.3 1.2-1 1.1-1.6 0-.6-.6-.9-1.3-.6-.7.3-1.2 1-1.2 1.7.1.6.7.8 1.4.5Z" fill="#FFE389"/><path opacity=".5" d="M9 2.5c.7-.3 1.2-1 1.1-1.6 0-.6-.6-.9-1.3-.6-.7.3-1.2 1-1.2 1.7.1.6.7.8 1.4.5Z" fill="#FFE288"/><path opacity=".5" d="M9 2.5c.7-.3 1.2-1 1.1-1.6 0-.6-.6-.9-1.3-.6-.7.3-1.2 1-1.2 1.7.1.6.7.8 1.4.5Z" fill="#FFE287"/><path opacity=".5" d="M9 2.5c.7-.3 1.2-1 1.1-1.6 0-.6-.6-.9-1.3-.6-.7.3-1.2 1-1.2 1.7.1.6.7.8 1.4.5Z" fill="#FFE286"/><path opacity=".5" d="M9 2.5c.7-.3 1.2-1 1.1-1.6 0-.6-.6-.9-1.3-.6-.7.3-1.2 1-1.2 1.7.1.6.7.8 1.4.5Z" fill="#FFE286"/><path opacity=".5" d="M9 2.5c.7-.3 1.2-1 1.1-1.6 0-.6-.6-.9-1.3-.6-.7.3-1.2 1-1.2 1.7.1.6.7.8 1.4.5Z" fill="#FFE285"/><path opacity=".5" d="M9 2.5c.7-.3 1.2-1 1.1-1.6 0-.6-.6-.9-1.3-.6-.7.3-1.2 1-1.2 1.7.1.6.7.8 1.4.5Z" fill="#FFE284"/><path opacity=".5" d="M9 2.5c.7-.3 1.2-1 1.1-1.6 0-.6-.6-.9-1.3-.6-.7.3-1.2 1-1.2 1.7.1.6.7.8 1.4.5Z" fill="#FFE183"/><path opacity=".5" d="M9 2.5c.7-.3 1.2-1 1.1-1.6 0-.6-.6-.9-1.3-.6-.7.3-1.2 1-1.2 1.7.1.6.7.8 1.4.5Z" fill="#FFE182"/><path opacity=".5" d="M9 2.5c.7-.3 1.2-1 1.1-1.6 0-.6-.6-.9-1.3-.6-.7.3-1.2 1-1.2 1.7.1.6.7.8 1.4.5Z" fill="#FFE182"/><path opacity=".5" d="M9 2.5c.7-.3 1.2-1 1.1-1.6 0-.6-.6-.9-1.3-.6-.7.3-1.2 1-1.1 1.7 0 .6.6.8 1.3.5Z" fill="#FFE181"/><path opacity=".5" d="M9 2.5c.7-.3 1.2-1 1.1-1.6 0-.6-.6-.9-1.3-.6-.7.3-1.2 1-1.1 1.7 0 .6.6.8 1.3.5Z" fill="#FFE180"/><path opacity=".5" d="M9 2.5c.7-.3 1.2-1 1.1-1.6 0-.6-.6-.9-1.3-.6-.7.3-1.2 1-1.1 1.7 0 .6.6.8 1.3.5Z" fill="#FFE07F"/><path opacity=".5" d="M9 2.5c.7-.3 1.2-1 1.1-1.6 0-.6-.6-.9-1.3-.6-.7.3-1.2 1-1.1 1.7 0 .6.6.8 1.3.5Z" fill="#FFE07E"/><path opacity=".5" d="M9 2.5c.7-.3 1.2-1 1.1-1.6 0-.6-.6-.9-1.3-.6-.7.3-1.2 1-1.1 1.7 0 .6.6.8 1.3.5Z" fill="#FFE07E"/><path opacity=".5" d="M9 2.5c.7-.3 1.2-1 1.1-1.6 0-.6-.6-.9-1.3-.6-.7.3-1.2 1-1.1 1.7 0 .5.6.8 1.3.5Z" fill="#FFE07D"/><path opacity=".5" d="M9 2.5c.7-.3 1.2-1 1.1-1.6 0-.6-.6-.9-1.3-.6-.7.3-1.2 1-1.1 1.7 0 .5.6.8 1.3.5Z" fill="#FFE07C"/><path opacity=".5" d="M9 2.5c.7-.3 1.2-1 1.1-1.6 0-.6-.6-.9-1.3-.6-.7.3-1.2 1-1.1 1.7 0 .5.6.8 1.3.5Z" fill="#FFDF7B"/><path opacity=".5" d="M9 2.5c.7-.3 1.2-1 1.1-1.6 0-.6-.6-.9-1.3-.6-.7.3-1.2 1-1.1 1.7 0 .5.6.8 1.3.5Z" fill="#FFDF7A"/><path opacity=".6" d="M9 2.5c.7-.3 1.2-1 1.1-1.6 0-.6-.6-.9-1.3-.6-.7.3-1.2 1-1.1 1.7 0 .5.6.8 1.3.5Z" fill="#FFDF7A"/><path opacity=".6" d="M9 2.5c.7-.3 1.2-1 1.1-1.6 0-.6-.6-.9-1.3-.6-.7.3-1.2 1-1.1 1.7 0 .5.6.8 1.3.5Z" fill="#FFDF79"/><path opacity=".6" d="M9 2.5c.7-.3 1.2-1 1.1-1.6 0-.6-.6-.9-1.3-.6-.7.3-1.2 1-1.1 1.7 0 .5.6.8 1.3.5Z" fill="#FFDF78"/><path opacity=".6" d="M9 2.5c.7-.3 1.2-1 1.1-1.6 0-.6-.6-.9-1.3-.6-.7.3-1.2 1-1.1 1.7 0 .5.6.8 1.3.5Z" fill="#FFDE77"/><path opacity=".6" d="M9 2.5c.7-.3 1.2-1 1.1-1.6 0-.6-.6-.9-1.3-.6-.7.3-1.2 1-1.1 1.7 0 .5.6.8 1.3.5Z" fill="#FFDE76"/><path opacity=".6" d="M9 2.5c.7-.3 1.2-1 1.1-1.6 0-.6-.6-.9-1.3-.6-.7.3-1.2 1-1.1 1.7 0 .5.6.8 1.3.5Z" fill="#FFDE76"/><path opacity=".6" d="M9 2.5c.7-.3 1.2-1 1.1-1.6 0-.6-.6-.9-1.3-.6-.7.3-1.2 1-1.1 1.7 0 .5.6.8 1.3.5Z" fill="#FFDE75"/><path opacity=".6" d="M9 2.5c.7-.3 1.2-1 1.1-1.6 0-.6-.6-.9-1.3-.6-.7.3-1.2 1-1.1 1.7 0 .5.6.8 1.3.5Z" fill="#FFDE74"/><path opacity=".6" d="M9 2.5c.7-.3 1.2-1 1.1-1.6 0-.6-.6-.9-1.3-.6-.7.3-1.2 1-1.1 1.7 0 .5.6.8 1.3.5Z" fill="#FFDD73"/><path opacity=".6" d="M9 2.5c.7-.3 1.2-1 1.1-1.6 0-.6-.6-.9-1.3-.6-.7.3-1.2 1-1.1 1.7 0 .5.6.8 1.3.5Z" fill="#FFDD72"/><path opacity=".6" d="M9 2.5c.7-.3 1.2-1 1.1-1.6 0-.6-.6-.9-1.3-.6-.7.3-1.2 1-1.1 1.7 0 .5.6.8 1.3.5Z" fill="#FFDD71"/><path opacity=".6" d="M9 2.5c.7-.3 1.2-1 1.1-1.6 0-.6-.6-.9-1.3-.6-.7.3-1.2 1-1.1 1.6 0 .6.6.9 1.3.6Z" fill="#FFDD71"/><path opacity=".6" d="M9 2.5c.7-.3 1.2-1 1.1-1.6 0-.6-.6-.9-1.3-.6-.7.3-1.2 1-1.1 1.6 0 .6.6.9 1.3.6Z" fill="#FFDD70"/><path opacity=".6" d="M9 2.5c.7-.3 1.2-1 1.1-1.6 0-.6-.6-.9-1.3-.6-.7.3-1.2 1-1.1 1.6 0 .6.6.9 1.3.6Z" fill="#FFDD6F"/><path opacity=".6" d="M9 2.5c.7-.3 1.2-1 1.1-1.6 0-.6-.6-.9-1.3-.6-.7.3-1.2 1-1.1 1.6 0 .6.6.9 1.3.6Z" fill="#FFDC6E"/><path opacity=".6" d="M9 2.5c.7-.3 1.2-1 1.1-1.6 0-.6-.6-.9-1.3-.6-.7.3-1.2 1-1.1 1.6 0 .6.6.9 1.3.6Z" fill="#FFDC6D"/><path opacity=".6" d="M9 2.5c.7-.3 1.2-1 1.1-1.6 0-.6-.6-.9-1.3-.6-.7.3-1.2 1-1.1 1.6 0 .6.6.9 1.3.6Z" fill="#FFDC6D"/><path opacity=".6" d="M9 2.5c.7-.3 1.2-1 1.1-1.6 0-.6-.6-.9-1.3-.6-.7.3-1.2 1-1.1 1.6 0 .6.6.9 1.3.6Z" fill="#FFDC6C"/><path opacity=".6" d="M9 2.5c.7-.3 1.2-1 1.1-1.6 0-.6-.6-.9-1.3-.6-.7.3-1.2 1-1.1 1.6 0 .6.6.9 1.3.6Z" fill="#FFDC6B"/><path opacity=".6" d="M9 2.5c.7-.3 1.2-1 1.1-1.6 0-.6-.6-.9-1.3-.6-.7.3-1.2 1-1.1 1.6 0 .6.6.9 1.3.6Z" fill="#FFDB6A"/><path opacity=".6" d="M9 2.5c.7-.3 1.2-1 1.1-1.6 0-.6-.6-.9-1.3-.6-.7.3-1.2 1-1.1 1.6 0 .6.6.9 1.3.6Z" fill="#FFDB69"/><path opacity=".6" d="M9 2.5c.7-.3 1.2-1 1.1-1.6 0-.6-.6-.9-1.3-.6-.7.3-1.2 1-1.1 1.6 0 .6.6.9 1.3.6Z" fill="#FFDB69"/><path opacity=".6" d="M9 2.5c.7-.3 1.2-1 1.1-1.6 0-.6-.6-.9-1.3-.6-.7.3-1.2 1-1.1 1.6 0 .6.6.9 1.3.6Z" fill="#FFDB68"/><path opacity=".6" d="M9 2.5c.7-.3 1.2-1 1.1-1.6 0-.6-.6-.9-1.3-.6-.7.3-1.2 1-1.1 1.6 0 .6.6.9 1.3.6Z" fill="#FFDB67"/><path opacity=".6" d="M9 2.5c.7-.3 1.2-1 1.1-1.6 0-.6-.6-.9-1.3-.6-.7.3-1.2 1-1.1 1.6 0 .6.6.9 1.3.6Z" fill="#FFDA66"/><path opacity=".6" d="M9 2.5c.7-.3 1.2-1 1.1-1.6 0-.6-.6-.9-1.3-.6-.7.3-1.2 1-1.1 1.6 0 .6.6.9 1.3.6Z" fill="#FFDA65"/><path opacity=".6" d="M9 2.5c.7-.3 1.2-1 1.1-1.6 0-.6-.6-.9-1.3-.6-.7.3-1.2 1-1.1 1.6 0 .6.6.9 1.3.6Z" fill="#FFDA65"/><path opacity=".6" d="M9 2.5c.7-.3 1.2-1 1.1-1.6 0-.6-.6-.9-1.3-.6-.7.3-1.2 1-1.1 1.6 0 .6.6.9 1.3.6Z" fill="#FFDA64"/><path opacity=".6" d="M9 2.5c.7-.3 1.2-1 1.1-1.6 0-.6-.6-.9-1.3-.6-.7.3-1.2 1-1.1 1.6 0 .6.6.9 1.3.6Z" fill="#FFDA63"/><path opacity=".6" d="M9 2.5c.7-.3 1.2-1 1.1-1.6 0-.6-.6-.9-1.3-.6-.7.3-1.2 1-1.1 1.6 0 .6.6.9 1.3.6Z" fill="#FFD962"/><path opacity=".7" d="M9 2.5c.7-.3 1.2-1 1.1-1.6 0-.6-.6-.9-1.3-.6-.7.3-1.2 1-1.1 1.6 0 .6.6.9 1.3.6Z" fill="#FFD961"/><path opacity=".7" d="M9 2.5c.7-.3 1.2-1 1.1-1.6 0-.6-.6-.9-1.3-.6-.7.3-1.2 1-1.1 1.6 0 .6.6.9 1.3.6Z" fill="#FFD961"/><path opacity=".7" d="M9 2.5c.7-.3 1.2-1 1.1-1.6 0-.6-.6-.9-1.3-.6-.7.3-1.2 1-1.1 1.6 0 .6.6.9 1.3.6Z" fill="#FFD960"/><path opacity=".7" d="M9 2.5c.7-.3 1.2-1 1.1-1.6 0-.6-.6-.8-1.3-.6-.7.3-1.2 1-1.1 1.6 0 .6.6.9 1.3.6Z" fill="#FFD95F"/><path opacity=".7" d="M9 2.5c.7-.3 1.2-1 1.1-1.6 0-.6-.6-.9-1.3-.6-.7.3-1.2 1-1.1 1.6 0 .6.6.9 1.3.6Z" fill="#FFD85E"/><path opacity=".7" d="M9 2.5c.7-.3 1.2-1 1.1-1.6 0-.6-.6-.9-1.3-.6-.7.3-1.2 1-1.1 1.6 0 .6.6.9 1.3.6Z" fill="#FFD85D"/><path opacity=".7" d="M9 2.5c.7-.3 1.2-1 1.1-1.6 0-.6-.6-.9-1.3-.6-.7.3-1.2 1-1.1 1.6 0 .6.6.9 1.3.6Z" fill="#FFD85D"/><path opacity=".7" d="M9 2.5c.7-.3 1.2-1 1.1-1.6 0-.6-.6-.9-1.3-.6-.7.3-1.2 1-1.1 1.6 0 .6.6.8 1.3.6Z" fill="#FFD85C"/><path opacity=".7" d="M9 2.5c.7-.3 1.2-1 1.1-1.6 0-.6-.6-.9-1.3-.6-.7.3-1.2 1-1.1 1.6 0 .6.6.8 1.3.6Z" fill="#FFD85B"/><path opacity=".7" d="M9 2.5c.7-.3 1.2-1 1.1-1.6 0-.6-.6-.9-1.3-.6-.7.3-1.2 1-1.1 1.6 0 .6.6.8 1.3.6Z" fill="#FFD75A"/><path opacity=".7" d="M9 2.5c.7-.3 1.2-1 1.1-1.6 0-.6-.6-.9-1.3-.6-.7.3-1.2 1-1.1 1.6 0 .6.6.8 1.3.6Z" fill="#FFD759"/><path opacity=".7" d="M9 2.5c.7-.3 1.2-1 1.1-1.6 0-.6-.6-.9-1.3-.6-.7.3-1.2 1-1.1 1.6 0 .6.6.8 1.3.6Z" fill="#FFD759"/><path opacity=".7" d="M9 2.5c.7-.3 1.2-1 1.1-1.6 0-.6-.6-.8-1.3-.6-.7.3-1.2 1-1.1 1.6 0 .6.6.8 1.3.6Z" fill="#FFD758"/><path opacity=".7" d="M9 2.4c.7-.2 1.2-1 1.1-1.5 0-.6-.6-.9-1.3-.6-.7.3-1.2 1-1.1 1.6 0 .6.6.8 1.3.5Z" fill="#FFD757"/><path opacity=".7" d="M9 2.4c.7-.2 1.2-1 1.1-1.5 0-.6-.7-.9-1.3-.6-.7.3-1.2 1-1.1 1.6 0 .6.6.8 1.3.5Z" fill="#FFD756"/><path opacity=".7" d="M9 2.4c.7-.2 1.2-1 1.1-1.5 0-.6-.7-.9-1.3-.6-.7.3-1.2 1-1.1 1.6 0 .6.6.8 1.3.5Z" fill="#FFD655"/><path opacity=".7" d="M9 2.4c.7-.2 1.2-1 1.1-1.5 0-.6-.7-.9-1.3-.6-.7.3-1.2 1-1.1 1.6 0 .6.6.8 1.3.5Z" fill="#FFD655"/><path opacity=".7" d="M9 2.4c.7-.2 1.2-1 1.1-1.5 0-.6-.7-.9-1.3-.6-.7.3-1.2 1-1.1 1.6 0 .6.6.8 1.3.5Z" fill="#FFD654"/><path opacity=".7" d="M9 2.4c.7-.2 1.2-1 1.1-1.5 0-.6-.6-.9-1.3-.6-.7.3-1.2 1-1.1 1.6 0 .6.6.8 1.3.5Z" fill="#FFD653"/><path opacity=".7" d="M9 2.4c.7-.2 1.2-1 1.1-1.5 0-.6-.6-.9-1.3-.6-.7.3-1.2 1-1.1 1.6 0 .6.6.8 1.3.5Z" fill="#FFD652"/><path opacity=".7" d="M9 2.4c.7-.2 1.2-1 1.1-1.5 0-.6-.6-.9-1.3-.6-.7.3-1.2 1-1.1 1.6 0 .6.6.8 1.3.5Z" fill="#FFD551"/><path opacity=".7" d="M9 2.4c.7-.2 1.2-1 1-1.5 0-.6-.6-.8-1.2-.6-.7.3-1.2 1-1.1 1.6 0 .6.6.8 1.3.5Z" fill="#FFD551"/><path opacity=".7" d="M9 2.4c.7-.2 1.2-1 1-1.5 0-.6-.6-.8-1.2-.6-.7.3-1.2 1-1.1 1.6 0 .6.6.8 1.3.5Z" fill="#FFD550"/><path opacity=".7" d="M9 2.4c.7-.3 1.2-1 1-1.5 0-.6-.6-.9-1.2-.6-.7.3-1.2 1-1.1 1.6 0 .6.6.8 1.3.5Z" fill="#FFD54F"/><path opacity=".7" d="M9 2.4c.7-.3 1.2-1 1-1.5 0-.6-.6-.9-1.2-.6-.7.3-1.2 1-1.1 1.6 0 .6.6.8 1.3.5Z" fill="#FFD54E"/><path opacity=".7" d="M9 2.4c.7-.3 1.2-1 1-1.5 0-.6-.6-.9-1.2-.6-.7.3-1.2 1-1.1 1.6 0 .6.6.8 1.3.5Z" fill="#FFD44D"/><path opacity=".7" d="M9 2.4c.7-.3 1.2-1 1-1.5 0-.6-.6-.9-1.2-.6-.7.3-1.2 1-1.1 1.6 0 .6.6.8 1.3.5Z" fill="#FFD44D"/><path opacity=".7" d="M9 2.4c.7-.3 1.1-1 1-1.5 0-.6-.6-.9-1.2-.6-.7.3-1.2 1-1.1 1.6 0 .6.6.8 1.3.5Z" fill="#FFD44C"/><path opacity=".7" d="M9 2.4c.7-.3 1.1-1 1-1.5 0-.6-.6-.8-1.2-.6-.7.3-1.2 1-1.1 1.6 0 .6.6.8 1.3.5Z" fill="#FFD44B"/><path opacity=".7" d="M9 2.4c.7-.3 1.1-1 1-1.5 0-.6-.6-.9-1.2-.6-.7.3-1.2 1-1.1 1.6 0 .6.6.8 1.3.5Z" fill="#FFD44A"/><path opacity=".8" d="M9 2.4c.7-.3 1.1-1 1-1.5 0-.6-.6-.8-1.2-.6-.7.3-1.2 1-1.1 1.6 0 .6.6.8 1.3.5Z" fill="#FFD349"/><path opacity=".8" d="M9 2.4c.7-.3 1.1-1 1-1.5 0-.6-.6-.8-1.2-.6-.7.3-1.2 1-1.1 1.6 0 .6.6.8 1.3.5Z" fill="#FFD348"/><path opacity=".8" d="M9 2.4c.7-.3 1.1-1 1-1.5 0-.6-.6-.9-1.2-.6-.7.3-1.2 1-1.1 1.6 0 .6.6.8 1.3.5Z" fill="#FFD348"/><path opacity=".8" d="M9 2.4c.7-.3 1.1-1 1-1.5 0-.6-.6-.9-1.2-.6-.7.3-1.2 1-1.1 1.6 0 .6.6.8 1.3.5Z" fill="#FFD347"/><path opacity=".8" d="M9 2.4c.7-.3 1.1-1 1-1.5 0-.6-.6-.8-1.2-.6-.7.3-1.2 1-1.1 1.6 0 .6.6.8 1.3.5Z" fill="#FFD346"/><path opacity=".8" d="M9 2.4c.7-.3 1.1-1 1-1.5 0-.6-.6-.9-1.2-.6-.7.3-1.2 1-1.1 1.6 0 .6.6.8 1.3.5Z" fill="#FFD245"/><path opacity=".8" d="M9 2.4c.7-.3 1.1-1 1-1.5 0-.6-.6-.9-1.2-.6-.7.3-1.2 1-1.1 1.6 0 .6.6.8 1.3.5Z" fill="#FFD244"/><path opacity=".8" d="M9 2.4c.7-.3 1.1-1 1-1.5 0-.6-.6-.8-1.2-.6-.7.3-1.2 1-1.1 1.6 0 .6.6.8 1.3.5Z" fill="#FFD244"/><path opacity=".8" d="M9 2.4c.7-.3 1.1-1 1-1.5 0-.6-.6-.8-1.2-.6-.7.3-1.2 1-1.1 1.6 0 .6.6.8 1.3.5Z" fill="#FFD243"/><path opacity=".8" d="M9 2.4c.7-.3 1.1-1 1-1.5 0-.6-.6-.8-1.2-.6-.7.3-1.2 1-1.1 1.6 0 .6.6.8 1.3.5Z" fill="#FFD242"/><path opacity=".8" d="M9 2.4c.7-.3 1.1-1 1-1.5 0-.6-.6-.8-1.2-.6-.7.3-1.2 1-1.1 1.6 0 .6.6.8 1.3.5Z" fill="#FFD241"/><path opacity=".8" d="M9 2.4c.7-.3 1.1-1 1-1.5 0-.6-.6-.8-1.2-.6-.7.3-1.2 1-1.1 1.6 0 .6.6.8 1.3.5Z" fill="#FFD140"/><path opacity=".8" d="M9 2.4c.7-.3 1.1-1 1-1.5 0-.6-.6-.9-1.2-.6-.7.3-1.2 1-1.1 1.6 0 .6.6.8 1.3.5Z" fill="#FFD140"/><path opacity=".8" d="M9 2.4c.7-.3 1.1-1 1-1.5 0-.6-.6-.8-1.2-.6-.7.3-1.2 1-1.1 1.6 0 .6.6.8 1.3.5Z" fill="#FFD13F"/><path opacity=".8" d="M9 2.4c.7-.3 1.1-1 1-1.5 0-.6-.6-.8-1.2-.6-.7.3-1.2 1-1.1 1.6 0 .6.6.8 1.3.5Z" fill="#FFD13E"/><path opacity=".8" d="M9 2.4c.6-.3 1.1-1 1-1.5 0-.6-.6-.8-1.2-.6-.7.3-1.2 1-1.1 1.6 0 .6.6.8 1.3.5Z" fill="#FFD13D"/><path opacity=".8" d="M9 2.4c.6-.3 1.1-1 1-1.5 0-.6-.6-.8-1.2-.6-.7.3-1.2 1-1.1 1.6 0 .6.6.8 1.3.5Z" fill="#FFD03C"/><path opacity=".8" d="M9 2.4c.6-.3 1.1-1 1-1.5 0-.6-.6-.8-1.2-.6-.7.3-1.2 1-1.1 1.6 0 .6.6.8 1.3.5Z" fill="#FFD03C"/><path opacity=".8" d="M9 2.4c.6-.3 1.1-1 1-1.5 0-.6-.6-.8-1.2-.6-.7.3-1.2 1-1.1 1.6 0 .6.6.8 1.3.5Z" fill="#FFD03B"/><path opacity=".8" d="M9 2.4c.6-.3 1.1-1 1-1.5 0-.6-.6-.8-1.2-.6-.7.3-1.2 1-1.1 1.6 0 .6.6.8 1.3.5Z" fill="#FFD03A"/><path opacity=".8" d="M9 2.4c.6-.3 1.1-1 1-1.5 0-.6-.6-.8-1.2-.6-.7.3-1.2 1-1.1 1.6 0 .6.6.8 1.3.5Z" fill="#FFD039"/><path opacity=".8" d="M9 2.4c.6-.3 1.1-1 1-1.5 0-.6-.6-.9-1.2-.6-.7.3-1.2 1-1.1 1.6 0 .6.6.8 1.3.5Z" fill="#FFCF38"/><path opacity=".8" d="M9 2.4c.6-.3 1.1-1 1-1.5 0-.6-.6-.8-1.2-.6-.7.3-1.2 1-1.1 1.6 0 .6.6.8 1.3.5Z" fill="#FFCF38"/><path opacity=".8" d="M9 2.4c.6-.3 1.1-1 1-1.5 0-.6-.6-.8-1.2-.6-.7.3-1.2 1-1.1 1.6 0 .6.6.8 1.3.5Z" fill="#FFCF37"/><path opacity=".8" d="M9 2.4c.6-.3 1.1-1 1-1.5 0-.6-.6-.8-1.2-.6-.7.3-1.2 1-1.1 1.6 0 .6.6.8 1.3.5Z" fill="#FFCF36"/><path opacity=".8" d="M9 2.4c.6-.3 1.1-1 1-1.5 0-.6-.6-.8-1.2-.6-.7.3-1.2 1-1.1 1.6 0 .6.6.8 1.3.5Z" fill="#FFCF35"/><path opacity=".8" d="M9 2.4c.6-.3 1.1-1 1-1.5 0-.6-.6-.8-1.2-.6-.7.3-1.2 1-1.1 1.6 0 .6.6.8 1.3.5Z" fill="#FFCE34"/><path opacity=".8" d="M9 2.4c.6-.3 1.1-1 1-1.5 0-.6-.6-.8-1.2-.6-.7.3-1.2 1-1.1 1.6 0 .6.6.8 1.3.5Z" fill="#FFCE34"/><path opacity=".8" d="M9 2.4c.6-.3 1.1-1 1-1.5 0-.6-.6-.8-1.2-.6-.7.3-1.2 1-1.1 1.6 0 .6.6.8 1.3.5Z" fill="#FFCE33"/><path opacity=".8" d="M9 2.4c.6-.3 1.1-1 1-1.5 0-.6-.6-.8-1.2-.6-.7.3-1.2 1-1.1 1.6 0 .6.6.8 1.3.5Z" fill="#FFCE32"/><path opacity=".9" d="M9 2.4c.6-.3 1.1-1 1-1.5 0-.6-.6-.8-1.2-.6-.7.3-1.2 1-1.1 1.6 0 .6.6.8 1.3.5Z" fill="#FFCE31"/><path opacity=".9" d="M9 2.4c.6-.3 1.1-1 1-1.5 0-.6-.6-.8-1.2-.6-.7.3-1.2 1-1.1 1.6 0 .6.6.8 1.3.5Z" fill="#FFCD30"/><path opacity=".9" d="M9 2.4c.6-.3 1.1-1 1-1.5 0-.6-.6-.8-1.2-.6-.7.3-1.2 1-1.1 1.6 0 .6.6.8 1.3.5Z" fill="#FFCD30"/><path opacity=".9" d="M9 2.4c.6-.3 1.1-1 1-1.5 0-.6-.6-.8-1.2-.6-.7.3-1.2 1-1.1 1.6 0 .6.6.8 1.3.5Z" fill="#FFCD2F"/><path opacity=".9" d="M9 2.4c.6-.3 1.1-1 1-1.6 0-.5-.6-.7-1.2-.5-.7.3-1.2 1-1.1 1.6 0 .6.6.8 1.3.5Z" fill="#FFCD2E"/><path opacity=".9" d="M9 2.4c.6-.3 1.1-1 1-1.6 0-.5-.6-.7-1.2-.5-.7.3-1.2 1-1.1 1.6 0 .6.6.8 1.3.5Z" fill="#FFCD2D"/><path opacity=".9" d="M9 2.4c.6-.3 1.1-1 1-1.5 0-.6-.6-.8-1.2-.6-.7.3-1.2 1-1.1 1.6 0 .6.6.8 1.3.5Z" fill="#FFCD2C"/><path opacity=".9" d="M9 2.4c.6-.3 1.1-1 1-1.6 0-.5-.6-.7-1.2-.5-.7.3-1.2 1-1.1 1.6 0 .6.6.8 1.3.5Z" fill="#FFCC2C"/><path opacity=".9" d="M9 2.4c.6-.3 1.1-1 1-1.6 0-.5-.6-.7-1.2-.5-.7.3-1.2 1-1.1 1.6 0 .6.6.8 1.3.5Z" fill="#FFCC2B"/><path opacity=".9" d="M9 2.4c.6-.3 1.1-1 1-1.6 0-.5-.6-.7-1.2-.5-.7.3-1.2 1-1.1 1.6 0 .6.6.8 1.3.5Z" fill="#FFCC2A"/><path opacity=".9" d="M9 2.4c.6-.3 1.1-1 1-1.6 0-.5-.6-.7-1.2-.5-.7.3-1.2 1-1.1 1.6 0 .6.6.8 1.3.5Z" fill="#FFCC29"/><path opacity=".9" d="M9 2.4c.6-.3 1.1-1 1-1.6 0-.5-.6-.7-1.2-.5-.7.3-1.2 1-1.1 1.6 0 .6.6.8 1.3.5Z" fill="#FFCC28"/><path opacity=".9" d="M9 2.4c.6-.3 1.1-1 1-1.6 0-.5-.6-.7-1.2-.5-.7.3-1.2 1-1.1 1.6 0 .6.6.8 1.3.5Z" fill="#FFCB28"/><path opacity=".9" d="M9 2.4c.6-.3 1.1-1 1-1.6 0-.5-.6-.7-1.2-.5-.7.3-1.2 1-1.1 1.6 0 .6.6.8 1.3.5Z" fill="#FFCB27"/><path opacity=".9" d="M9 2.4c.6-.3 1.1-1 1-1.6 0-.5-.6-.7-1.2-.5-.7.3-1.2 1-1.1 1.6 0 .6.6.8 1.3.5Z" fill="#FFCB26"/><path opacity=".9" d="M9 2.4c.6-.3 1.1-1 1-1.6 0-.5-.6-.7-1.2-.5-.7.3-1.2 1-1.1 1.6 0 .6.6.8 1.3.5Z" fill="#FFCB25"/><path opacity=".9" d="M9 2.4c.6-.3 1.1-1 1-1.6 0-.5-.6-.7-1.2-.5-.7.3-1.2 1-1.1 1.6 0 .6.6.8 1.3.5Z" fill="#FFCB24"/><path opacity=".9" d="M9 2.4c.6-.3 1.1-1 1-1.6 0-.5-.6-.7-1.2-.5-.7.3-1.2 1-1.1 1.6 0 .6.6.8 1.3.5Z" fill="#FFCA24"/><path opacity=".9" d="M9 2.4c.6-.3 1.1-1 1-1.6 0-.5-.6-.7-1.2-.5-.7.3-1.2 1-1.1 1.6 0 .6.6.8 1.3.5Z" fill="#FFCA23"/><path opacity=".9" d="M9 2.4c.6-.3 1.1-1 1-1.6 0-.5-.6-.7-1.2-.5-.7.3-1.2 1-1.1 1.6 0 .6.6.8 1.3.5Z" fill="#FFCA22"/><path opacity=".9" d="M9 2.4c.6-.3 1.1-1 1-1.6 0-.5-.6-.7-1.2-.5-.7.3-1.2 1-1.1 1.6 0 .6.6.8 1.3.5Z" fill="#FFCA21"/><path opacity=".9" d="M9 2.4c.6-.3 1.1-1 1-1.6 0-.5-.6-.7-1.2-.5-.7.3-1.2 1-1.1 1.6 0 .6.6.8 1.3.5Z" fill="#FFCA20"/><path opacity=".9" d="M9 2.4c.6-.3 1.1-1 1-1.6 0-.5-.6-.7-1.2-.5-.7.3-1.2 1-1.1 1.6 0 .6.6.8 1.3.5Z" fill="#FFC91F"/><path opacity=".9" d="M9 2.4c.6-.3 1.1-1 1-1.6 0-.5-.6-.7-1.2-.5-.7.3-1.2 1-1.1 1.6 0 .6.6.8 1.3.5Z" fill="#FFC91F"/><path opacity=".9" d="M9 2.4c.6-.3 1.1-1 1-1.6 0-.5-.6-.7-1.2-.5-.7.3-1.2 1-1.1 1.6 0 .6.6.8 1.3.5Z" fill="#FFC91E"/><path opacity=".9" d="M9 2.4c.6-.3 1.1-1 1-1.6 0-.5-.6-.7-1.2-.5-.7.3-1.2 1-1.1 1.6 0 .6.6.8 1.3.5Z" fill="#FFC91D"/><path opacity=".9" d="M9 2.4c.6-.3 1.1-1 1-1.6 0-.5-.6-.7-1.2-.5-.7.3-1.2 1-1.1 1.6 0 .6.6.8 1.3.5Z" fill="#FFC91C"/><path opacity=".9" d="M9 2.4c.6-.3 1.1-1 1-1.6 0-.5-.6-.7-1.2-.5-.7.3-1.2 1-1.1 1.6 0 .5.6.8 1.3.5Z" fill="#FFC81B"/><path opacity=".9" d="M9 2.4c.6-.3 1.1-1 1-1.6 0-.5-.6-.7-1.2-.5-.7.3-1.2 1-1.1 1.6 0 .5.6.8 1.3.5Z" fill="#FFC81B"/><path opacity=".9" d="M9 2.4c.6-.3 1.1-1 1-1.6 0-.5-.6-.7-1.2-.5-.7.3-1.2 1-1.1 1.6 0 .5.6.8 1.3.5Z" fill="#FFC81A"/><path d="M9 2.4c.6-.3 1.1-1 1-1.6 0-.5-.6-.7-1.2-.5-.7.3-1.2 1-1.1 1.6 0 .5.6.8 1.3.5Z" fill="#FFC819"/><path d="M9 2.4c.6-.3 1.1-1 1-1.6 0-.5-.6-.7-1.2-.5-.7.3-1.2 1-1.1 1.6 0 .5.6.8 1.3.5Z" fill="#FFC818"/><path d="M9 2.4c.6-.3 1.1-1 1-1.6 0-.5-.6-.7-1.2-.5-.7.3-1.2 1-1.1 1.6 0 .5.6.8 1.3.5Z" fill="#FFC817"/><path d="M9 2.4c.6-.3 1.1-1 1-1.6 0-.5-.6-.7-1.2-.5-.7.3-1.2 1-1.1 1.6 0 .5.6.8 1.3.5Z" fill="#FFC717"/><path d="M9 2.4c.6-.3 1.1-1 1-1.6 0-.5-.6-.7-1.2-.5-.7.3-1.2 1-1.1 1.6 0 .5.6.8 1.3.5Z" fill="#FFC716"/><path d="M9 2.4c.6-.3 1.1-1 1-1.6 0-.5-.6-.7-1.2-.5-.7.3-1.1 1-1.1 1.6 0 .5.6.8 1.3.5Z" fill="#FFC715"/><path d="M9 2.4c.6-.3 1.1-1 1-1.6 0-.5-.6-.7-1.2-.5-.7.3-1.1 1-1.1 1.6 0 .5.6.8 1.3.5Z" fill="#FFC714"/><path d="M9 2.4c.6-.3 1.1-1 1-1.6 0-.5-.6-.7-1.2-.5-.7.3-1.2 1-1.1 1.6 0 .5.6.8 1.3.5Z" fill="#FFC713"/><path d="M9 2.4c.6-.3 1.1-1 1-1.6 0-.5-.6-.7-1.2-.5-.7.3-1.2 1-1.1 1.6 0 .5.6.8 1.3.5Z" fill="#FFC613"/><path d="M9 2.4c.6-.3 1.1-1 1-1.6 0-.5-.6-.7-1.2-.5-.7.3-1.2 1-1.1 1.6 0 .5.6.8 1.3.5Z" fill="#FFC612"/><path d="M9 2.4c.6-.3 1.1-1 1-1.6 0-.5-.6-.7-1.2-.5-.7.3-1.1 1-1.1 1.6 0 .5.6.8 1.3.5Z" fill="#FFC611"/><path d="M9 2.4c.6-.3 1.1-1 1-1.6 0-.5-.6-.7-1.2-.5-.7.3-1.1 1-1 1.6 0 .5.5.8 1.2.5Z" fill="#FFC610"/><path d="M9 2.4c.6-.3 1.1-1 1-1.6 0-.5-.6-.7-1.2-.5-.7.3-1.1 1-1 1.6 0 .5.5.8 1.2.5Z" fill="#FFC60F"/><path d="M9 2.4c.6-.3 1.1-1 1-1.6 0-.5-.6-.7-1.2-.5-.7.3-1.1 1-1 1.6 0 .5.5.8 1.2.5Z" fill="#FFC50F"/><path d="M9 2.4c.6-.3 1.1-1 1-1.6 0-.5-.6-.7-1.2-.5-.7.3-1.1 1-1 1.6 0 .5.5.8 1.2.5Z" fill="#FFC50E"/><path d="M9 2.4c.6-.3 1.1-1 1-1.6 0-.5-.6-.7-1.2-.5-.7.3-1.1 1-1 1.6 0 .5.5.8 1.2.5Z" fill="#FFC50D"/><path d="M9 2.3c.6-.3 1-1 1-1.5 0-.6-.6-.8-1.2-.5-.6.3-1.1 1-1 1.5 0 .5.6.7 1.2.5Z" fill="#CE7E00"/><path d="M9 2.2c.6-.3 1-1 1-1.5 0-.6-.6-.8-1.3-.5-.6.3-1 1-1 1.5s.6.7 1.2.5Z" fill="url(#g)"/><path d="M9.4.5 8 1v.2L9.5.6V.5Z" fill="#F19A1B"/></g></g><path d="M7.3 8.6a.7.7 0 1 0-1.2-.8.7.7 0 0 0-1-.7.7.7 0 0 0-.1 1.2h-.3c-.4 0-.7.3-.7.7a.7.7 0 0 0 1.2.5L5 10a.7.7 0 0 0 1.4.3v-.3l.2.2a.7.7 0 1 0 .5-1.4l.2-.1Z" fill="#FFD1EA" stroke="#FF4C00" stroke-width=".4" stroke-linecap="round" stroke-linejoin="round"/><path d="M6.8 8.6a.1.1 0 0 0-.1-.1l-.5.1.3-.5c.1 0 .2-.1.1-.2h-.1s-.1 0 0 .1l-.4.5h-.2V8s0-.1-.1 0c0 0-.1 0 0 0v.5l-.3-.3V8h-.3v.2s0 .1.2 0l.3.4H5l-.3-.1v.2s0 .1.2 0h.6v.1l-.2.2h-.1s-.1 0 0 .1c0 0 0 .1.1 0l.3-.2-.3.6a.2.2 0 1 0 .1.1l.3-.6h.1l.1.6v.2H6a.1.1 0 0 0 0-.2v-.5l.5.3.1.1v-.1l-.5-.5.3.2s0 .1.1 0h.1c0-.1 0-.2-.1-.1l-.4-.1v-.2H6.8Z" fill="#DD003A"/></g><path d="M1 36h36v6a4 4 0 0 1-4 4H5a4 4 0 0 1-4-4v-6Z" fill="url(#h)"/><path d="M7.4 38.6a.8.8 0 0 0-.7.3l-.1.4-.1.6.1.7.3.4.5.1H8l.5-.3v1L8 42h-.6c-.5 0-.8 0-1.1-.2l-.7-.8a3 3 0 0 1-.2-1.1l.1-1 .4-.6.7-.5.9-.1a3.1 3.1 0 0 1 1.3.3l-.3.9-.5-.2-.5-.1ZM13 42H12v-1.7h-1.4V42H9.4v-4.3h1.1v1.6H12v-1.6H13V42Zm5-2.1-.1.9-.4.7-.7.4-1 .2c-.3 0-.6 0-.8-.2a1.7 1.7 0 0 1-1-1.1c-.2-.3-.2-.6-.2-1s0-.8.2-1.1l.7-.8c.3-.2.7-.3 1.2-.3l1 .2.6.4a1.6 1.6 0 0 0 .2-.8h1l.1.1c0 .4-.2.7-.3.9l-.6.5v1Zm-3 0 .1.6c0 .2.2.3.3.4l.5.2c.2 0 .4 0 .5-.2l.3-.4V40l-.1-1c-.2-.2-.4-.3-.7-.3-.2 0-.4 0-.5.2l-.3.4v.7Zm4 2.1v-4.3h1.2V42H19Zm5.6 0h-1.2v-3.3h-1v-1h3.2v1h-1V42Zm4.2 0h-2.6v-4.3h2.6v1h-1.4v.6h1.3v1h-1.3v.8h1.4v.9Zm-.1-4.6h-.6a6 6 0 0 1-.6-.5 5.6 5.6 0 0 1-.6.5h-.6v-.1a5 5 0 0 0 .4-.6l.2-.3h1.2a51 51 0 0 0 .6.9Zm-.3-.7a2.1 2.1 0 0 0 .4-.6h.9v.1l-.3.3-.4.3h-.6Zm3 5.3h-1.1v-3.3h-1v-1h3.2v1h-1V42Z" fill="#fff"/><defs><linearGradient id="b" x1="19" y1="1" x2="19" y2="36" gradientUnits="userSpaceOnUse"><stop offset="0" stop-color="#FF5400"/><stop offset=".5" stop-color="#FF5200"/><stop offset=".7" stop-color="#FD4B00"/><stop offset=".8" stop-color="#FA4000"/><stop offset=".9" stop-color="#F62F00"/><stop offset="1" stop-color="#F11900"/><stop offset="1" stop-color="#F01500"/></linearGradient><linearGradient id="f" x1="7.4" y1="1.5" x2="10.6" y2="1.5" gradientUnits="userSpaceOnUse"><stop offset="0" stop-color="#FFC600"/><stop offset="1" stop-color="#FF9A1B"/></linearGradient><linearGradient id="g" x1="8.6" y1=".2" x2="9.1" y2="2.1" gradientUnits="userSpaceOnUse"><stop offset="0" stop-color="#FFC600"/><stop offset="1" stop-color="#FF9A1B"/></linearGradient><linearGradient id="h" x1="19" y1="37" x2="19" y2="46" gradientUnits="userSpaceOnUse"><stop offset="0" stop-color="#F11901"/><stop offset=".8" stop-color="#FA4000"/><stop offset=".9" stop-color="#F62F00"/><stop offset="1" stop-color="#F11900"/><stop offset="1" stop-color="#F01500"/></linearGradient><clipPath id="a"><path d="M1 5a4 4 0 0 1 4-4h28a4 4 0 0 1 4 4v31H1V5Z" fill="#fff"/></clipPath><clipPath id="c"><path fill="#fff" transform="translate(7 9.9)" d="M0 0h23.9v23.9H0z"/></clipPath><radialGradient id="d" cx="0" cy="0" r="1" gradientUnits="userSpaceOnUse" gradientTransform="rotate(159.9 4 2) scale(2.55756 2.37766)"><stop offset=".6" stop-color="#A55214"/><stop offset=".6" stop-color="#A95B20"/><stop offset=".7" stop-color="#C38C63"/><stop offset=".8" stop-color="#D8B59A"/><stop offset=".8" stop-color="#E9D5C6"/><stop offset=".9" stop-color="#F5ECE5"/><stop offset="1" stop-color="#FCFAF8"/><stop offset="1" stop-color="#fff"/></radialGradient></defs></svg>