<svg width="98" height="24" fill="none" xmlns="http://www.w3.org/2000/svg"><g clip-path="url(#a)"><path d="M85.5 0H12a12 12 0 0 0 0 24h73.5a12 12 0 0 0 0-24Z" fill="url(#b)"/><path d="M7.8 5.6a6 6 0 0 0-1 7.6l3.7 5.9.4.6a.9.9 0 0 0 1.5 0l2.3-3.2.1-.2a3 3 0 0 0 .2-3.4l-1-1.6c-.6.3-1.1.9-1.4 1.5l.6 1a1.5 1.5 0 0 1 0 1.6l-.1.1-.2.3-.8 1a.4.4 0 0 1-.7 0l-3-4.7a4.2 4.2 0 0 1 3.9-6.4 4.2 4.2 0 0 1 3.7 5.4l-.1.2a1 1 0 0 0 0 .8 1 1 0 0 0 1.6.1l.2-.3A6 6 0 0 0 12 4H12a6 6 0 0 0-4 1.7" fill="#F15A2C"/><path d="M11.9 7.7c0 .6-.3 1.3-.8 1.8s-1.2.8-1.9.8v.2c.7 0 1.4.3 1.8.8h.1c.5.5.8 1.2.8 1.8h.1a2.7 2.7 0 0 1 .8-1.8h.1l.6-.5 1.2-.3v-.2c-.7 0-1.3-.3-1.8-.7l-.1-.1c-.5-.5-.8-1.2-.8-1.8H12ZM29.6 8.7c.8.6 1.2 1.3 1.4 2.2h-1.9c-.1-.4-.4-.7-.8-1-.4-.2-.9-.3-1.3-.3-.5 0-1 0-1.4.3l-1 1c-.2.5-.3 1-.3 1.6 0 1 .3 1.7.8 2.2a2.7 2.7 0 0 0 2 .8 2.5 2.5 0 0 0 2.6-2.2h-3V12h4.5v1.8a4.2 4.2 0 0 1-2.2 2.8c-.6.3-1.3.4-2 .4a4 4 0 0 1-3.9-2.2 5 5 0 0 1-.6-2.3c0-.8.2-1.6.6-2.4a4 4 0 0 1 1.5-1.6c.7-.4 1.5-.6 2.3-.6 1 0 2 .3 2.7.8ZM37.6 10.3c.5.3 1 .7 1.3 1.2.3.6.4 1.3.4 2 0 .6-.1 1.3-.4 1.9-.3.5-.8 1-1.3 1.2a4 4 0 0 1-3.7 0c-.5-.3-1-.7-1.3-1.2-.3-.6-.5-1.3-.5-2 0-.6.2-1.3.5-1.9.3-.5.8-1 1.3-1.2a4.1 4.1 0 0 1 3.7 0Zm-3.1 1.6c-.4.4-.5.9-.5 1.6 0 .6.1 1.1.5 1.5a1.8 1.8 0 0 0 2.5 0c.4-.4.5-.9.5-1.5 0-.7-.1-1.2-.5-1.6a1.8 1.8 0 0 0-2.5 0ZM44.5 10.6c0-.3 0-.7-.3-1a1 1 0 0 0-.9-.3c-.8 0-1.2.6-1.3 1.7h-1.7c0-1 .4-1.8 1-2.4.6-.5 1.4-.8 2.2-.8.9 0 1.6.3 2 .7a2.5 2.5 0 0 1 .8 2c0 .6-.2 1.3-.5 1.8-.4.7-.9 1.3-1.4 1.8-.6.5-1.2 1-1.8 1.3h4V17h-6.4v-1.3c2.9-2 4.3-3.7 4.3-5ZM54.5 8.8A4 4 0 0 1 56 11H54a2.4 2.4 0 0 0-2.4-1.5 2.3 2.3 0 0 0-2.1 1.3c-.2.5-.4 1-.3 1.6 0 .5 0 1 .3 1.5a2.3 2.3 0 0 0 2.1 1.4c.5 0 1-.1 1.5-.4.4-.3.7-.7.9-1.2H56a4 4 0 0 1-1.5 2.4 4.8 4.8 0 0 1-5 .3 4 4 0 0 1-1.5-1.7 5 5 0 0 1-.6-2.3c0-.8.2-1.6.6-2.4a4 4 0 0 1 1.5-1.6 4.8 4.8 0 0 1 5 .3ZM63.4 10.6c.5.6.7 1.3.7 2.3v4h-1.7v-3.8c0-.5-.2-1-.5-1.3a1.5 1.5 0 0 0-1.1-.5 1.6 1.6 0 0 0-1.3.5 2 2 0 0 0-.4 1.4V17h-1.8V7.6h1.8v3.7c.2-.4.5-.8.9-1 .4-.3 1-.5 1.5-.5a2.5 2.5 0 0 1 2 .8ZM70.8 10.3c.5.3 1 .7 1.2 1.2.4.6.5 1.3.5 2 0 .6-.1 1.3-.5 1.9-.3.5-.7 1-1.2 1.2a4 4 0 0 1-3.7 0c-.5-.3-1-.7-1.3-1.2-.3-.6-.5-1.3-.5-2 0-.6.2-1.3.5-1.9.3-.5.8-1 1.3-1.2a4.1 4.1 0 0 1 3.7 0Zm-3.1 1.6c-.4.4-.5.9-.6 1.6 0 .6.2 1.1.6 1.5a1.8 1.8 0 0 0 2.5 0c.3-.4.5-.9.5-1.5 0-.7-.2-1.2-.5-1.6a1.8 1.8 0 0 0-2.5 0ZM73.9 7.2a1.3 1.3 0 0 1 1.6 0 .9.9 0 0 1 .3.7.9.9 0 0 1-.3.7 1.3 1.3 0 0 1-1.6 0 .9.9 0 0 1-.3-.7.9.9 0 0 1 .3-.7Zm1.7 2.7v7h-1.8v-7h1.8ZM82.6 10.6c.6.5 1 1.2 1 2h-1.8a1.4 1.4 0 0 0-1.5-1.2 1.5 1.5 0 0 0-1.2.5c-.3.4-.5.9-.5 1.5 0 .7.2 1.2.5 1.6a1.5 1.5 0 0 0 1.2.5c.3 0 .7 0 1-.3.3-.2.5-.6.5-.9h1.9a3.2 3.2 0 0 1-3.4 2.7c-.6 0-1.2 0-1.8-.4a3 3 0 0 1-1.2-1.2 4 4 0 0 1-.5-2c0-.6.2-1.3.5-1.9.2-.5.7-1 1.2-1.2.6-.3 1.2-.4 1.8-.4.8 0 1.6.2 2.3.7ZM91.5 13.8h-5.2c0 .6.2 1 .5 1.4.4.3.8.4 1.2.4.4 0 .7 0 1-.3.3-.2.5-.5.6-.8h1.8a3 3 0 0 1-1.7 2.2 4 4 0 0 1-3.4 0 3 3 0 0 1-1.3-1.3 4 4 0 0 1-.4-2c0-.6.1-1.3.4-1.9.3-.5.8-1 1.3-1.2.5-.3 1.2-.5 1.8-.4.6 0 1.3 0 1.8.4.5.3 1 .7 1.2 1.2a3.4 3.4 0 0 1 .4 2.3Zm-2.2-2.1c-.3-.3-.8-.5-1.2-.4-.4 0-.9.1-1.2.4a1.8 1.8 0 0 0-.6 1.3h3.4a1.6 1.6 0 0 0-.4-1.3Z" fill="#F15A2C"/><path d="M7.6 5.6a6 6 0 0 0-1 7.6l3.7 5.9.4.6a.9.9 0 0 0 1.5 0l2.3-3.2.1-.2a3 3 0 0 0 .2-3.4l-1-1.6c-.6.3-1.1.9-1.4 1.5l.6 1a1.5 1.5 0 0 1 0 1.6l-.1.1-.2.3-.8 1a.4.4 0 0 1-.7 0l-3-4.7a4.2 4.2 0 0 1 3.9-6.4 4.2 4.2 0 0 1 3.7 5.4v.2a1 1 0 0 0 .3 1.1 1 1 0 0 0 1.2-.2l.2-.3A6 6 0 0 0 12 4h-.2a6 6 0 0 0-4.2 1.7" fill="#fff"/><path d="M11.7 7.7c0 .6-.3 1.3-.8 1.8-.6.5-1.2.8-1.9.8v.2c.7 0 1.3.3 1.8.8h.1c.5.5.8 1.2.8 1.8h.1c0-.6.3-1.3.8-1.8h.1l.6-.5 1.2-.3v-.2c-.7 0-1.3-.3-1.8-.7v-.1c-.6-.5-.8-1.2-.9-1.8h-.1ZM29.2 8.7c.7.6 1.2 1.3 1.4 2.2h-1.9l-.8-1c-.4-.2-1-.3-1.4-.3-.5 0-1 0-1.3.3-.4.3-.8.6-1 1-.2.5-.3 1-.3 1.6 0 1 .3 1.7.8 2.2a2.7 2.7 0 0 0 2 .8 2.5 2.5 0 0 0 2.5-2.2h-3V12h4.5v1.8a4 4 0 0 1-2.2 2.8c-.6.3-1.3.4-2 .4-.8 0-1.6-.1-2.3-.5a4 4 0 0 1-1.5-1.7 5 5 0 0 1-.6-2.3c0-.8.2-1.6.6-2.4a4 4 0 0 1 1.5-1.6c.7-.4 1.5-.6 2.3-.6 1 0 2 .3 2.7.8ZM37.1 10.3c.6.3 1 .7 1.3 1.2.3.6.5 1.3.5 2 0 .6-.2 1.3-.5 1.9-.3.5-.7 1-1.3 1.2a4 4 0 0 1-3.6 0c-.6-.3-1-.7-1.3-1.2-.3-.6-.5-1.3-.5-2 0-.6.2-1.3.5-1.9.3-.5.7-1 1.3-1.2a4.1 4.1 0 0 1 3.6 0Zm-3 1.6c-.4.4-.6.9-.6 1.6 0 .6.2 1.1.5 1.5a1.8 1.8 0 0 0 2.6 0c.3-.4.5-.9.5-1.5 0-.7-.2-1.2-.5-1.6a1.8 1.8 0 0 0-2.6 0ZM44 10.6c.1-.3 0-.7-.2-1a1 1 0 0 0-.9-.3c-.8 0-1.3.6-1.3 1.7h-1.7c0-1 .3-1.8 1-2.4.5-.5 1.3-.8 2.1-.8 1 0 1.7.3 2.2.7a2.5 2.5 0 0 1 .7 2c0 .6-.2 1.3-.6 1.8-.3.7-.8 1.3-1.3 1.8-.6.5-1.2 1-1.8 1.3H46V17h-6.3v-1.3c2.9-2 4.3-3.7 4.3-5ZM54 8.8a4 4 0 0 1 1.5 2.3h-1.8a2.4 2.4 0 0 0-2.4-1.5 2.3 2.3 0 0 0-2.2 1.3c-.2.5-.3 1-.3 1.6l.3 1.5a2.3 2.3 0 0 0 2.2 1.4c.5 0 1-.1 1.5-.4.4-.3.7-.7.9-1.2h1.8a4 4 0 0 1-1.4 2.4 4.8 4.8 0 0 1-5 .3c-.7-.4-1.2-1-1.5-1.7a5 5 0 0 1-.6-2.3c0-.8.2-1.6.6-2.4A4 4 0 0 1 49 8.5a4.8 4.8 0 0 1 5 .3ZM63 10.6c.4.6.7 1.3.7 2.3v4h-1.8v-3.8c0-.5-.1-1-.4-1.3a1.5 1.5 0 0 0-1.2-.5 1.6 1.6 0 0 0-1.2.5 2 2 0 0 0-.5 1.4V17H57V7.6h1.7v3.7c.2-.4.5-.8 1-1 .4-.3 1-.5 1.4-.5a2.5 2.5 0 0 1 2 .8ZM70.3 10.3c.6.3 1 .7 1.3 1.2.3.6.5 1.3.5 2 0 .6-.2 1.3-.5 1.9-.3.5-.7 1-1.3 1.2a4 4 0 0 1-3.6 0c-.6-.3-1-.7-1.3-1.2-.3-.6-.5-1.3-.5-2 0-.6.2-1.3.5-1.9.3-.5.7-1 1.3-1.2a4.1 4.1 0 0 1 3.6 0Zm-3 1.6c-.4.4-.6.9-.6 1.6 0 .6.2 1.1.5 1.5a1.8 1.8 0 0 0 2.6 0c.3-.4.5-.9.5-1.5 0-.7-.2-1.2-.5-1.6a1.8 1.8 0 0 0-2.6 0ZM73.4 7.2a1.3 1.3 0 0 1 1.6 0 .9.9 0 0 1 .3.7.9.9 0 0 1-.3.7 1.3 1.3 0 0 1-1.6 0 .9.9 0 0 1-.3-.7.9.9 0 0 1 .3-.7Zm1.7 2.7v7h-1.8v-7h1.8ZM82.1 10.6c.6.5 1 1.2 1.2 2h-2c0-.4-.2-.7-.4-.9-.3-.2-.7-.3-1-.3a1.5 1.5 0 0 0-1.3.5c-.3.4-.4.9-.4 1.5 0 .7.1 1.2.4 1.6a1.5 1.5 0 0 0 1.2.5c.4 0 .8 0 1-.3.3-.2.5-.5.6-.9h1.9a3.2 3.2 0 0 1-3.4 2.7c-.7 0-1.3 0-1.8-.4a3 3 0 0 1-1.3-1.2 4 4 0 0 1-.4-2c0-.6.1-1.3.4-1.9.3-.5.7-1 1.3-1.2.5-.3 1.1-.4 1.8-.4.8 0 1.6.2 2.2.7ZM91 13.8h-5c0 .6.1 1 .4 1.4.3.3.7.4 1.2.4.3 0 .7 0 1-.3.3-.2.5-.5.5-.8h2a3 3 0 0 1-1.9 2.2 4 4 0 0 1-3.4 0 3 3 0 0 1-1.2-1.3 4 4 0 0 1-.4-2c0-.6.1-1.3.4-1.9.3-.5.7-1 1.2-1.2.6-.3 1.2-.5 1.9-.4.6 0 1.2 0 1.8.4.5.3.9.7 1.2 1.2a3.5 3.5 0 0 1 .3 2.3ZM89 11.7c-.4-.3-.8-.5-1.2-.4-.5 0-1 .1-1.2.4a1.8 1.8 0 0 0-.6 1.3h3.4a1.6 1.6 0 0 0-.4-1.3Z" fill="#fff"/></g><defs><linearGradient id="b" x1="67.4" y1="-15.1" x2="29.9" y2="39" gradientUnits="userSpaceOnUse"><stop stop-color="#FAAF43"/><stop offset="1" stop-color="#F15C2C"/></linearGradient><clipPath id="a"><path fill="#fff" d="M0 0h97.5v24H0z"/></clipPath></defs></svg>