<svg width="26" height="24" viewBox="0 0 26 24" fill="none" xmlns="http://www.w3.org/2000/svg">
<path fill-rule="evenodd" clip-rule="evenodd" d="M24.9871 15.0653C24.9273 13.6695 24.6882 12.122 24.3295 10.6656C23.9707 9.26985 23.5223 7.96512 22.9843 6.96382C20.8918 3.23169 18.6199 3.8082 15.8996 4.53642L15.666 4.59391C14.867 4.79096 14.0206 4.99968 13.1495 5.08258H12.8505C11.9794 4.99968 11.133 4.79096 10.334 4.59391L10.1004 4.53642L10.0553 4.52486C7.355 3.83197 5.09668 3.25249 3.01573 6.99416C2.47766 7.99546 1.99937 9.30019 1.67055 10.6959C1.31183 12.1524 1.07269 13.6998 1.0129 15.0956C0.953114 16.6431 1.10258 17.7657 1.4314 18.5546C1.76023 19.2829 2.23851 19.738 2.86627 19.9201C3.43423 20.0718 4.09188 20.0111 4.77942 19.7077C5.94525 19.2222 7.29043 18.1905 8.60573 16.9465C9.53241 16.0362 11.2662 15.5811 13 15.5811C14.7338 15.5811 16.4676 16.0362 17.3943 16.9465C18.7096 18.1905 20.0548 19.2222 21.2206 19.7077C21.9081 19.9807 22.5658 20.0718 23.1337 19.9201C23.7316 19.738 24.2398 19.3132 24.5686 18.5243C24.8974 17.7657 25.0469 16.6431 24.9871 15.0653ZM23.5522 18.0995C23.3729 18.5243 23.1337 18.767 22.8348 18.8581C22.506 18.9491 22.0875 18.8884 21.6092 18.7064C20.5629 18.2816 19.3373 17.3409 18.1416 16.1879C17.0057 15.0349 15.0028 14.4584 13 14.4584C10.9972 14.4584 8.99434 15.0349 7.82851 16.1272C6.60289 17.2803 5.37728 18.2512 4.36092 18.6457C3.88263 18.8277 3.46413 18.9188 3.1353 18.7974C2.83637 18.7064 2.59723 18.4636 2.41787 18.0388C2.17873 17.4623 2.05916 16.5217 2.11894 15.1259C2.17873 13.8212 2.38798 12.3344 2.74669 10.9387C3.07552 9.63396 3.49402 8.42026 4.0022 7.50998C5.64632 4.50608 7.55947 4.99156 9.83134 5.59841C10.758 5.84115 11.7146 6.08389 12.7609 6.17491H12.8206H13.1495H13.2093C14.2854 6.08389 15.242 5.84115 16.1687 5.59841L16.2281 5.58333C18.4739 5.01316 20.368 4.53229 21.9978 7.50998C22.506 8.42026 22.9245 9.60361 23.2533 10.9387C23.5821 12.3344 23.8213 13.7909 23.8811 15.1259C23.9408 16.5217 23.8213 17.4623 23.5522 18.0995ZM10.4664 9.20721C10.1525 8.92342 9.77578 8.7027 9.33632 8.67117C9.30493 8.26126 9.11659 7.85135 8.83408 7.56757L8.80269 7.53604C8.4574 7.18919 8.01794 7 7.5157 7C7.01345 7 6.5426 7.22072 6.2287 7.53604C5.94619 7.81982 5.72646 8.22973 5.69507 8.67117C5.25561 8.7027 4.87892 8.89189 4.56502 9.17568L4.53363 9.20721C4.18834 9.55405 4 9.9955 4 10.5C4 11.0045 4.21973 11.4775 4.53363 11.7928C4.84753 12.1081 5.22422 12.2973 5.69507 12.3288C5.72646 12.7703 5.9148 13.1802 6.2287 13.464C6.57399 13.8108 7.01345 14 7.5157 14C8.01794 14 8.48879 13.7793 8.80269 13.464C9.0852 13.1486 9.30493 12.7703 9.33632 12.3288C9.77578 12.2973 10.1839 12.1081 10.4664 11.7928C10.8117 11.4459 11 11.0045 11 10.5C11 9.9955 10.7803 9.52252 10.4664 9.20721ZM9.68161 10.973C9.55605 11.0991 9.3991 11.1622 9.21076 11.1622H8.7713C8.4574 11.1622 8.17489 11.4144 8.17489 11.7613V12.1712C8.17489 12.3604 8.11211 12.518 7.98655 12.6441C7.86099 12.7703 7.70404 12.8333 7.5157 12.8333C7.32735 12.8333 7.1704 12.7703 7.04484 12.6441C6.91928 12.518 6.8565 12.3604 6.8565 12.1712V11.7297C6.8565 11.4144 6.60538 11.1306 6.26009 11.1306H5.82063C5.63229 11.1306 5.47534 11.0676 5.34978 10.9414C5.25561 10.8468 5.16144 10.6892 5.16144 10.5C5.16144 10.3108 5.22422 10.1532 5.34978 10.027L5.38117 9.9955C5.50673 9.9009 5.66368 9.83784 5.82063 9.83784H6.26009C6.57399 9.83784 6.8565 9.58559 6.8565 9.23874V8.7973C6.8565 8.60811 6.91928 8.45045 7.04484 8.32432C7.1704 8.1982 7.32735 8.13514 7.5157 8.13514C7.70404 8.13514 7.86099 8.1982 7.98655 8.32432L8.01794 8.35586C8.11211 8.48198 8.17489 8.63964 8.17489 8.7973V9.23874C8.17489 9.55405 8.42601 9.83784 8.7713 9.83784H9.21076C9.3991 9.83784 9.55605 9.9009 9.68161 10.027C9.80717 10.1532 9.86996 10.3108 9.86996 10.5C9.86996 10.6892 9.80717 10.8468 9.68161 10.973Z" fill="#696969"/>
<path d="M24.3295 10.6656L24.6693 10.5819L24.6684 10.5785L24.3295 10.6656ZM24.9871 15.0653L25.3369 15.052L25.3368 15.0503L24.9871 15.0653ZM22.9843 6.96382L23.2926 6.79812L23.2896 6.79265L22.9843 6.96382ZM15.8996 4.53642L15.9833 4.87635L15.9901 4.87451L15.8996 4.53642ZM15.666 4.59391L15.5824 4.25405L15.5822 4.25409L15.666 4.59391ZM13.1495 5.08258V5.43258H13.1661L13.1826 5.43101L13.1495 5.08258ZM12.8505 5.08258L12.8174 5.43101L12.8339 5.43258H12.8505V5.08258ZM10.334 4.59391L10.4178 4.25409L10.4176 4.25405L10.334 4.59391ZM10.1004 4.53642L10.0134 4.87545L10.0167 4.87628L10.1004 4.53642ZM10.0553 4.52486L9.96832 4.86387L9.96832 4.86387L10.0553 4.52486ZM3.01573 6.99416L2.70982 6.82403L2.70743 6.82849L3.01573 6.99416ZM1.67055 10.6959L2.01041 10.7796L2.01122 10.7762L1.67055 10.6959ZM1.0129 15.0956L0.663217 15.0806L0.663161 15.0821L1.0129 15.0956ZM1.4314 18.5546L1.1082 18.6894L1.11241 18.6987L1.4314 18.5546ZM2.86627 19.9201L2.76876 20.2563L2.77594 20.2582L2.86627 19.9201ZM4.77942 19.7077L4.64484 19.3845L4.63811 19.3875L4.77942 19.7077ZM8.60573 16.9465L8.84627 17.2008L8.85099 17.1962L8.60573 16.9465ZM17.3943 16.9465L17.149 17.1962L17.1538 17.2008L17.3943 16.9465ZM21.2206 19.7077L21.086 20.0308L21.0914 20.0329L21.2206 19.7077ZM23.1337 19.9201L23.2241 20.2584L23.2357 20.2549L23.1337 19.9201ZM24.5686 18.5243L24.2474 18.3851L24.2455 18.3896L24.5686 18.5243ZM22.8348 18.8581L22.9282 19.1955L22.9368 19.1929L22.8348 18.8581ZM23.5522 18.0995L23.2298 17.9634V17.9634L23.5522 18.0995ZM21.6092 18.7064L21.4775 19.0307L21.4847 19.0335L21.6092 18.7064ZM18.1416 16.1879L17.8922 16.4336L17.8987 16.4399L18.1416 16.1879ZM7.82851 16.1272L7.5892 15.8718L7.58869 15.8723L7.82851 16.1272ZM4.36092 18.6457L4.48543 18.9728L4.48755 18.972L4.36092 18.6457ZM3.1353 18.7974L3.2565 18.469L3.24697 18.4655L3.23726 18.4626L3.1353 18.7974ZM2.41787 18.0388L2.09458 18.1729L2.09543 18.175L2.41787 18.0388ZM2.11894 15.1259L1.76931 15.1099L1.76926 15.111L2.11894 15.1259ZM2.74669 10.9387L3.08568 11.0258L3.08608 11.0242L2.74669 10.9387ZM4.0022 7.50998L4.30781 7.6806L4.30922 7.67802L4.0022 7.50998ZM9.83134 5.59841L9.74102 5.93655L9.74265 5.93698L9.83134 5.59841ZM12.7609 6.17491L12.7305 6.5236L12.7457 6.52491H12.7609V6.17491ZM13.2093 6.17491V6.52491H13.224L13.2388 6.52367L13.2093 6.17491ZM16.1687 5.59841L16.0825 5.25915L16.08 5.25983L16.1687 5.59841ZM16.2281 5.58333L16.3142 5.92257L16.3142 5.92257L16.2281 5.58333ZM21.9978 7.50998L21.6908 7.67803L21.6922 7.68059L21.9978 7.50998ZM23.2533 10.9387L23.594 10.8584L23.5931 10.855L23.2533 10.9387ZM23.8811 15.1259L24.2307 15.111L24.2307 15.1103L23.8811 15.1259ZM9.33632 8.67117L8.98734 8.6979L9.01038 8.99868L9.31127 9.02027L9.33632 8.67117ZM10.4664 9.20721L10.7144 8.96028L10.7079 8.95375L10.7011 8.94758L10.4664 9.20721ZM8.83408 7.56757L8.58604 7.8145L8.58604 7.8145L8.83408 7.56757ZM8.80269 7.53604L8.55465 7.78297L8.80269 7.53604ZM6.2287 7.53604L6.47674 7.78297L6.47674 7.78297L6.2287 7.53604ZM5.69507 8.67117L5.72012 9.02027L6.02267 8.99857L6.04419 8.696L5.69507 8.67117ZM4.56502 9.17568L4.3303 8.91605L4.32347 8.92222L4.31698 8.92875L4.56502 9.17568ZM4.53363 9.20721L4.78168 9.45414L4.78168 9.45414L4.53363 9.20721ZM4.53363 11.7928L4.78168 11.5459H4.78168L4.53363 11.7928ZM5.69507 12.3288L6.04419 12.304L6.02257 12L5.71845 11.9796L5.69507 12.3288ZM6.2287 13.464L6.47674 13.217L6.47025 13.2105L6.46342 13.2043L6.2287 13.464ZM8.80269 13.464L9.05073 13.7109L9.05723 13.7044L9.06337 13.6975L8.80269 13.464ZM9.33632 12.3288L9.31127 11.9797L9.00872 12.0014L8.9872 12.304L9.33632 12.3288ZM10.4664 11.7928L10.2183 11.5459L10.2118 11.5524L10.2057 11.5592L10.4664 11.7928ZM9.68161 10.973L9.43357 10.726L9.43357 10.726L9.68161 10.973ZM7.98655 12.6441L7.7385 12.3972L7.7385 12.3972L7.98655 12.6441ZM7.04484 12.6441L7.29289 12.3972L7.29289 12.3972L7.04484 12.6441ZM5.34978 10.9414L5.59782 10.6945H5.59782L5.34978 10.9414ZM5.34978 10.027L5.10173 9.7801L5.10173 9.7801L5.34978 10.027ZM5.38117 9.9955L5.17056 9.71595L5.15068 9.73093L5.13312 9.74856L5.38117 9.9955ZM7.04484 8.32432L7.29289 8.57126L7.29289 8.57125L7.04484 8.32432ZM7.98655 8.32432L7.7385 8.57125L7.7385 8.57126L7.98655 8.32432ZM8.01794 8.35586L8.29839 8.14646L8.28352 8.12654L8.26598 8.10892L8.01794 8.35586ZM23.9896 10.7493C24.3437 12.1868 24.5788 13.7111 24.6374 15.0802L25.3368 15.0503C25.2759 13.628 25.0327 12.0573 24.6693 10.5819L23.9896 10.7493ZM22.676 7.12949C23.1951 8.09558 23.6351 9.36989 23.9905 10.7527L24.6684 10.5785C24.3064 9.1698 23.8496 7.83466 23.2926 6.79814L22.676 7.12949ZM15.9901 4.87451C17.3696 4.50524 18.5345 4.2082 19.6094 4.42084C20.6465 4.62599 21.6643 5.3253 22.679 7.13499L23.2896 6.79265C22.2117 4.87021 21.0473 3.99171 19.7453 3.73414C18.4811 3.48406 17.15 3.83938 15.8091 4.19832L15.9901 4.87451ZM15.7496 4.93377L15.9833 4.87628L15.816 4.19656L15.5824 4.25405L15.7496 4.93377ZM13.1826 5.43101C14.0836 5.34528 14.9546 5.12984 15.7498 4.93373L15.5822 4.25409C14.7794 4.45208 13.9577 4.65409 13.1163 4.73416L13.1826 5.43101ZM12.8505 5.43258H13.1495V4.73258H12.8505V5.43258ZM10.2502 4.93373C11.0454 5.12984 11.9164 5.34528 12.8174 5.43101L12.8837 4.73416C12.0423 4.65409 11.2206 4.45208 10.4178 4.25409L10.2502 4.93373ZM10.0167 4.87628L10.2504 4.93377L10.4176 4.25405L10.184 4.19656L10.0167 4.87628ZM9.96832 4.86387L10.0134 4.87544L10.1874 4.1974L10.1423 4.18584L9.96832 4.86387ZM3.32161 7.16427C4.33085 5.3496 5.34297 4.64889 6.37297 4.43954C7.44119 4.22242 8.5972 4.51205 9.96832 4.86387L10.1423 4.18584C8.81311 3.84477 7.48981 3.49822 6.23355 3.75356C4.93908 4.01667 3.78156 4.89705 2.70985 6.82405L3.32161 7.16427ZM2.01122 10.7762C2.3345 9.40399 2.80318 8.1291 3.32404 7.15984L2.70743 6.82849C2.15214 7.86183 1.66424 9.19639 1.32987 10.6157L2.01122 10.7762ZM1.36258 15.1106C1.42123 13.7414 1.65635 12.2171 2.01039 10.7796L1.3307 10.6122C0.967313 12.0877 0.724144 13.6583 0.66322 15.0806L1.36258 15.1106ZM1.75446 18.42C1.45399 17.6991 1.30368 16.6353 1.36264 15.1091L0.663161 15.0821C0.602551 16.6509 0.751165 17.8324 1.10834 18.6893L1.75446 18.42ZM2.96375 19.5839C2.45602 19.4367 2.0473 19.0681 1.75039 18.4106L1.11241 18.6987C1.47315 19.4976 2.02101 20.0393 2.76878 20.2562L2.96375 19.5839ZM4.63811 19.3875C4.01005 19.6646 3.43447 19.7096 2.95659 19.5819L2.77594 20.2582C3.434 20.434 4.17371 20.3575 4.92073 20.0279L4.63811 19.3875ZM8.36522 16.6922C7.05822 17.9284 5.75051 18.9241 4.64487 19.3846L4.91397 20.0308C6.13999 19.5202 7.52265 18.4527 8.84623 17.2008L8.36522 16.6922ZM13 15.2311C11.2306 15.2311 9.38396 15.6914 8.36046 16.6968L8.85099 17.1962C9.68086 16.381 11.3018 15.9311 13 15.9311V15.2311ZM17.6395 16.6968C16.616 15.6914 14.7694 15.2311 13 15.2311V15.9311C14.6982 15.9311 16.3191 16.381 17.149 17.1962L17.6395 16.6968ZM21.3551 19.3846C20.2495 18.9241 18.9418 17.9284 17.6348 16.6922L17.1538 17.2008C18.4774 18.4527 19.86 19.5202 21.086 20.0308L21.3551 19.3846ZM23.0434 19.5819C22.5736 19.7074 21.9967 19.6393 21.3498 19.3824L21.0914 20.0329C21.8195 20.3221 22.5579 20.4361 23.2241 20.2582L23.0434 19.5819ZM24.2455 18.3896C23.9534 19.0905 23.5215 19.4361 23.0318 19.5852L23.2357 20.2549C23.9417 20.0399 24.5261 19.5359 24.8917 18.659L24.2455 18.3896ZM24.6374 15.0785C24.6964 16.6378 24.5453 17.6981 24.2475 18.3851L24.8897 18.6635C25.2496 17.8333 25.3973 16.6483 25.3368 15.052L24.6374 15.0785ZM22.9368 19.1929C23.3689 19.0613 23.6711 18.7178 23.8747 18.2356L23.2298 17.9634C23.0747 18.3308 22.8986 18.4728 22.7328 18.5232L22.9368 19.1929ZM21.4847 19.0335C21.9906 19.226 22.4937 19.3157 22.9282 19.1954L22.7414 18.5208C22.5183 18.5825 22.1844 18.5508 21.7337 18.3793L21.4847 19.0335ZM17.8987 16.4399C19.1034 17.6016 20.368 18.5802 21.4775 19.0306L21.7409 18.3821C20.7579 17.983 19.5713 17.0803 18.3845 15.936L17.8987 16.4399ZM13 14.8084C14.9559 14.8084 16.849 15.3746 17.8923 16.4336L18.3909 15.9423C17.1624 14.6953 15.0497 14.1084 13 14.1084V14.8084ZM8.06781 16.3827C9.1445 15.3738 11.046 14.8084 13 14.8084V14.1084C10.9483 14.1084 8.84417 14.696 7.5892 15.8718L8.06781 16.3827ZM4.48755 18.972C5.57317 18.5506 6.84173 17.5361 8.06833 16.3822L7.58869 15.8723C6.36406 17.0244 5.18139 17.9518 4.23428 18.3194L4.48755 18.972ZM3.01411 19.1257C3.47577 19.2961 4.0062 19.1552 4.48543 18.9728L4.23641 18.3186C3.75906 18.5003 3.45248 18.5414 3.2565 18.469L3.01411 19.1257ZM2.09543 18.175C2.299 18.6571 2.6012 19.0006 3.03335 19.1322L3.23726 18.4626C3.07155 18.4121 2.89546 18.2701 2.74031 17.9027L2.09543 18.175ZM1.76926 15.111C1.70887 16.5209 1.82546 17.5242 2.09458 18.1729L2.74116 17.9047C2.53199 17.4005 2.40944 16.5225 2.46862 15.1409L1.76926 15.111ZM2.40771 10.8516C2.04276 12.2716 1.83015 13.7822 1.76931 15.1099L2.46857 15.142C2.52731 13.8602 2.7332 12.3973 3.08568 11.0258L2.40771 10.8516ZM3.6966 7.33937C3.16704 8.28794 2.7395 9.53505 2.40731 10.8531L3.08608 11.0242C3.41154 9.73286 3.821 8.55257 4.3078 7.68059L3.6966 7.33937ZM9.92166 5.26026C8.80509 4.96201 7.67793 4.66071 6.61796 4.85595C5.51674 5.05879 4.55116 5.77801 3.69518 7.34194L4.30922 7.67802C5.09736 6.23805 5.91041 5.69805 6.74477 5.54437C7.62037 5.38309 8.58572 5.62795 9.74102 5.93655L9.92166 5.26026ZM12.7912 5.82623C11.7779 5.73808 10.8475 5.50278 9.92003 5.25983L9.74265 5.93698C10.6685 6.17951 11.6513 6.4297 12.7305 6.5236L12.7912 5.82623ZM12.8206 5.82491H12.7609V6.52491H12.8206V5.82491ZM13.1495 5.82491H12.8206V6.52491H13.1495V5.82491ZM13.2093 5.82491H13.1495V6.52491H13.2093V5.82491ZM16.08 5.25983C15.153 5.50264 14.2226 5.73794 13.1798 5.82616L13.2388 6.52367C14.3482 6.42983 15.3309 6.17965 16.2573 5.93698L16.08 5.25983ZM16.1419 5.24409L16.0825 5.25916L16.2548 5.93765L16.3142 5.92257L16.1419 5.24409ZM22.3048 7.34194C21.4559 5.791 20.4991 5.07795 19.4088 4.87228C18.3599 4.6744 17.2441 4.96429 16.1419 5.24409L16.3142 5.92257C17.4579 5.63221 18.412 5.39657 19.2791 5.56014C20.1048 5.71591 20.9099 6.25127 21.6908 7.67802L22.3048 7.34194ZM23.5931 10.855C23.2602 9.50321 22.8324 8.28699 22.3034 7.33937L21.6922 7.68059C22.1795 8.55352 22.5888 9.70402 22.9135 11.0224L23.5931 10.855ZM24.2307 15.1103C24.1697 13.7472 23.9261 12.2683 23.594 10.8584L22.9126 11.0189C23.2381 12.4005 23.4729 13.8345 23.5314 15.1416L24.2307 15.1103ZM23.8747 18.2356C24.1741 17.5265 24.2912 16.5234 24.2307 15.111L23.5314 15.1409C23.5905 16.52 23.4684 17.3982 23.2298 17.9634L23.8747 18.2356ZM9.31127 9.02027C9.64502 9.04422 9.95092 9.21304 10.2316 9.46684L10.7011 8.94758C10.354 8.63381 9.90655 8.36119 9.36137 8.32207L9.31127 9.02027ZM8.58604 7.8145C8.80916 8.03863 8.96225 8.3702 8.98734 8.6979L9.6853 8.64445C9.64761 8.15232 9.42402 7.66408 9.08212 7.32064L8.58604 7.8145ZM8.55465 7.78297L8.58604 7.8145L9.08212 7.32064L9.05073 7.28911L8.55465 7.78297ZM7.5157 7.35C7.9229 7.35 8.27366 7.50071 8.55465 7.78297L9.05073 7.28911C8.64114 6.87767 8.11298 6.65 7.5157 6.65V7.35ZM6.47674 7.78297C6.72956 7.52901 7.11287 7.35 7.5157 7.35V6.65C6.91404 6.65 6.35564 6.91243 5.98066 7.28911L6.47674 7.78297ZM6.04419 8.696C6.06871 8.35106 6.2438 8.01696 6.47674 7.78297L5.98066 7.28911C5.64858 7.62268 5.3842 8.1084 5.34595 8.64635L6.04419 8.696ZM4.79974 9.4353C5.06641 9.19422 5.37185 9.04526 5.72012 9.02027L5.67002 8.32207C5.13936 8.36014 4.69143 8.58957 4.3303 8.91605L4.79974 9.4353ZM4.78168 9.45414L4.81307 9.42261L4.31698 8.92875L4.28559 8.96028L4.78168 9.45414ZM4.35 10.5C4.35 10.0895 4.50064 9.73644 4.78168 9.45414L4.28559 8.96028C3.87604 9.37167 3.65 9.90148 3.65 10.5H4.35ZM4.78168 11.5459C4.52885 11.2919 4.35 10.9061 4.35 10.5H3.65C3.65 11.1029 3.91061 11.6631 4.28559 12.0397L4.78168 11.5459ZM5.71845 11.9796C5.33894 11.9542 5.04037 11.8057 4.78168 11.5459L4.28559 12.0397C4.65469 12.4105 5.10949 12.6404 5.67168 12.678L5.71845 11.9796ZM6.46342 13.2043C6.22245 12.9865 6.06976 12.6637 6.04419 12.304L5.34595 12.3537C5.38315 12.8769 5.60714 13.3739 5.99398 13.7236L6.46342 13.2043ZM7.5157 13.65C7.10849 13.65 6.75773 13.4993 6.47674 13.217L5.98066 13.7109C6.39025 14.1223 6.91841 14.35 7.5157 14.35V13.65ZM8.55465 13.217C8.30183 13.471 7.91852 13.65 7.5157 13.65V14.35C8.11735 14.35 8.67575 14.0876 9.05073 13.7109L8.55465 13.217ZM8.9872 12.304C8.96327 12.6406 8.79458 12.9485 8.54202 13.2304L9.06337 13.6975C9.37582 13.3488 9.6466 12.8999 9.68544 12.3537L8.9872 12.304ZM10.2057 11.5592C9.98882 11.8013 9.66802 11.9541 9.31127 11.9797L9.36137 12.6779C9.88354 12.6405 10.3789 12.4149 10.727 12.0263L10.2057 11.5592ZM10.65 10.5C10.65 10.9105 10.4994 11.2636 10.2183 11.5459L10.7144 12.0397C11.124 11.6283 11.35 11.0985 11.35 10.5H10.65ZM10.2183 9.45414C10.4712 9.7081 10.65 10.0939 10.65 10.5H11.35C11.35 9.89712 11.0894 9.33694 10.7144 8.96028L10.2183 9.45414ZM9.21076 11.5122C9.48617 11.5122 9.73428 11.4162 9.92966 11.2199L9.43357 10.726C9.37783 10.782 9.31203 10.8122 9.21076 10.8122V11.5122ZM8.7713 11.5122H9.21076V10.8122H8.7713V11.5122ZM8.52489 11.7613C8.52489 11.6181 8.6401 11.5122 8.7713 11.5122V10.8122C8.2747 10.8122 7.82489 11.2107 7.82489 11.7613H8.52489ZM8.52489 12.1712V11.7613H7.82489V12.1712H8.52489ZM8.23459 12.8911C8.42987 12.6949 8.52489 12.4464 8.52489 12.1712H7.82489C7.82489 12.2743 7.79434 12.3411 7.7385 12.3972L8.23459 12.8911ZM7.5157 13.1833C7.79111 13.1833 8.03921 13.0873 8.23459 12.8911L7.7385 12.3972C7.68276 12.4532 7.61697 12.4833 7.5157 12.4833V13.1833ZM6.7968 12.8911C6.99218 13.0873 7.24028 13.1833 7.5157 13.1833V12.4833C7.41442 12.4833 7.34863 12.4532 7.29289 12.3972L6.7968 12.8911ZM6.5065 12.1712C6.5065 12.4464 6.60152 12.6949 6.7968 12.8911L7.29289 12.3972C7.23705 12.3411 7.2065 12.2743 7.2065 12.1712H6.5065ZM6.5065 11.7297V12.1712H7.2065V11.7297H6.5065ZM6.26009 11.4806C6.39874 11.4806 6.5065 11.5941 6.5065 11.7297H7.2065C7.2065 11.2347 6.81202 10.7806 6.26009 10.7806V11.4806ZM5.82063 11.4806H6.26009V10.7806H5.82063V11.4806ZM5.10173 11.1884C5.29711 11.3846 5.54522 11.4806 5.82063 11.4806V10.7806C5.71936 10.7806 5.65356 10.7505 5.59782 10.6945L5.10173 11.1884ZM4.81144 10.5C4.81144 10.805 4.96077 11.0468 5.10173 11.1884L5.59782 10.6945C5.55044 10.6469 5.51144 10.5733 5.51144 10.5H4.81144ZM5.10173 9.7801C4.90645 9.97626 4.81144 10.2247 4.81144 10.5H5.51144C5.51144 10.3969 5.54198 10.33 5.59782 10.274L5.10173 9.7801ZM5.13312 9.74856L5.10173 9.7801L5.59782 10.274L5.62921 10.2424L5.13312 9.74856ZM5.82063 9.48784C5.57287 9.48784 5.3438 9.58543 5.17056 9.71595L5.59177 10.275C5.66965 10.2164 5.75449 10.1878 5.82063 10.1878V9.48784ZM6.26009 9.48784H5.82063V10.1878H6.26009V9.48784ZM6.5065 9.23874C6.5065 9.38185 6.39129 9.48784 6.26009 9.48784V10.1878C6.75669 10.1878 7.2065 9.78932 7.2065 9.23874H6.5065ZM6.5065 8.7973V9.23874H7.2065V8.7973H6.5065ZM6.7968 8.07739C6.60152 8.27356 6.5065 8.52202 6.5065 8.7973H7.2065C7.2065 8.69419 7.23705 8.62734 7.29289 8.57126L6.7968 8.07739ZM7.5157 7.78514C7.24028 7.78514 6.99218 7.88114 6.7968 8.07739L7.29289 8.57125C7.34863 8.51526 7.41442 8.48514 7.5157 8.48514V7.78514ZM8.23459 8.07739C8.03921 7.88114 7.79111 7.78514 7.5157 7.78514V8.48514C7.61697 8.48514 7.68276 8.51526 7.7385 8.57125L8.23459 8.07739ZM8.26598 8.10892L8.23459 8.07739L7.7385 8.57126L7.7699 8.60279L8.26598 8.10892ZM8.52489 8.7973C8.52489 8.5497 8.42821 8.32034 8.29839 8.14646L7.73748 8.56525C7.796 8.64363 7.82489 8.72958 7.82489 8.7973H8.52489ZM8.52489 9.23874V8.7973H7.82489V9.23874H8.52489ZM8.7713 9.48784C8.63265 9.48784 8.52489 9.37437 8.52489 9.23874H7.82489C7.82489 9.73374 8.21937 10.1878 8.7713 10.1878V9.48784ZM9.21076 9.48784H8.7713V10.1878H9.21076V9.48784ZM9.92966 9.7801C9.73428 9.58384 9.48617 9.48784 9.21076 9.48784V10.1878C9.31203 10.1878 9.37783 10.218 9.43357 10.274L9.92966 9.7801ZM10.22 10.5C10.22 10.2247 10.1249 9.97626 9.92966 9.7801L9.43357 10.274C9.48941 10.33 9.51995 10.3969 9.51995 10.5H10.22ZM9.92966 11.2199C10.1249 11.0237 10.22 10.7753 10.22 10.5H9.51995C9.51995 10.6031 9.48941 10.67 9.43357 10.726L9.92966 11.2199Z" fill="#696869"/>
<path fill-rule="evenodd" clip-rule="evenodd" d="M18 9C18.5523 9 19 8.55228 19 8C19 7.44772 18.5523 7 18 7C17.4477 7 17 7.44772 17 8C17 8.55228 17.4477 9 18 9ZM18 14C18.5523 14 19 13.5523 19 13C19 12.4477 18.5523 12 18 12C17.4477 12 17 12.4477 17 13C17 13.5523 17.4477 14 18 14ZM17 10C17 10.5523 16.5523 11 16 11C15.4477 11 15 10.5523 15 10C15 9.44772 15.4477 9 16 9C16.5523 9 17 9.44772 17 10ZM20 11C20.5523 11 21 10.5523 21 10C21 9.44772 20.5523 9 20 9C19.4477 9 19 9.44772 19 10C19 10.5523 19.4477 11 20 11Z" fill="#FF7300"/>
</svg>
