<svg width="64" height="62" viewBox="0 0 64 62" fill="none" xmlns="http://www.w3.org/2000/svg">
<rect opacity="0.478934" x="8.49561" y="60.8818" width="41.9115" height="1.11823" rx="0.559113" fill="#FF6400"/>
<rect opacity="0.478934" x="52.1064" y="60.8818" width="7.36283" height="1.11823" rx="0.559113" fill="#FF6400"/>
<rect opacity="0.478934" y="60.8818" width="7.36283" height="1.11823" rx="0.559113" fill="#FF6400"/>
<rect opacity="0.478934" x="60.6021" y="60.8818" width="3.39823" height="1.11823" rx="0.559113" fill="#FF6400"/>
<path fill-rule="evenodd" clip-rule="evenodd" d="M53.6805 7.48484C55.7773 7.48484 57.4768 5.80865 57.4768 3.74427C57.4768 1.67619 55.7773 0 53.6805 0C51.5837 0 49.8843 1.67619 49.8843 3.74427C49.8843 5.80865 51.5837 7.48484 53.6805 7.48484Z" fill="#E6DFF5"/>
<path fill-rule="evenodd" clip-rule="evenodd" d="M18.6905 33.1684L14.2762 26.4854C-0.783676 14.8463 -6.87895 36.4664 10.7852 34.3984L18.6905 33.1684Z" fill="#E6DFF5"/>
<path fill-rule="evenodd" clip-rule="evenodd" d="M25.1683 26.4891C36.237 12.7603 14.3903 6.50537 16.5091 25.2592L20.1914 31.5177L25.1683 26.4891Z" fill="#E6DFF5"/>
<path fill-rule="evenodd" clip-rule="evenodd" d="M27.0663 60.8874L29.7921 48.7041L27.0663 37.1666H21.497L14.6807 36.5862L13.3159 41.6655V58.5001C13.3159 59.8135 14.4048 60.8874 15.7364 60.8874H27.0663Z" fill="#CEEEEA"/>
<path fill-rule="evenodd" clip-rule="evenodd" d="M49.8734 58.5V42.9642V38.5016C49.8734 37.7687 49.2627 37.1665 48.5197 37.1665H36.1231L32.8823 49.0306L36.1231 60.8874H47.4529C48.7845 60.8872 49.8734 59.8133 49.8734 58.5Z" fill="#CEEEEA"/>
<path fill-rule="evenodd" clip-rule="evenodd" d="M25.1683 26.4891C32.7644 17.0668 24.8557 11.1638 19.8345 14.451C23.9727 14.6795 27.5557 19.5703 22.4242 26.6016L23.0275 27.6646L25.1683 26.4891Z" fill="#D4BEE0"/>
<path fill-rule="evenodd" clip-rule="evenodd" d="M14.2764 26.4853C5.68334 19.8459 0.0110896 24.029 0 28.4663C1.78779 25.9121 5.95921 24.6967 11.6131 28.3031C11.8412 27.9547 12.1539 27.6536 12.5475 27.4396L14.2764 26.4853Z" fill="#D4BEE0"/>
<path fill-rule="evenodd" clip-rule="evenodd" d="M27.0664 37.1665H36.123V60.8872H27.0664L27.0664 37.1665Z" fill="#FFC9A6"/>
<path fill-rule="evenodd" clip-rule="evenodd" d="M49.8735 42.9642V38.5016C49.8735 37.7687 49.2628 37.1665 48.5198 37.1665H43.0573C43.8004 37.1665 44.4109 37.7687 44.4109 38.5016V42.9642V58.4998C44.4109 59.8133 43.3184 60.8871 41.9868 60.8871H47.4531C48.7847 60.8871 49.8736 59.8132 49.8736 58.4998V42.9642H49.8735Z" fill="#A6D0CA"/>
<path d="M11.1974 30.4508C11.0897 30.4508 10.9803 30.4326 10.8733 30.3942C9.50916 29.9046 8.43434 29.6148 6.34527 29.3892C5.82468 29.333 5.44876 28.8709 5.5057 28.3571C5.56265 27.8434 6.03065 27.4728 6.55173 27.5288C8.56929 27.7467 9.8234 28.026 11.5216 28.6353C12.0138 28.812 12.2677 29.3489 12.0888 29.8346C11.9487 30.2147 11.5849 30.4508 11.1974 30.4508Z" fill="#C587ED"/>
<path d="M20.7406 25.3243C20.7155 25.3243 20.6902 25.3233 20.6646 25.3213C20.1424 25.2805 19.7527 24.8298 19.794 24.3145C19.9164 22.7913 20.6401 20.6571 21.5149 19.2396C21.7873 18.7982 22.3708 18.658 22.8181 18.927C23.2656 19.1958 23.4074 19.7716 23.135 20.2129C22.4203 21.3711 21.7833 23.2377 21.685 24.4624C21.6457 24.9523 21.2303 25.3243 20.7406 25.3243Z" fill="#C587ED"/>
<path d="M42.895 32.7363C42.6651 32.7363 42.4346 32.6543 42.2521 32.4883C41.8671 32.1379 41.8429 31.5459 42.1981 31.166C46.2585 26.8231 45.0548 15.3814 45.0422 15.2663C44.9859 14.7525 45.3622 14.2909 45.883 14.2352C46.4041 14.1801 46.8716 14.551 46.9281 15.0647C46.9834 15.569 48.2308 27.4738 43.5924 32.4349C43.4053 32.635 43.1505 32.7363 42.895 32.7363Z" fill="#FFC5B5"/>
<path d="M52.5078 19.6962C52.4378 19.6962 52.3668 19.6884 52.2957 19.6724C51.7858 19.5572 51.4666 19.0573 51.5823 18.5541C51.6032 18.4632 52.113 16.2998 53.7174 13.8758C55.854 10.6478 58.9351 8.48196 62.6273 7.61244C63.1369 7.49251 63.6484 7.8026 63.77 8.30533C63.8916 8.80805 63.5771 9.31286 63.0677 9.43279C59.8327 10.1947 57.2336 12.0151 55.3427 14.8435C53.9056 16.993 53.4363 18.9507 53.4316 18.9701C53.3302 19.4027 52.9396 19.6962 52.5078 19.6962Z" fill="#FFC5B5"/>
<path fill-rule="evenodd" clip-rule="evenodd" d="M42.1816 8.1523L44.0429 5.93919C44.4254 5.51101 44.3998 5.38407 43.8369 5.24618L40.9457 4.53866C40.6183 4.45883 40.5999 4.37174 40.438 4.11048L38.9777 1.705C38.6834 1.2152 38.5032 1.2152 38.2052 1.705L36.7449 4.11048C36.5867 4.37174 36.5646 4.45883 36.2372 4.53866L33.346 5.24618C32.7869 5.38407 32.7573 5.51101 33.14 5.93919L35.005 8.1523C35.2037 8.3881 35.2331 8.66387 35.2074 8.99771L34.983 11.7333C34.9204 12.2993 35.0418 12.3683 35.579 12.1543L38.1208 11.1093C38.3857 11.0005 38.8014 11.0005 39.0626 11.1093L41.6081 12.1543C42.1451 12.3683 42.2628 12.2994 42.2003 11.7333L41.9796 8.99771C41.9536 8.66387 41.9792 8.3881 42.1816 8.1523Z" fill="#FDE300"/>
<path fill-rule="evenodd" clip-rule="evenodd" d="M38.6983 5.87029C38.3194 8.26482 37.5138 10.351 36.5391 11.7588L38.1209 11.1093C38.3858 11.0005 38.8015 11.0005 39.0626 11.1093L41.6081 12.1542C42.1451 12.3683 42.2629 12.2994 42.2003 11.7333L41.9797 8.99769C41.9539 8.66385 41.9797 8.3882 42.182 8.15228L44.0433 5.93917C44.4259 5.51099 44.4002 5.38405 43.8374 5.24616L40.9461 4.53864C40.6188 4.45881 40.6003 4.37172 40.4385 4.11046L38.9781 1.70498C38.9303 1.62515 38.8862 1.55983 38.8457 1.50903C38.9851 2.81178 38.9484 4.30665 38.6983 5.87029Z" fill="#FFC402"/>
<path fill-rule="evenodd" clip-rule="evenodd" d="M60.7287 29.6636L62.59 27.4505C62.9762 27.0225 62.9468 26.8954 62.384 26.7575L59.4927 26.05C59.169 25.9702 59.147 25.8831 58.9887 25.622L57.5284 23.2165C57.2305 22.7267 57.0502 22.7267 56.7559 23.2165L55.2918 25.622C55.1337 25.8832 55.1115 25.9703 54.7878 26.05L51.8965 26.7575C51.3337 26.8954 51.3043 27.0224 51.6906 27.4505L53.5519 29.6636C53.7542 29.8994 53.7799 30.1752 53.7542 30.5091L53.5298 33.241C53.471 33.8106 53.5886 33.8795 54.1258 33.6655L56.6676 32.6206C56.9326 32.5117 57.3482 32.5117 57.613 32.6206L60.1549 33.6655C60.6919 33.8795 60.8097 33.8106 60.7508 33.241L60.5264 30.5091C60.5006 30.1752 60.5263 29.8996 60.7287 29.6636Z" fill="#FDD900"/>
<path fill-rule="evenodd" clip-rule="evenodd" d="M57.2489 27.3814C56.8664 29.776 56.0644 31.8621 55.0859 33.2699L56.6678 32.6204C56.9327 32.5116 57.3483 32.5116 57.6131 32.6204L60.155 33.6654C60.692 33.8794 60.8098 33.8105 60.751 33.2409L60.5265 30.5089C60.5008 30.1751 60.5265 29.8995 60.7289 29.6635L62.5902 27.4504C62.9765 27.0224 62.9471 26.8953 62.3842 26.7574L59.493 26.0499C59.1693 25.9701 59.1472 25.883 58.989 25.6218L57.5286 23.2164C57.4808 23.1365 57.4367 23.0712 57.3926 23.0168C57.5359 24.3229 57.4954 25.8178 57.2489 27.3814Z" fill="#FFBD01"/>
<path fill-rule="evenodd" clip-rule="evenodd" d="M57.477 3.74427C57.477 1.67619 55.7776 0 53.6808 0C52.9892 0 52.3418 0.181432 51.7827 0.500629C52.9193 1.1464 53.6808 2.35825 53.6808 3.74414C53.6808 5.12647 52.9193 6.33831 51.7827 6.98409C52.3418 7.30341 52.9892 7.48472 53.6808 7.48472C55.7776 7.48484 57.477 5.80865 57.477 3.74427Z" fill="#D4BEE0"/>
<path fill-rule="evenodd" clip-rule="evenodd" d="M12.8123 33.2809L19.0069 32.1199L23.0276 27.6645L21.7364 25.3824C21.4937 24.9507 21.1442 24.6169 20.7395 24.3883C19.9596 23.9493 18.9664 23.9095 18.1277 24.3702L16.5091 25.2592L14.2763 26.4855L12.5474 27.4397C11.7455 27.8787 11.2673 28.6733 11.1974 29.515C11.1533 30.0121 11.2562 30.5272 11.5211 30.9953L12.8123 33.2809Z" fill="#FDE300"/>
<path fill-rule="evenodd" clip-rule="evenodd" d="M26.761 34.2712L37.5979 28.3139C38.4918 27.8205 38.8155 26.6993 38.3188 25.8177L36.395 22.4146C35.8947 21.533 34.7581 21.2137 33.8642 21.707L25.1683 26.489L23.0273 27.6645V32.1199L26.761 34.2712Z" fill="#CEEEEA"/>
<path fill-rule="evenodd" clip-rule="evenodd" d="M5.70926 45.8489L16.5461 39.8878L16.8551 35.4325L12.8124 33.281L10.7855 34.3985L1.97183 39.2421C1.08168 39.7319 0.757964 40.8529 1.2545 41.7346L3.17835 45.1415C3.67514 46.0194 4.8155 46.3386 5.70926 45.8489Z" fill="#CEEEEA"/>
<path fill-rule="evenodd" clip-rule="evenodd" d="M22.4245 26.6015L21.7366 25.3824C21.4938 24.9507 21.1443 24.6169 20.7396 24.3883C19.9597 23.9493 18.9665 23.9095 18.1278 24.3702L16.5093 25.2592L14.9717 26.1046C15.8104 25.6438 16.8 25.6837 17.5835 26.1227C17.988 26.3512 18.3375 26.6886 18.5804 27.1168L19.8715 29.4025L23.0277 27.6647L22.4245 26.6015Z" fill="#FFC402"/>
<path fill-rule="evenodd" clip-rule="evenodd" d="M37.5983 28.3139C38.4922 27.8205 38.8159 26.6993 38.3192 25.8177L36.3954 22.4146C35.8951 21.533 34.7585 21.2137 33.8646 21.707L29.5166 24.098C30.4105 23.6046 31.5471 23.9238 32.0438 24.8055L33.9676 28.2087C34.4643 29.0904 34.1442 30.2078 33.2576 30.7013L37.5983 28.3139Z" fill="#A6D0CA"/>
<path fill-rule="evenodd" clip-rule="evenodd" d="M26.7614 34.2714L23.0277 27.6646L12.8125 33.2809L16.5462 39.8878C19.9562 38.012 23.3514 36.1472 26.7614 34.2714Z" fill="#FFC9A6"/>
</svg>
