<svg xmlns="http://www.w3.org/2000/svg" width="36" height="36" fill="none"><defs/><path fill="#FF6400" fill-rule="evenodd" d="M28 35.9a6.2 6.2 0 01-5-3.6l-.8-2.8.1-.2h.3l1.4-.5.4-.1a147.7 147.7 0 002.3-.5l.3 1.2c.5 1.5 1.3 2.1 2.5 2 .4-.1.5-.2.8-.5.2-.1.4-.5.5-.9v-9.2h-9.1c0 .5-.3 1.4-.4 1.7a13 13 0 01-1.9 3.4 10.5 10.5 0 01-4.3 3 13.6 13.6 0 01-7 .5l-1.7-.6a10.6 10.6 0 01-6.1-7.9l-.1-.6a15.4 15.4 0 01.3-6c.2-.8.8-2.2 1.4-3C2.4 10.7 3.4 9.5 4 9c1.8-1.3 3.7-2.1 6-2.4 1-.1 2.8 0 3.8.1a11.7 11.7 0 015 2.2 7 7 0 011.3 1.3L19 11.8l-.8 1-.7.9-.2-.1c-.3-.4-1-1-1.5-1.3a6.4 6.4 0 00-5.5-1 7.6 7.6 0 00-2.3 1 9 9 0 00-1.7 1.8l-.1.2a7.2 7.2 0 00.2 7.8 5.9 5.9 0 009.3 1c.6-.7 1-1.5 1.2-2.1v-.2h-3.1v-4.4h8l.2-.5c.4-1.1 1-2 1.8-3l1.8-1.7.4-.3a82.7 82.7 0 013.5-2.5c.6-.7.9-1.2.8-1.8 0-.7-.3-1.1-.8-1.5a2 2 0 00-1.3-.4c-.5 0-.9.1-1.2.3-.7.3-1.2.8-1.7 1.5 0 .2-.2.3-.2.3H25l-3.5-2.4c-.2 0 .6-1.2 1.3-2 1-1 2.2-1.8 3.6-2.1a9 9 0 014.9.1c1 .4 2 1 2.7 1.7a6 6 0 011.5 4.2c0 2.2-1 4-3.1 5.8l-2.9 2c-1.2.8-2 1.4-2.2 2-.2.4-.7.4 4.2.4H36v6.7c0 6.8 0 6.9-.2 7.8a6.1 6.1 0 01-3.3 4.2c-.7.3-1.5.6-2.3.7h-2z" clip-rule="evenodd"/></svg>