<svg width="24" height="25" viewBox="0 0 24 25" fill="none" xmlns="http://www.w3.org/2000/svg">
<path fill-rule="evenodd" clip-rule="evenodd" d="M2.98763 18.8887C4.58809 22.1677 7.87808 24.2406 11.4778 24.238C13.9995 24.2449 16.4202 23.2317 18.2065 21.4217C19.9928 19.6117 20.9978 17.1536 21.0001 14.5893C21.0001 11.8609 19.9099 8.02393 14.7484 5.26961L14.6036 5.19166C12.1022 3.6083 12.2101 2.42252 12.3462 0.926348L12.3466 0.921595C12.3651 0.628143 12.2359 0.345183 12.0036 0.170154C11.7712 -0.004876 11.4674 -0.0480659 11.1968 0.0554565C11.1929 0.0574435 11.1886 0.0595726 11.1841 0.0618509C10.7564 0.278061 7.67173 1.83718 10.2002 10.6397C10.4365 11.1589 10.4365 11.7575 10.2002 12.2767C9.9451 12.5736 9.57445 12.7415 9.1867 12.7357C8.24121 12.7783 7.38685 12.1658 7.10851 11.246C6.81777 10.11 6.81777 8.91734 7.10851 7.78141C7.22393 7.42465 7.1001 7.03289 6.80189 6.81133C6.50805 6.60133 6.11625 6.60133 5.82241 6.81133C5.09508 7.36232 4.45708 8.02574 3.93159 8.77747C1.75297 11.6916 1.38718 15.6098 2.98763 18.8887ZM5.21295 19.2478C3.23139 16.488 3.21954 12.7454 5.18358 9.97272C5.17975 10.5851 5.26295 11.1948 5.43058 11.7829C5.95116 13.4496 7.51193 14.5492 9.22925 14.4593C10.1488 14.4498 11.0103 14.0005 11.5544 13.2467C12.1115 12.2949 12.1875 11.1296 11.7589 10.1113C11.081 8.08121 10.7919 5.93787 10.9071 3.79715C11.5173 5.01204 12.4769 6.00906 13.6582 6.65541C13.6842 6.67654 13.7292 6.7009 13.7874 6.7324C13.8246 6.75255 13.8672 6.77563 13.9137 6.80265C18.3256 9.16721 19.254 12.3459 19.254 14.5979C19.2505 18.0151 17.0867 21.0425 13.8916 22.1006C10.6964 23.1587 7.19451 22.0076 5.21295 19.2478Z" fill="#696969"/>
<ellipse cx="11.5" cy="19.5" rx="2.5" ry="1.5" fill="#FF7300"/>
</svg>
