<svg width="34" height="20" fill="none" xmlns="http://www.w3.org/2000/svg"><path fill="#EB011B" d="M0 0h34v20H0z"/><path d="M14.5 7v7H13v-3h-3v3H8.7V7H10V10h3V7h1.4Zm3.8 7a3 3 0 0 1-1.4-.3c-.4-.2-.8-.5-1-1a3 3 0 0 1-.4-1.5c0-.5.1-1 .4-1.5.2-.4.6-.7 1-1a3 3 0 0 1 1.5-.3c.5 0 1 0 1.4.3.4.3.8.6 1 1 .3.5.4 1 .4 1.5 0 .6-.1 1.1-.4 1.5-.2.5-.6.8-1 1a3 3 0 0 1-1.5.4Zm0-1.1c.3 0 .5 0 .7-.2.3-.1.4-.3.6-.6l.2-.9c0-.5-.2-.9-.5-1.2-.2-.3-.6-.4-1-.4s-.7.1-1 .4c-.2.3-.4.7-.4 1.2 0 .6.2 1 .4 1.3.3.2.6.4 1 .4ZM24 9.6v3.1l.6.1h.6V14h-.9c-1.2 0-1.7-.6-1.7-1.7V9.6h-.7V8.5h.7V7h1.4v1.4H25v1.1h-1.2Z" fill="#fff"/></svg>