<svg width="53" height="20" fill="none" xmlns="http://www.w3.org/2000/svg"><path fill="#EB011B" d="M0 0h52.3v20H0z"/><g clip-path="url(#a)" fill="#fff"><path d="M20.2 4c-.3 0-.7 0-1 .3a1 1 0 0 0-.3.7h1l.1-.2a.3.3 0 0 1 .3 0 .3.3 0 0 1 .2 0v.5l-.5.3-.2.2-.1.2h1l.1-.1.2-.1.3-.4.2-.4a.8.8 0 0 0-.3-.7c-.3-.2-.6-.3-1-.3ZM37.1 14.5l-.6.3-.2.6a.8.8 0 0 0 .2.6.9.9 0 0 0 1.4-.3v-.3a.8.8 0 0 0-.8-.9ZM12.7 11.5 9.4 6.6H8v7.2h1.4v-5l3.3 5h1.4V6.6h-1.4v5ZM19.7 7.6v-1l-1.5-.8-1.5.8v1l1.5-.8 1.5.8ZM19.6 8.4a3.2 3.2 0 0 0-3 0c-.4.2-.8.6-1 1a3 3 0 0 0-.4 1.5c0 .6.1 1.1.4 1.6.2.4.6.8 1 1 .5.2 1 .4 1.5.4s1-.2 1.5-.4c.4-.2.8-.6 1-1a3 3 0 0 0 0-3c-.2-.5-.5-.9-1-1.1Zm-.2 3.5c-.2.2-.3.4-.6.5l-.7.2a1.3 1.3 0 0 1-1-.4c-.3-.4-.5-.8-.4-1.3a1.7 1.7 0 0 1 .4-1.2 1.4 1.4 0 0 1 2.4.6v.6l-.1 1ZM23.6 8.1H22v5.7h1.5V8ZM22.8 5.8a1 1 0 0 0-.6.2.8.8 0 0 0-.2.6.8.8 0 0 0 .2.6.9.9 0 0 0 .6.2.9.9 0 0 0 .7-.2.8.8 0 0 0 0-1.2 1 1 0 0 0-.7-.2ZM32 8.4c-.3-.3-.8-.4-1.3-.3-.3 0-.7 0-1 .2a2 2 0 0 0-.8.7V6.2h-1.5v7.6H29v-.9l.7.7 1.1.2c.5 0 1-.1 1.4-.4.4-.2.7-.6.9-1 .2-.5.4-1 .3-1.5 0-.6 0-1-.3-1.6-.2-.4-.5-.7-1-1Zm-.3 3.4-.6.6a1.4 1.4 0 0 1-1.5 0c-.2-.2-.4-.3-.5-.6-.2-.2-.2-.5-.2-.8 0-.3 0-.6.2-1l.5-.5a1.5 1.5 0 0 1 2 .6c.2.2.3.5.3.8 0 .3 0 .6-.2 1ZM38.5 8.9a2.3 2.3 0 0 0-1.9-.9 2.5 2.5 0 0 0-2.2 1.4c-.3.5-.4 1-.4 1.5s.1 1 .4 1.5c.2.5.5.8 1 1a2.5 2.5 0 0 0 2.3.2l.8-.7v.9H40V8h-1.5v.8Zm-.2 3-.5.5-.8.2a1.4 1.4 0 0 1-1.3-.8l-.2-.9c0-.3 0-.6.2-.8a1.5 1.5 0 0 1 1.3-.8c.3 0 .5 0 .8.2.2.1.4.3.5.6.2.3.2.6.2.9 0 .3 0 .6-.2.8ZM38.7 7.7v-1l-1.5-.9-1.5.9v1l1.5-.9 1.5.9ZM44.3 9.3V8H43V6.7h-1.4v1.4h-.7v1.2h.7V12a1.6 1.6 0 0 0 1 1.7c.3 0 .6.1.8 0h1v-1.1h-.8c-.1 0-.3 0-.4-.2a.5.5 0 0 1-.2-.4V9.3h1.3Z"/></g><defs><clipPath id="a"><path fill="#fff" transform="translate(8 3.8)" d="M0 0h36.3v12.4H0z"/></clipPath></defs></svg>