<svg xmlns="http://www.w3.org/2000/svg" width="150" height="135" fill="none"><defs/><path fill="#FF7EB8" d="M117 64h-1a1 1 0 00-2 0 1 1 0 000 2v1a1 1 0 002 0v-1h1a1 1 0 000-2zM26 54v-1a1 1 0 00-2 0v1h-1a1 1 0 000 2h1a1 1 0 002 0 1 1 0 000-2z"/><path fill="#8399FE" fill-rule="evenodd" d="M123 32a3 3 0 107 0 3 3 0 00-7 0zm3 0a1 1 0 112 0 1 1 0 01-2 0z" clip-rule="evenodd"/><path fill="#01ECA5" fill-rule="evenodd" d="M29 107a3 3 0 106 0 3 3 0 00-6 0zm2 0a1 1 0 112 0 1 1 0 01-2 0z" clip-rule="evenodd"/><path fill="#FF7EB8" d="M6 95l-2-2-2-2a2 2 0 010-4l2-2a2 2 0 114 0l2 2a2 2 0 110 4l-2 2-2 2z"/><path fill="#FF6400" d="M9 10h6v3H9v-3zM27 10h6v3h-6v-3zM19 18h3v6h-3v-6zM19 0h3v6h-3V0zM126 81h4v2h-4v-2zM137 81h4v2h-4v-2zM133 86h1v4h-1v-4zM133 75h1v4h-1v-4z"/><path fill="#407093" d="M55 46h4v5h-4v-5zM85 46h4v5h-4v-5z"/><path fill="#fff" d="M91 46H53c-2 0-4-2-4-4v-7c0-2 2-4 4-4h38c2 0 4 2 4 4v7c0 2-2 4-4 4z"/><path fill="#FFD1B3" d="M91 31h-5c3 0 5 2 5 4v7c0 2-2 4-5 4h5c2 0 4-2 4-4v-7c0-2-2-4-4-4z"/><path fill="#fff" d="M103 93H41V54c0-2 2-4 4-4h54c2 0 4 2 4 4v39z"/><path fill="#FF6400" fill-opacity=".3" d="M99 50h-4c2 0 4 2 4 4v39h4V54c0-2-2-4-4-4z"/><path fill="#FFAB66" d="M80 93H64V75l1-2h14l1 2v18z"/><path fill="#FF6400" d="M79 73h-5l2 2v18h4V75l-1-2z"/><path fill="#FFAB66" d="M64 69h16l1-1V55l-1-1H64l-1 1v13l1 1z"/><path fill="#FF6400" d="M80 54h-4l1 1v13l-1 1h4l1-1V55l-1-1z"/><path fill="#FFAB66" d="M86 69h12l1-1V55l-1-1H86l-1 1v13l1 1z"/><path fill="#FF6400" d="M98 54h-4l1 1v13l-1 1h4l1-1V55l-1-1z"/><path fill="#FFAB66" d="M86 89h12l1-1V74l-1-1H86l-1 1v14l1 1z"/><path fill="#FF6400" d="M98 73h-4l1 1v14l-1 1h4l1-1V74l-1-1z"/><path fill="#FFAB66" d="M46 69h12l1-1V55l-1-1H46l-1 1v13l1 1z"/><path fill="#FF6400" d="M58 54h-4l1 1v13l-1 1h4l1-1V55l-1-1z"/><path fill="#FFAB66" d="M46 89h12l1-1V74l-1-1H46l-1 1v14l1 1z"/><path fill="#FF6400" d="M58 73h-4l1 1v14l-1 1h4l1-1V74l-1-1z"/><path fill="#EB7A00" d="M105 99H39l-1-1v-4l1-1h66l1 1v4l-1 1z"/><path fill="#FF6400" d="M105 93h-4l1 1v4l-1 1h4l1-1v-4l-1-1z"/><path fill="#000" fill-rule="evenodd" d="M104 92h1l2 2v4l-2 2H39l-2-2v-4l2-2h1V54c0-3 2-5 5-5h9v-2h-1c-2 0-5-3-5-5v-7c0-3 3-5 5-5h38c2 0 5 2 5 5v7c0 2-3 5-5 5h-1v2h9c3 0 5 2 5 5v38zM59 34l-1 1v2h-3v-2a1 1 0 10-2 0v7a1 1 0 102 0v-3h3v3a1 1 0 102 0v-7l-1-1zm7 0a4 4 0 110 9 4 4 0 010-9zm21 9v-8a1 1 0 112 0v6h1a1 1 0 010 2h-3zm-23-5a2 2 0 114 0 2 2 0 01-4 0zm19 5h-2l-1-1v-7l1-1h2a1 1 0 110 2h-1v1h1a1 1 0 110 2h-1v2h1a1 1 0 110 2zm-9-7h-1a1 1 0 010-2h4a1 1 0 110 2h-1v6a1 1 0 11-2 0v-6zm12 54h12l2-2V74l-2-2H86l-2 2v14l2 2zm12-16h-5v6h5v-6zm-5 8h5v6h-5v-6zm-2-8h-5v6h5v-6zm-5 8h5v6h-5v-6zM53 45l-3-3v-7c0-2 2-3 3-3h38c1 0 3 1 3 3v7l-3 3H69a1 1 0 100 2h15v2H60v-2h4a1 1 0 100-2H53zm35 4v-2h-2v2h2zm-30-2v2h-2v-2h2zm-13 4c-1 0-3 1-3 3v38h21V75c0-2 1-3 2-3h14c1 0 2 1 2 3v6a1 1 0 11-2 0v-6-1h-6v18h6v-6a1 1 0 112 0v6h21V54c0-2-2-3-3-3H45zm26 23v18h-6V75v-1h6zm34 24v-4H39v4h66zM80 70l2-2V55l-2-2H64l-2 2v13l2 2h16zm0-15h-7v5h7v-5zm-7 8h7v5h-7v-5zm-2-8h-7v5h7v-5zm-7 8h7v5h-7v-5zm-18 9h12l2 2v14l-2 2H46l-2-2V74l2-2zm5 16h-5v-6h5v6zm-5-8h5v-6h-5v6zm12 8h-5v-6h5v6zm-5-8h5v-6h-5v6zm33-10h12l2-2V55l-2-2H86l-2 2v13l2 2zm12-15h-5v5h5v-5zm-5 8h5v5h-5v-5zm-2-8h-5v5h5v-5zm-5 8h5v5h-5v-5zM46 53h12l2 2v13l-2 2H46l-2-2V55l2-2zm5 15h-5v-5h5v5zm-5-8h5v-5h-5v5zm12 8h-5v-5h5v5zm-5-8h5v-5h-5v5z" clip-rule="evenodd"/></svg>