<svg xmlns="http://www.w3.org/2000/svg" width="40" height="40" fill="none"><path fill="#696969" d="M32.7 35.2h-1.2V30c0-2-.6-3.8-1.4-5.6a10 10 0 0 0-4.2-4.3 10 10 0 0 0 4.2-4.3c.8-1.8 1.3-3.7 1.4-5.6V4.8h1.2c.3 0 .7-.2 1-.4.2-.3.3-.6.3-1s-.1-.7-.4-1c-.2-.3-.6-.4-1-.4H7.4c-.3 0-.7.1-1 .4-.2.3-.3.6-.3 1s.1.7.4 1c.2.2.6.4 1 .4h1.2V10c.1 2 .6 3.8 1.5 5.6a10 10 0 0 0 4.1 4.3 10 10 0 0 0-4.1 4.3C9 26.1 8.7 28 8.6 30v5.3H7.3c-.3 0-.7.2-1 .4-.2.3-.3.6-.3 1s.1.7.4 1c.2.3.6.4 1 .4h25.3c.3 0 .7-.1 1-.4.2-.3.3-.6.3-1s-.1-.7-.4-1c-.2-.2-.6-.4-1-.4ZM12.3 14.5c-.7-1.4-1-2.9-1.2-4.4V4.8H29V10c0 1.5-.5 3-1.2 4.4-1.4 2.8-4 4.2-7.7 4.2s-6.3-1.4-7.8-4.2Zm-1.2 20.7V30c.1-1.5.5-3 1.2-4.4 1.5-2.8 4-4.2 7.8-4.2 3.6 0 6.3 1.4 7.7 4.2.7 1.4 1.1 2.9 1.2 4.4v5.3H11Z"/><path fill="#FF7300" d="M20 16a6 6 0 0 0 6-6H14a6 6 0 0 0 6 6ZM20 24a6 6 0 0 0-6 6h12a6 6 0 0 0-6-6Z"/></svg>