<svg width="16" height="17" fill="none" xmlns="http://www.w3.org/2000/svg"><path d="M13 14.6h-.4v-2.1c0-.8-.2-1.6-.6-2.3a4 4 0 0 0-1.6-1.7A4 4 0 0 0 12 6.8c.4-.7.6-1.5.6-2.3v-2h.5l.3-.3.2-.3c0-.2 0-.3-.2-.4a.5.5 0 0 0-.3-.2H2.9c-.1 0-.2 0-.3.2l-.2.4c0 .1 0 .2.2.3 0 .2.2.2.3.2h.6v2.1c0 .8.2 1.6.5 2.3a4 4 0 0 0 1.7 1.7A4 4 0 0 0 4 10.2c-.3.7-.5 1.5-.5 2.3v2h-.6l-.3.3-.2.3c0 .2 0 .3.2.4l.3.2h10.2c.1 0 .2 0 .3-.2l.2-.4c0-.1 0-.2-.2-.3a.5.5 0 0 0-.3-.2ZM5 6.3c-.4-.5-.5-1.2-.5-1.8v-2h7v2c0 .6-.1 1.3-.4 1.8-.6 1.1-1.6 1.7-3 1.7-1.5 0-2.6-.6-3.2-1.7Zm-.5 8.3v-2.1c0-.6.1-1.3.4-1.8C5.5 9.6 6.6 9 8 9c1.5 0 2.5.6 3.1 1.7.3.5.5 1.2.5 1.8v2H4.5Z" fill="#696969" fill-opacity=".5"/><path d="M8 6.9a2.4 2.4 0 0 0 2.4-2.4H5.6A2.4 2.4 0 0 0 8 6.9ZM8 10.1a2.4 2.4 0 0 0-2.4 2.4h4.8A2.4 2.4 0 0 0 8 10.1Z" fill="#696969" fill-opacity=".5"/></svg>