<svg width="32" height="18" viewBox="0 0 32 18" fill="none" xmlns="http://www.w3.org/2000/svg">
<path fill-rule="evenodd" clip-rule="evenodd" d="M24.5909 5.68759C24.5909 4.58122 23.7563 3.74666 22.65 3.74666C21.5436 3.74666 20.709 4.58122 20.709 5.68759C20.709 6.79343 21.5436 7.62852 22.65 7.62852C23.7563 7.62852 24.5909 6.79343 24.5909 5.68759ZM19.8957 5.68759C19.8957 4.15385 21.1061 2.99545 22.5985 2.99545C23.5583 2.99545 24.2055 3.47537 24.5288 4.02856H24.5707V1.28439C24.5707 1.04443 24.7379 0.877197 24.988 0.877197C25.2487 0.877197 25.4053 1.04443 25.4053 1.28439V5.69768C25.4053 7.23142 24.1842 8.3792 22.6505 8.3792C21.1268 8.37973 19.8957 7.22133 19.8957 5.68759ZM11.4018 5.68778C11.4018 4.58141 10.5673 3.74685 9.46091 3.74685C8.35453 3.74685 7.51997 4.58141 7.51997 5.68778C7.51997 6.79363 8.35453 7.62872 9.46091 7.62872C10.5673 7.62872 11.4018 6.79363 11.4018 5.68778ZM7.77055 10.1223C7.55129 10.0177 7.44724 9.82979 7.53059 9.61106C7.61394 9.38118 7.82258 9.28775 8.04184 9.3918C8.41771 9.56912 8.88701 9.69441 9.38764 9.69441C10.6294 9.69441 11.3806 8.95329 11.3806 7.69083V7.34628H11.3387C11.0154 7.89947 10.3682 8.3794 9.40835 8.3794C7.92663 8.3794 6.70612 7.23161 6.70612 5.68725C6.70612 4.15351 7.93725 2.99511 9.46091 2.99511C10.9946 2.99511 12.2157 4.1429 12.2157 5.67664V7.63827C12.2157 9.32863 11.1306 10.4658 9.35685 10.4658C8.81428 10.4663 8.27171 10.3623 7.77055 10.1223ZM2.86611 3.74662C3.97249 3.74662 4.80705 4.58118 4.80705 5.68755C4.80705 6.7934 3.97196 7.62849 2.86611 7.62849C1.75974 7.62849 0.925182 6.7934 0.925182 5.68755C0.925182 4.58118 1.75974 3.74662 2.86611 3.74662ZM2.86611 2.99541C1.34246 2.99541 0.111328 4.15381 0.111328 5.68755C0.111328 7.23191 1.33237 8.3797 2.81409 8.3797C3.77394 8.3797 4.42109 7.89977 4.7444 7.34658H4.78634V8.03515C4.78634 8.27511 4.94296 8.44181 5.20362 8.44181C5.45367 8.44181 5.6209 8.27511 5.6209 8.03515V5.67694C5.6209 4.1432 4.39986 2.99541 2.86611 2.99541ZM0.469454 14.7571C0.469454 13.4527 1.5307 12.3914 2.8351 12.3914C4.13949 12.3914 5.20074 13.4527 5.20074 14.7571C5.20074 16.0615 4.13949 17.1227 2.8351 17.1227C1.5307 17.1227 0.469454 16.0615 0.469454 14.7571ZM7.08041 14.7571C7.08041 13.4527 8.14166 12.3914 9.44606 12.3914C10.7505 12.3914 11.8117 13.4527 11.8117 14.7571C11.8117 16.0615 10.7505 17.1227 9.44606 17.1227C8.14166 17.1227 7.08041 16.0615 7.08041 14.7571ZM16.057 12.3914C14.7526 12.3914 13.6914 13.4527 13.6914 14.7571C13.6914 16.0615 14.7526 17.1227 16.057 17.1227C17.3614 17.1227 18.4227 16.0615 18.4227 14.7571C18.4227 13.4527 17.3614 12.3914 16.057 12.3914ZM26.9139 14.7571C26.9139 13.4527 27.9751 12.3914 29.2795 12.3914C30.5839 12.3914 31.6452 13.4527 31.6452 14.7571C31.6452 16.0615 30.5839 17.1227 29.2795 17.1227C27.9751 17.1227 26.9139 16.0615 26.9139 14.7571ZM22.6679 12.3914C21.3635 12.3914 20.3017 13.4527 20.3017 14.7571C20.3017 16.0615 21.363 17.1227 22.6674 17.1227C23.9718 17.1227 25.033 16.0615 25.033 14.7571C25.0336 13.4527 23.9728 12.3914 22.6679 12.3914ZM16.0552 3.74662C17.1615 3.74662 17.9961 4.58118 17.9961 5.68755C17.9961 6.7934 17.1615 7.62849 16.0552 7.62849C14.9488 7.62849 14.1142 6.7934 14.1142 5.68755C14.1142 4.58118 14.9488 3.74662 16.0552 3.74662ZM16.0557 2.99541C14.522 2.99541 13.3009 4.15381 13.3009 5.68755C13.3009 7.22129 14.5214 8.3797 16.0557 8.3797C17.5894 8.3797 18.8105 7.22129 18.8105 5.68755C18.8105 4.15328 17.5894 2.99541 16.0557 2.99541ZM29.2453 3.74662C30.3517 3.74662 31.1862 4.58118 31.1862 5.68755C31.1862 6.7934 30.3511 7.62849 29.2453 7.62849C28.1389 7.62849 27.3043 6.7934 27.3043 5.68755C27.3043 4.58118 28.1389 3.74662 29.2453 3.74662ZM29.2453 2.99541C27.7216 2.99541 26.4905 4.15381 26.4905 5.68755C26.4905 7.23191 27.7115 8.3797 29.1933 8.3797C30.1531 8.3797 30.8003 7.89977 31.1236 7.34658H31.1655V8.03515C31.1655 8.27511 31.3221 8.44181 31.5828 8.44181C31.8328 8.44181 32.0001 8.27511 32.0001 8.03515V5.67694C32.0001 4.1432 30.779 2.99541 29.2453 2.99541Z" fill="black"/>
</svg>
