<svg width="36" height="33" fill="none" xmlns="http://www.w3.org/2000/svg"><path d="M.2 14c-.1 0-.1.1 0 .1s.1-.1 0-.1ZM.2 12.6v-.1c-.1 0-.1.1 0 .1Z" fill="#35545B"/><path d="m35.3 12.6.2-.2.4-.4.1-.1.3-.3v-.1l-.2.1-.2.3a31.6 31.6 0 0 0-.6.7ZM35.9 12.6l-.2.1h-.2.2l.5-.1h.2l.4-.1.1-.1h-.6l-.4.2ZM37 13.4l-.3-.1a13.2 13.2 0 0 0-.8-.2h-.4.2l.5.2h.2l.4.1h.1ZM36.3 14 36 14l-.3-.3-.2-.2-.1-.1.1.2.4.4h.1l.3.4h.1l-.1-.2ZM35.6 14.8v-.2l-.2-.3-.1-.4-.1-.2v-.3.3l.1.5v.2l.2.4c0 .1 0 0 0 0ZM34.6 14.2v.2l-.1.4v.1l.1-.3a13.2 13.2 0 0 0 .2-.7v-.4.2l-.2.5ZM34.6 13.3l-.1.2-.5.4v.1c-.2 0-.3.2-.4.3v.1c.1 0 .2 0 .2-.2l.2-.2.3-.3.2-.2.1-.2ZM34 13.3l.3-.1.2-.1a21.7 21.7 0 0 1-.8.2h-.2l-.3.1-.2.1h.3l.3-.1.4-.1ZM33.3 12.6h.3l.4.1h.2l.3.1h-.3l-.5-.2h-.2l-.3-.1H33l.3.1ZM33.7 11.8l.2.2a30.6 30.6 0 0 0 .7.6l-.2-.2-.4-.4V12c-.2 0-.3-.2-.4-.3h-.1l.2.2ZM34.4 11v.3l.1.3.2.4v.2l.1.2v-.2l-.2-.5v-.2l-.1-.4V11h-.1ZM35.3 11.7v-.2l.1-.4V11v.2l-.2.4a24.4 24.4 0 0 0 0 .6l-.1.2v-.2l.2-.5ZM34.3 10.9v-.2.2ZM33.3 11.4c.1 0 .1 0 0 0ZM32.8 12.4c-.1 0-.1.1 0 .1v-.1ZM32.9 13.5c-.1 0-.1.2 0 .2v-.2ZM33.4 14.5v.1c.1 0 .1 0 0 0ZM34.5 15c-.1 0-.1.2 0 .2v-.1ZM35.6 15v.1c.1 0 .1 0 0 0ZM35.5 10.8c-.1 0-.1 0 0 0ZM35.6 11.9s-.2.1-.3.4a2 2 0 0 0-.3.5l.3-.5.3-.4ZM36 12.3l-.4.2-.5.3.5-.2.4-.3ZM35.7 13h.5l-.5-.1h-.5.5ZM35.6 13.3l.4.3s-.1-.2-.4-.3a2 2 0 0 0-.5-.3l.5.3Z" fill="#ED7969"/><path d="m35.6 14-.2-.4-.3-.5s0 .3.2.5l.3.4ZM35 14.2v-1 1ZM34.6 13.6a2 2 0 0 0-.3.4s.2-.1.3-.4l.3-.5-.3.5ZM33.9 13.6l.4-.2.5-.3-.5.2-.4.3ZM33.7 13h1-1ZM34.8 12.9l-.5-.3a2 2 0 0 0-.4-.3s.1.2.4.3l.5.3ZM34.8 12.8l-.2-.5-.3-.4.2.4.3.5ZM35 12.7v-1l-.1.5v.5Z" fill="#ED7969"/><g opacity=".5"><g opacity=".5" fill="#00A99D"><path opacity=".5" d="M6.6 19.4c0-.2.2-.3.3-.4l1-1s.2 0 .2-.2l.7-.6.2-.3s0-.1-.2 0c-.2 0-.3.2-.4.4A48.1 48.1 0 0 0 6.9 19l-.3.4ZM7.9 19.5l-.5.2-.5.2.5-.1 1.3-.4H9l1-.3.2-.1-.1-.2-.6.2a53.6 53.6 0 0 0-1.6.5ZM10.2 21.2l-.6-.2a35.1 35.1 0 0 0-1.6-.3l-.6-.1H7h.5l1.3.4.3.1 1 .2s.2.1.2 0c.1 0 .1 0 0-.1ZM8.7 22.9A48 48 0 0 0 7 21.4l-.4-.3c.2 0 .3.2.4.3l1 1 .2.2.6.7.3.2s.1-.1 0-.2c0-.2-.2-.3-.4-.4ZM7.2 24.6 7 24l-.2-.7a40 40 0 0 0-.3-1l-.2-.4-.2-.5a32.7 32.7 0 0 1 .6 2.1l.2.9.1.3.2-.1ZM5 23.2l-.1.3-.2 1s-.1.1 0 .2c0 .1 0 .1.1 0l.2-.6a34.6 34.6 0 0 0 .3-1.6l.1-.6v-.5.5L5 23.2ZM5 21.1l-.4.4-1 .9-.2.3-.7.6-.2.3h.2c.2 0 .3-.2.4-.4l.5-.5a58.8 58.8 0 0 0 1-1.2l.3-.4ZM3.6 21l.5-.2.5-.2a31.8 31.8 0 0 1-2.1.5l-.9.3-.3.1.1.2.6-.2a55.2 55.2 0 0 0 1.6-.5ZM1.9 19.5a34.5 34.5 0 0 0 1.7.3H4l.5.2-.5-.2-1.3-.3-.3-.1-1-.3h-.2c-.1 0-.1.1 0 .2l.6.2ZM2.8 17.6a48 48 0 0 0 1.7 1.5l.4.3c-.2 0-.3-.2-.4-.3l-.9-1-.3-.2-.6-.7-.3-.2s-.1 0 0 .2c0 .2.2.3.4.4ZM4.3 15.9l.2.6A53.6 53.6 0 0 0 5 18l.2.5.2.5a33.4 33.4 0 0 1-.5-2.1l-.3-1-.1-.2-.2.1ZM6.5 17.3l.1-.3.3-1v-.2c0-.1-.1-.1-.2 0l-.2.6a34.5 34.5 0 0 0-.3 1.6v.6L6 19l.2-.5.3-1.3ZM4.3 15.5v-.3c-.2 0-.2.3 0 .3ZM2 16.8c.2 0 .2-.3 0-.3s-.2.3 0 .3ZM.7 19c-.1 0-.1.2 0 .2.2 0 .2-.3 0-.3ZM1 21.6c-.3 0-.3.3 0 .3v-.3ZM2.2 23.8c-.2 0-.2.3 0 .3s.2-.3 0-.3ZM4.6 25.1c-.2 0-.2.3 0 .3s.2-.3 0-.3ZM7.2 25v.3c.2 0 .2-.3 0-.3ZM9.4 23.5v.3c.2 0 .2-.3 0-.3ZM10.7 21.3c-.2 0-.2.2 0 .2s.2-.2 0-.2ZM10.7 19c.2 0 .2-.3 0-.3s-.2.2 0 .2ZM9.2 16.6c.2 0 .2-.3 0-.3v.3ZM7 15.4v-.3c-.3 0-.3.3 0 .3Z"/></g><g opacity=".5"><path opacity=".5" d="m6.6 18.8-.7 1 .6-1 .6-1-.5 1ZM7.2 19.5l-1 .5c-.1 0 .3-.4 1-.7l1-.5-1 .7ZM7.4 20.3h1.2L7.4 20l-1.2.1 1.2.1ZM7.1 21.1l-1-.6 1.1.5 1 .7-1-.6ZM6.5 21.7l-.5-1 .6 1 .6 1-.7-1ZM5.7 22v-1.2l.1 1.1v1.2L5.6 22ZM4.8 21.7l.7-1-.5 1-.7 1 .5-1ZM4.2 21l1-.5c.1 0-.3.4-.9.7l-1 .5 1-.6ZM4 20.2h1.2c0 .1-.5.2-1.2.2l-1.2-.1H4ZM4.3 19.4l1 .6-1.1-.5-1-.6s.5.1 1 .5ZM5 18.8l.4 1-.6-1c-.4-.5-.6-1-.5-1l.6 1ZM5.7 19.8v-2.4l-.1 1.2v1.2Z" fill="#FDC236"/></g></g><path d="m29.5 7.8.3-.3.8-.7.2-.3.5-.5.2-.2s0-.1-.1 0c-.2 0-.3.2-.4.3l-.4.4-.5.6-.3.4-.3.3ZM30.6 8h-.4l-.4.2h.4l1-.3.4-.1a264.8 264.8 0 0 0 .8-.4H32a20.5 20.5 0 0 0-1.3.5ZM32.5 9.3l-.4-.1-.6-.2-.8-.1h-.4l-.5-.2.4.1 1 .3.4.1.7.2h.2c.1 0 .1 0 0-.1ZM31.3 10.7l-.4-.4-.7-.6-.3-.2-.3-.3.3.3.7.7.3.3a99 99 0 0 0 .7.5l-.3-.3ZM30 12v-.4a20.2 20.2 0 0 0-.5-1.3l-.2-.4-.1-.4v.4c.2.3.2.7.3 1l.1.3.2.7.1.3.1-.1ZM28.3 11l-.1.2a266 266 0 0 0-.1 1l.1-.5.2-.6.1-.8V10l.2-.4-.1.4-.3 1ZM28.2 9.2l-.3.3-.8.8-.2.2-.5.5-.1.2c0 .1 0 .1 0 0l.4-.2.4-.5.6-.6.2-.3.3-.4ZM27.1 9.1l.4-.1.4-.2-.4.1-1 .3h-.3l-.7.2-.3.2h.6a20.4 20.4 0 0 0 1.3-.5ZM25.7 7.9l.6.1.8.2h.4l.4.1-.4-.1-1-.3h-.3l-.7-.3h-.3v.2h.5ZM26.4 6.4a22 22 0 0 0 1.1.9l.3.3.3.3-.2-.3-.8-.8-.2-.2-.5-.6-.2-.1-.1.1c0 .2.2.3.3.4ZM27.7 5l.1.5a20.4 20.4 0 0 0 .5 1.3l.1.4.2.4-.1-.4-.3-1v-.4a240.5 240.5 0 0 0-.5-.8ZM29.5 6.1v-.3a267.2 267.2 0 0 0 .1-1v.5l-.2.6-.2.8v.4l-.1.5v-.4l.4-1ZM27.6 4.6c.2 0 .2-.2 0-.2-.1 0-.1.2 0 .2ZM25.8 5.7c.2 0 .2-.2 0-.2-.1 0-.1.2 0 .2ZM24.8 7.4c-.2 0-.2.3 0 .3v-.3ZM25 9.6c-.2 0-.2.3 0 .3v-.3ZM26 11.4c-.2 0-.2.3 0 .3v-.3ZM28 12.5c-.2 0-.2.2 0 .2v-.2ZM30 12.4v.2c.2 0 .2-.2 0-.2ZM31.9 11.2c-.2 0-.2.2 0 .2.1 0 .1-.2 0-.2ZM32.9 9.3c-.2 0-.2.3 0 .3v-.3ZM32.9 7.5v-.3c-.2 0-.2.3 0 .3ZM31.7 5.6c.2 0 .2-.3 0-.3v.3ZM29.8 4.6c.2 0 .2-.3 0-.3v.3Z" fill="#FBDD3B"/><path d="m29.6 7.4-.6.8.4-.9.6-.8-.4.9ZM30 7.9l-.8.4.8-.5.9-.5-.9.6ZM30.2 8.6h-1l1-.2 1 .1h-1ZM30 9.3l-.8-.6.9.4.8.6-.9-.4ZM30 10.6l-.4-1-.5-.7.4.8.5.9ZM28.8 10V9l.1 1v.9l-.1-1ZM28.1 9.7l.6-.8-.5.9-.5.8.4-.9ZM27.6 9.2l.9-.4-.8.5-.9.4.8-.5ZM27.5 8.5h1l-1 .1h-1l1-.1ZM27.7 7.8l.8.6-.9-.5-.8-.5.9.4ZM28.2 7.3l.4.9-.5-.8-.5-.9.6.8ZM28.9 7.2v1l-.2-1 .1-1v1Z" fill="#FDC236"/><g opacity=".5"><g opacity=".5"><g opacity=".5"><path opacity=".5" d="m12.8 8.1-1 1.4.8-1.5 1-1.4-.8 1.5Z" fill="#C1272D"/><path opacity=".5" d="m14 5.8-.4.6.4-.7.4-.6-.3.7Z" fill="#6888CA"/><path opacity=".5" d="m14.7 4.7-.2.2v-.3l.3-.2v.3Z" fill="#FDC236"/></g><g opacity=".5"><path opacity=".5" d="M13.6 9c.8-.5 1.5-.9 1.4-1l-1.5.8-1.4 1 1.5-.8Z" fill="#C1272D"/><path opacity=".5" d="m15.9 7.6-.7.4.6-.5.7-.3-.6.4Z" fill="#6888CA"/><path opacity=".5" d="M17 7h-.3L17 7l.3-.1-.2.2Z" fill="#FDC236"/></g><g opacity=".5"><path opacity=".5" d="m14 10.2 1.6-.1-1.7-.1h-1.7c0 .1.8.2 1.7.2Z" fill="#C1272D"/><path opacity=".5" d="M16.6 10.1h-.8 1.5-.7Z" fill="#6888CA"/><path opacity=".5" d="m17.8 10.2-.3-.1.3-.1h.3c0 .1-.1.2-.3.2Z" fill="#FDC236"/></g><g opacity=".5"><path opacity=".5" d="M13.6 11.4c-.8-.5-1.5-.9-1.4-1l1.5.8c.8.4 1.4.9 1.4 1l-1.5-.8Z" fill="#C1272D"/><path opacity=".5" d="m16.6 13-.7-.4-.6-.4.6.4c.3.3.6.4.7.4Z" fill="#6888CA"/><path opacity=".5" d="M17 13.3c-.2 0-.3-.2-.2-.2h.3l.2.3H17Z" fill="#FDC236"/></g><g opacity=".5"><path opacity=".5" d="m12.7 12.2-.8-1.5 1 1.4.7 1.5-1-1.4Z" fill="#C1272D"/><path opacity=".5" d="m14 14.5-.3-.7.4.6.4.7-.5-.6Z" fill="#6888CA"/><path opacity=".5" d="M14.6 15.6v-.3l.2.2v.3l-.2-.2Z" fill="#FDC236"/></g><g opacity=".5"><path opacity=".5" d="m11.6 14.2.1-1.7-.1-1.7-.1 1.7v1.7Z" fill="#C1272D"/><path opacity=".5" d="M11.5 15.1v-.7l.1.7v.8-.8Z" fill="#6888CA"/><path opacity=".5" d="M11.5 16.4v-.3l.2.3-.1.3-.1-.3Z" fill="#FDC236"/></g><g opacity=".5"><path opacity=".5" d="M10.3 12.1c.5-.8.9-1.4 1-1.3l-.8 1.5c-.5.8-.9 1.4-1 1.3l.8-1.5Z" fill="#C1272D"/><path opacity=".5" d="M9.1 14.5c.2-.3.4-.6.3-.7l-.4.7-.3.6.4-.6Z" fill="#6888CA"/><path opacity=".5" d="m8.4 15.5.2-.2v.3l-.3.2v-.3Z" fill="#FDC236"/></g><g opacity=".5"><path opacity=".5" d="m9.6 11.4 1.4-.9-1.5.8c-.8.4-1.5.8-1.4.9l1.5-.8Z" fill="#C1272D"/><path opacity=".5" d="m7.2 12.6.7-.3-.7.4-.6.3.6-.4Z" fill="#6888CA"/><path opacity=".5" d="M6 13.2h.4l-.2.2h-.3l.2-.2Z" fill="#FDC236"/></g><g opacity=".5"><path opacity=".5" d="m9.2 10.3 1.6-.1-1.6-.1H7.5c0 .1.7.2 1.7.2Z" fill="#C1272D"/><path opacity=".5" d="M6.5 10.2h.8-1.5.7Z" fill="#6888CA"/><path opacity=".5" d="m5.3 10.3.2-.1-.2-.1H5c0 .1.1.2.3.2Z" fill="#FDC236"/></g><g opacity=".5"><path opacity=".5" d="m11 9.8-1.5-1L8 8.2l1.4 1 1.5.7Z" fill="#C1272D"/><path opacity=".5" d="m7.2 7.6.6.4s-.3 0-.7-.3l-.6-.4.7.3Z" fill="#6888CA"/><path opacity=".5" d="M6.1 7c.2 0 .3.1.2.2L6 7l-.2-.2h.3Z" fill="#FDC236"/></g><g opacity=".5"><path opacity=".5" d="M11.2 9.5 10.4 8c-.4-.8-.9-1.4-1-1.4l.8 1.6c.5.8.9 1.4 1 1.3Z" fill="#C1272D"/><path opacity=".5" d="m9 5.8.4.6-.4-.6-.4-.6.4.6Z" fill="#6888CA"/><path opacity=".5" d="m8.4 4.7.1.3-.2-.3s-.1-.2 0-.2l.1.2Z" fill="#FDC236"/></g><g opacity=".5"><path opacity=".5" d="m11.5 9.4.1-1.6-.1-1.7-.1 1.7.1 1.6Z" fill="#C1272D"/><path opacity=".5" d="M11.5 5.9V4.4v1.5Z" fill="#6888CA"/><path opacity=".5" d="M11.5 4.1v-.5.5Z" fill="#FDC236"/></g></g><g opacity=".5"><g opacity=".5" fill="#FBDD3B"><path opacity=".5" d="m12.2 9.4.3-.2.7-.7.2-.2.5-.5v-.2c.1 0 0 0 0 0-.2 0-.3.2-.4.3a27 27 0 0 0-.8 1l-.3.2-.2.3ZM13.2 9.6l-.4.1-.4.1h.4l1-.3h.2l.7-.2.2-.1V9h-.5a17.4 17.4 0 0 0-1.2.5ZM15 10.8l-.5-.1-.5-.1-.8-.1-.4-.1h-.3a19 19 0 0 1 1.3.3h.3l.6.2h.3ZM13.8 12l-.4-.3-.6-.5-.3-.2-.3-.3.3.3.7.7.2.2.5.5.2.1c0-.2-.2-.3-.3-.4ZM12.6 13.4v-.5a17.3 17.3 0 0 0-.5-1.2l-.1-.4-.2-.3.1.3.3 1v.3l.2.6.1.3.1-.1ZM11 12.3v.3l-.2.6v.3l.2-.5.1-.5.1-.7.1-.4V11a19 19 0 0 1-.3 1.3ZM11 10.8l-.3.2-.7.7-.2.2-.5.5-.1.2s0 .1 0 0l.4-.2.4-.5.5-.5.2-.3.3-.3ZM10 10.7l.3-.2.4-.1h-.4c-.3.2-.6.2-1 .3h-.2l-.6.3h-.3l.1.2.5-.1a17 17 0 0 0 1.2-.4ZM8.7 9.5a39.1 39.1 0 0 0 1.2.3h.4l.4.1a19 19 0 0 1-1.3-.4H9l-.7-.2h-.2v.1l.5.1ZM9.3 8.1a27.1 27.1 0 0 0 1 .9l.3.2.3.3-.3-.3-.6-.7-.2-.2-.5-.5-.2-.1s-.1 0 0 .1l.2.3ZM10.5 6.9l.1.4.2.5.2.7.2.4.1.3V9c-.2-.3-.2-.7-.3-1l-.1-.2-.2-.7v-.2h-.2ZM12.1 8l.1-.4a262.2 262.2 0 0 0 0-.8v.4a40.5 40.5 0 0 0-.3 1.3v.3l-.1.4A19 19 0 0 1 12 8ZM10.4 6.5c.2 0 .2-.2 0-.2v.2ZM8.8 7.5c.1 0 .1-.2 0-.2-.2 0-.2.2 0 .2ZM7.8 9.1c-.1 0-.1.2 0 .2.2 0 .2-.2 0-.2ZM8 11.1c-.2 0-.2.2 0 .2.1 0 .1-.2 0-.2ZM9 12.8c-.2 0-.2.2 0 .2v-.2ZM10.7 13.8c-.1 0-.1.2 0 .2.2 0 .2-.2 0-.2ZM12.7 13.7c-.1 0-.1.2 0 .2s.1-.2 0-.2ZM14.3 12.6v.2c.2 0 .2-.2 0-.2ZM15.3 10.9c-.2 0-.2.2 0 .2.1 0 .1-.2 0-.2ZM15.3 9.1c.1 0 .1-.2 0-.2-.2 0-.2.2 0 .2ZM14.2 7.4c.1 0 .1-.2 0-.2s-.1.2 0 .2ZM12.4 6.5c.2 0 .2-.2 0-.2v.2Z"/></g><g opacity=".5"><path opacity=".5" d="m12.2 9-.5.8.4-.8.5-.7-.4.8ZM12.7 9.5l-.8.4.7-.5.8-.4-.7.5ZM12.8 10.2 12 10h1.8-.9ZM12.6 10.8l-.7-.5.8.4.7.5-.8-.4ZM12.1 11.2c-.2-.4-.4-.7-.3-.8l.4.8.4.8-.5-.8ZM11.5 11.4v-.9l.1.9v.9-1ZM10.9 11.2c.2-.4.4-.8.5-.7l-.4.8-.5.7.4-.8ZM10.4 10.7l.8-.4-.7.5-.8.4.7-.5ZM10.3 10.2h.9l-1-.1h-.8l.9.1ZM10.5 9.5l.7.5-.8-.4-.7-.5.8.4ZM11 9l.3.8-.5-.7-.4-.8.5.7ZM11.6 8.9v.9l-.1-1V8v.9Z" fill="#FDC236"/></g></g></g><g opacity=".7" fill="#fff"><path opacity=".7" d="M1.5 25v.2h.2l-.1.1v.2H1.3v-.2l-.1-.1h.2V25ZM23.4 22.5v.2h.2l-.1.1v.2H23.2v-.2l-.1-.1h.2v-.2ZM33 27.6v.1h.3l-.2.2v.2-.1h-.3v-.2h.1l.1-.2ZM20.2 25l.1.1h.2l-.1.2v.2l-.2-.1h-.1v-.1L20 25h.2V25ZM3.2 13.7l.1.2h.2l-.2.1v.2H3V14l.1-.1.1-.2ZM13 4.4l.2.2h.2l-.2.2V5l-.1-.1h-.2V4.7h.1v-.2ZM14.3 12.4l.1.1h.2l-.2.1v.2h-.2V12.5l.1-.1ZM33.9 17.1v.2h.2-.1v.3l-.1-.1h-.2v-.2l.2-.2ZM33.5 9v.2h.2-.1v.2h-.2v-.1l-.1-.1h.1V9ZM21.6 2.3v.1h.2l-.1.2v.1H21.4V2.4l.2-.1ZM7 12.9l.1.1h.2l-.1.1v.2H6.9V13l.2-.2ZM2.8 8.1v.2H3V8.6l-.2-.1h-.1l-.1-.2h.1l.1-.2ZM19.2 4h.1l.2.1-.1.1v.2l-.2-.1h-.1V4l.1-.2ZM21.5 6h.2l-.1.2v.1H21.3v-.2h.1v-.2ZM26.9 10.3v.1h.2l-.1.2v.1H26.7v-.2h.1v-.2ZM4.6 26.7v.1h.2V27.2H4.4V27l-.1-.1h.1l.1-.2ZM20.2 9.5l.1.2h.2l-.1.1v.2H20.1v-.2l-.1-.1h.2v-.2Z"/></g><g clip-path="url(#a)"><path opacity=".6" fill-rule="evenodd" clip-rule="evenodd" d="M29.9 13.4h-8v19.4h8V13.4Zm-1.5 10.4H27v1.5h1.5v-1.5Zm-1.5-3h1.5v1.5H27v-1.5Zm1.5-3H27v1.5h1.5v-1.5ZM14 13.4H6v19.4h8V13.4ZM9 23.8H7.5v1.5H9v-1.5Zm-1.5-3H9v1.5H7.5v-1.5Zm1.5-3H7.5v1.5H9v-1.5Z" fill="#fff"/><path fill-rule="evenodd" clip-rule="evenodd" d="M12 8.9h12v23.9H12v-24Zm3 15h1.5v1.4H15v-1.5Zm6 0h-1.6v1.4H21v-1.5Zm-6-3h1.5v1.4H15v-1.5Zm6 0h-1.6v1.4H21v-1.5Zm-6-3h1.5v1.4H15v-1.5Zm6 0h-1.6v1.4H21v-1.5Zm-6-3h1.5v1.4H15V15Zm6 0h-1.6v1.4H21V15Zm-6-3h1.5v1.5H15v-1.5Zm6 0h-1.6v1.5H21v-1.5Z" fill="#FFE8DE"/><path opacity=".5" d="M6 27.5h23.9V29H6v-1.5Z" fill="#fff"/><path d="M15 26.8h6v6h-6v-6Z" fill="#fff" fill-opacity=".9"/></g><path d="M10.5 11.5a.7.7 0 1 0-1.2-.8v-.4a.7.7 0 0 0-1-.4.7.7 0 0 0-.1 1.3h-.4c-.4 0-.7.3-.6.7a.7.7 0 0 0 1.1.5l-.1.3a.7.7 0 1 0 1.4 0l.2.2a.7.7 0 1 0 .5-1.3l.2-.1Z" fill="#FFD1EA" stroke="#FF4C00" stroke-width=".4" stroke-linecap="round" stroke-linejoin="round"/><path d="M10 11.5v-.1h-.2l-.4.1.3-.6.1-.1s0-.1-.1 0c0 0-.1 0 0 0l-.5.6L9 11V11l-.1-.1-.1.2.1.4-.4-.3v-.2s0-.1-.2 0c0 0-.1 0 0 .2h.2l.3.3v.1h-.7c0-.1-.1-.2-.2-.1v.2h.8v.1l-.2.1h-.1s-.1.1 0 .2h.2l.1-.2-.2.6h-.1s-.1.2 0 .2a.2.2 0 0 0 .2-.1l.3-.6H9v.8h.2a.1.1 0 0 0 0-.2l-.1-.6h.1l.4.4a.1.1 0 0 0 .2 0s0-.1-.1 0l-.4-.5.3.1c0 .2 0 .2.1.1 0 0 .1 0 0-.1 0 0 0-.1 0 0h-.1l-.3-.2.4-.2h.1Z" fill="#DD003A"/><path d="M8.3 14.6a1 1 0 1 0-1-1.6c.2-.1.2-.3.2-.5a1 1 0 1 0-1.8.4 1 1 0 1 0-.5 1.6A1 1 0 0 0 5 16a1 1 0 0 0 1.5-.5l.1.3A1 1 0 1 0 8 14.6h.4Z" fill="#FFD1EA" stroke="#FF4C00" stroke-width=".4" stroke-linecap="round" stroke-linejoin="round"/><path d="m7 13.9.7-.4a.2.2 0 1 0-.1-.1l-.7.4-.1-.1.1-.5.1-.1-.1-.2c-.1 0-.2 0-.2.2v.5h-.1l-.2-.6a.2.2 0 0 0-.2-.3s-.2 0-.2.2l.2.2.2.5-.7-.3a.2.2 0 1 0-.3.1h.2l.7.4-.1.1h-.6l.1.3.2-.1h.3l-.7.5h-.1l-.2.1c0 .2 0 .3.2.3a.2.2 0 0 0 .2-.3l.7-.5v.2l-.1.6-.2.2s0 .2.2.2l.1-.2v-.1l.2-.7h.2l.2.7.1.2a.1.1 0 0 0 0-.2l-.2-.7.2.3a.2.2 0 0 0 .3 0 .2.2 0 0 0-.2-.1l-.2-.3V14l.6.1.1.1a.1.1 0 1 0 0-.2H7v-.2Z" fill="#DD003A"/><g opacity=".5"><path opacity=".3" d="M5.1 2.3c.5 1.2 2 1.8 3.3 1.3 1.3-.5 2-1.8 1.5-3C9.5-.8 8-1.5 6.7-.9c-1.3.5-2 1.8-1.6 3Z" fill="url(#b)"/><mask id="c" style="mask-type:alpha" maskUnits="userSpaceOnUse" x="7" y="-1" width="2" height="2"><path d="m8.5.3-.1-.7-1.2.5V1L8.5.3Z" fill="#000"/></mask><g mask="url(#c)"><path d="M8.1 1.9c1-.4 1.6-1.3 1.5-2.1 0-.8-.9-1-1.7-.7-1 .4-1.6 1.3-1.5 2.1 0 .8.8 1 1.7.7Z" fill="url(#d)"/><path d="M8 1.7C9 1.4 9.6.4 9.5-.3c0-.8-.9-1.1-1.8-.8-.9.4-1.5 1.4-1.4 2.2 0 .7.8 1 1.7.6Z" fill="#FFC50D"/><path opacity=".1" d="M8 1.6c.7-.3 1.3-1 1.2-1.7 0-.6-.7-.9-1.4-.5C7-.3 6.5.4 6.6 1c0 .7.7 1 1.4.6Z" fill="#FFFCF2"/><path opacity=".1" d="M8 1.6c.7-.3 1.3-1 1.2-1.7 0-.6-.7-.9-1.4-.5C7-.3 6.5.4 6.6 1c0 .7.7 1 1.4.6Z" fill="#FFFCF1"/><path opacity=".1" d="M8 1.6c.7-.3 1.3-1 1.2-1.7 0-.6-.7-.9-1.4-.5C7-.3 6.5.4 6.6 1c0 .7.7 1 1.4.6Z" fill="#FFFCF1"/><path opacity=".1" d="M8 1.6c.7-.3 1.3-1 1.2-1.7 0-.6-.7-.9-1.4-.5C7-.3 6.5.4 6.6 1c0 .7.7 1 1.4.6Z" fill="#FFFBF0"/><path opacity=".1" d="M8 1.6c.7-.3 1.3-1 1.2-1.7 0-.6-.7-.9-1.4-.5C7-.3 6.5.4 6.6 1c0 .7.7 1 1.4.6Z" fill="#FFFBEF"/><path opacity=".1" d="M8 1.6c.7-.3 1.3-1 1.2-1.7 0-.6-.7-.9-1.4-.5C7-.3 6.5.4 6.6 1c0 .7.7 1 1.4.6Z" fill="#FFFBEE"/><path opacity=".1" d="M8 1.6c.7-.3 1.3-1 1.2-1.7 0-.6-.7-.9-1.4-.5C7-.3 6.5.4 6.6 1c0 .7.7 1 1.4.6Z" fill="#FFFBED"/><path opacity=".1" d="M8 1.6c.7-.3 1.3-1 1.2-1.7 0-.6-.7-.9-1.4-.5C7-.3 6.5.4 6.6 1c0 .7.7 1 1.4.6Z" fill="#FFFBED"/><path opacity=".1" d="M8 1.6c.7-.3 1.3-1 1.2-1.7 0-.6-.7-.9-1.4-.6C7-.3 6.5.4 6.6 1c0 .7.7 1 1.4.6Z" fill="#FFFAEC"/><path opacity=".1" d="M8 1.6c.7-.3 1.3-1 1.2-1.7 0-.6-.7-.9-1.4-.5C7-.3 6.5.4 6.6 1c0 .7.7 1 1.4.6Z" fill="#FFFAEB"/><path opacity=".1" d="M8 1.6c.7-.3 1.3-1 1.2-1.7 0-.6-.7-.9-1.4-.5C7-.3 6.5.4 6.6 1c0 .7.7 1 1.4.6Z" fill="#FFFAEA"/><path opacity=".1" d="M8 1.6c.7-.3 1.3-1 1.2-1.7 0-.6-.7-.9-1.4-.6C7-.3 6.5.4 6.6 1c0 .7.7 1 1.4.6Z" fill="#FFFAE9"/><path opacity=".1" d="M8 1.6c.7-.3 1.3-1 1.2-1.7 0-.6-.7-.9-1.4-.6C7-.3 6.5.4 6.6 1c0 .7.7 1 1.4.6Z" fill="#FFFAE8"/><path opacity=".1" d="M8 1.6c.7-.3 1.2-1 1.2-1.7 0-.6-.7-.9-1.4-.5C7-.3 6.5.4 6.6 1c0 .7.7 1 1.4.6Z" fill="#FFF9E8"/><path opacity=".1" d="M8 1.6c.7-.3 1.2-1 1.2-1.7 0-.6-.7-.9-1.4-.5C7-.3 6.5.4 6.6 1c0 .7.7 1 1.4.6Z" fill="#FFF9E7"/><path opacity=".1" d="M8 1.6c.7-.3 1.2-1 1.2-1.7 0-.6-.7-.9-1.4-.6C7-.3 6.5.4 6.6 1c0 .7.7 1 1.4.6Z" fill="#FFF9E6"/><path opacity=".1" d="M8 1.6c.7-.3 1.2-1 1.2-1.7 0-.6-.7-.9-1.4-.5C7-.3 6.5.4 6.6 1c0 .7.7 1 1.4.6Z" fill="#FFF9E5"/><path opacity=".1" d="M8 1.6c.7-.3 1.2-1 1.2-1.7 0-.6-.7-.9-1.4-.5C7-.3 6.5.4 6.6 1c0 .7.7 1 1.4.6Z" fill="#FFF9E4"/><path opacity=".1" d="M8 1.6c.7-.3 1.2-1 1.2-1.7 0-.6-.7-.9-1.4-.5C7-.3 6.5.4 6.6 1c0 .7.7 1 1.4.6Z" fill="#FFF8E4"/><path opacity=".1" d="M8 1.6c.7-.3 1.2-1 1.2-1.7 0-.6-.7-.9-1.4-.5C7-.3 6.5.4 6.6 1c0 .7.7 1 1.4.6Z" fill="#FFF8E3"/><path opacity=".1" d="M8 1.6c.7-.3 1.2-1 1.2-1.7 0-.6-.7-.9-1.4-.5C7-.3 6.5.4 6.6 1c0 .7.7 1 1.4.6Z" fill="#FFF8E2"/><path opacity=".1" d="M8 1.6c.7-.3 1.2-1 1.2-1.7 0-.6-.7-.9-1.4-.6C7-.3 6.5.4 6.6 1c0 .7.7.9 1.4.6Z" fill="#FFF8E1"/><path opacity=".1" d="M8 1.6c.7-.3 1.2-1 1.2-1.7 0-.6-.7-.9-1.4-.5C7-.3 6.5.4 6.6 1c0 .7.7.9 1.4.6Z" fill="#FFF8E0"/><path opacity=".1" d="M8 1.6c.7-.3 1.2-1 1.2-1.7 0-.6-.7-.9-1.4-.5C7-.3 6.5.4 6.6 1c0 .7.7.9 1.4.6Z" fill="#FFF7E0"/><path opacity=".1" d="M8 1.6c.7-.3 1.2-1 1.2-1.7 0-.6-.7-.9-1.4-.6C7-.3 6.5.4 6.6 1c0 .7.7.9 1.4.6Z" fill="#FFF7DF"/><path opacity=".1" d="M8 1.6c.7-.3 1.2-1 1.2-1.7 0-.6-.7-.9-1.4-.6C7-.3 6.5.4 6.6 1c0 .7.7.9 1.4.6Z" fill="#FFF7DE"/><path opacity=".1" d="M8 1.6c.7-.3 1.2-1 1.2-1.7 0-.6-.7-.9-1.4-.6C7-.3 6.5.4 6.6 1c0 .7.7.9 1.4.6Z" fill="#FFF7DD"/><path opacity=".1" d="M8 1.6c.7-.3 1.2-1 1.2-1.7 0-.6-.7-.9-1.4-.6C7-.3 6.5.4 6.6 1c0 .7.7.9 1.4.6Z" fill="#FFF7DC"/><path opacity=".1" d="M8 1.6c.7-.3 1.2-1 1.2-1.7 0-.6-.7-.9-1.4-.6C7-.3 6.5.4 6.6 1c0 .7.7.9 1.4.6Z" fill="#FFF7DC"/><path opacity=".1" d="M8 1.6c.7-.3 1.2-1 1.2-1.7 0-.6-.7-.9-1.4-.5C7-.3 6.5.4 6.6 1c0 .6.7.9 1.4.6Z" fill="#FFF6DB"/><path opacity=".2" d="M8 1.6c.7-.3 1.2-1 1.2-1.7 0-.6-.7-.9-1.4-.5C7-.3 6.5.4 6.6 1c0 .6.7.9 1.4.6Z" fill="#FFF6DA"/><path opacity=".2" d="M8 1.6c.7-.3 1.2-1 1.2-1.7 0-.6-.7-.9-1.4-.5C7-.3 6.5.4 6.6 1c0 .6.7.9 1.4.6Z" fill="#FFF6D9"/><path opacity=".2" d="M8 1.6c.7-.3 1.2-1 1.2-1.7 0-.6-.7-.9-1.4-.5C7-.3 6.5.4 6.6 1c0 .6.7.9 1.4.6Z" fill="#FFF6D8"/><path opacity=".2" d="M8 1.6c.7-.3 1.2-1 1.2-1.7 0-.6-.7-.9-1.4-.5C7-.3 6.5.4 6.6 1c0 .6.7.9 1.4.6Z" fill="#FFF6D8"/><path opacity=".2" d="M8 1.6c.7-.3 1.2-1 1.2-1.7 0-.6-.7-.9-1.4-.6C7-.3 6.5.4 6.6 1c0 .6.7.9 1.4.6Z" fill="#FFF5D7"/><path opacity=".2" d="M8 1.6c.7-.3 1.2-1 1.2-1.7 0-.6-.7-.9-1.4-.6C7-.3 6.5.4 6.6 1c0 .6.7.9 1.4.6Z" fill="#FFF5D6"/><path opacity=".2" d="M8 1.6c.7-.3 1.2-1 1.2-1.7 0-.6-.7-.9-1.4-.5C7-.3 6.5.4 6.6 1c0 .6.7.9 1.4.6Z" fill="#FFF5D5"/><path opacity=".2" d="M8 1.6c.7-.3 1.2-1 1.2-1.7 0-.6-.7-.9-1.4-.6C7-.3 6.5.4 6.6 1c0 .6.7.9 1.4.6Z" fill="#FFF5D4"/><path opacity=".2" d="M8 1.6c.7-.3 1.2-1 1.2-1.7 0-.6-.7-.9-1.4-.6C7-.3 6.5.4 6.6 1c0 .6.7.9 1.4.6Z" fill="#FFF5D4"/><path opacity=".2" d="M8 1.6c.7-.3 1.2-1 1.2-1.7 0-.6-.7-.9-1.4-.6C7-.3 6.5.4 6.6 1c0 .6.7.9 1.4.6Z" fill="#FFF4D3"/><path opacity=".2" d="M8 1.6c.7-.3 1.2-1 1.2-1.7 0-.6-.7-.9-1.4-.6C7-.3 6.5.4 6.6 1c0 .6.7.9 1.4.6Z" fill="#FFF4D2"/><path opacity=".2" d="M8 1.6c.7-.3 1.2-1 1.2-1.7 0-.6-.7-.9-1.4-.6C7-.3 6.5.4 6.6 1c0 .6.7.9 1.4.6Z" fill="#FFF4D1"/><path opacity=".2" d="M8 1.6c.7-.3 1.2-1 1.2-1.7 0-.6-.7-.9-1.4-.6C7-.3 6.5.4 6.6 1c0 .6.7.9 1.4.6Z" fill="#FFF4D0"/><path opacity=".2" d="M8 1.6c.7-.3 1.2-1 1.2-1.7 0-.6-.7-.9-1.4-.6C7-.3 6.5.4 6.6 1c0 .6.7.9 1.4.6Z" fill="#FFF4D0"/><path opacity=".2" d="M8 1.6c.7-.3 1.2-1 1.2-1.7 0-.6-.7-.9-1.4-.6C7-.3 6.6.4 6.6 1c0 .6.7.9 1.4.6Z" fill="#FFF3CF"/><path opacity=".2" d="M8 1.6c.7-.3 1.2-1 1.2-1.7 0-.6-.7-.9-1.4-.5C7-.3 6.6.4 6.6 1c0 .6.7.9 1.4.6Z" fill="#FFF3CE"/><path opacity=".2" d="M8 1.6c.7-.3 1.2-1 1.2-1.7 0-.6-.7-.9-1.4-.6C7-.3 6.6.4 6.6 1c0 .6.7.9 1.4.6Z" fill="#FFF3CD"/><path opacity=".2" d="M8 1.6c.7-.3 1.2-1 1.2-1.7 0-.6-.7-.9-1.4-.6C7-.3 6.6.4 6.6 1c0 .6.7.9 1.4.6Z" fill="#FFF3CC"/><path opacity=".2" d="M8 1.6c.7-.3 1.2-1 1.2-1.7 0-.6-.7-.9-1.4-.6C7-.3 6.5.4 6.6 1c0 .6.7.9 1.4.6Z" fill="#FFF3CC"/><path opacity=".2" d="M8 1.6c.7-.3 1.2-1 1.2-1.7 0-.6-.7-.9-1.4-.5C7-.3 6.6.4 6.6 1c0 .6.7.9 1.4.6Z" fill="#FFF2CB"/><path opacity=".2" d="M8 1.6c.7-.3 1.2-1 1.2-1.7 0-.6-.7-.9-1.4-.6C7-.3 6.6.4 6.6 1c0 .6.7.9 1.4.6Z" fill="#FFF2CA"/><path opacity=".2" d="M8 1.6c.7-.3 1.2-1 1.2-1.7 0-.6-.7-.9-1.4-.6C7-.3 6.6.4 6.6 1c0 .6.7.9 1.4.6Z" fill="#FFF2C9"/><path opacity=".2" d="M8 1.6c.7-.3 1.2-1 1.2-1.7 0-.6-.7-.9-1.4-.6C7-.3 6.6.4 6.6 1c0 .6.7.9 1.4.6Z" fill="#FFF2C8"/><path opacity=".2" d="M8 1.6c.7-.3 1.2-1 1.2-1.7 0-.6-.7-.9-1.4-.6C7-.3 6.6.4 6.6 1c0 .6.7.9 1.4.6Z" fill="#FFF2C8"/><path opacity=".2" d="M8 1.6c.7-.3 1.2-1 1.2-1.7 0-.6-.7-.9-1.4-.6C7-.3 6.6.4 6.6 1c0 .6.7.9 1.4.6Z" fill="#FFF2C7"/><path opacity=".2" d="M8 1.6c.7-.3 1.2-1 1.2-1.7 0-.6-.7-.9-1.4-.6C7-.3 6.6.4 6.6 1c0 .6.7.9 1.4.6Z" fill="#FFF1C6"/><path opacity=".2" d="M8 1.6c.7-.3 1.2-1 1.2-1.7 0-.6-.7-.9-1.4-.6C7-.3 6.6.4 6.6 1c0 .6.7.9 1.4.6Z" fill="#FFF1C5"/><path opacity=".2" d="M8 1.6c.7-.3 1.2-1 1.2-1.7 0-.6-.7-.9-1.4-.6C7-.3 6.6.4 6.6 1c0 .6.7.9 1.4.6Z" fill="#FFF1C4"/><path opacity=".2" d="M8 1.6c.7-.3 1.2-1 1.2-1.7 0-.6-.7-.9-1.4-.5C7-.3 6.6.4 6.6 1c0 .6.7.9 1.4.6Z" fill="#FFF1C4"/><path opacity=".2" d="M8 1.6C8.7 1.2 9.2.5 9.2-.1c0-.6-.7-.9-1.4-.6C7-.3 6.6.4 6.6 1c0 .6.7.9 1.4.6Z" fill="#FFF1C3"/><path opacity=".3" d="M8 1.6C8.7 1.2 9.2.5 9.2-.1c0-.6-.7-.9-1.4-.6C7-.3 6.6.4 6.6 1c0 .6.7.9 1.4.6Z" fill="#FFF0C2"/><path opacity=".3" d="M8 1.6C8.7 1.2 9.2.5 9.2-.1 9-.7 8.5-1 7.8-.7 7-.3 6.6.4 6.6 1c0 .6.7.9 1.4.6Z" fill="#FFF0C1"/><path opacity=".3" d="M8 1.6C8.7 1.2 9.2.5 9.2-.1 9-.7 8.5-1 7.8-.7 7-.3 6.6.4 6.6 1c0 .6.7.9 1.4.6Z" fill="#FFF0C0"/><path opacity=".3" d="M8 1.6C8.7 1.2 9.2.5 9.2-.1 9-.7 8.5-1 7.8-.7 7-.3 6.6.4 6.6 1c0 .6.7.9 1.4.6Z" fill="#FFF0BF"/><path opacity=".3" d="M8 1.6C8.7 1.2 9.2.5 9.2-.1 9-.7 8.5-1 7.8-.7 7-.3 6.6.4 6.6 1c0 .6.7.9 1.4.6Z" fill="#FFF0BF"/><path opacity=".3" d="M8 1.6C8.7 1.2 9.2.5 9.2-.1 9-.7 8.5-1 7.8-.7 7-.3 6.6.4 6.6 1c0 .6.7.9 1.4.6Z" fill="#FFEFBE"/><path opacity=".3" d="M8 1.6C8.7 1.2 9.2.5 9.2-.1 9-.7 8.5-1 7.8-.7 7-.3 6.6.4 6.6 1c0 .6.7.9 1.4.6Z" fill="#FFEFBD"/><path opacity=".3" d="M8 1.6C8.7 1.2 9.2.5 9.2-.1 9-.7 8.5-1 7.8-.7 7-.3 6.6.4 6.6 1c0 .6.7.9 1.4.6Z" fill="#FFEFBC"/><path opacity=".3" d="M8 1.6C8.7 1.2 9.2.5 9.2-.1 9-.7 8.5-1 7.8-.7 7-.3 6.6.4 6.6 1c0 .6.7.9 1.4.6Z" fill="#FFEFBB"/><path opacity=".3" d="M8 1.5c.7-.3 1.2-1 1.2-1.6C9-.7 8.5-1 7.8-.7 7-.3 6.6.4 6.6 1c0 .6.7.9 1.4.5Z" fill="#FFEFBB"/><path opacity=".3" d="M8 1.5c.7-.3 1.2-1 1.2-1.6C9-.7 8.5-1 7.8-.7 7-.3 6.6.4 6.6 1c0 .6.7.9 1.4.5Z" fill="#FFEEBA"/><path opacity=".3" d="M8 1.5c.7-.3 1.2-1 1.2-1.6C9-.7 8.5-1 7.8-.7 7-.3 6.6.4 6.6 1c0 .6.7.9 1.4.5Z" fill="#FFEEB9"/><path opacity=".3" d="M8 1.5c.7-.3 1.2-1 1.2-1.6C9-.7 8.5-1 7.8-.7 7-.3 6.6.4 6.6 1c0 .6.7.9 1.4.5Z" fill="#FFEEB8"/><path opacity=".3" d="M8 1.5c.7-.3 1.2-1 1.2-1.6C9-.7 8.5-1 7.8-.7 7-.3 6.6.4 6.6 1c0 .6.7.9 1.4.5Z" fill="#FFEEB7"/><path opacity=".3" d="M8 1.5c.7-.3 1.2-1 1.2-1.6C9-.7 8.5-1 7.8-.7 7-.3 6.6.4 6.6 1c0 .6.7.9 1.4.5Z" fill="#FFEEB7"/><path opacity=".3" d="M8 1.5c.7-.3 1.2-1 1.2-1.6C9-.7 8.5-1 7.8-.7 7-.3 6.6.4 6.6 1c0 .6.7.9 1.4.5Z" fill="#FFEDB6"/><path opacity=".3" d="M8 1.5c.7-.3 1.2-1 1.2-1.6C9-.7 8.5-1 7.8-.7 7-.3 6.6.4 6.6 1c0 .6.7.9 1.4.5Z" fill="#FFEDB5"/><path opacity=".3" d="M8 1.5c.7-.3 1.2-1 1.2-1.6C9-.7 8.5-1 7.8-.7 7-.3 6.6.4 6.6 1c0 .6.7.9 1.4.5Z" fill="#FFEDB4"/><path opacity=".3" d="M8 1.5c.7-.3 1.2-1 1.2-1.6C9-.7 8.5-1 7.8-.7 7-.3 6.6.3 6.6 1c0 .6.7.9 1.4.5Z" fill="#FFEDB3"/><path opacity=".3" d="M8 1.5c.7-.3 1.2-1 1.2-1.6C9-.7 8.5-1 7.8-.7 7-.3 6.6.3 6.6 1c0 .6.7.9 1.4.5Z" fill="#FFEDB3"/><path opacity=".3" d="M8 1.5c.7-.3 1.2-1 1.2-1.6C9-.7 8.5-1 7.8-.7 7-.3 6.6.4 6.6 1c0 .6.7.8 1.4.5Z" fill="#FFEDB2"/><path opacity=".3" d="M8 1.5c.7-.3 1.2-1 1.2-1.6C9-.7 8.5-1 7.8-.7 7-.3 6.6.4 6.6 1c0 .6.7.8 1.4.5Z" fill="#FFECB1"/><path opacity=".3" d="M8 1.5c.7-.3 1.2-1 1.2-1.6C9-.7 8.5-1 7.8-.7 7-.3 6.6.3 6.6 1c0 .6.7.8 1.4.5Z" fill="#FFECB0"/><path opacity=".3" d="M8 1.5c.7-.3 1.2-1 1.2-1.6C9-.7 8.5-1 7.8-.7 7-.3 6.6.3 6.6 1c0 .6.7.8 1.4.5Z" fill="#FFECAF"/><path opacity=".3" d="M8 1.5c.7-.3 1.2-1 1.2-1.6C9-.7 8.5-1 7.8-.7 7-.3 6.6.3 6.6 1c0 .6.7.8 1.4.5Z" fill="#FFECAF"/><path opacity=".3" d="M8 1.5c.7-.3 1.2-1 1.2-1.6C9-.7 8.5-1 7.8-.7 7-.3 6.6.3 6.6 1c0 .6.7.8 1.4.5Z" fill="#FFECAE"/><path opacity=".3" d="M8 1.5c.7-.3 1.2-1 1.2-1.6C9-.7 8.5-1 7.8-.7 7-.3 6.6.3 6.6 1c0 .6.7.8 1.4.5Z" fill="#FFEBAD"/><path opacity=".3" d="M8 1.5c.7-.3 1.2-1 1.2-1.6C9-.7 8.5-1 7.8-.7 7-.3 6.6.3 6.6 1c0 .6.7.8 1.4.5Z" fill="#FFEBAC"/><path opacity=".3" d="M8 1.5c.7-.3 1.2-1 1.2-1.6C9-.7 8.5-1 7.8-.7 7-.3 6.6.3 6.6 1c0 .6.7.8 1.4.5Z" fill="#FFEBAB"/><path opacity=".3" d="M8 1.5c.7-.3 1.2-1 1.2-1.6C9-.7 8.5-1 7.8-.7 7-.3 6.6.3 6.6 1c0 .6.7.8 1.4.5Z" fill="#FFEBAB"/><path opacity=".4" d="M8 1.5c.7-.3 1.2-1 1.2-1.6C9-.7 8.5-1 7.8-.7 7-.3 6.6.3 6.6 1c0 .6.7.8 1.4.5Z" fill="#FFEBAA"/><path opacity=".4" d="M8 1.5c.7-.3 1.2-1 1.2-1.6C9-.7 8.5-1 7.8-.7 7-.3 6.6.3 6.6 1c0 .6.7.8 1.4.5Z" fill="#FFEAA9"/><path opacity=".4" d="M8 1.5c.7-.3 1.2-1 1.1-1.6 0-.6-.6-.9-1.3-.6C7-.3 6.6.3 6.6 1c0 .6.7.8 1.4.5Z" fill="#FFEAA8"/><path opacity=".4" d="M8 1.5c.7-.3 1.2-1 1.1-1.6 0-.6-.6-.9-1.3-.6C7-.3 6.6.3 6.6 1c0 .6.7.8 1.4.5Z" fill="#FFEAA7"/><path opacity=".4" d="M8 1.5c.7-.3 1.2-1 1.1-1.6 0-.6-.6-.9-1.3-.6C7-.3 6.6.3 6.6 1c0 .6.7.8 1.4.5Z" fill="#FFEAA7"/><path opacity=".4" d="M8 1.5c.7-.3 1.2-1 1.1-1.6 0-.6-.6-.9-1.3-.6C7-.3 6.6.3 6.6 1c0 .6.7.8 1.4.5Z" fill="#FFEAA6"/><path opacity=".4" d="M8 1.5c.7-.3 1.2-1 1.1-1.6 0-.6-.6-.9-1.3-.6C7-.3 6.6.3 6.6 1c0 .6.7.8 1.4.5Z" fill="#FFE9A5"/><path opacity=".4" d="M8 1.5c.7-.3 1.2-1 1.1-1.6 0-.6-.6-.9-1.3-.6C7-.3 6.6.3 6.6 1c0 .6.7.8 1.4.5Z" fill="#FFE9A4"/><path opacity=".4" d="M8 1.5c.7-.3 1.2-1 1.1-1.6 0-.6-.6-.9-1.3-.6C7-.3 6.6.3 6.6 1c0 .6.7.8 1.4.5Z" fill="#FFE9A3"/><path opacity=".4" d="M8 1.5c.7-.3 1.2-1 1.1-1.6 0-.6-.6-.9-1.3-.6C7-.3 6.6.3 6.6 1c0 .6.7.8 1.4.5Z" fill="#FFE9A3"/><path opacity=".4" d="M8 1.5c.7-.3 1.2-1 1.1-1.6 0-.6-.6-.9-1.3-.6C7-.3 6.6.3 6.6 1c0 .6.7.8 1.4.5Z" fill="#FFE9A2"/><path opacity=".4" d="M8 1.5c.7-.3 1.2-1 1.1-1.6 0-.6-.6-.9-1.3-.6C7-.3 6.6.3 6.6 1c0 .6.7.8 1.4.5Z" fill="#FFE8A1"/><path opacity=".4" d="M8 1.5c.7-.3 1.2-1 1.1-1.6 0-.6-.6-.9-1.3-.6C7-.4 6.6.3 6.6 1c0 .6.7.8 1.4.5Z" fill="#FFE8A0"/><path opacity=".4" d="M8 1.5c.7-.3 1.2-1 1.1-1.6 0-.6-.6-.9-1.3-.6C7-.3 6.6.3 6.6 1c0 .6.7.8 1.4.5Z" fill="#FFE89F"/><path opacity=".4" d="M8 1.5c.7-.3 1.2-1 1.1-1.6 0-.6-.6-.9-1.3-.6C7-.4 6.6.3 6.6 1c0 .6.7.8 1.4.5Z" fill="#FFE89F"/><path opacity=".4" d="M8 1.5c.7-.3 1.2-1 1.1-1.6 0-.6-.6-.9-1.3-.6C7-.4 6.6.3 6.6 1c0 .6.7.8 1.4.5Z" fill="#FFE89E"/><path opacity=".4" d="M8 1.5c.7-.3 1.2-1 1.1-1.6 0-.6-.6-.9-1.3-.6C7-.4 6.6.3 6.6 1c0 .6.7.8 1.4.5Z" fill="#FFE79D"/><path opacity=".4" d="M8 1.5c.7-.3 1.2-1 1.1-1.6 0-.6-.6-.9-1.3-.6C7-.4 6.6.3 6.6 1c0 .6.7.8 1.4.5Z" fill="#FFE79C"/><path opacity=".4" d="M8 1.5c.7-.3 1.2-1 1.1-1.6 0-.6-.6-.9-1.3-.6C7-.4 6.6.3 6.6 1c0 .6.7.8 1.4.5Z" fill="#FFE79B"/><path opacity=".4" d="M8 1.5c.7-.3 1.2-1 1.1-1.6 0-.6-.6-.9-1.3-.6C7-.4 6.6.3 6.6 1c.1.6.7.8 1.4.5Z" fill="#FFE79B"/><path opacity=".4" d="M8 1.5c.7-.3 1.2-1 1.1-1.6 0-.6-.6-.9-1.3-.6C7-.4 6.6.3 6.6 1c.1.6.7.8 1.4.5Z" fill="#FFE79A"/><path opacity=".4" d="M8 1.5c.7-.3 1.2-1 1.1-1.6 0-.6-.6-.9-1.3-.6C7-.4 6.6.3 6.6 1c.1.6.7.8 1.4.5Z" fill="#FFE799"/><path opacity=".4" d="M8 1.5c.7-.3 1.2-1 1.1-1.6 0-.6-.6-.9-1.3-.6C7-.3 6.6.3 6.6 1c.1.6.7.8 1.4.5Z" fill="#FFE698"/><path opacity=".4" d="M8 1.5c.7-.3 1.2-1 1.1-1.6 0-.6-.6-.9-1.3-.6C7-.4 6.6.3 6.6 1c.1.6.7.8 1.4.5Z" fill="#FFE697"/><path opacity=".4" d="M8 1.5c.7-.3 1.2-1 1.1-1.6 0-.6-.6-.9-1.3-.6C7-.4 6.6.3 6.6 1c.1.6.7.8 1.4.5Z" fill="#FFE696"/><path opacity=".4" d="M8 1.5c.7-.3 1.2-1 1.1-1.6 0-.6-.6-.9-1.3-.6C7-.4 6.6.3 6.6 1c.1.6.7.8 1.4.5Z" fill="#FFE696"/><path opacity=".4" d="M8 1.5c.7-.3 1.2-1 1.1-1.6 0-.6-.6-.9-1.3-.6C7-.3 6.6.3 6.6 1c.1.6.7.8 1.4.5Z" fill="#FFE695"/><path opacity=".4" d="M8 1.5c.7-.3 1.2-1 1.1-1.6 0-.6-.6-.9-1.3-.6C7-.4 6.6.3 6.6 1c.1.6.7.8 1.4.5Z" fill="#FFE594"/><path opacity=".4" d="M8 1.5c.7-.3 1.2-1 1.1-1.6 0-.6-.6-.9-1.3-.6C7-.4 6.6.3 6.6 1c.1.6.7.8 1.4.5Z" fill="#FFE593"/><path opacity=".4" d="M8 1.5c.7-.3 1.2-1 1.1-1.6 0-.6-.6-.9-1.3-.6C7-.4 6.6.3 6.6 1c.1.6.7.8 1.4.5Z" fill="#FFE592"/><path opacity=".5" d="M8 1.5c.7-.3 1.2-1 1.1-1.6 0-.6-.6-.9-1.3-.6C7-.4 6.6.3 6.6 1c.1.6.7.8 1.4.5Z" fill="#FFE592"/><path opacity=".5" d="M8 1.5c.7-.3 1.2-1 1.1-1.6 0-.6-.6-.9-1.3-.6C7-.4 6.6.3 6.6 1c.1.6.7.8 1.4.5Z" fill="#FFE591"/><path opacity=".5" d="M8 1.5c.7-.3 1.2-1 1.1-1.6 0-.6-.6-.9-1.3-.6C7-.4 6.6.3 6.6 1c.1.6.7.8 1.4.5Z" fill="#FFE490"/><path opacity=".5" d="M8 1.5c.7-.3 1.2-1 1.1-1.6 0-.6-.6-.9-1.3-.6C7-.4 6.6.3 6.6 1c.1.6.7.8 1.4.5Z" fill="#FFE48F"/><path opacity=".5" d="M8 1.5c.7-.3 1.2-1 1.1-1.6 0-.6-.6-.9-1.3-.6C7-.4 6.6.3 6.6 1c.1.6.7.8 1.4.5Z" fill="#FFE48E"/><path opacity=".5" d="M8 1.5c.7-.3 1.2-1 1.1-1.6 0-.6-.6-.9-1.3-.6C7-.3 6.6.3 6.6 1c.1.6.7.8 1.4.5Z" fill="#FFE48E"/><path opacity=".5" d="M8 1.5c.7-.3 1.2-1 1.1-1.6 0-.6-.6-.9-1.3-.6C7-.4 6.6.3 6.6 1c.1.6.7.8 1.4.5Z" fill="#FFE48D"/><path opacity=".5" d="M8 1.5c.7-.3 1.2-1 1.1-1.6 0-.6-.6-.9-1.3-.6C7-.4 6.6.3 6.6 1c.1.6.7.8 1.4.5Z" fill="#FFE38C"/><path opacity=".5" d="M8 1.5C8.7 1.2 9.2.5 9-.1c0-.6-.6-.9-1.3-.6C7-.4 6.6.3 6.6 1c.1.6.7.8 1.4.5Z" fill="#FFE38B"/><path opacity=".5" d="M8 1.5C8.7 1.2 9.2.5 9-.1c0-.6-.6-.9-1.3-.6C7-.4 6.6.3 6.6 1c.1.6.7.8 1.4.5Z" fill="#FFE38A"/><path opacity=".5" d="M8 1.5C8.7 1.2 9.2.5 9-.1c0-.6-.6-.9-1.3-.6C7-.4 6.6.3 6.6 1c.1.6.7.8 1.4.5Z" fill="#FFE38A"/><path opacity=".5" d="M8 1.5C8.7 1.2 9.2.5 9-.1c0-.6-.6-.9-1.3-.6C7-.4 6.6.3 6.6 1c.1.6.7.8 1.4.5Z" fill="#FFE389"/><path opacity=".5" d="M8 1.5C8.7 1.2 9.2.5 9-.1c0-.6-.6-.9-1.3-.6C7-.4 6.6.3 6.6 1c.1.6.7.8 1.4.5Z" fill="#FFE288"/><path opacity=".5" d="M8 1.5C8.7 1.2 9.2.5 9-.1c0-.6-.6-.9-1.3-.6C7-.4 6.6.3 6.6 1c.1.6.7.8 1.4.5Z" fill="#FFE287"/><path opacity=".5" d="M8 1.5C8.7 1.2 9.2.5 9-.1c0-.6-.6-.9-1.3-.6C7-.4 6.6.3 6.6 1c.1.6.7.8 1.4.5Z" fill="#FFE286"/><path opacity=".5" d="M8 1.5C8.7 1.2 9.2.5 9-.1c0-.6-.6-.9-1.3-.6C7-.4 6.6.3 6.6 1c.1.6.7.8 1.4.5Z" fill="#FFE286"/><path opacity=".5" d="M8 1.5C8.7 1.2 9.2.5 9-.1c0-.6-.6-.9-1.3-.6C7-.4 6.6.3 6.6 1c.1.6.7.8 1.4.5Z" fill="#FFE285"/><path opacity=".5" d="M8 1.5C8.7 1.2 9.2.5 9-.1c0-.6-.6-.9-1.3-.6C7-.4 6.6.3 6.6 1c.1.6.7.8 1.4.5Z" fill="#FFE284"/><path opacity=".5" d="M8 1.5C8.7 1.2 9.2.5 9-.1c0-.6-.6-.9-1.3-.6C7-.4 6.6.3 6.6 1c.1.6.7.8 1.4.5Z" fill="#FFE183"/><path opacity=".5" d="M8 1.5C8.7 1.2 9.2.5 9-.1c0-.6-.6-.9-1.3-.6C7-.4 6.6.3 6.6 1c.1.6.7.8 1.4.5Z" fill="#FFE182"/><path opacity=".5" d="M8 1.5C8.7 1.2 9.2.5 9-.1c0-.6-.6-.9-1.3-.6C7-.4 6.6.3 6.6 1c.1.6.7.8 1.4.5Z" fill="#FFE182"/><path opacity=".5" d="M8 1.5C8.7 1.2 9.2.5 9-.1c0-.6-.6-.9-1.3-.6C7-.4 6.6.3 6.6 1c.1.6.7.8 1.4.5Z" fill="#FFE181"/><path opacity=".5" d="M8 1.5C8.7 1.2 9.2.5 9-.1c0-.6-.6-.9-1.3-.6C7-.4 6.6.3 6.6 1c.1.6.7.8 1.4.5Z" fill="#FFE180"/><path opacity=".5" d="M8 1.5C8.7 1.2 9.2.5 9-.1c0-.6-.6-.9-1.3-.6C7-.4 6.6.3 6.6 1c.1.6.7.8 1.4.5Z" fill="#FFE07F"/><path opacity=".5" d="M8 1.5C8.7 1.2 9.2.5 9-.1c0-.6-.6-.9-1.3-.6C7-.4 6.6.3 6.6 1c.1.6.7.8 1.4.5Z" fill="#FFE07E"/><path opacity=".5" d="M8 1.5C8.7 1.2 9.2.5 9-.1c0-.6-.6-.9-1.3-.6C7-.4 6.6.3 6.6 1c.1.6.7.8 1.4.5Z" fill="#FFE07E"/><path opacity=".5" d="M8 1.5C8.7 1.2 9.2.5 9-.1c0-.6-.6-.9-1.3-.6C7-.4 6.6.3 6.7 1c0 .5.6.8 1.3.5Z" fill="#FFE07D"/><path opacity=".5" d="M8 1.5C8.7 1.2 9.2.5 9-.1c0-.6-.6-.9-1.3-.6C7-.4 6.6.3 6.7 1c0 .5.6.8 1.3.5Z" fill="#FFE07C"/><path opacity=".5" d="M8 1.5C8.7 1.2 9.2.5 9-.1c0-.6-.6-.9-1.3-.6C7-.4 6.6.3 6.7 1c0 .5.6.8 1.3.5Z" fill="#FFDF7B"/><path opacity=".5" d="M8 1.5C8.7 1.2 9.2.5 9-.1c0-.6-.6-.9-1.3-.6C7-.4 6.6.3 6.7 1c0 .5.6.8 1.3.5Z" fill="#FFDF7A"/><path opacity=".6" d="M8 1.5C8.7 1.2 9.2.5 9-.1c0-.6-.6-.9-1.3-.6C7-.4 6.6.3 6.7 1c0 .5.6.8 1.3.5Z" fill="#FFDF7A"/><path opacity=".6" d="M8 1.5C8.7 1.2 9.2.5 9-.1c0-.6-.6-.9-1.3-.6C7-.4 6.6.3 6.7 1c0 .5.6.8 1.3.5Z" fill="#FFDF79"/><path opacity=".6" d="M8 1.5C8.7 1.2 9.2.5 9-.1c0-.6-.6-.9-1.3-.6C7-.4 6.6.3 6.7 1c0 .5.6.8 1.3.5Z" fill="#FFDF78"/><path opacity=".6" d="M8 1.5C8.7 1.2 9.2.5 9-.1c0-.6-.6-.9-1.3-.6C7-.4 6.6.3 6.7 1c0 .5.6.8 1.3.5Z" fill="#FFDE77"/><path opacity=".6" d="M8 1.5C8.7 1.2 9.2.5 9-.1c0-.6-.6-.9-1.3-.6C7-.4 6.6.3 6.7 1c0 .5.6.8 1.3.5Z" fill="#FFDE76"/><path opacity=".6" d="M8 1.5C8.7 1.2 9.2.5 9-.1c0-.6-.6-.9-1.3-.6C7-.4 6.6.3 6.7 1c0 .5.6.8 1.3.5Z" fill="#FFDE76"/><path opacity=".6" d="M8 1.5C8.7 1.2 9.2.5 9-.1c0-.6-.6-.9-1.3-.6C7-.4 6.6.3 6.7 1c0 .5.6.8 1.3.5Z" fill="#FFDE75"/><path opacity=".6" d="M8 1.5C8.7 1.2 9.2.5 9-.1c0-.6-.6-.9-1.3-.6C7-.4 6.6.3 6.7 1c0 .5.6.8 1.3.5Z" fill="#FFDE74"/><path opacity=".6" d="M8 1.5C8.7 1.2 9.2.5 9-.1c0-.6-.6-.9-1.3-.6C7-.4 6.6.3 6.7 1c0 .5.6.8 1.3.5Z" fill="#FFDD73"/><path opacity=".6" d="M8 1.5C8.7 1.2 9.2.5 9-.1c0-.6-.6-.9-1.3-.6C7-.4 6.6.3 6.7 1c0 .5.6.8 1.3.5Z" fill="#FFDD72"/><path opacity=".6" d="M8 1.5C8.7 1.2 9.2.5 9-.1c0-.6-.6-.9-1.3-.6C7-.4 6.6.3 6.7 1c0 .5.6.8 1.3.5Z" fill="#FFDD71"/><path opacity=".6" d="M8 1.5C8.7 1.2 9.2.5 9-.1c0-.6-.6-.9-1.3-.6C7-.4 6.6.3 6.7 1c0 .6.6.9 1.3.6Z" fill="#FFDD71"/><path opacity=".6" d="M8 1.5C8.7 1.2 9.2.5 9-.1c0-.6-.6-.9-1.3-.6C7-.4 6.6.3 6.7 1c0 .6.6.9 1.3.6Z" fill="#FFDD70"/><path opacity=".6" d="M8 1.5C8.7 1.2 9.2.5 9-.1c0-.6-.6-.9-1.3-.6C7-.4 6.6.3 6.7 1c0 .6.6.9 1.3.6Z" fill="#FFDD6F"/><path opacity=".6" d="M8 1.5C8.7 1.2 9.2.5 9-.1c0-.6-.6-.9-1.3-.6C7-.4 6.6.3 6.7 1c0 .6.6.9 1.3.6Z" fill="#FFDC6E"/><path opacity=".6" d="M8 1.5C8.7 1.2 9.2.5 9-.1c0-.6-.6-.9-1.3-.6C7-.4 6.6.3 6.7 1c0 .6.6.9 1.3.6Z" fill="#FFDC6D"/><path opacity=".6" d="M8 1.5C8.7 1.2 9.2.5 9-.1c0-.6-.6-.9-1.3-.6C7-.4 6.6.3 6.7 1c0 .6.6.9 1.3.6Z" fill="#FFDC6D"/><path opacity=".6" d="M8 1.5C8.7 1.2 9.2.5 9-.1c0-.6-.6-.9-1.3-.6C7-.4 6.6.3 6.7 1c0 .6.6.9 1.3.6Z" fill="#FFDC6C"/><path opacity=".6" d="M8 1.5C8.7 1.2 9.2.5 9-.1c0-.6-.6-.9-1.3-.6C7-.4 6.6.3 6.7 1c0 .6.6.9 1.3.6Z" fill="#FFDC6B"/><path opacity=".6" d="M8 1.5C8.7 1.2 9.2.5 9-.1c0-.6-.6-.9-1.3-.6C7-.4 6.6.3 6.7 1c0 .6.6.9 1.3.6Z" fill="#FFDB6A"/><path opacity=".6" d="M8 1.5C8.7 1.2 9.2.5 9-.1c0-.6-.6-.9-1.3-.6C7-.4 6.6.3 6.7 1c0 .6.6.9 1.3.6Z" fill="#FFDB69"/><path opacity=".6" d="M8 1.5C8.7 1.2 9.2.5 9-.1c0-.6-.6-.9-1.3-.6C7-.4 6.6.3 6.7 1c0 .6.6.9 1.3.6Z" fill="#FFDB69"/><path opacity=".6" d="M8 1.5C8.7 1.2 9.2.5 9-.1c0-.6-.6-.9-1.3-.6C7-.4 6.6.3 6.7 1c0 .6.6.9 1.3.6Z" fill="#FFDB68"/><path opacity=".6" d="M8 1.5C8.7 1.2 9.2.5 9-.1c0-.6-.6-.9-1.3-.6C7-.4 6.6.3 6.7 1c0 .6.6.9 1.3.6Z" fill="#FFDB67"/><path opacity=".6" d="M8 1.5C8.7 1.2 9.2.5 9-.1c0-.6-.6-.9-1.3-.6C7-.4 6.6.3 6.7 1c0 .6.6.9 1.3.6Z" fill="#FFDA66"/><path opacity=".6" d="M8 1.5C8.7 1.2 9.2.5 9-.1c0-.6-.6-.9-1.3-.6C7-.4 6.6.3 6.7 1c0 .6.6.9 1.3.6Z" fill="#FFDA65"/><path opacity=".6" d="M8 1.5C8.7 1.2 9.2.5 9-.1c0-.6-.6-.9-1.3-.6C7-.4 6.6.3 6.7 1c0 .6.6.9 1.3.6Z" fill="#FFDA65"/><path opacity=".6" d="M8 1.5C8.7 1.2 9.2.5 9-.1c0-.6-.6-.9-1.3-.6C7-.4 6.6.3 6.7 1c0 .6.6.9 1.3.6Z" fill="#FFDA64"/><path opacity=".6" d="M8 1.5C8.7 1.2 9.2.5 9-.1c0-.6-.6-.9-1.3-.6C7-.4 6.6.3 6.7 1c0 .6.6.9 1.3.6Z" fill="#FFDA63"/><path opacity=".6" d="M8 1.5C8.7 1.2 9.2.5 9-.1c0-.6-.6-.9-1.3-.6C7-.4 6.6.3 6.7 1c0 .6.6.9 1.3.6Z" fill="#FFD962"/><path opacity=".7" d="M8 1.5C8.7 1.2 9.2.5 9-.1c0-.6-.6-.9-1.3-.6C7-.4 6.6.3 6.7 1c0 .6.6.9 1.3.6Z" fill="#FFD961"/><path opacity=".7" d="M8 1.5C8.7 1.2 9.2.5 9-.1c0-.6-.6-.9-1.3-.6C7-.4 6.6.3 6.7 1c0 .6.6.9 1.3.6Z" fill="#FFD961"/><path opacity=".7" d="M8 1.5C8.7 1.2 9.2.5 9-.1c0-.6-.6-.9-1.3-.6C7-.4 6.6.3 6.7 1c0 .6.6.9 1.3.6Z" fill="#FFD960"/><path opacity=".7" d="M8 1.5C8.7 1.2 9.2.5 9-.1c0-.6-.6-.8-1.3-.6C7-.4 6.6.3 6.7 1c0 .6.6.9 1.3.6Z" fill="#FFD95F"/><path opacity=".7" d="M8 1.5C8.7 1.2 9.2.5 9-.1c0-.6-.6-.9-1.3-.6C7-.4 6.6.3 6.7 1c0 .6.6.9 1.3.6Z" fill="#FFD85E"/><path opacity=".7" d="M8 1.5C8.7 1.2 9.2.5 9-.1c0-.6-.6-.9-1.3-.6C7-.4 6.6.3 6.7 1c0 .6.6.9 1.3.6Z" fill="#FFD85D"/><path opacity=".7" d="M8 1.5C8.7 1.2 9.2.5 9-.1c0-.6-.6-.9-1.3-.6C7-.4 6.6.3 6.7 1c0 .6.6.9 1.3.6Z" fill="#FFD85D"/><path opacity=".7" d="M8 1.5C8.7 1.2 9.2.5 9-.1c0-.6-.6-.9-1.3-.6C7-.4 6.6.3 6.7 1c0 .6.6.8 1.3.6Z" fill="#FFD85C"/><path opacity=".7" d="M8 1.5C8.7 1.2 9.2.5 9-.1c0-.6-.6-.9-1.3-.6C7-.4 6.6.3 6.7 1c0 .6.6.8 1.3.6Z" fill="#FFD85B"/><path opacity=".7" d="M8 1.5C8.7 1.2 9.2.5 9-.1c0-.6-.6-.9-1.3-.6C7-.4 6.6.3 6.7 1c0 .6.6.8 1.3.6Z" fill="#FFD75A"/><path opacity=".7" d="M8 1.5C8.7 1.2 9.2.5 9-.1c0-.6-.6-.9-1.3-.6C7-.4 6.6.3 6.7 1c0 .6.6.8 1.3.6Z" fill="#FFD759"/><path opacity=".7" d="M8 1.5C8.7 1.2 9.2.5 9-.1c0-.6-.6-.9-1.3-.6C7-.4 6.6.3 6.7 1c0 .6.6.8 1.3.6Z" fill="#FFD759"/><path opacity=".7" d="M8 1.5C8.7 1.2 9.2.5 9-.1c0-.6-.6-.8-1.3-.6C7-.4 6.6.3 6.7 1c0 .6.6.8 1.3.6Z" fill="#FFD758"/><path opacity=".7" d="M8 1.4C8.7 1.2 9.2.4 9 0c0-.6-.6-.9-1.3-.6C7-.4 6.6.3 6.7 1c0 .6.6.8 1.3.5Z" fill="#FFD757"/><path opacity=".7" d="M8 1.4C8.7 1.2 9.2.4 9 0c0-.6-.7-.9-1.3-.6C7-.4 6.6.3 6.7 1c0 .6.6.8 1.3.5Z" fill="#FFD756"/><path opacity=".7" d="M8 1.4C8.7 1.2 9.2.4 9 0c0-.6-.7-.9-1.3-.6C7-.4 6.6.3 6.7 1c0 .6.6.8 1.3.5Z" fill="#FFD655"/><path opacity=".7" d="M8 1.4C8.7 1.2 9.2.4 9 0c0-.6-.7-.9-1.3-.6C7-.4 6.6.3 6.7 1c0 .6.6.8 1.3.5Z" fill="#FFD655"/><path opacity=".7" d="M8 1.4C8.7 1.2 9.2.4 9 0c0-.6-.7-.9-1.3-.6C7-.4 6.6.3 6.7 1c0 .6.6.8 1.3.5Z" fill="#FFD654"/><path opacity=".7" d="M8 1.4C8.7 1.2 9.2.4 9 0c0-.6-.6-.9-1.3-.6C7-.4 6.6.3 6.7 1c0 .6.6.8 1.3.5Z" fill="#FFD653"/><path opacity=".7" d="M8 1.4C8.7 1.2 9.2.4 9 0c0-.6-.6-.9-1.3-.6C7-.4 6.6.3 6.7 1c0 .6.6.8 1.3.5Z" fill="#FFD652"/><path opacity=".7" d="M8 1.4C8.7 1.2 9.2.4 9 0c0-.6-.6-.9-1.3-.6C7-.4 6.6.3 6.7 1c0 .6.6.8 1.3.5Z" fill="#FFD551"/><path opacity=".7" d="M8 1.4c.7-.2 1.2-1 1-1.5 0-.6-.6-.8-1.2-.6C7-.4 6.6.3 6.7 1c0 .6.6.8 1.3.5Z" fill="#FFD551"/><path opacity=".7" d="M8 1.4c.7-.2 1.2-1 1-1.5 0-.6-.6-.8-1.2-.6C7-.4 6.6.3 6.7 1c0 .6.6.8 1.3.5Z" fill="#FFD550"/><path opacity=".7" d="M8 1.4c.7-.3 1.2-1 1-1.5 0-.6-.6-.9-1.2-.6C7-.4 6.6.3 6.7 1c0 .6.6.8 1.3.5Z" fill="#FFD54F"/><path opacity=".7" d="M8 1.4c.7-.3 1.2-1 1-1.5 0-.6-.6-.9-1.2-.6C7-.4 6.6.3 6.7 1c0 .6.6.8 1.3.5Z" fill="#FFD54E"/><path opacity=".7" d="M8 1.4c.7-.3 1.2-1 1-1.5 0-.6-.6-.9-1.2-.6C7-.4 6.6.3 6.7 1c0 .6.6.8 1.3.5Z" fill="#FFD44D"/><path opacity=".7" d="M8 1.4c.7-.3 1.2-1 1-1.5 0-.6-.6-.9-1.2-.6C7-.4 6.6.3 6.7 1c0 .6.6.8 1.3.5Z" fill="#FFD44D"/><path opacity=".7" d="M8 1.4C8.7 1.1 9 .4 9 0c0-.6-.6-.9-1.2-.6C7-.4 6.6.3 6.7 1c0 .6.6.8 1.3.5Z" fill="#FFD44C"/><path opacity=".7" d="M8 1.4C8.7 1.1 9 .4 9 0c0-.6-.6-.8-1.2-.6C7-.4 6.6.3 6.7 1c0 .6.6.8 1.3.5Z" fill="#FFD44B"/><path opacity=".7" d="M8 1.4C8.7 1.1 9 .4 9 0c0-.6-.6-.9-1.2-.6C7-.4 6.6.3 6.7 1c0 .6.6.8 1.3.5Z" fill="#FFD44A"/><path opacity=".8" d="M8 1.4C8.7 1.1 9 .4 9 0c0-.6-.6-.8-1.2-.6C7-.4 6.6.3 6.7 1c0 .6.6.8 1.3.5Z" fill="#FFD349"/><path opacity=".8" d="M8 1.4C8.7 1.1 9 .4 9 0c0-.6-.6-.8-1.2-.6C7-.4 6.6.3 6.7 1c0 .6.6.8 1.3.5Z" fill="#FFD348"/><path opacity=".8" d="M8 1.4C8.7 1.1 9 .4 9 0c0-.6-.6-.9-1.2-.6C7-.4 6.6.3 6.7 1c0 .6.6.8 1.3.5Z" fill="#FFD348"/><path opacity=".8" d="M8 1.4C8.7 1.1 9 .4 9 0c0-.6-.6-.9-1.2-.6C7-.4 6.6.3 6.7 1c0 .6.6.8 1.3.5Z" fill="#FFD347"/><path opacity=".8" d="M8 1.4C8.7 1.1 9 .4 9 0c0-.6-.6-.8-1.2-.6C7-.4 6.6.3 6.7 1c0 .6.6.8 1.3.5Z" fill="#FFD346"/><path opacity=".8" d="M8 1.4C8.7 1.1 9 .4 9 0c0-.6-.6-.9-1.2-.6C7-.4 6.6.3 6.7 1c0 .6.6.8 1.3.5Z" fill="#FFD245"/><path opacity=".8" d="M8 1.4C8.7 1.1 9 .4 9 0c0-.6-.6-.9-1.2-.6C7-.4 6.6.3 6.7 1c0 .6.6.8 1.3.5Z" fill="#FFD244"/><path opacity=".8" d="M8 1.4C8.7 1.1 9 .4 9 0c0-.6-.6-.8-1.2-.6C7-.4 6.6.3 6.7 1c0 .6.6.8 1.3.5Z" fill="#FFD244"/><path opacity=".8" d="M8 1.4C8.7 1.1 9 .4 9 0c0-.6-.6-.8-1.2-.6C7-.4 6.6.3 6.7 1c0 .6.6.8 1.3.5Z" fill="#FFD243"/><path opacity=".8" d="M8 1.4C8.7 1.1 9 .4 9 0c0-.6-.6-.8-1.2-.6C7-.4 6.6.3 6.7 1c0 .6.6.8 1.3.5Z" fill="#FFD242"/><path opacity=".8" d="M8 1.4C8.7 1.1 9 .4 9 0c0-.6-.6-.8-1.2-.6C7-.4 6.6.3 6.7 1c0 .6.6.8 1.3.5Z" fill="#FFD241"/><path opacity=".8" d="M8 1.4C8.7 1.1 9 .4 9 0c0-.6-.6-.8-1.2-.6C7-.4 6.6.3 6.7 1c0 .6.6.8 1.3.5Z" fill="#FFD140"/><path opacity=".8" d="M8 1.4C8.7 1.1 9 .4 9 0c0-.6-.6-.9-1.2-.6C7-.4 6.6.3 6.7 1c0 .6.6.8 1.3.5Z" fill="#FFD140"/><path opacity=".8" d="M8 1.4C8.7 1.1 9 .4 9 0c0-.6-.6-.8-1.2-.6C7-.4 6.6.3 6.7 1c0 .6.6.8 1.3.5Z" fill="#FFD13F"/><path opacity=".8" d="M8 1.4C8.7 1.1 9 .4 9 0c0-.6-.6-.8-1.2-.6C7-.4 6.6.3 6.7 1c0 .6.6.8 1.3.5Z" fill="#FFD13E"/><path opacity=".8" d="M8 1.4C8.6 1.1 9 .4 9 0c0-.6-.6-.8-1.2-.6C7-.4 6.6.3 6.7 1c0 .6.6.8 1.3.5Z" fill="#FFD13D"/><path opacity=".8" d="M8 1.4C8.6 1.1 9 .4 9 0c0-.6-.6-.8-1.2-.6C7-.4 6.6.3 6.7 1c0 .6.6.8 1.3.5Z" fill="#FFD03C"/><path opacity=".8" d="M8 1.4C8.6 1.1 9 .4 9 0c0-.6-.6-.8-1.2-.6C7-.4 6.6.3 6.7 1c0 .6.6.8 1.3.5Z" fill="#FFD03C"/><path opacity=".8" d="M8 1.4C8.6 1.1 9 .4 9 0c0-.6-.6-.8-1.2-.6C7-.4 6.6.3 6.7 1c0 .6.6.8 1.3.5Z" fill="#FFD03B"/><path opacity=".8" d="M8 1.4C8.6 1.1 9 .4 9 0c0-.6-.6-.8-1.2-.6C7-.4 6.6.3 6.7 1c0 .6.6.8 1.3.5Z" fill="#FFD03A"/><path opacity=".8" d="M8 1.4C8.6 1.1 9 .4 9 0c0-.6-.6-.8-1.2-.6C7-.4 6.6.3 6.7 1c0 .6.6.8 1.3.5Z" fill="#FFD039"/><path opacity=".8" d="M8 1.4C8.6 1.1 9 .4 9 0c0-.6-.6-.9-1.2-.6C7-.4 6.6.3 6.7 1c0 .6.6.8 1.3.5Z" fill="#FFCF38"/><path opacity=".8" d="M8 1.4C8.6 1.1 9 .4 9 0c0-.6-.6-.8-1.2-.6C7-.4 6.6.3 6.7 1c0 .6.6.8 1.3.5Z" fill="#FFCF38"/><path opacity=".8" d="M8 1.4C8.6 1.1 9 .4 9 0c0-.6-.6-.8-1.2-.6C7-.4 6.6.3 6.7 1c0 .6.6.8 1.3.5Z" fill="#FFCF37"/><path opacity=".8" d="M8 1.4C8.6 1.1 9 .4 9 0c0-.6-.6-.8-1.2-.6C7-.4 6.6.3 6.7 1c0 .6.6.8 1.3.5Z" fill="#FFCF36"/><path opacity=".8" d="M8 1.4C8.6 1.1 9 .4 9 0c0-.6-.6-.8-1.2-.6C7-.4 6.6.3 6.7 1c0 .6.6.8 1.3.5Z" fill="#FFCF35"/><path opacity=".8" d="M8 1.4C8.6 1.1 9 .4 9 0c0-.6-.6-.8-1.2-.6C7-.4 6.6.3 6.7 1c0 .6.6.8 1.3.5Z" fill="#FFCE34"/><path opacity=".8" d="M8 1.4C8.6 1.1 9 .4 9 0c0-.6-.6-.8-1.2-.6C7-.4 6.6.3 6.7 1c0 .6.6.8 1.3.5Z" fill="#FFCE34"/><path opacity=".8" d="M8 1.4C8.6 1.1 9 .4 9 0c0-.6-.6-.8-1.2-.6C7-.4 6.6.3 6.7 1c0 .6.6.8 1.3.5Z" fill="#FFCE33"/><path opacity=".8" d="M8 1.4C8.6 1.1 9 .4 9 0c0-.6-.6-.8-1.2-.6C7-.4 6.6.3 6.7 1c0 .6.6.8 1.3.5Z" fill="#FFCE32"/><path opacity=".9" d="M8 1.4C8.6 1.1 9 .4 9 0c0-.6-.6-.8-1.2-.6C7-.4 6.6.3 6.7 1c0 .6.6.8 1.3.5Z" fill="#FFCE31"/><path opacity=".9" d="M8 1.4C8.6 1.1 9 .4 9 0c0-.6-.6-.8-1.2-.6C7-.4 6.6.3 6.7 1c0 .6.6.8 1.3.5Z" fill="#FFCD30"/><path opacity=".9" d="M8 1.4C8.6 1.1 9 .4 9 0c0-.6-.6-.8-1.2-.6C7-.4 6.6.3 6.7 1c0 .6.6.8 1.3.5Z" fill="#FFCD30"/><path opacity=".9" d="M8 1.4C8.6 1.1 9 .4 9 0c0-.6-.6-.8-1.2-.6C7-.4 6.6.3 6.7 1c0 .6.6.8 1.3.5Z" fill="#FFCD2F"/><path opacity=".9" d="M8 1.4c.6-.3 1.1-1 1-1.6 0-.5-.6-.7-1.2-.5C7-.4 6.6.3 6.7 1c0 .6.6.8 1.3.5Z" fill="#FFCD2E"/><path opacity=".9" d="M8 1.4c.6-.3 1.1-1 1-1.6 0-.5-.6-.7-1.2-.5C7-.4 6.6.3 6.7 1c0 .6.6.8 1.3.5Z" fill="#FFCD2D"/><path opacity=".9" d="M8 1.4C8.6 1.1 9 .4 9 0c0-.6-.6-.8-1.2-.6C7-.4 6.6.3 6.7 1c0 .6.6.8 1.3.5Z" fill="#FFCD2C"/><path opacity=".9" d="M8 1.4c.6-.3 1.1-1 1-1.6 0-.5-.6-.7-1.2-.5C7-.4 6.6.3 6.7 1c0 .6.6.8 1.3.5Z" fill="#FFCC2C"/><path opacity=".9" d="M8 1.4c.6-.3 1.1-1 1-1.6 0-.5-.6-.7-1.2-.5C7-.4 6.6.3 6.7 1c0 .6.6.8 1.3.5Z" fill="#FFCC2B"/><path opacity=".9" d="M8 1.4c.6-.3 1.1-1 1-1.6 0-.5-.6-.7-1.2-.5C7-.4 6.6.3 6.7 1c0 .6.6.8 1.3.5Z" fill="#FFCC2A"/><path opacity=".9" d="M8 1.4c.6-.3 1.1-1 1-1.6 0-.5-.6-.7-1.2-.5C7-.4 6.6.3 6.7 1c0 .6.6.8 1.3.5Z" fill="#FFCC29"/><path opacity=".9" d="M8 1.4c.6-.3 1.1-1 1-1.6 0-.5-.6-.7-1.2-.5C7-.4 6.6.3 6.7 1c0 .6.6.8 1.3.5Z" fill="#FFCC28"/><path opacity=".9" d="M8 1.4c.6-.3 1.1-1 1-1.6 0-.5-.6-.7-1.2-.5C7-.4 6.6.3 6.7 1c0 .6.6.8 1.3.5Z" fill="#FFCB28"/><path opacity=".9" d="M8 1.4c.6-.3 1.1-1 1-1.6 0-.5-.6-.7-1.2-.5C7-.4 6.6.3 6.7 1c0 .6.6.8 1.3.5Z" fill="#FFCB27"/><path opacity=".9" d="M8 1.4c.6-.3 1.1-1 1-1.6 0-.5-.6-.7-1.2-.5C7-.4 6.6.3 6.7 1c0 .6.6.8 1.3.5Z" fill="#FFCB26"/><path opacity=".9" d="M8 1.4c.6-.3 1.1-1 1-1.6 0-.5-.6-.7-1.2-.5C7-.4 6.6.3 6.7 1c0 .6.6.8 1.3.5Z" fill="#FFCB25"/><path opacity=".9" d="M8 1.4c.6-.3 1.1-1 1-1.6 0-.5-.6-.7-1.2-.5C7-.4 6.6.3 6.7 1c0 .6.6.8 1.3.5Z" fill="#FFCB24"/><path opacity=".9" d="M8 1.4c.6-.3 1.1-1 1-1.6 0-.5-.6-.7-1.2-.5C7-.4 6.6.3 6.7 1c0 .6.6.8 1.3.5Z" fill="#FFCA24"/><path opacity=".9" d="M8 1.4c.6-.3 1.1-1 1-1.6 0-.5-.6-.7-1.2-.5C7-.4 6.6.3 6.7 1c0 .6.6.8 1.3.5Z" fill="#FFCA23"/><path opacity=".9" d="M8 1.4c.6-.3 1.1-1 1-1.6 0-.5-.6-.7-1.2-.5C7-.4 6.6.3 6.7 1c0 .6.6.8 1.3.5Z" fill="#FFCA22"/><path opacity=".9" d="M8 1.4C8.6 1 9 .4 9-.2c0-.5-.6-.7-1.2-.5C7-.4 6.6.3 6.7 1c0 .6.6.8 1.3.5Z" fill="#FFCA21"/><path opacity=".9" d="M8 1.4C8.6 1 9 .4 9-.2c0-.5-.6-.7-1.2-.5C7-.4 6.6.3 6.7 1c0 .6.6.8 1.3.5Z" fill="#FFCA20"/><path opacity=".9" d="M8 1.4C8.6 1 9 .4 9-.2c0-.5-.6-.7-1.2-.5C7-.4 6.6.3 6.7 1c0 .6.6.8 1.3.5Z" fill="#FFC91F"/><path opacity=".9" d="M8 1.4C8.6 1 9 .4 9-.2c0-.5-.6-.7-1.2-.5C7-.4 6.6.3 6.7 1c0 .6.6.8 1.3.5Z" fill="#FFC91F"/><path opacity=".9" d="M8 1.4C8.6 1 9 .4 9-.2c0-.5-.6-.7-1.2-.5C7-.4 6.6.3 6.7 1c0 .6.6.8 1.3.5Z" fill="#FFC91E"/><path opacity=".9" d="M8 1.4C8.6 1 9 .4 9-.2c0-.5-.6-.7-1.2-.5C7-.4 6.6.3 6.7 1c0 .6.6.8 1.3.5Z" fill="#FFC91D"/><path opacity=".9" d="M8 1.4C8.6 1 9 .4 9-.2c0-.5-.6-.7-1.2-.5C7-.4 6.6.3 6.7 1c0 .6.6.8 1.3.5Z" fill="#FFC91C"/><path opacity=".9" d="M8 1.4C8.6 1 9 .4 9-.2c0-.5-.6-.7-1.2-.5C7-.4 6.6.3 6.7 1c0 .5.6.8 1.3.5Z" fill="#FFC81B"/><path opacity=".9" d="M8 1.4C8.6 1 9 .4 9-.2c0-.5-.6-.7-1.2-.5C7-.4 6.6.3 6.7 1c0 .5.6.8 1.3.5Z" fill="#FFC81B"/><path opacity=".9" d="M8 1.4C8.6 1 9 .4 9-.2c0-.5-.6-.7-1.2-.5C7-.4 6.6.3 6.7 1c0 .5.6.8 1.3.5Z" fill="#FFC81A"/><path d="M8 1.4C8.6 1 9 .4 9-.2c0-.5-.6-.7-1.2-.5C7-.4 6.6.3 6.7 1c0 .5.6.8 1.3.5Z" fill="#FFC819"/><path d="M8 1.4C8.6 1 9 .4 9-.2c0-.5-.6-.7-1.2-.5C7-.4 6.6.3 6.7 1c0 .5.6.8 1.3.5Z" fill="#FFC818"/><path d="M8 1.4C8.6 1 9 .4 9-.2c0-.5-.6-.7-1.2-.5C7-.4 6.6.3 6.7 1c0 .5.6.8 1.3.5Z" fill="#FFC817"/><path d="M8 1.4C8.6 1 9 .4 9-.2c0-.5-.6-.7-1.2-.5C7-.4 6.6.3 6.7 1c0 .5.6.8 1.3.5Z" fill="#FFC717"/><path d="M8 1.4C8.6 1 9 .4 9-.2c0-.5-.6-.7-1.2-.5C7-.4 6.6.3 6.7 1c0 .5.6.8 1.3.5Z" fill="#FFC716"/><path d="M8 1.4C8.6 1 9 .4 9-.2c0-.5-.6-.7-1.2-.5C7-.4 6.6.3 6.7 1c0 .5.6.8 1.3.5Z" fill="#FFC715"/><path d="M8 1.4C8.6 1 9 .4 9-.2c0-.5-.6-.7-1.2-.5C7-.4 6.6.3 6.7 1c0 .5.6.8 1.3.5Z" fill="#FFC714"/><path d="M8 1.4C8.6 1 9 .4 9-.2c0-.5-.6-.7-1.2-.5C7-.4 6.6.3 6.7 1c0 .5.6.8 1.3.5Z" fill="#FFC713"/><path d="M8 1.4C8.6 1 9 .4 9-.2c0-.5-.6-.7-1.2-.5C7-.4 6.6.3 6.7 1c0 .5.6.8 1.3.5Z" fill="#FFC613"/><path d="M8 1.4C8.6 1 9 .4 9-.2c0-.5-.6-.7-1.2-.5C7-.4 6.6.3 6.7 1c0 .5.6.8 1.3.5Z" fill="#FFC612"/><path d="M8 1.4C8.6 1 9 .4 9-.2c0-.5-.6-.7-1.2-.5C7-.4 6.6.3 6.7 1c0 .5.6.8 1.3.5Z" fill="#FFC611"/><path d="M8 1.4C8.6 1 9 .4 9-.2c0-.5-.6-.7-1.2-.5-.7.3-1.1 1-1 1.6 0 .5.5.8 1.2.5Z" fill="#FFC610"/><path d="M8 1.4C8.6 1 9 .4 9-.2c0-.5-.6-.7-1.2-.5-.7.3-1.1 1-1 1.6 0 .5.5.8 1.2.5Z" fill="#FFC60F"/><path d="M8 1.4C8.6 1 9 .4 9-.2c0-.5-.6-.7-1.2-.5-.7.3-1.1 1-1 1.6 0 .5.5.8 1.2.5Z" fill="#FFC50F"/><path d="M8 1.4C8.6 1 9 .4 9-.2c0-.5-.6-.7-1.2-.5-.7.3-1.2 1-1 1.6 0 .5.5.8 1.2.5Z" fill="#FFC50E"/><path d="M8 1.4C8.6 1 9 .4 9-.2c0-.5-.6-.7-1.2-.5-.7.3-1.2 1-1 1.6 0 .5.5.8 1.2.5Z" fill="#FFC50D"/><path d="M8 1.3c.6-.3 1-1 1-1.5 0-.6-.6-.8-1.2-.5-.6.3-1.1 1-1 1.5 0 .5.5.7 1.2.5Z" fill="#CE7E00"/><path d="M8 1.2c.6-.3 1-1 1-1.5 0-.6-.6-.8-1.3-.5-.6.3-1 1-1 1.5s.6.7 1.2.5Z" fill="url(#e)"/><path d="M8.4-.5 7 0v.2l1.3-.6v-.1Z" fill="#F19A1B"/></g></g><path d="M6.3 7.6a.7.7 0 1 0-1.2-.8.7.7 0 0 0-1-.7.7.7 0 0 0-.1 1.2h-.3c-.4 0-.7.3-.7.7a.7.7 0 0 0 1.2.5L4 9a.7.7 0 1 0 1.4 0l.2.2a.7.7 0 1 0 .5-1.4l.2-.1Z" fill="#FFD1EA" stroke="#FF4C00" stroke-width=".4" stroke-linecap="round" stroke-linejoin="round"/><path d="M5.8 7.6a.1.1 0 0 0-.1-.1l-.5.1.3-.5c.1 0 .2-.1.1-.2h-.1s-.1 0 0 .1l-.4.5h-.2V7s0-.1-.1 0c0 0-.1 0 0 0v.5l-.3-.3V7h-.3v.2s0 .1.2 0l.3.4H4l-.3-.1v.2s0 .1.2 0h.6v.1l-.2.2h-.1s-.1 0 0 .1c0 0 0 .1.1 0l.3-.2-.3.6a.2.2 0 1 0 .1.1l.3-.6h.1l.1.6v.2H5a.1.1 0 0 0 0-.2v-.5l.5.3.1.1v-.1l-.5-.5.3.2s0 .1.1 0h.1c0-.1 0-.2-.1-.1l-.4-.1v-.2H5.8Z" fill="#DD003A"/><defs><linearGradient id="d" x1="6.4" y1=".5" x2="9.6" y2=".5" gradientUnits="userSpaceOnUse"><stop offset="0" stop-color="#FFC600"/><stop offset="1" stop-color="#FF9A1B"/></linearGradient><linearGradient id="e" x1="7.6" y1="-.8" x2="8.1" y2="1.1" gradientUnits="userSpaceOnUse"><stop offset="0" stop-color="#FFC600"/><stop offset="1" stop-color="#FF9A1B"/></linearGradient><radialGradient id="b" cx="0" cy="0" r="1" gradientUnits="userSpaceOnUse" gradientTransform="rotate(159.9 3.6 1.4) scale(2.55756 2.37766)"><stop offset=".6" stop-color="#A55214"/><stop offset=".6" stop-color="#A95B20"/><stop offset=".7" stop-color="#C38C63"/><stop offset=".8" stop-color="#D8B59A"/><stop offset=".8" stop-color="#E9D5C6"/><stop offset=".9" stop-color="#F5ECE5"/><stop offset="1" stop-color="#FCFAF8"/><stop offset="1" stop-color="#fff"/></radialGradient><clipPath id="a"><path fill="#fff" transform="translate(6 8.9)" d="M0 0h23.9v23.9H0z"/></clipPath></defs></svg>