<svg width="24" height="24" viewBox="0 0 24 24" fill="none" xmlns="http://www.w3.org/2000/svg">
<path fill-rule="evenodd" clip-rule="evenodd" d="M22.0361 3.6449H1.93063C0.865482 3.6449 0 4.51038 0 5.57553V17.7919C0 18.8571 0.865482 19.7225 1.93063 19.7225H1.9639C1.9639 20.0887 2.26347 20.355 2.62962 20.355C2.99578 20.355 3.26207 20.0554 3.29534 19.7225H20.7045C20.7045 20.0887 21.004 20.355 21.3702 20.355C21.7363 20.355 22.0026 20.0554 22.0359 19.7225H22.0692C23.1344 19.7225 23.9999 18.8571 23.9999 17.7919V5.57553C23.9667 4.51038 23.1012 3.6449 22.0361 3.6449ZM22.6352 17.7919C22.6352 18.1248 22.3689 18.3911 22.0361 18.3911H1.93063C1.59774 18.3911 1.33145 18.1248 1.33145 17.7919V5.57553C1.33145 5.24264 1.59774 4.97634 1.93063 4.97634H22.036C22.3689 4.97634 22.6352 5.24264 22.6352 5.57553V17.7919H22.6352ZM15.4452 6.17471H3.1956C2.82944 6.17471 2.52988 6.47428 2.52988 6.84044V16.527C2.52988 16.8931 2.82944 17.1927 3.1956 17.1927H15.4785C15.8447 17.1927 16.1442 16.8931 16.1442 16.527V6.84048C16.111 6.47428 15.8114 6.17471 15.4452 6.17471ZM14.8128 15.8613H14.7795H3.86132V13.6643H4.85993C5.22608 13.6643 5.52565 13.3648 5.52565 12.9986C5.52565 12.6325 5.22608 12.3329 4.85993 12.3329H3.86132V11.0014H6.52431C6.89046 11.0014 7.19003 10.7018 7.19003 10.3357C7.19003 9.96953 6.89046 9.66996 6.52431 9.66996H3.86132V7.5063H14.8128V15.8613ZM17.4424 8.10534C17.4424 7.0402 18.3078 6.17471 19.373 6.17471C20.4382 6.17471 21.3037 7.0402 21.3036 8.10534C21.3036 9.17049 20.4382 10.036 19.373 10.036C18.3079 10.036 17.4424 9.17054 17.4424 8.10534ZM18.7738 8.07207C18.7738 8.40496 19.0401 8.67126 19.373 8.67126C19.7059 8.67126 19.9722 8.40496 19.9722 8.07207C19.9722 7.73919 19.7059 7.47289 19.373 7.47289C19.0401 7.47289 18.7738 7.73919 18.7738 8.07207Z" fill="#696969"/>
<path fill-rule="evenodd" clip-rule="evenodd" d="M19.0735 11.5007H19.6393C20.0388 11.5007 20.3051 11.8003 20.3051 12.1665C20.3051 12.5326 20.0055 12.8322 19.6393 12.8322H19.0735C18.7073 12.8322 18.4077 12.5326 18.4077 12.1665C18.4077 11.8003 18.7073 11.5007 19.0735 11.5007ZM19.0735 13.964H19.6393C20.0388 13.964 20.3051 14.2636 20.3051 14.6297C20.3051 14.9959 20.0055 15.2955 19.6393 15.2955H19.0735C18.7073 15.2955 18.4077 14.9959 18.4077 14.6297C18.4077 14.2636 18.7073 13.964 19.0735 13.964Z" fill="#FF6400"/>
</svg>
