<svg xmlns="http://www.w3.org/2000/svg" width="40" height="40" fill="none"><circle cx="20.3" cy="13.3" r="4" fill="#FF7300"/><path fill="#696969" fill-rule="evenodd" d="m29.4 22.5 1.3-2A13 13 0 0 0 33 13c0-7.1-5.6-13-12.7-13-7 0-12.7 5.8-12.7 13 0 2.6.8 5.3 2.4 7.5l3.7 6C9.7 27 3 28.8 3 33c0 1.5 1 3.6 5.5 5.2A36 36 0 0 0 20.3 40c8.4 0 17.4-2.4 17.4-7 0-4.1-6.8-6-10.8-6.6l2.5-3.9ZM12 19.2c-1.4-1.9-2-4-2-6.2C10 7 14.5 2.3 20.2 2.3c5.8 0 10.4 4.8 10.4 10.7a10.6 10.6 0 0 1-1.9 6c0 .1 0 .2-3.4 5.4l-5 8.1L12 19.2ZM5.3 33c0 2 6 4.7 15 4.7 9.2 0 15-2.8 15-4.7 0-1.4-3-3.5-9.7-4.4l-4.3 6.8a1.2 1.2 0 0 1-2 0l-4.2-6.8c-6.7.9-9.8 3-9.8 4.4Z" clip-rule="evenodd"/><path fill="#696969" fill-rule="evenodd" d="M14.6 12.9a5.8 5.8 0 1 1 11.6 0c0 3.1-2.7 5.7-5.9 5.7a5.8 5.8 0 0 1-5.7-5.7Zm2.3 0c0 1.8 1.5 3.4 3.4 3.4 2 0 3.5-1.6 3.5-3.4 0-2-1.6-3.5-3.5-3.5S17 11 17 13Z" clip-rule="evenodd"/></svg>