<svg width="24" height="24" viewBox="0 0 24 24" fill="none" xmlns="http://www.w3.org/2000/svg">
<path d="M9.33334 7.875C8.96534 7.875 8.66667 8.183 8.66667 8.5625L8.66667 21.625L7.33333 21.625L7.33333 2.375L9.33334 2.375C9.70134 2.375 10 2.067 10 1.6875C10 1.308 9.70134 1 9.33334 1L6.66667 1C6.29867 1 6 1.308 6 1.6875L6 22.3125C6 22.692 6.29867 23 6.66667 23L9.33333 23C9.70133 23 10 22.692 10 22.3125L10 8.5625C10 8.183 9.70134 7.875 9.33334 7.875Z" fill="#696969"/>
<path d="M17.3333 1L14.6667 1C14.2987 1 14 1.308 14 1.6875L14 15.4375C14 15.817 14.2987 16.125 14.6667 16.125C15.0347 16.125 15.3333 15.817 15.3333 15.4375L15.3333 2.375L16.6667 2.375L16.6667 21.625L14.6667 21.625C14.2987 21.625 14 21.933 14 22.3125C14 22.692 14.2987 23 14.6667 23L17.3333 23C17.7013 23 18 22.692 18 22.3125L18 1.6875C18 1.308 17.7013 1 17.3333 1Z" fill="#696969"/>
<path d="M17.952 22.0567L9.95199 1.43175C9.85066 1.17188 9.60666 1 9.33333 1L6.66666 1C6.44533 1 6.23866 1.11412 6.11466 1.3025C5.99066 1.49087 5.96533 1.7315 6.04799 1.94325L14.048 22.5682C14.148 22.8295 14.3947 23 14.6667 23L17.3333 23C17.5547 23 17.7613 22.8872 17.8853 22.6975C18.0093 22.5077 18.0347 22.2685 17.952 22.0567ZM15.1187 21.625L7.65066 2.375L8.88266 2.375L16.3493 21.625L15.1187 21.625Z" fill="#696969"/>
</svg>
