<svg width="35" height="20" fill="none" xmlns="http://www.w3.org/2000/svg"><path fill="#4485F6" d="M0 0h34.3v20H0z"/><g clip-path="url(#a)" fill="#fff"><path d="M22.7 8c0 .4 0 .6-.2.6l-.4.2-.1-.1a3.4 3.4 0 0 0-3.2 0c-.4.2-.8.6-1 1-.4.5-.5 1.1-.5 1.7 0 .5.1 1 .4 1.6.3.4.6.8 1 1 .6.3 1 .4 1.6.4.6 0 1.1-.1 1.6-.4a2.9 2.9 0 0 0 1.6-2.6c0-.6-.2-1.2-.4-1.6l-.4-.5c.3 0 .5-.1.7-.3a1 1 0 0 0 .3-.8v-.5h-1v.4Zm-1 4.3c-.1.3-.3.5-.6.6-.2.2-.5.2-.8.2a1.4 1.4 0 0 1-1-.4 1.8 1.8 0 0 1-.5-1.3c0-.5.2-1 .5-1.3a1.4 1.4 0 0 1 1-.4 1.5 1.5 0 0 1 1.2.4 1.8 1.8 0 0 1 .4 1.3c0 .3 0 .6-.2 1ZM12.1 12.4 9.7 7H8v7.4h1.5V9.5l2 4.8h1.2l2-4.8v4.8h1.5V7h-1.7l-2.4 5.5ZM21.6 5.6l-2.5 1.2V8l2.5-1.1V5.6ZM26 8.4h-1.4v6H26v-6ZM25.3 7.7a.9.9 0 0 0 .9-.5v-.4a.8.8 0 0 0-.2-.6 1 1 0 0 0-1.4 0 .8.8 0 0 0-.2.6.8.8 0 0 0 .2.6.9.9 0 0 0 .7.3Z"/></g><defs><clipPath id="a"><path fill="#fff" transform="translate(8 5.6)" d="M0 0h18.3v8.9H0z"/></clipPath></defs></svg>