<svg width="38" height="20" fill="none" xmlns="http://www.w3.org/2000/svg"><path fill="#4485F6" d="M0 0h38v20H0z"/><path d="M14.7 14h-1.4L10 9.2V14H8.7V7H10l3.2 4.8V7h1.4v7Zm6.5-2.9v.6H17c0 .4.2.7.4.9.3.2.6.3 1 .3.5 0 .8-.2 1-.6h1.6a2.5 2.5 0 0 1-2.6 1.8 3 3 0 0 1-1.5-.4c-.4-.2-.7-.5-1-1-.2-.4-.3-.9-.3-1.5l.3-1.5 1-1a3 3 0 0 1 1.5-.3c.5 0 1 0 1.4.3.4.2.7.6 1 1 .2.4.3.9.3 1.4Zm-1.5-.4c0-.3 0-.6-.3-.8-.3-.3-.6-.4-1-.4l-.9.3c-.2.2-.3.5-.4 1h2.6ZM30 8.5 28.3 14h-1.5l-1-3.9-1 3.9h-1.6l-1.6-5.5H23l1 4.2 1-4.2h1.5l1 4.2 1-4.2H30Z" fill="#fff"/></svg>