<svg width="150" height="135" fill="none" xmlns="http://www.w3.org/2000/svg"><path d="M138 31.2c-19-14.6-37.4-2.7-58-6.9C59.3 20.1 51 6 27.5 12.5 6.5 18.3-6.1 41.3 5.4 60.6c3.3 5.5 8.8 9.7 11.1 15.8 3.7 10-1.9 17.6-.8 27.3 4.5 40.5 66.7 24.8 89.5 12.2 35.9-19.7 60.1-63.8 32.8-84.7Z" fill="url(#a)"/><path d="M116.9 64.2h-.7v-.6a1 1 0 1 0-2 0v.6h-.6a1 1 0 0 0 0 2h.6v.7a1 1 0 0 0 2 0v-.7h.7a1 1 0 1 0 0-2ZM26.4 53.6h-.7v-.7a1 1 0 0 0-2 0v.7H23a1 1 0 0 0 0 2h.7v.6a1 1 0 0 0 2 0v-.6h.7a1 1 0 0 0 0-2Z" fill="#FF7EB8"/><path fill-rule="evenodd" clip-rule="evenodd" d="M123.4 32.2a3.2 3.2 0 1 0 6.4 0 3.2 3.2 0 0 0-6.4 0Zm2.2 0a1 1 0 1 1 2 0 1 1 0 0 1-2 0Z" fill="#8399FE"/><path fill-rule="evenodd" clip-rule="evenodd" d="M28.7 107.2a3.2 3.2 0 1 0 6.4 0 3.2 3.2 0 0 0-6.4 0Zm2.2 0a1 1 0 1 1 2 0 1 1 0 0 1-2 0Z" fill="#01ECA5"/><path d="M5.9 95.2c-1 0-1.9-.8-1.9-1.9 0-1.2-1-2.2-2.2-2.2a1.8 1.8 0 0 1 0-3.6c1.3 0 2.2-1 2.2-2.2a1.8 1.8 0 1 1 3.7 0c0 1.2 1 2.2 2.2 2.2a1.8 1.8 0 1 1 0 3.6c-1.2 0-2.2 1-2.2 2.2 0 1-.8 1.9-1.8 1.9Z" fill="#FF7EB8"/><path d="M8.7 10.2H15v3.2H8.7v-3.2ZM26.8 10.2H33v3.2h-6.3v-3.2ZM19 18h3v6.4h-3V18ZM19 0h3v6.3h-3V0ZM126.4 81.1h3.8v2h-3.8v-2ZM137.3 81.1h3.7v2h-3.7v-2ZM132.6 85.8h1.8v3.8h-1.8v-3.8ZM132.6 75h1.8v3.8h-1.8V75Z" fill="#FF6400"/><path d="M54.6 45.6h4v5.8h-4v-5.8ZM85.3 45.6h4.1v5.8h-4v-5.8Z" fill="#407093"/><path d="M90.6 45.6H53.4a4.1 4.1 0 0 1-4-4V35c0-2.2 1.8-4 4-4h37.2c2.2 0 4 1.8 4 4v6.5c0 2.3-1.8 4.1-4 4.1Z" fill="#fff"/><path d="M90.6 31h-4.1c2.2 0 4 1.8 4 4v6.5c0 2.3-1.8 4.1-4 4.1h4c2.3 0 4.2-1.8 4.2-4V35c0-2.2-1.9-4-4.1-4Z" fill="#FFD1B3"/><path d="M102.9 92.7H41.1V53.8c0-2.2 1.8-4 4.1-4h53.6c2.3 0 4.1 1.8 4.1 4v39Z" fill="#fff"/><path d="M98.8 49.7h-4.1c2.3 0 4.1 1.9 4.1 4.1v39h4.1v-39c0-2.2-1.8-4-4.1-4Z" fill="#FF6400" fill-opacity=".3"/><path d="M80 92.7H64v-18c0-.8.7-1.4 1.4-1.4h13.2c.7 0 1.4.6 1.4 1.3v18.1Z" fill="#FFAB66"/><path d="M78.6 73.3h-4.1c.7 0 1.4.6 1.4 1.3v18.1h4v-18c0-.8-.6-1.4-1.3-1.4Z" fill="#FF6400"/><path d="M63.7 69.2h16.6c.5 0 1-.5 1-1V54.8c0-.5-.5-1-1-1H63.7a1 1 0 0 0-1 1v13.4c0 .5.5 1 1 1Z" fill="#FFAB66"/><path d="M80.3 53.8h-4.1c.5 0 1 .5 1 1v13.4c0 .5-.5 1-1 1h4c.6 0 1-.5 1-1V54.8c0-.5-.4-1-1-1Z" fill="#FF6400"/><path d="M86.3 69.2h11.5c.6 0 1-.5 1-1V54.8c0-.5-.4-1-1-1H86.3a1 1 0 0 0-1 1v13.4c0 .5.5 1 1 1Z" fill="#FFAB66"/><path d="M97.8 53.8h-4c.5 0 .9.5.9 1v13.4c0 .5-.4 1-1 1h4.1c.6 0 1-.5 1-1V54.8c0-.5-.4-1-1-1Z" fill="#FF6400"/><path d="M86.3 88.6h11.5c.6 0 1-.4 1-1V74.3c0-.5-.4-1-1-1H86.3a1 1 0 0 0-1 1v13.5c0 .5.5 1 1 1Z" fill="#FFAB66"/><path d="M97.8 73.3h-4c.5 0 .9.4.9 1v13.4c0 .5-.4 1-1 1h4.1c.6 0 1-.5 1-1V74.2c0-.5-.4-1-1-1Z" fill="#FF6400"/><path d="M46.2 69.2h11.5c.5 0 1-.5 1-1V54.8c0-.5-.5-1-1-1H46.2a1 1 0 0 0-1 1v13.4c0 .5.4 1 1 1Z" fill="#FFAB66"/><path d="M57.7 53.8h-4c.4 0 .9.5.9 1v13.4c0 .5-.5 1-1 1h4.1c.5 0 1-.5 1-1V54.8c0-.5-.5-1-1-1Z" fill="#FF6400"/><path d="M46.2 88.6h11.5c.5 0 1-.4 1-1V74.3c0-.5-.5-1-1-1H46.2a1 1 0 0 0-1 1v13.5c0 .5.4 1 1 1Z" fill="#FFAB66"/><path d="M57.7 73.3h-4c.4 0 .9.4.9 1v13.4c0 .5-.5 1-1 1h4.1c.5 0 1-.5 1-1V74.2c0-.5-.5-1-1-1Z" fill="#FF6400"/><path d="M104.6 98.9H39.4c-.8 0-1.4-.6-1.4-1.4v-3.4c0-.8.6-1.4 1.4-1.4h65.2c.8 0 1.4.6 1.4 1.4v3.4c0 .8-.6 1.4-1.4 1.4Z" fill="#EB7A00"/><path d="M104.6 92.7h-4c.7 0 1.3.6 1.3 1.4v3.4c0 .8-.6 1.4-1.4 1.4h4.1c.8 0 1.4-.6 1.4-1.4v-3.4c0-.8-.6-1.4-1.4-1.4Z" fill="#FF6400"/><path fill-rule="evenodd" clip-rule="evenodd" d="M104 91.7h.6c1.3 0 2.4 1 2.4 2.4v3.4c0 1.3-1 2.4-2.4 2.4H39.4c-1.3 0-2.4-1-2.4-2.4v-3.4c0-1.3 1-2.4 2.4-2.4h.7V53.8c0-2.8 2.3-5 5.1-5h8.3v-2.1a5.1 5.1 0 0 1-5.2-5.2V35c0-2.8 2.3-5.1 5.1-5.1h37.2c2.8 0 5 2.3 5 5.1v6.5c0 2.9-2.2 5.2-5 5.2h-.1v2h8.3c2.8 0 5.1 2.3 5.1 5.1v37.9ZM58.6 34a1 1 0 0 0-1 1v2.1h-2.5v-2a1 1 0 1 0-2 0v6.4a1 1 0 1 0 2 0v-2.3h2.5v2.3a1 1 0 1 0 2 0V35c0-.5-.4-1-1-1Zm7.3 0a4.3 4.3 0 1 1 0 8.6 4.3 4.3 0 0 1 0-8.6Zm21.4 8.5a1 1 0 0 1-.9-1V35a1 1 0 1 1 2 0v5.5h1.3a1 1 0 0 1 0 2H87.4Zm-23.6-4.2a2.2 2.2 0 1 1 4.5 0 2.2 2.2 0 0 1-4.5 0Zm19.6 4.3h-2.7a1 1 0 0 1-1-1V35c0-.6.5-1 1-1h2.7a1 1 0 1 1 0 2h-1.7v1.2h1.5a1 1 0 1 1 0 2h-1.5v1.2h1.7a1 1 0 1 1 0 2ZM73.8 36H73a1 1 0 0 1 0-2.1h3.6a1 1 0 1 1 0 2h-.8v5.5a1 1 0 1 1-2 0v-5.4Zm12.5 53.5h11.5c1.1 0 2-.9 2-2V74.3c0-1-.9-2-2-2H86.3c-1.1 0-2 1-2 2v13.5c0 1 .9 2 2 2Zm11.5-15.3H93v5.6h4.7v-5.6ZM93 82h4.7v5.6H93V82Zm-2-7.7h-4.7v5.6H91v-5.6ZM86.3 82H91v5.6h-4.6V82Zm-33-37.4a3 3 0 0 1-3-3V35a3 3 0 0 1 3-3h37.2a3 3 0 0 1 3 3v6.5a3 3 0 0 1-3 3.1H69a1 1 0 1 0 0 2h15.3v2.1H59.7v-2h4.5a1 1 0 1 0 0-2H53.4Zm35 4.1v-2h-2v2h2Zm-30.8-2v2h-2v-2h2Zm-12.4 4a3 3 0 0 0-3 3.1v37.9H63v-17c0-1.4 1-2.4 2.4-2.4h13.2c1.3 0 2.4 1 2.4 2.3v6.8a1 1 0 1 1-2 0v-6.8c0-.1-.2-.3-.4-.3H73v17.4h6v-5.5a1 1 0 1 1 2 0v5.5h20.9V53.8a3 3 0 0 0-3.1-3H45.2ZM71 74.4v17.4h-6v-17c0-.2.2-.4.4-.4H71Zm33.6 23.6c.2 0 .3-.2.3-.4v-3.4c0-.2-.1-.4-.3-.4H39.4c-.2 0-.3.2-.3.4v3.4c0 .2.1.4.3.4h65.2ZM80.3 70.2c1 0 2-.9 2-2V54.8c0-1.1-1-2-2-2H63.7c-1 0-2 .9-2 2v13.4c0 1.1 1 2 2 2h16.6Zm-.1-15.3H73v5.6h7.2v-5.6ZM73 62.5h7.2v5.6H73v-5.6ZM71 55h-7.2v5.6H71v-5.6Zm-7.2 7.6H71v5.6h-7.2v-5.6Zm-17.6 9.8h11.5c1.1 0 2 .8 2 2v13.4c0 1-.9 2-2 2H46.2c-1.1 0-2-1-2-2V74.2c0-1 .9-2 2-2Zm4.7 15.3h-4.7V82H51v5.6Zm-4.7-7.7H51v-5.6h-4.7v5.6Zm11.4 7.7H53V82h4.6v5.6ZM53 79.9h4.6v-5.6H53v5.6Zm33.3-9.7h11.5c1.1 0 2-.9 2-2V54.8c0-1.1-.9-2-2-2H86.3c-1.1 0-2 .9-2 2v13.4c0 1.1.9 2 2 2Zm11.5-15.3H93v5.6h4.7v-5.6ZM93 62.5h4.7v5.6H93v-5.6ZM91 55h-4.7v5.6H91v-5.6Zm-4.7 7.6H91v5.6h-4.6v-5.6Zm-40.2-9.7h11.5c1.1 0 2 .9 2 2v13.4c0 1.1-.9 2-2 2H46.2c-1.1 0-2-.9-2-2V54.8c0-1.1.9-2 2-2Zm4.7 15.3h-4.7v-5.6H51v5.6Zm-4.7-7.6H51v-5.6h-4.7v5.6ZM57.6 68H53v-5.6h4.6v5.6ZM53 60.5h4.6v-5.6H53v5.6Z" fill="#000"/><defs><linearGradient id="a" x1="36.1" y1="156.7" x2="168.3" y2="77.5" gradientUnits="userSpaceOnUse"><stop stop-color="#FFE5D4" stop-opacity=".4"/><stop offset="1" stop-color="#FF6400" stop-opacity="0"/></linearGradient></defs></svg>