<svg width="121" height="136" fill="none" xmlns="http://www.w3.org/2000/svg"><path d="M49.4 5.5A26.6 26.6 0 0 0 29.8.8C21 2 11 5.2 6.3 13.2c-9.8 16.4-8.7 44.5 7 45 15.6.6 34 .6 34 29.7 0 29.2 11.9 61 29.2 41.6 17.3-19.4 30.2-21 27-40-3.3-18.9 17.5-21.7 17.5-36.8 0-14.1-10.1 1.2-20.4-10.6-10.3-12-15-36.8-35.5-34.7-9 1-13.5-.2-15.7-2Z" fill="url(#a)"/><path opacity=".1" d="M76.5 28.3H44.6c-3.6 0-6.5 2.9-6.5 6.5v7.4c0 1.2 1 2.2 2.2 2.2h9c.8 0 1.6-.5 2-1.3a10.3 10.3 0 1 1 0 9 2.1 2.1 0 0 0-1.9-1.2h-9.1c-1.2 0-2.2 1-2.2 2.1v59.3c0 3.6 3 6.5 6.5 6.5h31.9c3.6 0 6.5-2.9 6.5-6.5V34.8c0-3.6-3-6.5-6.5-6.5Z" fill="#000"/><path d="M76.5 23H44.6c-3.6 0-6.5 3-6.5 6.6V37c0 1.2 1 2.2 2.2 2.2h9c.8 0 1.6-.5 2-1.3a10.3 10.3 0 1 1 0 9 2.1 2.1 0 0 0-1.9-1.2h-9.1c-1.2 0-2.2 1-2.2 2.1v59.3c0 3.6 3 6.5 6.5 6.5h31.9c3.6 0 6.5-2.9 6.5-6.5V29.6c0-3.6-3-6.5-6.5-6.5Z" fill="#FF6400"/><path d="M55.3 114.7H44.6a7.6 7.6 0 0 1-7.5-7.6V47.8c0-1.8 1.4-3.2 3.2-3.2h9.1c1.2 0 2.4.7 3 1.8a9.1 9.1 0 0 0 14.8 2.3A9.2 9.2 0 0 0 61 33.2a9.2 9.2 0 0 0-8.8 5.2 3.3 3.3 0 0 1-2.9 1.9h-9a3.2 3.2 0 0 1-3.2-3.3v-7.4c0-4.2 3.4-7.6 7.5-7.6h31.9c4.1 0 7.5 3.4 7.5 7.6V38a1 1 0 1 1-2.1 0v-8.4c0-3-2.4-5.4-5.4-5.4H44.6c-3 0-5.4 2.4-5.4 5.4V37c0 .6.5 1.1 1.1 1.1h9a1 1 0 0 0 1-.6 11.3 11.3 0 1 1 0 9.8 1 1 0 0 0-.9-.6h-9.1a1 1 0 0 0-1 1.1v59.3c0 3 2.3 5.4 5.3 5.4h10.7a1 1 0 1 1 0 2.2ZM76.5 114.7H63.2a1 1 0 0 1 0-2.2h13.3c3 0 5.4-2.4 5.4-5.4V45.8a1 1 0 1 1 2.1 0v61.3c0 4.2-3.4 7.6-7.5 7.6Z" fill="#000"/><path d="M75.9 108.5H45c-1.1 0-2.1-1-2.1-2.2V60.7c0-1.2 1-2.2 2.1-2.2H76c1.1 0 2.1 1 2.1 2.2v45.6c0 1.2-1 2.2-2.1 2.2Z" fill="#FFD6BB"/><path d="M51.6 64.5c.2 0 .3 0 .4.2l.2.4v5.8a.6.6 0 0 1-.7.6h-.2l-.2-.2-4-5 .3-.1v4.7c0 .2 0 .3-.2.4l-.4.2c-.1 0-.2 0-.3-.2a.6.6 0 0 1-.2-.4v-5.8c0-.2 0-.3.2-.4l.4-.2h.3l.2.2 3.8 4.9-.1.1v-4.6l.1-.4.4-.2ZM60 68c0 .5 0 1-.2 1.4-.1.4-.4.8-.7 1.1a3.2 3.2 0 0 1-2.4 1.1 3.3 3.3 0 0 1-3.1-2.2c-.2-.4-.3-.9-.3-1.4 0-.5 0-1 .3-1.4.1-.4.4-.8.7-1.1a3.3 3.3 0 0 1 4.8 0c.3.3.6.7.7 1.1.2.4.3.9.3 1.4Zm-1.2 0c0-.4-.1-.9-.3-1.2-.2-.4-.4-.7-.7-.9-.3-.2-.7-.3-1.1-.3-.4 0-.8.1-1.1.3-.3.2-.6.5-.7.9-.2.3-.3.7-.3 1.2 0 .4 0 .9.3 1.2.1.4.4.7.7.9a1.9 1.9 0 0 0 2.2 0c.3-.2.5-.5.7-.9.2-.3.3-.8.3-1.2ZM47 84.5c-.2 0-.3 0-.5-.2a.5.5 0 0 1-.2-.4V78c0-.2 0-.3.2-.4l.4-.2h2.9c.3 0 .7 0 1 .3l.7.7c.2.4.3.7.3 1.1 0 .3 0 .5-.2.8a2.2 2.2 0 0 1-1 1v-.1c.2 0 .4.2.5.3l.3.5.1.5v.4l.1.3.2.2.3.4-.1.4-.3.2a1 1 0 0 1-.6-.1c-.2 0-.3-.2-.4-.3l-.3-.5a3 3 0 0 1 0-.9.8.8 0 0 0-.3-.5l-.3-.2h-2.4l.2-.3V84l-.2.4-.4.2Zm.4-3.6h2.3l.4-.1.3-.5v-.6c0-.3 0-.6-.2-.8-.1-.2-.3-.3-.5-.3h-2.3l.2-.3v2.9l-.2-.3ZM59.5 81c0 .5 0 1-.2 1.4-.2.4-.4.8-.8 1.1a3.2 3.2 0 0 1-2.4 1.1 3.3 3.3 0 0 1-3.1-2.2c-.2-.4-.3-.9-.3-1.4 0-.5.1-1 .3-1.4.1-.4.4-.8.7-1.1a3.3 3.3 0 0 1 4.8 0c.4.3.6.7.8 1.1l.2 1.4Zm-1.3 0c0-.4 0-.9-.3-1.2-.1-.4-.4-.7-.7-.9a1.9 1.9 0 0 0-2.2 0c-.3.2-.5.5-.7.9-.2.3-.3.7-.3 1.2 0 .4.1.9.3 1.2.2.4.4.7.7.9.3.2.7.3 1.1.3.4 0 .8-.1 1.1-.3.3-.2.6-.5.7-.9.2-.3.3-.8.3-1.2ZM67.1 81c0 .5 0 1-.3 1.4-.1.4-.4.8-.7 1.1a3.2 3.2 0 0 1-2.4 1.1 3.3 3.3 0 0 1-3.1-2.2c-.2-.4-.3-.9-.3-1.4 0-.5 0-1 .3-1.4.1-.4.4-.8.7-1.1a3.3 3.3 0 0 1 4.8 0c.3.3.6.7.7 1.1.2.4.3.9.3 1.4Zm-1.3 0c0-.4 0-.9-.3-1.2-.2-.4-.4-.7-.7-.9-.3-.2-.7-.3-1.1-.3-.4 0-.8.1-1 .3-.4.2-.7.5-.8.9-.2.3-.3.7-.3 1.2 0 .4 0 .9.3 1.2.1.4.4.7.7.9.3.2.7.3 1.1.3.4 0 .8-.1 1-.3.4-.2.6-.5.8-.9.2-.3.3-.8.3-1.2ZM68.9 77.5h.3l.2.3 2.4 3.7h-.5l2.5-3.7c.2-.2.3-.3.5-.3s.3 0 .4.2c.2 0 .2.2.2.4v5.8l-.1.4-.5.2c-.2 0-.3 0-.4-.2a.6.6 0 0 1-.2-.4v-4.7h.4l-2 3.2-.3.2h-.5l-.3-.2-1.9-3 .3-.6v5c0 .3 0 .4-.2.5l-.4.2c-.2 0-.3 0-.4-.2a.6.6 0 0 1-.2-.4V78l.2-.4c.2-.2.3-.2.5-.2Z" fill="#000"/><path fill-rule="evenodd" clip-rule="evenodd" d="M51.2 71.7a.8.8 0 0 1-.4-.2l-3.1-4V71a.8.8 0 0 1-.9.9c-.2 0-.4 0-.6-.3a.9.9 0 0 1-.2-.6v-5.8c0-.2 0-.5.3-.6.1-.2.4-.3.6-.3h.4l.4.3 3 4V65c0-.3.1-.5.3-.6l.6-.3c.2 0 .5 0 .6.3.2.1.3.3.3.6v5.8a.9.9 0 0 1-1 .9h-.3Zm-.1-6.6.1-.4.4-.2c.2 0 .3 0 .4.2l.1.4v5.8a.6.6 0 0 1-.6.6h-.2l-.2-.2-3.7-4.6v4.2c0 .2 0 .3-.2.4l-.4.2c-.1 0-.3 0-.3-.2a.6.6 0 0 1-.2-.4v-5.8c0-.2 0-.3.2-.4l.4-.2h.3l.2.2 3.7 4.7V65Zm3.2 5.5a3.7 3.7 0 0 1-1-2.6c0-.5 0-1 .3-1.4.1-.4.4-.8.7-1.1a3.3 3.3 0 0 1 4.8 0c.3.3.6.7.7 1.1.2.4.3.9.3 1.4 0 .5 0 1-.3 1.4-.1.4-.4.8-.7 1.2a3.2 3.2 0 0 1-2.4 1 3.3 3.3 0 0 1-2.4-1Zm3.9 1-1.5.3a3.6 3.6 0 0 1-2.7-1.1 4 4 0 0 1-1-2.8 4.2 4.2 0 0 1 1-2.7 3.6 3.6 0 0 1 4.2-.9m0 7.2 1.2-.8a3.9 3.9 0 0 0 1-2.8l-.3-1.5a3.8 3.8 0 0 0-2-2m.2 2.4c-.2-.3-.4-.6-.7-.7-.2-.2-.5-.3-1-.3-.3 0-.6 0-.8.3a2 2 0 0 0-.7.7L55 68c0 .4 0 .8.2 1 .2.4.4.7.7.8.2.2.5.3.9.3s.7 0 1-.3l.6-.7.2-1.1c0-.4 0-.8-.2-1Zm-12 17.7a.8.8 0 0 1-.3-.7V78c0-.2 0-.5.3-.6.1-.2.4-.3.6-.3h2.9c.4 0 .8.1 1.1.3.4.2.6.5.9.9a2.5 2.5 0 0 1 .1 2.1 2.5 2.5 0 0 1-.6.9c.1.2.3.3.3.5l.2.6v.7h.1c.3.2.4.4.5.6 0 .3 0 .5-.2.7-.1.2-.3.3-.5.3h-.4l-.4-.1-.4-.4-.4-.6v-1l-.1-.2-.1-.1-.2-.1H48v1.6l-.3.6c-.1.2-.3.3-.6.3-.2 0-.5 0-.7-.2Zm3.1-2.6h.4l.3.2.2.2v.3l.1.9.3.5.3.3.3.1h.4s.2 0 .3-.2c0-.1.1-.2 0-.4 0-.2 0-.3-.2-.4-.1 0-.2 0-.2-.2V83a4.2 4.2 0 0 0-.2-1 1.4 1.4 0 0 0-.4-.4 1.4 1.4 0 0 0-.2-.2 1.8 1.8 0 0 0 .4-.4 2.2 2.2 0 0 0 .6-1.3 2.2 2.2 0 0 0-1-2l-1-.2h-2.9a.6.6 0 0 0-.6.6V84c0 .2 0 .3.2.4l.5.2c.2 0 .3 0 .4-.2l.1-.4v-2h2Zm.3-1 .4-.2.3-.5v-.6c0-.3 0-.6-.2-.7-.1-.2-.3-.3-.5-.3h-2.2v2.2h2.2Zm-1.9-.4h2c.2-.1.2-.2.3-.4v-1.1H50l-.3-.1h-1.9v1.6Zm5.6 3.2a4 4 0 0 1-1-2.8 4.2 4.2 0 0 1 1-2.7 3.6 3.6 0 0 1 5.4 0c.3.3.6.7.7 1.2l.3 1.5c0 .5 0 1-.3 1.5-.1.5-.4.9-.7 1.3a3.5 3.5 0 0 1-2.7 1.1 3.6 3.6 0 0 1-2.7-1.1Zm4 .5 1.1-.7c.4-.4.6-.8.8-1.2l.2-1.4c0-.5 0-1-.2-1.4a3.5 3.5 0 0 0-1.8-2l-1.4-.2a3.3 3.3 0 0 0-3.1 2.2c-.2.4-.3.9-.3 1.4a3.9 3.9 0 0 0 1 2.6 3.4 3.4 0 0 0 3.8.7Zm.3-4.4c-.2-.3-.4-.6-.7-.7-.2-.2-.5-.3-.9-.3s-.7 0-1 .3a2 2 0 0 0-.6.7l-.2 1.1.2 1c.2.4.4.7.7.8.2.2.5.3 1 .3.3 0 .6 0 .8-.3l.7-.7.2-1.1c0-.4 0-.8-.2-1Zm3.3 3.9a4 4 0 0 1-1-2.8 4.2 4.2 0 0 1 1-2.7 3.6 3.6 0 0 1 5.4 0 4.2 4.2 0 0 1 1 2.7c0 .5 0 1-.3 1.5l-.7 1.3a3.5 3.5 0 0 1-2.7 1.1 3.6 3.6 0 0 1-2.7-1.1Zm5.1-.2a3.9 3.9 0 0 0 1-2.5c0-.6 0-1-.3-1.5a3.5 3.5 0 0 0-1.7-2l-1.4-.2a3.3 3.3 0 0 0-3.1 2.2c-.2.4-.3.9-.3 1.4a3.9 3.9 0 0 0 1 2.6 3.4 3.4 0 0 0 3.8.7l1-.7Zm-1-6.2v.3-.3Zm.2 2.5c-.2-.3-.4-.6-.7-.7-.2-.2-.5-.3-.9-.3s-.7 0-1 .3a2 2 0 0 0-.6.7L62 81c0 .4 0 .8.2 1 .2.4.4.7.7.8.2.2.5.3.9.3s.7 0 1-.3l.6-.7.2-1.1c0-.4 0-.8-.2-1Zm-3.4-.1c.1-.4.4-.7.7-.9.3-.2.7-.3 1.1-.3.4 0 .8.1 1 .3.4.2.6.5.8.9l.3 1.2c0 .4 0 .9-.3 1.2-.2.4-.4.7-.7.9-.3.2-.7.3-1.1.3-.4 0-.8-.1-1-.3-.4-.2-.7-.5-.8-.9a2.8 2.8 0 0 1 0-2.4Zm7.5 4c0 .3 0 .4-.2.5l-.4.2c-.2 0-.3 0-.4-.2a.6.6 0 0 1-.2-.4V78l.2-.4.5-.2h.3l.2.3 2.2 3.3 2.2-3.3c.2-.2.3-.3.5-.3s.3 0 .4.2c.2 0 .2.2.2.4v5.8l-.1.4-.5.2c-.2 0-.3 0-.4-.2a.6.6 0 0 1-.2-.4v-4L72 82.4l-.2.2h-.5l-.3-.2-1.6-2.6v4Zm.3-3v3c0 .3 0 .5-.2.7-.2.2-.4.3-.7.3-.2 0-.4 0-.6-.3a1 1 0 0 1-.3-.6V78c0-.2.1-.5.3-.6a1 1 0 0 1 1-.2c.2 0 .4.2.5.3l1.9 3 2-3c.2-.3.4-.4.7-.4.3 0 .5 0 .6.2.2.2.3.4.3.7v5.8c0 .2 0 .5-.2.6a1 1 0 0 1-.7.3 1 1 0 0 1-.7-.3 1 1 0 0 1-.2-.6v-3l-1.1 1.7-.3.2-.5.1h-.4l-.3-.3-1.1-1.8Zm-11.2-14 .3 1.2c0 .4-.1.9-.3 1.2-.2.4-.4.7-.7.9-.3.2-.7.3-1.1.3-.4 0-.8-.1-1.1-.3-.3-.2-.6-.5-.7-.9a2.8 2.8 0 0 1 0-2.4c.1-.4.4-.7.7-.9a1.9 1.9 0 0 1 2.2 0c.3.2.5.5.7.9Zm-.6 13 .3 1.2c0 .4 0 .9-.3 1.2-.1.4-.4.7-.7.9a1.9 1.9 0 0 1-2.2 0c-.3-.2-.5-.5-.7-.9a2.8 2.8 0 0 1 0-2.4c.2-.4.4-.7.7-.9.3-.2.7-.3 1.1-.3.4 0 .8.1 1.1.3.3.2.6.5.7.9Z" fill="#000"/><path d="M43 94.5v11.8c0 1.2 1 2.2 2.1 2.2H76c1.1 0 2.1-1 2.1-2.2V94.5H43Z" fill="#FFC599"/><path d="M73.7 102.8H47.4a1 1 0 0 0 0 2.1h26.3a1 1 0 1 0 0-2.1ZM67.2 98.7H47.4a1 1 0 1 0 0 2.2h19.8a1 1 0 0 0 0-2.2Z" fill="#fff"/><path d="M70.6 68a2.7 2.7 0 1 0 0-5.5 2.7 2.7 0 0 0 0 5.5Z" fill="red"/><path d="M30 48.4h-.4l1-1.1a1 1 0 1 0-1.4-1.5L28.1 47v-.3a1 1 0 0 0-2.1 0v2.8c0 .6.5 1.1 1 1.1h3a1 1 0 0 0 0-2.1Z" fill="#FF6400"/><path d="M28.5 60h-3a1 1 0 0 0 0 2.2h.4l-1.1 1.2a1 1 0 1 0 1.5 1.5l1.1-1.1v.3a1 1 0 0 0 2.2 0v-3c0-.6-.5-1-1-1ZM96 74.9h-3a1 1 0 0 0 0 2.1h.3l-1.1 1.2a1 1 0 1 0 1.5 1.5l1.1-1.1v.3a1 1 0 1 0 2.2 0v-3c0-.5-.5-1-1-1Z" fill="#FF8B00"/><path d="M93 86.6h-.4l1.1-1.1a1 1 0 1 0-1.5-1.6L91 85.1v-.4a1 1 0 0 0-2.1 0v3c0 .6.5 1 1 1h3a1 1 0 1 0 0-2.1ZM90.4 24.2v.4a1 1 0 0 0 2.1 0v-3c0-.6-.4-1-1-1h-3a1 1 0 1 0 0 2h.3l-1 1.2a1 1 0 0 0 1.4 1.5l1.2-1Z" fill="#01ECA5"/><defs><linearGradient id="a" x1="84.6" y1="174" x2="165.2" y2="55.6" gradientUnits="userSpaceOnUse"><stop stop-color="#FF6400" stop-opacity="0"/><stop offset="1" stop-color="#FFE5D4" stop-opacity=".4"/></linearGradient></defs></svg>