<svg width="150" height="130" viewBox="0 0 150 130" fill="none" xmlns="http://www.w3.org/2000/svg">
<path d="M137.974 31.2829C118.978 16.7334 100.552 28.5907 80.0006 24.3985C59.3001 20.1757 51.053 6.1148 27.4759 12.6051C6.59047 18.3543 -6.08218 41.4047 5.39928 60.7027C8.67111 66.2019 14.2449 70.3507 16.5227 76.5037C20.197 86.4297 14.6041 94.0503 15.6951 103.805C20.2287 144.335 82.3612 128.636 105.223 116.026C141.078 96.2501 165.334 52.2376 137.974 31.2829Z" fill="url(#paint0_linear_1562:2168)"/>
<path fill-rule="evenodd" clip-rule="evenodd" d="M123.448 32.2861C123.448 34.0428 124.877 35.4721 126.634 35.4721C128.391 35.4721 129.82 34.0428 129.82 32.2861C129.82 30.5294 128.391 29.1001 126.634 29.1001C124.877 29.1001 123.448 30.5294 123.448 32.2861ZM125.63 32.2861C125.63 31.7324 126.08 31.2818 126.634 31.2818C127.188 31.2818 127.638 31.7322 127.638 32.2861C127.638 32.84 127.188 33.2904 126.634 33.2904C126.08 33.2904 125.63 32.8398 125.63 32.2861Z" fill="#8399FE"/>
<path fill-rule="evenodd" clip-rule="evenodd" d="M28.6741 107.262C28.6741 109.019 30.1033 110.448 31.8601 110.448C33.6168 110.448 35.0461 109.019 35.0461 107.262C35.0461 105.505 33.6168 104.076 31.8601 104.076C30.1033 104.076 28.6741 105.505 28.6741 107.262ZM30.8558 107.262C30.8558 106.708 31.3063 106.258 31.8601 106.258C32.414 106.258 32.8643 106.708 32.8643 107.262C32.8643 107.816 32.4138 108.266 31.8601 108.266C31.3063 108.266 30.8558 107.816 30.8558 107.262Z" fill="#01ECA5"/>
<path d="M5.87582 95.2817C4.86151 95.2817 4.03963 94.4594 4.03963 93.4455C4.03963 92.2303 3.05139 91.242 1.83619 91.242C0.82188 91.242 0 90.4198 0 89.4058C0 88.3919 0.82188 87.5697 1.83619 87.5697C3.05139 87.5697 4.03963 86.581 4.03963 85.3662C4.03963 84.3523 4.86151 83.53 5.87582 83.53C6.89013 83.53 7.71201 84.3523 7.71201 85.3662C7.71201 86.5814 8.70025 87.5697 9.91545 87.5697C10.9298 87.5697 11.7516 88.3919 11.7516 89.4058C11.7516 90.4198 10.9298 91.242 9.91545 91.242C8.70025 91.242 7.71201 92.2303 7.71201 93.4455C7.71201 94.4598 6.89013 95.2817 5.87582 95.2817Z" fill="#FF7EB8"/>
<path d="M8.69263 10.3237H14.9851V13.47H8.69263V10.3237Z" fill="#FF6400"/>
<path d="M26.7837 10.3237H33.0762V13.47H26.7837V10.3237Z" fill="#FF6400"/>
<path d="M18.918 18.1895H22.0642V24.482H18.918V18.1895Z" fill="#FF6400"/>
<path d="M18.918 0.0983887H22.0642V6.39091H18.918V0.0983887Z" fill="#FF6400"/>
<path d="M126.418 81.2283H130.194V83.116H126.418V81.2283Z" fill="#FF6400"/>
<path d="M137.273 81.2283H141.048V83.116H137.273V81.2283Z" fill="#FF6400"/>
<path d="M132.554 85.9475H134.441V89.723H132.554V85.9475Z" fill="#FF6400"/>
<path d="M132.554 75.093H134.441V78.8685H132.554V75.093Z" fill="#FF6400"/>
<path opacity="0.1" d="M123.523 121.058L97.5094 95.0434C100.73 90.904 103.094 86.0659 104.336 80.794H116.898C118.135 80.794 119.138 79.7914 119.138 78.5546V66.0585C119.138 64.8216 118.135 63.819 116.898 63.819H104.368C100.553 47.3503 85.7908 35.0759 68.1618 35.0759C50.5329 35.0759 35.7709 47.3503 31.9554 63.819H19.5439C18.307 63.819 17.3044 64.8216 17.3044 66.0585V78.5546C17.3044 79.7914 18.307 80.794 19.5439 80.794H31.9874C35.8509 97.1964 50.5797 109.406 68.1616 109.406C76.7562 109.406 84.6684 106.487 90.9641 101.589L116.978 127.603C118.786 129.41 121.716 129.41 123.524 127.603C125.331 125.795 125.331 122.865 123.523 121.058Z" fill="#2626BC"/>
<g clip-path="url(#clip0_1562:2168)">
<path d="M123.524 122.228C121.716 124.036 118.786 124.036 116.978 122.228L87.5337 92.7835L94.0789 86.2383L123.524 115.683C125.331 117.49 125.331 120.421 123.524 122.228Z" fill="#FF6400"/>
<path d="M100.395 105.664L106.939 99.1194L109.789 101.969L103.245 108.513L100.395 105.664Z" fill="#FFAB66"/>
<path d="M87.5186 92.7849L94.0628 86.2407L104.354 96.5321L97.8099 103.076L87.5186 92.7849Z" fill="#FFAB66"/>
<circle cx="68.1618" cy="66.8664" r="37.165" fill="#FF6400"/>
<path d="M31.0273 68.3567C31.1758 72.1096 31.8812 75.7191 33.0623 79.106H103.262C104.442 75.7191 105.148 72.1096 105.297 68.3567H31.0273Z" fill="#FF5BA8"/>
<circle cx="68.1619" cy="66.8665" r="29.1128" fill="#97FFD2"/>
<path d="M39.0881 68.3567C39.2814 72.181 40.2121 75.8105 41.7414 79.106H94.5821C96.1114 75.8105 97.0423 72.181 97.2354 68.3567H39.0881Z" fill="#02FFB3"/>
<path d="M52.8923 91.6557C53.2674 91.2826 79.9988 64.5955 92.9359 51.5718C91.0122 48.4625 88.521 45.7416 85.605 43.5559C84.1749 44.986 57.0057 72.1552 44.8516 84.3094C47.0431 87.2336 49.7727 89.73 52.8923 91.6557Z" fill="#DCFDEE"/>
<path d="M60.8045 68.3567C57.0344 72.1268 53.3189 75.8423 50.0552 79.106H65.4547C68.7846 75.7773 72.4906 72.071 76.2014 68.3567H60.8045Z" fill="#97FFD2"/>
<path d="M73.5626 38.2568C70.6701 41.1294 47.9765 63.7485 39.5425 72.2055C39.8788 74.0222 40.3809 75.781 41.0382 77.4624C53.6114 64.8892 66.1845 52.3161 78.7577 39.7429C77.0951 39.093 75.3577 38.5934 73.5626 38.2568Z" fill="#DCFDEE"/>
<path d="M116.899 75.4193H19.5441C18.3073 75.4193 17.3047 74.4167 17.3047 73.1799V60.6838C17.3047 59.4469 18.3073 58.4443 19.5441 58.4443H116.899C118.136 58.4443 119.138 59.4469 119.138 60.6838V73.1799C119.138 74.4167 118.135 75.4193 116.899 75.4193Z" fill="white"/>
<path d="M116.899 58.4443H99.1257V75.4193H116.899C118.136 75.4193 119.138 74.4167 119.138 73.1799V60.6838C119.138 59.4469 118.135 58.4443 116.899 58.4443Z" fill="#FF6400" fill-opacity="0.305726"/>
<path d="M48.5959 69.4523C48.5119 69.3403 48.4699 69.2003 48.4699 69.0323C48.4699 68.7896 48.5912 68.5843 48.8339 68.4163C48.9645 68.3323 49.0999 68.2903 49.2399 68.2903C49.4359 68.2903 49.6225 68.3789 49.7999 68.5563C50.0799 68.8456 50.3692 69.0603 50.6679 69.2003C50.9759 69.3403 51.3445 69.4103 51.7739 69.4103C52.5019 69.3823 52.8659 69.1069 52.8659 68.5843C52.8659 68.3136 52.7399 68.1083 52.4879 67.9683C52.2452 67.8283 51.8625 67.6883 51.3399 67.5483C50.7985 67.3989 50.3552 67.2496 50.0099 67.1003C49.6739 66.9509 49.3799 66.7269 49.1279 66.4283C48.8852 66.1203 48.7639 65.7096 48.7639 65.1963C48.7639 64.7483 48.8899 64.3609 49.1419 64.0343C49.4032 63.6983 49.7392 63.4416 50.1499 63.2643C50.5699 63.0776 51.0132 62.9843 51.4799 62.9843C51.9559 62.9843 52.4319 63.0729 52.9079 63.2503C53.3839 63.4276 53.7572 63.6889 54.0279 64.0343C54.1492 64.1836 54.2099 64.3516 54.2099 64.5383C54.2099 64.7529 54.1212 64.9303 53.9439 65.0703C53.8132 65.1729 53.6639 65.2243 53.4959 65.2243C53.2905 65.2243 53.1225 65.1589 52.9919 65.0283C52.8239 64.8229 52.6045 64.6596 52.3339 64.5383C52.0725 64.4169 51.7739 64.3563 51.4379 64.3563C50.7285 64.3563 50.3739 64.6129 50.3739 65.1263C50.3739 65.3316 50.4392 65.4996 50.5699 65.6303C50.7005 65.7516 50.8639 65.8496 51.0599 65.9243C51.2652 65.9896 51.5499 66.0736 51.9139 66.1763C52.4179 66.3163 52.8379 66.4609 53.1739 66.6103C53.5099 66.7596 53.7945 66.9883 54.0279 67.2963C54.2612 67.6043 54.3779 68.0103 54.3779 68.5143C54.3779 68.9716 54.2425 69.3729 53.9719 69.7183C53.7012 70.0543 53.3512 70.3109 52.9219 70.4883C52.5019 70.6656 52.0679 70.7543 51.6199 70.7543C51.0039 70.7543 50.4299 70.6516 49.8979 70.4463C49.3659 70.2409 48.9319 69.9096 48.5959 69.4523ZM62.9798 66.8763C62.9798 67.6229 62.8118 68.2949 62.4758 68.8923C62.1398 69.4803 61.6778 69.9376 61.0898 70.2643C60.5111 70.5909 59.8718 70.7543 59.1718 70.7543C58.4624 70.7543 57.8184 70.5909 57.2398 70.2643C56.6611 69.9376 56.2038 69.4803 55.8678 68.8923C55.5318 68.2949 55.3638 67.6229 55.3638 66.8763C55.3638 66.1296 55.5318 65.4623 55.8678 64.8743C56.2038 64.2769 56.6611 63.8149 57.2398 63.4883C57.8184 63.1523 58.4624 62.9843 59.1718 62.9843C59.8718 62.9843 60.5111 63.1523 61.0898 63.4883C61.6778 63.8149 62.1398 64.2769 62.4758 64.8743C62.8118 65.4623 62.9798 66.1296 62.9798 66.8763ZM61.2998 66.8763C61.2998 66.4189 61.2018 66.0129 61.0058 65.6583C60.8191 65.2943 60.5624 65.0143 60.2358 64.8183C59.9184 64.6223 59.5638 64.5243 59.1718 64.5243C58.7798 64.5243 58.4204 64.6223 58.0938 64.8183C57.7764 65.0143 57.5198 65.2943 57.3238 65.6583C57.1371 66.0129 57.0438 66.4189 57.0438 66.8763C57.0438 67.3336 57.1371 67.7396 57.3238 68.0943C57.5198 68.4489 57.7764 68.7243 58.0938 68.9203C58.4204 69.1163 58.7798 69.2143 59.1718 69.2143C59.5638 69.2143 59.9184 69.1163 60.2358 68.9203C60.5624 68.7243 60.8191 68.4489 61.0058 68.0943C61.2018 67.7396 61.2998 67.3336 61.2998 66.8763ZM68.2754 62.9843C68.5554 62.9843 68.7887 63.0636 68.9754 63.2223C69.1714 63.3809 69.2694 63.5676 69.2694 63.7823C69.2694 64.0716 69.1947 64.2909 69.0454 64.4403C68.8961 64.5803 68.7187 64.6503 68.5134 64.6503C68.3734 64.6503 68.2147 64.6176 68.0374 64.5523C68.0094 64.5429 67.9441 64.5243 67.8414 64.4963C67.7481 64.4683 67.6454 64.4543 67.5334 64.4543C67.2907 64.4543 67.0574 64.5289 66.8334 64.6783C66.6094 64.8276 66.4227 65.0563 66.2734 65.3643C66.1334 65.6629 66.0634 66.0223 66.0634 66.4423V69.7603C66.0634 70.0029 65.9841 70.2083 65.8254 70.3763C65.6667 70.5349 65.4661 70.6143 65.2234 70.6143C64.9807 70.6143 64.7801 70.5349 64.6214 70.3763C64.4627 70.2083 64.3834 70.0029 64.3834 69.7603V63.9783C64.3834 63.7356 64.4627 63.5349 64.6214 63.3763C64.7801 63.2083 64.9807 63.1243 65.2234 63.1243C65.4661 63.1243 65.6667 63.2083 65.8254 63.3763C65.9841 63.5349 66.0634 63.7356 66.0634 63.9783V64.1603C66.2781 63.7776 66.5861 63.4883 66.9874 63.2923C67.3887 63.0869 67.8181 62.9843 68.2754 62.9843ZM74.3457 62.9843C74.6257 62.9843 74.859 63.0636 75.0457 63.2223C75.2417 63.3809 75.3397 63.5676 75.3397 63.7823C75.3397 64.0716 75.265 64.2909 75.1157 64.4403C74.9664 64.5803 74.789 64.6503 74.5837 64.6503C74.4437 64.6503 74.285 64.6176 74.1077 64.5523C74.0797 64.5429 74.0144 64.5243 73.9117 64.4963C73.8184 64.4683 73.7157 64.4543 73.6037 64.4543C73.361 64.4543 73.1277 64.5289 72.9037 64.6783C72.6797 64.8276 72.493 65.0563 72.3437 65.3643C72.2037 65.6629 72.1337 66.0223 72.1337 66.4423V69.7603C72.1337 70.0029 72.0544 70.2083 71.8957 70.3763C71.737 70.5349 71.5364 70.6143 71.2937 70.6143C71.051 70.6143 70.8504 70.5349 70.6917 70.3763C70.533 70.2083 70.4537 70.0029 70.4537 69.7603V63.9783C70.4537 63.7356 70.533 63.5349 70.6917 63.3763C70.8504 63.2083 71.051 63.1243 71.2937 63.1243C71.5364 63.1243 71.737 63.2083 71.8957 63.3763C72.0544 63.5349 72.1337 63.7356 72.1337 63.9783V64.1603C72.3484 63.7776 72.6564 63.4883 73.0577 63.2923C73.459 63.0869 73.8884 62.9843 74.3457 62.9843ZM82.082 63.1243C82.3247 63.1243 82.5253 63.2083 82.684 63.3763C82.8427 63.5349 82.922 63.7356 82.922 63.9783V69.9283C82.922 71.1416 82.5953 72.0236 81.942 72.5743C81.2887 73.1343 80.416 73.4143 79.324 73.4143C79.0067 73.4143 78.68 73.3863 78.344 73.3303C78.0173 73.2836 77.7513 73.2183 77.546 73.1343C77.0887 72.9383 76.86 72.6676 76.86 72.3223C76.86 72.2569 76.874 72.1823 76.902 72.0983C76.958 71.8929 77.0513 71.7343 77.182 71.6223C77.322 71.5196 77.4713 71.4683 77.63 71.4683C77.7233 71.4683 77.812 71.4823 77.896 71.5103C77.9613 71.5383 78.0733 71.5849 78.232 71.6503C78.4 71.7156 78.5727 71.7669 78.75 71.8043C78.9367 71.8509 79.128 71.8743 79.324 71.8743C79.9867 71.8743 80.472 71.7296 80.78 71.4403C81.0973 71.1603 81.256 70.6749 81.256 69.9843V69.8443C80.7707 70.4509 80.0147 70.7543 78.988 70.7543C78.5027 70.7543 78.0733 70.6423 77.7 70.4183C77.3267 70.1849 77.0373 69.8676 76.832 69.4663C76.6267 69.0556 76.524 68.5889 76.524 68.0663V63.9783C76.524 63.7356 76.6033 63.5349 76.762 63.3763C76.9207 63.2083 77.1213 63.1243 77.364 63.1243C77.6067 63.1243 77.8073 63.2083 77.966 63.3763C78.1247 63.5349 78.204 63.7356 78.204 63.9783V67.5623C78.204 68.1503 78.33 68.5749 78.582 68.8363C78.8433 69.0883 79.2213 69.2143 79.716 69.2143C80.2013 69.2143 80.5747 69.0743 80.836 68.7943C81.1067 68.5049 81.242 68.0943 81.242 67.5623V63.9783C81.242 63.7356 81.3213 63.5349 81.48 63.3763C81.6387 63.2083 81.8393 63.1243 82.082 63.1243Z" fill="black"/>
</g>
<path fill-rule="evenodd" clip-rule="evenodd" d="M98.9857 89.5615C101.858 85.6617 103.988 81.233 105.212 76.5391H116.899C118.751 76.5391 120.258 75.0322 120.258 73.1799V60.6838C120.258 58.8315 118.751 57.3246 116.899 57.3246H33.3945C35.4046 49.9974 39.768 43.3863 45.758 38.6275C52.1861 33.5204 59.9333 30.8212 68.1619 30.8212C82.2456 30.8212 95.1244 39.1034 100.973 51.9211C101.229 52.4836 101.894 52.732 102.456 52.4749C103.019 52.2182 103.267 51.554 103.01 50.9912C96.7991 37.3779 83.1203 28.5815 68.1621 28.5815C59.4225 28.5815 51.1936 31.4489 44.3653 36.8738C37.8436 42.055 33.1376 49.3056 31.0785 57.3244H19.5437C17.6915 57.3244 16.1846 58.8313 16.1846 60.6836V73.1797C16.1846 75.0319 17.6915 76.5389 19.5437 76.5389H31.1116C33.1882 84.5059 37.879 91.7062 44.3656 96.8589C51.1939 102.284 59.4222 105.151 68.1617 105.151C76.4367 105.151 84.2566 102.576 90.8625 97.6956L116.187 123.02C117.307 124.14 118.779 124.7 120.251 124.7C121.723 124.7 123.195 124.14 124.315 123.02C126.556 120.779 126.556 117.132 124.315 114.891L98.9857 89.5615ZM45.7585 95.1057C39.804 90.3753 35.457 83.8142 33.431 76.5391H37.09C37.7083 76.5391 38.2098 76.0377 38.2098 75.4194C38.2098 74.801 37.7083 74.2996 37.09 74.2996H19.5437C18.9263 74.2996 18.424 73.7973 18.424 73.1799V60.6838C18.424 60.0664 18.9263 59.5641 19.5437 59.5641H116.898C117.516 59.5641 118.018 60.0664 118.018 60.6838V73.1799C118.018 73.7973 117.516 74.2996 116.898 74.2996H44.6282C44.0099 74.2996 43.5085 74.801 43.5085 75.4194C43.5085 76.0377 44.0099 76.5391 44.6282 76.5391H102.893C100.86 83.8401 96.4853 90.4243 90.5002 95.157C84.0844 100.23 76.3599 102.911 68.1617 102.911C59.9335 102.911 52.1866 100.212 45.7585 95.1057ZM120.251 122.464C121.188 122.464 122.069 122.099 122.732 121.436C124.1 120.069 124.1 117.843 122.732 116.475L97.595 91.3378C96.1019 93.1356 94.4432 94.8004 92.638 96.3042L117.77 121.436C118.433 122.099 119.314 122.464 120.251 122.464Z" fill="black"/>
<path fill-rule="evenodd" clip-rule="evenodd" d="M109.749 69.2351C109.17 69.5531 108.517 69.7238 107.838 69.7238C106.773 69.7238 105.773 69.3095 105.02 68.5568C103.467 67.0035 103.467 64.4759 105.02 62.9226C105.773 62.1701 106.773 61.7556 107.838 61.7556C108.902 61.7556 109.902 62.1701 110.655 62.9226C111.407 63.675 111.822 64.6756 111.822 65.7398C111.822 66.4193 111.651 67.0721 111.333 67.6516L113.648 69.9661C114.085 70.4032 114.085 71.1123 113.648 71.5496C113.429 71.7682 113.142 71.8775 112.856 71.8775C112.569 71.8775 112.283 71.7682 112.064 71.5496L109.749 69.2351ZM107.838 63.9951C107.372 63.9951 106.933 64.1765 106.604 64.5061C105.924 65.1862 105.924 66.2932 106.604 66.9735C106.933 67.303 107.371 67.4843 107.837 67.4843C108.303 67.4843 108.741 67.303 109.071 66.9738L109.071 66.9733C109.071 66.9733 109.071 66.9733 109.072 66.9731C109.751 66.2927 109.751 65.1862 109.071 64.5061C108.742 64.1767 108.304 63.9951 107.838 63.9951Z" fill="black"/>
<defs>
<linearGradient id="paint0_linear_1562:2168" x1="36.064" y1="156.823" x2="168.258" y2="77.6371" gradientUnits="userSpaceOnUse">
<stop stop-color="#FFE5D4" stop-opacity="0.432747"/>
<stop offset="1" stop-color="#FF6400" stop-opacity="0.01"/>
</linearGradient>
<clipPath id="clip0_1562:2168">
<rect width="108" height="94" fill="white" transform="translate(17.1199 29.6143)"/>
</clipPath>
</defs>
</svg>
