<svg xmlns="http://www.w3.org/2000/svg" width="150" height="135" fill="none"><defs/><path fill="#2626BC" d="M93 42l-1 1-23 8v-1c0-6-5-10-11-10h-4v-2a9 9 0 10-17 4 10 10 0 007 19l-12 4c-2 1-4 3-4 6v10c0 2 2 5 4 6l4 1v11c0 3 2 5 4 6l19 8a7 7 0 0010-7v-6l24 9c5 0 9-15 9-33 0-19-4-34-9-34zm-29 64l-1 2h-2l-19-8-1-1v-9l23 8v8z" opacity=".1"/><path fill="#6583FE" d="M78 32l-1-1-2-1a1 1 0 010-2l2-2a1 1 0 112 0l1 2a1 1 0 010 2l-1 1-1 1z"/><path fill="#01ECA5" d="M107 107l-1-1-1-1a1 1 0 010-2l1-1a1 1 0 113 0l1 1a1 1 0 010 2l-1 1-2 1z"/><path fill="#FF7EB8" d="M69 26l-1-1-1-1a1 1 0 010-2l1-1a1 1 0 112 0l1 1a1 1 0 010 2l-1 1-1 1z"/><path fill="#01ECA5" d="M103 35h-1l-2-3v-1l2-3h2l2 3v1l-2 3h-1zm-1-4l1 1 1-1h-2z"/><path fill="#FF7EB8" d="M40 113h-1l-2-3v-1l2-3h2l2 3v1l-2 3h-1zm-1-4l1 1 1-1h-2z"/><path fill="#FFB3B3" d="M43 78v14l1 1 18 8 2-1V87h5v12a6 6 0 01-9 6l-18-7c-2-1-4-3-4-6V78h5z"/><path fill="#B7C5FF" d="M38 78h5v9l-5-2v-7zM69 87v9l-5-2v-7h5z"/><path fill="#FFAB66" d="M31 66v9c0 2 2 5 4 5l57 22V39L35 60c-2 1-4 3-4 6z"/><path fill="#FF6400" d="M69 50v9l-1 1H46l-6-2 29-10v2zM67 79l-21-8c-2 0-3 1-3 2v4l1 2 21 7c2 1 3 0 3-2v-3l-1-2z"/><path fill="#FFB3B3" d="M51 54v32l-16-6c-2 0-4-3-4-5v-9c0-3 2-5 4-6l5-2 11-4z"/><path fill="#FFC4DF" d="M51 54v6h-5l-6-2 11-4z"/><path fill="#fff" d="M31 66h4a1 1 0 010 2h-4v-2zM31 69h4a1 1 0 010 2h-4v-2zM31 72h4a1 1 0 010 2h-4v-2zM92 102c5 0 8-14 8-32 0-17-3-31-8-31-4 0-8 14-8 31 0 18 4 32 8 32z"/><path fill="#FFB3B3" d="M88 95c1 0 3-11 3-25 0-13-2-25-3-25-2 0-4 12-4 25 0 14 2 25 4 25z"/><path fill="#FF5BA8" d="M92 70c0 5-3 8-7 8a122 122 0 010-15c4 0 7 3 7 7z"/><path fill="#FF6400" d="M91 70l-1 5c-1 2-3 3-5 3a122 122 0 010-15l5 2 1 5z"/><path fill="#fff" d="M68 56H46a10 10 0 010-19h13c6 0 10 4 10 9v9l-1 1z"/><path fill="#FF4D4D" d="M55 38a9 9 0 01-17 2l1-1 7-2h9v1z"/><path fill="#FFB3B3" d="M62 48H44a1 1 0 010-2h18a1 1 0 010 2zM62 51H44a1 1 0 010-2h18a1 1 0 010 2z"/><path fill="#FF6400" d="M47 43a9 9 0 100-17 9 9 0 000 17z"/><path fill="#fff" d="M50 34a3 3 0 10-6 2v2a1 1 0 102 0 1 1 0 012 0 1 1 0 102 0l-1-2 1-2zm-3-2a1 1 0 110 3 1 1 0 010-3z"/><path fill="#FFA8CF" d="M51 73v8l-7-2-1-2v-4c0-1 1-2 3-2l5 2z"/><path fill="#DCFDEE" d="M51 46a9 9 0 01-8 0h8z"/><g opacity=".1"><path fill="#2626BC" d="M111 80l-6-2a1 1 0 011-2l5 2v-2h1l7 1a1 1 0 010 2l-6-1-1 1-1 1z" opacity=".1"/><g opacity=".1"><path fill="#2626BC" d="M105 71a1 1 0 010-1l4-3v-1-1l6-4a1 1 0 111 1l-5 4v2l-5 3h-1zM116 95h-1l-6-4v-2l-4-3a1 1 0 011-2l5 3v3l5 3a1 1 0 010 2z" opacity=".1"/></g></g><path fill="#000" d="M35 82l2 1v9c0 3 2 6 5 7l18 7a7 7 0 007 0l3-6v-5l12 4a1 1 0 001 0l-1-2-47-17c-2-1-3-3-3-5v-9c0-2 1-4 3-5l11-4h12l1-1-1-1H46c-5 0-9-4-9-9l2-6a9 9 0 0017-3h3c5 0 9 4 9 9v9h-4l-1 1 1 1h4l2-2v-7l18-6-2 6a98 98 0 000 45c1 7 4 10 6 10 3 0 5-3 7-10l2-23-2-22c-2-7-4-10-7-10l-2 1-20 7c0-6-5-11-11-11h-3c0-6-4-10-9-10a10 10 0 00-9 13 11 11 0 004 19l-7 2c-3 1-5 4-5 7v9c0 3 2 6 5 7zm33 18a5 5 0 01-5 5h-2l-18-8c-2 0-4-2-4-5v-9l3 2v7l2 3 18 7a2 2 0 002 0l1-2v-7l3 1v6zM44 85l19 7v8l-19-7v-8zm55-15c0 19-4 31-7 31s-7-12-7-31c0-16 4-27 6-30h1c3 0 7 12 7 30zM47 27c4 0 7 3 7 8 0 4-3 7-7 7s-8-3-8-7c0-5 4-8 8-8zM105 74l6 1a1 1 0 001-1l1-1 6 2 1-1-1-2-7-1-1 1-1 1-5-1h-1l1 2zM105 67h1l5-3v-3l6-3v-2h-2l-6 4v2l-5 3v2h1zM109 86l6 4a1 1 0 002 0v-2l-6-3v-1-2l-5-3h-2v2l5 3v2z"/></svg>