<svg xmlns="http://www.w3.org/2000/svg" width="40" height="40" fill="none"><path fill="#696969" fill-rule="evenodd" d="M36.68 15.83c.5.01.93.37 1.02.87a17.88 17.88 0 0 1-4.97 16.03A17.88 17.88 0 0 1 20 38c-4.8 0-9.33-1.87-12.73-5.27A17.88 17.88 0 0 1 2 20c0-4.8 1.87-9.33 5.27-12.73A17.88 17.88 0 0 1 23.3 2.3a1.05 1.05 0 0 1 .05 2.07 10.25 10.25 0 1 0 12.28 12.28c.11-.48.55-.83 1.05-.82ZM4.11 20A15.9 15.9 0 0 0 20 35.9c8.31 0 15.16-6.43 15.83-14.57a12.4 12.4 0 0 1-10.18 5.37 12.37 12.37 0 0 1-6.98-22.54A15.91 15.91 0 0 0 4.1 20Z" clip-rule="evenodd"/><path fill="#696969" d="m37.7 16.7.31-.06-.31.06Zm-1.02-.87v.33-.33Zm-3.95 16.9.23.23-.23-.23Zm-25.46 0-.23.23.23-.23Zm0-25.46-.23-.23.23.23ZM23.3 2.3l.06-.31-.06.31Zm.87 1.02h.32-.32Zm-.82 1.05-.07-.32.07.32Zm12.28 12.28.32.07-.32-.07Zm.2 4.68.33.03.1-1.21-.7 1 .27.18Zm-2.43 2.64.2.25-.2-.25ZM16.03 6.6l.25.2-.25-.2Zm2.64-2.44.18.27 1-.69-1.21.1.03.32ZM38 16.64a1.38 1.38 0 0 0-1.32-1.13l-.02.65c.35 0 .65.25.7.6l.64-.12Zm.31 3.36c0-1.13-.1-2.26-.3-3.36l-.64.11c.2 1.07.3 2.16.3 3.25h.64Zm-5.36 12.96A18.2 18.2 0 0 0 38.32 20h-.64c0 4.72-1.84 9.16-5.18 12.5l.46.46ZM20 38.32c4.9 0 9.5-1.9 12.96-5.36l-.46-.46A17.56 17.56 0 0 1 20 37.68v.64ZM7.04 32.96A18.2 18.2 0 0 0 20 38.32v-.64c-4.72 0-9.16-1.84-12.5-5.18l-.46.46ZM1.68 20c0 4.9 1.9 9.5 5.36 12.96l.46-.46A17.56 17.56 0 0 1 2.32 20h-.64ZM7.04 7.04A18.2 18.2 0 0 0 1.68 20h.64c0-4.72 1.84-9.16 5.18-12.5l-.46-.46ZM20 1.68c-4.9 0-9.5 1.9-12.96 5.36l.46.46A17.56 17.56 0 0 1 20 2.32v-.64Zm3.36.3c-1.1-.2-2.23-.3-3.36-.3v.64c1.09 0 2.18.1 3.25.3l.11-.63Zm1.13 1.33A1.38 1.38 0 0 0 23.36 2l-.11.63c.34.06.59.36.6.7h.64Zm-1.07 1.37a1.38 1.38 0 0 0 1.07-1.37l-.65.02c.01.34-.23.65-.56.72l.14.63Zm-7.7 9.67a9.87 9.87 0 0 1 7.7-9.67l-.14-.63a10.51 10.51 0 0 0-8.2 10.3h.65Zm9.93 9.92a9.93 9.93 0 0 1-9.92-9.92h-.65c0 5.83 4.74 10.57 10.57 10.57v-.65Zm9.67-7.69a9.87 9.87 0 0 1-9.67 7.7v.64c4.95 0 9.19-3.37 10.3-8.2l-.63-.14Zm1.37-1.07a1.37 1.37 0 0 0-1.37 1.07l.63.14a.73.73 0 0 1 .72-.56l.02-.65ZM20 35.57A15.59 15.59 0 0 1 4.43 20H3.8c0 8.94 7.27 16.21 16.21 16.21v-.64ZM35.51 21.3A15.6 15.6 0 0 1 20 35.57v.64c8.48 0 15.46-6.54 16.16-14.85l-.65-.05Zm-1.91 2.91c.96-.78 1.8-1.7 2.5-2.7l-.53-.37c-.66.96-1.46 1.83-2.38 2.57l.4.5Zm-7.95 2.8c2.88 0 5.7-.99 7.95-2.8l-.4-.5a12.06 12.06 0 0 1-7.55 2.66v.65ZM12.97 14.36c0 6.99 5.69 12.68 12.68 12.68v-.65c-6.63 0-12.03-5.4-12.03-12.03h-.65Zm2.8-7.95a12.7 12.7 0 0 0-2.8 7.95h.65c0-2.74.94-5.42 2.66-7.54l-.5-.4Zm2.71-2.5c-1 .7-1.92 1.54-2.7 2.5l.5.4c.74-.91 1.6-1.71 2.57-2.37l-.37-.53ZM4.43 20c0-8.14 6.29-14.85 14.26-15.51l-.05-.65c-8.3.7-14.85 7.68-14.85 16.16h.64Z"/><path fill="#FF7300" fill-rule="evenodd" d="m34 12.08-2.47.92.07-2.76L30 8.06l2.52-.78L34 5l1.48 2.28 2.52.78-1.6 2.18.07 2.76-2.47-.92Z" clip-rule="evenodd"/></svg>