<svg width="78" height="70" viewBox="0 0 78 70" fill="none" xmlns="http://www.w3.org/2000/svg">
<path d="M64.0833 12.3079C58.3003 9.67119 44.3131 8.47246 39.2364 17.8728C35.8611 24.1228 34.4356 29.5739 30.4424 28.6237C28.0664 28.0583 28.1474 22.885 24.9976 21.6219C20.8867 19.9734 16.9859 22.7023 14.2839 25.394C8.33969 31.3154 6.38725 43.5489 10.1446 50.7644C19.2443 68.239 38.5414 57.6103 48.2006 47.8603C54.3956 41.607 65.4859 38.1663 69.7074 30.3842C73.2415 23.8691 71.5215 15.6993 64.0833 12.3079Z" fill="url(#paint0_linear_51_5899)"/>
<path opacity="0.1" d="M47.9702 64.1698H24.5275C22.4666 64.1698 20.7959 62.5154 20.7959 60.4745V13.5832C20.7959 11.5422 22.4666 9.88782 24.5275 9.88782H47.9702C50.0312 9.88782 51.7019 11.5422 51.7019 13.5832V60.4745C51.7019 62.5154 50.0312 64.1698 47.9702 64.1698Z" fill="#2626BC"/>
<path d="M47.9702 61.2135H24.5275C22.4666 61.2135 20.7959 59.5591 20.7959 57.5182V10.6269C20.7959 8.58593 22.4666 6.93152 24.5275 6.93152H47.9702C50.0312 6.93152 51.7019 8.58593 51.7019 10.6269V57.5182C51.7019 59.5591 50.0312 61.2135 47.9702 61.2135Z" fill="#FFB584"/>
<path d="M20.7959 12.217H51.7014V55.9281H20.7959V12.217Z" fill="white"/>
<path d="M20.7959 12.217H51.7014V44.8901H20.7959V12.217Z" fill="#FFECBB"/>
<path d="M48.2701 16.6808H45.6976C45.3542 16.6808 45.0757 16.9566 45.0757 17.2967C45.0757 17.6368 45.3542 17.9126 45.6976 17.9126H48.2701C48.6135 17.9126 48.892 17.6368 48.892 17.2967C48.892 16.9566 48.6135 16.6808 48.2701 16.6808Z" fill="white"/>
<path d="M48.2701 14.4937H45.6976C45.3542 14.4937 45.0757 14.7694 45.0757 15.1095C45.0757 15.4496 45.3542 15.7254 45.6976 15.7254H48.2701C48.6135 15.7254 48.892 15.4496 48.892 15.1095C48.892 14.7694 48.6135 14.4937 48.2701 14.4937Z" fill="white"/>
<path d="M51.7013 31.6829V44.89H27.208C29.8824 41.0272 36.9277 33.4135 51.7013 31.6829Z" fill="#FFE171"/>
<path d="M51.7017 34.6429V44.8901H38.687C40.6026 41.382 44.4885 36.4463 51.7017 34.6429Z" fill="#FFEDB8"/>
<path fill-rule="evenodd" clip-rule="evenodd" d="M24.5274 61.8295H47.9701C50.3707 61.8295 52.3237 59.8954 52.3237 57.5182V10.6269C52.3237 8.2497 50.3707 6.31567 47.9701 6.31567H24.5274C22.1268 6.31567 20.1738 8.2497 20.1738 10.6269V57.5182C20.1738 59.8954 22.1268 61.8295 24.5274 61.8295ZM21.4177 10.6269C21.4177 8.9289 22.8128 7.54746 24.5274 7.54746H47.9701C49.6848 7.54746 51.0798 8.9289 51.0798 10.6269V57.5182C51.0798 59.2162 49.6848 60.5977 47.9701 60.5977H24.5274C22.8128 60.5977 21.4177 59.2162 21.4177 57.5182V10.6269Z" fill="#286082"/>
<path d="M38.4234 10.303H34.0741C33.7307 10.303 33.4521 10.0272 33.4521 9.68706C33.4521 9.34696 33.7307 9.07117 34.0741 9.07117H38.4234C38.7669 9.07117 39.0454 9.34696 39.0454 9.68706C39.0454 10.0272 38.7669 10.303 38.4234 10.303Z" fill="#FF6400"/>
<ellipse cx="41.3253" cy="9.68694" rx="0.622189" ry="0.616138" fill="#FF6400"/>
<ellipse cx="36.2488" cy="42.5031" rx="4.18579" ry="4.14507" fill="#FF6400"/>
<path fill-rule="evenodd" clip-rule="evenodd" d="M36.2482 40.5973C37.3876 40.5973 38.3156 41.515 38.3156 42.6433C38.3156 43.2 38.0892 43.7051 37.7235 44.0746C38.0892 44.4429 38.3156 44.9479 38.3156 45.5047V46.1083C37.9337 46.3226 37.5157 46.4803 37.0717 46.5677V45.5047C37.0717 45.0551 36.7022 44.6905 36.2482 44.6905C35.7954 44.6905 35.426 45.0551 35.426 45.5047V46.5677C34.9819 46.4803 34.564 46.3226 34.1821 46.1083V45.5047C34.1821 44.9479 34.4085 44.4429 34.773 44.0746C34.4085 43.7051 34.1821 43.2 34.1821 42.6433C34.1821 41.515 35.1088 40.5973 36.2482 40.5973ZM35.426 42.6433C35.426 43.0929 35.7955 43.4587 36.2482 43.4587C36.7022 43.4587 37.0717 43.0929 37.0717 42.6433C37.0717 42.1949 36.7022 41.8291 36.2482 41.8291C35.7955 41.8291 35.426 42.1949 35.426 42.6433Z" fill="white"/>
<path d="M31.8473 48.9143H27.409C27.0656 48.9143 26.7871 49.1901 26.7871 49.5302C26.7871 49.8703 27.0656 50.1461 27.409 50.1461H31.8473C32.1908 50.1461 32.4693 49.8703 32.4693 49.5302C32.4693 49.1901 32.1908 48.9143 31.8473 48.9143Z" fill="#FF6400"/>
<path d="M33.1533 51.4884H26.1029C25.7595 51.4884 25.481 51.7642 25.481 52.1043C25.481 52.4444 25.7595 52.7202 26.1029 52.7202H33.1533C33.4968 52.7202 33.7753 52.4444 33.7753 52.1043C33.7753 51.7642 33.4968 51.4884 33.1533 51.4884Z" fill="#FF6400"/>
<path d="M45.0886 48.9143H40.6503C40.3068 48.9143 40.0283 49.1901 40.0283 49.5302C40.0283 49.8703 40.3068 50.1461 40.6503 50.1461H45.0886C45.432 50.1461 45.7105 49.8703 45.7105 49.5302C45.7105 49.1901 45.432 48.9143 45.0886 48.9143Z" fill="#FF6400"/>
<path d="M46.3946 51.4884H39.3441C39.0007 51.4884 38.7222 51.7642 38.7222 52.1043C38.7222 52.4444 39.0007 52.7202 39.3441 52.7202H46.3946C46.738 52.7202 47.0165 52.4444 47.0165 52.1043C47.0165 51.7642 46.738 51.4884 46.3946 51.4884Z" fill="#FF6400"/>
<path fill-rule="evenodd" clip-rule="evenodd" d="M56.2734 47.3623C56.2734 48.333 57.071 49.1227 58.0512 49.1227C59.0315 49.1227 59.829 48.333 59.829 47.3623C59.829 46.3915 59.0315 45.6018 58.0512 45.6018C57.0709 45.6018 56.2734 46.3915 56.2734 47.3623ZM57.5173 47.3624C57.5173 47.0708 57.7569 46.8337 58.0512 46.8337C58.3457 46.8337 58.5851 47.0708 58.5851 47.3624C58.5851 47.6539 58.3457 47.8911 58.0512 47.8911C57.7568 47.8911 57.5173 47.6539 57.5173 47.3624Z" fill="#F9C839"/>
<path fill-rule="evenodd" clip-rule="evenodd" d="M11.9224 53.3979C11.9224 54.3687 12.7199 55.1584 13.7001 55.1584C14.6803 55.1584 15.4779 54.3687 15.4779 53.3979C15.4779 52.4271 14.6804 51.6375 13.7001 51.6375C12.7198 51.6375 11.9224 52.4271 11.9224 53.3979ZM13.1662 53.398C13.1662 53.1065 13.4058 52.8693 13.7001 52.8693C13.9944 52.8693 14.234 53.1065 14.234 53.398C14.234 53.6896 13.9945 53.9267 13.7001 53.9267C13.4057 53.9267 13.1662 53.6896 13.1662 53.398Z" fill="#FF6400"/>
<path d="M58.8608 41.8177C58.5174 41.8177 58.2389 41.5419 58.2389 41.2018C58.2389 40.7942 57.9041 40.4627 57.4925 40.4627C57.1491 40.4627 56.8706 40.1869 56.8706 39.8468C56.8706 39.5067 57.1491 39.2309 57.4925 39.2309C57.9041 39.2309 58.2389 38.8995 58.2389 38.4919C58.2389 38.1518 58.5174 37.876 58.8608 37.876C59.2043 37.876 59.4828 38.1518 59.4828 38.4919C59.4828 38.8995 59.8175 39.2309 60.2291 39.2309C60.5725 39.2309 60.851 39.5067 60.851 39.8468C60.851 40.1869 60.5725 40.4627 60.2291 40.4627C59.8175 40.4627 59.4828 40.7942 59.4828 41.2018C59.4828 41.5419 59.2043 41.8177 58.8608 41.8177Z" fill="#FF6400"/>
<path d="M13.7002 18.6515C13.3567 18.6515 13.0782 18.3758 13.0782 18.0357C13.0782 17.6281 12.7435 17.2966 12.3319 17.2966C11.9885 17.2966 11.71 17.0208 11.71 16.6807C11.71 16.3406 11.9885 16.0648 12.3319 16.0648C12.7435 16.0648 13.0782 15.7332 13.0782 15.3257C13.0782 14.9856 13.3567 14.7098 13.7002 14.7098C14.0436 14.7098 14.3221 14.9856 14.3221 15.3257C14.3221 15.7333 14.6568 16.0648 15.0684 16.0648C15.4119 16.0648 15.6904 16.3406 15.6904 16.6807C15.6904 17.0208 15.4119 17.2966 15.0684 17.2966C14.6568 17.2966 14.3221 17.6281 14.3221 18.0357C14.3221 18.3758 14.0436 18.6515 13.7002 18.6515Z" fill="#01ECA5"/>
<path d="M16.4116 24.9653C16.0682 24.9653 15.7897 24.6895 15.7897 24.3494C15.7897 23.9418 15.4549 23.6103 15.0433 23.6103C14.6999 23.6103 14.4214 23.3345 14.4214 22.9944C14.4214 22.6543 14.6999 22.3785 15.0433 22.3785C15.4549 22.3785 15.7897 22.047 15.7897 21.6395C15.7897 21.2994 16.0682 21.0236 16.4116 21.0236C16.755 21.0236 17.0335 21.2994 17.0335 21.6395C17.0335 22.047 17.3683 22.3785 17.7799 22.3785C18.1233 22.3785 18.4018 22.6543 18.4018 22.9944C18.4018 23.3345 18.1233 23.6103 17.7799 23.6103C17.3683 23.6103 17.0335 23.9418 17.0335 24.3494C17.0335 24.6895 16.755 24.9653 16.4116 24.9653Z" fill="#F9C839"/>
<defs>
<linearGradient id="paint0_linear_51_5899" x1="60.3945" y1="-39.7924" x2="-44.47" y2="5.92333" gradientUnits="userSpaceOnUse">
<stop stop-color="#FFC2A3" stop-opacity="0.01"/>
<stop offset="1" stop-color="#FFC599"/>
</linearGradient>
</defs>
</svg>
