<svg xmlns="http://www.w3.org/2000/svg" xmlns:xlink="http://www.w3.org/1999/xlink" width="150" height="135" fill="none"><defs/><path fill="#2626BC" d="M97 72l-1-1-5-2H77V43l-2-1H51l-1 1v26h-1c-1 0-3 2-3 4v34c0 2 2 4 3 4h42c4 0 8-4 8-8V77l-2-5z" opacity=".1"/><path fill="#FFE0CC" d="M80 40v37H53V40l1-1h25l1 1z"/><path fill="#FFAB66" d="M79 46v30H64V47l1-1h14z"/><path fill="#FF6C6C" d="M94 45v31H67V45l1-1h24l2 1z"/><path fill="#FFAB66" d="M102 74v26c0 4-4 8-8 8H60c-1 0-3-2-3-4V69c0-2 2-3 3-3h34a8 8 0 016 2l2 6z"/><path fill="#E55A00" d="M102 82v15H85l-2-2V83l2-1h17z"/><path fill="#FF7300" d="M49 104c0 2 2 4 3 4h34c4 0 8-4 8-8V74c0-5-4-8-8-8H52c-1 0-3 1-3 3v35z"/><path fill="url(#pattern0)" d="M95 82v15H85l-2-2V83l2-1h10z"/><path fill="#FFE0CC" d="M103 94H85l-2-2V80l2-1h18l2 1v12l-2 2z"/><path fill="#FF9D33" d="M104 80v12l-2 2h-2l2-2V80l-2-1h2l2 1z"/><path fill="#FFA8CF" d="M97 94H85l-2-2V80l2-1h12l2 1v12l-2 2z"/><path fill="#FFC4DF" d="M98 80v12l-2 2h-2l2-2V80l-2-1h2l2 1z"/><path fill="#fff" d="M70 80H55l-1-1v-3l1-1h15l1 1v3l-1 1zM63 86h-8l-1-1v-1l1-1h8l1 1v1l-1 1zM64 73h-9l-1-1 1-1h9l1 1-1 1z"/><path fill="#FFDBED" d="M90 84h-3l-1-1 1-1h3l1 1-1 1z"/><path fill="#fff" fill-rule="evenodd" d="M72 55v-2h2l1-1a3 3 0 002-2l-1-1-1-1h-4v7h1zm0-6h3a1 1 0 010 2h-3v-2zm10 5h-1v-1l3-3h1v1l-2 3h-1zm4 0v-1l3-3h1v1l-3 3h-1zm0 6a1 1 0 001 0l3-3v-1h-1l-3 2v2zm-4 0h-1v-2l3-2h1v1l-2 3h-1z" clip-rule="evenodd"/><path fill="#000" fill-rule="evenodd" d="M94 78h8c2 0 3 2 3 3v12c0 1-1 3-3 3v4c0 5-4 9-9 9H52c-2 0-4-2-4-5V70c0-3 2-5 4-5V40l2-2h4l1 1h-5v26h12V46c0-2 1-3 2-3h10v-3-1H62l1-1h15l2 2v3h12c1 0 2 1 2 3v19c4 1 8 5 8 9v1l-1 1-1-1v-1c0-4-3-7-7-7h-2c2 2 3 4 3 7v4zm3 15V81l-1-1H84l-1 1v12l1 1h12l1-1zM67 46l1-1h24v20H67V46zm-17 58c0 2 1 3 2 3h33c4 0 8-3 8-7v-4h-9c-2 0-3-2-3-3V81c0-1 1-3 3-3h9v-4c0-4-4-7-8-7H52c-1 0-2 1-2 3v34zm50-4c0 4-3 7-7 7h-2c2-2 3-4 3-7v-4h6v4zm2-6l1-1V81l-1-1h-4l1 1v12l-1 1h4z" clip-rule="evenodd"/><path fill="#FF7EB8" d="M115 67h-1a1 1 0 00-2 0 1 1 0 000 2v1a1 1 0 002 0v-1h1a1 1 0 000-2z"/><path fill="#FF8B00" d="M90 31h-1a1 1 0 00-2 0 1 1 0 000 2v1a1 1 0 002 0v-1h1a1 1 0 000-2z"/><path fill="#FF7EB8" d="M42 57h-1a1 1 0 00-1 0h-1a1 1 0 000 2h1v1a1 1 0 001 0v-1h1a1 1 0 000-2z"/><path fill="#8399FE" fill-rule="evenodd" d="M109 60a3 3 0 106 0 3 3 0 00-6 0zm2 0a1 1 0 112 0 1 1 0 01-2 0z" clip-rule="evenodd"/><path fill="#01ECA5" fill-rule="evenodd" d="M32 108a3 3 0 106 0 3 3 0 00-6 0zm2 0a1 1 0 112 0 1 1 0 01-2 0z" clip-rule="evenodd"/><path fill="#FF6400" fill-rule="evenodd" d="M58 51a1 1 0 01-1-1v-6-1h5a3 3 0 011 2v2l-1 1h-4v3zm3-7h-3v3h3v-1a1 1 0 000-1v-1z" clip-rule="evenodd"/><path fill="#FF7EB8" d="M11 96l-2-1-2-2a2 2 0 110-4l2-2a2 2 0 113 0l2 2a2 2 0 010 4l-2 2-1 1z"/><path fill="#FF6400" d="M13 17h6v3h-6v-3zM30 17h6v3h-6v-3zM23 24h3v6h-3v-6zM23 7h3v6h-3V7zM124 83h3v2h-3v-2zM134 83h4v2h-4v-2zM130 88h1v3h-1v-3zM130 77h1v4h-1v-4z"/><defs><pattern id="pattern0" width="8.3" height="6.7" patternContentUnits="objectBoundingBox"><use transform="scale(.08348 .06679)" xlink:href="#image0"/></pattern></defs></svg>