<svg xmlns="http://www.w3.org/2000/svg" width="150" height="135" fill="none"><defs/><path fill="#FF7EB8" d="M114 67a1 1 0 00-2 0h-1a1 1 0 100 2h1v1a1 1 0 002 0v-1a1 1 0 100-2z"/><path fill="#8399FE" fill-rule="evenodd" d="M108 60a3 3 0 106 0 3 3 0 00-6 0zm2 0a1 1 0 112 0 1 1 0 01-2 0z" clip-rule="evenodd"/><path fill="#01ECA5" fill-rule="evenodd" d="M33 107a3 3 0 106 0 3 3 0 00-6 0zm2 0a1 1 0 112 0 1 1 0 01-2 0z" clip-rule="evenodd"/><path fill="#FF7EB8" d="M12 96l-2-2-2-2a2 2 0 010-3l2-2a2 2 0 113 0l2 2a2 2 0 110 3l-2 2-1 2z"/><path fill="#FF6400" d="M14 17h6v3h-6v-3zM31 17h6v3h-6v-3zM24 25h3v6h-3v-6zM24 8h3v6h-3V8zM123 83h4v2h-4v-2zM133 83h4v2h-4v-2zM129 87h2v4h-2v-4zM129 77h2v4h-2v-4z"/><path fill="#00C" d="M100 45H58c-2 0-3 1-3 3v19h-6l-1 1v30l1 1h47v-4h4c2 0 3-1 3-2V48c0-2-1-3-3-3z" opacity=".1"/><path fill="#00C" d="M100 95H58c-2 0-3-1-3-2V48c0-2 1-3 3-3h42c2 0 3 1 3 3v45c0 1-1 2-3 2z" opacity=".1"/><path fill="#fff" d="M100 92H58c-2 0-3-1-3-2V45c0-2 1-3 3-3h42c2 0 3 1 3 3v45c0 1-1 2-3 2z"/><path fill="#FFB3B3" d="M55 80v10c0 1 1 2 3 2h42c2 0 3-1 3-2V80H55z"/><path fill="#FFAB66" d="M103 50v-5c0-2-1-3-3-3H58c-2 0-3 1-3 3v5h48z"/><path fill="#FF4D4D" d="M98 47h-3a1 1 0 010-2h3a1 1 0 110 2z"/><path fill="#FF9D33" d="M93 47h-3a1 1 0 010-2h3a1 1 0 110 2z"/><path fill="#EBEBFF" d="M85 47H68a1 1 0 010-2h17a1 1 0 110 2z"/><path fill="#FFAB66" d="M80 65v31H49h-1V65h32z"/><path fill="#D02424" d="M78 65v1c0 2-3 4-5 3l-5-2-1-1-1 2h-3l-2-1-6 2c-2 1-4-1-4-3v-1h27z"/><path fill="#FF4D4D" d="M70 64v32H59V64v-1h10l1 1z"/><path fill="#FF2C2C" d="M70 64v3h-2l-1-1-1 2h-3l-2-1h-2v-3-1h10l1 1z"/><path fill="#FF9D33" d="M96 96H66V86h30v10z"/><path fill="#FF6400" d="M96 86v10H67h-1V86h30z"/><path fill="#FFAB66" d="M77 86L66 96v-5l5-5h6zM90 86L79 96h-6l11-10h6zM96 86v6l-4 4h-6l10-10z"/><path fill="#FF2C2C" d="M90 86H74v-9h17v8l-1 1z"/><path fill="#fff" d="M84 86h-4v-9l1-1h3v10z"/><path fill="#FF2C2C" d="M62 64l-7 3c-2 1-4-1-4-3v-7c0-2 2-4 4-3l7 3v7zM68 65l5 2c2 1 5-1 5-3v-7c0-2-3-4-5-3l-5 2-2 3v3l2 3z"/><path fill="#FF4D4D" d="M66 66h-3l-2-2v-7l2-2h3l2 2v7l-2 2z"/><path fill="#000" fill-rule="evenodd" d="M100 42H58c-2 0-3 1-3 3v8a4 4 0 00-5 4v7h-1l-1 1v31l1 1h47a1 1 0 001-1v-3h3c2 0 4-1 4-3V45c0-2-2-3-4-3zM51 57l1-2a3 3 0 013 0l5 2v2l-3-1a1 1 0 000 1l3 1v1l-3 1a1 1 0 000 1h3v1l-5 2h-3l-1-2v-7zm28 8h-1a4 4 0 01-5 3l-3-1v18h3v-8l1-1h5V65zm6 12h5v8h-5v-8zm11 9H67v10h29V86zm-17-1h-5v-8h5v8zm2 0h3v-8h-3v8zm-4-21l-1 2h-2l-5-1-1-1v-1h3a1 1 0 000-1l-3-1v-1l3-1a1 1 0 100-1l-3 1v-2h1l5-2h2l1 2v7zm-11 1l1-1v-7l-1-1h-3l-2 1v7l2 1h3zm-7 31V70a1 1 0 10-1 0v26h-9V65h1a4 4 0 005 3l6-2 2 1h3l2-1h1v19h-2l-2 1v10h-6zm41-4l2-2V45l-2-2H58l-2 2v4h43a1 1 0 110 1H56v4l5 2 2-1h3l2 1v-1l5-1a4 4 0 015 3v7h1l2 1v10h3l1 1h5l1 1v8h5a1 1 0 011 0v7h3z" clip-rule="evenodd"/><path fill="#FFAB66" d="M87 72h-2a1 1 0 110-1h2a1 1 0 110 1z"/><path fill="#FFAB66" d="M99 72h-9a1 1 0 110-1h9a1 1 0 110 1zM91 70h-6a1 1 0 110-1h6a1 1 0 010 1z"/><path fill="#FF8B00" d="M87 67h-2a1 1 0 110-2h2a1 1 0 110 2z"/><path fill="#FF6400" d="M84 59l2 2h6a2 2 0 100-4h-6l-2 2z"/></svg>