<svg width="25" height="24" viewBox="0 0 25 24" fill="none" xmlns="http://www.w3.org/2000/svg">
<g clip-path="url(#clip0_49:5356)">
<mask id="mask0_49:5356" style="mask-type:alpha" maskUnits="userSpaceOnUse" x="0" y="0" width="25" height="24">
<path fill-rule="evenodd" clip-rule="evenodd" d="M0.5 0H24.3759V23.6878H0.5V0Z" fill="white"/>
</mask>
<g mask="url(#mask0_49:5356)">
<path fill-rule="evenodd" clip-rule="evenodd" d="M24.3759 11.8439C24.3759 12.463 23.8965 13.0373 23.8025 13.6303C23.7062 14.2388 23.9824 14.9314 23.7945 15.5049C23.6037 16.0883 22.9684 16.4876 22.6909 17.0266C22.4109 17.5712 22.4566 18.3154 22.0966 18.8062C21.7349 19.2992 21.0067 19.4846 20.5728 19.9149C20.1393 20.3452 19.9523 21.0677 19.4553 21.4265C18.9606 21.7837 18.2107 21.7381 17.6618 22.0163C17.1184 22.2915 16.7161 22.9217 16.1281 23.1111C15.5502 23.2972 14.8519 23.0234 14.2384 23.119C13.641 23.2122 13.062 23.6878 12.438 23.6878C11.814 23.6878 11.2351 23.2122 10.6374 23.119C10.0241 23.0234 9.32578 23.2972 8.74788 23.1111C8.15969 22.9217 7.7574 22.2915 7.21397 22.0163C6.66521 21.7381 5.91512 21.7837 5.42045 21.4265C4.9235 21.0677 4.73664 20.345 4.30293 19.9147C3.86921 19.4846 3.14102 19.2992 2.77931 18.806C2.41931 18.3152 2.46502 17.5712 2.18483 17.0266C1.9075 16.4876 1.27226 16.0883 1.0814 15.5049C0.893592 14.9314 1.16959 14.2388 1.0734 13.6303C0.979307 13.0373 0.499878 12.463 0.499878 11.8439C0.499878 11.2248 0.979307 10.6505 1.0734 10.0575C1.16959 9.44901 0.893592 8.75622 1.08121 8.18287C1.27226 7.59931 1.9075 7.20019 2.18483 6.66123C2.46502 6.11641 2.41931 5.37241 2.77931 4.88164C3.14102 4.38841 3.86921 4.20302 4.30293 3.77291C4.73664 3.34261 4.9235 2.61997 5.42045 2.26129C5.91531 1.90394 6.66521 1.94948 7.21416 1.6715C7.7574 1.39635 8.15969 0.76611 8.74788 0.576567C9.32578 0.390425 10.0241 0.664441 10.6374 0.56863C11.2351 0.475465 11.814 0 12.438 0C13.062 0 13.6408 0.475465 14.2384 0.56863C14.8519 0.664441 15.55 0.390425 16.1279 0.576567C16.7161 0.76611 17.1185 1.39635 17.6618 1.6715C18.2109 1.94967 18.9606 1.90413 19.4555 2.26129C19.9524 2.62016 20.1393 3.34261 20.573 3.7731C21.0067 4.20321 21.7349 4.3886 22.0966 4.88183C22.4568 5.3726 22.4109 6.1166 22.6911 6.66123C22.9685 7.20019 23.6035 7.59931 23.7945 8.18287C23.9824 8.75622 23.7062 9.44901 23.8025 10.0575C23.8965 10.6505 24.3759 11.2248 24.3759 11.8439Z" fill="#FF6400"/>
</g>
<mask id="mask1_49:5356" style="mask-type:alpha" maskUnits="userSpaceOnUse" x="0" y="0" width="25" height="24">
<path fill-rule="evenodd" clip-rule="evenodd" d="M0.5 23.8768H24.2624V0.112137H0.5V23.8768Z" fill="white"/>
</mask>
<g mask="url(#mask1_49:5356)">
<path d="M21.7551 8.95579C22.0003 9.62748 22.1704 10.3338 22.2555 11.0651L21.7137 11.1281C21.7526 11.4632 21.7727 11.804 21.7727 12.1496H22.3181C22.3181 12.5163 22.2969 12.8781 22.2555 13.234L21.7137 13.171C21.6336 13.8594 21.4735 14.5241 21.2427 15.1563L21.7551 15.3434C21.505 16.0283 21.1768 16.6773 20.7808 17.2802L20.3249 16.9807C19.95 17.5514 19.5104 18.0788 19.0159 18.5528L19.3934 18.9466C18.8731 19.4454 18.2957 19.8882 17.6717 20.2649L17.3898 19.7979C16.8096 20.1482 16.1867 20.438 15.5302 20.6582L15.7037 21.1753C15.0278 21.402 14.3184 21.559 13.5847 21.6374L13.5268 21.0951C13.1898 21.1311 12.8472 21.1496 12.4999 21.1496V21.695C12.1333 21.695 11.7714 21.6755 11.4152 21.6374L11.4731 21.0951C10.7791 21.0209 10.1084 20.8724 9.46969 20.6582L9.29622 21.1753C8.6016 20.9423 7.94229 20.6356 7.32816 20.2649L7.61005 19.7979C7.0205 19.4421 6.47521 19.0238 5.98394 18.5528L5.60646 18.9466C5.08274 18.4444 4.61677 17.8856 4.21911 17.2802L4.67501 16.9807C4.30171 16.4124 3.99257 15.801 3.75717 15.1563L3.24479 15.3434C2.99956 14.6717 2.8295 13.9654 2.74443 13.234L3.28623 13.171C3.24726 12.836 3.22722 12.4951 3.22722 12.1496H2.68176C2.68176 11.7829 2.70303 11.421 2.74443 11.0651L3.28623 11.1281C3.3663 10.4398 3.52635 9.77506 3.75717 9.14286L3.24479 8.95579C3.49488 8.27082 3.82312 7.62184 4.21911 7.01899L4.67501 7.31845C5.0499 6.7477 5.48949 6.22037 5.98394 5.74633L5.60646 5.3526C6.1268 4.85373 6.70416 4.41092 7.32816 4.03424L7.61005 4.50121C8.19025 4.15097 8.81323 3.86119 9.46969 3.64098L9.29622 3.12385C9.97213 2.89711 10.6815 2.74012 11.4152 2.66172L11.4731 3.20409C11.8101 3.16808 12.1527 3.14957 12.4999 3.14957V2.60412C12.8666 2.60412 13.2285 2.62366 13.5847 2.66172L13.5268 3.20409C14.2208 3.27825 14.8914 3.42671 15.5302 3.64098L15.7037 3.12385C16.3983 3.35685 17.0576 3.66352 17.6717 4.03424L17.3898 4.50121C17.9794 4.85709 18.5247 5.27534 19.016 5.74633L19.3934 5.3526C19.9172 5.8547 20.3831 6.41358 20.7808 7.01899L20.3249 7.31845C20.6982 7.88677 21.0073 8.4981 21.2427 9.14286L21.7551 8.95579Z" stroke="white" stroke-width="1.09091" stroke-dasharray="2.18"/>
<path fill-rule="evenodd" clip-rule="evenodd" d="M16.3182 10.2326H14.5924C14.7162 10.148 14.8225 10.0639 14.8967 9.98848C15.3364 9.54554 15.3364 8.8246 14.8967 8.38165C14.4696 7.95127 13.7245 7.95073 13.2969 8.38165C13.0607 8.61924 12.4329 9.5865 12.5196 10.2326H12.4804C12.5665 9.5865 11.9393 8.61924 11.7031 8.38165C11.2754 7.95073 10.5304 7.95127 10.1033 8.38165C9.66363 8.8246 9.66363 9.54554 10.1027 9.98848C10.1774 10.0639 10.2838 10.148 10.4076 10.2326H8.68181C8.38126 10.2326 8.13635 10.4779 8.13635 10.7788V12.1442C8.13635 12.295 8.25853 12.4173 8.40908 12.4173H8.68181V15.6943C8.68181 15.9953 8.92672 16.2405 9.22726 16.2405H15.7727C16.0733 16.2405 16.3182 15.9953 16.3182 15.6943V12.4173H16.5909C16.7414 12.4173 16.8636 12.295 16.8636 12.1442V10.7788C16.8636 10.4779 16.6187 10.2326 16.3182 10.2326ZM10.49 8.7667C10.6007 8.65528 10.7474 8.59411 10.9034 8.59411C11.0589 8.59411 11.2056 8.65528 11.3164 8.7667C11.684 9.13701 12.0494 10.083 11.9224 10.2146C11.9224 10.2146 11.8994 10.2326 11.8214 10.2326C11.4445 10.2326 10.7251 9.84047 10.49 9.60343C10.2614 9.37295 10.2614 8.99719 10.49 8.7667ZM9.22726 15.6943H12.2273V12.4173H9.22726V15.6943ZM12.2273 11.8711H8.68181V10.7788H11.8214H12.2273V11.8711ZM14.51 8.7667C14.2891 8.54496 13.9051 8.54441 13.6836 8.7667C13.316 9.13701 12.9505 10.083 13.0771 10.2146C13.0776 10.2151 13.1005 10.2326 13.1785 10.2326C13.5554 10.2326 14.2749 9.84047 14.51 9.60343C14.7385 9.37295 14.7385 8.99719 14.51 8.7667ZM15.7727 15.6943H12.7727V12.4173H15.7727V15.6943ZM12.7727 11.8711H16.3182V10.7788H13.1785H12.7727V11.8711Z" fill="white"/>
</g>
</g>
<defs>
<clipPath id="clip0_49:5356">
<rect width="24" height="24" fill="white" transform="translate(0.5)"/>
</clipPath>
</defs>
</svg>
