<svg width="24" height="24" viewBox="0 0 24 24" fill="none" xmlns="http://www.w3.org/2000/svg">
<path d="M3.98949 21.6134C3.98949 22.918 5.05087 23.9793 6.35544 23.9793H17.644C18.9486 23.9793 20.0099 22.918 20.0099 21.6134V2.38597C20.0099 1.0814 18.9486 0.0200195 17.644 0.0200195H6.35544C5.05087 0.0200195 3.98949 1.0814 3.98949 2.38597V21.6134ZM18.2666 21.6134C18.2666 21.9572 17.9878 22.236 17.644 22.236H6.35544C6.01158 22.236 5.73282 21.9572 5.73282 21.6134V10.7785H18.2666V21.6134ZM5.73282 2.38597C5.73282 2.04211 6.01158 1.76336 6.35544 1.76336H17.644C17.9879 1.76336 18.2666 2.04211 18.2666 2.38597V9.03523H5.73282V2.38597Z" fill="#696969"/>
<path fill-rule="evenodd" clip-rule="evenodd" d="M14.8344 4.07858C14.8344 3.59717 15.2246 3.20691 15.706 3.20691C16.1874 3.20691 16.5777 3.59717 16.5777 4.07858V6.76858C16.5777 7.24999 16.1874 7.64025 15.706 7.64025C15.2246 7.64025 14.8344 7.24999 14.8344 6.76858V4.07858ZM16.5777 15.8847C16.5777 16.3661 16.1874 16.7564 15.706 16.7564C15.2246 16.7564 14.8344 16.3662 14.8344 15.8848V13.1948C14.8344 12.7133 15.2246 12.3231 15.706 12.3231C16.1874 12.3231 16.5777 12.7133 16.5777 13.1948V15.8847Z" fill="#FF6400"/>
</svg>
