<svg width="32" height="33" viewBox="0 0 32 33" fill="none" xmlns="http://www.w3.org/2000/svg">
<path fill-rule="evenodd" clip-rule="evenodd" d="M0.66663 3.20001H3.33328C3.70147 3.20001 3.99996 3.49521 4 3.85936C4 4.2235 3.70152 4.5187 3.33333 4.5187H1.33335V6.54067C1.33335 6.90481 1.03487 7.20001 0.666674 7.20001C0.298438 7.20001 0 6.90481 0 6.54067V3.85936C0 3.49521 0.298483 3.20001 0.66663 3.20001ZM28.6667 3.20001H31.3333C31.7015 3.20001 32 3.49521 32 3.85936V6.54067C32 6.90481 31.7015 7.20001 31.3333 7.20001C30.9651 7.20001 30.6667 6.90481 30.6667 6.54067V4.5187H28.6667C28.2984 4.5187 28 4.2235 28 3.85936C28 3.49521 28.2985 3.20001 28.6667 3.20001ZM3.33333 27.8813H1.33335V25.8594C1.33335 25.4952 1.03487 25.2 0.666674 25.2C0.298483 25.2 0 25.4952 0 25.8594V28.5407C0 28.9048 0.298438 29.2 0.666674 29.2H3.33333C3.70152 29.2 4 28.9048 4 28.5407C4 28.1765 3.70152 27.8813 3.33333 27.8813ZM30.6667 25.8594C30.6667 25.4952 30.9651 25.2 31.3333 25.2C31.7015 25.2 32 25.4952 32 25.8594V28.5407C32 28.9048 31.7015 29.2 31.3333 29.2H28.6667C28.2985 29.2 28 28.9048 28 28.5407C28 28.1765 28.2985 27.8813 28.6667 27.8813H30.6667V25.8594Z" fill="#FD6500"/>
<path fill-rule="evenodd" clip-rule="evenodd" d="M16.0487 3.30262L26.9209 9.44725C27.1606 9.58254 27.3103 9.83492 27.3103 10.1057L27.3102 10.1103V22.2939L27.31 22.299L27.3099 22.303C27.3061 22.6279 27.1704 22.7768 26.9186 22.9541L26.9132 22.9571L16.0488 29.0974C15.9361 29.1611 15.7984 29.2 15.6575 29.2C15.5225 29.2 15.3832 29.1636 15.2661 29.0974L4.39735 22.9572C4.15232 22.8226 4.00016 22.567 4.00016 22.2938V10.1102L4 10.1056C4 9.83507 4.14966 9.58274 4.38944 9.4472L15.266 3.30262C15.5081 3.16581 15.8067 3.16581 16.0487 3.30262ZM6.34856 22.2972L14.8768 27.1173V16.6407L5.5613 11.4219V20.9793L12.1466 17.2981C12.5206 17.0889 12.9977 17.215 13.2121 17.5798C13.4266 17.9446 13.2973 18.41 12.9233 18.6192L6.34856 22.2972ZM15.6574 15.3218L6.34737 10.1034L15.6574 4.84159L24.9674 10.1034L15.6574 15.3218ZM19.1683 17.298L25.754 20.9793V11.4219L16.438 16.6407V27.1172L24.9663 22.2971L18.3916 18.6192C18.0176 18.4099 17.8883 17.9446 18.1028 17.5798C18.3173 17.2149 18.7943 17.0889 19.1683 17.298Z" fill="#696969"/>
</svg>
