<svg width="24" height="24" viewBox="0 0 24 24" fill="none" xmlns="http://www.w3.org/2000/svg">
<path d="M2.25889 20.493L7.09788 15.654C5.93091 14.2125 5.22827 12.3808 5.22827 10.3859C5.22827 5.76218 8.99045 2 13.6142 2C18.2379 2 22 5.76214 22 10.3858C22 15.0095 18.2378 18.7717 13.6141 18.7717C11.6192 18.7717 9.78751 18.0691 8.34604 16.9021L3.50704 21.7411C3.33491 21.9132 3.10895 21.9998 2.88294 21.9998C2.65694 21.9998 2.43097 21.9132 2.25884 21.7411C1.91371 21.396 1.91371 20.8381 2.25889 20.493ZM13.6141 17.0063C17.2651 17.0063 20.2345 14.0368 20.2345 10.3858C20.2345 6.73489 17.2651 3.76542 13.6141 3.76542C9.96316 3.76542 6.99369 6.73489 6.99369 10.3858C6.99369 14.0368 9.9632 17.0063 13.6141 17.0063Z" fill="black"/>
</svg>
