<svg width="34" height="26" viewBox="0 0 34 26" fill="none" xmlns="http://www.w3.org/2000/svg">
<path fill-rule="evenodd" clip-rule="evenodd" d="M31.9677 19.2H32.4839C32.7689 19.2 33 19.4442 33 19.7455V21.9273C33 22.2285 32.7689 22.4727 32.4839 22.4727H31.9677V24.6546C31.9677 24.9558 31.7367 25.2 31.4516 25.2H29.9032C29.6572 25.2001 29.4454 25.0166 29.3974 24.7616L28.9639 22.4727H5.03613L4.60258 24.7616C4.55455 25.0166 4.34276 25.2001 4.09677 25.2H2.54839C2.26334 25.2 2.03226 24.9558 2.03226 24.6546V22.4727H1.51613C1.23108 22.4727 1 22.2285 1 21.9273V19.7455C1 19.4442 1.23108 19.2 1.51613 19.2H2.03226V14.8364C2.03375 13.632 2.95719 12.6561 4.09677 12.6546V3.38183C4.09827 2.1775 5.02171 1.20159 6.16129 1.20001H27.8387C28.9783 1.20159 29.9017 2.1775 29.9032 3.38183V12.6546C31.0428 12.6561 31.9662 13.632 31.9677 14.8364V19.2ZM6.16133 2.29091C5.59154 2.2917 5.12982 2.77966 5.12907 3.38182V12.6545H6.16133V10.4727C6.16282 9.2684 7.08626 8.29249 8.22584 8.29091H14.4194C15.559 8.29249 16.4824 9.2684 16.4839 10.4727V12.6545H17.5162V10.4727C17.5177 9.2684 18.4411 8.29249 19.5807 8.29091H25.7742C26.9138 8.29249 27.8373 9.2684 27.8387 10.4727V12.6545H28.871V3.38182C28.8703 2.77966 28.4085 2.2917 27.8387 2.29091H6.16133ZM26.8065 10.4727V12.6545H18.5484V10.4727C18.5492 9.87056 19.0109 9.3826 19.5807 9.38182H25.7742C26.344 9.3826 26.8057 9.87056 26.8065 10.4727ZM15.4516 12.6545V10.4727C15.4508 9.87056 14.9891 9.3826 14.4193 9.38182H8.22578C7.65599 9.3826 7.19427 9.87056 7.19352 10.4727V12.6545H15.4516ZM3.06453 14.8364C3.06528 14.2342 3.527 13.7463 4.09679 13.7455H29.9032C30.473 13.7463 30.9348 14.2342 30.9355 14.8364V19.2H3.06453V14.8364ZM3.06453 24.1091H3.67357L3.98324 22.4728H3.06453V24.1091ZM30.9355 24.1091H30.3264L30.0168 22.4728H30.9355V24.1091ZM2.03223 21.3818H31.9677V20.2909H2.03223V21.3818Z" fill="#696969"/>
<path d="M31.9677 19.2H31.7177V19.45H31.9677V19.2ZM31.9677 22.4727V22.2227H31.7177V22.4727H31.9677ZM29.9032 25.2V24.95H29.9031L29.9032 25.2ZM29.3974 24.7616L29.6431 24.7153L29.6431 24.7151L29.3974 24.7616ZM28.9639 22.4727L29.2095 22.4262L29.171 22.2227H28.9639V22.4727ZM5.03613 22.4727V22.2227H4.82904L4.7905 22.4262L5.03613 22.4727ZM4.60258 24.7616L4.35695 24.7151L4.3569 24.7153L4.60258 24.7616ZM4.09677 25.2L4.0969 24.95H4.09677V25.2ZM2.03226 22.4727H2.28226V22.2227H2.03226V22.4727ZM2.03226 19.2V19.45H2.28226V19.2H2.03226ZM2.03226 14.8364L1.78226 14.8361V14.8364H2.03226ZM4.09677 12.6546L4.09712 12.9046L4.34677 12.9042V12.6546H4.09677ZM4.09677 3.38183L3.84677 3.38152V3.38183H4.09677ZM6.16129 1.20001V0.950012L6.16094 0.950012L6.16129 1.20001ZM27.8387 1.20001L27.8391 0.950012H27.8387V1.20001ZM29.9032 3.38183H30.1532V3.38152L29.9032 3.38183ZM29.9032 12.6546H29.6532V12.9042L29.9029 12.9046L29.9032 12.6546ZM31.9677 14.8364H32.2177V14.8361L31.9677 14.8364ZM5.12907 3.38182L4.87907 3.38151V3.38182H5.12907ZM6.16133 2.29091V2.04091L6.16098 2.04091L6.16133 2.29091ZM5.12907 12.6545H4.87907V12.9045H5.12907V12.6545ZM6.16133 12.6545V12.9045H6.41133V12.6545H6.16133ZM6.16133 10.4727L5.91133 10.4724V10.4727H6.16133ZM8.22584 8.29091V8.04091L8.2255 8.04091L8.22584 8.29091ZM14.4194 8.29091L14.4197 8.04091H14.4194V8.29091ZM16.4839 10.4727H16.7339V10.4724L16.4839 10.4727ZM16.4839 12.6545H16.2339V12.9045H16.4839V12.6545ZM17.5162 12.6545V12.9045H17.7662V12.6545H17.5162ZM17.5162 10.4727L17.2662 10.4724V10.4727H17.5162ZM19.5807 8.29091V8.04091L19.5803 8.04091L19.5807 8.29091ZM25.7742 8.29091L25.7746 8.04091H25.7742V8.29091ZM27.8387 10.4727H28.0887V10.4724L27.8387 10.4727ZM27.8387 12.6545H27.5887V12.9045H27.8387V12.6545ZM28.871 12.6545V12.9045H29.121V12.6545H28.871ZM28.871 3.38182H29.121V3.38151L28.871 3.38182ZM27.8387 2.29091L27.8391 2.04091H27.8387V2.29091ZM26.8065 12.6545V12.9045H27.0565V12.6545H26.8065ZM26.8065 10.4727H27.0565V10.4724L26.8065 10.4727ZM18.5484 12.6545H18.2984V12.9045H18.5484V12.6545ZM18.5484 10.4727L18.2984 10.4724V10.4727H18.5484ZM19.5807 9.38182V9.13182L19.5803 9.13182L19.5807 9.38182ZM25.7742 9.38182L25.7746 9.13182H25.7742V9.38182ZM15.4516 10.4727H15.7016V10.4724L15.4516 10.4727ZM15.4516 12.6545V12.9045H15.7016V12.6545H15.4516ZM14.4193 9.38182L14.4197 9.13182H14.4193V9.38182ZM8.22578 9.38182V9.13182L8.22543 9.13182L8.22578 9.38182ZM7.19352 10.4727L6.94352 10.4724V10.4727H7.19352ZM7.19352 12.6545H6.94352V12.9045H7.19352V12.6545ZM4.09679 13.7455V13.4955H4.09645L4.09679 13.7455ZM3.06453 14.8364L2.81453 14.8361V14.8364H3.06453ZM29.9032 13.7455L29.9036 13.4955H29.9032V13.7455ZM30.9355 14.8364H31.1855V14.8361L30.9355 14.8364ZM30.9355 19.2V19.45H31.1855V19.2H30.9355ZM3.06453 19.2H2.81453V19.45H3.06453V19.2ZM3.67357 24.1091V24.3591H3.88069L3.91921 24.1556L3.67357 24.1091ZM3.06453 24.1091H2.81453V24.3591H3.06453V24.1091ZM3.98324 22.4728L4.22888 22.5192L4.28499 22.2228H3.98324V22.4728ZM3.06453 22.4728V22.2228H2.81453V22.4728H3.06453ZM30.3264 24.1091L30.0808 24.1556L30.1193 24.3591H30.3264V24.1091ZM30.9355 24.1091V24.3591H31.1855V24.1091H30.9355ZM30.0168 22.4728V22.2228H29.715L29.7711 22.5192L30.0168 22.4728ZM30.9355 22.4728H31.1855V22.2228H30.9355V22.4728ZM31.9677 21.3818V21.6318H32.2177V21.3818H31.9677ZM2.03223 21.3818H1.78223V21.6318H2.03223V21.3818ZM31.9677 20.2909H32.2177V20.0409H31.9677V20.2909ZM2.03223 20.2909V20.0409H1.78223V20.2909H2.03223ZM32.4839 18.95H31.9677V19.45H32.4839V18.95ZM33.25 19.7455C33.25 19.3193 32.9198 18.95 32.4839 18.95V19.45C32.618 19.45 32.75 19.5691 32.75 19.7455H33.25ZM33.25 21.9273V19.7455H32.75V21.9273H33.25ZM32.4839 22.7227C32.9198 22.7227 33.25 22.3534 33.25 21.9273H32.75C32.75 22.1037 32.618 22.2227 32.4839 22.2227V22.7227ZM31.9677 22.7227H32.4839V22.2227H31.9677V22.7227ZM32.2177 24.6546V22.4727H31.7177V24.6546H32.2177ZM31.4516 25.45C31.8876 25.45 32.2177 25.0807 32.2177 24.6546H31.7177C31.7177 24.8309 31.5858 24.95 31.4516 24.95V25.45ZM29.9032 25.45H31.4516V24.95H29.9032V25.45ZM29.1517 24.8079C29.2202 25.1715 29.5277 25.4502 29.9034 25.45L29.9031 24.95C29.7868 24.9501 29.6707 24.8616 29.6431 24.7153L29.1517 24.8079ZM28.7182 22.5193L29.1518 24.8081L29.6431 24.7151L29.2095 22.4262L28.7182 22.5193ZM5.03613 22.7227H28.9639V22.2227H5.03613V22.7227ZM4.84821 24.8081L5.28176 22.5193L4.7905 22.4262L4.35695 24.7151L4.84821 24.8081ZM4.09665 25.45C4.47234 25.4502 4.77976 25.1715 4.84826 24.8079L4.3569 24.7153C4.32934 24.8616 4.21318 24.9501 4.0969 24.95L4.09665 25.45ZM2.54839 25.45H4.09677V24.95H2.54839V25.45ZM1.78226 24.6546C1.78226 25.0807 2.11243 25.45 2.54839 25.45V24.95C2.41425 24.95 2.28226 24.8309 2.28226 24.6546H1.78226ZM1.78226 22.4727V24.6546H2.28226V22.4727H1.78226ZM1.51613 22.7227H2.03226V22.2227H1.51613V22.7227ZM0.75 21.9273C0.75 22.3534 1.08017 22.7227 1.51613 22.7227V22.2227C1.38199 22.2227 1.25 22.1037 1.25 21.9273H0.75ZM0.75 19.7455V21.9273H1.25V19.7455H0.75ZM1.51613 18.95C1.08017 18.95 0.75 19.3193 0.75 19.7455H1.25C1.25 19.5691 1.38199 19.45 1.51613 19.45V18.95ZM2.03226 18.95H1.51613V19.45H2.03226V18.95ZM1.78226 14.8364V19.2H2.28226V14.8364H1.78226ZM4.09643 12.4046C2.80624 12.4063 1.78391 13.5071 1.78226 14.8361L2.28226 14.8367C2.2836 13.757 3.10814 12.9059 4.09712 12.9046L4.09643 12.4046ZM3.84677 3.38183V12.6546H4.34677V3.38183H3.84677ZM6.16094 0.950012C4.87076 0.951799 3.84842 2.05252 3.84677 3.38152L4.34677 3.38214C4.34811 2.30248 5.17266 1.45138 6.16164 1.45001L6.16094 0.950012ZM27.8387 0.950012H6.16129V1.45001H27.8387V0.950012ZM30.1532 3.38152C30.1516 2.05252 29.1292 0.951799 27.8391 0.950012L27.8384 1.45001C28.8273 1.45138 29.6519 2.30248 29.6532 3.38214L30.1532 3.38152ZM30.1532 12.6546V3.38183H29.6532V12.6546H30.1532ZM32.2177 14.8361C32.2161 13.5071 31.1938 12.4063 29.9036 12.4046L29.9029 12.9046C30.8919 12.9059 31.7164 13.757 31.7177 14.8367L32.2177 14.8361ZM32.2177 19.2V14.8364H31.7177V19.2H32.2177ZM5.37907 3.38213C5.37966 2.90464 5.74248 2.54149 6.16167 2.54091L6.16098 2.04091C5.44059 2.04191 4.87997 2.65468 4.87907 3.38151L5.37907 3.38213ZM5.37907 12.6545V3.38182H4.87907V12.6545H5.37907ZM6.16133 12.4045H5.12907V12.9045H6.16133V12.4045ZM5.91133 10.4727V12.6545H6.41133V10.4727H5.91133ZM8.2255 8.04091C6.93531 8.0427 5.91297 9.14342 5.91133 10.4724L6.41133 10.473C6.41266 9.39338 7.23721 8.54228 8.22619 8.54091L8.2255 8.04091ZM14.4194 8.04091H8.22584V8.54091H14.4194V8.04091ZM16.7339 10.4724C16.7323 9.14342 15.7099 8.0427 14.4197 8.04091L14.419 8.54091C15.408 8.54228 16.2326 9.39338 16.2339 10.473L16.7339 10.4724ZM16.7339 12.6545V10.4727H16.2339V12.6545H16.7339ZM17.5162 12.4045H16.4839V12.9045H17.5162V12.4045ZM17.2662 10.4727V12.6545H17.7662V10.4727H17.2662ZM19.5803 8.04091C18.2902 8.0427 17.2678 9.14342 17.2662 10.4724L17.7662 10.473C17.7675 9.39338 18.592 8.54228 19.581 8.54091L19.5803 8.04091ZM25.7742 8.04091H19.5807V8.54091H25.7742V8.04091ZM28.0887 10.4724C28.0871 9.14342 27.0648 8.0427 25.7746 8.04091L25.7739 8.54091C26.7629 8.54228 27.5874 9.39338 27.5887 10.473L28.0887 10.4724ZM28.0887 12.6545V10.4727H27.5887V12.6545H28.0887ZM28.871 12.4045H27.8387V12.9045H28.871V12.4045ZM28.621 3.38182V12.6545H29.121V3.38182H28.621ZM27.8384 2.54091C28.2576 2.54149 28.6204 2.90464 28.621 3.38213L29.121 3.38151C29.1201 2.65468 28.5595 2.04191 27.8391 2.04091L27.8384 2.54091ZM6.16133 2.54091H27.8387V2.04091H6.16133V2.54091ZM27.0565 12.6545V10.4727H26.5565V12.6545H27.0565ZM18.5484 12.9045H26.8065V12.4045H18.5484V12.9045ZM18.2984 10.4727V12.6545H18.7984V10.4727H18.2984ZM19.5803 9.13182C18.8599 9.13281 18.2993 9.74558 18.2984 10.4724L18.7984 10.473C18.799 9.99554 19.1618 9.6324 19.581 9.63182L19.5803 9.13182ZM25.7742 9.13182H19.5807V9.63182H25.7742V9.13182ZM27.0565 10.4724C27.0556 9.74558 26.495 9.13281 25.7746 9.13182L25.7739 9.63182C26.1931 9.6324 26.5559 9.99554 26.5565 10.473L27.0565 10.4724ZM15.2016 10.4727V12.6545H15.7016V10.4727H15.2016ZM14.419 9.63182C14.8382 9.6324 15.201 9.99554 15.2016 10.473L15.7016 10.4724C15.7007 9.74558 15.1401 9.13281 14.4197 9.13182L14.419 9.63182ZM8.22578 9.63182H14.4193V9.13182H8.22578V9.63182ZM7.44352 10.473C7.44411 9.99554 7.80694 9.6324 8.22613 9.63182L8.22543 9.13182C7.50504 9.13281 6.94442 9.74558 6.94352 10.4724L7.44352 10.473ZM7.44352 12.6545V10.4727H6.94352V12.6545H7.44352ZM15.4516 12.4045H7.19352V12.9045H15.4516V12.4045ZM4.09645 13.4955C3.37605 13.4965 2.81544 14.1092 2.81453 14.8361L3.31453 14.8367C3.31513 14.3592 3.67795 13.996 4.09714 13.9955L4.09645 13.4955ZM29.9032 13.4955H4.09679V13.9955H29.9032V13.4955ZM31.1855 14.8361C31.1846 14.1092 30.624 13.4965 29.9036 13.4955L29.9029 13.9955C30.3221 13.996 30.6849 14.3592 30.6855 14.8367L31.1855 14.8361ZM31.1855 19.2V14.8364H30.6855V19.2H31.1855ZM3.06453 19.45H30.9355V18.95H3.06453V19.45ZM2.81453 14.8364V19.2H3.31453V14.8364H2.81453ZM3.67357 23.8591H3.06453V24.3591H3.67357V23.8591ZM3.7376 22.4263L3.42793 24.0626L3.91921 24.1556L4.22888 22.5192L3.7376 22.4263ZM3.06453 22.7228H3.98324V22.2228H3.06453V22.7228ZM3.31453 24.1091V22.4728H2.81453V24.1091H3.31453ZM30.3264 24.3591H30.9355V23.8591H30.3264V24.3591ZM29.7711 22.5192L30.0808 24.1556L30.5721 24.0626L30.2624 22.4263L29.7711 22.5192ZM30.9355 22.2228H30.0168V22.7228H30.9355V22.2228ZM31.1855 24.1091V22.4728H30.6855V24.1091H31.1855ZM31.9677 21.1318H2.03223V21.6318H31.9677V21.1318ZM31.7177 20.2909V21.3818H32.2177V20.2909H31.7177ZM2.03223 20.5409H31.9677V20.0409H2.03223V20.5409ZM2.28223 21.3818V20.2909H1.78223V21.3818H2.28223Z" fill="#696969"/>
</svg>
