<svg width="223" height="243" viewBox="0 0 223 243" fill="none" xmlns="http://www.w3.org/2000/svg">
<path d="M9.08121 87.5179C28.5191 68.0993 44.9772 84.3912 51.9083 58.3131C67.5706 -0.59007 132.53 -0.0195761 141.075 41.8841C156.468 117.386 223.497 69.4377 222.997 123.519C222.465 181.254 179.989 226.224 103.807 230.717C35.5052 234.743 -23.1269 119.696 9.08121 87.5179Z" fill="#FFECE0"/>
<path opacity="0.7" d="M9.08121 87.5179C28.5191 68.0993 44.9772 84.3912 51.9083 58.3131C67.5706 -0.59007 132.53 -0.0195761 141.075 41.8841C156.468 117.386 223.497 69.4377 222.997 123.519C222.465 181.254 179.989 226.224 103.807 230.717C35.5052 234.743 -23.1269 119.696 9.08121 87.5179Z" fill="#FFECE0"/>
<path d="M60.1163 58.3687C60.0948 58.3977 60.0703 58.426 60.0423 58.4532C60.0574 58.4345 60.072 58.415 60.086 58.3946C60.2586 58.1442 60.2903 57.8412 60.2584 57.551L60.2584 57.551L60.258 57.5478L59.8519 54.059L59.852 54.059L59.8516 54.0563C59.8163 53.7668 59.7162 53.4781 59.4894 53.2741C59.4807 53.2662 59.4719 53.2586 59.4631 53.2513C59.4841 53.2653 59.5037 53.2802 59.5221 53.2956C59.6861 53.4334 59.8313 53.6876 59.885 54.1319C59.885 54.1322 59.8851 54.1325 59.8851 54.1328L60.2745 57.4709C60.2745 57.4709 60.2745 57.471 60.2745 57.4711C60.3257 57.9159 60.2436 58.1968 60.1163 58.3687ZM57.9523 53.4799C57.965 53.4626 57.9789 53.4456 57.9939 53.4289C57.9868 53.4388 57.9798 53.4488 57.9729 53.4591C57.8026 53.7129 57.7793 54.0169 57.8101 54.2976L57.8101 54.2976L57.8105 54.3008L58.2166 57.7896L58.2166 57.7896L58.2169 57.7923C58.2504 58.0672 58.3397 58.354 58.5566 58.5614C58.5532 58.5586 58.5498 58.5558 58.5464 58.553C58.3824 58.4152 58.2372 58.1611 58.1835 57.7168C58.1835 57.7165 58.1834 57.7162 58.1834 57.7159L57.7941 54.3778C57.7941 54.3777 57.794 54.3776 57.794 54.3775C57.7428 53.9327 57.8249 53.6518 57.9523 53.4799ZM63.4346 56.6066C63.4474 56.5893 63.4613 56.5723 63.4763 56.5556C63.4692 56.5655 63.4621 56.5755 63.4552 56.5858C63.2849 56.8396 63.2616 57.1436 63.2925 57.4243L63.2925 57.4243L63.2928 57.4275L63.6989 60.9163L63.6989 60.9163L63.6993 60.9191C63.7328 61.1939 63.8221 61.4808 64.039 61.6882C64.0355 61.6854 64.0321 61.6826 64.0288 61.6797C63.8648 61.542 63.7195 61.2878 63.6659 60.8435C63.6658 60.8432 63.6658 60.8429 63.6658 60.8426L63.2764 57.5045C63.2764 57.5044 63.2764 57.5043 63.2764 57.5042C63.2252 57.0594 63.3073 56.7785 63.4346 56.6066ZM65.5986 61.4955C65.5772 61.5244 65.5526 61.5527 65.5246 61.5799C65.5397 61.5613 65.5543 61.5417 65.5684 61.5214C65.7409 61.2709 65.7726 60.9679 65.7408 60.6778L65.7404 60.6745L65.3343 57.1858L65.3343 57.1858L65.334 57.183C65.2987 56.8935 65.1986 56.6049 64.9718 56.4008C64.9631 56.393 64.9543 56.3854 64.9455 56.378C64.9665 56.3921 64.9861 56.4069 65.0045 56.4224C65.1684 56.5601 65.3137 56.8142 65.3673 57.2584C65.3674 57.2588 65.3674 57.2591 65.3675 57.2595L65.7568 60.5976C65.7568 60.5978 65.7569 60.598 65.7569 60.5983C65.808 61.0428 65.7259 61.3236 65.5986 61.4955Z" fill="#263238" stroke="#FF6400"/>
<path d="M68.6352 64.6436L56.754 66.0369C56.1888 66.1027 55.6839 65.7023 55.618 65.1372L54.1802 52.8717C54.1253 52.4109 54.2899 51.9446 54.6192 51.621L59.5802 46.7334C60.0741 46.2452 60.8315 46.1574 61.4241 46.5195L67.3785 50.1289C67.7791 50.3703 68.0425 50.7817 68.0974 51.248L69.5352 63.5135C69.601 64.0676 69.2004 64.5777 68.6352 64.6436Z" stroke="#FF6400" stroke-miterlimit="10" stroke-linecap="round" stroke-linejoin="round"/>
<path d="M61.4406 48.0938C61.49 48.5107 61.1881 48.8892 60.7711 48.9386C60.354 48.988 59.9753 48.6863 59.9259 48.2694C59.8766 47.8525 60.1784 47.474 60.5955 47.4246C61.0125 47.3752 61.3912 47.6769 61.4406 48.0938Z" stroke="#FF6400" stroke-miterlimit="10" stroke-linecap="round" stroke-linejoin="round"/>
<path d="M60.6833 39.5035C60.6833 39.5035 63.0047 48.4394 60.6833 48.1816" stroke="#FF6400" stroke-miterlimit="10" stroke-linecap="round" stroke-linejoin="round"/>
<path d="M60.0907 46.3989C60.5462 43.9139 62.8236 39.7285 62.8236 39.7285" stroke="#FF6400" stroke-miterlimit="10" stroke-linecap="round" stroke-linejoin="round"/>
<path d="M60.6834 48.1816C60.3761 48.1487 60.1895 47.9731 60.0907 47.6989" stroke="#FF6400" stroke-miterlimit="10" stroke-linecap="round" stroke-linejoin="round"/>
<path d="M71.0497 42.8223C73.0966 44.4734 74.721 46.6621 75.6814 49.2129" stroke="#FF6400" stroke-miterlimit="10" stroke-linecap="round" stroke-linejoin="round"/>
<path d="M46.9966 50.7488C48.4783 45.0713 53.2253 40.5403 59.3991 39.6352C63.1144 39.0921 66.7089 39.9533 69.6504 41.8129" stroke="#FF6400" stroke-miterlimit="10" stroke-linecap="round" stroke-linejoin="round"/>
<path d="M51.6886 65.8943C49.0709 63.6178 47.2215 60.4252 46.6782 56.7225" stroke="#FF6400" stroke-miterlimit="10" stroke-linecap="round" stroke-linejoin="round"/>
<path d="M60.996 69.5859C58.1863 69.4762 55.5247 68.5875 53.2692 67.0955" stroke="#FF6400" stroke-miterlimit="10" stroke-linecap="round" stroke-linejoin="round"/>
<path d="M76.4936 52.3506C77.7009 60.5788 72.0046 68.2311 63.7673 69.4379" stroke="#FF6400" stroke-miterlimit="10" stroke-linecap="round" stroke-linejoin="round"/>
<path d="M39.3136 118.357L22.1422 115.05C21.6483 114.956 21.3245 114.479 21.4233 113.986L23.6074 102.658L42.5624 106.311L40.3783 117.639C40.285 118.133 39.8075 118.451 39.3136 118.357Z" stroke="#FF6400" stroke-miterlimit="10" stroke-linecap="round" stroke-linejoin="round"/>
<path d="M24.7654 98.8566L42.8972 102.351C43.3911 102.444 43.7149 102.921 43.6161 103.415L43.0399 106.405L23.1245 102.565L23.7007 99.5752C23.7995 99.087 24.2715 98.7633 24.7654 98.8566Z" stroke="#FF6400" stroke-miterlimit="10" stroke-linecap="round" stroke-linejoin="round"/>
<path d="M35.1859 100.866L32.4755 100.344L29.3714 116.437L32.0818 116.96L35.1859 100.866Z" stroke="#FF6400" stroke-miterlimit="10" stroke-linecap="round" stroke-linejoin="round"/>
<path d="M33.8313 100.606C33.8313 100.606 38.5289 97.178 40.7021 98.2147C42.8753 99.2515 41.8051 102.142 40.7076 101.928" stroke="#FF6400" stroke-miterlimit="10" stroke-linecap="round" stroke-linejoin="round"/>
<path d="M35.6917 100.963C35.6917 100.963 39.5167 99.0596 40.071 99.9208C40.6252 100.782 38.9734 101.594 37.7057 101.353" stroke="#FF6400" stroke-miterlimit="10" stroke-linecap="round" stroke-linejoin="round"/>
<path d="M33.9575 100.371C33.9575 100.371 35.9441 96.7666 35.6807 95.6146H37.0033C37.0033 95.6146 37.4368 96.9805 35.8892 99.3173" stroke="#FF6400" stroke-miterlimit="10" stroke-linecap="round" stroke-linejoin="round"/>
<path d="M33.8314 100.606C33.8314 100.606 30.7417 95.6805 28.338 95.8341C25.9344 95.9877 25.8575 99.0705 26.9496 99.279" stroke="#FF6400" stroke-miterlimit="10" stroke-linecap="round" stroke-linejoin="round"/>
<path d="M31.9763 100.25C31.9763 100.25 29.1337 97.0629 28.2995 97.6553C27.4653 98.2478 28.6946 99.6191 29.9623 99.8605" stroke="#FF6400" stroke-miterlimit="10" stroke-linecap="round" stroke-linejoin="round"/>
<path d="M33.8038 100.343C33.8038 100.343 33.3044 96.2565 33.9684 95.2856L32.7392 94.7919C32.7392 94.7919 31.8282 95.8999 32.3989 98.6427" stroke="#FF6400" stroke-miterlimit="10" stroke-linecap="round" stroke-linejoin="round"/>
<path d="M47.8253 94.8302C49.9107 97.4687 51.3101 100.65 51.7875 104.101" stroke="#FF6400" stroke-miterlimit="10" stroke-linecap="round" stroke-linejoin="round"/>
<path d="M15.6283 97.9185C19.0747 91.2646 26.2692 86.964 34.2156 87.5784C38.9955 87.9514 43.2321 90.0359 46.3657 93.1846" stroke="#FF6400" stroke-miterlimit="10" stroke-linecap="round" stroke-linejoin="round"/>
<path d="M17.1923 118.1C14.5746 114.523 13.1752 110.031 13.5429 105.264" stroke="#FF6400" stroke-miterlimit="10" stroke-linecap="round" stroke-linejoin="round"/>
<path d="M27.7399 125.33C24.2661 124.402 21.2094 122.537 18.8221 120.047" stroke="#FF6400" stroke-miterlimit="10" stroke-linecap="round" stroke-linejoin="round"/>
<path d="M51.9084 108.242C51.0852 118.835 41.8327 126.75 31.2357 125.927" stroke="#FF6400" stroke-miterlimit="10" stroke-linecap="round" stroke-linejoin="round"/>
<path d="M128.019 57.0296L126.405 56.2068C126.696 55.4937 126.691 54.5995 126.641 54.0071C127.168 54.2484 127.701 54.5008 128.2 54.7366C128.172 55.3949 128.118 56.1793 128.019 57.0296Z" stroke="#FF6400" stroke-miterlimit="10" stroke-linecap="round" stroke-linejoin="round"/>
<path d="M130.368 55.7953C130.889 56.0641 131.438 56.2396 131.992 56.3383C132.376 58.4557 132.541 61.9774 130.669 65.6308C130.252 66.4426 125.879 64.2045 126.29 63.3927C127.289 61.4398 127.777 59.0537 128.013 57.0295C128.112 56.1847 128.167 55.4003 128.194 54.7366C129.111 55.1699 129.918 55.5649 130.368 55.7953Z" stroke="#FF6400" stroke-miterlimit="10" stroke-linecap="round" stroke-linejoin="round"/>
<path d="M135.581 45.6087C136.986 46.3273 137.968 47.5506 138.413 48.9439C138.868 50.3317 138.786 51.9005 138.067 53.3048C137.348 54.7146 136.124 55.691 134.73 56.1463C133.858 56.4316 132.919 56.5029 131.992 56.3438C131.438 56.2451 130.894 56.0695 130.368 55.8007C129.918 55.5703 129.111 55.1754 128.2 54.7365C127.701 54.4952 127.168 54.2483 126.641 54.007C125.379 53.4255 124.155 52.8934 123.524 52.685L129.051 41.8895C130.219 42.7398 134.286 44.9449 135.581 45.6087Z" stroke="#FF6400" stroke-miterlimit="10" stroke-linecap="round" stroke-linejoin="round"/>
<path d="M123.694 36.7881C125.253 38.7245 127.053 40.4414 129.056 41.8841L123.53 52.6795C121.186 51.9006 118.744 51.4453 116.258 51.3191L114.113 51.2094L122.35 35.1205L123.694 36.7881Z" stroke="#FF6400" stroke-miterlimit="10" stroke-linecap="round" stroke-linejoin="round"/>
<path d="M111.621 51.6593L121.263 32.8221C121.417 32.5259 121.779 32.4052 122.076 32.5588L122.789 32.9208C123.085 33.0744 123.206 33.4365 123.052 33.7327L122.35 35.1041L114.113 51.193L113.41 52.5644C113.257 52.8606 112.894 52.9813 112.598 52.8277L111.885 52.4657C111.583 52.323 111.468 51.961 111.621 51.6593Z" stroke="#FF6400" stroke-miterlimit="10" stroke-linecap="round" stroke-linejoin="round"/>
<path d="M111.907 39.9258L108.191 38.0278" stroke="#FF6400" stroke-miterlimit="10" stroke-linecap="round" stroke-linejoin="round"/>
<path d="M116.258 33.9686L113.915 29.871" stroke="#FF6400" stroke-miterlimit="10" stroke-linecap="round" stroke-linejoin="round"/>
<path d="M109.618 46.9363L104.926 47.4355" stroke="#FF6400" stroke-miterlimit="10" stroke-linecap="round" stroke-linejoin="round"/>
<path d="M140.674 29.2073C137.486 26.2616 133.523 24.1387 129.128 23.1787" stroke="#FF6400" stroke-miterlimit="10" stroke-linecap="round" stroke-linejoin="round"/>
<path d="M133.479 70.3484C142.403 66.5744 148.659 57.7482 148.659 47.452C148.659 41.2643 146.392 35.6033 142.65 31.2533" stroke="#FF6400" stroke-miterlimit="10" stroke-linecap="round" stroke-linejoin="round"/>
<path d="M107.632 66.322C111.978 70.0522 117.631 72.3012 123.81 72.3012" stroke="#FF6400" stroke-miterlimit="10" stroke-linecap="round" stroke-linejoin="round"/>
<path d="M99.3671 52.0214C100.212 56.5853 102.309 60.7104 105.283 64.0291" stroke="#FF6400" stroke-miterlimit="10" stroke-linecap="round" stroke-linejoin="round"/>
<path d="M123.805 22.6082C110.074 22.6082 98.9446 33.7327 98.9446 47.4574" stroke="#FF6400" stroke-miterlimit="10" stroke-linecap="round" stroke-linejoin="round"/>
<path d="M79.781 87.4632C77.6957 85.5981 75.5335 86.4154 74.4249 87.0737C74.1999 85.8066 73.4151 83.6343 70.6383 83.2613C67.6255 82.8608 65.1669 85.7956 65.9736 89.8823C66.5553 92.8225 68.4377 95.5159 69.4419 96.7885C69.5627 96.9421 69.6724 97.0737 69.7657 97.1834C69.9084 97.1834 70.084 97.1834 70.2761 97.1725C71.9005 97.1067 75.1658 96.783 77.778 95.3129C81.4164 93.2668 82.042 89.4873 79.781 87.4632Z" stroke="#FF6400" stroke-miterlimit="10" stroke-linecap="round" stroke-linejoin="round"/>
<path d="M68.0648 99.0924C68.0648 99.0924 67.9167 99.3667 67.7191 99.8384" stroke="#FF6400" stroke-linecap="round" stroke-linejoin="round"/>
<path d="M67.1757 101.352C66.3745 104.057 65.8971 108.555 70.205 111.298C81.027 118.193 84.671 101.928 76.3843 103.388C70.7044 104.391 76.6752 119.367 85.56 116.465" stroke="#FF6400" stroke-linecap="round" stroke-linejoin="round" stroke-dasharray="2.95 2.95"/>
<path d="M86.3173 116.174C86.5642 116.07 86.8112 115.949 87.0581 115.812" stroke="#FF6400" stroke-linecap="round" stroke-linejoin="round"/>
<path d="M73.0145 215.571C73.0145 215.571 66.9065 219.724 64.448 219.45C64.1407 219.417 63.9047 219.323 63.7236 219.142C62.1157 217.486 60.8315 214.584 60.8315 214.584C60.8315 214.584 61.5943 213.525 63.9541 216.334L65.4523 214.957L62.3571 211.847C62.3571 211.847 64.0968 210.464 67.0547 212.225C66.9559 212.011 65.0462 207.864 66.484 202.214L59.2729 195.269L65.6553 189.713L66.1492 189.285C66.1492 189.285 66.5498 189.68 67.2029 190.294C67.834 190.892 68.6956 191.687 69.6395 192.51C71.8895 194.485 74.6115 196.63 75.7913 196.608C77.9755 196.564 73.0145 215.571 73.0145 215.571Z" fill="#F2BEB7"/>
<path opacity="0.2" d="M68.295 212.845C68.295 212.845 64.8157 216.433 64.448 219.444C64.1407 219.411 63.9047 219.318 63.7236 219.137C62.1157 217.48 60.8315 214.579 60.8315 214.579C60.8315 214.579 61.5943 213.52 63.9541 216.328L65.4523 214.952L62.3571 211.841C62.3571 211.841 64.0968 210.459 67.0547 212.22C66.9559 212.006 65.0462 207.859 66.484 202.209L59.2729 195.264L65.6553 189.707L67.1974 190.289C67.8285 190.887 68.6901 191.682 69.634 192.505C68.284 194.485 65.3919 198.577 65.3919 198.577L67.8889 201.967C67.8943 201.973 66.3797 210.519 68.295 212.845Z" fill="black"/>
<path d="M73.0145 215.571C73.0145 215.571 66.9065 219.724 64.448 219.45C64.1407 219.417 63.9047 219.323 63.7236 219.142C62.1157 217.486 60.8315 214.584 60.8315 214.584C60.8315 214.584 61.5943 213.525 63.9541 216.334L65.4523 214.957L62.3571 211.847C62.3571 211.847 64.0968 210.464 67.0547 212.225C66.9559 212.011 65.0462 207.864 66.484 202.214L59.2729 195.269L65.6553 189.713L66.1492 189.285C66.1492 189.285 66.5498 189.68 67.2029 190.294C67.834 190.892 68.6956 191.687 69.6395 192.51C71.8895 194.485 74.6115 196.63 75.7913 196.608C77.9755 196.564 73.0145 215.571 73.0145 215.571Z" stroke="#263238" stroke-miterlimit="10" stroke-linecap="round" stroke-linejoin="round"/>
<path d="M65.4523 214.957C65.4523 214.957 65.9846 213.289 67.0602 212.231" stroke="#263238" stroke-miterlimit="10" stroke-linecap="round" stroke-linejoin="round"/>
<path d="M179.435 167.195C178.568 168.511 177.388 169.751 175.977 170.919C175.977 170.919 175.972 170.919 175.972 170.925C164.738 180.223 138.841 184.814 138.841 184.814C138.841 184.814 137.974 186.114 136.641 187.963C134.248 191.287 130.324 196.388 127.125 198.945H127.119C125.769 200.031 124.545 200.656 123.623 200.486L128.48 218.424L130.653 226.213C130.653 226.213 108.323 235.95 70.1224 224.814C70.1224 224.814 69.6889 219.833 70.0127 218.769C70.0291 218.72 70.0456 218.665 70.0621 218.616C70.4188 217.76 71.5603 216.734 71.5603 216.734C71.5603 216.734 71.3462 213.531 71.2365 210.267C71.1487 207.732 71.1267 205.165 71.3133 204.024C71.5822 202.379 72.7895 198.402 73.3932 196.449C73.6072 195.758 73.7499 195.319 73.7499 195.319L71.8511 177.524L71.3023 172.4C71.3023 172.4 71.2914 172.307 71.2749 172.132C71.2749 172.093 71.2694 172.055 71.2639 172.005L70.9621 169.257L61.1388 172.258C61.1388 172.258 61.6602 173.404 62.3626 175.022C63.6523 177.974 65.5511 182.472 65.9736 184.249C66.0066 184.397 66.0505 184.534 66.0999 184.677C67.0108 187.272 70.4737 189.625 70.4737 189.625L61.1718 200.492L58.4224 198.572C58.4224 198.572 58.0217 198.884 57.3138 199.268C55.5028 200.25 51.7107 201.693 47.5674 199.488C46.0528 198.681 44.4942 197.392 42.9686 195.423C35.6368 185.933 32.4868 178.204 33.5185 169.109C34.5503 160.009 75.4182 132.027 83.5238 132.318L95.586 134.984C95.844 134.77 96.5519 134.21 97.0952 134.238C99.2903 134.348 99.3452 136.898 99.3452 136.898L126.373 141.287C126.373 141.287 129.172 139.888 129.66 139.91C130.856 139.97 131.367 140.996 131.367 140.996C131.367 140.996 138.369 136.805 140.625 137.781C148.039 140.974 184.906 158.884 179.435 167.195Z" fill="#FF6400"/>
<path opacity="0.2" d="M85.5321 211.6C85.5321 211.6 81.3339 216.751 73.832 217.941C72.4107 218.166 71.1595 218.396 70.0674 218.621C70.4241 217.766 71.5656 216.74 71.5656 216.74C71.5656 216.74 71.3515 213.536 71.2418 210.272C74.4192 212.346 79.94 214.759 85.5321 211.6Z" fill="black"/>
<path opacity="0.2" d="M73.4041 196.46C73.6182 195.769 73.7608 195.33 73.7608 195.33L71.8621 177.535C74.7048 181.605 84.8353 195.483 91.8213 196.981C99.1147 198.544 79.5944 201.304 73.4041 196.46Z" fill="black"/>
<path opacity="0.2" d="M128.48 218.435C120.852 217.568 110.063 215.648 108.982 211.655C107.302 205.423 115.479 201.682 127.114 198.95C125.764 200.036 124.54 200.662 123.618 200.492L128.48 218.435Z" fill="black"/>
<path opacity="0.2" d="M175.972 170.925C164.738 180.223 138.841 184.814 138.841 184.814C138.841 184.814 137.974 186.114 136.64 187.963C134.451 182.85 131.295 172.274 134.989 159.274C134.989 159.274 136.986 170.075 145.267 172.642C145.267 172.642 138.929 167.924 141.14 156.558C141.14 156.558 143.303 169.932 157.379 173.624C164.222 175.423 170.907 173.437 175.972 170.925Z" fill="black"/>
<path opacity="0.2" d="M71.2857 172.143L70.9729 169.268L61.1497 172.269C61.1497 172.269 61.671 173.415 62.3735 175.033C58.6143 174.644 51.4911 178.133 50.2454 174.337C48.7472 169.751 57.9722 171.331 57.9722 171.331L66.676 166.268C65.0296 159.23 69.2168 153.942 69.2168 153.942L70.0126 158.851C70.3967 149.52 74.0461 144.413 74.0461 144.413C71.0059 151.791 71.0937 169.954 71.2857 172.143Z" fill="black"/>
<path opacity="0.2" d="M70.479 189.636L61.1771 200.503L58.4277 198.583C58.4277 198.583 58.0271 198.895 57.3192 199.279C55.5082 200.261 51.7161 201.704 47.5728 199.499C50.5856 195.33 56.8143 189.192 64.2229 186.822C64.2229 186.822 61.1716 191.282 59.2783 195.264L61.1881 197.146C61.1881 197.151 65.957 191.715 70.479 189.636Z" fill="black"/>
<path opacity="0.2" d="M93.0725 141.764C93.067 142.719 92.4688 153.596 100.382 156.471C108.296 159.345 115.331 154.468 115.331 154.468C115.331 154.468 103.192 166.169 95.8109 159.916C88.4243 153.668 93.0725 141.764 93.0725 141.764Z" fill="black"/>
<path d="M70.1279 224.82C70.1279 224.82 69.6999 219.839 70.0182 218.775C70.2871 217.886 71.5657 216.74 71.5657 216.74C71.5657 216.74 70.8962 206.641 71.3243 204.035C71.692 201.803 73.7609 195.324 73.7609 195.324L70.9731 169.268L61.1498 172.269C61.1498 172.269 65.3316 181.506 65.9791 184.26C66.6267 187.014 70.4791 189.641 70.4791 189.641L61.1718 200.508L58.4224 198.594C58.4224 198.594 50.3058 204.94 42.9686 195.445C35.6368 185.95 32.4868 178.226 33.5185 169.126C34.5503 160.025 75.4182 132.044 83.5292 132.334L95.5915 135C95.8549 134.786 96.5574 134.227 97.1007 134.254C99.2958 134.364 99.3507 136.915 99.3507 136.915L126.378 141.298C126.378 141.298 129.183 139.899 129.671 139.921C130.867 139.981 131.378 141.001 131.378 141.001C131.378 141.001 138.38 136.811 140.636 137.787C148.039 140.98 184.906 158.89 179.435 167.2C171.669 178.999 138.841 184.82 138.841 184.82C138.841 184.82 127.92 201.282 123.623 200.497L130.659 226.23" stroke="#263238" stroke-miterlimit="10" stroke-linecap="round" stroke-linejoin="round"/>
<path d="M150.876 168.994C163.278 177.184 173.277 175.67 181.103 165.132C181.103 165.132 187.617 156.739 187.156 147.677C186.695 138.621 184.533 109.076 156.292 116.629C151.644 117.875 140.8 132.395 139.884 136.383C139.467 138.204 135.109 147.491 130.884 157.096" fill="#FF6400"/>
<path d="M117.312 82.23C117.312 82.23 125.209 81.0341 130.703 85.9437C137.645 92.1532 145.438 108.895 134.336 136.641C134.336 136.641 117.943 125.757 89.9609 133.037C89.9609 133.037 92.3701 126.525 88.139 106.043C86.2292 96.7775 91.0366 75.4225 117.312 82.23Z" fill="#263238"/>
<path d="M105.333 151.857C117.028 153.75 129.458 140.81 129.458 140.81C129.458 140.81 123.097 140.025 122.532 137.041C120.71 127.628 128.047 115.999 128.047 115.999C128.047 115.999 99.6533 116.783 104.614 123.207C105.657 124.556 106.37 125.845 106.859 127.057C108.582 131.287 107.386 134.474 106.469 135.253C106.403 135.308 106.326 135.357 106.261 135.39C104.543 136.174 97.4856 135.006 97.4856 135.006C97.4856 135.006 94.6648 150.129 105.333 151.857Z" fill="#F2BEB7"/>
<path d="M125.429 144.392C125.429 144.392 120.034 146.547 112.137 145.906L108.581 147.65" stroke="black" stroke-miterlimit="10" stroke-linecap="round" stroke-linejoin="round"/>
<path d="M105.036 147.365L104.773 145.028C104.773 145.028 98.95 143.207 97.1445 139.74" stroke="black" stroke-miterlimit="10" stroke-linecap="round" stroke-linejoin="round"/>
<path opacity="0.2" d="M106.468 135.258C115.167 137.529 119.25 126.383 119.25 126.383C119.25 126.383 112.291 124.309 106.858 127.063C108.576 131.287 107.385 134.479 106.468 135.258Z" fill="black"/>
<path d="M128.54 110.14C130.659 98.2694 128.304 84.0236 110.233 85.2029C97.3201 86.0477 97.4244 100.2 98.2805 104.424C99.7183 111.528 97.6604 114.325 99.872 120.294C101.463 124.583 105.162 129.378 109.514 131.177C112.192 132.285 123.031 124.682 123.832 121.204" fill="#F2BEB7"/>
<path d="M117.038 89.723C117.038 89.723 115.897 103.788 128.316 108.9L134.133 95.3786L125.33 85.6309L112.066 81.802C92.2494 83.0362 83.7158 95.3457 94.7189 128.143C94.7189 128.143 91.6403 89.0867 117.038 89.723Z" fill="#263238"/>
<path d="M125.599 109.498C125.429 107.918 129.43 103.892 130.78 106.476C133.084 110.881 131.405 114.72 129.018 116.223C127.948 116.898 126.592 118.16 125.643 116.969" fill="#F2BEB7"/>
<g opacity="0.2">
<path opacity="0.2" d="M92.9628 105.494C92.8147 106.448 92.7104 107.408 92.6555 108.374" stroke="white" stroke-miterlimit="10" stroke-linecap="round" stroke-linejoin="round"/>
<path opacity="0.2" d="M114.98 87.1668C104.943 86.9035 95.6136 93.2995 93.391 103.343" stroke="white" stroke-miterlimit="10" stroke-linecap="round" stroke-linejoin="round"/>
<path opacity="0.2" d="M113.186 84.2978C113.186 84.2978 98.7086 80.8969 93.2811 90.491" stroke="white" stroke-miterlimit="10" stroke-linecap="round" stroke-linejoin="round"/>
<path opacity="0.2" d="M124.93 101.023C125.813 102.252 126.845 103.387 128.052 104.314" stroke="white" stroke-miterlimit="10" stroke-linecap="round" stroke-linejoin="round"/>
<path opacity="0.2" d="M119.189 86.174C119.963 90.6995 121.456 95.2908 123.783 99.2514" stroke="white" stroke-miterlimit="10" stroke-linecap="round" stroke-linejoin="round"/>
<path opacity="0.2" d="M133.738 129.707C133.48 130.859 133.178 132 132.838 133.13" stroke="white" stroke-miterlimit="10" stroke-linecap="round" stroke-linejoin="round"/>
<path opacity="0.2" d="M132.898 110.584C135.247 115.796 135.088 122.279 134.122 127.765" stroke="white" stroke-miterlimit="10" stroke-linecap="round" stroke-linejoin="round"/>
<path opacity="0.2" d="M131.175 119.663C131.175 119.663 131.894 125.477 127.092 130.387" stroke="white" stroke-miterlimit="10" stroke-linecap="round" stroke-linejoin="round"/>
<path opacity="0.2" d="M124.496 87.8524C126.96 91.1821 128.787 94.7532 131.641 97.7921C134.648 100.996 137.65 104.66 138.216 109.169" stroke="white" stroke-miterlimit="10" stroke-linecap="round" stroke-linejoin="round"/>
<path opacity="0.2" d="M121.028 84.3911C121.736 84.8519 122.378 85.4004 122.959 86.0093" stroke="white" stroke-miterlimit="10" stroke-linecap="round" stroke-linejoin="round"/>
</g>
<path d="M170.555 161.632C170.27 161.698 169.979 161.748 169.683 161.786C161.912 162.894 153.197 156.46 150.256 148.72C147.934 142.614 149.965 135.686 151.073 132.718C151.425 131.791 151.677 131.248 151.677 131.248C156.364 124.556 183.611 137.644 183.924 144.858C184.242 152.071 178.54 159.883 170.555 161.632Z" fill="#263238" stroke="#263238" stroke-miterlimit="10" stroke-linecap="round" stroke-linejoin="round"/>
<path d="M179.078 145.84C179.078 145.84 177.53 157.299 169.683 161.786C161.912 162.894 153.197 156.46 150.256 148.72C147.934 142.614 149.965 135.686 151.073 132.718C151.073 132.713 151.079 132.713 151.079 132.713C160.26 127.48 179.078 145.84 179.078 145.84Z" fill="#F2BEB7"/>
<path opacity="0.4" d="M179.078 145.84C179.078 145.84 177.53 157.299 169.683 161.786C161.912 162.894 153.197 156.46 150.256 148.72C147.934 142.614 149.965 135.686 151.073 132.718C151.073 132.713 151.079 132.713 151.079 132.713C160.26 127.48 179.078 145.84 179.078 145.84Z" fill="#F2BEB7"/>
<path d="M179.078 145.84C179.078 145.84 177.53 157.299 169.683 161.786C161.912 162.894 153.197 156.46 150.256 148.72C147.934 142.614 149.965 135.686 151.073 132.718C151.073 132.713 151.079 132.713 151.079 132.713C160.26 127.48 179.078 145.84 179.078 145.84Z" fill="#F2BEB7"/>
<path d="M146.952 151.874C146.952 151.874 155.799 164.567 166.132 165.626C176.466 166.685 183.068 157.985 183.501 151.424" stroke="#263238" stroke-miterlimit="10" stroke-linecap="round" stroke-linejoin="round"/>
<path d="M141.975 94.5778C142.754 92.4 148.335 93.1296 150.102 99.9152C151.869 106.701 158.855 123.174 158.855 123.174C158.855 123.174 186.585 82.3835 191.557 80.8147C196.529 79.2403 194.559 86.3111 187.919 96.1192C187.919 96.1192 194.142 95.0221 195.772 96.1247C197.407 97.2218 196.612 103.81 197.479 106.119C198.938 109.987 195.695 110.804 195.695 110.804C195.695 110.804 198.247 110.782 200.025 112.45C201.809 114.117 200.914 121.018 201.419 122.971C201.929 124.924 198.527 126.569 198.527 126.569C198.527 126.569 206.704 131.029 204.854 132.142C201.743 134.024 199.965 132.099 199.965 132.099C199.965 132.099 187.403 147.869 177.931 151.38C168.459 154.891 150.009 140.936 148.028 133.333C146.047 125.73 148.412 126.202 146.908 113.547C145.415 100.897 141.975 94.5778 141.975 94.5778Z" fill="#F2BEB7"/>
<path d="M182.431 69.5311L145.898 79.0484C144.603 79.3885 143.824 80.7105 144.159 82.0106L161.424 148.237C161.764 149.531 163.086 150.31 164.387 149.976L200.92 140.458C202.215 140.118 202.994 138.796 202.659 137.496L185.394 71.27C185.054 69.9699 183.726 69.191 182.431 69.5311Z" fill="white" stroke="#263238" stroke-miterlimit="10" stroke-linecap="round" stroke-linejoin="round"/>
<path d="M161.5 77.1285C161.583 77.4466 161.391 77.7703 161.078 77.8526C160.76 77.9348 160.436 77.7429 160.353 77.4302C160.271 77.112 160.463 76.7884 160.776 76.7061C161.094 76.6183 161.418 76.8103 161.5 77.1285Z" fill="#92E3A9" stroke="#263238" stroke-miterlimit="10" stroke-linecap="round" stroke-linejoin="round"/>
<path d="M169.024 75.1646C169.074 75.3621 168.958 75.5651 168.755 75.6199C168.558 75.6693 168.355 75.5541 168.3 75.3511C168.25 75.1536 168.366 74.9507 168.569 74.8958C168.772 74.8464 168.975 74.9671 169.024 75.1646Z" fill="#92E3A9" stroke="#263238" stroke-miterlimit="10" stroke-linecap="round" stroke-linejoin="round"/>
<path d="M167.065 75.8943L162.68 77.0352C162.587 77.0572 162.494 77.0023 162.466 76.9091L162.45 76.8378C162.428 76.7445 162.483 76.6513 162.576 76.6238L166.961 75.4828C167.054 75.4609 167.147 75.5158 167.175 75.609L167.191 75.6803C167.213 75.7736 167.158 75.8723 167.065 75.8943Z" fill="#92E3A9" stroke="#263238" stroke-miterlimit="10" stroke-linecap="round" stroke-linejoin="round"/>
<path d="M184.291 71.9337L201.419 137.617C201.616 138.385 201.161 139.169 200.393 139.367L164.327 148.763C163.558 148.961 162.774 148.506 162.576 147.738L145.448 82.0544C145.251 81.2864 145.706 80.502 146.475 80.3045L153.878 78.3736C154.366 78.2475 154.882 78.434 155.167 78.8454L155.7 79.6079C155.991 80.0193 156.506 80.2113 156.989 80.0796L173.244 75.8448C173.733 75.7187 174.089 75.3017 174.139 74.8026L174.232 73.8755C174.282 73.3763 174.638 72.9594 175.127 72.8333L182.53 70.9024C183.309 70.7049 184.094 71.1657 184.291 71.9337Z" fill="#FFBD93"/>
<path d="M185.544 108.815C188.895 101.101 185.356 92.1322 177.639 88.7825C169.922 85.4327 160.949 88.9704 157.598 96.6841C154.247 104.398 157.786 113.366 165.503 116.716C173.22 120.066 182.193 116.528 185.544 108.815Z" fill="white" stroke="#263238" stroke-miterlimit="10" stroke-linecap="round" stroke-linejoin="round"/>
<path fill-rule="evenodd" clip-rule="evenodd" d="M177.824 109.769C177.559 109.821 177.112 109.811 176.779 109.747C176.171 109.63 175.635 109.312 175.175 108.798C174.918 108.513 174.631 108.059 174.465 107.68C174.429 107.599 174.429 107.593 174.481 107.567C174.512 107.549 174.554 107.523 174.578 107.505C174.611 107.478 174.864 107.318 175.166 107.134C175.199 107.115 175.268 107.071 175.32 107.038C175.373 107.005 175.506 106.923 175.617 106.853C175.728 106.783 175.856 106.702 175.904 106.67C176.133 106.522 176.21 106.477 176.235 106.484C176.247 106.487 176.268 106.522 176.279 106.562C176.306 106.659 176.424 106.87 176.553 107.056C176.96 107.637 177.408 107.816 177.871 107.587C178.035 107.504 178.1 107.447 178.184 107.313C178.243 107.219 178.288 107.025 178.295 106.844C178.297 106.787 178.137 106.186 177.744 104.773L177.189 102.784L175.179 103.35C174.071 103.661 173.167 103.918 173.169 103.922C173.19 104.118 173.207 104.564 173.196 104.692C173.157 105.155 173.117 105.405 173.032 105.75C172.983 105.938 172.948 106.039 172.786 106.456C172.723 106.618 172.393 107.174 172.252 107.356C171.977 107.714 171.628 108.053 171.262 108.314C170.667 108.74 169.829 109.114 169.115 109.267C168.843 109.326 168.367 109.389 168.226 109.386C167.749 109.371 167.599 109.361 167.387 109.328C166.852 109.247 166.364 109.081 165.798 108.785C165.666 108.716 165.332 108.493 165.133 108.338C164.615 107.938 164.015 107.208 163.728 106.629C163.685 106.542 163.628 106.426 163.599 106.371C163.4 105.985 163.166 105.243 163.069 104.69C163.008 104.343 162.993 104.154 162.99 103.686C162.988 103.304 163.097 102.626 163.228 102.219C163.36 101.815 163.684 101.178 163.923 100.857C164.522 100.052 165.275 99.4758 166.265 99.0611C166.688 98.8831 167.469 98.6838 167.937 98.6335C168.53 98.5686 169.134 98.6092 169.73 98.7472C169.926 98.7941 170.048 98.8345 170.422 98.9693C170.663 99.0577 171.152 99.321 171.166 99.3693C171.169 99.3798 171.096 99.5701 170.818 100.273C170.788 100.35 170.689 100.609 170.598 100.845C170.507 101.084 170.428 101.289 170.42 101.303C170.411 101.319 170.374 101.309 170.319 101.272C170.143 101.159 169.776 100.995 169.499 100.905C168.866 100.698 168.291 100.668 167.773 100.813C167.62 100.856 167.105 101.06 167.052 101.098C167.038 101.109 166.981 101.141 166.926 101.167C166.724 101.267 166.3 101.611 166.139 101.803C166.104 101.845 166.071 101.881 166.065 101.883C166.04 101.89 165.785 102.283 165.705 102.44C165.6 102.644 165.514 102.84 165.519 102.861C165.522 102.869 165.508 102.923 165.488 102.981C165.395 103.261 165.342 103.722 165.368 104.084C165.385 104.371 165.515 104.91 165.624 105.156C165.713 105.35 165.908 105.692 166.016 105.834C166.086 105.925 166.29 106.151 166.404 106.261C166.433 106.291 166.498 106.355 166.548 106.402C166.752 106.6 167.066 106.802 167.364 106.924C168.055 107.205 168.814 107.182 169.532 106.855C170.044 106.623 170.502 106.177 170.783 105.645C170.962 105.302 171.063 104.893 171.045 104.588L171.04 104.515L170.348 104.709L169.657 104.904L169.385 103.938L169.113 102.973L170.88 102.471L172.643 101.968L172.658 101.715C172.687 101.17 172.819 100.693 173.086 100.158C173.24 99.85 173.53 99.3832 173.67 99.2148C173.693 99.1856 173.757 99.1066 173.811 99.0347C173.91 98.905 174.371 98.3313 174.422 98.2738C174.613 98.0616 174.906 97.6688 175.023 97.4703C175.232 97.1217 175.278 96.8597 175.176 96.578C175.076 96.3048 174.908 96.1323 174.649 96.0445C174.427 95.9688 174.268 95.9638 174.036 96.0291C173.789 96.0984 173.654 96.1705 173.506 96.3074C173.273 96.5224 173.104 96.8033 172.98 97.1802C172.954 97.2645 172.93 97.3371 172.927 97.3425C172.926 97.3472 172.898 97.3459 172.867 97.3389C172.824 97.3305 171.055 96.7571 171.014 96.7392C170.944 96.7068 171.139 96.1036 171.349 95.7026C171.655 95.1159 172.109 94.6302 172.658 94.299C173.271 93.9293 174.115 93.7214 174.853 93.7582C175.373 93.7842 175.841 93.9195 176.26 94.1663C176.818 94.4964 177.24 95.0752 177.442 95.793C177.724 96.7962 177.521 97.6915 176.772 98.7493C176.61 98.9808 176.271 99.3866 175.764 99.9642C175.307 100.482 175.081 100.838 175.035 101.109C174.993 101.368 174.764 101.405 176.944 100.792L178.855 100.254L179.682 103.199C180.527 106.209 180.536 106.241 180.569 106.655C180.622 107.333 180.388 108.072 179.952 108.598C179.835 108.742 179.784 108.792 179.638 108.924C179.395 109.142 179.055 109.36 178.735 109.504C178.603 109.564 178.035 109.731 177.824 109.769Z" fill="#FF6400"/>
<path d="M188.797 126.657L168.239 132.011C165.775 132.653 163.256 131.177 162.614 128.714C161.972 126.251 163.449 123.733 165.913 123.091L186.47 117.738C188.934 117.096 191.453 118.571 192.095 121.034C192.737 123.497 191.261 126.015 188.797 126.657Z" fill="white"/>
<path d="M167.441 128.26C167.538 128.622 167.521 128.923 167.389 129.165C167.258 129.406 167.021 129.572 166.677 129.664C166.34 129.754 166.036 129.765 165.764 129.696L165.573 128.985C165.913 129.096 166.204 129.119 166.446 129.054C166.583 129.017 166.676 128.952 166.725 128.858C166.775 128.763 166.783 128.65 166.748 128.52C166.713 128.391 166.64 128.285 166.529 128.201C166.417 128.116 166.249 128.033 166.023 127.954C165.827 127.884 165.671 127.808 165.557 127.727C165.444 127.644 165.346 127.544 165.263 127.426C165.182 127.308 165.119 127.162 165.073 126.99C164.984 126.658 165.005 126.371 165.136 126.128C165.27 125.884 165.492 125.721 165.802 125.637C166.098 125.558 166.406 125.565 166.723 125.657L166.64 126.298C166.542 126.271 166.441 126.251 166.337 126.237C166.235 126.223 166.131 126.23 166.025 126.258C165.909 126.289 165.829 126.352 165.786 126.447C165.745 126.539 165.742 126.651 165.777 126.784C165.812 126.914 165.88 127.018 165.98 127.095C166.082 127.172 166.243 127.247 166.463 127.32C166.761 127.422 166.983 127.548 167.129 127.698C167.276 127.847 167.381 128.035 167.441 128.26Z" fill="#FF6400"/>
<path d="M169.546 124.694L170.216 127.197C170.34 127.657 170.33 128.037 170.187 128.336C170.044 128.633 169.775 128.834 169.382 128.94C168.997 129.043 168.672 129.001 168.407 128.815C168.141 128.628 167.945 128.298 167.819 127.828L167.151 125.336L167.865 125.144L168.547 127.689C168.679 128.181 168.908 128.383 169.235 128.296C169.386 128.255 169.487 128.161 169.536 128.014C169.586 127.866 169.579 127.677 169.517 127.446L168.831 124.886L169.546 124.694Z" fill="#FF6400"/>
<path d="M171.652 124.745C171.446 124.801 171.315 124.965 171.26 125.239C171.207 125.512 171.238 125.864 171.353 126.294C171.593 127.19 171.947 127.575 172.414 127.45C172.619 127.395 172.816 127.273 173.005 127.082L173.176 127.722C173.021 127.898 172.796 128.025 172.502 128.104C172.066 128.221 171.684 128.138 171.357 127.855C171.031 127.57 170.784 127.114 170.616 126.486C170.447 125.858 170.436 125.337 170.582 124.921C170.73 124.506 171.018 124.24 171.447 124.126C171.588 124.088 171.728 124.071 171.867 124.075C172.008 124.079 172.166 124.11 172.34 124.167L172.258 124.815C172.164 124.782 172.066 124.755 171.965 124.735C171.862 124.714 171.758 124.717 171.652 124.745Z" fill="#FF6400"/>
<path d="M174.076 124.096C173.87 124.151 173.739 124.316 173.684 124.59C173.631 124.863 173.662 125.215 173.777 125.645C174.017 126.541 174.371 126.926 174.838 126.801C175.043 126.746 175.24 126.623 175.429 126.433L175.601 127.073C175.445 127.249 175.22 127.376 174.926 127.455C174.49 127.572 174.108 127.489 173.781 127.206C173.455 126.921 173.208 126.464 173.04 125.837C172.871 125.209 172.86 124.687 173.006 124.272C173.154 123.856 173.442 123.591 173.871 123.476C174.012 123.439 174.152 123.422 174.291 123.426C174.432 123.43 174.59 123.461 174.764 123.518L174.682 124.166C174.588 124.133 174.49 124.106 174.389 124.086C174.286 124.064 174.182 124.068 174.076 124.096Z" fill="#FF6400"/>
<path d="M177.928 126.594L176.184 127.061L175.148 123.194L176.892 122.727L177.058 123.348L176.034 123.623L176.281 124.543L177.231 124.289L177.398 124.913L176.448 125.167L176.735 126.239L177.76 125.964L177.928 126.594Z" fill="#FF6400"/>
<path d="M179.969 124.905C180.066 125.267 180.048 125.568 179.916 125.809C179.786 126.05 179.549 126.217 179.205 126.309C178.868 126.399 178.563 126.41 178.292 126.341L178.101 125.629C178.441 125.74 178.732 125.764 178.973 125.699C179.111 125.662 179.204 125.597 179.252 125.502C179.303 125.408 179.31 125.295 179.275 125.164C179.241 125.036 179.168 124.93 179.057 124.846C178.945 124.761 178.776 124.678 178.551 124.599C178.354 124.528 178.199 124.453 178.084 124.372C177.971 124.289 177.873 124.189 177.791 124.071C177.71 123.953 177.646 123.807 177.6 123.634C177.511 123.303 177.533 123.015 177.664 122.772C177.797 122.529 178.019 122.365 178.33 122.282C178.626 122.203 178.933 122.209 179.251 122.302L179.167 122.942C179.07 122.916 178.969 122.895 178.865 122.882C178.763 122.867 178.659 122.874 178.553 122.903C178.436 122.934 178.357 122.997 178.314 123.091C178.273 123.184 178.27 123.296 178.305 123.428C178.34 123.559 178.408 123.663 178.508 123.74C178.61 123.817 178.771 123.892 178.991 123.965C179.288 124.067 179.51 124.192 179.656 124.342C179.804 124.492 179.908 124.679 179.969 124.905Z" fill="#FF6400"/>
<path d="M182.207 124.305C182.304 124.667 182.287 124.968 182.155 125.21C182.025 125.451 181.788 125.617 181.444 125.709C181.107 125.799 180.802 125.81 180.53 125.741L180.34 125.03C180.68 125.141 180.97 125.164 181.212 125.099C181.35 125.062 181.443 124.997 181.491 124.903C181.541 124.808 181.549 124.695 181.514 124.565C181.48 124.436 181.407 124.33 181.295 124.246C181.184 124.161 181.015 124.079 180.789 123.999C180.593 123.929 180.437 123.853 180.323 123.772C180.21 123.689 180.112 123.589 180.03 123.471C179.949 123.353 179.885 123.207 179.839 123.035C179.75 122.703 179.771 122.416 179.903 122.173C180.036 121.929 180.258 121.766 180.568 121.682C180.865 121.603 181.172 121.61 181.49 121.702L181.406 122.343C181.308 122.316 181.207 122.296 181.103 122.282C181.001 122.268 180.897 122.275 180.792 122.303C180.675 122.334 180.595 122.397 180.553 122.492C180.511 122.584 180.508 122.697 180.544 122.829C180.579 122.959 180.646 123.063 180.746 123.14C180.848 123.217 181.009 123.292 181.229 123.365C181.527 123.467 181.749 123.593 181.895 123.743C182.043 123.892 182.147 124.08 182.207 124.305Z" fill="#FF6400"/>
<path d="M183.684 125.052L182.97 125.244L181.933 121.377L183.666 120.912L183.833 121.534L182.814 121.807L183.102 122.881L184.052 122.626L184.219 123.248L183.269 123.502L183.684 125.052Z" fill="#FF6400"/>
<path d="M186.53 120.145L187.2 122.648C187.324 123.108 187.314 123.488 187.171 123.787C187.028 124.084 186.759 124.286 186.366 124.391C185.981 124.494 185.656 124.452 185.391 124.266C185.125 124.079 184.929 123.749 184.803 123.279L184.135 120.787L184.849 120.596L185.531 123.14C185.663 123.632 185.892 123.834 186.219 123.747C186.37 123.706 186.471 123.612 186.52 123.465C186.57 123.318 186.563 123.128 186.501 122.897L185.815 120.337L186.53 120.145Z" fill="#FF6400"/>
<path d="M188.236 123.833L187.199 119.966L187.919 119.773L188.787 123.011L189.784 122.744L189.953 123.373L188.236 123.833Z" fill="#FF6400"/>
<path d="M138.841 184.814C138.841 184.814 132.601 170.305 135.784 152.708" stroke="#263238" stroke-miterlimit="10" stroke-linecap="round" stroke-linejoin="round"/>
<path d="M123.623 200.492C123.623 200.492 111.012 204.348 109.734 207.244C108.455 210.146 115.392 207.705 115.392 207.705" stroke="#263238" stroke-miterlimit="10" stroke-linecap="round" stroke-linejoin="round"/>
<path d="M131.378 140.996C131.378 140.996 119.765 152.499 111.995 155.571" stroke="#263238" stroke-miterlimit="10" stroke-linecap="round" stroke-linejoin="round"/>
<path d="M93.325 137.902C93.325 137.902 91.2121 153.432 99.1091 156.366" stroke="#263238" stroke-miterlimit="10" stroke-linecap="round" stroke-linejoin="round"/>
<path d="M70.973 169.268C70.973 169.268 70.9071 148.906 74.9571 142.609" stroke="#263238" stroke-miterlimit="10" stroke-linecap="round" stroke-linejoin="round"/>
<path d="M69.4639 148.522C69.4639 148.522 68.3279 161.166 70.8742 165.291" stroke="#263238" stroke-miterlimit="10" stroke-linecap="round" stroke-linejoin="round"/>
<path d="M61.1497 172.269C61.1497 172.269 52.3198 169.23 50.4869 172.998C48.6539 176.767 55.7552 173.426 55.7552 173.426" stroke="#263238" stroke-miterlimit="10" stroke-linecap="round" stroke-linejoin="round"/>
<path d="M66.462 185.472C66.462 185.472 57.7912 190.354 57.3412 193.152" stroke="#263238" stroke-miterlimit="10" stroke-linecap="round" stroke-linejoin="round"/>
<path d="M80.6261 171.962C80.6261 171.962 97.2268 197.041 106.392 194.737" stroke="#263238" stroke-miterlimit="10" stroke-linecap="round" stroke-linejoin="round"/>
<path d="M91.9695 207.14C91.9695 207.14 78.9524 216.679 77.0591 215.873" stroke="#263238" stroke-miterlimit="10" stroke-linecap="round" stroke-linejoin="round"/>
<path opacity="0.2" d="M183.15 166.438C184.028 165.719 184.61 165.242 184.796 165.088C184.599 165.264 184.028 165.758 183.15 166.438Z" fill="black"/>
</svg>
