<svg xmlns="http://www.w3.org/2000/svg" width="150" height="140" fill="none"><defs/><path fill="#FF6060" fill-rule="evenodd" d="M144 80a1 1 0 002 0l3-3v-2l-3-3h-2l-4 3v2l4 3zm1-3l-2-1 2-1 1 1-1 1z" clip-rule="evenodd"/><path fill="#FF6060" d="M90 10l-1-2-2-1a1 1 0 010-3l2-2a1 1 0 012 0l2 2a1 1 0 010 3l-2 1-1 2z"/><path fill="#FF7EB8" d="M90 126l-2-1-2-2a1 1 0 010-3l2-2a1 1 0 013 0l2 2a1 1 0 010 3l-2 2-1 1zM10 140l-2-2-2-2a1 1 0 110-2l2-2a1 1 0 013 0l2 2a1 1 0 110 2l-2 2-1 2z"/><path fill="#FFADD7" fill-opacity=".5" fill-rule="evenodd" d="M4 52a1 1 0 002 0l4-4v-2l-4-3H4l-3 3v2l3 4zm1-4l-1-1 1-1 1 1-1 1z" clip-rule="evenodd"/><path fill="#FF6400" d="M43 41h5v3h-5v-3zM57 41h5v3h-5v-3zM51 47h3v5h-3v-5zM51 33h3v5h-3v-5zM138 21h3v1h-3v-1zM147 21h3v1h-3v-1zM143 24h2v3h-2v-3zM143 16h2v3h-2v-3z"/><mask id="a" width="80" height="80" x="35" y="31" maskUnits="userSpaceOnUse"><path fill="#fff" fill-rule="evenodd" d="M36 31h79v79H36V31z" clip-rule="evenodd"/></mask><g mask="url(#a)"><path fill="#FFAC5F" fill-rule="evenodd" d="M112 71l-2 5v6c-1 2-3 3-3 5l-2 5-5 4-3 5-6 1-4 4h-6l-6 2-5-2h-6l-5-4-5-1-4-5-4-4-2-5c-1-2-3-3-3-5v-6l-2-5 2-6v-6l3-4 2-6 4-3 4-5 5-2 5-3h6l5-2 6 2h6l4 3 6 2 3 5 5 3 2 6 3 4v6l2 6" clip-rule="evenodd"/><path stroke="#000" stroke-width="2" d="M112 71l-2 5v6c-1 2-3 3-3 5l-2 5-5 4-3 5-6 1-4 4h-6l-6 2-5-2h-6l-5-4-5-1-4-5-4-4-2-5c-1-2-3-3-3-5v-6l-2-5 2-6v-6l3-4 2-6 4-3 4-5 5-2 5-3h6l5-2 6 2h6l4 3 6 2 3 5 5 3 2 6 3 4v6l2 6"/><path fill="#FF6400" fill-rule="evenodd" d="M108 70l-2 5v6l-3 4-1 5-4 3-3 4-5 2c-2 0-3 2-5 3h-5l-5 1-5-1h-5l-4-3-5-2-3-4-4-3-2-5-3-4v-6l-1-5 1-5v-5l3-4 2-5 4-3 3-4 5-2 4-3h5l5-1 5 1h5l5 3 5 2 3 4 4 3 1 5 3 4v5l2 5" clip-rule="evenodd"/></g><mask id="b" width="80" height="80" x="35" y="32" maskUnits="userSpaceOnUse"><path fill="#fff" fill-rule="evenodd" d="M35 111h80V33H35v78z" clip-rule="evenodd"/></mask><path stroke="#fff" stroke-dasharray="3" stroke-width="1.7" d="M104 66l1 3h-1a30 30 0 010 4h1l-1 3h0l-1 3h1l-1 3h-1l-2 3h1l-2 3h0l-2 2v1l-2 2h-1l-2 2h0l-2 2-1-1-3 2 1 1-4 1v-1l-3 1h0l-3 1v-1a29 29 0 01-4 0v1l-3-1h0l-3-1v1l-3-1v-1l-3-2v1l-3-2h0l-2-2h-1l-2-2 1-1-2-2h-1l-2-3h1l-2-3h0l-1-3h0v-3h-1l-1-3h1a30 30 0 010-4h-1l1-3h1v-3h0l1-3h0l2-3-1-1 2-2h1l2-2-1-1 2-2h1l2-2h0l3-2v1l3-2v-1l3-1v1l3-1v-1h3v1a29 29 0 014 0v-1h3v1l3 1v-1l4 1-1 1 3 2 1-1 2 2h0l2 2h1l2 2v1l2 2h0l2 2-1 1 2 3h1l1 3h-1l1 3h0z"/><path fill="#fff" fill-rule="evenodd" d="M87 65h-6l1-1c2-1 2-3 0-4-1-2-3-2-4 0-1 0-3 3-3 5l-2-5c-2-2-4-2-5 0v4l1 1h-5l-2 2v4l1 1h1v10l1 1h20l2-1V72l1-1v-4l-1-2zm-18-4a2 2 0 013 0l1 4-4-2v-2zm-4 21h9V72h-9v10zm9-12H64v-3h10v3zm7-9h-2l-2 4 4-2v-2zm4 21h-9V72h9v10zm-9-12h11v-3H76v3z" clip-rule="evenodd"/></svg>