<svg xmlns="http://www.w3.org/2000/svg" width="40" height="40" fill="none"><path fill="#696969" fill-rule="evenodd" d="M39.8 12.4c-.3-1-1-1.7-1.7-2.1-3-1.5-6.2-1.7-9.3-.5l-3.2 1.3-9-5a1 1 0 0 0-1 0l-5.3 2.2c-.4.1-.7.5-.8 1 0 .5.1 1 .5 1.3l5.7 4.5-8 3.3-3-2.7a1 1 0 0 0-1-.2l-3 1.2c-.2 0-.5.3-.6.6v1L1.9 24a7 7 0 0 0 3.4 4c1.6.9 3.3 1 5 .3l7-2.8-1.5 6.6c-.1.4 0 1 .3 1.3.3.2.5.3.8.3h.4l5.4-2.3c.3 0 .6-.3.7-.7l3.6-9.2 10.8-4.3c1.7-.7 2.6-2.9 2-4.8ZM13.2 9.9 16 8.7l6.6 3.7-4.2 1.7-5.2-4.2Zm12.6 9.4L37 14.7c.5-.2.8-.8.6-1.4a1 1 0 0 0-.5-.6 8.8 8.8 0 0 0-7.5-.4L8 21a1 1 0 0 1-1.1-.2l-3-2.7-1.1.5L4 23a4.5 4.5 0 0 0 2.2 2.6c1 .5 2.1.6 3.2.2l9.1-3.7a1 1 0 0 1 1.2.2c.3.3.4.8.3 1.3l-1.5 6.6 2.9-1.1L25 20c.1-.4.4-.6.7-.7Z" clip-rule="evenodd"/></svg>