<svg width="24" height="24" viewBox="0 0 24 24" fill="none" xmlns="http://www.w3.org/2000/svg">
<path fill-rule="evenodd" clip-rule="evenodd" d="M2.10938 4.21877H10.3025L7.28409 1.20035C7.0095 0.925757 7.0095 0.480585 7.28409 0.205992C7.55864 -0.0686015 8.00386 -0.0686015 8.27845 0.205992L12 3.92754L15.7215 0.205945C15.9961 -0.0686484 16.4413 -0.0686484 16.7159 0.205945C16.9905 0.480539 16.9905 0.92571 16.7159 1.2003L13.6975 4.21877H21.8906C23.0537 4.21877 24 5.16503 24 6.32814V20.4844C24 21.6475 23.0537 22.5938 21.8906 22.5938H19.7812V23.2969C19.7812 23.6852 19.4664 24 19.0781 24C18.6898 24 18.375 23.6852 18.375 23.2969V22.5938H5.625V23.2969C5.625 23.6852 5.31019 24 4.92188 24C4.53356 24 4.21875 23.6852 4.21875 23.2969V22.5938H2.10938C0.946266 22.5938 0 21.6475 0 20.4844V6.32814C0 5.16503 0.946218 4.21877 2.10938 4.21877ZM1.40625 20.4844C1.40625 20.8721 1.72167 21.1875 2.10938 21.1875H21.8906C22.2783 21.1875 22.5938 20.8721 22.5938 20.4844V6.32816C22.5938 5.94046 22.2783 5.62504 21.8906 5.62504H2.10938C1.72167 5.62504 1.40625 5.94046 1.40625 6.32816V20.4844ZM6.24745 7.38461H20.5218C20.9133 7.38461 21.2308 7.7037 21.2308 8.09728V19.595C21.2308 19.9886 20.9133 20.3077 20.5218 20.3077H6.24745C5.8559 20.3077 5.53847 19.9886 5.53847 19.595V8.09728C5.53847 7.7037 5.8559 7.38461 6.24745 7.38461ZM6.95654 18.8824H19.8129V8.80997H6.95654V18.8824Z" fill="#696969"/>
<path fill-rule="evenodd" clip-rule="evenodd" d="M2.7692 9.23069C2.7692 9.7405 3.18247 10.1538 3.69227 10.1538C4.20207 10.1538 4.61535 9.7405 4.61535 9.23069C4.61535 8.72089 4.20207 8.30762 3.69227 8.30762C3.18247 8.30762 2.7692 8.72089 2.7692 9.23069ZM2.7692 12C2.7692 12.5098 3.18247 12.923 3.69227 12.923C4.20207 12.923 4.61535 12.5098 4.61535 12C4.61535 11.4901 4.20207 11.0769 3.69227 11.0769C3.18247 11.0769 2.7692 11.4901 2.7692 12ZM4.61535 14.5986C4.61535 14.183 4.20206 13.8461 3.69227 13.8461C3.18249 13.8461 2.7692 14.183 2.7692 14.5986V17.7089C2.7692 18.1245 3.18249 18.4615 3.69227 18.4615C4.20206 18.4615 4.61535 18.1245 4.61535 17.7089V14.5986Z" fill="#FF7300"/>
</svg>
