<svg width="30" height="30" viewBox="0 0 30 30" fill="none" xmlns="http://www.w3.org/2000/svg">
<path d="M15 30C23.2843 30 30 23.2843 30 15C30 6.71573 23.2843 0 15 0C6.71573 0 0 6.71573 0 15C0 23.2843 6.71573 30 15 30Z" fill="#F0F0F0"/>
<path d="M3.09967 5.86768C1.92141 7.40066 1.03295 9.16756 0.515625 11.087H8.31902L3.09967 5.86768Z" fill="#0052B4"/>
<path d="M29.483 11.087C28.9656 9.16756 28.0771 7.40066 26.8989 5.86768L21.6797 11.087H29.483Z" fill="#0052B4"/>
<path d="M0.515625 18.9127C1.03301 20.8321 1.92146 22.599 3.09967 24.132L8.31885 18.9127H0.515625Z" fill="#0052B4"/>
<path d="M24.1304 3.10064C22.5974 1.92238 20.8306 1.03392 18.9111 0.516541V8.31988L24.1304 3.10064Z" fill="#0052B4"/>
<path d="M5.86816 26.8989C7.40115 28.0771 9.16805 28.9656 11.0875 29.483V21.6797L5.86816 26.8989Z" fill="#0052B4"/>
<path d="M11.0874 0.516541C9.16799 1.03392 7.40109 1.92238 5.86816 3.10058L11.0874 8.31982V0.516541Z" fill="#0052B4"/>
<path d="M18.9111 29.483C20.8305 28.9656 22.5974 28.0771 24.1304 26.8989L18.9111 21.6797V29.483Z" fill="#0052B4"/>
<path d="M21.6797 18.9127L26.8989 24.132C28.0771 22.5991 28.9656 20.8321 29.483 18.9127H21.6797Z" fill="#0052B4"/>
<path d="M29.873 13.0435H16.9566H16.9566V0.126973C16.3161 0.0435938 15.6631 0 15 0C14.3368 0 13.6839 0.0435938 13.0435 0.126973V13.0434V13.0434H0.126973C0.0435938 13.6839 0 14.3369 0 15C0 15.6632 0.0435938 16.3161 0.126973 16.9565H13.0434H13.0434V29.873C13.6839 29.9564 14.3368 30 15 30C15.6631 30 16.3161 29.9565 16.9565 29.873V16.9566V16.9566H29.873C29.9564 16.3161 30 15.6632 30 15C30 14.3369 29.9564 13.6839 29.873 13.0435Z" fill="#D80027"/>
<path d="M18.9121 18.9133L25.6056 25.6068C25.9135 25.299 26.2071 24.9773 26.4873 24.6438L20.7568 18.9132H18.9121V18.9133Z" fill="#D80027"/>
<path d="M11.0852 18.9133H11.0851L4.3916 25.6067C4.69934 25.9146 5.02107 26.2082 5.35459 26.4884L11.0852 20.7577V18.9133Z" fill="#D80027"/>
<path d="M11.087 11.0869V11.0868L4.39344 4.39319C4.08559 4.70092 3.79191 5.02266 3.51172 5.35618L9.24236 11.0868H11.087V11.0869Z" fill="#D80027"/>
<path d="M18.9121 11.087L25.6057 4.39338C25.298 4.08553 24.9762 3.79186 24.6427 3.51172L18.9121 9.24236V11.087Z" fill="#D80027"/>
</svg>
