<svg width="24" height="24" viewBox="0 0 24 24" fill="none" xmlns="http://www.w3.org/2000/svg">
<path d="M23.9258 17.5843L22.9384 12.2137C22.6211 9.75892 20.5203 7.91052 18.0432 7.91052H5.95654C3.47946 7.91052 1.3787 9.75892 1.06133 12.2138L0.0739908 17.5843C-0.416904 20.2546 1.59608 22.7483 4.29619 22.8566C6.86899 22.9596 8.93604 20.8592 8.94413 18.3529C8.94422 18.3439 8.65383 18.347 15.0557 18.347C15.0557 20.8448 17.1229 22.9602 19.7036 22.8566C22.3915 22.7487 24.4191 20.2674 23.9258 17.5843ZM21.2787 20.8944C20.1197 21.7107 18.5136 21.6413 17.429 20.5994C16.817 20.0114 16.466 19.1874 16.466 18.3384C16.466 17.5807 15.8414 16.9367 15.0556 16.9367H8.94413C8.15852 16.9367 7.53378 17.5806 7.53378 18.3384C7.53378 20.0586 6.12104 21.5182 4.3527 21.4474C2.73597 21.3826 1.45857 20.0594 1.40775 18.4689C1.39501 18.0707 1.38091 18.2755 2.45193 12.4496C2.45437 12.4363 2.45644 12.423 2.45809 12.4095C2.67819 10.6487 4.18219 9.32082 5.9565 9.32082H18.0432C19.8175 9.32082 21.3214 10.6487 21.5416 12.4095C21.5454 12.4406 21.4756 12.0572 22.5386 17.8394C22.7638 19.0623 22.2149 20.2351 21.2787 20.8944Z" fill="#696969"/>
<path d="M8.61505 12.7998H7.43976V11.6245C7.43976 11.235 7.12403 10.9193 6.73459 10.9193C6.34515 10.9193 6.02942 11.235 6.02942 11.6245V12.7998H4.85413C4.46469 12.7998 4.14896 13.1155 4.14896 13.5049C4.14896 13.8944 4.46469 14.2101 4.85413 14.2101H6.02942V15.3854C6.02942 15.7748 6.34515 16.0906 6.73459 16.0906C7.12403 16.0906 7.43976 15.7748 7.43976 15.3854V14.2101H8.61505C9.0045 14.2101 9.32022 13.8944 9.32022 13.5049C9.32022 13.1155 9.0045 12.7998 8.61505 12.7998Z" fill="#696969"/>
<path fill-rule="evenodd" clip-rule="evenodd" d="M17.0602 10.9499C17.4567 10.8318 17.8694 11.0704 17.9567 11.4867C18.022 11.8353 17.8346 12.1826 17.4697 12.2991C17.1243 12.4043 16.7196 12.2325 16.5905 11.829C16.4863 11.4858 16.6533 11.0824 17.0602 10.9499ZM18.4405 13.505C18.4405 13.1156 18.7562 12.7998 19.1456 12.7998C19.5351 12.7998 19.8508 13.1155 19.8508 13.505V13.552C19.8508 13.9415 19.5351 14.2572 19.1456 14.2572C18.7562 14.2572 18.4405 13.9415 18.4405 13.552V13.505ZM15.3847 12.7998C14.9953 12.7998 14.6795 13.1156 14.6795 13.505V13.552C14.6795 13.9415 14.9953 14.2572 15.3847 14.2572C15.7742 14.2572 16.0899 13.9415 16.0899 13.552V13.505C16.0899 13.1155 15.7742 12.7998 15.3847 12.7998ZM17.0602 14.7108C17.4567 14.5927 17.8694 14.8313 17.9567 15.2477C18.0222 15.5974 17.8332 15.944 17.4696 16.0601C17.1308 16.1633 16.7252 16.0023 16.5905 15.5904C16.4868 15.2414 16.6551 14.8428 17.0602 14.7108Z" fill="#FF6400"/>
<path d="M10.1715 4.90698C9.89615 5.18238 9.89615 5.62885 10.1715 5.90424C10.4469 6.17959 10.8934 6.17959 11.1688 5.90424C11.6281 5.44494 12.3715 5.44484 12.8309 5.90424C13.1063 6.17964 13.5528 6.17964 13.8281 5.90424C14.1035 5.62885 14.1035 5.18238 13.8281 4.90698C12.8201 3.89882 11.1797 3.89887 10.1715 4.90698Z" fill="#FF6400"/>
<path d="M9.04131 3.77672C10.6764 2.14161 13.3231 2.14132 14.9584 3.77672C15.2338 4.05211 15.6803 4.05211 15.9557 3.77672C16.2311 3.50132 16.2311 3.05485 15.9557 2.77946C13.7694 0.593186 10.2306 0.592904 8.04405 2.77946C7.76866 3.05485 7.76866 3.50132 8.04405 3.77672C8.31945 4.05211 8.76596 4.05211 9.04131 3.77672Z" fill="#FF6400"/>
</svg>
