<svg width="46" height="32" viewBox="0 0 46 32" fill="none" xmlns="http://www.w3.org/2000/svg">
<g clip-path="url(#clip0)">
<path d="M44.5041 5.00706C43.98 3.04941 42.4454 1.50588 40.4991 0.978823C36.9432 0 22.7199 0 22.7199 0C22.7199 0 8.49657 0 4.94074 0.941176C3.03182 1.46824 1.45976 3.04941 0.935746 5.00706C0 8.58353 0 16 0 16C0 16 0 23.4541 0.935746 26.9929C1.45976 28.9506 2.99439 30.4941 4.94074 31.0212C8.534 32 22.7199 32 22.7199 32C22.7199 32 36.9432 32 40.4991 31.0588C42.4454 30.5318 43.98 28.9882 44.5041 27.0306C45.4398 23.4541 45.4398 16.0376 45.4398 16.0376C45.4398 16.0376 45.4772 8.58353 44.5041 5.00706Z" fill="#FF0000"/>
<path d="M30.0187 16.0002L18.1909 9.14844V22.852L30.0187 16.0002Z" fill="white"/>
</g>
<defs>
<clipPath id="clip0">
<rect width="45.44" height="32" fill="white"/>
</clipPath>
</defs>
</svg>
