<svg width="29" height="28" viewBox="0 0 29 28" fill="none" xmlns="http://www.w3.org/2000/svg">
<path fill-rule="evenodd" clip-rule="evenodd" d="M0.5 14C0.5 6.28009 6.78009 0 14.5 0C22.2199 0 28.5 6.28009 28.5 14C28.5 21.7199 22.2199 28 14.5 28C6.78009 28 0.5 21.7199 0.5 14ZM13.0306 19.6C13.3356 19.6 13.6406 19.4815 13.8729 19.2459L21.6173 11.3954C22.0831 10.923 22.0831 10.1598 21.6173 9.68762C21.1514 9.21524 20.3985 9.21524 19.9327 9.68762L13.0306 16.6843L10.0008 13.6129C9.5348 13.1405 8.78193 13.1405 8.31616 13.6129C7.85017 14.0851 7.85017 14.8485 8.31616 15.3207L12.1883 19.2459C12.4206 19.4815 12.7256 19.6 13.0306 19.6Z" fill="#FF6400"/>
</svg>
