<svg width="28" height="28" viewBox="0 0 28 28" fill="none" xmlns="http://www.w3.org/2000/svg">
<circle cx="14" cy="14" r="13" stroke="#EAEAEA" stroke-width="2"/>
<path fill-rule="evenodd" clip-rule="evenodd" d="M14 28C21.732 28 28 21.732 28 14C28 6.26801 21.732 0 14 0C6.26801 0 0 6.26801 0 14C0 21.732 6.26801 28 14 28ZM14 28C6.28009 28 0 21.7199 0 14C0 6.28009 6.28009 0 14 0C21.7199 0 28 6.28009 28 14C28 21.7199 21.7199 28 14 28ZM13.3729 19.2459C13.1406 19.4815 12.8356 19.6 12.5306 19.6C12.2256 19.6 11.9206 19.4815 11.6883 19.2459L7.81616 15.3207C7.35017 14.8485 7.35017 14.0851 7.81616 13.6129C8.28193 13.1405 9.0348 13.1405 9.50079 13.6129L12.5306 16.6843L19.4327 9.68762C19.8985 9.21524 20.6514 9.21524 21.1173 9.68762C21.5831 10.1598 21.5831 10.923 21.1173 11.3954L13.3729 19.2459Z" fill="#EAEAEA"/>
</svg>
