<svg width="64" height="59" viewBox="0 0 64 59" fill="none" xmlns="http://www.w3.org/2000/svg">
<path d="M52.1418 51.8222C34.6782 62.4674 7.49093 52.7588 4.32749 45.0841C0.0954945 34.8169 7.21835 33.062 8.54153 24.6492C9.60323 17.8989 2.97451 11.4343 6.75837 5.47514C10.8789 -1.01436 24.5383 0.615215 29.7302 3.68621C39.234 9.30772 34.4409 15.8697 38.9412 24.0586C43.2275 31.8581 51.585 28.6949 56.4488 34.9344C61.0715 40.8646 58.0053 48.248 52.1418 51.8222Z" fill="url(#paint0_linear_295_6699)"/>
<g opacity="0.1">
<path opacity="0.1" d="M23.2262 8.54944H21.205C20.9046 8.54944 20.6611 8.3059 20.6611 8.00559C20.6611 7.70528 20.9046 7.46175 21.205 7.46175H23.2262C23.5267 7.46175 23.7701 7.70528 23.7701 8.00559C23.7701 8.3059 23.5267 8.54944 23.2262 8.54944Z" fill="#2626BC"/>
<path opacity="0.1" d="M23.2259 6.55017H16.8539C16.5535 6.55017 16.3101 6.30664 16.3101 6.00633C16.3101 5.70601 16.5535 5.46248 16.8539 5.46248H23.2259C23.5264 5.46248 23.7698 5.70601 23.7698 6.00633C23.7698 6.30664 23.5264 6.55017 23.2259 6.55017Z" fill="#2626BC"/>
<path opacity="0.1" d="M23.2259 4.55078H16.8539C16.5535 4.55078 16.3101 4.30725 16.3101 4.00694C16.3101 3.70662 16.5535 3.46309 16.8539 3.46309H23.2259C23.5264 3.46309 23.7698 3.70662 23.7698 4.00694C23.7698 4.30725 23.5264 4.55078 23.2259 4.55078Z" fill="#2626BC"/>
<path opacity="0.1" d="M52.3991 15.2795H48.6461C51.6617 18.7562 53.4868 23.2935 53.4868 28.2571C53.4868 39.201 44.6149 48.0729 33.671 48.0729C30.7786 48.0729 28.0311 47.4528 25.5538 46.3389V46.5819C25.5538 47.1826 25.0668 47.6696 24.4661 47.6696H12.1252C11.5244 47.6696 11.0375 47.1826 11.0375 46.5819V39.6391C11.0375 39.0384 11.5244 38.5514 12.1252 38.5514H16.736C14.9082 35.5512 13.8552 32.0271 13.8552 28.2571C13.8552 26.4261 14.1048 24.6536 14.5696 22.9705H13.3596C13.1503 22.9705 12.9806 22.8008 12.9806 22.5915V19.5113L10.3131 21.0515C10.1319 21.1561 9.90006 21.094 9.79543 20.9128L8.25395 18.2428C8.14932 18.0616 8.21142 17.8298 8.39263 17.7252L11.0602 16.185L8.39263 14.6448C8.21142 14.5402 8.14932 14.3084 8.25395 14.1272L9.79543 11.4573C9.90006 11.276 10.1319 11.2139 10.3131 11.3186L12.9806 12.8587V9.77851C12.9806 9.56924 13.1503 9.39956 13.3596 9.39956H16.4425C16.6518 9.39956 16.8215 9.56924 16.8215 9.77851V12.8587L19.489 11.3186C19.6703 11.2139 19.902 11.276 20.0067 11.4573L20.9397 13.0732C24.3832 10.1828 28.8234 8.44119 33.671 8.44119C35.5067 8.44119 37.2836 8.69191 38.9706 9.15896V7.24897C38.9706 6.64824 39.4575 6.16128 40.0583 6.16128H52.3991C52.9999 6.16128 53.4868 6.64824 53.4868 7.24897V14.1917C53.4868 14.7926 52.9997 15.2795 52.3991 15.2795Z" fill="#2626BC"/>
</g>
<path d="M47.6826 16.9643C55.4212 24.7029 55.4212 37.2495 47.6826 44.9881C39.9441 52.7266 27.3974 52.7266 19.6588 44.9881C11.9203 37.2495 11.9203 24.7029 19.6589 16.9643C27.3974 9.22577 39.9441 9.22577 47.6826 16.9643Z" fill="#FF0000"/>
<path d="M33.9494 13.357L33.361 11.1627C32.0666 11.1835 30.7737 11.3289 29.5023 11.6019L30.2399 14.3515C30.293 14.5538 30.5007 14.6738 30.7029 14.6191L33.6817 13.8216C33.8832 13.7677 34.0032 13.5601 33.9494 13.357Z" fill="#FF0000"/>
<path d="M16.6514 36.5156L21.5607 31.6064C21.9852 31.1818 21.986 30.4935 21.5607 30.0682L15.2224 23.7299C13.7026 27.6062 13.4503 31.864 14.4648 35.8673L15.1132 36.5156C15.5385 36.941 16.2269 36.9402 16.6514 36.5156Z" fill="#FF0000"/>
<path d="M38.1011 41.3107L33.6706 36.8802L29.2401 41.3107C28.6029 41.9478 27.5699 41.9478 26.9327 41.3107L23.336 37.7139C22.6988 37.0768 22.6988 36.0437 23.336 35.4066L27.7665 30.9761L23.336 26.5456C22.6988 25.9085 22.6988 24.8754 23.336 24.2382L26.9327 20.6415C27.5699 20.0044 28.6029 20.0044 29.2401 20.6415L33.6706 25.072L38.101 20.6415C38.7382 20.0044 39.7713 20.0044 40.4084 20.6415L44.0052 24.2383C44.6423 24.8754 44.6423 25.9085 44.0052 26.5456L39.5747 30.9761L44.0052 35.4066C44.6423 36.0437 44.6423 37.0768 44.0052 37.7139L40.4084 41.3107C39.7712 41.9479 38.7383 41.9479 38.1011 41.3107Z" fill="white"/>
<path d="M24.4658 41.2704H12.1248C11.5241 41.2704 11.0371 41.7574 11.0371 42.3581V49.3009C11.0371 49.9016 11.5241 50.3885 12.1248 50.3885H24.4656C25.0664 50.3885 25.5533 49.9016 25.5533 49.3009V42.3581C25.5534 41.7574 25.0664 41.2704 24.4658 41.2704Z" fill="#FF9D33"/>
<path d="M22.3796 47.455H20.3583C20.0579 47.455 19.8145 47.6986 19.8145 47.9989C19.8145 48.2992 20.0579 48.5427 20.3583 48.5427H22.3796C22.68 48.5427 22.9234 48.2992 22.9234 47.9989C22.9234 47.6986 22.6799 47.455 22.3796 47.455Z" fill="white"/>
<path d="M22.3797 45.4555H16.0077C15.7073 45.4555 15.4639 45.6991 15.4639 45.9994C15.4639 46.2997 15.7073 46.5432 16.0077 46.5432H22.3797C22.6802 46.5432 22.9236 46.2997 22.9236 45.9994C22.9236 45.6991 22.68 45.4555 22.3797 45.4555Z" fill="white"/>
<path d="M22.3797 43.4563H16.0077C15.7073 43.4563 15.4639 43.6998 15.4639 44.0001C15.4639 44.3004 15.7073 44.5439 16.0077 44.5439H22.3797C22.6802 44.5439 22.9236 44.3004 22.9236 44.0001C22.9236 43.6998 22.68 43.4563 22.3797 43.4563Z" fill="white"/>
<path d="M52.3989 8.88054H40.0579C39.4572 8.88054 38.9702 9.3675 38.9702 9.96823V16.911C38.9702 17.5117 39.4572 17.9987 40.0579 17.9987H52.3988C52.9995 17.9987 53.4864 17.5117 53.4864 16.911V9.96823C53.4866 9.3675 52.9995 8.88054 52.3989 8.88054Z" fill="white"/>
<path d="M23.2258 11.2688H21.2045C20.9041 11.2688 20.6606 11.0253 20.6606 10.725C20.6606 10.4246 20.9041 10.1811 21.2045 10.1811H23.2258C23.5262 10.1811 23.7696 10.4246 23.7696 10.725C23.7696 11.0253 23.5262 11.2688 23.2258 11.2688Z" fill="#F9C839"/>
<path d="M23.2259 9.26953H16.8539C16.5535 9.26953 16.3101 9.026 16.3101 8.72569C16.3101 8.42537 16.5535 8.18184 16.8539 8.18184H23.2259C23.5264 8.18184 23.7698 8.42537 23.7698 8.72569C23.7698 9.026 23.5264 9.26953 23.2259 9.26953Z" fill="#F9C839"/>
<path d="M23.2259 7.27026H16.8539C16.5535 7.27026 16.3101 7.02673 16.3101 6.72642C16.3101 6.42611 16.5535 6.18257 16.8539 6.18257H23.2259C23.5264 6.18257 23.7698 6.42611 23.7698 6.72642C23.7698 7.02673 23.5264 7.27026 23.2259 7.27026Z" fill="#F9C839"/>
<path d="M50.3127 15.0653H48.2914C47.991 15.0653 47.7476 15.3088 47.7476 15.6091C47.7476 15.9094 47.991 16.153 48.2914 16.153H50.3127C50.6131 16.153 50.8565 15.9094 50.8565 15.6091C50.8565 15.3088 50.613 15.0653 50.3127 15.0653Z" fill="black"/>
<path d="M50.3128 13.0658H43.9408C43.6404 13.0658 43.397 13.3093 43.397 13.6096C43.397 13.9099 43.6404 14.1534 43.9408 14.1534H50.3128C50.6133 14.1534 50.8567 13.9099 50.8567 13.6096C50.8567 13.3093 50.6132 13.0658 50.3128 13.0658Z" fill="black"/>
<path d="M50.3128 11.0665H43.9408C43.6404 11.0665 43.397 11.31 43.397 11.6103C43.397 11.9106 43.6404 12.1542 43.9408 12.1542H50.3128C50.6133 12.1542 50.8567 11.9106 50.8567 11.6103C50.8567 11.31 50.6132 11.0665 50.3128 11.0665Z" fill="black"/>
<path d="M53.0324 43.4471C52.732 43.4471 52.4885 43.6906 52.4885 43.9909C52.4885 44.3707 52.1795 44.6797 51.7997 44.6797C51.4993 44.6797 51.2559 44.9233 51.2559 45.2236C51.2559 45.5239 51.4993 45.7674 51.7997 45.7674C52.1795 45.7674 52.4885 46.0765 52.4885 46.4563C52.4885 46.7566 52.732 47.0001 53.0324 47.0001C53.3328 47.0001 53.5762 46.7566 53.5762 46.4563C53.5762 46.0765 53.8854 45.7674 54.2652 45.7674C54.5656 45.7674 54.809 45.5239 54.809 45.2236C54.809 44.9233 54.5656 44.6797 54.2652 44.6797C53.8854 44.6797 53.5762 44.3707 53.5762 43.9909C53.5762 43.6906 53.3328 43.4471 53.0324 43.4471Z" fill="#FF4D4D"/>
<path d="M31.5338 6.06877C31.2334 6.06877 30.99 6.3123 30.99 6.61262C30.99 6.99244 30.681 7.30145 30.3012 7.30145C30.0007 7.30145 29.7573 7.54499 29.7573 7.8453C29.7573 8.14561 30.0007 8.38914 30.3012 8.38914C30.681 8.38914 30.99 8.69816 30.99 9.07798C30.99 9.37829 31.2334 9.62183 31.5338 9.62183C31.8343 9.62183 32.0777 9.37829 32.0777 9.07798C32.0777 8.69816 32.3868 8.38914 32.7666 8.38914C33.0671 8.38914 33.3105 8.14561 33.3105 7.8453C33.3105 7.54499 33.0671 7.30145 32.7666 7.30145C32.3868 7.30145 32.0777 6.99244 32.0777 6.61262C32.0777 6.3123 31.8343 6.06877 31.5338 6.06877Z" fill="#FF4D4D"/>
<path d="M49.5247 47.3793C49.2243 47.3793 48.9808 47.6229 48.9808 47.9232C48.9808 48.303 48.6717 48.612 48.2919 48.612C47.9915 48.612 47.748 48.8555 47.748 49.1558C47.748 49.4562 47.9915 49.6997 48.2919 49.6997C48.6717 49.6997 48.9808 50.0087 48.9808 50.3885C48.9808 50.6888 49.2243 50.9324 49.5247 50.9324C49.8251 50.9324 50.0685 50.6888 50.0685 50.3885C50.0685 50.0087 50.3775 49.6997 50.7574 49.6997C51.0578 49.6997 51.3012 49.4562 51.3012 49.1558C51.3012 48.8555 51.0578 48.612 50.7574 48.612C50.3775 48.612 50.0685 48.303 50.0685 47.9232C50.0685 47.6229 49.8251 47.3793 49.5247 47.3793Z" fill="#6583FE"/>
<path fill-rule="evenodd" clip-rule="evenodd" d="M49.7935 18.5426H52.399C53.2988 18.5426 54.0306 17.8107 54.0306 16.9111V9.96833C54.0306 9.0687 53.2987 8.33679 52.399 8.33679H49.4244C49.124 8.33679 48.8806 8.58033 48.8806 8.88064C48.8806 9.18095 49.124 9.42448 49.4244 9.42448H52.399C52.6989 9.42448 52.9429 9.66845 52.9429 9.96833V16.9111C52.9429 17.2109 52.6989 17.4549 52.399 17.4549H40.0581C39.7582 17.4549 39.5142 17.2109 39.5142 16.9111V9.96833C39.5142 9.66845 39.7582 9.42448 40.0581 9.42448H46.2592C46.5597 9.42448 46.8031 9.18095 46.8031 8.88064C46.8031 8.58033 46.5597 8.33679 46.2592 8.33679H40.0581C39.1585 8.33679 38.4266 9.0687 38.4266 9.96833V11.1771C36.8764 10.8062 35.2793 10.6167 33.6708 10.6167C29.3814 10.6167 25.1803 11.9861 21.7234 14.491C21.9009 14.8137 22.057 15.1498 22.19 15.4973C25.4941 13.0464 29.5391 11.7044 33.6708 11.7044C35.2819 11.7044 36.8802 11.9055 38.4266 12.2979V16.911C38.4266 17.8106 39.1585 18.5425 40.0581 18.5425H48.3989C48.4012 18.5454 48.4031 18.5484 48.405 18.5514C48.4072 18.555 48.4095 18.5586 48.4123 18.562C51.3339 22.0275 52.9428 26.4363 52.9428 30.9762C52.9428 41.6029 44.2974 50.2482 33.6708 50.2482C31.0734 50.2482 28.5538 49.7404 26.1818 48.7391C26.1541 48.7275 26.1257 48.72 26.0975 48.7131V42.3584C26.0975 41.4588 25.3656 40.7268 24.4659 40.7268H17.0449C15.3143 37.782 14.399 34.4119 14.399 30.9763C14.399 30.4802 14.418 29.9786 14.4558 29.4851C14.4787 29.1857 14.2546 28.9243 13.955 28.9015C13.941 28.9004 13.9268 28.8998 13.9129 28.8998C13.6315 28.8998 13.3931 29.1168 13.3714 29.4022C13.3315 29.9231 13.3113 30.4527 13.3113 30.9763C13.3113 34.393 14.1679 37.7491 15.7941 40.7268H12.1252C11.2256 40.7268 10.4937 41.4588 10.4937 42.3584V49.3011C10.4937 50.2008 11.2256 50.9327 12.1252 50.9327H24.4659C25.1762 50.9327 25.7801 50.4757 26.0037 49.8411C28.4386 50.8322 31.0163 51.336 33.6708 51.336C44.8971 51.336 54.0305 42.2026 54.0305 30.9763C54.0305 26.473 52.5316 22.0916 49.7935 18.5426ZM24.466 41.8145C24.7659 41.8145 25.0099 42.0585 25.0099 42.3584V49.3011C25.0099 49.601 24.7659 49.845 24.466 49.845H12.1252C11.8253 49.845 11.5813 49.601 11.5813 49.3011V42.3584C11.5813 42.0585 11.8253 41.8145 12.1252 41.8145H24.466Z" fill="black"/>
<defs>
<linearGradient id="paint0_linear_295_6699" x1="31.9234" y1="104.274" x2="-54.5795" y2="35.6345" gradientUnits="userSpaceOnUse">
<stop stop-color="#FFC599"/>
<stop offset="1" stop-color="#FFC2A3" stop-opacity="0.01"/>
</linearGradient>
</defs>
</svg>
