<svg width="24" height="24" viewBox="0 0 24 24" fill="none" xmlns="http://www.w3.org/2000/svg">
<path fill-rule="evenodd" clip-rule="evenodd" d="M3.52508 9.06597H4.10799V7.61137C4.10799 7.32014 4.34311 7.08403 4.6331 7.08403H8.09624C8.09375 7.02655 8.0922 6.96879 8.0922 6.91071C8.0922 4.75433 9.83916 3 11.9864 3C14.1337 3 15.8806 4.75433 15.8806 6.91071C15.8806 6.96882 15.8791 7.02655 15.8766 7.08403H19.34C19.63 7.08403 19.8651 7.32014 19.8651 7.61137V9.06597H20.4749C20.7649 9.06597 21 9.30207 21 9.59331V20.4727C21 20.7639 20.7649 21 20.4749 21H16.2971L16.291 20.9997L16.2858 20.9994L16.2806 20.9997L16.2745 21H3.52512C3.23512 21 3 20.7639 3 20.4727V9.59331C2.99997 9.30207 3.23509 9.06597 3.52508 9.06597ZM5.15823 8.1387V9.06595H8.73873C8.55041 8.78073 8.39832 8.46945 8.28913 8.1387H5.15823ZM9.14245 6.91071C9.14245 5.33589 10.4183 4.05469 11.9864 4.05469C13.5546 4.05469 14.8304 5.33589 14.8304 6.91071C14.8304 8.48554 13.5546 9.76674 11.9864 9.76674C10.4183 9.76674 9.14245 8.48554 9.14245 6.91071ZM18.8149 8.1387H15.6838C15.5746 8.46949 15.4225 8.78076 15.2342 9.06595H18.8149V8.1387ZM19.3437 10.1206H19.9498V19.9453H16.7996V10.1206H19.3363L19.34 10.1208L19.3437 10.1206ZM15.7494 10.1206H14.2081C13.5776 10.5621 12.8116 10.8214 11.9864 10.8214C11.1613 10.8214 10.3953 10.5621 9.76482 10.1206H8.22352V19.9453H9.50245V15.3088C9.50245 15.0175 9.73757 14.7814 10.0276 14.7814H13.9453C14.2353 14.7814 14.4704 15.0175 14.4704 15.3088C14.4706 16.4828 14.4705 18.7724 14.4704 19.9453H15.7494V10.1206ZM13.4202 16.8978H10.5527V15.8361H13.4202V16.8978ZM13.4202 19.9453V17.9524H10.5527V19.9453H13.4202ZM7.17325 19.9453H4.05018V10.1206H4.62936L4.63308 10.1208L4.6368 10.1206H7.17325V19.9453Z" fill="#696969"/>
<path d="M18.4284 11.3572C18.7834 11.3572 19.0713 11.6017 19.0713 11.9033V12.7396C19.0713 13.0412 18.7834 13.2857 18.4284 13.2857C18.0734 13.2857 17.7856 13.0412 17.7856 12.7396V11.9033C17.7856 11.6017 18.0734 11.3572 18.4284 11.3572V11.3572Z" fill="#696969"/>
<path d="M18.4284 16.5C18.7834 16.5 19.0713 16.7445 19.0713 17.0462V17.8824C19.0713 18.184 18.7834 18.4286 18.4284 18.4286C18.0734 18.4286 17.7856 18.184 17.7856 17.8824V17.0462C17.7856 16.7445 18.0734 16.5 18.4284 16.5Z" fill="#696969"/>
<path d="M5.57101 11.3572C5.92603 11.3572 6.21387 11.6017 6.21387 11.9033V12.7396C6.21387 13.0412 5.92603 13.2857 5.57101 13.2857C5.21599 13.2857 4.92815 13.0412 4.92815 12.7396V11.9033C4.92815 11.6017 5.21599 11.3572 5.57101 11.3572V11.3572Z" fill="#696969"/>
<path d="M5.57101 16.5C5.92603 16.5 6.21387 16.7445 6.21387 17.0462V17.8824C6.21387 18.184 5.92603 18.4286 5.57101 18.4286C5.21599 18.4286 4.92815 18.184 4.92815 17.8824V17.0462C4.92815 16.7445 5.21599 16.5 5.57101 16.5Z" fill="#696969"/>
<path d="M12.8802 8.14284C12.656 8.14284 12.4742 7.98294 12.4742 7.78571V7.21427H11.5267V7.78571C11.5267 7.98294 11.3449 8.14284 11.1207 8.14284C10.8965 8.14284 10.7147 7.98294 10.7147 7.78571V5.92854C10.7147 5.73131 10.8965 5.57141 11.1207 5.57141C11.3449 5.57141 11.5267 5.73131 11.5267 5.92854V6.49998H12.4742V5.92854C12.4742 5.73131 12.656 5.57141 12.8802 5.57141C13.1044 5.57141 13.2861 5.73131 13.2861 5.92854V7.78571C13.2861 7.98294 13.1044 8.14284 12.8802 8.14284Z" fill="#FD6500"/>
<path d="M14.0404 13.2857H9.95932C9.66614 13.2857 9.42843 12.9979 9.42843 12.6429C9.42843 12.2878 9.66614 12 9.95932 12H14.0404C14.3336 12 14.5713 12.2878 14.5713 12.6429C14.5713 12.9979 14.3336 13.2857 14.0404 13.2857Z" fill="#696969"/>
</svg>
