<svg xmlns="http://www.w3.org/2000/svg" width="40" height="19" viewBox="0 0 40 19">
    <g fill="none" fill-rule="evenodd">
        <g>
            <g>
                <path d="M16.092 0.031L38.956 0.031 38.956 12.964 16.092 12.964z" transform="translate(-776 -711) translate(776 711.5)"/>
                <path fill="#04BAEE" d="M21.123 6.316c.652.284 1.573.166 2.055-.272.486-.43.344-1.023-.309-1.304-.655-.288-1.575-.17-2.063.267-.477.444-.342 1.025.317 1.31m4.093-3.212c.646-.085 1.084-.485.986-.892-.099-.415-.7-.67-1.34-.584-.65.084-1.086.48-.992.894.102.402.702.664 1.346.582m-5.264.593c-.528-.235-1.276-.134-1.662.213-.383.356-.273.824.249 1.049.536.229 1.273.129 1.65-.217.392-.347.279-.815-.237-1.045m15.337 7.083c-.522-.23-1.265-.133-1.655.22-.387.349-.27.818.254 1.045.526.228 1.263.128 1.651-.218.383-.35.27-.82-.25-1.047m2.095 1.145c-.395-.173-.962-.098-1.243.163-.296.26-.209.615.188.778.393.179.947.1 1.237-.158.29-.258.203-.608-.182-.783m-6.977-7.554c-.647-.286-1.572-.164-2.055.266-.485.444-.336 1.025.305 1.31.667.287 1.583.16 2.065-.271.482-.439.343-1.022-.315-1.305m-3.397-.057c-.12-.506-.875-.837-1.683-.728-.798.108-1.355.607-1.229 1.116.113.51.87.839 1.673.727.81-.1 1.363-.604 1.239-1.115M17.5 2.866c-.39-.167-.95-.097-1.228.167-.302.26-.212.612.177.78.394.17.948.098 1.235-.16.289-.257.205-.614-.183-.787M30.87 3.958c.527.23 1.264.136 1.642-.218.392-.344.28-.815-.243-1.049-.528-.222-1.266-.123-1.656.224-.384.347-.273.815.257 1.043m1.84-1.665c.387.172.95.09 1.238-.163.288-.267.201-.611-.19-.788-.394-.172-.948-.1-1.236.167-.291.264-.203.61.188.784m.654 4.779c-.12-.519-.873-.85-1.674-.737-.805.108-1.36.609-1.244 1.119.123.509.878.836 1.688.73.798-.107 1.352-.609 1.23-1.112m-.654 2.354c-.657-.289-1.576-.166-2.066.27-.478.438-.34 1.023.316 1.304.66.283 1.584.164 2.063-.27.486-.435.341-1.02-.313-1.304m-7.967-8.271c.495-.065.822-.366.746-.67-.07-.308-.521-.502-1-.444-.494.069-.825.37-.748.679.074.305.515.493 1.002.435m13.466 5.842c.478-.065.815-.364.735-.67-.079-.31-.52-.504-1.008-.441-.476.066-.808.363-.738.667.078.309.525.504 1.01.444m-4.077-.03c.09.404.692.668 1.34.586.645-.089 1.08-.489.988-.9-.102-.404-.697-.669-1.348-.58-.64.083-1.087.48-.98.894" transform="translate(-776 -711) translate(776 711.5)"/>
                <path d="M0 4.006L28.938 4.006 28.938 18 0 18z" transform="translate(-776 -711) translate(776 711.5)"/>
                <path fill="#004F9E" d="M21.575 12.754c-.178.7-.551 1.048-1.123 1.048-.805 0-1.2-.918-1.2-2.746 0-.878.031-1.432.082-1.677.147-.653.537-.98 1.153-.98.57 0 .938.335 1.088 1.013.05.256.077.799.077 1.644 0 .863-.027 1.426-.077 1.698zm-1.06-5.26c-.953 0-1.61.378-1.964 1.122-.215.514-.337 1.33-.337 2.44 0 1.115.122 1.937.337 2.466.331.786.93 1.178 1.817 1.178.976 0 1.636-.382 1.983-1.15.229-.513.343-1.344.343-2.494 0-1.15-.1-1.958-.293-2.44-.325-.744-.957-1.122-1.887-1.122zm7.305 5.26c-.163.7-.544 1.048-1.112 1.048-.81 0-1.207-.918-1.207-2.746 0-.878.034-1.432.085-1.677.147-.653.538-.98 1.15-.98.57 0 .938.335 1.084 1.013.065.256.093.799.093 1.644 0 .863-.028 1.426-.093 1.698zm-1.062-5.26c-.947 0-1.596.378-1.95 1.122-.222.514-.337 1.33-.337 2.44 0 1.115.115 1.937.337 2.466.326.786.925 1.178 1.814 1.178.97 0 1.634-.382 1.972-1.15.238-.513.344-1.344.344-2.494 0-1.15-.09-1.958-.279-2.44-.328-.744-.962-1.122-1.901-1.122zm-11.019.27c-.263.025-.448.137-.546.357v5.157c-.607.296-1.064.436-1.367.436-.564 0-.845-.521-.845-1.576V8.121c-.112-.235-.29-.357-.532-.357-.281.025-.452.137-.551.357v4.017c0 1.637.572 2.45 1.719 2.45.46 0 .982-.146 1.576-.437v1.83c0 .48-.083.814-.269 1.023-.182.21-.273.371-.273.482.016.253.141.423.377.514.378 0 .689-.21.941-.625.215-.344.314-.73.314-1.148V8.121c-.114-.235-.294-.357-.544-.357zM3.501 7.418c0 1.144-.42 1.72-1.266 1.72h-1.15V4.876H2.38c.743 0 1.121.567 1.121 1.697v.844zM2.345 4.006H0V14.24c.1.237.28.355.546.355.26 0 .442-.118.54-.355v-4.226h1.149c.705 0 1.273-.254 1.704-.751.435-.496.641-1.119.641-1.844v-.844c0-1.714-.73-2.568-2.235-2.568zm6.446 8.719c-.343.606-.853.91-1.551.91-.571 0-.857-.25-.857-.746v-.22c0-1.085.332-1.622.986-1.622.336 0 .818.15 1.422.465v1.213zM6.715 7.466c-.419 0-.63.14-.63.406 0 .172.077.308.23.417.077.05.218.082.432.082.74-.015 2.044.543 2.044 1.691v.548c-.586-.296-1.13-.435-1.631-.435-1.24 0-1.862.83-1.862 2.495v.055c0 .6.162 1.062.479 1.386.313.322.7.477 1.163.477.702 0 1.324-.316 1.85-.953v.604c.11.237.288.35.553.35.248 0 .429-.113.542-.35v-4.177c0-1.73-1.676-2.596-3.17-2.596z" transform="translate(-776 -711) translate(776 711.5)"/>
                <path stroke="#004F9E" stroke-width=".3" d="M39 1.999C39 2.55 38.55 3 37.998 3 37.444 3 37 2.551 37 1.999c0-.552.444-.999.998-.999.553 0 1.002.447 1.002.999z" transform="translate(-776 -711) translate(776 711.5)"/>
                <g>
                    <path fill="#004F9E" d="M38.297 1.447l.118-.001c.148-.001.236-.057.236-.144-.002-.092-.084-.136-.22-.136-.073 0-.114.004-.135.008l.001.273zM38 1.022c.096-.011.238-.021.397-.022.195-.002.332.02.426.075.078.046.122.114.122.205.002.127-.118.214-.231.246v.004c.092.028.144.093.178.185.041.11.082.24.108.277l-.305.003c-.021-.028-.053-.109-.092-.23-.037-.123-.093-.157-.215-.157h-.09l.002.39-.294.002L38 1.022z" transform="translate(-776 -711) translate(776 711.5)"/>
                </g>
            </g>
        </g>
    </g>
</svg>
