<svg width="32" height="32" viewBox="0 0 32 32" fill="none" xmlns="http://www.w3.org/2000/svg">
<mask id="mask0_83:5318" style="mask-type:alpha" maskUnits="userSpaceOnUse" x="0" y="0" width="32" height="32">
<path fill-rule="evenodd" clip-rule="evenodd" d="M0 0H31.8345V31.5837H0V0Z" fill="white"/>
</mask>
<g mask="url(#mask0_83:5318)">
<path fill-rule="evenodd" clip-rule="evenodd" d="M31.8345 15.7919C31.8345 16.6173 31.1953 17.3831 31.0701 18.1737C30.9416 18.9851 31.3098 19.9085 31.0594 20.6733C30.805 21.4511 29.958 21.9835 29.5879 22.7021C29.2146 23.4283 29.2756 24.4205 28.7956 25.0749C28.3133 25.7323 27.3424 25.9795 26.7638 26.5532C26.1858 27.1269 25.9364 28.0902 25.2738 28.5687C24.6142 29.0449 23.6144 28.9842 22.8824 29.3551C22.1578 29.722 21.6215 30.5623 20.8375 30.8147C20.0669 31.0629 19.1359 30.6978 18.3178 30.8253C17.5214 30.9495 16.7493 31.5837 15.9173 31.5837C15.0853 31.5837 14.3135 30.9495 13.5166 30.8253C12.6988 30.6978 11.7678 31.0629 10.9972 30.8147C10.213 30.5623 9.67658 29.722 8.95201 29.3551C8.22032 28.9842 7.2202 29.0449 6.56064 28.5687C5.89804 28.0902 5.64889 27.1267 5.07061 26.5529C4.49232 25.9795 3.5214 25.7323 3.03912 25.0746C2.55912 24.4203 2.62007 23.4283 2.24648 22.7021C1.8767 21.9835 1.02972 21.4511 0.775243 20.6733C0.52483 19.9085 0.89283 18.9851 0.764576 18.1737C0.639116 17.3831 -0.00012207 16.6173 -0.00012207 15.7919C-0.00012207 14.9664 0.639116 14.2007 0.764576 13.41C0.89283 12.5987 0.52483 11.675 0.774989 10.9105C1.02972 10.1324 1.8767 9.60025 2.24648 8.88164C2.62007 8.15521 2.55912 7.16321 3.03912 6.50885C3.5214 5.85121 4.49232 5.60403 5.07061 5.03055C5.64889 4.45682 5.89804 3.49329 6.56064 3.01506C7.22045 2.53858 8.22032 2.59931 8.95226 2.22866C9.67658 1.8618 10.213 1.02148 10.9972 0.768756C11.7678 0.520567 12.6988 0.885921 13.5166 0.758173C14.3135 0.633953 15.0853 0 15.9173 0C16.7493 0 17.5211 0.633953 18.3178 0.758173C19.1359 0.885921 20.0667 0.520567 20.8372 0.768756C21.6215 1.02148 22.1581 1.8618 22.8824 2.22866C23.6146 2.59956 24.6142 2.53883 25.274 3.01506C25.9366 3.49354 26.1858 4.45682 26.7641 5.0308C27.3424 5.60428 28.3133 5.85146 28.7956 6.5091C29.2758 7.16347 29.2146 8.15546 29.5882 8.88164C29.958 9.60025 30.8047 10.1324 31.0594 10.9105C31.3098 11.675 30.9416 12.5987 31.0701 13.41C31.1953 14.2007 31.8345 14.9664 31.8345 15.7919Z" fill="#FF6400"/>
</g>
<mask id="mask1_83:5318" style="mask-type:alpha" maskUnits="userSpaceOnUse" x="0" y="0" width="32" height="32">
<path fill-rule="evenodd" clip-rule="evenodd" d="M0 31.8358H31.6832V0.149536H0V31.8358Z" fill="white"/>
</mask>
<g mask="url(#mask1_83:5318)">
<path d="M28.6357 12.8602C28.835 13.5749 28.9719 14.3147 29.0404 15.0736L28.4971 15.1225C28.5291 15.4772 28.5454 15.8364 28.5454 16.1994H29.0909C29.0909 16.5788 29.0738 16.9544 29.0404 17.3253L28.4971 17.2763C28.4317 18.0019 28.3008 18.709 28.1103 19.3922L28.6357 19.5387C28.4322 20.268 28.1638 20.9713 27.8368 21.6423L27.3465 21.4034C27.0308 22.0511 26.6579 22.6677 26.234 23.247L26.6742 23.5692C26.2309 24.175 25.7344 24.7414 25.1913 25.2621L24.8138 24.8683C24.2961 25.3646 23.7342 25.8176 23.1341 26.2212L23.4385 26.6738C22.8192 27.0903 22.161 27.4563 21.4705 27.7655L21.2476 27.2677C20.5966 27.5592 19.9155 27.7982 19.21 27.979L19.3454 28.5073C18.6279 28.6912 17.8863 28.8173 17.1262 28.8803L17.0811 28.3367C16.7249 28.3662 16.3643 28.3813 16 28.3813V28.9267C15.6206 28.9267 15.245 28.911 14.8738 28.8803L14.9188 28.3367C14.1893 28.2763 13.478 28.1553 12.7899 27.979L12.6546 28.5073C11.9188 28.3188 11.2085 28.0696 10.5294 27.7655L10.7524 27.2677C10.0903 26.9713 9.45948 26.6204 8.86582 26.2212L8.56142 26.6738C7.93541 26.2528 7.34898 25.7801 6.80865 25.2621L7.18613 24.8683C6.66583 24.3695 6.19034 23.827 5.76595 23.247L5.32577 23.5692C4.88294 22.964 4.4932 22.3196 4.16314 21.6423L4.65347 21.4034C4.34071 20.7616 4.0841 20.0892 3.88968 19.3922L3.36428 19.5387C3.16491 18.8239 3.02799 18.0842 2.95958 17.3253L3.50283 17.2763C3.47085 16.9216 3.45451 16.5625 3.45451 16.1994H2.90906C2.90906 15.82 2.92613 15.4445 2.95958 15.0736L3.50283 15.1225C3.56824 14.397 3.69913 13.6899 3.88968 13.0067L3.36428 12.8602C3.56769 12.1309 3.83612 11.4276 4.16314 10.7566L4.65347 10.9955C4.96914 10.3478 5.34204 9.73115 5.76596 9.15183L5.32577 8.82972C5.76907 8.22391 6.26558 7.65746 6.80865 7.1368L7.18613 7.53054C7.70381 7.03423 8.26578 6.58124 8.86582 6.17769L8.56142 5.72508C9.18078 5.30853 9.83889 4.94257 10.5294 4.63335L10.7524 5.13117C11.4033 4.83966 12.0844 4.6007 12.7899 4.41992L12.6546 3.89154C13.372 3.70769 14.1136 3.58158 14.8738 3.51861L14.9188 4.0622C15.275 4.03269 15.6356 4.01762 16 4.01762V3.47217C16.3794 3.47217 16.755 3.48786 17.1262 3.51861L17.0811 4.0622C17.8106 4.12263 18.522 4.24363 19.21 4.41992L19.3454 3.89154C20.0811 4.08006 20.7915 4.32927 21.4705 4.63335L21.2476 5.13117C21.9096 5.42762 22.5405 5.77844 23.1341 6.1777L23.4385 5.72508C24.0645 6.14609 24.651 6.61878 25.1913 7.13681L24.8138 7.53054C25.3341 8.02937 25.8096 8.57188 26.234 9.15183L26.6742 8.82972C27.117 9.43487 27.5067 10.0793 27.8368 10.7566L27.3465 10.9955C27.6592 11.6373 27.9158 12.3097 28.1103 13.0067L28.6357 12.8602Z" stroke="white" stroke-width="1.09091" stroke-dasharray="2.18"/>
<path fill-rule="evenodd" clip-rule="evenodd" d="M21.0909 13.6435H18.7898C18.9549 13.5306 19.0967 13.4185 19.1956 13.318C19.7818 12.7274 19.7818 11.7661 19.1956 11.1755C18.6261 10.6017 17.6327 10.601 17.0625 11.1755C16.7476 11.4923 15.9105 12.782 16.0261 13.6435H15.9738C16.0887 12.782 15.2523 11.4923 14.9374 11.1755C14.3672 10.601 13.3738 10.6017 12.8043 11.1755C12.2181 11.7661 12.2181 12.7274 12.8036 13.318C12.9032 13.4185 13.045 13.5306 13.2101 13.6435H10.909C10.5083 13.6435 10.1818 13.9705 10.1818 14.3717V16.1923C10.1818 16.3933 10.3447 16.5564 10.5454 16.5564H10.909V20.9257C10.909 21.327 11.2356 21.654 11.6363 21.654H20.3636C20.7643 21.654 21.0909 21.327 21.0909 20.9257V16.5564H21.4545C21.6552 16.5564 21.8181 16.3933 21.8181 16.1923V14.3717C21.8181 13.9705 21.4916 13.6435 21.0909 13.6435ZM13.3199 11.6889C13.4676 11.5404 13.6632 11.4588 13.8712 11.4588C14.0785 11.4588 14.2741 11.5404 14.4218 11.6889C14.9119 12.1827 15.3992 13.4439 15.2298 13.6195C15.2298 13.6195 15.1992 13.6435 15.0952 13.6435C14.5927 13.6435 13.6334 13.1206 13.3199 12.8046C13.0152 12.4973 13.0152 11.9962 13.3199 11.6889ZM11.6363 20.9257H15.6363V16.5564H11.6363V20.9257ZM15.6363 15.8282H10.909V14.3717H15.0952H15.6363V15.8282ZM18.6799 11.6889C18.3854 11.3933 17.8734 11.3925 17.5781 11.6889C17.0879 12.1827 16.6007 13.4439 16.7694 13.6195C16.7701 13.6202 16.8007 13.6435 16.9047 13.6435C17.4072 13.6435 18.3665 13.1206 18.6799 12.8046C18.9847 12.4973 18.9847 11.9962 18.6799 11.6889ZM20.3636 20.9257H16.3636V16.5564H20.3636V20.9257ZM16.3636 15.8282H21.0909V14.3717H16.9047H16.3636V15.8282Z" fill="white"/>
</g>
</svg>
