<svg width="51" height="48" viewBox="0 0 51 48" fill="none" xmlns="http://www.w3.org/2000/svg">
<path fill-rule="evenodd" clip-rule="evenodd" d="M22.3433 14.6321C22.0171 14.3154 21.4999 14.3154 21.1737 14.6321C20.8392 14.9567 20.83 15.4924 21.153 15.8285L25.3623 20.0591L25.3638 20.0606C25.693 20.3906 26.226 20.3899 26.5544 20.0591L30.7637 15.8285C31.0788 15.5006 31.0788 14.9808 30.7637 14.6529C30.4407 14.3168 29.9077 14.3074 29.5733 14.6321L26.801 17.4184V0.846144C26.801 0.378824 26.4241 0 25.9592 0C25.4942 0 25.1173 0.378824 25.1173 0.846144V17.4184L22.3433 14.6321ZM16.1923 16.5231C16.1923 16.0643 15.8135 15.6923 15.3462 15.6923C14.8788 15.6923 14.5 16.0643 14.5 16.5231V21.5077C14.5 22.8842 15.6365 24 17.0385 24H33.9615C35.3635 24 36.5 22.8842 36.5 21.5077V16.5231C36.5 16.0643 36.1212 15.6923 35.6538 15.6923C35.1865 15.6923 34.8077 16.0643 34.8077 16.5231V21.5077C34.8077 21.9665 34.4288 22.3385 33.9615 22.3385H17.0385C16.5712 22.3385 16.1923 21.9665 16.1923 21.5077V16.5231Z" fill="black"/>
<path d="M18.0117 41.7207C18.0117 42.4746 17.7383 43.0625 17.1914 43.4844C16.6445 43.9062 15.9023 44.1172 14.9648 44.1172C13.9492 44.1172 13.168 43.9863 12.6211 43.7246V42.7637C12.9727 42.9121 13.3555 43.0293 13.7695 43.1152C14.1836 43.2012 14.5938 43.2441 15 43.2441C15.6641 43.2441 16.1641 43.1191 16.5 42.8691C16.8359 42.6152 17.0039 42.2637 17.0039 41.8145C17.0039 41.5176 16.9434 41.2754 16.8223 41.0879C16.7051 40.8965 16.5059 40.7207 16.2246 40.5605C15.9473 40.4004 15.5234 40.2188 14.9531 40.0156C14.1562 39.7305 13.5859 39.3926 13.2422 39.002C12.9023 38.6113 12.7324 38.1016 12.7324 37.4727C12.7324 36.8125 12.9805 36.2871 13.4766 35.8965C13.9727 35.5059 14.6289 35.3105 15.4453 35.3105C16.2969 35.3105 17.0801 35.4668 17.7949 35.7793L17.4844 36.6465C16.7773 36.3496 16.0898 36.2012 15.4219 36.2012C14.8945 36.2012 14.4824 36.3145 14.1855 36.541C13.8887 36.7676 13.7402 37.082 13.7402 37.4844C13.7402 37.7812 13.7949 38.0254 13.9043 38.2168C14.0137 38.4043 14.1973 38.5781 14.4551 38.7383C14.7168 38.8945 15.1152 39.0684 15.6504 39.2598C16.5488 39.5801 17.166 39.9238 17.502 40.291C17.8418 40.6582 18.0117 41.1348 18.0117 41.7207ZM23.5664 44L23.373 43.0859H23.3262C23.0059 43.4883 22.6855 43.7617 22.3652 43.9062C22.0488 44.0469 21.6523 44.1172 21.1758 44.1172C20.5391 44.1172 20.0391 43.9531 19.6758 43.625C19.3164 43.2969 19.1367 42.8301 19.1367 42.2246C19.1367 40.9277 20.1738 40.248 22.248 40.1855L23.3379 40.1504V39.752C23.3379 39.248 23.2285 38.877 23.0098 38.6387C22.7949 38.3965 22.4492 38.2754 21.9727 38.2754C21.4375 38.2754 20.832 38.4395 20.1562 38.7676L19.8574 38.0234C20.1738 37.8516 20.5195 37.7168 20.8945 37.6191C21.2734 37.5215 21.6523 37.4727 22.0312 37.4727C22.7969 37.4727 23.3633 37.6426 23.7305 37.9824C24.1016 38.3223 24.2871 38.8672 24.2871 39.6172V44H23.5664ZM21.3691 43.3145C21.9746 43.3145 22.4492 43.1484 22.793 42.8164C23.1406 42.4844 23.3145 42.0195 23.3145 41.4219V40.8418L22.3418 40.8828C21.5684 40.9102 21.0098 41.0312 20.666 41.2461C20.3262 41.457 20.1562 41.7871 20.1562 42.2363C20.1562 42.5879 20.2617 42.8555 20.4727 43.0391C20.6875 43.2227 20.9863 43.3145 21.3691 43.3145ZM27.7031 44L25.2656 37.5781H26.3086L27.6914 41.3867C28.0039 42.2773 28.1875 42.8555 28.2422 43.1211H28.2891C28.332 42.9141 28.4668 42.4863 28.6934 41.8379C28.9238 41.1855 29.4375 39.7656 30.2344 37.5781H31.2773L28.8398 44H27.7031ZM35.0215 44.1172C34.0723 44.1172 33.3223 43.8281 32.7715 43.25C32.2246 42.6719 31.9512 41.8691 31.9512 40.8418C31.9512 39.8066 32.2051 38.9844 32.7129 38.375C33.2246 37.7656 33.9102 37.4609 34.7695 37.4609C35.5742 37.4609 36.2109 37.7266 36.6797 38.2578C37.1484 38.7852 37.3828 39.4824 37.3828 40.3496V40.9648H32.959C32.9785 41.7188 33.168 42.291 33.5273 42.6816C33.8906 43.0723 34.4004 43.2676 35.0566 43.2676C35.748 43.2676 36.4316 43.123 37.1074 42.834V43.7012C36.7637 43.8496 36.4375 43.9551 36.1289 44.0176C35.8242 44.084 35.4551 44.1172 35.0215 44.1172ZM34.7578 38.2754C34.2422 38.2754 33.8301 38.4434 33.5215 38.7793C33.2168 39.1152 33.0371 39.5801 32.9824 40.1738H36.3398C36.3398 39.5605 36.2031 39.0918 35.9297 38.7676C35.6562 38.4395 35.2656 38.2754 34.7578 38.2754Z" fill="#434343"/>
</svg>
