<svg width="24" height="24" viewBox="0 0 24 24" fill="none" xmlns="http://www.w3.org/2000/svg">
<path d="M0 4C0 1.79086 1.79086 0 4 0H20C22.2091 0 24 1.79086 24 4V20C24 22.2091 22.2091 24 20 24H4C1.79086 24 0 22.2091 0 20V4Z" fill="white"/>
<path d="M14.0713 5.23079C13.9241 5.07462 13.7342 4.99653 13.5063 4.99653C13.1693 4.99653 12.9271 5.16247 12.7705 5.49434C12.4429 5.09902 11.9918 4.89893 11.4221 4.89893C10.7385 4.89893 10.164 5.17223 9.694 5.71396C9.22873 6.25568 8.99609 6.91942 8.99609 7.70029C8.99609 8.48116 9.22873 9.1449 9.694 9.68663C10.1593 10.2284 10.7385 10.5017 11.4221 10.5017C11.9918 10.5017 12.4429 10.3016 12.7705 9.90625C12.9224 10.2381 13.1693 10.404 13.5063 10.404C13.7342 10.404 13.9241 10.326 14.0713 10.1698C14.2185 10.0136 14.2944 9.82328 14.2944 9.59878V5.80669C14.2897 5.57731 14.2185 5.38697 14.0713 5.23079ZM12.4334 8.63733C12.2435 8.89112 11.9776 9.01801 11.6453 9.01801C11.3082 9.01801 11.0471 8.89112 10.8572 8.63733C10.6673 8.38355 10.5723 8.0712 10.5723 7.69541C10.5723 7.31962 10.6673 7.00727 10.8572 6.75349C11.0471 6.49971 11.3129 6.37282 11.6453 6.37282C11.9824 6.37282 12.2435 6.49971 12.4334 6.75349C12.6233 7.00727 12.7182 7.31962 12.7182 7.69541C12.723 8.0712 12.628 8.38355 12.4334 8.63733Z" fill="#118ACB"/>
<path d="M16.0699 10.165C15.9227 10.3211 15.7328 10.3992 15.5049 10.3992C15.277 10.3992 15.0871 10.3211 14.9399 10.165C14.7928 10.0088 14.7168 9.81845 14.7168 9.59395V2.80527C14.7168 2.58077 14.7928 2.39043 14.9399 2.23426C15.0871 2.07809 15.277 2 15.5049 2C15.7328 2 15.9227 2.07809 16.0699 2.23426C16.2171 2.39043 16.293 2.58077 16.293 2.80527V9.59395C16.293 9.81845 16.2171 10.0088 16.0699 10.165Z" fill="#118ACB"/>
<path d="M21.2741 5.71396C20.7709 5.17223 20.1299 4.89893 19.3513 4.89893C18.5727 4.89893 17.9365 5.16735 17.4428 5.7042C16.949 6.24104 16.7021 6.90478 16.7021 7.70029C16.7021 8.4958 16.949 9.15954 17.4428 9.69639C17.9365 10.2332 18.5727 10.5017 19.3513 10.5017C20.1299 10.5017 20.7709 10.2284 21.2741 9.68663C21.7584 9.15466 22.0005 8.4958 22.0005 7.70029C21.9958 6.90478 21.7536 6.24104 21.2741 5.71396ZM20.1394 8.63733C19.9495 8.89112 19.6837 9.01801 19.3513 9.01801C19.0142 9.01801 18.7531 8.89112 18.5632 8.63733C18.3733 8.38355 18.2784 8.0712 18.2784 7.69541C18.2784 7.31962 18.3733 7.00727 18.5632 6.75349C18.7531 6.49971 19.019 6.37282 19.3513 6.37282C19.6884 6.37282 19.9495 6.49971 20.1394 6.75349C20.3293 7.00727 20.4243 7.31962 20.4243 7.69541C20.4243 8.0712 20.3293 8.38355 20.1394 8.63733Z" fill="#118ACB"/>
<path d="M8.12757 5.08441C8.68304 4.34747 8.95841 3.85455 8.95841 3.59588C8.95841 3.00535 8.59759 2.71252 7.87595 2.71252H4.0636C3.7645 2.71252 3.53187 2.78573 3.37045 2.93214C3.20428 3.07856 3.12357 3.26889 3.12357 3.49827C3.12357 3.73253 3.20428 3.91799 3.37045 4.0644C3.53662 4.21082 3.7645 4.28402 4.0636 4.28402H6.67955L3.33247 8.73498C3.11408 9.0278 3.00488 9.28646 3.00488 9.51096C3.00488 10.1601 3.42267 10.4822 4.25351 10.4822H8.18454C8.81123 10.4822 9.12457 10.2089 9.12457 9.66714C9.12457 9.12541 8.81123 8.85211 8.18454 8.85211H5.29324L8.12757 5.08441Z" fill="#118ACB"/>
<path d="M6.25243 14.6744H5.27441V16.7633H6.25243C6.54678 16.7633 6.78416 16.6657 6.96932 16.4656C7.14973 16.2703 7.24468 16.0166 7.24468 15.714C7.24468 15.4114 7.15447 15.1625 6.96932 14.9624C6.78416 14.772 6.54678 14.6744 6.25243 14.6744Z" fill="#33B44A"/>
<path d="M11.1376 16.6412C10.829 16.6412 10.5822 16.7584 10.4065 16.9926C10.2308 17.2269 10.1406 17.5197 10.1406 17.8613C10.1406 18.2079 10.2308 18.4958 10.4065 18.7301C10.5822 18.9643 10.829 19.0815 11.1376 19.0815C11.4462 19.0815 11.6931 18.9643 11.8688 18.7301C12.0444 18.4958 12.1346 18.203 12.1346 17.8613C12.1346 17.5148 12.0444 17.2269 11.8688 16.9926C11.6884 16.7584 11.4462 16.6412 11.1376 16.6412Z" fill="#33B44A"/>
<path d="M18.05 11.6876H3.85932C3.38456 11.6876 3 12.0829 3 12.571V21.1166C3 21.6047 3.38456 22 3.85932 22H15.059C14.9403 21.8828 14.8833 21.7511 14.8833 21.5949C14.8833 21.468 14.9118 21.3362 14.964 21.1996L15.491 19.9941L14.0335 16.2362C13.9908 16.1288 13.967 16.0117 13.967 15.8848C13.967 15.7189 14.0335 15.5822 14.1712 15.47C14.3041 15.3577 14.4465 15.2991 14.5937 15.2991C14.9165 15.2991 15.1397 15.4602 15.2536 15.7823L16.1652 18.3396L17.1384 15.7823C17.2619 15.4602 17.4803 15.2991 17.7984 15.2991C17.9455 15.2991 18.088 15.3577 18.2209 15.47C18.3538 15.5822 18.425 15.7237 18.425 15.8848C18.425 16.0117 18.4013 16.1288 18.3586 16.2362L16.1984 21.6388C16.1414 21.7901 16.0655 21.9072 15.9848 21.9951H18.05C18.5247 21.9951 18.9093 21.5998 18.9093 21.1117V12.5661C18.9093 12.0781 18.5247 11.6876 18.05 11.6876ZM8.02774 17.4368C7.58146 17.8565 7.01649 18.0663 6.33758 18.0663H5.27411V19.6818C5.27411 19.9258 5.20765 20.1161 5.07471 20.2479C4.94178 20.3845 4.76612 20.448 4.55722 20.448C4.34833 20.448 4.17266 20.3797 4.03973 20.2479C3.9068 20.1112 3.84033 19.9258 3.84033 19.6818V14.1425C3.84033 13.63 4.09195 13.3714 4.59045 13.3714H6.2901C7.00225 13.3714 7.58621 13.591 8.05147 14.0253C8.51674 14.4646 8.74937 15.0307 8.74937 15.7286C8.73988 16.4314 8.5025 17.0024 8.02774 17.4368ZM13.5872 19.6183C13.5872 19.8282 13.5207 20.0039 13.3831 20.1454C13.2454 20.2918 13.0745 20.3601 12.8608 20.3601C12.5522 20.3601 12.3243 20.2089 12.1819 19.9014C11.8781 20.2674 11.4603 20.4529 10.9333 20.4529C10.3018 20.4529 9.76537 20.204 9.33333 19.7013C8.9013 19.1986 8.68766 18.5837 8.68766 17.8614C8.68766 17.1391 8.9013 16.5241 9.33333 16.0214C9.76537 15.5188 10.2971 15.2699 10.9333 15.2699C11.4603 15.2699 11.8781 15.4553 12.1819 15.8213C12.3243 15.5139 12.5522 15.3626 12.8608 15.3626C13.0697 15.3626 13.2454 15.4358 13.3831 15.5773C13.5207 15.7237 13.5872 15.8994 13.5872 16.1044V19.6183Z" fill="#39B54A"/>
</svg>
