<svg width="32" height="36" viewBox="0 0 32 36" fill="none" xmlns="http://www.w3.org/2000/svg">
<path d="M19.4639 9C19.5058 9 19.5477 9 19.592 9C19.6947 10.2694 19.2102 11.2179 18.6213 11.9048C18.0435 12.5869 17.2523 13.2485 15.9727 13.1481C15.8873 11.8969 16.3726 11.0187 16.9607 10.3334C17.5061 9.69477 18.5059 9.12647 19.4639 9Z" fill="black"/>
<path d="M23.3378 22.2128C23.3378 22.2254 23.3378 22.2365 23.3378 22.2483C22.9782 23.3375 22.4652 24.271 21.8392 25.1373C21.2677 25.9237 20.5674 26.9821 19.317 26.9821C18.2365 26.9821 17.5188 26.2873 16.4115 26.2684C15.2401 26.2494 14.5959 26.8493 13.5249 27.0003C13.4024 27.0003 13.2799 27.0003 13.1597 27.0003C12.3733 26.8865 11.7386 26.2636 11.2762 25.7024C9.91272 24.0442 8.85911 21.9021 8.66309 19.161C8.66309 18.8923 8.66309 18.6243 8.66309 18.3556C8.74608 16.3938 9.69931 14.7987 10.9663 14.0257C11.635 13.6147 12.5543 13.2645 13.5779 13.421C14.0165 13.489 14.4647 13.6392 14.8575 13.7878C15.2298 13.9309 15.6954 14.1846 16.1364 14.1711C16.4352 14.1625 16.7324 14.0067 17.0335 13.8969C17.9156 13.5783 18.7803 13.2132 19.9201 13.3847C21.2899 13.5918 22.2621 14.2004 22.8628 15.1394C21.7041 15.8769 20.788 16.9882 20.9445 18.8859C21.0836 20.6098 22.0858 21.6184 23.3378 22.2128Z" fill="black"/>
</svg>
