<svg width="32" height="36" viewBox="0 0 32 36" fill="none" xmlns="http://www.w3.org/2000/svg">
<path d="M23.3957 16.6087L16.8694 16.6084C16.5812 16.6084 16.3477 16.842 16.3477 17.1301V19.215C16.3477 19.5031 16.5812 19.7367 16.8694 19.7367H20.5446C20.1422 20.7811 19.391 21.6558 18.4327 22.2116L19.9998 24.9243C22.5136 23.4705 23.9998 20.9196 23.9998 18.064C23.9998 17.6574 23.9698 17.3668 23.9099 17.0395C23.8643 16.7908 23.6485 16.6087 23.3957 16.6087Z" fill="#167EE6"/>
<path d="M15.9998 22.8695C14.2013 22.8695 12.6312 21.8868 11.7879 20.4326L9.0752 21.9962C10.4557 24.3887 13.0417 25.9999 15.9998 25.9999C17.451 25.9999 18.8203 25.6092 19.9998 24.9283V24.9246L18.4327 22.2117C17.7159 22.6275 16.8864 22.8695 15.9998 22.8695Z" fill="#12B347"/>
<path d="M20 24.9284V24.9247L18.4329 22.2119C17.7161 22.6276 16.8867 22.8696 16 22.8696V26.0001C17.4512 26.0001 18.8205 25.6094 20 24.9284Z" fill="#0F993E"/>
<path d="M11.1304 18.0002C11.1304 17.1137 11.3724 16.2842 11.788 15.5675L9.07534 14.0039C8.39069 15.1797 8 16.5453 8 18.0002C8 19.4551 8.39069 20.8206 9.07534 21.9965L11.788 20.4329C11.3724 19.7161 11.1304 18.8867 11.1304 18.0002Z" fill="#FFD500"/>
<path d="M15.9998 13.1304C17.1727 13.1304 18.25 13.5472 19.0915 14.2404C19.2991 14.4114 19.6008 14.3991 19.7909 14.2089L21.2681 12.7317C21.4839 12.516 21.4685 12.1628 21.238 11.9629C19.8282 10.7398 17.9938 10 15.9998 10C13.0417 10 10.4557 11.6112 9.0752 14.0037L11.7879 15.5673C12.6312 14.1131 14.2013 13.1304 15.9998 13.1304Z" fill="#FF4B26"/>
<path d="M19.0916 14.2404C19.2992 14.4114 19.601 14.3991 19.7911 14.2089L21.2683 12.7317C21.484 12.516 21.4686 12.1628 21.2382 11.9629C19.8284 10.7398 17.994 10 16 10V13.1304C17.1728 13.1304 18.2502 13.5472 19.0916 14.2404Z" fill="#D93F21"/>
</svg>
