<svg width="24" height="24" viewBox="0 0 24 24" fill="none" xmlns="http://www.w3.org/2000/svg">
<rect width="24" height="24" fill="white"/>
<path d="M16.2927 13.668L14.7305 16.1029L16.2927 13.668Z" stroke="#FF6400" stroke-width="1.2" stroke-linejoin="round"/>
<path fill-rule="evenodd" clip-rule="evenodd" d="M14.255 0.999947C14.255 0.737146 14.084 0.504929 13.833 0.426961C13.582 0.348993 13.3095 0.443421 13.1606 0.659959L4.50553 13.2453C4.37926 13.4289 4.36515 13.6674 4.46887 13.8646C4.5726 14.0618 4.77707 14.1853 4.9999 14.1853H9.72928L9.50856 22.836C9.50665 22.911 9.51855 22.983 9.54196 23.0498C9.55714 23.2304 9.65367 23.4021 9.81855 23.5067C10.0984 23.6841 10.4691 23.6012 10.6466 23.3213L13.8585 18.2575C14.036 17.9776 13.953 17.6069 13.6732 17.4294C13.3933 17.2519 13.0226 17.3349 12.8451 17.6147L10.7582 20.905L10.9446 13.6006C10.9487 13.4389 10.8874 13.2823 10.7744 13.1665C10.6615 13.0506 10.5066 12.9853 10.3448 12.9853H6.14072L13.055 2.93127V3.98226V9.45958C13.055 9.79095 13.3236 10.0596 13.655 10.0596H17.9288L17.0861 11.4566C16.915 11.7404 17.0062 12.1092 17.29 12.2803C17.5737 12.4515 17.9425 12.3602 18.1136 12.0765L19.4594 9.84549C19.5471 9.74117 19.5999 9.60654 19.5999 9.45958C19.5999 9.12821 19.3313 8.85958 18.9999 8.85958H14.255V3.98226V0.999947Z" fill="#696969"/>
</svg>
