<svg width="20" height="20" viewBox="0 0 20 20" fill="none" xmlns="http://www.w3.org/2000/svg">
<path fill-rule="evenodd" clip-rule="evenodd" d="M16.4684 1.36418L13.9813 0L11.4943 1.36418L9.00716 0L6.52009 1.36418L4.65517 0.341249V16.4149H15.7559V18.7732C15.7559 19.4496 16.334 20 17.0446 20C17.7552 20 18.3334 19.4497 18.3334 18.7732V0.341249L16.4684 1.36418ZM6.16996 10.7059V9.52143H11.4943V10.7059H6.16996ZM6.16996 8.11965H16.8186V6.9352H6.16996V8.11965ZM16.8186 5.53347H6.16996V4.34902H16.8186V5.53347ZM14.5116 17.5993V18.7732C14.5116 19.2209 14.6404 19.6404 14.8646 20H2.12215C1.41153 20 0.833374 19.4497 0.833374 18.7732V17.5993H14.5116Z" fill="#FF6400"/>
</svg>
