<svg width="16" height="16" viewBox="0 0 16 16" fill="none" xmlns="http://www.w3.org/2000/svg">
<path fill-rule="evenodd" clip-rule="evenodd" d="M3.74057 4.88264H4.54096C4.7839 4.88264 4.98088 4.68019 4.98088 4.43013V1.78602C4.98088 1.53593 4.7839 1.33334 4.54096 1.33334H3.74057C3.4976 1.33334 3.30064 1.53593 3.30064 1.78602V4.43013C3.30064 4.68019 3.4976 4.88264 3.74057 4.88264ZM12.8725 2.81795V4.43084C12.8725 5.15984 12.2979 5.74731 11.5897 5.74731H10.7806C10.0724 5.74731 9.49017 5.15984 9.49017 4.43084V2.81216H5.843V4.43084C5.843 5.15984 5.26084 5.74731 4.55274 5.74731H3.7434C3.03528 5.74731 2.46073 5.15984 2.46073 4.43084V2.81795C1.84182 2.83715 1.33325 3.36428 1.33325 4.0122V13.4645C1.33325 14.1245 1.85305 14.6667 2.49436 14.6667H12.8388C13.4792 14.6667 13.9999 14.1234 13.9999 13.4645V4.0122C13.9999 3.36428 13.4914 2.83715 12.8725 2.81795ZM12.4966 12.8759C12.4966 13.1612 12.2719 13.3926 11.9947 13.3926H3.3164C3.03915 13.3926 2.81444 13.1612 2.81444 12.8759V7.99346C2.81444 7.70809 3.03912 7.47666 3.3164 7.47666H11.9946C12.2719 7.47666 12.4966 7.70809 12.4966 7.99346L12.4966 12.8759ZM5.90928 8.68929C5.90928 8.52227 5.77766 8.38696 5.61526 8.38696H4.58922C4.42701 8.38696 4.29536 8.52227 4.29536 8.68929V9.74525C4.29536 9.91249 4.42701 10.0479 4.58922 10.0479H5.61526C5.77766 10.0479 5.90928 9.91249 5.90928 9.74525V8.68929ZM8.47348 8.68929C8.47348 8.52227 8.34183 8.38696 8.17975 8.38696H7.15358C6.99137 8.38696 6.85972 8.52227 6.85972 8.68929V9.74525C6.85972 9.91249 6.99137 10.0479 7.15358 10.0479H8.17975C8.34183 10.0479 8.47348 9.91249 8.47348 9.74525V8.68929ZM10.7439 8.38696C10.9062 8.38696 11.0378 8.52227 11.0378 8.68929V9.74525C11.0378 9.91249 10.9062 10.0479 10.7439 10.0479H9.71791C9.55551 10.0479 9.42388 9.91249 9.42388 9.74525V8.68929C9.42388 8.52227 9.55551 8.38696 9.71791 8.38696H10.7439ZM5.90928 11.3288C5.90928 11.1615 5.77766 11.0263 5.61526 11.0263H4.58922C4.42701 11.0263 4.29536 11.1615 4.29536 11.3288V12.3846C4.29536 12.5517 4.42701 12.6871 4.58922 12.6871H5.61526C5.77766 12.6871 5.90928 12.5517 5.90928 12.3846V11.3288ZM8.17975 11.0263C8.34183 11.0263 8.47348 11.1615 8.47348 11.3288V12.3846C8.47348 12.5517 8.34183 12.6871 8.17975 12.6871H7.15358C6.99137 12.6871 6.85972 12.5517 6.85972 12.3846V11.3288C6.85972 11.1615 6.99137 11.0263 7.15358 11.0263H8.17975ZM11.0378 11.3288C11.0378 11.1615 10.9062 11.0263 10.7441 11.0263H9.71791C9.55551 11.0263 9.42388 11.1615 9.42388 11.3288V12.3846C9.42388 12.5517 9.55551 12.6871 9.71791 12.6871H10.7441C10.9062 12.6871 11.0378 12.5517 11.0378 12.3846V11.3288ZM11.5707 4.88264H10.7703C10.5274 4.88264 10.3304 4.68019 10.3304 4.43013V1.78602C10.3304 1.53593 10.5274 1.33334 10.7703 1.33334H11.5707C11.8135 1.33334 12.0105 1.53593 12.0104 1.78602V4.43013C12.0104 4.68019 11.8134 4.88264 11.5707 4.88264Z" fill="#FF6400"/>
</svg>
