<svg width="16" height="17" viewBox="0 0 16 17" fill="none" xmlns="http://www.w3.org/2000/svg">
<g clip-path="url(#clip0_236:2721)">
<path fill-rule="evenodd" clip-rule="evenodd" d="M10.5448 4.5659H8.76279C8.66223 4.5659 8.56579 4.52624 8.49469 4.45563C8.42359 4.38503 8.38364 4.28928 8.38364 4.18943C8.38364 4.08958 8.42359 3.99383 8.49469 3.92322C8.56579 3.85262 8.66223 3.81296 8.76279 3.81296H10.5448C10.6453 3.81296 10.7418 3.85262 10.8129 3.92322C10.884 3.99383 10.9239 4.08958 10.9239 4.18943C10.9239 4.28928 10.884 4.38503 10.8129 4.45563C10.7418 4.52624 10.6453 4.5659 10.5448 4.5659ZM13.8055 4.5659H12.0235C11.923 4.5659 11.8265 4.52624 11.7554 4.45563C11.6843 4.38503 11.6444 4.28928 11.6444 4.18943C11.6444 4.08958 11.6843 3.99383 11.7554 3.92322C11.8265 3.85262 11.923 3.81296 12.0235 3.81296H13.8055C13.9061 3.81296 14.0025 3.85262 14.0736 3.92322C14.1447 3.99383 14.1847 4.08958 14.1847 4.18943C14.1847 4.28928 14.1447 4.38503 14.0736 4.45563C14.0025 4.52624 13.9061 4.5659 13.8055 4.5659ZM8.76279 6.58641H10.5448C10.6453 6.58641 10.7418 6.54674 10.8129 6.47614C10.884 6.40554 10.9239 6.30978 10.9239 6.20994C10.9239 6.11009 10.884 6.01433 10.8129 5.94373C10.7418 5.87313 10.6453 5.83347 10.5448 5.83347H8.76279C8.66223 5.83347 8.56579 5.87313 8.49469 5.94373C8.42359 6.01433 8.38364 6.11009 8.38364 6.20994C8.38364 6.30978 8.42359 6.40554 8.49469 6.47614C8.56579 6.54674 8.66223 6.58641 8.76279 6.58641ZM13.8055 6.58641H12.0235C11.923 6.58641 11.8265 6.54674 11.7554 6.47614C11.6843 6.40554 11.6444 6.30978 11.6444 6.20994C11.6444 6.11009 11.6843 6.01433 11.7554 5.94373C11.8265 5.87313 11.923 5.83347 12.0235 5.83347H13.8055C13.9061 5.83347 14.0025 5.87313 14.0736 5.94373C14.1447 6.01433 14.1847 6.11009 14.1847 6.20994C14.1847 6.30978 14.1447 6.40554 14.0736 6.47614C14.0025 6.54674 13.9061 6.58641 13.8055 6.58641ZM8.76279 8.60652H10.5448C10.6453 8.60652 10.7418 8.56686 10.8129 8.49626C10.884 8.42565 10.9239 8.3299 10.9239 8.23005C10.9239 8.13021 10.884 8.03445 10.8129 7.96385C10.7418 7.89325 10.6453 7.85358 10.5448 7.85358H8.76279C8.66223 7.85358 8.56579 7.89325 8.49469 7.96385C8.42359 8.03445 8.38364 8.13021 8.38364 8.23005C8.38364 8.3299 8.42359 8.42565 8.49469 8.49626C8.56579 8.56686 8.66223 8.60652 8.76279 8.60652ZM13.8055 8.60652H12.0235C11.923 8.60652 11.8265 8.56686 11.7554 8.49626C11.6843 8.42565 11.6444 8.3299 11.6444 8.23005C11.6444 8.13021 11.6843 8.03445 11.7554 7.96385C11.8265 7.89325 11.923 7.85358 12.0235 7.85358H13.8055C13.9061 7.85358 14.0025 7.89325 14.0736 7.96385C14.1447 8.03445 14.1847 8.13021 14.1847 8.23005C14.1847 8.3299 14.1447 8.42565 14.0736 8.49626C14.0025 8.56686 13.9061 8.60652 13.8055 8.60652ZM8.76279 10.627H10.5448C10.6453 10.627 10.7418 10.5874 10.8129 10.5168C10.884 10.4462 10.9239 10.3504 10.9239 10.2506C10.9239 10.1507 10.884 10.055 10.8129 9.98436C10.7418 9.91375 10.6453 9.87409 10.5448 9.87409H8.76279C8.66223 9.87409 8.56579 9.91375 8.49469 9.98436C8.42359 10.055 8.38364 10.1507 8.38364 10.2506C8.38364 10.3504 8.42359 10.4462 8.49469 10.5168C8.56579 10.5874 8.66223 10.627 8.76279 10.627ZM13.8055 10.627H12.0235C11.923 10.627 11.8265 10.5874 11.7554 10.5168C11.6843 10.4462 11.6444 10.3504 11.6444 10.2506C11.6444 10.1507 11.6843 10.055 11.7554 9.98436C11.8265 9.91375 11.923 9.87409 12.0235 9.87409H13.8055C13.9061 9.87409 14.0025 9.91375 14.0736 9.98436C14.1447 10.055 14.1847 10.1507 14.1847 10.2506C14.1847 10.3504 14.1447 10.4462 14.0736 10.5168C14.0025 10.5874 13.9061 10.627 13.8055 10.627ZM2.91943 10.7776H4.70142C4.80198 10.7776 4.89841 10.738 4.96952 10.6674C5.04062 10.5968 5.08057 10.501 5.08057 10.4011C5.08057 10.3013 5.04062 10.2055 4.96952 10.1349C4.89841 10.0643 4.80198 10.0247 4.70142 10.0247H2.91943C2.81887 10.0247 2.72244 10.0643 2.65133 10.1349C2.58023 10.2055 2.54028 10.3013 2.54028 10.4011C2.54028 10.501 2.58023 10.5968 2.65133 10.6674C2.72244 10.738 2.81887 10.7776 2.91943 10.7776ZM4.70142 12.5847H2.91943C2.81887 12.5847 2.72244 12.545 2.65133 12.4744C2.58023 12.4038 2.54028 12.308 2.54028 12.2082C2.54028 12.1083 2.58023 12.0126 2.65133 11.942C2.72244 11.8714 2.81887 11.8317 2.91943 11.8317H4.70142C4.80198 11.8317 4.89841 11.8714 4.96952 11.942C5.04062 12.0126 5.08057 12.1083 5.08057 12.2082C5.08057 12.308 5.04062 12.4038 4.96952 12.4744C4.89841 12.545 4.80198 12.5847 4.70142 12.5847ZM2.91943 14.3918H4.70142C4.80198 14.3918 4.89841 14.3521 4.96952 14.2815C5.04062 14.2109 5.08057 14.1152 5.08057 14.0153C5.08057 13.9155 5.04062 13.8197 4.96952 13.7491C4.89841 13.6785 4.80198 13.6388 4.70142 13.6388H2.91943C2.81887 13.6388 2.72244 13.6785 2.65133 13.7491C2.58023 13.8197 2.54028 13.9155 2.54028 14.0153C2.54028 14.1152 2.58023 14.2109 2.65133 14.2815C2.72244 14.3521 2.81887 14.3918 2.91943 14.3918Z" fill="#FF6400"/>
<path fill-rule="evenodd" clip-rule="evenodd" d="M9.67155 16.4999H7.17179L7.16588 16.4999H0.56872C0.417886 16.4999 0.27323 16.4404 0.166574 16.3345C0.0599186 16.2286 0 16.085 0 15.9352V8.48108C1.19412e-05 8.35697 0.0412051 8.23631 0.11721 8.13777C0.193214 8.03924 0.299796 7.96831 0.420474 7.93596L6.59707 6.27934V2.7587C6.59708 2.64722 6.63033 2.53823 6.69262 2.44548L6.84428 2.21959C6.88659 2.15652 6.94127 2.10254 7.00504 2.06089C7.06881 2.01924 7.14037 1.99076 7.21546 1.97715L15.3292 0.508911C15.4112 0.494072 15.4955 0.497303 15.576 0.518377C15.6566 0.539451 15.7316 0.577852 15.7956 0.630864C15.8595 0.683875 15.911 0.750201 15.9463 0.825149C15.9816 0.900097 15.9999 0.981836 15.9999 1.06458V15.9352C15.9999 16.0849 15.94 16.2286 15.8333 16.3345C15.7267 16.4404 15.582 16.4999 15.4312 16.4999H12.8991C12.8964 16.4999 12.8937 16.4999 12.891 16.4999H9.67966C9.67695 16.4999 9.67425 16.4999 9.67155 16.4999ZM9.11094 15.3705H7.7346V6.71167L7.73451 6.70202V3.03126L14.8625 1.74223V15.3705H13.4597V12.0199C13.4597 11.8702 13.3998 11.7265 13.2932 11.6206C13.1865 11.5147 13.0419 11.4552 12.891 11.4552H9.67966C9.52882 11.4552 9.38417 11.5147 9.27751 11.6206C9.17085 11.7265 9.11094 11.8702 9.11094 12.0199V15.3705ZM12.3223 15.3705H10.2484V12.5846H12.3223V15.3705ZM6.59707 15.3705V7.4492L1.13744 8.91365V15.3705H6.59707Z" fill="#696969"/>
</g>
<defs>
<clipPath id="clip0_236:2721">
<rect width="16" height="16" fill="white" transform="translate(0 0.5)"/>
</clipPath>
</defs>
</svg>
