<svg width="16" height="17" viewBox="0 0 16 17" fill="none" xmlns="http://www.w3.org/2000/svg">
<path d="M13.0725 14.5882H12.5954V12.4706C12.5685 11.6892 12.374 10.9245 12.0264 10.2338C11.6512 9.48784 11.0666 8.88229 10.3524 8.49999C11.0666 8.11769 11.6512 7.51213 12.0264 6.76616C12.374 6.07549 12.5685 5.31074 12.5954 4.5294V2.41175H13.0725C13.2124 2.41175 13.3465 2.35319 13.4454 2.24894C13.5443 2.14469 13.5999 2.0033 13.5999 1.85587C13.5999 1.70844 13.5443 1.56705 13.4454 1.4628C13.3465 1.35855 13.2124 1.29999 13.0725 1.29999H2.92726C2.78739 1.29999 2.65326 1.35855 2.55436 1.4628C2.45546 1.56705 2.3999 1.70844 2.3999 1.85587C2.3999 2.0033 2.45546 2.14469 2.55436 2.24894C2.65326 2.35319 2.78739 2.41175 2.92726 2.41175H3.45461V4.5294C3.48149 5.31074 3.67605 6.07549 4.02365 6.76616C4.39881 7.51213 4.98347 8.11769 5.69762 8.49999C4.98347 8.88229 4.39881 9.48784 4.02365 10.2338C3.67605 10.9245 3.48149 11.6892 3.45461 12.4706V14.5882H2.92726C2.78739 14.5882 2.65326 14.6468 2.55436 14.751C2.45546 14.8553 2.3999 14.9967 2.3999 15.1441C2.3999 15.2915 2.45546 15.4329 2.55436 15.5372C2.65326 15.6414 2.78739 15.7 2.92726 15.7H13.0725C13.2124 15.7 13.3465 15.6414 13.4454 15.5372C13.5443 15.4329 13.5999 15.2915 13.5999 15.1441C13.5999 14.9967 13.5443 14.8553 13.4454 14.751C13.3465 14.6468 13.2124 14.5882 13.0725 14.5882ZM4.92417 6.29552C4.64627 5.75068 4.48738 5.14727 4.4591 4.5294V2.41175H11.5909V4.5294C11.5629 5.14782 11.404 5.7518 11.1259 6.29711C10.5423 7.40675 9.4991 7.97058 8.02501 7.97058C6.55093 7.97058 5.50778 7.40675 4.92417 6.29552ZM4.4591 14.5882V12.4706C4.48712 11.8522 4.64603 11.2482 4.92417 10.7029C5.50778 9.59322 6.55093 9.0294 8.02501 9.0294C9.4991 9.0294 10.5423 9.59322 11.1259 10.7045C11.4038 11.2493 11.5627 11.8527 11.5909 12.4706V14.5882H4.4591Z" fill="#696969"/>
<path d="M8.0001 6.9C8.63662 6.9 9.24707 6.64714 9.69715 6.19706C10.1472 5.74697 10.4001 5.13652 10.4001 4.5H5.6001C5.6001 5.13652 5.85295 5.74697 6.30304 6.19706C6.75313 6.64714 7.36358 6.9 8.0001 6.9Z" fill="#FF7300"/>
<path d="M8.0001 10.1C7.36358 10.1 6.75313 10.3529 6.30304 10.8029C5.85295 11.253 5.6001 11.8635 5.6001 12.5H10.4001C10.4001 11.8635 10.1472 11.253 9.69715 10.8029C9.24707 10.3529 8.63662 10.1 8.0001 10.1Z" fill="#FF7300"/>
</svg>
