<svg width="10" height="12" viewBox="0 0 10 12" fill="none" xmlns="http://www.w3.org/2000/svg">
<path fill-rule="evenodd" clip-rule="evenodd" d="M5 11.5C7.76337 11.5 10 9.26375 10 6.5C10 3.73663 7.76375 1.5 5 1.5C2.23663 1.5 0 3.73625 0 6.5C0 9.26337 2.23625 11.5 5 11.5ZM5.625 4.61417C5.625 4.95337 5.34518 5.22835 5 5.22835C4.65482 5.22835 4.375 4.95337 4.375 4.61417C4.375 4.27498 4.65482 4 5 4C5.34518 4 5.625 4.27498 5.625 4.61417ZM4.99998 5.78544C4.74429 5.78544 4.53702 5.98912 4.53702 6.24039V9.17007C4.53702 9.42134 4.74429 9.62502 4.99998 9.62502C5.25568 9.62502 5.46295 9.42131 5.46295 9.17005V6.24039C5.46295 5.98912 5.25568 5.78544 4.99998 5.78544Z" fill="#FFA367"/>
</svg>
