<svg width="16" height="17" viewBox="0 0 16 17" fill="none" xmlns="http://www.w3.org/2000/svg">
<path fill-rule="evenodd" clip-rule="evenodd" d="M14.6726 6.83355C14.8726 6.83777 15.0421 6.9818 15.0786 7.17842C15.1592 7.61318 15.2 8.05781 15.2 8.49999C15.2 10.4232 14.4511 12.2312 13.0912 13.5911C11.7313 14.951 9.92324 15.7 8.00005 15.7C6.07686 15.7 4.26879 14.951 2.90886 13.5911C1.54899 12.2312 0.800049 10.4232 0.800049 8.49999C0.800049 6.5768 1.54899 4.76873 2.90886 3.40883C4.26879 2.04893 6.07686 1.29999 8.00005 1.29999C8.4426 1.29999 8.88725 1.34088 9.32173 1.42154C9.51832 1.45805 9.66232 1.62759 9.66651 1.8275C9.67067 2.02738 9.53396 2.2028 9.33905 2.24752C7.46877 2.67665 6.16256 4.31867 6.16256 6.24059C6.16256 8.49959 8.00041 10.3374 10.2594 10.3374C12.1814 10.3374 13.8234 9.03124 14.2526 7.16098C14.2973 6.96608 14.4717 6.82919 14.6726 6.83355ZM1.64369 8.50003C1.64369 12.0049 4.49509 14.8563 7.99994 14.8563C11.3251 14.8563 14.0621 12.2895 14.334 9.0334C14.0632 9.42827 13.7349 9.78495 13.3586 10.0884C12.4847 10.7931 11.384 11.1812 10.2593 11.1812C7.53504 11.1812 5.31867 8.96491 5.31867 6.24064C5.31867 5.11592 5.70677 4.01522 6.41153 3.14135C6.71497 2.76509 7.07168 2.43679 7.46658 2.16595C4.21049 2.43786 1.64369 5.1749 1.64369 8.50003Z" fill="#696969"/>
<path d="M15.0786 7.17842L15.3957 7.11963L15.3957 7.11959L15.0786 7.17842ZM14.6726 6.83355L14.6657 7.15598L14.6658 7.15598L14.6726 6.83355ZM13.0912 13.5911L13.3193 13.8192L13.3193 13.8192L13.0912 13.5911ZM2.90886 13.5911L2.68082 13.8192L2.68082 13.8192L2.90886 13.5911ZM2.90886 3.40883L2.68082 3.18078L2.68082 3.18079L2.90886 3.40883ZM9.32173 1.42154L9.38061 1.10446L9.3806 1.10446L9.32173 1.42154ZM9.66651 1.8275L9.98894 1.82079L9.98894 1.82074L9.66651 1.8275ZM9.33905 2.24752L9.26693 1.93319L9.26693 1.93319L9.33905 2.24752ZM14.2526 7.16098L14.5669 7.23312L14.5669 7.2331L14.2526 7.16098ZM14.334 9.0334L14.6554 9.06023L14.7567 7.84708L14.0681 8.85097L14.334 9.0334ZM13.3586 10.0884L13.561 10.3394L13.5611 10.3394L13.3586 10.0884ZM6.41153 3.14135L6.66256 3.3438L6.66256 3.3438L6.41153 3.14135ZM7.46658 2.16595L7.64899 2.43191L8.6531 1.74324L7.43974 1.84457L7.46658 2.16595ZM15.3957 7.11959C15.3313 6.77271 15.0323 6.51857 14.6795 6.51112L14.6658 7.15598C14.7129 7.15697 14.7529 7.19089 14.7615 7.23725L15.3957 7.11959ZM15.5225 8.49999C15.5225 8.03809 15.4799 7.57378 15.3957 7.11963L14.7615 7.23721C14.8385 7.65258 14.8775 8.07752 14.8775 8.49999H15.5225ZM13.3193 13.8192C14.7396 12.3988 15.5225 10.5087 15.5225 8.49999H14.8775C14.8775 10.3376 14.1626 12.0637 12.8632 13.3631L13.3193 13.8192ZM8.00005 16.0225C10.0088 16.0225 11.8989 15.2396 13.3193 13.8192L12.8632 13.3631C11.5637 14.6625 9.8377 15.3775 8.00005 15.3775V16.0225ZM2.68082 13.8192C4.10123 15.2396 5.99133 16.0225 8.00005 16.0225V15.3775C6.1624 15.3775 4.43635 14.6625 3.1369 13.3631L2.68082 13.8192ZM0.477549 8.49999C0.477549 10.5087 1.26047 12.3988 2.68082 13.8192L3.13691 13.3631C1.83751 12.0637 1.12255 10.3376 1.12255 8.49999H0.477549ZM2.68082 3.18079C1.26047 4.60117 0.477549 6.49127 0.477549 8.49999H1.12255C1.12255 6.66233 1.83751 4.93629 3.13691 3.63687L2.68082 3.18079ZM8.00005 0.977488C5.99133 0.977488 4.10123 1.76041 2.68082 3.18078L3.1369 3.63687C4.43635 2.33745 6.1624 1.62249 8.00005 1.62249V0.977488ZM9.3806 1.10446C8.92668 1.02019 8.46231 0.977488 8.00005 0.977488V1.62249C8.42288 1.62249 8.84783 1.66157 9.26286 1.73863L9.3806 1.10446ZM9.98894 1.82074C9.98155 1.46799 9.72748 1.16888 9.38061 1.10446L9.26285 1.73862C9.30917 1.74722 9.3431 1.78719 9.34408 1.83426L9.98894 1.82074ZM9.41117 2.56185C9.75509 2.48294 9.99629 2.17344 9.98894 1.82079L9.34408 1.83421C9.34506 1.88133 9.31283 1.92266 9.26693 1.93319L9.41117 2.56185ZM6.48506 6.24059C6.48506 4.46865 7.68775 2.95729 9.41117 2.56185L9.26693 1.93319C7.24979 2.39601 5.84006 4.1687 5.84006 6.24059H6.48506ZM10.2594 10.0149C8.17852 10.0149 6.48506 8.32148 6.48506 6.24059H5.84006C5.84006 8.67771 7.8223 10.6599 10.2594 10.6599V10.0149ZM13.9382 7.08885C13.5428 8.81226 12.0314 10.0149 10.2594 10.0149V10.6599C12.3313 10.6599 14.104 9.25022 14.5669 7.23312L13.9382 7.08885ZM14.6796 6.51113C14.3251 6.50344 14.017 6.74558 13.9382 7.08886L14.5669 7.2331C14.5776 7.18657 14.6183 7.15495 14.6657 7.15598L14.6796 6.51113ZM7.99994 14.5338C4.6732 14.5338 1.96619 11.8268 1.96619 8.50003H1.32119C1.32119 12.183 4.31698 15.1788 7.99994 15.1788V14.5338ZM14.0126 9.00656C13.7546 12.0971 11.1559 14.5338 7.99994 14.5338V15.1788C11.4944 15.1788 14.3697 12.4819 14.6554 9.06023L14.0126 9.00656ZM13.5611 10.3394C13.962 10.016 14.3116 9.63617 14.6 9.21583L14.0681 8.85097C13.8147 9.22038 13.5077 9.55386 13.1561 9.83736L13.5611 10.3394ZM10.2593 11.5037C11.4575 11.5037 12.6297 11.0905 13.561 10.3394L13.1562 9.83735C12.3397 10.4957 11.3105 10.8587 10.2593 10.8587V11.5037ZM4.99617 6.24064C4.99617 9.14303 7.35693 11.5037 10.2593 11.5037V10.8587C7.71315 10.8587 5.64117 8.7868 5.64117 6.24064H4.99617ZM6.16049 2.9389C5.40939 3.87023 4.99617 5.04241 4.99617 6.24064H5.64117C5.64117 5.18943 6.00415 4.16021 6.66256 3.3438L6.16049 2.9389ZM7.28417 1.89999C6.8638 2.1883 6.48388 2.53791 6.16049 2.9389L6.66256 3.3438C6.94606 2.99228 7.27956 2.68528 7.64899 2.43191L7.28417 1.89999ZM1.96619 8.50003C1.96619 5.34415 4.40291 2.74541 7.49342 2.48733L7.43974 1.84457C4.01808 2.13031 1.32119 5.00565 1.32119 8.50003H1.96619Z" fill="#696969"/>
<path fill-rule="evenodd" clip-rule="evenodd" d="M13.6 5.3303L12.6112 5.7L12.64 4.59689L12 3.72231L13.0067 3.41033L13.6 2.5L14.1933 3.41033L15.2 3.72231L14.56 4.59689L14.5888 5.7L13.6 5.3303Z" fill="#FF6400"/>
</svg>
