<svg width="20" height="20" viewBox="0 0 20 20" fill="none" xmlns="http://www.w3.org/2000/svg">
<path fill-rule="evenodd" clip-rule="evenodd" d="M18.8196 3.40892L14.8092 1.71243C14.6637 1.65136 14.5021 1.65136 14.3566 1.71243L10.3462 3.40892C10.1365 3.49714 10.0002 3.70185 10.0002 3.92805V6.19003C10.0002 9.30139 11.1655 11.12 14.2982 12.9013C14.3864 12.9511 14.485 12.976 14.5835 12.976C14.682 12.976 14.7806 12.9511 14.8688 12.9013C18.0015 11.1246 19.1668 9.30592 19.1668 6.19003V3.92805C19.1668 3.70185 19.0305 3.49714 18.8196 3.40892ZM16.7503 5.97854L14.4586 8.80602C14.3486 8.93948 14.1836 9.01752 14.0106 9.01752H13.9865C13.8043 9.0096 13.6359 8.91686 13.5339 8.76644L12.3881 7.06995C12.2128 6.80982 12.2838 6.45921 12.5474 6.28617C12.8086 6.11426 13.165 6.18212 13.3414 6.44338L14.053 7.49633L15.8542 5.2728C16.0525 5.02963 16.4134 4.99118 16.6598 5.18458C16.9073 5.37798 16.9462 5.73424 16.7503 5.97854ZM8.85433 6.19002V5.05903H1.97933C1.34798 5.05903 0.833496 5.56685 0.833496 6.19002V8.45201H9.0961C8.93683 7.76097 8.85433 7.01678 8.85433 6.19002ZM15.4394 13.8819C17.1467 12.9138 18.3384 11.9027 19.1198 10.714H19.1668V16.369C19.1668 16.9933 18.6535 17.5 18.021 17.5H1.97933C1.34798 17.5 0.833496 16.9933 0.833496 16.369V10.714H10.0494C10.832 11.9015 12.0237 12.9138 13.731 13.8842C13.99 14.0301 14.2856 14.107 14.5835 14.107C14.8814 14.107 15.177 14.0301 15.4394 13.8819ZM3.69808 14.107H5.98975C6.306 14.107 6.56266 13.8536 6.56266 13.5415C6.56266 13.2293 6.306 12.976 5.98975 12.976H3.69808C3.38183 12.976 3.12516 13.2293 3.12516 13.5415C3.12516 13.8536 3.38183 14.107 3.69808 14.107Z" fill="#FF6400"/>
</svg>
