<svg width="108" height="32" viewBox="0 0 108 32" fill="none" xmlns="http://www.w3.org/2000/svg">
<rect width="108" height="32" rx="4" fill="black"/>
<path fill-rule="evenodd" clip-rule="evenodd" d="M4 0H104C106.209 0 108 1.79086 108 4V28C108 30.2091 106.209 32 104 32H4C1.79086 32 0 30.2091 0 28V4C0 1.79086 1.79086 0 4 0ZM107.36 4C107.36 2.14432 105.856 0.64 104 0.64H4C2.14432 0.64 0.64 2.14432 0.64 4V28C0.64 29.8557 2.14432 31.36 4 31.36H104C105.856 31.36 107.36 29.8557 107.36 28V4Z" fill="#A6A6A6"/>
<path fill-rule="evenodd" clip-rule="evenodd" d="M38.192 18.448V19.888H41.648C41.5938 20.5663 41.3119 21.2063 40.848 21.704C40.1488 22.4162 39.1812 22.7998 38.184 22.76C36.0632 22.76 34.344 21.0408 34.344 18.92C34.344 16.7993 36.0632 15.08 38.184 15.08C39.1582 15.0641 40.099 15.4353 40.8 16.112L41.816 15.096C40.8599 14.1279 39.5526 13.5882 38.192 13.6C36.2552 13.5246 34.4323 14.515 33.4415 16.1809C32.4507 17.8468 32.4507 19.9213 33.4415 21.5872C34.4323 23.2531 36.2552 24.2434 38.192 24.168C39.5774 24.2306 40.9222 23.691 41.88 22.688C42.7181 21.7672 43.1656 20.5566 43.128 19.312C43.1306 19.0088 43.1038 18.7061 43.048 18.408L38.192 18.448ZM47.064 17.4C45.1873 17.4044 43.6691 18.9286 43.672 20.8053C43.675 22.6821 45.1979 24.2015 47.0747 24.2C48.9514 24.1985 50.472 22.6768 50.472 20.8C50.4852 19.8915 50.129 19.0166 49.485 18.3756C48.841 17.7347 47.9644 17.3826 47.056 17.4H47.064ZM51.128 20.8106C51.1221 18.935 52.6363 17.4089 54.512 17.4C55.4204 17.3826 56.297 17.7347 56.941 18.3756C57.585 19.0166 57.9412 19.8915 57.928 20.8C57.928 22.6757 56.409 24.1971 54.5333 24.2C52.6576 24.2029 51.1339 22.6863 51.128 20.8106ZM52.5056 21.6948C52.8709 22.4595 53.6666 22.9231 54.512 22.864C55.0426 22.8517 55.5458 22.6256 55.9073 22.237C56.2688 21.8483 56.458 21.3302 56.432 20.8C56.4299 19.9525 55.91 19.1925 55.121 18.8833C54.3319 18.5741 53.434 18.7787 52.8568 19.3993C52.2796 20.0198 52.1403 20.9301 52.5056 21.6948ZM45.0523 21.7009C45.4202 22.4651 46.2181 22.9265 47.064 22.864H47.056C47.5866 22.8517 48.0898 22.6256 48.4513 22.237C48.8128 21.8483 49.002 21.3302 48.976 20.8C48.9737 19.9519 48.4528 19.1915 47.6627 18.883C46.8726 18.5745 45.9742 18.7808 45.3979 19.403C44.8215 20.0252 44.6844 20.9367 45.0523 21.7009ZM71.528 17.4C72.8543 17.4489 74.0129 18.3114 74.44 19.568L74.608 19.928L70.056 21.808C70.3413 22.4578 70.9949 22.8671 71.704 22.84C72.3887 22.8418 73.0238 22.4832 73.376 21.896L74.536 22.696C73.9045 23.6412 72.8407 24.2062 71.704 24.2C70.8005 24.2133 69.9304 23.8585 69.2936 23.2173C68.6569 22.576 68.3084 21.7035 68.328 20.8C68.2727 19.9172 68.5853 19.051 69.1915 18.4069C69.7977 17.7628 70.6435 17.3983 71.528 17.4ZM69.8 20.704C69.7672 20.2042 69.9371 19.7121 70.2712 19.3389C70.6053 18.9657 71.0756 18.7426 71.576 18.72C72.1035 18.6853 72.6009 18.9686 72.84 19.44L69.8 20.704ZM67.6 24H66.104V14H67.6V24ZM63.656 18.16H63.6C63.144 17.6502 62.4921 17.3591 61.808 17.36C59.9921 17.4481 58.5651 18.946 58.5651 20.764C58.5651 22.582 59.9921 24.08 61.808 24.168C62.4943 24.1796 63.1504 23.8866 63.6 23.368H63.648V23.856C63.648 25.16 62.952 25.856 61.832 25.856C61.069 25.8382 60.3926 25.3609 60.12 24.648L58.816 25.192C59.3181 26.4135 60.5114 27.2079 61.832 27.2C63.584 27.2 65.032 26.168 65.032 23.656V17.6H63.656V18.16ZM61.9415 22.8638L61.944 22.864H61.936L61.9415 22.8638ZM63.2896 22.2223C62.9462 22.6108 62.4594 22.8424 61.9415 22.8638C60.873 22.7684 60.0539 21.873 60.0539 20.8C60.0539 19.7262 60.8743 18.8303 61.944 18.736C62.4609 18.7626 62.9452 18.9966 63.2871 19.3852C63.629 19.7738 63.7995 20.284 63.76 20.8C63.8041 21.3185 63.6341 21.8324 63.2896 22.2223ZM81.448 14H77.872V24H79.368V20.208H81.456C82.6182 20.2915 83.7296 19.7188 84.3361 18.724C84.9426 17.7292 84.9426 16.4789 84.3361 15.484C83.7296 14.4892 82.6182 13.9165 81.456 14H81.448ZM79.36 18.8H81.448L81.48 18.824C82.4277 18.824 83.196 18.0557 83.196 17.108C83.196 16.1603 82.4277 15.392 81.48 15.392H79.36V18.8ZM90.672 17.36C89.559 17.2935 88.5126 17.8937 88.008 18.888L89.336 19.44C89.6035 18.947 90.1369 18.6583 90.696 18.704C91.0796 18.6592 91.4652 18.7704 91.766 19.0126C92.0669 19.2548 92.2578 19.6077 92.296 19.992V20.096C91.8155 19.8416 91.2797 19.7097 90.736 19.712C89.304 19.712 87.856 20.512 87.856 21.96C87.8846 22.5838 88.1642 23.1695 88.6313 23.5839C89.0984 23.9982 89.7133 24.206 90.336 24.16C91.1034 24.2151 91.8397 23.847 92.256 23.2H92.304V24H93.744V20.152C93.744 18.4 92.416 17.384 90.712 17.384L90.672 17.36ZM89.32 21.992C89.32 22.592 90 22.84 90.488 22.84L90.528 22.864C91.4292 22.8421 92.1766 22.1596 92.28 21.264C91.8649 21.0323 91.3952 20.9163 90.92 20.928C90.168 20.928 89.32 21.192 89.32 21.992ZM98.992 17.6L97.28 21.936H97.232L95.456 17.6H93.856L96.52 23.664L95 27.032H96.56L100.656 17.6H98.992ZM87.04 24H85.544V14H87.04V24Z" fill="white"/>
<path fill-rule="evenodd" clip-rule="evenodd" d="M55.368 6.21599C54.4242 7.215 54.4242 8.77698 55.368 9.77599C56.3416 10.7442 57.9144 10.7442 58.888 9.77599C59.8358 8.77858 59.8358 7.2134 58.888 6.21599C58.4224 5.74699 57.7889 5.48322 57.128 5.48322C56.4672 5.48322 55.8336 5.74699 55.368 6.21599ZM37.336 9.79199C37.7466 9.36329 37.9635 8.78497 37.936 8.19199C37.9361 8.07128 37.9254 7.9508 37.904 7.83199H35.576V8.40799H37.312C37.3002 8.77079 37.1582 9.11722 36.912 9.38399C36.3637 9.91403 35.5503 10.0621 34.8504 9.7594C34.1504 9.45666 33.7013 8.76254 33.712 7.99999C33.6946 7.49536 33.8835 7.00542 34.2353 6.64314C34.587 6.28086 35.0711 6.07751 35.576 6.07999C36.0783 6.05254 36.5643 6.26293 36.888 6.64799L37.312 6.22399C37.1072 5.98843 36.8495 5.80475 36.56 5.68799C36.2491 5.55492 35.9142 5.48686 35.576 5.48799C34.9125 5.4732 34.2725 5.73385 33.808 6.20799C33.0933 6.92745 32.8794 8.00528 33.2654 8.94312C33.6514 9.88096 34.5619 10.4961 35.576 10.504C36.2372 10.5275 36.8772 10.2686 37.336 9.79199ZM39.44 6.19199H41.6V5.59999H38.8V10.4H41.6V9.80799H39.44V8.28799H41.408V7.71199H39.44V6.19199ZM44.224 10.4H43.608V6.19199H42.264V5.59999H45.6V6.19199H44.224V10.4ZM48.568 5.59999H47.952V10.4H48.568V5.59999ZM51.304 10.4H50.688V6.19199H49.344V5.59999H52.64V6.19199H51.304V10.4ZM55.824 9.37599C56.5451 10.094 57.711 10.094 58.432 9.37599C59.1402 8.59533 59.1402 7.40465 58.432 6.62399C57.711 5.90594 56.5451 5.90594 55.824 6.62399C55.1159 7.40465 55.1159 8.59533 55.824 9.37599ZM61.216 5.59999H60.464V10.4H61.088V6.48799L63.528 10.4H64.168V5.59999H63.552V9.33599L61.216 5.59999Z" fill="white"/>
<path d="M55.368 9.77599L55.1862 9.94775L55.1918 9.95326L55.368 9.77599ZM55.368 6.21599L55.1906 6.0398L55.1863 6.04431L55.368 6.21599ZM58.888 9.77599L59.0644 9.95333L59.0693 9.9482L58.888 9.77599ZM58.888 6.21599L59.0693 6.04373L59.0655 6.03986L58.888 6.21599ZM37.936 8.19199L37.6858 8.19189L37.6863 8.20356L37.936 8.19199ZM37.336 9.79199L37.5161 9.96537L37.5166 9.96492L37.336 9.79199ZM37.904 7.83199L38.1501 7.7878L38.1131 7.58199H37.904V7.83199ZM35.576 7.83199V7.58199H35.326V7.83199H35.576ZM35.576 8.40799H35.326V8.65799H35.576V8.40799ZM37.312 8.40799L37.5619 8.41615L37.5703 8.15799H37.312V8.40799ZM36.912 9.38399L37.0858 9.56374L37.0909 9.55878L37.0958 9.55353L36.912 9.38399ZM34.8504 9.7594L34.7511 9.98885L34.7511 9.98885L34.8504 9.7594ZM33.712 7.99999L33.9623 8.00351L33.9619 7.99137L33.712 7.99999ZM34.2353 6.64314L34.0559 6.469L34.0559 6.469L34.2353 6.64314ZM35.576 6.07999L35.5748 6.32999L35.5822 6.33002L35.5897 6.32962L35.576 6.07999ZM36.888 6.64799L36.6967 6.80887L36.8721 7.0175L37.0648 6.82477L36.888 6.64799ZM37.312 6.22399L37.4888 6.40077L37.6537 6.2359L37.5007 6.05995L37.312 6.22399ZM36.56 5.68799L36.4617 5.91788L36.4665 5.91984L36.56 5.68799ZM35.576 5.48799L35.5705 5.73801L35.5769 5.73799L35.576 5.48799ZM33.808 6.20799L33.9854 6.38419L33.9866 6.38293L33.808 6.20799ZM33.2654 8.94312L33.0342 9.03826L33.0342 9.03826L33.2654 8.94312ZM35.576 10.504L35.5849 10.2541L35.578 10.254L35.576 10.504ZM41.6 6.19199V6.44199H41.85V6.19199H41.6ZM39.44 6.19199V5.94199H39.19V6.19199H39.44ZM41.6 5.59999H41.85V5.34999H41.6V5.59999ZM38.8 5.59999V5.34999H38.55V5.59999H38.8ZM38.8 10.4H38.55V10.65H38.8V10.4ZM41.6 10.4V10.65H41.85V10.4H41.6ZM41.6 9.80799H41.85V9.55799H41.6V9.80799ZM39.44 9.80799H39.19V10.058H39.44V9.80799ZM39.44 8.28799V8.03799H39.19V8.28799H39.44ZM41.408 8.28799V8.53799H41.658V8.28799H41.408ZM41.408 7.71199H41.658V7.46199H41.408V7.71199ZM39.44 7.71199H39.19V7.96199H39.44V7.71199ZM43.608 10.4H43.358V10.65H43.608V10.4ZM44.224 10.4V10.65H44.474V10.4H44.224ZM43.608 6.19199H43.858V5.94199H43.608V6.19199ZM42.264 6.19199H42.014V6.44199H42.264V6.19199ZM42.264 5.59999V5.34999H42.014V5.59999H42.264ZM45.6 5.59999H45.85V5.34999H45.6V5.59999ZM45.6 6.19199V6.44199H45.85V6.19199H45.6ZM44.224 6.19199V5.94199H43.974V6.19199H44.224ZM47.952 5.59999V5.34999H47.702V5.59999H47.952ZM48.568 5.59999H48.818V5.34999H48.568V5.59999ZM47.952 10.4H47.702V10.65H47.952V10.4ZM48.568 10.4V10.65H48.818V10.4H48.568ZM50.688 10.4H50.438V10.65H50.688V10.4ZM51.304 10.4V10.65H51.554V10.4H51.304ZM50.688 6.19199H50.938V5.94199H50.688V6.19199ZM49.344 6.19199H49.094V6.44199H49.344V6.19199ZM49.344 5.59999V5.34999H49.094V5.59999H49.344ZM52.64 5.59999H52.89V5.34999H52.64V5.59999ZM52.64 6.19199V6.44199H52.89V6.19199H52.64ZM51.304 6.19199V5.94199H51.054V6.19199H51.304ZM58.432 9.37599L58.6087 9.55336L58.6172 9.54396L58.432 9.37599ZM55.824 9.37599L55.6386 9.54417L55.6476 9.55313L55.824 9.37599ZM58.432 6.62399L58.6174 6.4558L58.6084 6.44684L58.432 6.62399ZM55.824 6.62399L55.6474 6.44661L55.6389 6.45602L55.824 6.62399ZM60.464 5.59999V5.34999H60.214V5.59999H60.464ZM61.216 5.59999L61.428 5.46745L61.3546 5.34999H61.216V5.59999ZM60.464 10.4H60.214V10.65H60.464V10.4ZM61.088 10.4V10.65H61.338V10.4H61.088ZM61.088 6.48799L61.3002 6.35568L60.838 5.61477V6.48799H61.088ZM63.528 10.4L63.3159 10.5323L63.3893 10.65H63.528V10.4ZM64.168 10.4V10.65H64.418V10.4H64.168ZM64.168 5.59999H64.418V5.34999H64.168V5.59999ZM63.552 5.59999V5.34999H63.302V5.59999H63.552ZM63.552 9.33599L63.3401 9.46853L63.802 10.2074V9.33599H63.552ZM55.5498 9.60431C54.697 8.70165 54.697 7.29033 55.5498 6.38767L55.1863 6.04431C54.1515 7.13968 54.1515 8.8523 55.1863 9.94767L55.5498 9.60431ZM58.7118 9.59872C57.8357 10.4699 56.4204 10.4699 55.5443 9.59872L55.1918 9.95326C56.2629 11.0184 57.9932 11.0184 59.0643 9.95326L58.7118 9.59872ZM58.7068 6.3882C59.5629 7.28911 59.5629 8.70287 58.7068 9.60378L59.0693 9.9482C60.1088 8.8543 60.1088 7.13768 59.0693 6.04378L58.7068 6.3882ZM57.128 5.73322C57.7223 5.73322 58.2919 5.9704 58.7106 6.39212L59.0655 6.03986C58.5529 5.52358 57.8555 5.23322 57.128 5.23322V5.73322ZM55.5455 6.39212C55.9641 5.9704 56.5338 5.73322 57.128 5.73322V5.23322C56.4005 5.23322 55.7031 5.52358 55.1906 6.03986L55.5455 6.39212ZM37.6863 8.20356C37.7106 8.72817 37.5188 9.2398 37.1555 9.61906L37.5166 9.96492C37.9745 9.48678 38.2164 8.84178 38.1858 8.18041L37.6863 8.20356ZM37.658 7.87618C37.6767 7.98038 37.6861 8.08603 37.686 8.19189L38.186 8.19209C38.1861 8.05652 38.1741 7.92123 38.1501 7.7878L37.658 7.87618ZM35.576 8.08199H37.904V7.58199H35.576V8.08199ZM35.826 8.40799V7.83199H35.326V8.40799H35.826ZM37.312 8.15799H35.576V8.65799H37.312V8.15799ZM37.0958 9.55353C37.3826 9.24265 37.5481 8.83894 37.5619 8.41615L37.0622 8.39983C37.0523 8.70264 36.9338 8.99179 36.7283 9.21445L37.0958 9.55353ZM34.7511 9.98885C35.5438 10.3317 36.4649 10.164 37.0858 9.56374L36.7383 9.20424C36.2626 9.66409 35.5569 9.79259 34.9496 9.52994L34.7511 9.98885ZM33.4621 7.99648C33.4499 8.86 33.9585 9.64603 34.7511 9.98885L34.9496 9.52994C34.3423 9.26729 33.9527 8.66508 33.962 8.0035L33.4621 7.99648ZM34.0559 6.469C33.6568 6.88008 33.4424 7.43601 33.4622 8.00861L33.9619 7.99137C33.9468 7.55471 34.1103 7.13076 34.4146 6.81728L34.0559 6.469ZM35.5773 5.82999C35.0043 5.82718 34.455 6.05792 34.0559 6.469L34.4146 6.81728C34.719 6.5038 35.1379 6.32784 35.5748 6.32999L35.5773 5.82999ZM37.0794 6.48711C36.7051 6.04189 36.1432 5.79862 35.5624 5.83036L35.5897 6.32962C36.0135 6.30646 36.4235 6.48397 36.6967 6.80887L37.0794 6.48711ZM37.1353 6.04721L36.7113 6.47121L37.0648 6.82477L37.4888 6.40077L37.1353 6.04721ZM36.4665 5.91984C36.7194 6.02183 36.9445 6.18227 37.1234 6.38803L37.5007 6.05995C37.27 5.7946 36.9797 5.58767 36.6535 5.45614L36.4665 5.91984ZM35.5769 5.73799C35.881 5.73697 36.1821 5.79817 36.4617 5.91783L36.6584 5.45815C36.3161 5.31167 35.9475 5.23675 35.5752 5.23799L35.5769 5.73799ZM33.9866 6.38293C34.4027 5.95818 34.976 5.72468 35.5705 5.73793L35.5816 5.23805C34.8489 5.22172 34.1422 5.50952 33.6294 6.03305L33.9866 6.38293ZM33.4966 8.84798C33.1489 8.00317 33.3415 7.03227 33.9854 6.38419L33.6307 6.03179C32.845 6.82262 32.6099 8.00738 33.0342 9.03826L33.4966 8.84798ZM35.578 10.254C34.6645 10.2468 33.8442 9.69278 33.4966 8.84798L33.0342 9.03826C33.4585 10.0691 34.4593 10.7453 35.5741 10.754L35.578 10.254ZM37.1559 9.61861C36.7464 10.0441 36.1751 10.2752 35.5849 10.2541L35.5671 10.7538C36.2993 10.7799 37.008 10.4932 37.5161 9.96537L37.1559 9.61861ZM41.6 5.94199H39.44V6.44199H41.6V5.94199ZM41.35 5.59999V6.19199H41.85V5.59999H41.35ZM38.8 5.84999H41.6V5.34999H38.8V5.84999ZM39.05 10.4V5.59999H38.55V10.4H39.05ZM41.6 10.15H38.8V10.65H41.6V10.15ZM41.35 9.80799V10.4H41.85V9.80799H41.35ZM39.44 10.058H41.6V9.55799H39.44V10.058ZM39.19 8.28799V9.80799H39.69V8.28799H39.19ZM41.408 8.03799H39.44V8.53799H41.408V8.03799ZM41.158 7.71199V8.28799H41.658V7.71199H41.158ZM39.44 7.96199H41.408V7.46199H39.44V7.96199ZM39.19 6.19199V7.71199H39.69V6.19199H39.19ZM43.608 10.65H44.224V10.15H43.608V10.65ZM43.358 6.19199V10.4H43.858V6.19199H43.358ZM42.264 6.44199H43.608V5.94199H42.264V6.44199ZM42.014 5.59999V6.19199H42.514V5.59999H42.014ZM45.6 5.34999H42.264V5.84999H45.6V5.34999ZM45.85 6.19199V5.59999H45.35V6.19199H45.85ZM44.224 6.44199H45.6V5.94199H44.224V6.44199ZM44.474 10.4V6.19199H43.974V10.4H44.474ZM47.952 5.84999H48.568V5.34999H47.952V5.84999ZM48.202 10.4V5.59999H47.702V10.4H48.202ZM48.568 10.15H47.952V10.65H48.568V10.15ZM48.318 5.59999V10.4H48.818V5.59999H48.318ZM50.688 10.65H51.304V10.15H50.688V10.65ZM50.438 6.19199V10.4H50.938V6.19199H50.438ZM49.344 6.44199H50.688V5.94199H49.344V6.44199ZM49.094 5.59999V6.19199H49.594V5.59999H49.094ZM52.64 5.34999H49.344V5.84999H52.64V5.34999ZM52.89 6.19199V5.59999H52.39V6.19199H52.89ZM51.304 6.44199H52.64V5.94199H51.304V6.44199ZM51.554 10.4V6.19199H51.054V10.4H51.554ZM58.2556 9.19884C57.6321 9.81976 56.624 9.81976 56.0004 9.19884L55.6476 9.55313C56.4662 10.3683 57.7898 10.3683 58.6084 9.55313L58.2556 9.19884ZM58.2469 6.79196C58.8686 7.47733 58.8686 8.52265 58.2469 9.20802L58.6172 9.54396C59.4118 8.668 59.4118 7.33198 58.6172 6.45602L58.2469 6.79196ZM56.0004 6.80113C56.624 6.18022 57.6321 6.18022 58.2556 6.80113L58.6084 6.44684C57.7898 5.63165 56.4662 5.63165 55.6476 6.44684L56.0004 6.80113ZM56.0092 9.20802C55.3875 8.52265 55.3875 7.47733 56.0092 6.79196L55.6389 6.45602C54.8443 7.33198 54.8443 8.668 55.6389 9.54396L56.0092 9.20802ZM60.464 5.84999H61.216V5.34999H60.464V5.84999ZM60.714 10.4V5.59999H60.214V10.4H60.714ZM61.088 10.15H60.464V10.65H61.088V10.15ZM60.838 6.48799V10.4H61.338V6.48799H60.838ZM63.7402 10.2677L61.3002 6.35568L60.8759 6.62029L63.3159 10.5323L63.7402 10.2677ZM64.168 10.15H63.528V10.65H64.168V10.15ZM63.918 5.59999V10.4H64.418V5.59999H63.918ZM63.552 5.84999H64.168V5.34999H63.552V5.84999ZM63.802 9.33599V5.59999H63.302V9.33599H63.802ZM61.0041 5.73253L63.3401 9.46853L63.764 9.20345L61.428 5.46745L61.0041 5.73253Z" fill="white"/>
<path d="M8.35194 6.03201C8.0912 6.3449 7.95959 6.74545 7.98394 7.15201V24.848C7.95959 25.2546 8.0912 25.6551 8.35194 25.968L8.40794 26.024L18.3199 16.12V15.888L8.40794 5.97601L8.35194 6.03201Z" fill="url(#paint0_linear)"/>
<path d="M21.5999 19.424L18.3199 16.12V15.888L21.5999 12.576L21.6719 12.616L25.5999 14.848C26.7199 15.48 26.7199 16.52 25.5999 17.16L21.6879 19.384L21.5999 19.424Z" fill="url(#paint1_linear)"/>
<path d="M21.6959 19.376L18.3199 16L8.35193 25.968C8.8229 26.382 9.52187 26.4022 10.0159 26.016L21.7039 19.376" fill="url(#paint2_linear)"/>
<path d="M21.696 12.624L10.008 5.98402C9.51394 5.59784 8.81497 5.618 8.34399 6.03202L18.32 16L21.696 12.624Z" fill="url(#paint3_linear)"/>
<path opacity="0.2" d="M21.5999 19.304L10.0079 25.904C9.53356 26.2587 8.8823 26.2587 8.40793 25.904L8.35193 25.96L8.40793 26.016C8.88141 26.3734 9.53445 26.3734 10.0079 26.016L21.6959 19.376L21.5999 19.304Z" fill="black"/>
<path opacity="0.12" fill-rule="evenodd" clip-rule="evenodd" d="M21.5999 19.304L25.5999 17.04C26.0133 16.836 26.3088 16.4519 26.3999 16C26.3587 16.4995 26.0536 16.9389 25.5999 17.152L21.6719 19.376L21.5999 19.304ZM7.9822 24.8917C7.99541 25.2437 8.12459 25.5832 8.35194 25.856L8.40794 25.92L8.35194 25.976C8.09884 25.6723 7.96741 25.286 7.9822 24.8917ZM7.9822 24.8917C7.98265 24.8798 7.98323 24.8679 7.98394 24.856V24.736C7.98083 24.7881 7.98026 24.84 7.9822 24.8917Z" fill="black"/>
<path opacity="0.25" d="M10.008 6.09601L25.6 14.96C26.0133 15.164 26.3088 15.5481 26.4 16C26.3587 15.5005 26.0536 15.0611 25.6 14.848L10.008 5.98401C8.88795 5.35201 7.97595 5.88001 7.97595 7.16001V7.28001C7.99995 5.99201 8.89595 5.46401 10.008 6.09601V6.09601Z" fill="white"/>
<defs>
<linearGradient id="paint0_linear" x1="13.9785" y1="-6.04716" x2="-1.89301" y2="-1.82609" gradientUnits="userSpaceOnUse">
<stop stop-color="#00A0FF"/>
<stop offset="0.01" stop-color="#00A1FF"/>
<stop offset="0.26" stop-color="#00BEFF"/>
<stop offset="0.51" stop-color="#00D2FF"/>
<stop offset="0.76" stop-color="#00DFFF"/>
<stop offset="1" stop-color="#00E3FF"/>
</linearGradient>
<linearGradient id="paint1_linear" x1="27.0639" y1="7.83974" x2="7.71195" y2="7.83974" gradientUnits="userSpaceOnUse">
<stop stop-color="#FFE000"/>
<stop offset="0.41" stop-color="#FFBD00"/>
<stop offset="0.78" stop-color="#FFA500"/>
<stop offset="1" stop-color="#FF9C00"/>
</linearGradient>
<linearGradient id="paint2_linear" x1="8.05904" y1="10.822" x2="-4.69012" y2="32.2673" gradientUnits="userSpaceOnUse">
<stop stop-color="#FF3A44"/>
<stop offset="1" stop-color="#C31162"/>
</linearGradient>
<linearGradient id="paint3_linear" x1="0.568009" y1="3.27682" x2="6.25864" y2="12.8532" gradientUnits="userSpaceOnUse">
<stop stop-color="#32A071"/>
<stop offset="0.07" stop-color="#2DA771"/>
<stop offset="0.48" stop-color="#15CF74"/>
<stop offset="0.8" stop-color="#06E775"/>
<stop offset="1" stop-color="#00F076"/>
</linearGradient>
</defs>
</svg>
